<svg xmlns="http://www.w3.org/2000/svg" viewBox="0 0 248 248"><linearGradient id="a" gradientUnits="userSpaceOnUse" x1="80.258" y1="52.869" x2="87.023" y2="54.26"><stop offset="0" stop-color="#bca787"/><stop offset=".513" stop-color="#9d8a6b"/><stop offset="1" stop-color="#847454"/></linearGradient><path d="M83.6 50.5c-1 .6-2 1.2-3.1 1.7l2.8 4.9 3.1-1.7c1.3-.7 1.5-2.3.7-3.7-.8-1.3-2.2-1.9-3.5-1.2z" fill="url(#a)"/><linearGradient id="b" gradientUnits="userSpaceOnUse" x1="101.893" y1="197.339" x2="107.573" y2="198.507"><stop offset="0" stop-color="#bca787"/><stop offset=".513" stop-color="#9d8a6b"/><stop offset="1" stop-color="#847454"/></linearGradient><path d="M106.2 195.8l-3.4-.9-1.3 4.8 3.4.9c1.4.4 2.6-.5 2.9-1.8.4-1.4-.2-2.6-1.6-3z" fill="url(#b)"/><linearGradient id="c" gradientUnits="userSpaceOnUse" x1="102.365" y1="44.472" x2="108.91" y2="45.817"><stop offset="0" stop-color="#bca787"/><stop offset=".513" stop-color="#9d8a6b"/><stop offset="1" stop-color="#847454"/></linearGradient><path d="M107.5 47.5c1.4-.3 2.1-1.8 1.7-3.3-.3-1.5-1.5-2.5-3-2.2-1.2.2-2.3.5-3.4.8l1.3 5.5 3.4-.8z" fill="url(#c)"/><linearGradient id="d" gradientUnits="userSpaceOnUse" x1="64.039" y1="70.305" x2="69.472" y2="71.421"><stop offset="0" stop-color="#bca787"/><stop offset=".513" stop-color="#9d8a6b"/><stop offset="1" stop-color="#847454"/></linearGradient><path fill="url(#d)" d="M70.1 70.1L64.6 68l2.4 5.3z"/><linearGradient id="e" gradientUnits="userSpaceOnUse" x1="-3.877" y1="97.714" x2="233.922" y2="146.595"><stop offset="0" stop-color="#bca787"/><stop offset=".513" stop-color="#9d8a6b"/><stop offset="1" stop-color="#847454"/></linearGradient><path d="M237 124l11-19.6-16.5-15.3 4.4-22.1-20.5-9.4-2.6-22.4-22.4-2.6-9.4-20.5-22.1 4.4L143.6 0 124 11 104.4 0 89.1 16.5 67 12.1l-9.4 20.5-22.4 2.6-2.6 22.4L12.1 67l4.4 22.1L0 104.4 11 124 0 143.6l16.5 15.3-4.4 22.1 20.5 9.4 2.6 22.4 22.4 2.6 9.4 20.5 22.1-4.4 15.3 16.5 19.6-11 19.6 11 15.3-16.5 22.1 4.4 9.4-20.5 22.4-2.6 2.6-22.4 20.5-9.4-4.4-22.1 16.5-15.3-11-19.6zm-42.3-31.9c-1-2.8-1.3-5.9 1.8-7.3 3.3-1.5 5.9.6 7.2 3.6 1.2 2.8 1.3 6.2-2 7.6l-1.3-3c1.1-.7 1.1-2.2.5-3.4s-1.8-2.2-2.9-1.7c-1.3.6-1 2-.5 3.6 1.1 3.3 1.6 6.3-1.9 7.8-3.5 1.6-5.9-1-7.3-3.9-1.3-3-1.2-6.7 2-8.1l1.3 3c-1.3.7-1.2 2.4-.6 3.8.6 1.3 1.6 2.7 3.1 2 1.8-.6 1.1-2.5.6-4zm-15.4-19.5c-1.1 1-.5 2.7.5 3.8.9 1.1 2.3 2.1 3.6 1 1.4-1.2.2-2.8-.7-4.1-1.7-2.4-2.9-5.3-.3-7.5 2.7-2.3 5.8-1.1 7.9 1.4 2 2.3 3 5.5.3 7.9l-2.1-2.5c.9-1 .4-2.4-.5-3.5s-2.3-1.6-3.3-.8c-1.1.9-.4 2.2.5 3.6 2 2.8 3.3 5.5.4 8s-6 .7-8.1-1.6c-2.1-2.5-3.1-6.1-.4-8.4l2.2 2.7zm-11-23.5l8.3 5.5-1.7 2.5-5.3-3.6-1.8 2.7 5 3.3-1.7 2.5-5-3.3-2.1 3.1 5.5 3.7-1.8 2.6-8.4-5.6 9-13.4zm-25.4-10.2l1 .3 6 11.5 2.7-8.8 3.3 1-4.7 15.5-1-.3-6.1-11.6-2.7 8.9-3.3-1 4.8-15.5zm-21 11.6l2.3.1.3-10.8-2.1-.1.1-2.7 7.7.2-.2 2.8-2.1-.1-.3 10.8 2.3.1-.1 2.8-8.1-.2.2-2.9zm-16.3-11.4c3.7-.8 6.3 1.5 6.9 4.5.7 2.9-.7 6-4.3 6.9l-3.4.8 1 4.5-3.4.8-3.6-15.8c2.3-.7 4.5-1.2 6.8-1.7zM61.3 63.7l16.6 5.5.3.3-2.5 2.6-2.8-.9-4.6 4.9 1.1 2.8-2.5 2.6-.3-.3-6.4-16.3 1.1-1.2zM44.4 89.1l5.6 2.7 2.7-5.6-5.6-2.7 1.5-3.1 14.6 7-1.5 3.1-6.2-3-2.7 5.6 6.2 3-1.5 3.1-14.6-7 1.5-3.1zm-7.9 32.1l7.2-2.2 2.2-7.2h.4l2.2 7.2 7.2 2.2v.4l-7.2 2.2-2.2 7.2h-.4l-2.2-7.2-7.2-2.2v-.4zm18.9 29.9c-1.1-2.8-3.8-3.6-6.5-2.6-2.9 1.1-4.1 3.6-3.1 6.3.8 2.1 2 3.3 4.5 3.1l-1.6-4.1 2.7-1.1 2.7 7.1c-1.4.6-2.8 1.1-4.4 1.2-3.5 0-5.8-2.2-6.9-5.1-1.5-4-.2-8.8 4.8-10.7s9.2.7 10.7 4.7c1.2 3 .9 6.6-2.3 8.8l-1.2-3.2c1.1-1.3 1.2-2.7.6-4.4zm10 30.2c-2.8 2.3-6.2 1.3-8.4-1.3s-2.6-6.2.2-8.6l8.3-6.9 2.2 2.7-8.3 6.9c-1.3 1.1-1.1 2.8-.1 4 1 1.2 2.6 1.7 3.9.6l8.3-6.9 2.2 2.6-8.3 6.9zm19.1 20.3l-.2.4-3-1.9.4-2.9-5.7-3.6-2.5 1.6-3-1.9.2-.4 14.8-9.4 1.3.9-2.3 17.2zm2.6-137.9l-3 1.7-8-14.1c2-1.2 4-2.3 6-3.4 3.3-1.9 6.4-.4 7.9 2.3 1.5 2.6 1 6-2.2 7.8l-3 1.7 2.3 4zm24 136c-.5 2-2 3.5-4 3.9l2.2 6.1-.1.5-3.6-.9-1.9-6-2.8-.7-1.4 5.2-3.4-.9 4.1-15.7c2.2.6 4.5 1.2 6.7 1.8 3.6.8 4.9 3.9 4.2 6.7zm22.4 11.1l-1.4-2.6-6.7.4-1.1 2.8-3.6.2v-.5l6.5-16.3 1.6-.1 8.3 15.4v.5l-3.6.2zm-7.5-62.7v-30.8l-14.2-14.9-14.2 14.9v22.1h9.3v-14.3h4c3.3 0 6 2.7 6 6v17h-28v-33l.1-.1 22.8-23.9.3.3 22.6 23.7v24.4h15.8v-22.1l-24.8-26.1h10.7l.1.1 22.6 23.7v33H126zm35.4 55l-11.9-5.3 3.4 8.6-3.2 1.3-5.9-15.2 1-.4 11.8 5.3-3.3-8.6 3.2-1.3 5.9 15.1-1 .5zm15.7-9.8l-8.2-10.3-3.4 2.7-1.9-2.4 9.4-7.5 1.9 2.4-3.4 2.7 8.2 10.3-2.6 2.1zm14.6-14.1l-13.1-9.6 5.9-8 2.5 1.8-3.8 5.2 2.7 1.9 3.5-4.9 2.5 1.8-3.5 4.9 3 2.2 3.9-5.4 2.5 1.9-6.1 8.2zm12.3-20l-15.1-5.7 3.5-9.3 2.8 1.1-2.3 6 3.1 1.2 2.1-5.6 2.8 1.1-2.1 5.6 3.5 1.3 2.3-6.2 2.9 1.1-3.5 9.4zm7.5-37.6l-7.2 2.2-2.2 7.2h-.4l-2.2-7.2-7.2-2.2v-.4l7.2-2.2 2.2-7.2h.4l2.2 7.2 7.2 2.2v.4z" fill="url(#e)"/><linearGradient id="f" gradientUnits="userSpaceOnUse" x1="126.836" y1="202.738" x2="130.951" y2="203.584"><stop offset="0" stop-color="#bca787"/><stop offset=".513" stop-color="#9d8a6b"/><stop offset="1" stop-color="#847454"/></linearGradient><path fill="url(#f)" d="M126.3 205.6l4.5-.3-2.5-5.2z"/><linearGradient id="g" gradientUnits="userSpaceOnUse" x1="78.656" y1="190.343" x2="82.631" y2="191.16"><stop offset="0" stop-color="#bca787"/><stop offset=".513" stop-color="#9d8a6b"/><stop offset="1" stop-color="#847454"/></linearGradient><path fill="url(#g)" d="M82.3 194l.9-5.7-4.7 3.3z"/></svg>