<svg xmlns="http://www.w3.org/2000/svg" viewBox="0 0 272.7 250"><linearGradient id="a" gradientUnits="userSpaceOnUse" x1=".015" y1="125" x2="272.725" y2="125"><stop offset="0" stop-color="#bca787"/><stop offset=".513" stop-color="#9d8a6b"/><stop offset="1" stop-color="#847454"/></linearGradient><path d="M262 46.2L207.2 5.3c-9.4-7.1-22.4-7.1-31.8 0l-39 29-39-29C88-1.8 75-1.8 65.6 5.3L10.7 46.2C4 51.3 0 59.2 0 67.6v74c0 8.4 4 16.3 10.7 21.3l109.8 81.8c9.4 7 22.4 7 31.8 0L262 162.9c6.7-5 10.7-12.9 10.7-21.3v-74c0-8.4-4-16.3-10.7-21.4zM136.4 70l33.4 24.9v39.6H103V94.9L136.4 70zm.1 153.3L26.8 141.6V67.7l54.7-40.9 34.1 25.4-39.3 29.3v79.8h120.3V81.5l-39.3-29.3 34-25.4L246 67.6l.1 73.9-109.6 81.8z" fill="url(#a)"/></svg>