<?xml version="1.0" encoding="utf-8"?>
<!-- Generator: Adobe Illustrator 23.1.1, SVG Export Plug-In . SVG Version: 6.00 Build 0)  -->
<svg version="1.1" id="icons" xmlns="http://www.w3.org/2000/svg" xmlns:xlink="http://www.w3.org/1999/xlink" x="0px" y="0px"
	 viewBox="0 0 52 54" style="enable-background:new 0 0 52 54;" xml:space="preserve">
<style type="text/css">
	.st0{fill:none;stroke:#333333;stroke-width:2;stroke-linecap:round;stroke-linejoin:round;stroke-miterlimit:10;}
	.st1{fill:none;stroke:#A58956;stroke-width:2;stroke-linecap:round;stroke-linejoin:round;stroke-miterlimit:10;}
	.st2{fill:none;stroke:#A58956;stroke-width:0.8;stroke-linecap:round;stroke-linejoin:round;stroke-miterlimit:10;}
</style>
<g id="pho-polaroids">
	<rect x="1" y="5" class="st0" width="50" height="48"/>
	<rect x="5" y="9" class="st0" width="42" height="32"/>
	<line class="st0" x1="5" y1="1" x2="47" y2="1"/>
</g>
<g id="hou-armchair">
	<path class="st2" d="M31.61,14.79c0.66,0,1.2,0.54,1.2,1.2v13.23H19.19V15.99c0-0.66,0.54-1.2,1.2-1.2H31.61z"/>
	<path class="st2" d="M19.19,25.61c0-0.66,0.54-1.2,1.2-1.2h11.22c0.66,0,1.2,0.54,1.2,1.2"/>
	<path class="st2" d="M19.19,21.6c0-0.66-0.54-1.2-1.2-1.2h-1.6c-0.66,0-1.2,0.54-1.2,1.2v8.82c0,0.66,0.54,1.2,1.2,1.2h19.24
		c0.66,0,1.2-0.54,1.2-1.2V21.6c0-0.66-0.54-1.2-1.2-1.2h-1.6c-0.66,0-1.2,0.54-1.2,1.2"/>
	<polyline class="st2" points="16.78,31.62 16.78,34.82 18.39,34.82 19.99,31.62 	"/>
	<polyline class="st2" points="35.22,31.62 35.22,34.82 33.61,34.82 32.01,31.62 	"/>
</g>
</svg>
