<svg id="shopping-basket-icon" xmlns="http://www.w3.org/2000/svg" viewBox="0 0 46 54"><defs><style>.cls-1,.cls-2{fill:none;stroke-linecap:round;stroke-linejoin:round;stroke-width:2px;}.cls-1{stroke:#333;}.cls-2{stroke:#a58956;}</style></defs><title>virtual-staging-icons</title><path class="cls-1" d="M39.37,53a1,1,0,0,0,1-1V34.7a1,1,0,0,0-1-1H33.66a1.92,1.92,0,0,1-1.6-.86l-2.71-4.06a1.92,1.92,0,0,0-1.6-.86h-9.5a1.92,1.92,0,0,0-1.6.86l-2.71,4.06a1.92,1.92,0,0,1-1.6.86H6.63a1,1,0,0,0-1,1V52a1,1,0,0,0,1,1Z"/><line class="cls-1" x1="7.59" y1="29.89" x2="11.44" y2="29.89"/><circle class="cls-1" cx="23" cy="41.44" r="7.7"/><path class="cls-1" d="M19.15,41.44A3.85,3.85,0,0,1,23,37.59"/><rect class="cls-1" x="15.3" y="2.93" width="15.41" height="21.19" rx="2"/><line class="cls-1" x1="15.3" y1="14.48" x2="30.7" y2="14.48"/><line class="cls-2" x1="7.59" y1="8.7" x2="1.81" y2="8.7"/><line class="cls-2" x1="8.56" y1="3.89" x2="3.74" y2="1"/><line class="cls-2" x1="8.56" y1="13.52" x2="3.74" y2="16.41"/><line class="cls-2" x1="38.41" y1="8.7" x2="44.19" y2="8.7"/><line class="cls-2" x1="37.44" y1="3.89" x2="42.26" y2="1"/><line class="cls-2" x1="37.44" y1="13.52" x2="42.26" y2="16.41"/></svg>