<?xml version="1.0" standalone="no"?>
<!DOCTYPE svg PUBLIC "-//W3C//DTD SVG 1.1//EN" "http://www.w3.org/Graphics/SVG/1.1/DTD/svg11.dtd" >
<svg xmlns="http://www.w3.org/2000/svg" xmlns:xlink="http://www.w3.org/1999/xlink" version="1.1">
<metadata>
Created by FontForge 20170731 at Wed Jun 24 20:56:00 2020
 By Aleksey,,,
Copyright 2020 The Encode Project Authors (https://github.com/thundernixon/Encode-Sans), with Reserved Font Name 'Encode Sans'.
</metadata>
<defs>
<font id="EncodeSans-Light" horiz-adv-x="0" >
  <font-face 
    font-family="Encode Sans Light"
    font-weight="300"
    font-stretch="normal"
    units-per-em="2000"
    panose-1="0 0 0 0 0 0 0 0 0 0"
    ascent="1600"
    descent="-400"
    x-height="1083"
    cap-height="1480"
    bbox="-322 -462 2517 2130"
    underline-thickness="50"
    underline-position="-175"
    unicode-range="U+000D-FB02"
  />
<missing-glyph horiz-adv-x="1214" 
d="M607 -10q-114 0 -214.5 5.5t-216.5 20.5v1438q99 21 216.5 30.5t214.5 9.5t214.5 -9.5t216.5 -30.5v-1438q-116 -15 -216.5 -20.5t-214.5 -5.5zM607 1428q-85 0 -174 -7t-189 -21v-1322q65 -10 153.5 -16t209.5 -6t210 6t153 16v1322q-184 28 -363 28zM941 49l-335 635
l-35 64l-349 659l54 26l330 -623l35 -62l357 -674zM271 49l-57 25l357 674l35 62l330 623l54 -26l-349 -659l-35 -64z" />
    <glyph glyph-name=".notdef" horiz-adv-x="1214" 
d="M607 -10q-114 0 -214.5 5.5t-216.5 20.5v1438q99 21 216.5 30.5t214.5 9.5t214.5 -9.5t216.5 -30.5v-1438q-116 -15 -216.5 -20.5t-214.5 -5.5zM607 1428q-85 0 -174 -7t-189 -21v-1322q65 -10 153.5 -16t209.5 -6t210 6t153 16v1322q-184 28 -363 28zM941 49l-335 635
l-35 64l-349 659l54 26l330 -623l35 -62l357 -674zM271 49l-57 25l357 674l35 62l330 623l54 -26l-349 -659l-35 -64z" />
    <glyph glyph-name=".null" 
 />
    <glyph glyph-name="nonmarkingreturn" horiz-adv-x="666" 
 />
    <glyph glyph-name="NULL" 
 />
    <glyph glyph-name="NULL" 
 />
    <glyph glyph-name="CR" unicode="&#xd;" horiz-adv-x="485" 
 />
    <glyph glyph-name="space" unicode=" " horiz-adv-x="485" 
 />
    <glyph glyph-name="exclam" unicode="!" horiz-adv-x="476" 
d="M200 347l-25 558v575h126v-575l-24 -558h-77zM238 -11q-40 0 -65.5 23.5t-25.5 62.5q0 41 25 65t66 24t66 -24.5t25 -64.5q0 -39 -25 -62.5t-66 -23.5z" />
    <glyph glyph-name="quotedbl" unicode="&#x22;" horiz-adv-x="715" 
d="M166 934l-28 682h128l-28 -682h-72zM477 934l-28 682h128l-28 -682h-72z" />
    <glyph glyph-name="numbersign" unicode="#" horiz-adv-x="1131" 
d="M621 0l154 1480h102l-154 -1480h-102zM100 474v101h931v-101h-931zM254 0l154 1480h102l-154 -1480h-102zM100 905v101h931v-101h-931z" />
    <glyph glyph-name="dollar" unicode="$" horiz-adv-x="1039" 
d="M450 -18q-82 0 -174 14t-177 43v108q62 -21 123 -34t119 -19.5t111 -6.5q130 0 215.5 33.5t127.5 100t42 164.5q0 124 -72.5 189t-241.5 110l-72 18q-187 48 -279.5 144t-92.5 253q0 185 127 292t379 107q81 0 163 -11t150 -33v-107q-77 24 -155.5 35t-156.5 11
q-131 0 -216 -33.5t-126.5 -98t-41.5 -155.5q0 -120 66 -186t227 -109l72 -18q135 -34 222 -87.5t129 -131t42 -183.5q0 -131 -59.5 -222.5t-173.5 -139t-277 -47.5zM465 -240v251l111 9v-260h-111zM465 1472v248h111v-248h-111z" />
    <glyph glyph-name="percent" unicode="%" horiz-adv-x="1782" 
d="M513 0l646 1480h110l-647 -1480h-109zM434 576q-95 0 -168 46t-115 147.5t-42 267.5q0 167 41 268t114.5 147t169.5 46t169 -46t114 -147t41 -268q0 -166 -41.5 -267.5t-114.5 -147.5t-168 -46zM434 667q65 0 114.5 34t77.5 114.5t28 220.5t-28 221.5t-77.5 116
t-114.5 34.5q-66 0 -115.5 -34.5t-77 -115t-27.5 -219.5q0 -140 27.5 -221t77 -116t115.5 -35zM1348 -18q-96 0 -169 46t-114 147t-41 268t41 268t114 147t169 46t169 -46t114 -147t41 -268t-41 -268t-114.5 -147t-168.5 -46zM1348 73q65 0 114.5 33.5t77.5 114.5t28 220
q0 141 -28 222t-77.5 115.5t-114.5 34.5t-114.5 -34t-77.5 -115t-28 -219q0 -140 28 -221.5t77.5 -116t114.5 -34.5z" />
    <glyph glyph-name="ampersand" unicode="&#x26;" horiz-adv-x="1468" 
d="M1405 -20l-775 608q-125 98 -196 177.5t-100 155.5t-29 163q0 197 125 305.5t378 108.5q67 0 127 -7t111 -21v-107q-57 15 -115 22.5t-121 7.5q-134 0 -218.5 -36t-124 -105t-39.5 -168q0 -71 22 -131t79 -125t164 -151l775 -608zM674 -18q-175 0 -292 53t-176 148
t-59 220q0 94 32 173t93.5 139t149.5 100l64 -71q-109 -52 -163 -134.5t-54 -194.5q0 -100 44 -175t135.5 -117t234.5 -42q140 0 239.5 44.5t152.5 139t53 242.5q0 65 -11 136.5t-32 137.5h107q21 -66 31 -136.5t10 -137.5q0 -172 -66.5 -289t-191.5 -176.5t-301 -59.5z" />
    <glyph glyph-name="quotesingle" unicode="'" horiz-adv-x="404" 
d="M166 934l-28 682h128l-28 -682h-72z" />
    <glyph glyph-name="parenleft" unicode="(" horiz-adv-x="644" 
d="M472 -440q-178 223 -259.5 483t-81.5 545t81.5 545.5t259.5 482.5h131q-124 -155 -200.5 -321t-112.5 -343t-36 -364t36 -364t112.5 -343t200.5 -321h-131z" />
    <glyph glyph-name="parenright" unicode=")" horiz-adv-x="644" 
d="M42 -440q123 155 199.5 321t112.5 343t36 364t-36 364t-112.5 343t-199.5 321h130q179 -222 260 -482.5t81 -545.5t-81 -545t-260 -483h-130z" />
    <glyph glyph-name="asterisk" unicode="*" horiz-adv-x="896" 
d="M493 1194l133 -151l104 -142l-76 -55l-104 141l-102 176l-102 -176l-104 -141l-76 55l104 142l133 151l-196 43l-177 58l29 88l176 -57l186 -81l-20 201v170h94v-170l-20 -201l186 81l176 57l29 -88l-178 -58z" />
    <glyph glyph-name="plus" unicode="+" horiz-adv-x="1070" 
d="M482 366v344h-325v100h325v344h106v-344h325v-100h-325v-344h-106z" />
    <glyph glyph-name="comma" unicode="," horiz-adv-x="436" 
d="M151 -308q32 90 50 168t18 158l17 -29h-18q-40 0 -65.5 24.5t-25.5 65.5q0 40 24 64t65 24q43 0 68 -28t25 -90q0 -98 -24 -189.5t-62 -167.5h-72z" />
    <glyph glyph-name="hyphen" unicode="-" horiz-adv-x="820" 
d="M157 510v103h506v-103h-506z" />
    <glyph glyph-name="period" unicode="." horiz-adv-x="436" 
d="M218 -11q-40 0 -65.5 24t-25.5 64q0 41 25 65.5t66 24.5t66 -24.5t25 -65.5q0 -40 -25 -64t-66 -24z" />
    <glyph glyph-name="slash" unicode="/" horiz-adv-x="572" 
d="M0 -240l453 1856h119l-454 -1856h-118z" />
    <glyph glyph-name="zero" unicode="0" horiz-adv-x="1226" 
d="M613 -18q-150 0 -260.5 73.5t-171 240t-60.5 444.5t60 444.5t170 240t262 73.5t262 -73.5t170 -240t60 -444.5t-60.5 -444.5t-171 -240t-260.5 -73.5zM613 88q112 0 195.5 58t129 199.5t45.5 391.5q0 253 -45.5 395.5t-129 201t-195.5 58.5t-195.5 -58t-129 -199.5
t-45.5 -391.5q0 -253 45.5 -395.5t129 -201t195.5 -58.5z" />
    <glyph glyph-name="one" unicode="1" horiz-adv-x="705" 
d="M397 0v1380l44 -20l-417 -302v123l417 303h75v-1484h-119z" />
    <glyph glyph-name="two" unicode="2" horiz-adv-x="964" 
d="M63 0v67l428 578q74 100 119 179t64.5 146.5t19.5 134.5q0 154 -82.5 221t-245.5 67q-87 0 -166.5 -14.5t-153.5 -44.5v108q42 17 95.5 30t112.5 19.5t119 6.5q211 0 326.5 -92t115.5 -293q0 -81 -21.5 -157.5t-71.5 -164.5t-135 -201l-388 -521l-15 36h713v-105h-834z
" />
    <glyph glyph-name="three" unicode="3" horiz-adv-x="993" 
d="M404 -18q-90 0 -179.5 14.5t-170.5 42.5v103q86 -29 176 -44t172 -15q199 0 299 81.5t100 236.5q0 145 -94 226.5t-293 81.5h-167v102h78q210 0 318 81t108 231q0 134 -85.5 204t-252.5 70q-82 0 -162.5 -13.5t-159.5 -42.5v103q47 17 101 29.5t112.5 18.5t115.5 6
q218 0 333.5 -97t115.5 -273q0 -145 -89 -242.5t-245 -129.5l1 24q187 -23 284.5 -122t97.5 -261q0 -131 -58 -224t-172 -142t-284 -49z" />
    <glyph glyph-name="four" unicode="4" horiz-adv-x="1157" 
d="M51 368v68l589 1044h124l-590 -1046l-20 36h960v-102h-1063zM787 0v470l17 510h96v-980h-113z" />
    <glyph glyph-name="five" unicode="5" horiz-adv-x="1002" 
d="M431 -18q-91 0 -181.5 15t-169.5 43v103q84 -29 174 -44t176 -15q199 0 297.5 82t98.5 244q0 105 -48.5 174.5t-158.5 107t-296 48.5l-185 11l49 729h696v-101h-640l56 47l-44 -634l-80 60l186 -11q205 -12 334 -62.5t189 -141.5t60 -225q0 -209 -130.5 -319.5
t-382.5 -110.5z" />
    <glyph glyph-name="six" unicode="6" horiz-adv-x="1125" 
d="M631 -18q-112 0 -203.5 37.5t-157.5 121t-102 219.5t-36 332q0 281 69.5 459t204.5 262.5t329 84.5q68 0 136 -9.5t125 -33.5v-104q-58 23 -126 34t-133 11q-159 0 -267.5 -69.5t-163.5 -218.5t-55 -389v-37q0 -172 27 -287.5t77.5 -184.5t120.5 -98.5t156 -29.5
q90 0 161.5 33.5t113 106t41.5 187.5t-44 189t-123 108.5t-186 34.5q-64 0 -132.5 -16t-131.5 -50t-108 -90v112q65 67 170 105t218 38q133 0 235 -46.5t159.5 -141.5t57.5 -239t-56 -240t-153.5 -143.5t-222.5 -47.5z" />
    <glyph glyph-name="seven" unicode="7" horiz-adv-x="918" 
d="M175 0l566 1415l31 -40h-760v105h848v-67l-560 -1413h-125z" />
    <glyph glyph-name="eight" unicode="8" horiz-adv-x="1226" 
d="M623 -18q-169 0 -285 46t-175 133t-59 210q0 147 85 252.5t234 154.5l100 -42q-146 -42 -223.5 -136t-77.5 -220q0 -145 101.5 -222.5t300.5 -77.5q183 0 281 75t98 212q0 87 -36.5 146.5t-120.5 101.5t-227 76q-170 40 -272 98.5t-148 140t-46 189.5q0 116 54.5 201
t157.5 131.5t248 46.5q215 0 337 -99.5t122 -272.5q0 -91 -33.5 -166t-99 -132.5t-162.5 -95.5l-93 41q146 61 211.5 141.5t65.5 204.5q0 137 -92 209t-258 72q-167 0 -253 -74.5t-86 -202.5q0 -85 35 -146.5t119.5 -106.5t232.5 -80q169 -41 270.5 -97t147 -134t45.5 -184
q0 -119 -58.5 -207.5t-170 -137t-270.5 -48.5z" />
    <glyph glyph-name="nine" unicode="9" horiz-adv-x="1125" 
d="M494 1498q112 0 203.5 -37.5t157.5 -121t102 -219.5t36 -332q0 -281 -69.5 -459t-204.5 -262.5t-329 -84.5q-68 0 -136 9.5t-125 33.5v104q58 -23 126 -34t133 -11q159 0 267.5 69.5t163.5 218.5t55 389v37q0 172 -27 287.5t-77.5 184.5t-120.5 98.5t-156 29.5
q-90 0 -161.5 -33.5t-113 -106t-41.5 -187.5t44 -189t123 -108.5t186 -34.5q64 0 132.5 16t131.5 50t108 90v-112q-65 -67 -170 -105t-218 -38q-133 0 -235 46.5t-159.5 141.5t-57.5 239t56 240t153.5 143.5t222.5 47.5z" />
    <glyph glyph-name="colon" unicode=":" horiz-adv-x="436" 
d="M218 -11q-40 0 -65.5 24t-25.5 64q0 41 25 65.5t66 24.5t66 -24.5t25 -65.5q0 -40 -25 -64t-66 -24zM218 916q-40 0 -65.5 24t-25.5 64q0 41 25 65.5t66 24.5t66 -24.5t25 -65.5q0 -40 -25 -64t-66 -24z" />
    <glyph glyph-name="semicolon" unicode=";" horiz-adv-x="436" 
d="M151 -308q32 90 50 168t18 158l17 -29h-18q-40 0 -65.5 24.5t-25.5 65.5q0 40 24 64t65 24q43 0 68 -28t25 -90q0 -98 -24 -189.5t-62 -167.5h-72zM218 916q-40 0 -65.5 24t-25.5 64q0 41 25 65.5t66 24.5t66 -24.5t25 -65.5q0 -40 -25 -64t-66 -24z" />
    <glyph glyph-name="less" unicode="&#x3c;" horiz-adv-x="1070" 
d="M913 381l-756 328v102l756 328v-107l-669 -285v27l669 -286v-107z" />
    <glyph glyph-name="equal" unicode="=" horiz-adv-x="1070" 
d="M157 900v100h756v-100h-756zM157 520v100h756v-100h-756z" />
    <glyph glyph-name="greater" unicode="&#x3e;" horiz-adv-x="1070" 
d="M157 381v107l669 286v-27l-669 285v107l756 -328v-102z" />
    <glyph glyph-name="question" unicode="?" horiz-adv-x="881" 
d="M357 333l-20 417q137 46 217 99t113.5 119.5t33.5 153.5q0 134 -86 203.5t-253 69.5q-81 0 -161 -13t-160 -42v104q47 17 101 29.5t112.5 18.5t115.5 6q219 0 334.5 -97t115.5 -273q0 -106 -36.5 -185.5t-118 -142.5t-218.5 -116l-12 -351h-78zM396 -11q-40 0 -65.5 24
t-25.5 62q0 41 25 65t66 24t66 -24.5t25 -64.5q0 -38 -24.5 -62t-66.5 -24z" />
    <glyph glyph-name="at" unicode="@" horiz-adv-x="1871" 
d="M983 -460q-283 0 -477 102.5t-294.5 318.5t-100.5 559q0 340 98 556.5t283.5 319t448.5 102.5q266 0 448.5 -100t276.5 -304t94 -518q0 -215 -45 -345t-120 -189t-168 -59q-89 0 -142.5 39t-73.5 105h-11q-53 -69 -138.5 -106.5t-184.5 -37.5q-149 0 -235.5 76t-86.5 214
q0 139 89 216t281 97l316 37l6 -87l-317 -37q-132 -15 -192.5 -67t-60.5 -148q0 -99 57 -151t166 -52q79 0 158.5 34.5t140.5 115.5v500q0 104 -32.5 161.5t-96 80t-155.5 22.5q-60 0 -136 -12t-153 -39v102q66 25 147.5 37.5t152.5 12.5q126 0 213 -34t132 -114.5
t45 -218.5v-486q0 -89 31.5 -128t96.5 -39q57 0 106.5 46t79.5 153t30 292q0 222 -45.5 380.5t-136 259.5t-225 149t-312.5 48q-174 0 -309.5 -49.5t-227.5 -155t-139.5 -272.5t-47.5 -404q0 -240 48.5 -409.5t144.5 -275t239.5 -155t333.5 -49.5q98 0 190 14.5t191 43.5
v-96q-85 -26 -182 -41t-199 -15z" />
    <glyph glyph-name="A" unicode="A" horiz-adv-x="1321" 
d="M32 0l546 1480h164l546 -1480h-124l-518 1419h26l-518 -1419h-122zM297 501l30 105h667l29 -105h-726z" />
    <glyph glyph-name="B" unicode="B" horiz-adv-x="1239" 
d="M530 -11q-59 0 -116 2t-115 7t-120 12v1447q58 12 118.5 20.5t127 13t142.5 4.5q194 0 316 -43t179 -129.5t57 -217.5q0 -86 -31 -159t-100 -123t-182 -67l3 15q182 -20 267.5 -119.5t85.5 -252.5q0 -100 -35 -177t-110.5 -128.5t-195.5 -78t-291 -26.5zM549 89
q187 0 295.5 34.5t154.5 104t46 174.5q0 157 -99 232t-311 75h-358v102h330q142 0 229 32t127 97t40 162q0 156 -98 224t-330 68q-88 0 -153.5 -5.5t-124.5 -16.5v-1268q61 -9 121.5 -12t130.5 -3z" />
    <glyph glyph-name="C" unicode="C" horiz-adv-x="1128" 
d="M754 -18q-145 0 -263 39.5t-203 128t-131 233t-46 355.5q0 271 79.5 438.5t227 244.5t352.5 77q86 0 164.5 -11t155.5 -33v-109q-80 25 -158.5 35.5t-159.5 10.5q-171 0 -290.5 -62.5t-182 -205t-62.5 -381.5q0 -249 64 -391.5t181.5 -202t278.5 -59.5q83 0 161 13
t168 44v-108q-75 -27 -158.5 -41.5t-177.5 -14.5z" />
    <glyph glyph-name="D" unicode="D" horiz-adv-x="1375" 
d="M514 -11q-54 0 -106.5 2t-108 6.5t-120.5 12.5v1448q57 12 119 20t124.5 12t121.5 4q356 0 537.5 -185t181.5 -569q0 -260 -84 -426t-251 -245.5t-414 -79.5zM533 95q202 0 336.5 66t202 208.5t67.5 370.5q0 226 -65.5 369.5t-197.5 211.5t-332 68q-58 0 -119.5 -5.5
t-126.5 -15.5v-1259q55 -7 110.5 -10.5t124.5 -3.5z" />
    <glyph glyph-name="E" unicode="E" horiz-adv-x="1143" 
d="M179 0v1480h883v-105h-765v-1270h775v-105h-893zM257 708v105h708v-105h-708z" />
    <glyph glyph-name="F" unicode="F" horiz-adv-x="1102" 
d="M179 0v1480h874v-106h-755v-1374h-119zM268 700v106h689v-106h-689z" />
    <glyph glyph-name="G" unicode="G" horiz-adv-x="1326" 
d="M848 -11q-242 0 -405.5 77.5t-247.5 243t-84 428.5q0 272 86.5 439t243 244t365.5 77q85 0 166.5 -11t164.5 -34v-108q-93 26 -171.5 36t-154.5 10q-175 0 -303.5 -62.5t-199.5 -205.5t-71 -385q0 -230 67.5 -371.5t202.5 -206.5t336 -65q74 0 137 6t119 17l-45 -53v655
h115v-703q-93 -16 -167.5 -22t-153.5 -6z" />
    <glyph glyph-name="H" unicode="H" horiz-adv-x="1424" 
d="M179 0v1480h119v-665h827v665h120v-1480h-120v705h-827v-705h-119z" />
    <glyph glyph-name="I" unicode="I" horiz-adv-x="477" 
d="M179 0v1480h119v-1480h-119z" />
    <glyph glyph-name="J" unicode="J" horiz-adv-x="477" 
d="M76 -342l-81 56q64 89 104.5 173.5t60 180.5t19.5 221v1191h119v-1218q0 -121 -23 -220t-72 -191.5t-127 -192.5z" />
    <glyph glyph-name="K" unicode="K" horiz-adv-x="1213" 
d="M1091 0l-599 757l560 723h136l-574 -737l1 37l615 -780h-139zM179 0v1480h119v-1480h-119zM276 705v109h277v-109h-277z" />
    <glyph glyph-name="L" unicode="L" horiz-adv-x="1051" 
d="M179 0v1480h119v-1373h741v-107h-860z" />
    <glyph glyph-name="M" unicode="M" horiz-adv-x="1729" 
d="M183 0v1480h139l562 -1194h-33l556 1194h140v-1480h-114v1376h42l-553 -1173h-115l-557 1173h46v-1376h-113z" />
    <glyph glyph-name="N" unicode="N" horiz-adv-x="1450" 
d="M179 0v1480h125l890 -1351h-36v1351h114v-1480h-126l-889 1351h36v-1351h-114z" />
    <glyph glyph-name="O" unicode="O" horiz-adv-x="1407" 
d="M704 -18q-178 0 -311.5 77t-207.5 244t-74 437t74.5 437t208 244t310.5 77t310.5 -77t207.5 -244.5t74 -436.5t-74.5 -436.5t-208 -244.5t-309.5 -77zM704 88q140 0 245 62t163.5 204t58.5 381q0 245 -58.5 388.5t-163.5 206t-245 62.5q-141 0 -246 -62t-163.5 -203.5
t-58.5 -381.5q0 -245 58.5 -388.5t163.5 -206t246 -62.5z" />
    <glyph glyph-name="P" unicode="P" horiz-adv-x="1211" 
d="M179 0v1459q88 17 176 26.5t185 9.5q284 0 430.5 -120t146.5 -377q0 -242 -146.5 -370t-464.5 -128q-55 0 -104 2.5t-104 7.5v-510h-119zM509 602q257 0 372 97.5t115 295.5q0 209 -111.5 303.5t-338.5 94.5q-70 0 -130.5 -5t-117.5 -15v-758q52 -7 102.5 -10t108.5 -3z
" />
    <glyph glyph-name="Q" unicode="Q" horiz-adv-x="1407" 
d="M1252 -207q-264 30 -457.5 79t-325 123.5t-210.5 179t-113.5 244t-34.5 320.5q0 270 74.5 437.5t208 244.5t310.5 77q176 0 309.5 -76t208 -243t74.5 -439q0 -244 -64.5 -411t-192 -252.5t-314.5 -85.5q-27 0 -54.5 1.5t-56.5 5.5l16 35q89 -39 196.5 -66t221.5 -44
t223 -27zM704 88q140 0 245 62t163.5 204t58.5 381q0 245 -58.5 388.5t-163.5 206t-245 62.5q-141 0 -246 -62t-163.5 -203.5t-58.5 -381.5q0 -245 58.5 -388.5t163.5 -206t246 -62.5z" />
    <glyph glyph-name="R" unicode="R" horiz-adv-x="1288" 
d="M179 0v1458q53 10 111.5 18.5t124 13.5t140.5 5q286 0 424 -104t138 -325q0 -145 -67.5 -242t-201.5 -146t-333 -49q-66 0 -116 2.5t-102 6.5v-638h-118zM1088 0l-534 699h138l538 -699h-142zM514 730q258 0 372.5 82.5t114.5 251.5q0 118 -45.5 190.5t-143 106
t-253.5 33.5q-82 0 -141.5 -6t-120.5 -16v-632q41 -4 73.5 -6t66.5 -3t77 -1z" />
    <glyph glyph-name="S" unicode="S" horiz-adv-x="1039" 
d="M451 -18q-83 0 -175 14.5t-177 43.5v107q62 -20 123 -33.5t119.5 -20t112.5 -6.5q193 0 288 75.5t95 222.5q0 124 -72.5 189t-241.5 110l-72 18q-187 48 -279.5 144t-92.5 253q0 185 127 292t377 107q82 0 164.5 -11t150.5 -33v-108q-77 24 -155.5 35.5t-158.5 11.5
q-130 0 -215 -33.5t-126 -98t-41 -155.5q0 -120 66 -186t227 -109l72 -18q135 -34 222 -87.5t129 -131t42 -183.5q0 -131 -59.5 -222.5t-173.5 -139t-276 -47.5z" />
    <glyph glyph-name="T" unicode="T" horiz-adv-x="1147" 
d="M514 0v1373h-500v107h1119v-107h-500v-1373h-119z" />
    <glyph glyph-name="U" unicode="U" horiz-adv-x="1397" 
d="M700 -18q-182 0 -299 60t-173.5 185t-56.5 319v934h120v-948q0 -230 98 -337t311 -107t311 107t98 337v948h117v-934q0 -194 -56 -319t-172.5 -185t-297.5 -60z" />
    <glyph glyph-name="V" unicode="V" horiz-adv-x="1283" 
d="M556 0l-542 1480h128l516 -1421h-27l518 1421h121l-542 -1480h-172z" />
    <glyph glyph-name="W" unicode="W" horiz-adv-x="2073" 
d="M486 0l-425 1480h125l399 -1419h-29l409 1419h147l408 -1419h-28l402 1419h117l-424 -1480h-159l-406 1402h31l-408 -1402h-159z" />
    <glyph glyph-name="X" unicode="X" horiz-adv-x="1253" 
d="M1089 0l-464 657l-71 94l-517 729h140l450 -634l70 -93l533 -753h-141zM22 0l532 751l73 95l450 634h137l-517 -727l-72 -96l-465 -657h-138z" />
    <glyph glyph-name="Y" unicode="Y" horiz-adv-x="1147" 
d="M514 0v717l28 -92l-568 855h136l489 -739h-46l483 739h128l-558 -855l28 91v-716h-120z" />
    <glyph glyph-name="Z" unicode="Z" horiz-adv-x="1130" 
d="M62 0v68l856 1339l12 -32h-856v105h982v-68l-855 -1339l-12 32h879v-105h-1006z" />
    <glyph glyph-name="bracketleft" unicode="[" horiz-adv-x="644" 
d="M199 -440v2056h483v-102h-365v-1852h364v-102h-482z" />
    <glyph glyph-name="backslash" unicode="\" horiz-adv-x="575" 
d="M455 -240l-455 1856h120l455 -1856h-120z" />
    <glyph glyph-name="bracketright" unicode="]" horiz-adv-x="644" 
d="M-37 -440v102h364v1852h-365v102h484v-2056h-483z" />
    <glyph glyph-name="asciicircum" unicode="^" horiz-adv-x="1131" 
d="M104 740l393 740h136l394 -740h-126l-352 674h33l-352 -674h-126z" />
    <glyph glyph-name="underscore" unicode="_" horiz-adv-x="1100" 
d="M94 -102v102h912v-102h-912z" />
    <glyph glyph-name="grave" unicode="`" horiz-adv-x="1028" 
d="M545 1258l-232 358h130l212 -358h-110z" />
    <glyph glyph-name="a" unicode="a" horiz-adv-x="1007" 
d="M421 -17q-149 0 -235.5 76.5t-86.5 213.5q0 139 90.5 216.5t287.5 98.5l308 34l9 -88l-312 -35q-139 -15 -200 -68t-61 -147q0 -99 56.5 -151t167.5 -52q79 0 157.5 34.5t140.5 114.5v501q0 105 -33 163t-97 81t-158 23q-61 0 -138 -11.5t-154 -38.5v103q66 23 148 35.5
t155 12.5q128 0 216 -34t133 -115.5t45 -222.5v-727h-101l-9 124h-9q-54 -67 -138 -104t-182 -37z" />
    <glyph glyph-name="b" unicode="b" horiz-adv-x="1103" 
d="M471 -18q-79 0 -160 11.5t-151 33.5v1589h118v-646h8q50 56 127.5 92.5t177.5 36.5q113 0 206.5 -51.5t149.5 -169t56 -316.5q0 -296 -136 -438t-396 -142zM480 83q196 0 298.5 109.5t102.5 357.5q0 173 -42 269.5t-114 135.5t-162 39q-81 0 -157 -34.5t-128 -107.5v-742
q39 -11 92 -19t110 -8z" />
    <glyph glyph-name="c" unicode="c" horiz-adv-x="853" 
d="M558 -19q-146 0 -248.5 58t-156 181t-53.5 321t58 321t169.5 180t273.5 57q54 0 110 -7t106 -21v-105q-53 15 -105 22t-101 7q-130 0 -216 -43.5t-128.5 -142t-42.5 -264.5q0 -169 39.5 -270t117.5 -145t193 -44q52 0 111.5 11t131.5 35v-105q-64 -23 -129 -34.5
t-130 -11.5z" />
    <glyph glyph-name="d" unicode="d" horiz-adv-x="1103" 
d="M522 -18q-118 0 -213.5 52.5t-152 170.5t-56.5 314q0 197 61 325.5t180 191.5t294 63q49 0 98.5 -4.5t91.5 -11.5v533h118v-1616h-102l-8 118h-10q-49 -59 -126 -97.5t-175 -38.5zM543 87q79 0 155 36t127 114v740q-39 9 -91 15t-102 6q-203 0 -306.5 -109.5
t-103.5 -357.5q0 -172 41 -268.5t113.5 -136t166.5 -39.5z" />
    <glyph glyph-name="e" unicode="e" horiz-adv-x="1009" 
d="M592 -19q-160 0 -269.5 57t-166 180.5t-56.5 323.5q0 193 52 316.5t146.5 182t222.5 58.5q127 0 217.5 -58.5t138.5 -182.5t48 -318v-41h-762v90h677l-31 -25q0 163 -34.5 260t-99 139.5t-155.5 42.5t-158 -42.5t-103.5 -139t-36.5 -260.5v-38q0 -162 43 -259.5
t128 -140.5t211 -43q61 0 127 11.5t142 34.5v-103q-76 -23 -144.5 -34t-136.5 -11z" />
    <glyph glyph-name="f" unicode="f" horiz-adv-x="694" 
d="M228 0v1269q0 121 41.5 202.5t123.5 123t204 41.5q35 0 72.5 -3t71.5 -9v-104q-34 6 -68 9t-69 3q-129 0 -193 -58.5t-64 -199.5v-1274h-119zM17 981v102h684v-102h-684z" />
    <glyph glyph-name="g" unicode="g" horiz-adv-x="1103" 
d="M475 -460q-71 0 -154.5 12.5t-153.5 37.5v104q83 -27 158.5 -39.5t145.5 -12.5q180 0 267 79.5t87 277.5v115h-8q-49 -56 -126.5 -93t-178.5 -37q-112 0 -205.5 51.5t-150 169t-56.5 314.5q0 295 136 437.5t396 142.5q53 0 107.5 -5.5t106.5 -15.5t97 -25v-1038
q0 -255 -117.5 -365t-350.5 -110zM540 89q80 0 156.5 35t128.5 107v742q-39 11 -92 18t-110 7q-196 0 -298.5 -109.5t-102.5 -357.5q0 -172 42 -268t114 -135t162 -39z" />
    <glyph glyph-name="h" unicode="h" horiz-adv-x="1114" 
d="M160 0v1616h118v-657h8q68 70 156.5 105t186.5 35t175 -35.5t120 -117t43 -218.5v-728h-118v724q0 150 -67.5 207.5t-178.5 57.5q-54 0 -113 -15.5t-114 -50.5t-98 -92v-831h-118z" />
    <glyph glyph-name="i" unicode="i" horiz-adv-x="438" 
d="M160 0v1083h118v-1083h-118zM219 1339q-42 0 -65.5 22t-23.5 60q0 40 23.5 62.5t65.5 22.5t65.5 -22.5t23.5 -62.5q0 -38 -23.5 -60t-65.5 -22z" />
    <glyph glyph-name="j" unicode="j" horiz-adv-x="438" 
d="M56 -462l-80 55q64 89 105 176.5t60 184t19 214.5v915h118v-907q0 -129 -23 -236t-72 -204.5t-127 -197.5zM218 1344q-42 0 -65.5 22t-23.5 60q0 40 23.5 62.5t65.5 22.5t65.5 -22.5t23.5 -62.5q0 -38 -23.5 -60t-65.5 -22z" />
    <glyph glyph-name="k" unicode="k" horiz-adv-x="1002" 
d="M883 0l-449 554l418 529h136l-427 -545v34l459 -572h-137zM260 503v102h231v-102h-231zM160 0v1616h118v-1616h-118z" />
    <glyph glyph-name="l" unicode="l" horiz-adv-x="438" 
d="M160 0v1616h118v-1616h-118z" />
    <glyph glyph-name="m" unicode="m" horiz-adv-x="1667" 
d="M160 0v1083h101l9 -126h9q64 71 145 106.5t171 35.5q89 0 158 -35.5t109 -116.5t40 -218v-729h-118v723q0 151 -59.5 209.5t-156.5 58.5q-48 0 -100.5 -16.5t-102 -52.5t-87.5 -95v-827h-118zM1401 0v723q0 151 -62 209.5t-159 58.5q-49 0 -105 -17t-109 -59t-92 -114
l-34 109q81 106 177.5 147.5t184.5 41.5q92 0 163.5 -35.5t113 -117t41.5 -219.5v-727h-119z" />
    <glyph glyph-name="n" unicode="n" horiz-adv-x="1114" 
d="M160 0v1083h101l9 -126h9q68 69 157.5 105.5t188.5 36.5q100 0 177.5 -36t121 -117.5t43.5 -218.5v-727h-118v723q0 150 -66.5 209t-179.5 59q-52 0 -110.5 -15t-114.5 -50t-100 -94v-832h-118z" />
    <glyph glyph-name="o" unicode="o" horiz-adv-x="1087" 
d="M544 -19q-134 0 -233.5 57.5t-155 181t-55.5 321.5q0 197 55 320t154.5 180.5t234.5 57.5q134 0 233.5 -57t154.5 -180t55 -321q0 -197 -55 -320.5t-155 -181.5t-233 -58zM544 83q98 0 170 42.5t111.5 142.5t39.5 270q0 174 -39.5 274t-111.5 143t-170 43t-170.5 -42.5
t-112 -142t-39.5 -269.5q0 -174 39.5 -274.5t111.5 -143.5t171 -43z" />
    <glyph glyph-name="p" unicode="p" horiz-adv-x="1103" 
d="M160 -440v1523h102l9 -120h9q49 60 126.5 98t174.5 38q116 0 212 -51t153 -169t57 -317q0 -197 -61 -326t-180 -191.5t-294 -62.5q-49 0 -98.5 4.5t-91.5 10.5v-437h-118zM471 83q203 0 306.5 109.5t103.5 357.5q0 173 -42 269.5t-114.5 135.5t-164.5 39
q-79 0 -155 -35.5t-127 -114.5v-740q39 -9 91 -15t102 -6z" />
    <glyph glyph-name="q" unicode="q" horiz-adv-x="1103" 
d="M825 -440v551h-8q-49 -56 -126.5 -92.5t-178.5 -36.5q-113 0 -206.5 51.5t-149.5 169t-56 316.5q0 296 136 438t396 142q52 0 107 -5.5t107 -15.5t97 -25v-1493h-118zM540 87q80 0 156.5 34.5t128.5 107.5v744q-39 11 -92 18t-110 7q-196 0 -298.5 -109.5t-102.5 -358.5
q0 -173 42 -269t114 -135t162 -39z" />
    <glyph glyph-name="r" unicode="r" horiz-adv-x="701" 
d="M160 0v1083h100l10 -146h9q58 76 145 115.5t179 39.5q25 0 45 -1.5t40 -5.5v-112q-22 4 -43.5 4.5t-46.5 0.5q-55 0 -114.5 -17.5t-113.5 -55t-92 -93.5v-812h-118z" />
    <glyph glyph-name="s" unicode="s" horiz-adv-x="881" 
d="M402 -19q-78 0 -149 10.5t-139 32.5v101q80 -24 149 -34t140 -10q150 0 218.5 53t68.5 149q0 84 -42.5 128t-142.5 65l-139 29q-147 33 -208.5 105.5t-61.5 184.5q0 132 100 218t308 86q67 0 127.5 -7.5t118.5 -23.5v-101q-66 18 -123.5 25.5t-121.5 7.5q-107 0 -171 -27
t-93 -72.5t-29 -101.5q0 -73 39.5 -120t139.5 -70l138 -28q152 -33 215 -103.5t63 -187.5q0 -142 -102.5 -225.5t-302.5 -83.5z" />
    <glyph glyph-name="t" unicode="t" horiz-adv-x="724" 
d="M555 -18q-158 0 -246.5 81.5t-88.5 262.5v757l19 397h100v-1134q0 -143 60 -201t177 -58q31 0 64 4.5t72 13.5v-105q-40 -9 -78.5 -13.5t-78.5 -4.5zM9 981v102h684v-102h-684z" />
    <glyph glyph-name="u" unicode="u" horiz-adv-x="1104" 
d="M486 -18q-98 0 -175 35.5t-120.5 117t-43.5 218.5v730h118v-726q0 -150 67.5 -208.5t173.5 -58.5q53 0 111 16t112.5 51t96.5 92v834h119v-1083h-101l-9 121h-9q-69 -69 -157 -104t-183 -35z" />
    <glyph glyph-name="v" unicode="v" horiz-adv-x="1029" 
d="M437 0l-417 1083h128l379 -1003h-19l380 1003h122l-418 -1083h-155z" />
    <glyph glyph-name="w" unicode="w" horiz-adv-x="1662" 
d="M388 0l-323 1083h119l290 -989h-16l302 989h146l302 -989h-17l291 989h115l-323 -1083h-146l-305 992h18l-307 -992h-146z" />
    <glyph glyph-name="x" unicode="x" horiz-adv-x="978" 
d="M820 0l-332 458l-70 87l-389 538h139l323 -447l70 -88l398 -548h-139zM22 0l396 545l73 91l324 447h135l-389 -535l-73 -90l-330 -458h-136z" />
    <glyph glyph-name="y" unicode="y" horiz-adv-x="1029" 
d="M302 -440l171 440l35 80l380 1003h122l-588 -1523h-120zM437 0l-417 1083h128l405 -1083h-116z" />
    <glyph glyph-name="z" unicode="z" horiz-adv-x="895" 
d="M62 0v73l634 940v-32h-622v102h753v-73l-634 -940v32h646v-102h-777z" />
    <glyph glyph-name="braceleft" unicode="{" horiz-adv-x="684" 
d="M591 -460q-174 0 -263 84.5t-89 253.5v519q0 93 -44 134.5t-130 41.5h-22v101h22q86 0 130 42t44 133v449q0 169 89 253.5t263 84.5q37 0 71.5 -2.5t59.5 -8.5v-93h-123q-121 0 -181.5 -54t-60.5 -177v-442q0 -109 -42.5 -168t-136.5 -76v17q94 -16 136.5 -76t42.5 -168
v-513q0 -122 60.5 -176.5t181.5 -54.5h123v-93q-25 -5 -59.5 -8t-71.5 -3z" />
    <glyph glyph-name="bar" unicode="|" horiz-adv-x="469" 
d="M179 -440v2056h112v-2056h-112z" />
    <glyph glyph-name="braceright" unicode="}" horiz-adv-x="684" 
d="M93 -460q-37 0 -71 3t-60 8v93h123q122 0 182 54.5t60 176.5v513q0 108 43.5 168t135.5 76v-17q-92 17 -135.5 76t-43.5 168v442q0 123 -60 177t-182 54h-123v93q26 6 60 8.5t71 2.5q175 0 264 -84.5t89 -253.5v-449q0 -91 44 -133t129 -42h22v-101h-22q-85 0 -129 -41.5
t-44 -134.5v-519q0 -169 -89 -253.5t-264 -84.5z" />
    <glyph glyph-name="asciitilde" unicode="~" horiz-adv-x="1070" 
d="M712 647q-54 0 -102.5 20.5t-94.5 42.5q-41 20 -79.5 36.5t-77.5 16.5q-59 0 -108 -26.5t-93 -81.5v116q72 92 201 92q54 0 103 -20t93 -43q42 -20 80.5 -37t76.5 -17q59 0 109 27t93 82v-116q-72 -92 -201 -92z" />
    <glyph glyph-name="uni00A0" unicode="&#xa0;" horiz-adv-x="485" 
 />
    <glyph glyph-name="exclamdown" unicode="&#xa1;" horiz-adv-x="476" 
d="M200 733h77l24 -557v-556h-126v556zM238 1094q41 0 66 -23.5t25 -64.5q0 -40 -25 -65t-66 -25t-66 24.5t-25 65.5t25.5 64.5t65.5 23.5z" />
    <glyph glyph-name="cent" unicode="&#xa2;" horiz-adv-x="858" 
d="M558 -19q-147 0 -249 58t-155.5 181t-53.5 321t57.5 321t169.5 180t274 57q55 0 109.5 -7t106.5 -21v-105q-54 15 -106 22t-103 7q-130 0 -215.5 -43.5t-127 -142t-41.5 -264.5q0 -169 39.5 -270t117.5 -145t193 -44q52 0 111.5 11t131.5 35v-105q-64 -23 -129 -34.5
t-130 -11.5zM499 -240v248h106v-248h-106zM499 1074v249h106v-249h-106z" />
    <glyph glyph-name="sterling" unicode="&#xa3;" horiz-adv-x="1246" 
d="M305 45v1008q0 227 130.5 336t381.5 109q81 0 163.5 -11t150.5 -33v-107q-77 24 -155.5 35t-156.5 11q-131 0 -219 -33.5t-132.5 -107.5t-44.5 -196v-1011h-118zM79 0v103h1091v-103h-1091zM79 701v98h878v-98h-878z" />
    <glyph glyph-name="currency" unicode="&#xa4;" horiz-adv-x="1131" 
d="M342 920l-133 105l-105 99l76 76l99 -103l106 -135zM790 920l-44 42l106 135l99 103l76 -76l-104 -99zM949 280l-99 103l-96 123l44 45l125 -96l102 -99zM182 280l-76 76l103 99l124 96l44 -45l-96 -123zM566 403q-97 0 -169.5 42t-113 118t-40.5 177q0 100 40.5 175.5
t113 117.5t169.5 42q95 0 167.5 -42t113.5 -117.5t41 -175.5q0 -101 -41 -177t-113.5 -118t-167.5 -42zM566 488q104 0 169 66t65 186q0 111 -60 181.5t-173 70.5q-105 0 -170.5 -66.5t-65.5 -185.5q0 -118 65.5 -185t169.5 -67z" />
    <glyph glyph-name="yen" unicode="&#xa5;" horiz-adv-x="1191" 
d="M536 0v717l28 -92l-564 855h136l485 -739h-46l486 739h128l-561 -855l28 91v-716h-120zM218 308v89h756v-89h-756zM218 651v89h756v-89h-756z" />
    <glyph glyph-name="brokenbar" unicode="&#xa6;" horiz-adv-x="469" 
d="M179 836v780h112v-780h-112zM179 -440v780h112v-780h-112z" />
    <glyph glyph-name="section" unicode="&#xa7;" horiz-adv-x="990" 
d="M432 -19q-75 0 -146 10.5t-138 31.5v98q80 -23 148 -32.5t137 -9.5q102 0 166.5 23.5t94.5 69t30 109.5q0 83 -42.5 127.5t-142.5 65.5l-146 31q-142 33 -204.5 104.5t-62.5 183.5q0 73 33.5 132.5t94.5 99.5l75 -57q-50 -31 -73.5 -74.5t-23.5 -94.5q0 -74 42 -124
t144 -73l146 -31q150 -33 212.5 -101.5t62.5 -180.5q0 -142 -102 -225t-305 -83zM738 454l-77 56q49 30 73 72.5t24 98.5q0 84 -45 130.5t-147 69.5l-147 31q-144 32 -207 102t-63 178q0 88 44 156.5t135 108t231 39.5q66 0 126 -7t117 -22v-99q-66 18 -121 24.5t-117 6.5
q-110 0 -175.5 -26.5t-95 -72t-29.5 -102.5q0 -72 40 -119.5t139 -70.5l148 -30q148 -33 210.5 -103.5t62.5 -184.5q0 -77 -33 -136t-93 -100z" />
    <glyph glyph-name="dieresis" unicode="&#xa8;" horiz-adv-x="1028" 
d="M809 1339q-38 0 -61 22.5t-23 59.5q0 39 23 61.5t61 22.5t61 -22.5t23 -61.5q0 -37 -23 -59.5t-61 -22.5zM391 1339q-38 0 -61 22.5t-23 59.5q0 39 23 61.5t61 22.5t61 -22.5t23 -61.5q0 -37 -23 -59.5t-61 -22.5z" />
    <glyph glyph-name="copyright" unicode="&#xa9;" horiz-adv-x="1712" 
d="M856 -22q-224 0 -391.5 95t-260.5 266.5t-93 400.5t93 400.5t260.5 266.5t391.5 95q223 0 391 -95t261 -266.5t93 -400.5t-93 -400.5t-261 -266.5t-391 -95zM895 324q-177 0 -285 103.5t-108 306.5q0 196 108.5 303t308.5 107q52 0 98.5 -6.5t93.5 -20.5v-92
q-46 13 -90.5 19.5t-95.5 6.5q-154 0 -236.5 -77t-82.5 -237q0 -163 80 -241.5t218 -78.5q44 0 95 8.5t112 30.5v-92q-49 -20 -103 -30t-113 -10zM856 66q198 0 345 84t228.5 235.5t81.5 354.5t-81.5 354.5t-228.5 235.5t-345 84t-345.5 -84t-228.5 -235.5t-81 -354.5
t81 -354.5t228.5 -235.5t345.5 -84z" />
    <glyph glyph-name="ordfeminine" unicode="&#xaa;" horiz-adv-x="850" 
d="M349 595q-127 0 -199.5 64t-72.5 173q0 112 75.5 175t243.5 79l260 27l9 -77l-260 -26q-115 -11 -165.5 -52t-50.5 -115q0 -76 47 -117.5t140 -41.5q64 0 128.5 27t114.5 87v397q0 79 -27 124t-81 63t-135 18q-53 0 -116 -9.5t-128 -31.5v94q58 20 126.5 30t131.5 10
q111 0 187 -28.5t114.5 -95.5t38.5 -184v-575h-94l-9 99h-8q-46 -54 -117.5 -84t-152.5 -30z" />
    <glyph glyph-name="guillemotleft" unicode="&#xab;" horiz-adv-x="950" 
d="M374 139l-255 422l255 423h124l-254 -423l254 -422h-124zM746 139l-255 422l255 423h124l-254 -423l254 -422h-124z" />
    <glyph glyph-name="logicalnot" unicode="&#xac;" horiz-adv-x="1334" 
d="M1081 193v517h-924v100h1030v-617h-106z" />
    <glyph glyph-name="uni00AD" unicode="&#xad;" horiz-adv-x="820" 
d="M157 510v103h506v-103h-506z" />
    <glyph glyph-name="registered" unicode="&#xae;" horiz-adv-x="1519" 
d="M760 268q-181 0 -318.5 77.5t-214.5 216t-77 320.5t77 321t214.5 217t318.5 78t318.5 -78t214.5 -217t77 -321t-77 -320.5t-214.5 -216t-318.5 -77.5zM927 600l-156 228l75 26l172 -254h-91zM760 347q159 0 278 66t184.5 186.5t65.5 282.5t-65.5 283t-184.5 187.5
t-278 66.5q-160 0 -279 -66.5t-184 -187.5t-65 -283t65 -282.5t184 -186.5t279 -66zM550 600v592h197q122 0 184 -48.5t62 -138.5q0 -89 -61.5 -137t-184.5 -48h-116l-1 -220h-80zM631 892h130q153 0 153 113q0 115 -153 115h-130v-228z" />
    <glyph glyph-name="macron" unicode="&#xaf;" horiz-adv-x="1028" 
d="M302 1380v86h596v-86h-596z" />
    <glyph glyph-name="degree" unicode="&#xb0;" horiz-adv-x="981" 
d="M491 816q-100 0 -176.5 44t-120.5 121t-44 176q0 98 44 175t120.5 121t176.5 44q99 0 176 -44t121 -121t44 -175q0 -99 -44 -176t-121 -121t-176 -44zM491 905q108 0 177.5 68t69.5 184t-69.5 183.5t-177.5 67.5t-178 -67.5t-70 -183.5t70 -184t178 -68z" />
    <glyph glyph-name="plusminus" unicode="&#xb1;" horiz-adv-x="1070" 
d="M482 328v339h-325v100h325v340h106v-340h325v-100h-325v-339h-106zM157 0v100h756v-100h-756z" />
    <glyph glyph-name="uni00B2" unicode="&#xb2;" horiz-adv-x="770" 
d="M91 616v58l297 384q76 97 109.5 165t33.5 132q0 97 -57 140.5t-169 43.5q-62 0 -118.5 -10t-107.5 -30v91q47 19 108.5 28.5t127.5 9.5q152 0 235.5 -63t83.5 -202q0 -81 -37 -159t-125 -189l-263 -338l-8 30h480v-91h-590z" />
    <glyph glyph-name="uni00B3" unicode="&#xb3;" horiz-adv-x="770" 
d="M320 604q-64 0 -128 9.5t-121 28.5v88q61 -20 124.5 -30.5t121.5 -10.5q136 0 204 52t68 150q0 92 -63.5 143.5t-198.5 51.5h-125v87h68q140 0 212 51t72 145q0 85 -58.5 129.5t-173.5 44.5q-56 0 -113.5 -9t-112.5 -30v88q48 18 110.5 27t123.5 9q158 0 241 -66t83 -187
q0 -96 -60.5 -160.5t-165.5 -86.5v15q126 -15 193 -81.5t67 -175.5q0 -134 -93 -208t-275 -74z" />
    <glyph glyph-name="acute" unicode="&#xb4;" horiz-adv-x="1028" 
d="M545 1258l212 358h130l-232 -358h-110z" />
    <glyph glyph-name="uni00B5" unicode="&#xb5;" horiz-adv-x="1104" 
d="M500 -18q-94 0 -162.5 35.5t-105.5 117t-37 218.5v150h70v-146q0 -150 67.5 -208.5t173.5 -58.5q53 0 111 16t112.5 51t96.5 92v834h119v-1083h-101l-9 121h-9q-66 -69 -151 -104t-175 -35zM147 -440v1523h118v-1523h-118z" />
    <glyph glyph-name="paragraph" unicode="&#xb6;" horiz-adv-x="1211" 
d="M703 0v509q-37 -5 -71.5 -7t-75.5 -2q-240 0 -351 128t-111 370q0 257 111.5 377t327.5 120q73 0 141.5 -4t127.5 -11v-1480h-99zM932 0v1480h100v-1480h-100z" />
    <glyph glyph-name="periodcentered" unicode="&#xb7;" horiz-adv-x="436" 
d="M218 470q-40 0 -65.5 24t-25.5 64q0 42 25 66t66 24t66 -24.5t25 -65.5q0 -40 -25 -64t-66 -24z" />
    <glyph glyph-name="cedilla" unicode="&#xb8;" horiz-adv-x="1028" 
d="M606 -408q-43 0 -88.5 9t-78.5 26v70q44 -22 86 -30.5t80 -8.5q58 0 86.5 21.5t28.5 65.5q0 89 -117 89h-35v186h76v-159l-33 32q90 0 138 -39.5t48 -111.5q0 -70 -49.5 -110t-141.5 -40z" />
    <glyph glyph-name="uni00B9" unicode="&#xb9;" horiz-adv-x="770" 
d="M376 637v906l37 -25l-274 -198v103l274 197h66v-983h-103zM142 616v91h559v-91h-559z" />
    <glyph glyph-name="ordmasculine" unicode="&#xba;" horiz-adv-x="925" 
d="M463 595q-172 0 -276 108.5t-104 342.5q0 235 104 341t276 106q171 0 275.5 -106t104.5 -341q0 -156 -47.5 -255.5t-133 -147.5t-199.5 -48zM463 690q81 0 140.5 33.5t92.5 111.5t33 211t-33 210.5t-92.5 110t-140.5 32.5t-141 -32.5t-93 -110t-33 -210.5t33 -211
t93 -111.5t141 -33.5z" />
    <glyph glyph-name="guillemotright" unicode="&#xbb;" horiz-adv-x="950" 
d="M79 139l255 422l-255 423h125l254 -423l-254 -422h-125zM451 139l255 422l-255 423h125l254 -423l-254 -422h-125z" />
    <glyph glyph-name="onequarter" unicode="&#xbc;" horiz-adv-x="1793" 
d="M376 637v906l37 -25l-274 -198v103l274 197h66v-983h-103zM142 616v91h559v-91h-559zM448 -136l790 1752h106l-790 -1752h-106zM1054 105v59l373 700h102l-372 -701l-16 28h626v-86h-713zM1532 -136v327l18 335h76v-662h-94z" />
    <glyph glyph-name="onehalf" unicode="&#xbd;" horiz-adv-x="1793" 
d="M376 637v906l37 -25l-274 -198v103l274 197h66v-983h-103zM142 616v91h559v-91h-559zM448 -136l790 1752h106l-790 -1752h-106zM1114 -136v58l297 384q76 97 109.5 165t33.5 132q0 97 -57 140.5t-169 43.5q-62 0 -118.5 -10t-107.5 -30v91q47 19 108.5 28.5t127.5 9.5
q152 0 236 -63t83 -202q0 -81 -37 -159t-125 -189l-263 -338l-8 30h480v-91h-590z" />
    <glyph glyph-name="threequarters" unicode="&#xbe;" horiz-adv-x="1793" 
d="M320 604q-64 0 -128 9.5t-121 28.5v88q61 -20 124.5 -30.5t121.5 -10.5q136 0 204 52t68 150q0 92 -63.5 143.5t-198.5 51.5h-125v87h68q140 0 212 51t72 145q0 85 -58.5 129.5t-173.5 44.5q-56 0 -113.5 -9t-112.5 -30v88q48 18 110.5 27t123.5 9q158 0 241 -66t83 -187
q0 -96 -60.5 -160.5t-165.5 -86.5v15q126 -15 193 -81.5t67 -175.5q0 -134 -93 -208t-275 -74zM448 -136l790 1752h106l-790 -1752h-106zM1054 105v59l373 700h102l-372 -701l-16 28h626v-86h-713zM1532 -136v327l18 335h76v-662h-94z" />
    <glyph glyph-name="questiondown" unicode="&#xbf;" horiz-adv-x="881" 
d="M524 750l20 -417q-137 -46 -217 -98.5t-113.5 -118t-33.5 -149.5q0 -126 86 -195t253 -69q82 0 162 13.5t158 42.5v-105q-46 -17 -100 -29t-112.5 -18.5t-116.5 -6.5q-217 0 -333 96t-116 266q0 102 36 180.5t118 141t218 115.5l13 351h78zM485 1094q40 0 65.5 -24
t25.5 -62q0 -40 -25 -64.5t-66 -24.5t-66 25t-25 64q0 38 25 62t66 24z" />
    <glyph glyph-name="Agrave" unicode="&#xc0;" horiz-adv-x="1321" 
d="M32 0l546 1480h164l546 -1480h-124l-518 1419h26l-518 -1419h-122zM297 501l30 105h667l29 -105h-726zM607 1612l-198 278h130l176 -278h-108z" />
    <glyph glyph-name="Aacute" unicode="&#xc1;" horiz-adv-x="1321" 
d="M32 0l546 1480h164l546 -1480h-124l-518 1419h26l-518 -1419h-122zM297 501l30 105h667l29 -105h-726zM606 1612l176 278h131l-198 -278h-109z" />
    <glyph glyph-name="Acircumflex" unicode="&#xc2;" horiz-adv-x="1321" 
d="M32 0l546 1480h164l546 -1480h-124l-518 1419h26l-518 -1419h-122zM297 501l30 105h667l29 -105h-726zM360 1612l243 278h116l243 -278h-114l-202 237h30l-202 -237h-114z" />
    <glyph glyph-name="Atilde" unicode="&#xc3;" horiz-adv-x="1321" 
d="M32 0l546 1480h164l546 -1480h-124l-518 1419h26l-518 -1419h-122zM297 501l30 105h667l29 -105h-726zM811 1681q-46 0 -86.5 13t-78.5 28q-34 14 -67.5 24.5t-68.5 10.5q-52 0 -90 -17.5t-74 -53.5v91q29 31 70 47t95 16q46 0 87 -12.5t78 -28.5q34 -13 67.5 -24
t68.5 -11q52 0 90.5 17.5t73.5 53.5v-91q-29 -30 -69.5 -46.5t-95.5 -16.5z" />
    <glyph glyph-name="Adieresis" unicode="&#xc4;" horiz-adv-x="1321" 
d="M32 0l546 1480h164l546 -1480h-124l-518 1419h26l-518 -1419h-122zM297 501l30 105h667l29 -105h-726zM888 1673q-38 0 -61 21.5t-23 57.5q0 37 23 58.5t61 21.5q39 0 62 -21.5t23 -58.5q0 -36 -23 -57.5t-62 -21.5zM434 1673q-39 0 -62 21.5t-23 57.5q0 37 23 58.5
t62 21.5q38 0 61 -21.5t23 -58.5q0 -36 -23 -57.5t-61 -21.5z" />
    <glyph glyph-name="Aring" unicode="&#xc5;" horiz-adv-x="1321" 
d="M32 0l546 1480h164l546 -1480h-124l-518 1419h26l-518 -1419h-122zM297 501l30 105h667l29 -105h-726zM661 1605q-82 0 -136 54t-54 135q0 83 54 136t136 53q83 0 136.5 -53t53.5 -136q0 -81 -53.5 -135t-136.5 -54zM661 1669q54 0 88.5 34t34.5 91q0 59 -34.5 92
t-88.5 33t-88.5 -33t-34.5 -92q0 -57 34.5 -91t88.5 -34z" />
    <glyph glyph-name="AE" unicode="&#xc6;" horiz-adv-x="1805" 
d="M32 0l556 1480h303l-2 -105h-222l-512 -1375h-123zM302 501l30 105h609v-105h-639zM930 0l-97 1480h891v-105h-768l86 -1270h692v-105h-804zM955 708v105h673v-105h-673z" />
    <glyph glyph-name="Ccedilla" unicode="&#xc7;" horiz-adv-x="1128" 
d="M754 -18q-145 0 -263 39.5t-203 128t-131 233t-46 355.5q0 271 79.5 438.5t227 244.5t352.5 77q86 0 164.5 -11t155.5 -33v-109q-80 25 -158.5 35.5t-159.5 10.5q-171 0 -290.5 -62.5t-182 -205t-62.5 -381.5q0 -249 64 -391.5t181.5 -202t278.5 -59.5q83 0 161 13
t168 44v-108q-75 -27 -158.5 -41.5t-177.5 -14.5zM711 -408q-48 0 -98 9.5t-93 27.5v70q55 -23 99.5 -32t87.5 -9q63 0 97.5 20.5t34.5 66.5q0 47 -35 68t-98 21h-40v186h75v-159l-24 33q92 0 146.5 -38t54.5 -113q0 -74 -55.5 -112.5t-151.5 -38.5z" />
    <glyph glyph-name="Egrave" unicode="&#xc8;" horiz-adv-x="1143" 
d="M179 0v1480h883v-105h-765v-1270h775v-105h-893zM257 708v105h708v-105h-708zM588 1612l-198 278h130l176 -278h-108z" />
    <glyph glyph-name="Eacute" unicode="&#xc9;" horiz-adv-x="1143" 
d="M179 0v1480h883v-105h-765v-1270h775v-105h-893zM257 708v105h708v-105h-708zM587 1612l176 278h131l-198 -278h-109z" />
    <glyph glyph-name="Ecircumflex" unicode="&#xca;" horiz-adv-x="1143" 
d="M179 0v1480h883v-105h-765v-1270h775v-105h-893zM257 708v105h708v-105h-708zM341 1612l243 278h116l243 -278h-114l-202 237h30l-202 -237h-114z" />
    <glyph glyph-name="Edieresis" unicode="&#xcb;" horiz-adv-x="1143" 
d="M179 0v1480h883v-105h-765v-1270h775v-105h-893zM257 708v105h708v-105h-708zM869 1673q-38 0 -61 21.5t-23 57.5q0 37 23 58.5t61 21.5q39 0 62 -21.5t23 -58.5q0 -36 -23 -57.5t-62 -21.5zM415 1673q-39 0 -62 21.5t-23 57.5q0 37 23 58.5t62 21.5q38 0 61 -21.5
t23 -58.5q0 -36 -23 -57.5t-61 -21.5z" />
    <glyph glyph-name="Igrave" unicode="&#xcc;" horiz-adv-x="477" 
d="M179 0v1480h119v-1480h-119zM184 1612l-198 278h130l176 -278h-108z" />
    <glyph glyph-name="Iacute" unicode="&#xcd;" horiz-adv-x="477" 
d="M179 0v1480h119v-1480h-119zM183 1612l176 278h131l-198 -278h-109z" />
    <glyph glyph-name="Icircumflex" unicode="&#xce;" horiz-adv-x="477" 
d="M179 0v1480h119v-1480h-119zM-63 1612l243 278h116l243 -278h-114l-202 237h30l-202 -237h-114z" />
    <glyph glyph-name="Idieresis" unicode="&#xcf;" horiz-adv-x="477" 
d="M179 0v1480h119v-1480h-119zM465 1673q-38 0 -61 21.5t-23 57.5q0 37 23 58.5t61 21.5q39 0 62 -21.5t23 -58.5q0 -36 -23 -57.5t-62 -21.5zM11 1673q-39 0 -62 21.5t-23 57.5q0 37 23 58.5t62 21.5q38 0 61 -21.5t23 -58.5q0 -36 -23 -57.5t-61 -21.5z" />
    <glyph glyph-name="Eth" unicode="&#xd0;" horiz-adv-x="1375" 
d="M2 717v90h642v-90h-642zM514 -11q-54 0 -106.5 2t-108 6.5t-120.5 12.5v1448q57 12 119 20t124.5 12t121.5 4q356 0 537.5 -185t181.5 -569q0 -260 -84 -426t-251 -245.5t-414 -79.5zM533 95q202 0 336.5 66t202 208.5t67.5 370.5q0 226 -65.5 369.5t-197.5 211.5
t-332 68q-58 0 -119.5 -5.5t-126.5 -15.5v-1259q55 -7 110.5 -10.5t124.5 -3.5z" />
    <glyph glyph-name="Ntilde" unicode="&#xd1;" horiz-adv-x="1450" 
d="M179 0v1480h125l890 -1351h-36v1351h114v-1480h-126l-889 1351h36v-1351h-114zM876 1681q-46 0 -86.5 13t-78.5 28q-34 14 -67.5 24.5t-68.5 10.5q-52 0 -90 -17.5t-74 -53.5v91q29 31 70 47t95 16q46 0 87 -12.5t78 -28.5q34 -13 67.5 -24t68.5 -11q52 0 90.5 17.5
t73.5 53.5v-91q-29 -30 -69.5 -46.5t-95.5 -16.5z" />
    <glyph glyph-name="Ograve" unicode="&#xd2;" horiz-adv-x="1407" 
d="M704 -18q-178 0 -311.5 77t-207.5 244t-74 437t74.5 437t208 244t310.5 77t310.5 -77t207.5 -244.5t74 -436.5t-74.5 -436.5t-208 -244.5t-309.5 -77zM704 88q140 0 245 62t163.5 204t58.5 381q0 245 -58.5 388.5t-163.5 206t-245 62.5q-141 0 -246 -62t-163.5 -203.5
t-58.5 -381.5q0 -245 58.5 -388.5t163.5 -206t246 -62.5zM650 1612l-198 278h130l176 -278h-108z" />
    <glyph glyph-name="Oacute" unicode="&#xd3;" horiz-adv-x="1407" 
d="M704 -18q-178 0 -311.5 77t-207.5 244t-74 437t74.5 437t208 244t310.5 77t310.5 -77t207.5 -244.5t74 -436.5t-74.5 -436.5t-208 -244.5t-309.5 -77zM704 88q140 0 245 62t163.5 204t58.5 381q0 245 -58.5 388.5t-163.5 206t-245 62.5q-141 0 -246 -62t-163.5 -203.5
t-58.5 -381.5q0 -245 58.5 -388.5t163.5 -206t246 -62.5zM649 1612l176 278h131l-198 -278h-109z" />
    <glyph glyph-name="Ocircumflex" unicode="&#xd4;" horiz-adv-x="1407" 
d="M704 -18q-178 0 -311.5 77t-207.5 244t-74 437t74.5 437t208 244t310.5 77t310.5 -77t207.5 -244.5t74 -436.5t-74.5 -436.5t-208 -244.5t-309.5 -77zM704 88q140 0 245 62t163.5 204t58.5 381q0 245 -58.5 388.5t-163.5 206t-245 62.5q-141 0 -246 -62t-163.5 -203.5
t-58.5 -381.5q0 -245 58.5 -388.5t163.5 -206t246 -62.5zM403 1612l243 278h116l243 -278h-114l-202 237h30l-202 -237h-114z" />
    <glyph glyph-name="Otilde" unicode="&#xd5;" horiz-adv-x="1407" 
d="M704 -18q-178 0 -311.5 77t-207.5 244t-74 437t74.5 437t208 244t310.5 77t310.5 -77t207.5 -244.5t74 -436.5t-74.5 -436.5t-208 -244.5t-309.5 -77zM704 88q140 0 245 62t163.5 204t58.5 381q0 245 -58.5 388.5t-163.5 206t-245 62.5q-141 0 -246 -62t-163.5 -203.5
t-58.5 -381.5q0 -245 58.5 -388.5t163.5 -206t246 -62.5zM854 1681q-46 0 -86.5 13t-78.5 28q-34 14 -67.5 24.5t-68.5 10.5q-52 0 -90 -17.5t-74 -53.5v91q29 31 70 47t95 16q46 0 87 -12.5t78 -28.5q34 -13 67.5 -24t68.5 -11q52 0 90.5 17.5t73.5 53.5v-91
q-29 -30 -69.5 -46.5t-95.5 -16.5z" />
    <glyph glyph-name="Odieresis" unicode="&#xd6;" horiz-adv-x="1407" 
d="M704 -18q-178 0 -311.5 77t-207.5 244t-74 437t74.5 437t208 244t310.5 77t310.5 -77t207.5 -244.5t74 -436.5t-74.5 -436.5t-208 -244.5t-309.5 -77zM704 88q140 0 245 62t163.5 204t58.5 381q0 245 -58.5 388.5t-163.5 206t-245 62.5q-141 0 -246 -62t-163.5 -203.5
t-58.5 -381.5q0 -245 58.5 -388.5t163.5 -206t246 -62.5zM931 1673q-38 0 -61 21.5t-23 57.5q0 37 23 58.5t61 21.5q39 0 62 -21.5t23 -58.5q0 -36 -23 -57.5t-62 -21.5zM477 1673q-39 0 -62 21.5t-23 57.5q0 37 23 58.5t62 21.5q38 0 61 -21.5t23 -58.5q0 -36 -23 -57.5
t-61 -21.5z" />
    <glyph glyph-name="multiply" unicode="&#xd7;" horiz-adv-x="989" 
d="M196 392l-70 69l299 299l-299 299l70 69l299 -298l298 298l70 -69l-299 -299l299 -299l-70 -69l-298 298z" />
    <glyph glyph-name="Oslash" unicode="&#xd8;" horiz-adv-x="1407" 
d="M213 0h-106l1084 1480h106zM704 -18q-178 0 -311.5 77t-207.5 244t-74 437t74.5 437t208 244t310.5 77t310.5 -77t207.5 -244.5t74 -436.5t-74.5 -436.5t-208 -244.5t-309.5 -77zM704 88q140 0 245 62t163.5 204t58.5 381q0 245 -58.5 388.5t-163.5 206t-245 62.5
q-141 0 -246 -62t-163.5 -203.5t-58.5 -381.5q0 -245 58.5 -388.5t163.5 -206t246 -62.5z" />
    <glyph glyph-name="Ugrave" unicode="&#xd9;" horiz-adv-x="1397" 
d="M700 -18q-182 0 -299 60t-173.5 185t-56.5 319v934h120v-948q0 -230 98 -337t311 -107t311 107t98 337v948h117v-934q0 -194 -56 -319t-172.5 -185t-297.5 -60zM646 1612l-198 278h130l176 -278h-108z" />
    <glyph glyph-name="Uacute" unicode="&#xda;" horiz-adv-x="1397" 
d="M700 -18q-182 0 -299 60t-173.5 185t-56.5 319v934h120v-948q0 -230 98 -337t311 -107t311 107t98 337v948h117v-934q0 -194 -56 -319t-172.5 -185t-297.5 -60zM645 1612l176 278h131l-198 -278h-109z" />
    <glyph glyph-name="Ucircumflex" unicode="&#xdb;" horiz-adv-x="1397" 
d="M700 -18q-182 0 -299 60t-173.5 185t-56.5 319v934h120v-948q0 -230 98 -337t311 -107t311 107t98 337v948h117v-934q0 -194 -56 -319t-172.5 -185t-297.5 -60zM399 1612l243 278h116l243 -278h-114l-202 237h30l-202 -237h-114z" />
    <glyph glyph-name="Udieresis" unicode="&#xdc;" horiz-adv-x="1397" 
d="M700 -18q-182 0 -299 60t-173.5 185t-56.5 319v934h120v-948q0 -230 98 -337t311 -107t311 107t98 337v948h117v-934q0 -194 -56 -319t-172.5 -185t-297.5 -60zM927 1673q-38 0 -61 21.5t-23 57.5q0 37 23 58.5t61 21.5q39 0 62 -21.5t23 -58.5q0 -36 -23 -57.5
t-62 -21.5zM473 1673q-39 0 -62 21.5t-23 57.5q0 37 23 58.5t62 21.5q38 0 61 -21.5t23 -58.5q0 -36 -23 -57.5t-61 -21.5z" />
    <glyph glyph-name="Yacute" unicode="&#xdd;" horiz-adv-x="1147" 
d="M514 0v717l28 -92l-568 855h136l489 -739h-46l483 739h128l-558 -855l28 91v-716h-120zM519 1612l176 278h131l-198 -278h-109z" />
    <glyph glyph-name="Thorn" unicode="&#xde;" horiz-adv-x="1221" 
d="M179 0v1481h119v-243q48 8 109 13.5t135 5.5q282 0 428.5 -119.5t146.5 -376.5q0 -242 -146.5 -370t-463.5 -128q-55 0 -104.5 2.5t-104.5 7.5v-273h-119zM509 365q257 0 372 97.5t115 295.5q0 208 -111.5 303t-338.5 95q-70 0 -130.5 -5t-117.5 -15v-759q52 -6 102.5 -9
t108.5 -3z" />
    <glyph glyph-name="germandbls" unicode="&#xdf;" horiz-adv-x="1344" 
d="M863 -19q-76 0 -147 10t-138 31v101q52 -15 100 -24.5t93.5 -13.5t91.5 -4q153 0 222 53t69 149q0 84 -42.5 128t-142.5 65l-139 29q-147 33 -209 105t-62 183q0 132 100 217.5t304 85.5q20 0 42.5 -1t45.5 -3t44 -6l-65 -45q8 36 13 75t5 76q0 129 -44 205t-120.5 109
t-172.5 33q-115 0 -196.5 -41t-124.5 -132.5t-43 -240.5v-1125h-119v1129q0 171 57 283.5t164 168t257 55.5q126 0 225.5 -46t156.5 -144.5t57 -256.5q0 -52 -7.5 -108.5t-18.5 -94.5q-29 6 -62.5 10t-84.5 4q-108 0 -173.5 -27t-94 -72.5t-28.5 -101.5q0 -73 40 -120
t138 -70l139 -28q152 -34 215 -104t63 -187q0 -142 -103 -225.5t-305 -83.5zM17 979v104h275v-104h-275z" />
    <glyph glyph-name="agrave" unicode="&#xe0;" horiz-adv-x="1007" 
d="M421 -17q-149 0 -235.5 76.5t-86.5 213.5q0 139 90.5 216.5t287.5 98.5l308 34l9 -88l-312 -35q-139 -15 -200 -68t-61 -147q0 -99 56.5 -151t167.5 -52q79 0 157.5 34.5t140.5 114.5v501q0 105 -33 163t-97 81t-158 23q-61 0 -138 -11.5t-154 -38.5v103q66 23 148 35.5
t155 12.5q128 0 216 -34t133 -115.5t45 -222.5v-727h-101l-9 124h-9q-54 -67 -138 -104t-182 -37zM444 1258l-232 358h130l212 -358h-110z" />
    <glyph glyph-name="aacute" unicode="&#xe1;" horiz-adv-x="1007" 
d="M421 -17q-149 0 -235.5 76.5t-86.5 213.5q0 139 90.5 216.5t287.5 98.5l308 34l9 -88l-312 -35q-139 -15 -200 -68t-61 -147q0 -99 56.5 -151t167.5 -52q79 0 157.5 34.5t140.5 114.5v501q0 105 -33 163t-97 81t-158 23q-61 0 -138 -11.5t-154 -38.5v103q66 23 148 35.5
t155 12.5q128 0 216 -34t133 -115.5t45 -222.5v-727h-101l-9 124h-9q-54 -67 -138 -104t-182 -37zM444 1258l212 358h130l-232 -358h-110z" />
    <glyph glyph-name="acircumflex" unicode="&#xe2;" horiz-adv-x="1007" 
d="M421 -17q-149 0 -235.5 76.5t-86.5 213.5q0 139 90.5 216.5t287.5 98.5l308 34l9 -88l-312 -35q-139 -15 -200 -68t-61 -147q0 -99 56.5 -151t167.5 -52q79 0 157.5 34.5t140.5 114.5v501q0 105 -33 163t-97 81t-158 23q-61 0 -138 -11.5t-154 -38.5v103q66 23 148 35.5
t155 12.5q128 0 216 -34t133 -115.5t45 -222.5v-727h-101l-9 124h-9q-54 -67 -138 -104t-182 -37zM221 1258l221 358h114l221 -358h-103l-190 316h30l-190 -316h-103z" />
    <glyph glyph-name="atilde" unicode="&#xe3;" horiz-adv-x="1007" 
d="M421 -17q-149 0 -235.5 76.5t-86.5 213.5q0 139 90.5 216.5t287.5 98.5l308 34l9 -88l-312 -35q-139 -15 -200 -68t-61 -147q0 -99 56.5 -151t167.5 -52q79 0 157.5 34.5t140.5 114.5v501q0 105 -33 163t-97 81t-158 23q-61 0 -138 -11.5t-154 -38.5v103q66 23 148 35.5
t155 12.5q128 0 216 -34t133 -115.5t45 -222.5v-727h-101l-9 124h-9q-54 -67 -138 -104t-182 -37zM638 1361q-42 0 -80.5 13.5t-73.5 29.5q-32 14 -63 25t-62 11q-47 0 -84.5 -18t-73.5 -56v94q59 64 159 64q42 0 80.5 -13.5t73.5 -28.5q33 -14 63.5 -25.5t61.5 -11.5
q48 0 85.5 18t72.5 56v-94q-59 -64 -159 -64z" />
    <glyph glyph-name="adieresis" unicode="&#xe4;" horiz-adv-x="1007" 
d="M421 -17q-149 0 -235.5 76.5t-86.5 213.5q0 139 90.5 216.5t287.5 98.5l308 34l9 -88l-312 -35q-139 -15 -200 -68t-61 -147q0 -99 56.5 -151t167.5 -52q79 0 157.5 34.5t140.5 114.5v501q0 105 -33 163t-97 81t-158 23q-61 0 -138 -11.5t-154 -38.5v103q66 23 148 35.5
t155 12.5q128 0 216 -34t133 -115.5t45 -222.5v-727h-101l-9 124h-9q-54 -67 -138 -104t-182 -37zM708 1339q-38 0 -61 22.5t-23 59.5q0 39 23 61.5t61 22.5t61 -22.5t23 -61.5q0 -37 -23 -59.5t-61 -22.5zM290 1339q-38 0 -61 22.5t-23 59.5q0 39 23 61.5t61 22.5t61 -22.5
t23 -61.5q0 -37 -23 -59.5t-61 -22.5z" />
    <glyph glyph-name="aring" unicode="&#xe5;" horiz-adv-x="1007" 
d="M421 -17q-149 0 -235.5 76.5t-86.5 213.5q0 139 90.5 216.5t287.5 98.5l308 34l9 -88l-312 -35q-139 -15 -200 -68t-61 -147q0 -99 56.5 -151t167.5 -52q79 0 157.5 34.5t140.5 114.5v501q0 105 -33 163t-97 81t-158 23q-61 0 -138 -11.5t-154 -38.5v103q66 23 148 35.5
t155 12.5q128 0 216 -34t133 -115.5t45 -222.5v-727h-101l-9 124h-9q-54 -67 -138 -104t-182 -37zM499 1253q-82 0 -136 54t-54 136t54 135.5t136 53.5q83 0 136.5 -53.5t53.5 -135.5t-53.5 -136t-136.5 -54zM499 1318q54 0 88.5 33.5t34.5 91.5t-34.5 91.5t-88.5 33.5
t-88.5 -33.5t-34.5 -91.5t34.5 -91.5t88.5 -33.5z" />
    <glyph glyph-name="ae" unicode="&#xe6;" horiz-adv-x="1640" 
d="M1226 -19q-157 0 -264.5 57t-162.5 181t-55 324l14 12q0 189 48.5 309.5t138 178t212.5 57.5q124 0 213 -58t137 -181.5t48 -319.5v-42h-728v90h644l-32 -30q0 167 -34.5 265t-98 140.5t-153.5 42.5t-155.5 -42.5t-101.5 -139.5t-36 -261v-38q0 -162 42.5 -259.5
t127 -140.5t208.5 -43q60 0 125.5 11.5t139.5 34.5v-103q-74 -23 -142.5 -34t-134.5 -11zM429 -17q-102 0 -175.5 34t-114 99t-40.5 157t40.5 163.5t130 112t236.5 40.5h273v-89h-271q-107 0 -169.5 -28t-90 -77.5t-27.5 -111.5q0 -99 57.5 -150.5t168.5 -51.5
q89 0 179 44.5t160 162.5l49 -80q-92 -131 -196 -178t-210 -47zM744 543v190q0 104 -33.5 161.5t-97.5 80.5t-158 23q-61 0 -137.5 -11.5t-154.5 -38.5v103q67 24 147.5 36t153.5 12q124 0 209 -34.5t129 -115t44 -218.5v-205z" />
    <glyph glyph-name="ccedilla" unicode="&#xe7;" horiz-adv-x="853" 
d="M558 -19q-146 0 -248.5 58t-156 181t-53.5 321t58 321t169.5 180t273.5 57q54 0 110 -7t106 -21v-105q-53 15 -105 22t-101 7q-130 0 -216 -43.5t-128.5 -142t-42.5 -264.5q0 -169 39.5 -270t117.5 -145t193 -44q52 0 111.5 11t131.5 35v-105q-64 -23 -129 -34.5
t-130 -11.5zM514 -408q-43 0 -88.5 9t-78.5 26v70q44 -22 86 -30.5t80 -8.5q58 0 86.5 21.5t28.5 65.5q0 89 -117 89h-35v186h76v-159l-33 32q90 0 138 -39.5t48 -111.5q0 -70 -49.5 -110t-141.5 -40z" />
    <glyph glyph-name="egrave" unicode="&#xe8;" horiz-adv-x="1009" 
d="M592 -19q-160 0 -269.5 57t-166 180.5t-56.5 323.5q0 193 52 316.5t146.5 182t222.5 58.5q127 0 217.5 -58.5t138.5 -182.5t48 -318v-41h-762v90h677l-31 -25q0 163 -34.5 260t-99 139.5t-155.5 42.5t-158 -42.5t-103.5 -139t-36.5 -260.5v-38q0 -162 43 -259.5
t128 -140.5t211 -43q61 0 127 11.5t142 34.5v-103q-76 -23 -144.5 -34t-136.5 -11zM466 1258l-232 358h130l212 -358h-110z" />
    <glyph glyph-name="eacute" unicode="&#xe9;" horiz-adv-x="1009" 
d="M592 -19q-160 0 -269.5 57t-166 180.5t-56.5 323.5q0 193 52 316.5t146.5 182t222.5 58.5q127 0 217.5 -58.5t138.5 -182.5t48 -318v-41h-762v90h677l-31 -25q0 163 -34.5 260t-99 139.5t-155.5 42.5t-158 -42.5t-103.5 -139t-36.5 -260.5v-38q0 -162 43 -259.5
t128 -140.5t211 -43q61 0 127 11.5t142 34.5v-103q-76 -23 -144.5 -34t-136.5 -11zM466 1258l212 358h130l-232 -358h-110z" />
    <glyph glyph-name="ecircumflex" unicode="&#xea;" horiz-adv-x="1009" 
d="M592 -19q-160 0 -269.5 57t-166 180.5t-56.5 323.5q0 193 52 316.5t146.5 182t222.5 58.5q127 0 217.5 -58.5t138.5 -182.5t48 -318v-41h-762v90h677l-31 -25q0 163 -34.5 260t-99 139.5t-155.5 42.5t-158 -42.5t-103.5 -139t-36.5 -260.5v-38q0 -162 43 -259.5
t128 -140.5t211 -43q61 0 127 11.5t142 34.5v-103q-76 -23 -144.5 -34t-136.5 -11zM243 1258l221 358h114l221 -358h-103l-190 316h30l-190 -316h-103z" />
    <glyph glyph-name="edieresis" unicode="&#xeb;" horiz-adv-x="1009" 
d="M592 -19q-160 0 -269.5 57t-166 180.5t-56.5 323.5q0 193 52 316.5t146.5 182t222.5 58.5q127 0 217.5 -58.5t138.5 -182.5t48 -318v-41h-762v90h677l-31 -25q0 163 -34.5 260t-99 139.5t-155.5 42.5t-158 -42.5t-103.5 -139t-36.5 -260.5v-38q0 -162 43 -259.5
t128 -140.5t211 -43q61 0 127 11.5t142 34.5v-103q-76 -23 -144.5 -34t-136.5 -11zM730 1339q-38 0 -61 22.5t-23 59.5q0 39 23 61.5t61 22.5t61 -22.5t23 -61.5q0 -37 -23 -59.5t-61 -22.5zM312 1339q-38 0 -61 22.5t-23 59.5q0 39 23 61.5t61 22.5t61 -22.5t23 -61.5
q0 -37 -23 -59.5t-61 -22.5z" />
    <glyph glyph-name="igrave" unicode="&#xec;" horiz-adv-x="438" 
d="M160 0v1083h118v-1083h-118zM164 1258l-232 358h130l212 -358h-110z" />
    <glyph glyph-name="iacute" unicode="&#xed;" horiz-adv-x="438" 
d="M160 0v1083h118v-1083h-118zM164 1258l212 358h130l-232 -358h-110z" />
    <glyph glyph-name="icircumflex" unicode="&#xee;" horiz-adv-x="438" 
d="M160 0v1083h118v-1083h-118zM-59 1258l221 358h114l221 -358h-103l-190 316h30l-190 -316h-103z" />
    <glyph glyph-name="idieresis" unicode="&#xef;" horiz-adv-x="438" 
d="M160 0v1083h118v-1083h-118zM428 1339q-38 0 -61 22.5t-23 59.5q0 39 23 61.5t61 22.5t61 -22.5t23 -61.5q0 -37 -23 -59.5t-61 -22.5zM10 1339q-38 0 -61 22.5t-23 59.5q0 39 23 61.5t61 22.5t61 -22.5t23 -61.5q0 -37 -23 -59.5t-61 -22.5z" />
    <glyph glyph-name="eth" unicode="&#xf0;" horiz-adv-x="1087" 
d="M545 -19q-134 0 -234 57.5t-155.5 181t-55.5 321.5q0 197 55 320t153.5 180t229.5 57q99 0 184.5 -41t145.5 -154l-56 34q-37 120 -100 238.5t-158.5 229.5t-229.5 211h151q108 -78 200.5 -193t162 -253.5t109 -290t39.5 -302.5q0 -208 -54.5 -339.5t-153.5 -194
t-233 -62.5zM545 83q97 0 169 45.5t111.5 145.5t39.5 264q0 173 -39.5 273.5t-111.5 143.5t-170 43q-99 0 -171 -42.5t-111.5 -142t-39.5 -270.5q0 -173 39.5 -273.5t112 -143.5t171.5 -43zM208 1235l-14 81l755 125l14 -81z" />
    <glyph glyph-name="ntilde" unicode="&#xf1;" horiz-adv-x="1114" 
d="M160 0v1083h101l9 -126h9q68 69 157.5 105.5t188.5 36.5q100 0 177.5 -36t121 -117.5t43.5 -218.5v-727h-118v723q0 150 -66.5 209t-179.5 59q-52 0 -110.5 -15t-114.5 -50t-100 -94v-832h-118zM703 1361q-42 0 -80.5 13.5t-73.5 29.5q-32 14 -63 25t-62 11
q-47 0 -84.5 -18t-73.5 -56v94q59 64 159 64q42 0 80.5 -13.5t73.5 -28.5q33 -14 63.5 -25.5t61.5 -11.5q48 0 85.5 18t72.5 56v-94q-59 -64 -159 -64z" />
    <glyph glyph-name="ograve" unicode="&#xf2;" horiz-adv-x="1087" 
d="M544 -19q-134 0 -233.5 57.5t-155 181t-55.5 321.5q0 197 55 320t154.5 180.5t234.5 57.5q134 0 233.5 -57t154.5 -180t55 -321q0 -197 -55 -320.5t-155 -181.5t-233 -58zM544 83q98 0 170 42.5t111.5 142.5t39.5 270q0 174 -39.5 274t-111.5 143t-170 43t-170.5 -42.5
t-112 -142t-39.5 -269.5q0 -174 39.5 -274.5t111.5 -143.5t171 -43zM489 1258l-232 358h130l212 -358h-110z" />
    <glyph glyph-name="oacute" unicode="&#xf3;" horiz-adv-x="1087" 
d="M544 -19q-134 0 -233.5 57.5t-155 181t-55.5 321.5q0 197 55 320t154.5 180.5t234.5 57.5q134 0 233.5 -57t154.5 -180t55 -321q0 -197 -55 -320.5t-155 -181.5t-233 -58zM544 83q98 0 170 42.5t111.5 142.5t39.5 270q0 174 -39.5 274t-111.5 143t-170 43t-170.5 -42.5
t-112 -142t-39.5 -269.5q0 -174 39.5 -274.5t111.5 -143.5t171 -43zM489 1258l212 358h130l-232 -358h-110z" />
    <glyph glyph-name="ocircumflex" unicode="&#xf4;" horiz-adv-x="1087" 
d="M544 -19q-134 0 -233.5 57.5t-155 181t-55.5 321.5q0 197 55 320t154.5 180.5t234.5 57.5q134 0 233.5 -57t154.5 -180t55 -321q0 -197 -55 -320.5t-155 -181.5t-233 -58zM544 83q98 0 170 42.5t111.5 142.5t39.5 270q0 174 -39.5 274t-111.5 143t-170 43t-170.5 -42.5
t-112 -142t-39.5 -269.5q0 -174 39.5 -274.5t111.5 -143.5t171 -43zM266 1258l221 358h114l221 -358h-103l-190 316h30l-190 -316h-103z" />
    <glyph glyph-name="otilde" unicode="&#xf5;" horiz-adv-x="1087" 
d="M544 -19q-134 0 -233.5 57.5t-155 181t-55.5 321.5q0 197 55 320t154.5 180.5t234.5 57.5q134 0 233.5 -57t154.5 -180t55 -321q0 -197 -55 -320.5t-155 -181.5t-233 -58zM544 83q98 0 170 42.5t111.5 142.5t39.5 270q0 174 -39.5 274t-111.5 143t-170 43t-170.5 -42.5
t-112 -142t-39.5 -269.5q0 -174 39.5 -274.5t111.5 -143.5t171 -43zM683 1361q-42 0 -80.5 13.5t-73.5 29.5q-32 14 -63 25t-62 11q-47 0 -84.5 -18t-73.5 -56v94q59 64 159 64q42 0 80.5 -13.5t73.5 -28.5q33 -14 63.5 -25.5t61.5 -11.5q48 0 85.5 18t72.5 56v-94
q-59 -64 -159 -64z" />
    <glyph glyph-name="odieresis" unicode="&#xf6;" horiz-adv-x="1087" 
d="M544 -19q-134 0 -233.5 57.5t-155 181t-55.5 321.5q0 197 55 320t154.5 180.5t234.5 57.5q134 0 233.5 -57t154.5 -180t55 -321q0 -197 -55 -320.5t-155 -181.5t-233 -58zM544 83q98 0 170 42.5t111.5 142.5t39.5 270q0 174 -39.5 274t-111.5 143t-170 43t-170.5 -42.5
t-112 -142t-39.5 -269.5q0 -174 39.5 -274.5t111.5 -143.5t171 -43zM753 1339q-38 0 -61 22.5t-23 59.5q0 39 23 61.5t61 22.5t61 -22.5t23 -61.5q0 -37 -23 -59.5t-61 -22.5zM335 1339q-38 0 -61 22.5t-23 59.5q0 39 23 61.5t61 22.5t61 -22.5t23 -61.5q0 -37 -23 -59.5
t-61 -22.5z" />
    <glyph glyph-name="divide" unicode="&#xf7;" horiz-adv-x="1070" 
d="M157 710v100h756v-100h-756zM535 330q-39 0 -63.5 23t-24.5 62q0 40 24.5 63.5t63.5 23.5t63 -24t24 -63q0 -38 -24 -61.5t-63 -23.5zM535 1018q-39 0 -63.5 23.5t-24.5 61.5q0 40 24.5 63.5t63.5 23.5t63 -23.5t24 -63.5q0 -38 -24 -61.5t-63 -23.5z" />
    <glyph glyph-name="oslash" unicode="&#xf8;" horiz-adv-x="1087" 
d="M882 946q50 -67 77.5 -167.5t27.5 -237.5q0 -197 -55 -320.5t-155 -181.5t-233 -58q-84 0 -154.5 23t-125.5 73l-57 -80h-101l99 140q-50 68 -77.5 168t-27.5 236q0 197 55 320t154.5 180.5t234.5 57.5q83 0 153.5 -22.5t124.5 -71.5l57 81h102zM544 999
q-99 0 -171.5 -42.5t-112.5 -142t-40 -270.5q0 -102 15.5 -178t44.5 -128l481 677q-41 45 -96 64.5t-121 19.5zM544 82q98 0 171 42.5t112.5 142.5t39.5 271q0 103 -15.5 179t-44.5 128l-481 -678q40 -45 95.5 -65t122.5 -20z" />
    <glyph glyph-name="ugrave" unicode="&#xf9;" horiz-adv-x="1104" 
d="M486 -18q-98 0 -175 35.5t-120.5 117t-43.5 218.5v730h118v-726q0 -150 67.5 -208.5t173.5 -58.5q53 0 111 16t112.5 51t96.5 92v834h119v-1083h-101l-9 121h-9q-69 -69 -157 -104t-183 -35zM491 1258l-232 358h130l212 -358h-110z" />
    <glyph glyph-name="uacute" unicode="&#xfa;" horiz-adv-x="1104" 
d="M486 -18q-98 0 -175 35.5t-120.5 117t-43.5 218.5v730h118v-726q0 -150 67.5 -208.5t173.5 -58.5q53 0 111 16t112.5 51t96.5 92v834h119v-1083h-101l-9 121h-9q-69 -69 -157 -104t-183 -35zM491 1258l212 358h130l-232 -358h-110z" />
    <glyph glyph-name="ucircumflex" unicode="&#xfb;" horiz-adv-x="1104" 
d="M486 -18q-98 0 -175 35.5t-120.5 117t-43.5 218.5v730h118v-726q0 -150 67.5 -208.5t173.5 -58.5q53 0 111 16t112.5 51t96.5 92v834h119v-1083h-101l-9 121h-9q-69 -69 -157 -104t-183 -35zM268 1258l221 358h114l221 -358h-103l-190 316h30l-190 -316h-103z" />
    <glyph glyph-name="udieresis" unicode="&#xfc;" horiz-adv-x="1104" 
d="M486 -18q-98 0 -175 35.5t-120.5 117t-43.5 218.5v730h118v-726q0 -150 67.5 -208.5t173.5 -58.5q53 0 111 16t112.5 51t96.5 92v834h119v-1083h-101l-9 121h-9q-69 -69 -157 -104t-183 -35zM755 1339q-38 0 -61 22.5t-23 59.5q0 39 23 61.5t61 22.5t61 -22.5t23 -61.5
q0 -37 -23 -59.5t-61 -22.5zM337 1339q-38 0 -61 22.5t-23 59.5q0 39 23 61.5t61 22.5t61 -22.5t23 -61.5q0 -37 -23 -59.5t-61 -22.5z" />
    <glyph glyph-name="yacute" unicode="&#xfd;" horiz-adv-x="1029" 
d="M302 -440l171 440l35 80l380 1003h122l-588 -1523h-120zM437 0l-417 1083h128l405 -1083h-116zM461 1258l212 358h130l-232 -358h-110z" />
    <glyph glyph-name="thorn" unicode="&#xfe;" horiz-adv-x="1103" 
d="M160 -440v2056h118v-648h8q51 58 128 94.5t177 36.5q113 0 206.5 -51.5t149.5 -169t56 -316.5q0 -197 -61 -326t-180 -191.5t-294 -62.5q-49 0 -98.5 4.5t-91.5 10.5v-437h-118zM471 83q203 0 306.5 109.5t103.5 357.5q0 173 -42 269.5t-114 135.5t-162 39
q-79 0 -156.5 -35t-128.5 -112v-743q39 -9 91 -15t102 -6z" />
    <glyph glyph-name="ydieresis" unicode="&#xff;" horiz-adv-x="1029" 
d="M302 -440l171 440l35 80l380 1003h122l-588 -1523h-120zM437 0l-417 1083h128l405 -1083h-116zM725 1339q-38 0 -61 22.5t-23 59.5q0 39 23 61.5t61 22.5t61 -22.5t23 -61.5q0 -37 -23 -59.5t-61 -22.5zM307 1339q-38 0 -61 22.5t-23 59.5q0 39 23 61.5t61 22.5t61 -22.5
t23 -61.5q0 -37 -23 -59.5t-61 -22.5z" />
    <glyph glyph-name="Amacron" unicode="&#x100;" horiz-adv-x="1321" 
d="M32 0l546 1480h164l546 -1480h-124l-518 1419h26l-518 -1419h-122zM297 501l30 105h667l29 -105h-726zM371 1707v86h580v-86h-580z" />
    <glyph glyph-name="amacron" unicode="&#x101;" horiz-adv-x="1007" 
d="M421 -17q-149 0 -235.5 76.5t-86.5 213.5q0 139 90.5 216.5t287.5 98.5l308 34l9 -88l-312 -35q-139 -15 -200 -68t-61 -147q0 -99 56.5 -151t167.5 -52q79 0 157.5 34.5t140.5 114.5v501q0 105 -33 163t-97 81t-158 23q-61 0 -138 -11.5t-154 -38.5v103q66 23 148 35.5
t155 12.5q128 0 216 -34t133 -115.5t45 -222.5v-727h-101l-9 124h-9q-54 -67 -138 -104t-182 -37zM201 1380v86h596v-86h-596z" />
    <glyph glyph-name="Abreve" unicode="&#x102;" horiz-adv-x="1321" 
d="M32 0l546 1480h164l546 -1480h-124l-518 1419h26l-518 -1419h-122zM297 501l30 105h667l29 -105h-726zM663 1622q-96 0 -161 30.5t-100.5 85t-42.5 128.5h85q12 -81 61.5 -123t157.5 -42t156.5 42t58.5 123h85q-7 -75 -41.5 -129.5t-99 -84.5t-159.5 -30z" />
    <glyph glyph-name="abreve" unicode="&#x103;" horiz-adv-x="1007" 
d="M421 -17q-149 0 -235.5 76.5t-86.5 213.5q0 139 90.5 216.5t287.5 98.5l308 34l9 -88l-312 -35q-139 -15 -200 -68t-61 -147q0 -99 56.5 -151t167.5 -52q79 0 157.5 34.5t140.5 114.5v501q0 105 -33 163t-97 81t-158 23q-61 0 -138 -11.5t-154 -38.5v103q66 23 148 35.5
t155 12.5q128 0 216 -34t133 -115.5t45 -222.5v-727h-101l-9 124h-9q-54 -67 -138 -104t-182 -37zM501 1269q-130 0 -204 84t-81 236h86q8 -118 55.5 -180t143.5 -62t143 62t52 180h86q-6 -153 -78.5 -236.5t-202.5 -83.5z" />
    <glyph glyph-name="Aogonek" unicode="&#x104;" horiz-adv-x="1321" 
d="M32 0l546 1480h164l546 -1480h-124l-518 1419h26l-518 -1419h-122zM297 501l30 105h667l29 -105h-726zM1228 -408q-109 0 -166.5 46.5t-57.5 129.5q0 54 24 102.5t77.5 93.5t144.5 88l38 -52q-78 -39 -122 -75.5t-62 -73t-18 -76.5q0 -57 37.5 -86.5t110.5 -29.5
q38 0 76 9t89 30v-69q-42 -18 -84.5 -27.5t-86.5 -9.5z" />
    <glyph glyph-name="aogonek" unicode="&#x105;" horiz-adv-x="1007" 
d="M421 -17q-149 0 -235.5 76.5t-86.5 213.5q0 139 90.5 216.5t287.5 98.5l308 34l9 -88l-312 -35q-139 -15 -200 -68t-61 -147q0 -99 56.5 -151t167.5 -52q79 0 157.5 34.5t140.5 114.5v501q0 105 -33 163t-97 81t-158 23q-61 0 -138 -11.5t-154 -38.5v103q66 23 148 35.5
t155 12.5q128 0 216 -34t133 -115.5t45 -222.5v-727l-97 -3l-13 127h-9q-54 -67 -138 -104t-182 -37zM800 -408q-97 0 -150.5 47t-53.5 129q0 55 23.5 103.5t73 93t129.5 87.5l38 -52q-66 -38 -106 -73.5t-58 -73t-18 -78.5q0 -55 34 -85.5t94 -30.5q37 0 74 10.5t74 31.5
v-70q-33 -18 -73.5 -28.5t-80.5 -10.5z" />
    <glyph glyph-name="Cacute" unicode="&#x106;" horiz-adv-x="1128" 
d="M754 -18q-145 0 -263 39.5t-203 128t-131 233t-46 355.5q0 271 79.5 438.5t227 244.5t352.5 77q86 0 164.5 -11t155.5 -33v-109q-80 25 -158.5 35.5t-159.5 10.5q-171 0 -290.5 -62.5t-182 -205t-62.5 -381.5q0 -249 64 -391.5t181.5 -202t278.5 -59.5q83 0 161 13
t168 44v-108q-75 -27 -158.5 -41.5t-177.5 -14.5zM635 1612l176 278h131l-198 -278h-109z" />
    <glyph glyph-name="cacute" unicode="&#x107;" horiz-adv-x="853" 
d="M558 -19q-146 0 -248.5 58t-156 181t-53.5 321t58 321t169.5 180t273.5 57q54 0 110 -7t106 -21v-105q-53 15 -105 22t-101 7q-130 0 -216 -43.5t-128.5 -142t-42.5 -264.5q0 -169 39.5 -270t117.5 -145t193 -44q52 0 111.5 11t131.5 35v-105q-64 -23 -129 -34.5
t-130 -11.5zM452 1258l212 358h130l-232 -358h-110z" />
    <glyph glyph-name="Ccircumflex" unicode="&#x108;" horiz-adv-x="1128" 
d="M754 -18q-145 0 -263 39.5t-203 128t-131 233t-46 355.5q0 271 79.5 438.5t227 244.5t352.5 77q86 0 164.5 -11t155.5 -33v-109q-80 25 -158.5 35.5t-159.5 10.5q-171 0 -290.5 -62.5t-182 -205t-62.5 -381.5q0 -249 64 -391.5t181.5 -202t278.5 -59.5q83 0 161 13
t168 44v-108q-75 -27 -158.5 -41.5t-177.5 -14.5zM389 1612l243 278h116l243 -278h-114l-202 237h30l-202 -237h-114z" />
    <glyph glyph-name="ccircumflex" unicode="&#x109;" horiz-adv-x="853" 
d="M558 -19q-146 0 -248.5 58t-156 181t-53.5 321t58 321t169.5 180t273.5 57q54 0 110 -7t106 -21v-105q-53 15 -105 22t-101 7q-130 0 -216 -43.5t-128.5 -142t-42.5 -264.5q0 -169 39.5 -270t117.5 -145t193 -44q52 0 111.5 11t131.5 35v-105q-64 -23 -129 -34.5
t-130 -11.5zM229 1258l221 358h114l221 -358h-103l-190 316h30l-190 -316h-103z" />
    <glyph glyph-name="Cdotaccent" unicode="&#x10a;" horiz-adv-x="1128" 
d="M754 -18q-145 0 -263 39.5t-203 128t-131 233t-46 355.5q0 271 79.5 438.5t227 244.5t352.5 77q86 0 164.5 -11t155.5 -33v-109q-80 25 -158.5 35.5t-159.5 10.5q-171 0 -290.5 -62.5t-182 -205t-62.5 -381.5q0 -249 64 -391.5t181.5 -202t278.5 -59.5q83 0 161 13
t168 44v-108q-75 -27 -158.5 -41.5t-177.5 -14.5zM690 1673q-41 0 -65 21.5t-24 57.5q0 37 24 58.5t65 21.5t65 -21.5t24 -58.5q0 -36 -24 -57.5t-65 -21.5z" />
    <glyph glyph-name="cdotaccent" unicode="&#x10b;" horiz-adv-x="853" 
d="M558 -19q-146 0 -248.5 58t-156 181t-53.5 321t58 321t169.5 180t273.5 57q54 0 110 -7t106 -21v-105q-53 15 -105 22t-101 7q-130 0 -216 -43.5t-128.5 -142t-42.5 -264.5q0 -169 39.5 -270t117.5 -145t193 -44q52 0 111.5 11t131.5 35v-105q-64 -23 -129 -34.5
t-130 -11.5zM507 1339q-42 0 -65.5 22t-23.5 60q0 40 23.5 62.5t65.5 22.5t65.5 -22.5t23.5 -62.5q0 -38 -23.5 -60t-65.5 -22z" />
    <glyph glyph-name="Ccaron" unicode="&#x10c;" horiz-adv-x="1128" 
d="M754 -18q-145 0 -263 39.5t-203 128t-131 233t-46 355.5q0 271 79.5 438.5t227 244.5t352.5 77q86 0 164.5 -11t155.5 -33v-109q-80 25 -158.5 35.5t-159.5 10.5q-171 0 -290.5 -62.5t-182 -205t-62.5 -381.5q0 -249 64 -391.5t181.5 -202t278.5 -59.5q83 0 161 13
t168 44v-108q-75 -27 -158.5 -41.5t-177.5 -14.5zM632 1612l-243 278h114l202 -238h-30l202 238h114l-243 -278h-116z" />
    <glyph glyph-name="ccaron" unicode="&#x10d;" horiz-adv-x="853" 
d="M558 -19q-146 0 -248.5 58t-156 181t-53.5 321t58 321t169.5 180t273.5 57q54 0 110 -7t106 -21v-105q-53 15 -105 22t-101 7q-130 0 -216 -43.5t-128.5 -142t-42.5 -264.5q0 -169 39.5 -270t117.5 -145t193 -44q52 0 111.5 11t131.5 35v-105q-64 -23 -129 -34.5
t-130 -11.5zM450 1258l-224 358h103l193 -318h-30l193 318h103l-224 -358h-114z" />
    <glyph glyph-name="Dcaron" unicode="&#x10e;" horiz-adv-x="1375" 
d="M514 -11q-54 0 -106.5 2t-108 6.5t-120.5 12.5v1448q57 12 119 20t124.5 12t121.5 4q356 0 537.5 -185t181.5 -569q0 -260 -84 -426t-251 -245.5t-414 -79.5zM533 95q202 0 336.5 66t202 208.5t67.5 370.5q0 226 -65.5 369.5t-197.5 211.5t-332 68q-58 0 -119.5 -5.5
t-126.5 -15.5v-1259q55 -7 110.5 -10.5t124.5 -3.5zM565 1612l-243 278h114l202 -238h-30l202 238h114l-243 -278h-116z" />
    <glyph glyph-name="dcaron" unicode="&#x10f;" horiz-adv-x="1103" 
d="M522 -18q-118 0 -213.5 52.5t-152 170.5t-56.5 314q0 197 61 325.5t180 191.5t294 63q49 0 98.5 -4.5t91.5 -11.5v533h118v-1616h-102l-8 118h-10q-49 -59 -126 -97.5t-175 -38.5zM543 87q79 0 155 36t127 114v740q-39 9 -91 15t-102 6q-203 0 -306.5 -109.5
t-103.5 -357.5q0 -172 41 -268.5t113.5 -136t166.5 -39.5zM1039 1180q13 107 16.5 223t3.5 213h94q0 -101 -9.5 -216.5t-33.5 -219.5h-71z" />
    <glyph glyph-name="Dcroat" unicode="&#x110;" horiz-adv-x="1375" 
d="M2 717v90h642v-90h-642zM514 -11q-54 0 -106.5 2t-108 6.5t-120.5 12.5v1448q57 12 119 20t124.5 12t121.5 4q356 0 537.5 -185t181.5 -569q0 -260 -84 -426t-251 -245.5t-414 -79.5zM533 95q202 0 336.5 66t202 208.5t67.5 370.5q0 226 -65.5 369.5t-197.5 211.5
t-332 68q-58 0 -119.5 -5.5t-126.5 -15.5v-1259q55 -7 110.5 -10.5t124.5 -3.5z" />
    <glyph glyph-name="dcroat" unicode="&#x111;" horiz-adv-x="1103" 
d="M466 1311v89h627v-89h-627zM522 -18q-118 0 -213.5 52.5t-152 170.5t-56.5 314q0 197 61 325.5t180 191.5t294 63q49 0 98.5 -4.5t91.5 -11.5v533h118v-1616h-102l-8 118h-10q-49 -59 -126 -97.5t-175 -38.5zM543 87q79 0 155 36t127 114v740q-39 9 -91 15t-102 6
q-203 0 -306.5 -109.5t-103.5 -357.5q0 -172 41 -268.5t113.5 -136t166.5 -39.5z" />
    <glyph glyph-name="Emacron" unicode="&#x112;" horiz-adv-x="1143" 
d="M179 0v1480h883v-105h-765v-1270h775v-105h-893zM257 708v105h708v-105h-708zM352 1707v86h580v-86h-580z" />
    <glyph glyph-name="emacron" unicode="&#x113;" horiz-adv-x="1009" 
d="M592 -19q-160 0 -269.5 57t-166 180.5t-56.5 323.5q0 193 52 316.5t146.5 182t222.5 58.5q127 0 217.5 -58.5t138.5 -182.5t48 -318v-41h-762v90h677l-31 -25q0 163 -34.5 260t-99 139.5t-155.5 42.5t-158 -42.5t-103.5 -139t-36.5 -260.5v-38q0 -162 43 -259.5
t128 -140.5t211 -43q61 0 127 11.5t142 34.5v-103q-76 -23 -144.5 -34t-136.5 -11zM223 1380v86h596v-86h-596z" />
    <glyph glyph-name="Ebreve" unicode="&#x114;" horiz-adv-x="1143" 
d="M179 0v1480h883v-105h-765v-1270h775v-105h-893zM257 708v105h708v-105h-708zM644 1622q-96 0 -161 30.5t-100.5 85t-42.5 128.5h85q12 -81 61.5 -123t157.5 -42t156.5 42t58.5 123h85q-7 -75 -41.5 -129.5t-99 -84.5t-159.5 -30z" />
    <glyph glyph-name="ebreve" unicode="&#x115;" horiz-adv-x="1009" 
d="M592 -19q-160 0 -269.5 57t-166 180.5t-56.5 323.5q0 193 52 316.5t146.5 182t222.5 58.5q127 0 217.5 -58.5t138.5 -182.5t48 -318v-41h-762v90h677l-31 -25q0 163 -34.5 260t-99 139.5t-155.5 42.5t-158 -42.5t-103.5 -139t-36.5 -260.5v-38q0 -162 43 -259.5
t128 -140.5t211 -43q61 0 127 11.5t142 34.5v-103q-76 -23 -144.5 -34t-136.5 -11zM523 1269q-130 0 -204 84t-81 236h86q8 -118 55.5 -180t143.5 -62t143 62t52 180h86q-6 -153 -78.5 -236.5t-202.5 -83.5z" />
    <glyph glyph-name="Edotaccent" unicode="&#x116;" horiz-adv-x="1143" 
d="M179 0v1480h883v-105h-765v-1270h775v-105h-893zM257 708v105h708v-105h-708zM642 1673q-41 0 -65 21.5t-24 57.5q0 37 24 58.5t65 21.5t65 -21.5t24 -58.5q0 -36 -24 -57.5t-65 -21.5z" />
    <glyph glyph-name="edotaccent" unicode="&#x117;" horiz-adv-x="1009" 
d="M592 -19q-160 0 -269.5 57t-166 180.5t-56.5 323.5q0 193 52 316.5t146.5 182t222.5 58.5q127 0 217.5 -58.5t138.5 -182.5t48 -318v-41h-762v90h677l-31 -25q0 163 -34.5 260t-99 139.5t-155.5 42.5t-158 -42.5t-103.5 -139t-36.5 -260.5v-38q0 -162 43 -259.5
t128 -140.5t211 -43q61 0 127 11.5t142 34.5v-103q-76 -23 -144.5 -34t-136.5 -11zM521 1339q-42 0 -65.5 22t-23.5 60q0 40 23.5 62.5t65.5 22.5t65.5 -22.5t23.5 -62.5q0 -38 -23.5 -60t-65.5 -22z" />
    <glyph glyph-name="Eogonek" unicode="&#x118;" horiz-adv-x="1143" 
d="M179 0v1480h883v-105h-765v-1270h775v-105h-893zM257 708v105h708v-105h-708zM1012 -408q-109 0 -166.5 46.5t-57.5 129.5q0 54 24 102.5t77.5 93.5t144.5 88l38 -52q-78 -39 -122 -75.5t-62 -73t-18 -76.5q0 -57 37.5 -86.5t110.5 -29.5q38 0 76 9t89 30v-69
q-42 -18 -84.5 -27.5t-86.5 -9.5z" />
    <glyph glyph-name="eogonek" unicode="&#x119;" horiz-adv-x="1009" 
d="M719 -408q-97 0 -150.5 47t-53.5 129q0 73 42 135t127 105l5 -20q-24 -3 -49 -5t-48 -2q-160 0 -269.5 57t-166 180.5t-56.5 323.5q0 193 52 316.5t146.5 182t222.5 58.5q127 0 217.5 -58.5t138.5 -182.5t48 -318v-41h-762v88h677l-31 -25q0 164 -34.5 260.5t-99 139
t-155.5 42.5t-158 -42t-103.5 -139t-36.5 -260v-37q0 -162 43 -259.5t128 -140.5t211 -43q61 0 127 11.5t142 34.5v-103q-113 -36 -172.5 -78.5t-82 -86.5t-22.5 -85q0 -56 34.5 -86.5t94.5 -30.5q37 0 74 10.5t74 31.5v-70q-33 -18 -73.5 -28.5t-80.5 -10.5z" />
    <glyph glyph-name="Ecaron" unicode="&#x11a;" horiz-adv-x="1143" 
d="M179 0v1480h883v-105h-765v-1270h775v-105h-893zM257 708v105h708v-105h-708zM584 1612l-243 278h114l202 -238h-30l202 238h114l-243 -278h-116z" />
    <glyph glyph-name="ecaron" unicode="&#x11b;" horiz-adv-x="1009" 
d="M592 -19q-160 0 -269.5 57t-166 180.5t-56.5 323.5q0 193 52 316.5t146.5 182t222.5 58.5q127 0 217.5 -58.5t138.5 -182.5t48 -318v-41h-762v90h677l-31 -25q0 163 -34.5 260t-99 139.5t-155.5 42.5t-158 -42.5t-103.5 -139t-36.5 -260.5v-38q0 -162 43 -259.5
t128 -140.5t211 -43q61 0 127 11.5t142 34.5v-103q-76 -23 -144.5 -34t-136.5 -11zM464 1258l-224 358h103l193 -318h-30l193 318h103l-224 -358h-114z" />
    <glyph glyph-name="Gcircumflex" unicode="&#x11c;" horiz-adv-x="1326" 
d="M848 -11q-242 0 -405.5 77.5t-247.5 243t-84 428.5q0 272 86.5 439t243 244t365.5 77q85 0 166.5 -11t164.5 -34v-108q-93 26 -171.5 36t-154.5 10q-175 0 -303.5 -62.5t-199.5 -205.5t-71 -385q0 -230 67.5 -371.5t202.5 -206.5t336 -65q74 0 137 6t119 17l-45 -53v655
h115v-703q-93 -16 -167.5 -22t-153.5 -6zM427 1612l243 278h116l243 -278h-114l-202 237h30l-202 -237h-114z" />
    <glyph glyph-name="gcircumflex" unicode="&#x11d;" horiz-adv-x="1103" 
d="M475 -460q-71 0 -154.5 12.5t-153.5 37.5v104q83 -27 158.5 -39.5t145.5 -12.5q180 0 267 79.5t87 277.5v115h-8q-49 -56 -126.5 -93t-178.5 -37q-112 0 -205.5 51.5t-150 169t-56.5 314.5q0 295 136 437.5t396 142.5q53 0 107.5 -5.5t106.5 -15.5t97 -25v-1038
q0 -255 -117.5 -365t-350.5 -110zM540 89q80 0 156.5 35t128.5 107v742q-39 11 -92 18t-110 7q-196 0 -298.5 -109.5t-102.5 -357.5q0 -172 42 -268t114 -135t162 -39zM292 1258l221 358h114l221 -358h-103l-190 316h30l-190 -316h-103z" />
    <glyph glyph-name="Gbreve" unicode="&#x11e;" horiz-adv-x="1326" 
d="M848 -11q-242 0 -405.5 77.5t-247.5 243t-84 428.5q0 272 86.5 439t243 244t365.5 77q85 0 166.5 -11t164.5 -34v-108q-93 26 -171.5 36t-154.5 10q-175 0 -303.5 -62.5t-199.5 -205.5t-71 -385q0 -230 67.5 -371.5t202.5 -206.5t336 -65q74 0 137 6t119 17l-45 -53v655
h115v-703q-93 -16 -167.5 -22t-153.5 -6zM730 1622q-96 0 -161 30.5t-100.5 85t-42.5 128.5h85q12 -81 61.5 -123t157.5 -42t156.5 42t58.5 123h85q-7 -75 -41.5 -129.5t-99 -84.5t-159.5 -30z" />
    <glyph glyph-name="gbreve" unicode="&#x11f;" horiz-adv-x="1103" 
d="M475 -460q-71 0 -154.5 12.5t-153.5 37.5v104q83 -27 158.5 -39.5t145.5 -12.5q180 0 267 79.5t87 277.5v115h-8q-49 -56 -126.5 -93t-178.5 -37q-112 0 -205.5 51.5t-150 169t-56.5 314.5q0 295 136 437.5t396 142.5q53 0 107.5 -5.5t106.5 -15.5t97 -25v-1038
q0 -255 -117.5 -365t-350.5 -110zM540 89q80 0 156.5 35t128.5 107v742q-39 11 -92 18t-110 7q-196 0 -298.5 -109.5t-102.5 -357.5q0 -172 42 -268t114 -135t162 -39zM572 1269q-130 0 -204 84t-81 236h86q8 -118 55.5 -180t143.5 -62t143 62t52 180h86
q-6 -153 -78.5 -236.5t-202.5 -83.5z" />
    <glyph glyph-name="Gdotaccent" unicode="&#x120;" horiz-adv-x="1326" 
d="M848 -11q-242 0 -405.5 77.5t-247.5 243t-84 428.5q0 272 86.5 439t243 244t365.5 77q85 0 166.5 -11t164.5 -34v-108q-93 26 -171.5 36t-154.5 10q-175 0 -303.5 -62.5t-199.5 -205.5t-71 -385q0 -230 67.5 -371.5t202.5 -206.5t336 -65q74 0 137 6t119 17l-45 -53v655
h115v-703q-93 -16 -167.5 -22t-153.5 -6zM728 1673q-41 0 -65 21.5t-24 57.5q0 37 24 58.5t65 21.5t65 -21.5t24 -58.5q0 -36 -24 -57.5t-65 -21.5z" />
    <glyph glyph-name="gdotaccent" unicode="&#x121;" horiz-adv-x="1103" 
d="M475 -460q-71 0 -154.5 12.5t-153.5 37.5v104q83 -27 158.5 -39.5t145.5 -12.5q180 0 267 79.5t87 277.5v115h-8q-49 -56 -126.5 -93t-178.5 -37q-112 0 -205.5 51.5t-150 169t-56.5 314.5q0 295 136 437.5t396 142.5q53 0 107.5 -5.5t106.5 -15.5t97 -25v-1038
q0 -255 -117.5 -365t-350.5 -110zM540 89q80 0 156.5 35t128.5 107v742q-39 11 -92 18t-110 7q-196 0 -298.5 -109.5t-102.5 -357.5q0 -172 42 -268t114 -135t162 -39zM570 1339q-42 0 -65.5 22t-23.5 60q0 40 23.5 62.5t65.5 22.5t65.5 -22.5t23.5 -62.5q0 -38 -23.5 -60
t-65.5 -22z" />
    <glyph glyph-name="uni0122" unicode="&#x122;" horiz-adv-x="1326" 
d="M848 -11q-242 0 -405.5 77.5t-247.5 243t-84 428.5q0 272 86.5 439t243 244t365.5 77q85 0 166.5 -11t164.5 -34v-108q-93 26 -171.5 36t-154.5 10q-175 0 -303.5 -62.5t-199.5 -205.5t-71 -385q0 -230 67.5 -371.5t202.5 -206.5t336 -65q74 0 137 6t119 17l-45 -53v655
h115v-703q-93 -16 -167.5 -22t-153.5 -6zM688 -458q24 57 31.5 98t7.5 80l15 -39h-14q-41 0 -63 20.5t-22 53.5q0 32 21.5 52t60.5 20q42 0 65 -24.5t23 -73.5q0 -40 -12.5 -90t-37.5 -97h-75z" />
    <glyph glyph-name="uni0123" unicode="&#x123;" horiz-adv-x="1103" 
d="M475 -460q-71 0 -154.5 12.5t-153.5 37.5v104q83 -27 158.5 -39.5t145.5 -12.5q180 0 267 79.5t87 277.5v115h-8q-49 -56 -126.5 -93t-178.5 -37q-112 0 -205.5 51.5t-150 169t-56.5 314.5q0 295 136 437.5t396 142.5q53 0 107.5 -5.5t106.5 -15.5t97 -25v-1038
q0 -255 -117.5 -365t-350.5 -110zM540 89q80 0 156.5 35t128.5 107v742q-39 11 -92 18t-110 7q-196 0 -298.5 -109.5t-102.5 -357.5q0 -172 42 -268t114 -135t162 -39zM573 1339q-42 0 -65 25t-23 74q0 39 13 89.5t37 96.5h75q-23 -56 -31 -97.5t-8 -79.5l-15 38h14
q41 0 63 -20t22 -54q0 -32 -21 -52t-61 -20z" />
    <glyph glyph-name="Hcircumflex" unicode="&#x124;" horiz-adv-x="1424" 
d="M179 0v1480h119v-665h827v665h120v-1480h-120v705h-827v-705h-119zM411 1612l243 278h116l243 -278h-114l-202 237h30l-202 -237h-114z" />
    <glyph glyph-name="hcircumflex" unicode="&#x125;" horiz-adv-x="1114" 
d="M160 0v1616h118v-657h8q68 70 156.5 105t186.5 35t175 -35.5t120 -117t43 -218.5v-728h-118v724q0 150 -67.5 207.5t-178.5 57.5q-54 0 -113 -15.5t-114 -50.5t-98 -92v-831h-118zM263 1708l243 278h116l243 -278h-114l-202 237h30l-202 -237h-114z" />
    <glyph glyph-name="Hbar" unicode="&#x126;" horiz-adv-x="1424" 
d="M2 1106v88h1419v-88h-1419zM179 0v1480h119v-665h827v665h120v-1480h-120v705h-827v-705h-119z" />
    <glyph glyph-name="hbar" unicode="&#x127;" horiz-adv-x="1114" 
d="M10 1311v88h627v-88h-627zM160 0v1616h118v-657h8q68 70 156.5 105t186.5 35t175 -35.5t120 -117t43 -218.5v-728h-118v724q0 150 -67.5 207.5t-178.5 57.5q-54 0 -113 -15.5t-114 -50.5t-98 -92v-831h-118z" />
    <glyph glyph-name="Itilde" unicode="&#x128;" horiz-adv-x="477" 
d="M179 0v1480h119v-1480h-119zM388 1681q-46 0 -86.5 13t-78.5 28q-34 14 -67.5 24.5t-68.5 10.5q-52 0 -90 -17.5t-74 -53.5v91q29 31 70 47t95 16q46 0 87 -12.5t78 -28.5q34 -13 67.5 -24t68.5 -11q52 0 90.5 17.5t73.5 53.5v-91q-29 -30 -69.5 -46.5t-95.5 -16.5z" />
    <glyph glyph-name="itilde" unicode="&#x129;" horiz-adv-x="438" 
d="M160 0v1083h118v-1083h-118zM358 1361q-42 0 -80.5 13.5t-73.5 29.5q-32 14 -63 25t-62 11q-47 0 -84.5 -18t-73.5 -56v94q59 64 159 64q42 0 80.5 -13.5t73.5 -28.5q33 -14 63.5 -25.5t61.5 -11.5q48 0 85.5 18t72.5 56v-94q-59 -64 -159 -64z" />
    <glyph glyph-name="Imacron" unicode="&#x12a;" horiz-adv-x="477" 
d="M179 0v1480h119v-1480h-119zM-52 1707v86h580v-86h-580z" />
    <glyph glyph-name="imacron" unicode="&#x12b;" horiz-adv-x="438" 
d="M160 0v1083h118v-1083h-118zM-79 1380v86h596v-86h-596z" />
    <glyph glyph-name="Ibreve" unicode="&#x12c;" horiz-adv-x="477" 
d="M179 0v1480h119v-1480h-119zM240 1622q-96 0 -161 30.5t-100.5 85t-42.5 128.5h85q12 -81 61.5 -123t157.5 -42t156.5 42t58.5 123h85q-7 -75 -41.5 -129.5t-99 -84.5t-159.5 -30z" />
    <glyph glyph-name="ibreve" unicode="&#x12d;" horiz-adv-x="438" 
d="M160 0v1083h118v-1083h-118zM221 1269q-130 0 -204 84t-81 236h86q8 -118 55.5 -180t143.5 -62t143 62t52 180h86q-6 -153 -78.5 -236.5t-202.5 -83.5z" />
    <glyph glyph-name="Iogonek" unicode="&#x12e;" horiz-adv-x="477" 
d="M179 0v1480h119v-1480h-119zM238 -408q-109 0 -166.5 46.5t-57.5 129.5q0 54 24 102.5t77.5 93.5t144.5 88l38 -52q-78 -39 -122 -75.5t-62 -73t-18 -76.5q0 -57 37.5 -86.5t110.5 -29.5q38 0 76 9t89 30v-69q-42 -18 -84.5 -27.5t-86.5 -9.5z" />
    <glyph glyph-name="iogonek" unicode="&#x12f;" horiz-adv-x="438" 
d="M160 0v1083h118v-1083h-118zM219 1339q-42 0 -65.5 22t-23.5 60q0 40 23.5 62.5t65.5 22.5t65.5 -22.5t23.5 -62.5q0 -38 -23.5 -60t-65.5 -22zM218 -408q-97 0 -150.5 47t-53.5 129q0 55 23.5 103.5t73 93t129.5 87.5l38 -52q-66 -38 -106 -73.5t-58 -73t-18 -78.5
q0 -55 34 -85.5t94 -30.5q37 0 74 10.5t74 31.5v-70q-33 -18 -73.5 -28.5t-80.5 -10.5z" />
    <glyph glyph-name="Idotaccent" unicode="&#x130;" horiz-adv-x="477" 
d="M179 0v1480h119v-1480h-119zM238 1673q-41 0 -65 21.5t-24 57.5q0 37 24 58.5t65 21.5t65 -21.5t24 -58.5q0 -36 -24 -57.5t-65 -21.5z" />
    <glyph glyph-name="dotlessi" unicode="&#x131;" horiz-adv-x="438" 
d="M160 0v1083h118v-1083h-118z" />
    <glyph glyph-name="Jcircumflex" unicode="&#x134;" horiz-adv-x="477" 
d="M76 -342l-81 56q64 89 104.5 173.5t60 180.5t19.5 221v1191h119v-1218q0 -121 -23 -220t-72 -191.5t-127 -192.5zM-62 1612l243 278h116l243 -278h-114l-202 237h30l-202 -237h-114z" />
    <glyph glyph-name="jcircumflex" unicode="&#x135;" horiz-adv-x="438" 
d="M56 -462l-80 55q64 89 105 176.5t60 184t19 214.5v915h118v-907q0 -129 -23 -236t-72 -204.5t-127 -197.5zM-60 1263l221 358h114l221 -358h-103l-190 316h30l-190 -316h-103z" />
    <glyph glyph-name="uni0136" unicode="&#x136;" horiz-adv-x="1213" 
d="M1091 0l-599 757l560 723h136l-574 -737l1 37l615 -780h-139zM179 0v1480h119v-1480h-119zM276 705v109h277v-109h-277zM592 -458q24 57 31.5 98t7.5 80l15 -39h-14q-41 0 -63 20.5t-22 53.5q0 32 21.5 52t60.5 20q42 0 65 -24.5t23 -73.5q0 -40 -12.5 -90t-37.5 -97h-75
z" />
    <glyph glyph-name="uni0137" unicode="&#x137;" horiz-adv-x="1002" 
d="M883 0l-449 554l418 529h136l-427 -545v34l459 -572h-137zM260 503v102h231v-102h-231zM160 0v1616h118v-1616h-118zM500 -458q24 57 31.5 98t7.5 80l15 -39h-14q-41 0 -63 20.5t-22 53.5q0 32 21.5 52t60.5 20q42 0 65 -24.5t23 -73.5q0 -40 -12.5 -90t-37.5 -97h-75z
" />
    <glyph glyph-name="kgreenlandic" unicode="&#x138;" horiz-adv-x="1002" 
d="M883 0l-449 554l418 529h136l-427 -545v34l459 -572h-137zM160 0v1083h118v-1083h-118zM260 503v102h231v-102h-231z" />
    <glyph glyph-name="Lacute" unicode="&#x139;" horiz-adv-x="1051" 
d="M179 0v1480h119v-1373h741v-107h-860zM184 1612l176 278h131l-198 -278h-109z" />
    <glyph glyph-name="lacute" unicode="&#x13a;" horiz-adv-x="438" 
d="M160 0v1616h118v-1616h-118zM164 1708l176 278h131l-198 -278h-109z" />
    <glyph glyph-name="uni013B" unicode="&#x13b;" horiz-adv-x="1051" 
d="M179 0v1480h119v-1373h741v-107h-860zM570 -458q24 57 31.5 98t7.5 80l15 -39h-14q-41 0 -63 20.5t-22 53.5q0 32 21.5 52t60.5 20q42 0 65 -24.5t23 -73.5q0 -40 -12.5 -90t-37.5 -97h-75z" />
    <glyph glyph-name="uni013C" unicode="&#x13c;" horiz-adv-x="438" 
d="M160 0v1616h118v-1616h-118zM179 -458q24 57 31.5 98t7.5 80l15 -39h-14q-41 0 -63 20.5t-22 53.5q0 32 21.5 52t60.5 20q42 0 65 -24.5t23 -73.5q0 -40 -12.5 -90t-37.5 -97h-75z" />
    <glyph glyph-name="Lcaron" unicode="&#x13d;" horiz-adv-x="1051" 
d="M179 0v1480h119v-1373h741v-107h-860zM664 1140q9 71 13 148.5t5.5 160t1.5 167.5h94q0 -131 -9.5 -251.5t-33.5 -224.5h-71z" />
    <glyph glyph-name="lcaron" unicode="&#x13e;" horiz-adv-x="438" 
d="M160 0v1616h118v-1616h-118zM374 1180q13 107 16.5 223t3.5 213h94q0 -101 -9.5 -216.5t-33.5 -219.5h-71z" />
    <glyph glyph-name="Ldot" unicode="&#x13f;" horiz-adv-x="1051" 
d="M179 0v1480h119v-1373h741v-107h-860zM754 709q-41 0 -65 22.5t-24 60.5q0 39 24 61.5t65 22.5q42 0 65.5 -22.5t23.5 -61.5q0 -38 -23.5 -60.5t-65.5 -22.5z" />
    <glyph glyph-name="ldot" unicode="&#x140;" horiz-adv-x="499" 
d="M160 0v1616h118v-1616h-118zM459 709q-42 0 -65.5 22.5t-23.5 60.5q0 39 23.5 62t65.5 23t65.5 -23t23.5 -62q0 -38 -23.5 -60.5t-65.5 -22.5z" />
    <glyph glyph-name="Lslash" unicode="&#x141;" horiz-adv-x="1054" 
d="M8 539v112l582 460v-111zM181 0v1480h120v-1373h741v-107h-861z" />
    <glyph glyph-name="lslash" unicode="&#x142;" horiz-adv-x="451" 
d="M25 505v109l395 307v-109zM166 0v1616h119v-1616h-119z" />
    <glyph glyph-name="Nacute" unicode="&#x143;" horiz-adv-x="1450" 
d="M179 0v1480h125l890 -1351h-36v1351h114v-1480h-126l-889 1351h36v-1351h-114zM671 1612l176 278h131l-198 -278h-109z" />
    <glyph glyph-name="nacute" unicode="&#x144;" horiz-adv-x="1114" 
d="M160 0v1083h101l9 -126h9q68 69 157.5 105.5t188.5 36.5q100 0 177.5 -36t121 -117.5t43.5 -218.5v-727h-118v723q0 150 -66.5 209t-179.5 59q-52 0 -110.5 -15t-114.5 -50t-100 -94v-832h-118zM509 1258l212 358h130l-232 -358h-110z" />
    <glyph glyph-name="uni0145" unicode="&#x145;" horiz-adv-x="1450" 
d="M179 0v1480h125l890 -1351h-36v1351h114v-1480h-126l-889 1351h36v-1351h-114zM686 -458q24 57 31.5 98t7.5 80l15 -39h-14q-41 0 -63 20.5t-22 53.5q0 32 21.5 52t60.5 20q42 0 65 -24.5t23 -73.5q0 -40 -12.5 -90t-37.5 -97h-75z" />
    <glyph glyph-name="uni0146" unicode="&#x146;" horiz-adv-x="1114" 
d="M160 0v1083h101l9 -126h9q68 69 157.5 105.5t188.5 36.5q100 0 177.5 -36t121 -117.5t43.5 -218.5v-727h-118v723q0 150 -66.5 209t-179.5 59q-52 0 -110.5 -15t-114.5 -50t-100 -94v-832h-118zM524 -458q24 57 31.5 98t7.5 80l15 -39h-14q-41 0 -63 20.5t-22 53.5
q0 32 21.5 52t60.5 20q42 0 65 -24.5t23 -73.5q0 -40 -12.5 -90t-37.5 -97h-75z" />
    <glyph glyph-name="Ncaron" unicode="&#x147;" horiz-adv-x="1450" 
d="M179 0v1480h125l890 -1351h-36v1351h114v-1480h-126l-889 1351h36v-1351h-114zM668 1612l-243 278h114l202 -238h-30l202 238h114l-243 -278h-116z" />
    <glyph glyph-name="ncaron" unicode="&#x148;" horiz-adv-x="1114" 
d="M160 0v1083h101l9 -126h9q68 69 157.5 105.5t188.5 36.5q100 0 177.5 -36t121 -117.5t43.5 -218.5v-727h-118v723q0 150 -66.5 209t-179.5 59q-52 0 -110.5 -15t-114.5 -50t-100 -94v-832h-118zM507 1258l-224 358h103l193 -318h-30l193 318h103l-224 -358h-114z" />
    <glyph glyph-name="napostrophe" unicode="&#x149;" horiz-adv-x="1114" 
d="M160 0v1083h101l9 -126h9q68 69 157.5 105.5t188.5 36.5q100 0 177.5 -36t121 -117.5t43.5 -218.5v-727h-118v723q0 150 -66.5 209t-179.5 59q-52 0 -110.5 -15t-114.5 -50t-100 -94v-832h-118zM58 1339q24 57 32 98t8 80l15 -39h-14q-41 0 -63.5 20.5t-22.5 53.5
q0 32 22 52t60 20q43 0 66 -24.5t23 -73.5q0 -40 -12.5 -90t-38.5 -97h-75z" />
    <glyph glyph-name="Eng" unicode="&#x14a;" horiz-adv-x="1450" 
d="M1169 -36l-913 1387h37v-1351h-114v1480h125l906 -1375zM1050 -462l-81 55q65 89 107 176.5t62 184t20 214.5v1312h114v-1298q0 -133 -23 -241t-72 -205.5t-127 -197.5z" />
    <glyph glyph-name="eng" unicode="&#x14b;" horiz-adv-x="1114" 
d="M745 -462l-80 55q65 89 105.5 176.5t59.5 184t19 214.5v557q0 150 -67.5 208.5t-178.5 58.5q-54 0 -113 -16t-114 -51.5t-98 -92.5v-832h-118v1083h101l9 -126h9q70 72 159 107t188 35q100 0 177 -35.5t120.5 -117t43.5 -218.5v-586q0 -117 -23 -216.5t-72 -193.5
t-127 -194z" />
    <glyph glyph-name="Omacron" unicode="&#x14c;" horiz-adv-x="1407" 
d="M704 -18q-178 0 -311.5 77t-207.5 244t-74 437t74.5 437t208 244t310.5 77t310.5 -77t207.5 -244.5t74 -436.5t-74.5 -436.5t-208 -244.5t-309.5 -77zM704 88q140 0 245 62t163.5 204t58.5 381q0 245 -58.5 388.5t-163.5 206t-245 62.5q-141 0 -246 -62t-163.5 -203.5
t-58.5 -381.5q0 -245 58.5 -388.5t163.5 -206t246 -62.5zM414 1707v86h580v-86h-580z" />
    <glyph glyph-name="omacron" unicode="&#x14d;" horiz-adv-x="1087" 
d="M544 -19q-134 0 -233.5 57.5t-155 181t-55.5 321.5q0 197 55 320t154.5 180.5t234.5 57.5q134 0 233.5 -57t154.5 -180t55 -321q0 -197 -55 -320.5t-155 -181.5t-233 -58zM544 83q98 0 170 42.5t111.5 142.5t39.5 270q0 174 -39.5 274t-111.5 143t-170 43t-170.5 -42.5
t-112 -142t-39.5 -269.5q0 -174 39.5 -274.5t111.5 -143.5t171 -43zM246 1380v86h596v-86h-596z" />
    <glyph glyph-name="Obreve" unicode="&#x14e;" horiz-adv-x="1407" 
d="M704 -18q-178 0 -311.5 77t-207.5 244t-74 437t74.5 437t208 244t310.5 77t310.5 -77t207.5 -244.5t74 -436.5t-74.5 -436.5t-208 -244.5t-309.5 -77zM704 88q140 0 245 62t163.5 204t58.5 381q0 245 -58.5 388.5t-163.5 206t-245 62.5q-141 0 -246 -62t-163.5 -203.5
t-58.5 -381.5q0 -245 58.5 -388.5t163.5 -206t246 -62.5zM706 1622q-96 0 -161 30.5t-100.5 85t-42.5 128.5h85q12 -81 61.5 -123t157.5 -42t156.5 42t58.5 123h85q-7 -75 -41.5 -129.5t-99 -84.5t-159.5 -30z" />
    <glyph glyph-name="obreve" unicode="&#x14f;" horiz-adv-x="1087" 
d="M544 -19q-134 0 -233.5 57.5t-155 181t-55.5 321.5q0 197 55 320t154.5 180.5t234.5 57.5q134 0 233.5 -57t154.5 -180t55 -321q0 -197 -55 -320.5t-155 -181.5t-233 -58zM544 83q98 0 170 42.5t111.5 142.5t39.5 270q0 174 -39.5 274t-111.5 143t-170 43t-170.5 -42.5
t-112 -142t-39.5 -269.5q0 -174 39.5 -274.5t111.5 -143.5t171 -43zM546 1269q-130 0 -204 84t-81 236h86q8 -118 55.5 -180t143.5 -62t143 62t52 180h86q-6 -153 -78.5 -236.5t-202.5 -83.5z" />
    <glyph glyph-name="Ohungarumlaut" unicode="&#x150;" horiz-adv-x="1407" 
d="M704 -18q-178 0 -311.5 77t-207.5 244t-74 437t74.5 437t208 244t310.5 77t310.5 -77t207.5 -244.5t74 -436.5t-74.5 -436.5t-208 -244.5t-309.5 -77zM704 88q140 0 245 62t163.5 204t58.5 381q0 245 -58.5 388.5t-163.5 206t-245 62.5q-141 0 -246 -62t-163.5 -203.5
t-58.5 -381.5q0 -245 58.5 -388.5t163.5 -206t246 -62.5zM814 1612l126 278h105l-134 -278h-97zM497 1612l126 278h105l-134 -278h-97z" />
    <glyph glyph-name="ohungarumlaut" unicode="&#x151;" horiz-adv-x="1087" 
d="M544 -19q-134 0 -233.5 57.5t-155 181t-55.5 321.5q0 197 55 320t154.5 180.5t234.5 57.5q134 0 233.5 -57t154.5 -180t55 -321q0 -197 -55 -320.5t-155 -181.5t-233 -58zM544 83q98 0 170 42.5t111.5 142.5t39.5 270q0 174 -39.5 274t-111.5 143t-170 43t-170.5 -42.5
t-112 -142t-39.5 -269.5q0 -174 39.5 -274.5t111.5 -143.5t171 -43zM654 1258l137 358h103l-146 -358h-94zM340 1258l136 358h104l-146 -358h-94z" />
    <glyph glyph-name="OE" unicode="&#x152;" horiz-adv-x="1980" 
d="M840 -10q-238 0 -400.5 79.5t-245.5 245t-83 425.5q0 256 81.5 423t241 249t391.5 82q84 0 162 -7t144 -7h768v-105h-733v-1270h743v-105h-767q-41 0 -90.5 -2.5t-103.5 -5t-108 -2.5zM826 96q69 0 123 2t98 7v1269q-57 8 -112.5 11t-118.5 3q-193 0 -322 -68
t-193.5 -211.5t-64.5 -368.5q0 -228 66.5 -370t197.5 -208t326 -66zM1135 708v105h667v-105h-667z" />
    <glyph glyph-name="oe" unicode="&#x153;" horiz-adv-x="1760" 
d="M537 -19q-130 0 -228.5 57.5t-153.5 181t-55 321.5q0 197 54.5 320t153 180.5t229.5 57.5q132 0 227.5 -58t147 -181t51.5 -319q0 -195 -52 -318.5t-147.5 -182.5t-226.5 -59zM540 83q97 0 168.5 42.5t110.5 142.5t39 270q0 174 -39.5 274t-110.5 143t-168 43
q-96 0 -167.5 -42.5t-111 -142t-39.5 -269.5q0 -174 39.5 -274.5t111 -143.5t167.5 -43zM1346 -19q-157 0 -263.5 58t-160.5 182t-54 322l10 12q0 188 48.5 308.5t138 178.5t212.5 58q124 0 213 -58t137 -181.5t48 -319.5v-42h-728v90h644l-32 -30q0 167 -34 265t-98 140.5
t-154 42.5t-155.5 -42.5t-101.5 -139.5t-36 -261v-38q0 -162 42.5 -259.5t127 -140.5t208.5 -43q60 0 125.5 11.5t139.5 34.5v-103q-74 -23 -142.5 -34t-134.5 -11z" />
    <glyph glyph-name="Racute" unicode="&#x154;" horiz-adv-x="1288" 
d="M179 0v1458q53 10 111.5 18.5t124 13.5t140.5 5q286 0 424 -104t138 -325q0 -145 -67.5 -242t-201.5 -146t-333 -49q-66 0 -116 2.5t-102 6.5v-638h-118zM1088 0l-534 699h138l538 -699h-142zM514 730q258 0 372.5 82.5t114.5 251.5q0 118 -45.5 190.5t-143 106
t-253.5 33.5q-82 0 -141.5 -6t-120.5 -16v-632q41 -4 73.5 -6t66.5 -3t77 -1zM562 1612l176 278h131l-198 -278h-109z" />
    <glyph glyph-name="racute" unicode="&#x155;" horiz-adv-x="701" 
d="M160 0v1083h100l10 -146h9q58 76 145 115.5t179 39.5q25 0 45 -1.5t40 -5.5v-112q-22 4 -43.5 4.5t-46.5 0.5q-55 0 -114.5 -17.5t-113.5 -55t-92 -93.5v-812h-118zM358 1258l212 358h130l-232 -358h-110z" />
    <glyph glyph-name="uni0156" unicode="&#x156;" horiz-adv-x="1288" 
d="M179 0v1458q53 10 111.5 18.5t124 13.5t140.5 5q286 0 424 -104t138 -325q0 -145 -67.5 -242t-201.5 -146t-333 -49q-66 0 -116 2.5t-102 6.5v-638h-118zM1088 0l-534 699h138l538 -699h-142zM514 730q258 0 372.5 82.5t114.5 251.5q0 118 -45.5 190.5t-143 106
t-253.5 33.5q-82 0 -141.5 -6t-120.5 -16v-632q41 -4 73.5 -6t66.5 -3t77 -1zM633 -458q24 57 31.5 98t7.5 80l15 -39h-14q-41 0 -63 20.5t-22 53.5q0 32 21.5 52t60.5 20q42 0 65 -24.5t23 -73.5q0 -40 -12.5 -90t-37.5 -97h-75z" />
    <glyph glyph-name="uni0157" unicode="&#x157;" horiz-adv-x="701" 
d="M160 0v1083h100l10 -146h9q58 76 145 115.5t179 39.5q25 0 45 -1.5t40 -5.5v-112q-22 4 -43.5 4.5t-46.5 0.5q-55 0 -114.5 -17.5t-113.5 -55t-92 -93.5v-812h-118zM179 -458q24 57 31.5 98t7.5 80l15 -39h-14q-41 0 -63 20.5t-22 53.5q0 32 21.5 52t60.5 20
q42 0 65 -24.5t23 -73.5q0 -40 -12.5 -90t-37.5 -97h-75z" />
    <glyph glyph-name="Rcaron" unicode="&#x158;" horiz-adv-x="1288" 
d="M179 0v1458q53 10 111.5 18.5t124 13.5t140.5 5q286 0 424 -104t138 -325q0 -145 -67.5 -242t-201.5 -146t-333 -49q-66 0 -116 2.5t-102 6.5v-638h-118zM1088 0l-534 699h138l538 -699h-142zM514 730q258 0 372.5 82.5t114.5 251.5q0 118 -45.5 190.5t-143 106
t-253.5 33.5q-82 0 -141.5 -6t-120.5 -16v-632q41 -4 73.5 -6t66.5 -3t77 -1zM559 1612l-243 278h114l202 -238h-30l202 238h114l-243 -278h-116z" />
    <glyph glyph-name="rcaron" unicode="&#x159;" horiz-adv-x="701" 
d="M160 0v1083h100l10 -146h9q58 76 145 115.5t179 39.5q25 0 45 -1.5t40 -5.5v-112q-22 4 -43.5 4.5t-46.5 0.5q-55 0 -114.5 -17.5t-113.5 -55t-92 -93.5v-812h-118zM356 1258l-224 358h103l193 -318h-30l193 318h103l-224 -358h-114z" />
    <glyph glyph-name="Sacute" unicode="&#x15a;" horiz-adv-x="1039" 
d="M451 -18q-83 0 -175 14.5t-177 43.5v107q62 -20 123 -33.5t119.5 -20t112.5 -6.5q193 0 288 75.5t95 222.5q0 124 -72.5 189t-241.5 110l-72 18q-187 48 -279.5 144t-92.5 253q0 185 127 292t377 107q82 0 164.5 -11t150.5 -33v-108q-77 24 -155.5 35.5t-158.5 11.5
q-130 0 -215 -33.5t-126 -98t-41 -155.5q0 -120 66 -186t227 -109l72 -18q135 -34 222 -87.5t129 -131t42 -183.5q0 -131 -59.5 -222.5t-173.5 -139t-276 -47.5zM472 1612l176 278h131l-198 -278h-109z" />
    <glyph glyph-name="sacute" unicode="&#x15b;" horiz-adv-x="881" 
d="M402 -19q-78 0 -149 10.5t-139 32.5v101q80 -24 149 -34t140 -10q150 0 218.5 53t68.5 149q0 84 -42.5 128t-142.5 65l-139 29q-147 33 -208.5 105.5t-61.5 184.5q0 132 100 218t308 86q67 0 127.5 -7.5t118.5 -23.5v-101q-66 18 -123.5 25.5t-121.5 7.5q-107 0 -171 -27
t-93 -72.5t-29 -101.5q0 -73 39.5 -120t139.5 -70l138 -28q152 -33 215 -103.5t63 -187.5q0 -142 -102.5 -225.5t-302.5 -83.5zM391 1258l212 358h130l-232 -358h-110z" />
    <glyph glyph-name="Scircumflex" unicode="&#x15c;" horiz-adv-x="1039" 
d="M451 -18q-83 0 -175 14.5t-177 43.5v107q62 -20 123 -33.5t119.5 -20t112.5 -6.5q193 0 288 75.5t95 222.5q0 124 -72.5 189t-241.5 110l-72 18q-187 48 -279.5 144t-92.5 253q0 185 127 292t377 107q82 0 164.5 -11t150.5 -33v-108q-77 24 -155.5 35.5t-158.5 11.5
q-130 0 -215 -33.5t-126 -98t-41 -155.5q0 -120 66 -186t227 -109l72 -18q135 -34 222 -87.5t129 -131t42 -183.5q0 -131 -59.5 -222.5t-173.5 -139t-276 -47.5zM226 1612l243 278h116l243 -278h-114l-202 237h30l-202 -237h-114z" />
    <glyph glyph-name="scircumflex" unicode="&#x15d;" horiz-adv-x="881" 
d="M402 -19q-78 0 -149 10.5t-139 32.5v101q80 -24 149 -34t140 -10q150 0 218.5 53t68.5 149q0 84 -42.5 128t-142.5 65l-139 29q-147 33 -208.5 105.5t-61.5 184.5q0 132 100 218t308 86q67 0 127.5 -7.5t118.5 -23.5v-101q-66 18 -123.5 25.5t-121.5 7.5q-107 0 -171 -27
t-93 -72.5t-29 -101.5q0 -73 39.5 -120t139.5 -70l138 -28q152 -33 215 -103.5t63 -187.5q0 -142 -102.5 -225.5t-302.5 -83.5zM168 1258l221 358h114l221 -358h-103l-190 316h30l-190 -316h-103z" />
    <glyph glyph-name="Scedilla" unicode="&#x15e;" horiz-adv-x="1039" 
d="M451 -18q-83 0 -175 14.5t-177 43.5v107q62 -20 123 -33.5t119.5 -20t112.5 -6.5q193 0 288 75.5t95 222.5q0 124 -72.5 189t-241.5 110l-72 18q-187 48 -279.5 144t-92.5 253q0 185 127 292t377 107q82 0 164.5 -11t150.5 -33v-108q-77 24 -155.5 35.5t-158.5 11.5
q-130 0 -215 -33.5t-126 -98t-41 -155.5q0 -120 66 -186t227 -109l72 -18q135 -34 222 -87.5t129 -131t42 -183.5q0 -131 -59.5 -222.5t-173.5 -139t-276 -47.5zM536 -408q-48 0 -98 9.5t-93 27.5v70q55 -23 99.5 -32t87.5 -9q63 0 97.5 20.5t34.5 66.5q0 47 -35 68t-98 21
h-40v186h75v-159l-24 33q92 0 146.5 -38t54.5 -113q0 -74 -55.5 -112.5t-151.5 -38.5z" />
    <glyph glyph-name="scedilla" unicode="&#x15f;" horiz-adv-x="881" 
d="M402 -19q-78 0 -149 10.5t-139 32.5v101q80 -24 149 -34t140 -10q150 0 218.5 53t68.5 149q0 84 -42.5 128t-142.5 65l-139 29q-147 33 -208.5 105.5t-61.5 184.5q0 132 100 218t308 86q67 0 127.5 -7.5t118.5 -23.5v-101q-66 18 -123.5 25.5t-121.5 7.5q-107 0 -171 -27
t-93 -72.5t-29 -101.5q0 -73 39.5 -120t139.5 -70l138 -28q152 -33 215 -103.5t63 -187.5q0 -142 -102.5 -225.5t-302.5 -83.5zM452 -408q-43 0 -88.5 9t-78.5 26v70q44 -22 86 -30.5t80 -8.5q58 0 86.5 21.5t28.5 65.5q0 89 -117 89h-35v186h76v-159l-33 32q90 0 138 -39.5
t48 -111.5q0 -70 -49.5 -110t-141.5 -40z" />
    <glyph glyph-name="Scaron" unicode="&#x160;" horiz-adv-x="1039" 
d="M451 -18q-83 0 -175 14.5t-177 43.5v107q62 -20 123 -33.5t119.5 -20t112.5 -6.5q193 0 288 75.5t95 222.5q0 124 -72.5 189t-241.5 110l-72 18q-187 48 -279.5 144t-92.5 253q0 185 127 292t377 107q82 0 164.5 -11t150.5 -33v-108q-77 24 -155.5 35.5t-158.5 11.5
q-130 0 -215 -33.5t-126 -98t-41 -155.5q0 -120 66 -186t227 -109l72 -18q135 -34 222 -87.5t129 -131t42 -183.5q0 -131 -59.5 -222.5t-173.5 -139t-276 -47.5zM469 1612l-243 278h114l202 -238h-30l202 238h114l-243 -278h-116z" />
    <glyph glyph-name="scaron" unicode="&#x161;" horiz-adv-x="881" 
d="M402 -19q-78 0 -149 10.5t-139 32.5v101q80 -24 149 -34t140 -10q150 0 218.5 53t68.5 149q0 84 -42.5 128t-142.5 65l-139 29q-147 33 -208.5 105.5t-61.5 184.5q0 132 100 218t308 86q67 0 127.5 -7.5t118.5 -23.5v-101q-66 18 -123.5 25.5t-121.5 7.5q-107 0 -171 -27
t-93 -72.5t-29 -101.5q0 -73 39.5 -120t139.5 -70l138 -28q152 -33 215 -103.5t63 -187.5q0 -142 -102.5 -225.5t-302.5 -83.5zM389 1258l-224 358h103l193 -318h-30l193 318h103l-224 -358h-114z" />
    <glyph glyph-name="uni0162" unicode="&#x162;" horiz-adv-x="1147" 
d="M514 0v1373h-500v107h1119v-107h-500v-1373h-119zM583 -408q-48 0 -98 9.5t-93 27.5v70q55 -23 99.5 -32t87.5 -9q63 0 97.5 20.5t34.5 66.5q0 47 -35 68t-98 21h-40v186h75v-159l-24 33q92 0 146.5 -38t54.5 -113q0 -74 -55.5 -112.5t-151.5 -38.5z" />
    <glyph glyph-name="uni0163" unicode="&#x163;" horiz-adv-x="724" 
d="M555 -18q-158 0 -246.5 81.5t-88.5 262.5v757l19 397h100v-1134q0 -143 60 -201t177 -58q31 0 64 4.5t72 13.5v-105q-40 -9 -78.5 -13.5t-78.5 -4.5zM9 981v102h684v-102h-684zM473 -408q-43 0 -88.5 9t-78.5 26v70q44 -22 86 -30.5t80 -8.5q58 0 86.5 21.5t28.5 65.5
q0 89 -117 89h-35v186h76v-159l-33 32q90 0 138 -39.5t48 -111.5q0 -70 -49.5 -110t-141.5 -40z" />
    <glyph glyph-name="Tcaron" unicode="&#x164;" horiz-adv-x="1147" 
d="M514 0v1373h-500v107h1119v-107h-500v-1373h-119zM516 1612l-243 278h114l202 -238h-30l202 238h114l-243 -278h-116z" />
    <glyph glyph-name="tcaron" unicode="&#x165;" horiz-adv-x="724" 
d="M555 -18q-158 0 -246.5 81.5t-88.5 262.5v757l19 397h100v-1134q0 -143 60 -201t177 -58q31 0 64 4.5t72 13.5v-105q-40 -9 -78.5 -13.5t-78.5 -4.5zM9 981v102h684v-102h-684zM506 1180q13 107 16.5 223t3.5 213h94q0 -101 -9.5 -216.5t-33.5 -219.5h-71z" />
    <glyph glyph-name="Tbar" unicode="&#x166;" horiz-adv-x="1147" 
d="M183 741v90h781v-90h-781zM514 0v1373h-500v107h1119v-107h-500v-1373h-119z" />
    <glyph glyph-name="tbar" unicode="&#x167;" horiz-adv-x="724" 
d="M69 602v87h576v-87h-576zM555 -18q-158 0 -246.5 81.5t-88.5 262.5v757l19 397h100v-1134q0 -143 60 -201t177 -58q31 0 64 4.5t72 13.5v-105q-40 -9 -78.5 -13.5t-78.5 -4.5zM9 981v102h684v-102h-684z" />
    <glyph glyph-name="Utilde" unicode="&#x168;" horiz-adv-x="1397" 
d="M700 -18q-182 0 -299 60t-173.5 185t-56.5 319v934h120v-948q0 -230 98 -337t311 -107t311 107t98 337v948h117v-934q0 -194 -56 -319t-172.5 -185t-297.5 -60zM850 1681q-46 0 -86.5 13t-78.5 28q-34 14 -67.5 24.5t-68.5 10.5q-52 0 -90 -17.5t-74 -53.5v91
q29 31 70 47t95 16q46 0 87 -12.5t78 -28.5q34 -13 67.5 -24t68.5 -11q52 0 90.5 17.5t73.5 53.5v-91q-29 -30 -69.5 -46.5t-95.5 -16.5z" />
    <glyph glyph-name="utilde" unicode="&#x169;" horiz-adv-x="1104" 
d="M486 -18q-98 0 -175 35.5t-120.5 117t-43.5 218.5v730h118v-726q0 -150 67.5 -208.5t173.5 -58.5q53 0 111 16t112.5 51t96.5 92v834h119v-1083h-101l-9 121h-9q-69 -69 -157 -104t-183 -35zM685 1361q-42 0 -80.5 13.5t-73.5 29.5q-32 14 -63 25t-62 11q-47 0 -84.5 -18
t-73.5 -56v94q59 64 159 64q42 0 80.5 -13.5t73.5 -28.5q33 -14 63.5 -25.5t61.5 -11.5q48 0 85.5 18t72.5 56v-94q-59 -64 -159 -64z" />
    <glyph glyph-name="Umacron" unicode="&#x16a;" horiz-adv-x="1397" 
d="M700 -18q-182 0 -299 60t-173.5 185t-56.5 319v934h120v-948q0 -230 98 -337t311 -107t311 107t98 337v948h117v-934q0 -194 -56 -319t-172.5 -185t-297.5 -60zM410 1707v86h580v-86h-580z" />
    <glyph glyph-name="umacron" unicode="&#x16b;" horiz-adv-x="1104" 
d="M486 -18q-98 0 -175 35.5t-120.5 117t-43.5 218.5v730h118v-726q0 -150 67.5 -208.5t173.5 -58.5q53 0 111 16t112.5 51t96.5 92v834h119v-1083h-101l-9 121h-9q-69 -69 -157 -104t-183 -35zM248 1380v86h596v-86h-596z" />
    <glyph glyph-name="Ubreve" unicode="&#x16c;" horiz-adv-x="1397" 
d="M700 -18q-182 0 -299 60t-173.5 185t-56.5 319v934h120v-948q0 -230 98 -337t311 -107t311 107t98 337v948h117v-934q0 -194 -56 -319t-172.5 -185t-297.5 -60zM702 1622q-96 0 -161 30.5t-100.5 85t-42.5 128.5h85q12 -81 61.5 -123t157.5 -42t156.5 42t58.5 123h85
q-7 -75 -41.5 -129.5t-99 -84.5t-159.5 -30z" />
    <glyph glyph-name="ubreve" unicode="&#x16d;" horiz-adv-x="1104" 
d="M486 -18q-98 0 -175 35.5t-120.5 117t-43.5 218.5v730h118v-726q0 -150 67.5 -208.5t173.5 -58.5q53 0 111 16t112.5 51t96.5 92v834h119v-1083h-101l-9 121h-9q-69 -69 -157 -104t-183 -35zM548 1269q-130 0 -204 84t-81 236h86q8 -118 55.5 -180t143.5 -62t143 62
t52 180h86q-6 -153 -78.5 -236.5t-202.5 -83.5z" />
    <glyph glyph-name="Uring" unicode="&#x16e;" horiz-adv-x="1397" 
d="M700 -18q-182 0 -299 60t-173.5 185t-56.5 319v934h120v-948q0 -230 98 -337t311 -107t311 107t98 337v948h117v-934q0 -194 -56 -319t-172.5 -185t-297.5 -60zM700 1605q-82 0 -136 54t-54 135q0 83 54 136t136 53q83 0 136.5 -53t53.5 -136q0 -81 -53.5 -135
t-136.5 -54zM700 1669q54 0 88.5 34t34.5 91q0 59 -34.5 92t-88.5 33t-88.5 -33t-34.5 -92q0 -57 34.5 -91t88.5 -34z" />
    <glyph glyph-name="uring" unicode="&#x16f;" horiz-adv-x="1104" 
d="M486 -18q-98 0 -175 35.5t-120.5 117t-43.5 218.5v730h118v-726q0 -150 67.5 -208.5t173.5 -58.5q53 0 111 16t112.5 51t96.5 92v834h119v-1083h-101l-9 121h-9q-69 -69 -157 -104t-183 -35zM546 1253q-82 0 -136 54t-54 136t54 135.5t136 53.5q83 0 136.5 -53.5
t53.5 -135.5t-53.5 -136t-136.5 -54zM546 1318q54 0 88.5 33.5t34.5 91.5t-34.5 91.5t-88.5 33.5t-88.5 -33.5t-34.5 -91.5t34.5 -91.5t88.5 -33.5z" />
    <glyph glyph-name="Uhungarumlaut" unicode="&#x170;" horiz-adv-x="1397" 
d="M700 -18q-182 0 -299 60t-173.5 185t-56.5 319v934h120v-948q0 -230 98 -337t311 -107t311 107t98 337v948h117v-934q0 -194 -56 -319t-172.5 -185t-297.5 -60zM810 1612l126 278h105l-134 -278h-97zM493 1612l126 278h105l-134 -278h-97z" />
    <glyph glyph-name="uhungarumlaut" unicode="&#x171;" horiz-adv-x="1104" 
d="M486 -18q-98 0 -175 35.5t-120.5 117t-43.5 218.5v730h118v-726q0 -150 67.5 -208.5t173.5 -58.5q53 0 111 16t112.5 51t96.5 92v834h119v-1083h-101l-9 121h-9q-69 -69 -157 -104t-183 -35zM656 1258l137 358h103l-146 -358h-94zM342 1258l136 358h104l-146 -358h-94z
" />
    <glyph glyph-name="Uogonek" unicode="&#x172;" horiz-adv-x="1397" 
d="M792 -407q-110 0 -167 47t-57 133q0 66 40 126.5t136 105.5l1 -23h-45q-182 0 -299 60t-173.5 185t-56.5 319v934h120v-948q0 -230 98 -337t311 -107t311 107t98 337v948h117v-934q0 -219 -73.5 -354t-243.5 -185q-99 -29 -156 -66t-80 -78.5t-23 -83.5q0 -59 37 -88.5
t111 -29.5q38 0 76 9t88 29v-68q-41 -18 -83.5 -28t-86.5 -10z" />
    <glyph glyph-name="uogonek" unicode="&#x173;" horiz-adv-x="1104" 
d="M486 -18q-98 0 -175 35.5t-120.5 117t-43.5 218.5v730h118v-726q0 -150 67.5 -208.5t173.5 -58.5q53 0 111 16t112.5 51t96.5 92v834h119v-1083l-99 -3l-11 124h-9q-69 -69 -157 -104t-183 -35zM885 -408q-97 0 -150.5 47t-53.5 129q0 55 23 103.5t73 93t130 87.5l38 -52
q-66 -38 -106 -73.5t-58 -73t-18 -78.5q0 -55 34 -85.5t94 -30.5q37 0 74 10.5t74 31.5v-70q-33 -18 -73.5 -28.5t-80.5 -10.5z" />
    <glyph glyph-name="Wcircumflex" unicode="&#x174;" horiz-adv-x="2073" 
d="M486 0l-425 1480h125l399 -1419h-29l409 1419h147l408 -1419h-28l402 1419h117l-424 -1480h-159l-406 1402h31l-408 -1402h-159zM737 1612l243 278h116l243 -278h-114l-202 237h30l-202 -237h-114z" />
    <glyph glyph-name="wcircumflex" unicode="&#x175;" horiz-adv-x="1662" 
d="M388 0l-323 1083h119l290 -989h-16l302 989h146l302 -989h-17l291 989h115l-323 -1083h-146l-305 992h18l-307 -992h-146zM555 1258l221 358h114l221 -358h-103l-190 316h30l-190 -316h-103z" />
    <glyph glyph-name="Ycircumflex" unicode="&#x176;" horiz-adv-x="1147" 
d="M514 0v717l28 -92l-568 855h136l489 -739h-46l483 739h128l-558 -855l28 91v-716h-120zM273 1612l243 278h116l243 -278h-114l-202 237h30l-202 -237h-114z" />
    <glyph glyph-name="ycircumflex" unicode="&#x177;" horiz-adv-x="1029" 
d="M302 -440l171 440l35 80l380 1003h122l-588 -1523h-120zM437 0l-417 1083h128l405 -1083h-116zM238 1258l221 358h114l221 -358h-103l-190 316h30l-190 -316h-103z" />
    <glyph glyph-name="Ydieresis" unicode="&#x178;" horiz-adv-x="1147" 
d="M514 0v717l28 -92l-568 855h136l489 -739h-46l483 739h128l-558 -855l28 91v-716h-120zM801 1673q-38 0 -61 21.5t-23 57.5q0 37 23 58.5t61 21.5q39 0 62 -21.5t23 -58.5q0 -36 -23 -57.5t-62 -21.5zM347 1673q-39 0 -62 21.5t-23 57.5q0 37 23 58.5t62 21.5
q38 0 61 -21.5t23 -58.5q0 -36 -23 -57.5t-61 -21.5z" />
    <glyph glyph-name="Zacute" unicode="&#x179;" horiz-adv-x="1130" 
d="M62 0v68l856 1339l12 -32h-856v105h982v-68l-855 -1339l-12 32h879v-105h-1006zM511 1612l176 278h131l-198 -278h-109z" />
    <glyph glyph-name="zacute" unicode="&#x17a;" horiz-adv-x="895" 
d="M62 0v73l634 940v-32h-622v102h753v-73l-634 -940v32h646v-102h-777zM396 1258l212 358h130l-232 -358h-110z" />
    <glyph glyph-name="Zdotaccent" unicode="&#x17b;" horiz-adv-x="1130" 
d="M62 0v68l856 1339l12 -32h-856v105h982v-68l-855 -1339l-12 32h879v-105h-1006zM566 1673q-41 0 -65 21.5t-24 57.5q0 37 24 58.5t65 21.5t65 -21.5t24 -58.5q0 -36 -24 -57.5t-65 -21.5z" />
    <glyph glyph-name="zdotaccent" unicode="&#x17c;" horiz-adv-x="895" 
d="M62 0v73l634 940v-32h-622v102h753v-73l-634 -940v32h646v-102h-777zM451 1339q-42 0 -65.5 22t-23.5 60q0 40 23.5 62.5t65.5 22.5t65.5 -22.5t23.5 -62.5q0 -38 -23.5 -60t-65.5 -22z" />
    <glyph glyph-name="Zcaron" unicode="&#x17d;" horiz-adv-x="1130" 
d="M62 0v68l856 1339l12 -32h-856v105h982v-68l-855 -1339l-12 32h879v-105h-1006zM508 1612l-243 278h114l202 -238h-30l202 238h114l-243 -278h-116z" />
    <glyph glyph-name="zcaron" unicode="&#x17e;" horiz-adv-x="895" 
d="M62 0v73l634 940v-32h-622v102h753v-73l-634 -940v32h646v-102h-777zM394 1258l-224 358h103l193 -318h-30l193 318h103l-224 -358h-114z" />
    <glyph glyph-name="uni018F" unicode="&#x18f;" horiz-adv-x="1405" 
d="M702 -18q-182 0 -317 76t-209.5 241t-74.5 431v62h1114v-100h-1037l47 42q0 -241 57.5 -383t164.5 -203.5t256 -61.5q141 0 246.5 61t163.5 202.5t58 383.5q0 248 -69.5 392t-205.5 206t-334 62q-86 0 -187 -11t-196 -37v107q98 25 195 35.5t195 10.5q229 0 391 -76.5
t247.5 -244.5t85.5 -441q0 -269 -74 -435.5t-207 -242.5t-310 -76z" />
    <glyph glyph-name="florin" unicode="&#x192;" horiz-adv-x="694" 
d="M-21 -460q-33 0 -70.5 3t-74.5 9v104q41 -6 72.5 -9t66.5 -3q128 0 191.5 56t63.5 184v1399q0 117 42 195.5t123.5 118t202.5 39.5q34 0 71 -2.5t74 -9.5v-104q-40 6 -72 9t-67 3q-127 0 -191 -56t-64 -184v-1399q0 -117 -41.5 -195.5t-123.5 -118t-203 -39.5zM17 979
v104h684v-104h-684z" />
    <glyph glyph-name="Ohorn" unicode="&#x1a0;" horiz-adv-x="1407" 
d="M704 -18q-178 0 -311 77t-207.5 244t-74.5 437t74.5 437t208 244t310.5 77q56 0 103.5 -5.5t94.5 -11.5t103 -6q91 0 144 38.5t53 120.5q0 41 -6.5 74t-17.5 68h96q13 -35 19 -68.5t6 -77.5q0 -77 -34 -130t-96.5 -81t-149.5 -28l7 24q126 -78 198 -243.5t72 -431.5
q0 -272 -74 -439t-207.5 -243t-310.5 -76zM704 88q140 0 245 62t163.5 204t58.5 381q0 245 -58.5 388.5t-163.5 206t-245 62.5q-141 0 -246 -62t-163.5 -203.5t-58.5 -381.5q0 -245 58.5 -388.5t163.5 -206t246 -62.5z" />
    <glyph glyph-name="ohorn" unicode="&#x1a1;" horiz-adv-x="1087" 
d="M544 -19q-134 0 -233.5 57.5t-155 181t-55.5 321.5q0 197 55 320t155 180.5t235 57.5q54 0 99.5 -4.5t78.5 -4.5q90 0 142.5 39t52.5 126q0 40 -6 73t-17 68h93q13 -35 18.5 -68.5t5.5 -77.5q0 -79 -33 -133.5t-94 -82.5t-143 -28l31 39q214 -124 214 -504
q0 -197 -55 -320.5t-155 -181.5t-233 -58zM544 83q98 0 170 42.5t111.5 142.5t39.5 270q0 174 -39.5 274t-111.5 143t-170 43t-170.5 -42.5t-112 -142t-39.5 -269.5q0 -174 39.5 -274.5t111.5 -143.5t171 -43z" />
    <glyph glyph-name="Uhorn" unicode="&#x1af;" horiz-adv-x="1397" 
d="M700 -18q-182 0 -299 60t-173.5 185t-56.5 319v934h120v-948q0 -230 98 -337t311 -107t311 107t98 337v948h47q91 0 144 36t53 118q0 41 -6 74t-17 68h96q12 -35 18 -68.5t6 -77.5q0 -102 -60.5 -160t-163.5 -66v-858q0 -194 -56 -319t-172.5 -185t-297.5 -60z" />
    <glyph glyph-name="uhorn" unicode="&#x1b0;" horiz-adv-x="1127" 
d="M486 -18q-98 0 -175 35.5t-120.5 117t-43.5 218.5v730h118v-726q0 -150 67.5 -208.5t173.5 -58.5q53 0 111 16t112.5 51t96.5 92v834h52q89 0 142 39t53 126q0 40 -6.5 73t-17.5 68h94q12 -35 18 -68.5t6 -77.5q0 -79 -33.5 -133.5t-94 -82.5t-143.5 -28l49 50v-1049
h-101l-9 121h-9q-69 -69 -157 -104t-183 -35z" />
    <glyph glyph-name="uni01C4" unicode="&#x1c4;" horiz-adv-x="2456" 
d="M514 -11q-54 0 -106.5 2t-108 6.5t-120.5 12.5v1448q57 12 119 20t124.5 12t121.5 4q356 0 537.5 -185t181.5 -569q0 -260 -84 -426t-251 -245.5t-414 -79.5zM533 95q202 0 336.5 66t202 208.5t67.5 370.5q0 226 -65.5 369.5t-197.5 211.5t-332 68q-58 0 -119.5 -5.5
t-126.5 -15.5v-1259q55 -7 110.5 -10.5t124.5 -3.5zM1388 0v68l856 1339l12 -32h-856v105h982v-68l-855 -1339l-12 32h879v-105h-1006zM1833 1612l-243 278h114l202 -238h-30l202 238h114l-243 -278h-116z" />
    <glyph glyph-name="uni01C5" unicode="&#x1c5;" horiz-adv-x="2269" 
d="M514 -11q-54 0 -106.5 2t-108 6.5t-120.5 12.5v1448q57 12 119 20t124.5 12t121.5 4q356 0 537.5 -185t181.5 -569q0 -260 -84 -426t-251 -245.5t-414 -79.5zM533 95q202 0 336.5 66t202 208.5t67.5 370.5q0 226 -65.5 369.5t-197.5 211.5t-332 68q-58 0 -119.5 -5.5
t-126.5 -15.5v-1259q55 -7 110.5 -10.5t124.5 -3.5zM1437 0v73l634 940v-32h-622v102h753v-73l-634 -940v32h646v-102h-777zM1768 1292l-243 278h114l202 -238h-30l202 238h114l-243 -278h-116z" />
    <glyph glyph-name="uni01C6" unicode="&#x1c6;" horiz-adv-x="1998" 
d="M522 -18q-118 0 -213.5 52.5t-152 170.5t-56.5 314q0 197 61 325.5t180 191.5t294 63q49 0 98.5 -4.5t91.5 -11.5v533h118v-1616h-102l-8 118h-10q-49 -59 -126 -97.5t-175 -38.5zM543 87q79 0 155 36t127 114v740q-39 9 -91 15t-102 6q-203 0 -306.5 -109.5
t-103.5 -357.5q0 -172 41 -268.5t113.5 -136t166.5 -39.5zM1165 0v73l634 940v-32h-622v102h753v-73l-634 -940v32h646v-102h-777zM1497 1258l-224 358h103l193 -318h-30l193 318h103l-224 -358h-114z" />
    <glyph glyph-name="uni01C7" unicode="&#x1c7;" horiz-adv-x="1528" 
d="M179 0v1480h119v-1373h741v-107h-860zM1127 -342l-81 56q64 89 104.5 173.5t60 180.5t19.5 221v1191h119v-1218q0 -121 -23 -220t-72 -191.5t-127 -192.5z" />
    <glyph glyph-name="uni01C8" unicode="&#x1c8;" horiz-adv-x="1489" 
d="M179 0v1480h119v-1373h741v-107h-860zM1107 -462l-80 55q64 89 105 176.5t60 184t19 214.5v915h118v-907q0 -129 -23 -236t-72 -204.5t-127 -197.5zM1269 1344q-42 0 -65.5 22t-23.5 60q0 40 23.5 62.5t65.5 22.5t65.5 -22.5t23.5 -62.5q0 -38 -23.5 -60t-65.5 -22z" />
    <glyph glyph-name="uni01C9" unicode="&#x1c9;" horiz-adv-x="876" 
d="M160 0v1616h118v-1616h-118zM494 -462l-80 55q64 89 105 176.5t60 184t19 214.5v915h118v-907q0 -129 -23 -236t-72 -204.5t-127 -197.5zM656 1344q-42 0 -65.5 22t-23.5 60q0 40 23.5 62.5t65.5 22.5t65.5 -22.5t23.5 -62.5q0 -38 -23.5 -60t-65.5 -22z" />
    <glyph glyph-name="uni01CA" unicode="&#x1ca;" horiz-adv-x="1927" 
d="M179 0v1480h125l890 -1351h-36v1351h114v-1480h-126l-889 1351h36v-1351h-114zM1526 -342l-81 56q64 89 104.5 173.5t60 180.5t19.5 221v1191h119v-1218q0 -121 -23 -220t-72 -191.5t-127 -192.5z" />
    <glyph glyph-name="uni01CB" unicode="&#x1cb;" horiz-adv-x="1888" 
d="M179 0v1480h125l890 -1351h-36v1351h114v-1480h-126l-889 1351h36v-1351h-114zM1506 -462l-80 55q64 89 105 176.5t60 184t19 214.5v915h118v-907q0 -129 -23 -236t-72 -204.5t-127 -197.5zM1668 1344q-42 0 -65.5 22t-23.5 60q0 40 23.5 62.5t65.5 22.5t65.5 -22.5
t23.5 -62.5q0 -38 -23.5 -60t-65.5 -22z" />
    <glyph glyph-name="uni01CC" unicode="&#x1cc;" horiz-adv-x="1552" 
d="M160 0v1083h101l9 -126h9q68 69 157.5 105.5t188.5 36.5q100 0 177.5 -36t121 -117.5t43.5 -218.5v-727h-118v723q0 150 -66.5 209t-179.5 59q-52 0 -110.5 -15t-114.5 -50t-100 -94v-832h-118zM1170 -462l-80 55q64 89 105 176.5t60 184t19 214.5v915h118v-907
q0 -129 -23 -236t-72 -204.5t-127 -197.5zM1332 1344q-42 0 -65.5 22t-23.5 60q0 40 23.5 62.5t65.5 22.5t65.5 -22.5t23.5 -62.5q0 -38 -23.5 -60t-65.5 -22z" />
    <glyph glyph-name="Gcaron" unicode="&#x1e6;" horiz-adv-x="1326" 
d="M848 -11q-242 0 -405.5 77.5t-247.5 243t-84 428.5q0 272 86.5 439t243 244t365.5 77q85 0 166.5 -11t164.5 -34v-108q-93 26 -171.5 36t-154.5 10q-175 0 -303.5 -62.5t-199.5 -205.5t-71 -385q0 -230 67.5 -371.5t202.5 -206.5t336 -65q74 0 137 6t119 17l-45 -53v655
h115v-703q-93 -16 -167.5 -22t-153.5 -6zM670 1612l-243 278h114l202 -238h-30l202 238h114l-243 -278h-116z" />
    <glyph glyph-name="gcaron" unicode="&#x1e7;" horiz-adv-x="1103" 
d="M475 -460q-71 0 -154.5 12.5t-153.5 37.5v104q83 -27 158.5 -39.5t145.5 -12.5q180 0 267 79.5t87 277.5v115h-8q-49 -56 -126.5 -93t-178.5 -37q-112 0 -205.5 51.5t-150 169t-56.5 314.5q0 295 136 437.5t396 142.5q53 0 107.5 -5.5t106.5 -15.5t97 -25v-1038
q0 -255 -117.5 -365t-350.5 -110zM540 89q80 0 156.5 35t128.5 107v742q-39 11 -92 18t-110 7q-196 0 -298.5 -109.5t-102.5 -357.5q0 -172 42 -268t114 -135t162 -39zM513 1258l-224 358h103l193 -318h-30l193 318h103l-224 -358h-114z" />
    <glyph glyph-name="uni01EA" unicode="&#x1ea;" horiz-adv-x="1407" 
d="M813 -408q-109 0 -167.5 46.5t-58.5 129.5q0 69 40 129.5t139 109.5l-4 -25h-57q-179 0 -312.5 77t-207.5 244.5t-74 436.5q0 270 74.5 437t208 244t310.5 77q176 0 309.5 -76t208 -243t74.5 -439q0 -218 -48 -364.5t-132.5 -234t-193.5 -126.5q-97 -35 -152 -74.5
t-77 -81t-22 -84.5q0 -57 37 -86.5t111 -29.5q38 0 76 9t88 30v-69q-41 -18 -83.5 -27.5t-86.5 -9.5zM704 88q140 0 245 62t163.5 204t58.5 381q0 245 -58.5 388.5t-163.5 206t-245 62.5q-141 0 -246 -62t-163.5 -203.5t-58.5 -381.5q0 -245 58.5 -388.5t163.5 -206
t246 -62.5z" />
    <glyph glyph-name="uni01EB" unicode="&#x1eb;" horiz-adv-x="1087" 
d="M592 -408q-93 0 -148 48t-55 132q0 71 40.5 131.5t123.5 101.5l-7 -24q-135 0 -235 57.5t-155.5 181t-55.5 321.5q0 197 55 320t154.5 180.5t234.5 57.5q134 0 233.5 -57t154.5 -180t55 -321q0 -236 -77.5 -366t-215.5 -173q-84 -27 -133 -64t-70 -78t-21 -81
q0 -58 35 -89t93 -31q34 0 66.5 8t65.5 25l16 -63q-34 -18 -73.5 -27.5t-80.5 -9.5zM544 83q98 0 170 42.5t111.5 142.5t39.5 270q0 174 -39.5 274t-111.5 143t-170 43t-170.5 -42.5t-112 -142t-39.5 -269.5q0 -174 39.5 -274.5t111.5 -143.5t171 -43z" />
    <glyph glyph-name="uni01F1" unicode="&#x1f1;" horiz-adv-x="2456" 
d="M514 -11q-54 0 -106.5 2t-108 6.5t-120.5 12.5v1448q57 12 119 20t124.5 12t121.5 4q356 0 537.5 -185t181.5 -569q0 -260 -84 -426t-251 -245.5t-414 -79.5zM533 95q202 0 336.5 66t202 208.5t67.5 370.5q0 226 -65.5 369.5t-197.5 211.5t-332 68q-58 0 -119.5 -5.5
t-126.5 -15.5v-1259q55 -7 110.5 -10.5t124.5 -3.5zM1388 0v68l856 1339l12 -32h-856v105h982v-68l-855 -1339l-12 32h879v-105h-1006z" />
    <glyph glyph-name="uni01F2" unicode="&#x1f2;" horiz-adv-x="2269" 
d="M514 -11q-54 0 -106.5 2t-108 6.5t-120.5 12.5v1448q57 12 119 20t124.5 12t121.5 4q356 0 537.5 -185t181.5 -569q0 -260 -84 -426t-251 -245.5t-414 -79.5zM533 95q202 0 336.5 66t202 208.5t67.5 370.5q0 226 -65.5 369.5t-197.5 211.5t-332 68q-58 0 -119.5 -5.5
t-126.5 -15.5v-1259q55 -7 110.5 -10.5t124.5 -3.5zM1437 0v73l634 940v-32h-622v102h753v-73l-634 -940v32h646v-102h-777z" />
    <glyph glyph-name="uni01F3" unicode="&#x1f3;" horiz-adv-x="1998" 
d="M522 -18q-118 0 -213.5 52.5t-152 170.5t-56.5 314q0 197 61 325.5t180 191.5t294 63q49 0 98.5 -4.5t91.5 -11.5v533h118v-1616h-102l-8 118h-10q-49 -59 -126 -97.5t-175 -38.5zM543 87q79 0 155 36t127 114v740q-39 9 -91 15t-102 6q-203 0 -306.5 -109.5
t-103.5 -357.5q0 -172 41 -268.5t113.5 -136t166.5 -39.5zM1165 0v73l634 940v-32h-622v102h753v-73l-634 -940v32h646v-102h-777z" />
    <glyph glyph-name="uni01F4" unicode="&#x1f4;" horiz-adv-x="1326" 
d="M848 -11q-242 0 -405.5 77.5t-247.5 243t-84 428.5q0 272 86.5 439t243 244t365.5 77q85 0 166.5 -11t164.5 -34v-108q-93 26 -171.5 36t-154.5 10q-175 0 -303.5 -62.5t-199.5 -205.5t-71 -385q0 -230 67.5 -371.5t202.5 -206.5t336 -65q74 0 137 6t119 17l-45 -53v655
h115v-703q-93 -16 -167.5 -22t-153.5 -6zM673 1612l176 278h131l-198 -278h-109z" />
    <glyph glyph-name="uni01F5" unicode="&#x1f5;" horiz-adv-x="1103" 
d="M475 -460q-71 0 -154.5 12.5t-153.5 37.5v104q83 -27 158.5 -39.5t145.5 -12.5q180 0 267 79.5t87 277.5v115h-8q-49 -56 -126.5 -93t-178.5 -37q-112 0 -205.5 51.5t-150 169t-56.5 314.5q0 295 136 437.5t396 142.5q53 0 107.5 -5.5t106.5 -15.5t97 -25v-1038
q0 -255 -117.5 -365t-350.5 -110zM540 89q80 0 156.5 35t128.5 107v742q-39 11 -92 18t-110 7q-196 0 -298.5 -109.5t-102.5 -357.5q0 -172 42 -268t114 -135t162 -39zM515 1258l212 358h130l-232 -358h-110z" />
    <glyph glyph-name="Aringacute" unicode="&#x1fa;" horiz-adv-x="1321" 
d="M32 0l546 1480h164l546 -1480h-124l-518 1419h26l-518 -1419h-122zM297 501l30 105h667l29 -105h-726zM661 1606q-82 0 -136 54t-54 135q0 82 54 135.5t136 53.5q83 0 136.5 -53.5t53.5 -135.5q0 -81 -53.5 -135t-136.5 -54zM661 1670q54 0 88.5 34t34.5 91
q0 59 -34.5 92t-88.5 33t-88.5 -33t-34.5 -92q0 -57 34.5 -91t88.5 -34zM801 1899l-67 40l151 156h111z" />
    <glyph glyph-name="aringacute" unicode="&#x1fb;" horiz-adv-x="1007" 
d="M421 -17q-149 0 -235.5 76.5t-86.5 213.5q0 139 90.5 216.5t287.5 98.5l308 34l9 -88l-312 -35q-139 -15 -200 -68t-61 -147q0 -99 56.5 -151t167.5 -52q79 0 157.5 34.5t140.5 114.5v501q0 105 -33 163t-97 81t-158 23q-61 0 -138 -11.5t-154 -38.5v103q66 23 148 35.5
t155 12.5q128 0 216 -34t133 -115.5t45 -222.5v-727h-101l-9 124h-9q-54 -67 -138 -104t-182 -37zM499 1253q-81 0 -135.5 54t-54.5 136t54.5 135.5t135.5 53.5q83 0 137 -53.5t54 -135.5t-54 -136t-137 -54zM499 1318q54 0 88.5 33.5t34.5 91.5t-34.5 91.5t-88.5 33.5
q-53 0 -87.5 -33.5t-34.5 -91.5t34.5 -91.5t87.5 -33.5zM631 1548l-66 37l161 195h109z" />
    <glyph glyph-name="AEacute" unicode="&#x1fc;" horiz-adv-x="1805" 
d="M32 0l556 1480h303l-2 -105h-222l-512 -1375h-123zM302 501l30 105h609v-105h-639zM930 0l-97 1480h891v-105h-768l86 -1270h692v-105h-804zM955 708v105h673v-105h-673zM838 1612l176 278h131l-198 -278h-109z" />
    <glyph glyph-name="aeacute" unicode="&#x1fd;" horiz-adv-x="1640" 
d="M1226 -19q-157 0 -264.5 57t-162.5 181t-55 324l14 12q0 189 48.5 309.5t138 178t212.5 57.5q124 0 213 -58t137 -181.5t48 -319.5v-42h-728v90h644l-32 -30q0 167 -34.5 265t-98 140.5t-153.5 42.5t-155.5 -42.5t-101.5 -139.5t-36 -261v-38q0 -162 42.5 -259.5
t127 -140.5t208.5 -43q60 0 125.5 11.5t139.5 34.5v-103q-74 -23 -142.5 -34t-134.5 -11zM429 -17q-102 0 -175.5 34t-114 99t-40.5 157t40.5 163.5t130 112t236.5 40.5h273v-89h-271q-107 0 -169.5 -28t-90 -77.5t-27.5 -111.5q0 -99 57.5 -150.5t168.5 -51.5
q89 0 179 44.5t160 162.5l49 -80q-92 -131 -196 -178t-210 -47zM744 543v190q0 104 -33.5 161.5t-97.5 80.5t-158 23q-61 0 -137.5 -11.5t-154.5 -38.5v103q67 24 147.5 36t153.5 12q124 0 209 -34.5t129 -115t44 -218.5v-205zM748 1258l212 358h130l-232 -358h-110z" />
    <glyph glyph-name="Oslashacute" unicode="&#x1fe;" horiz-adv-x="1407" 
d="M213 0h-106l1084 1480h106zM704 -18q-178 0 -311.5 77t-207.5 244t-74 437t74.5 437t208 244t310.5 77t310.5 -77t207.5 -244.5t74 -436.5t-74.5 -436.5t-208 -244.5t-309.5 -77zM704 88q140 0 245 62t163.5 204t58.5 381q0 245 -58.5 388.5t-163.5 206t-245 62.5
q-141 0 -246 -62t-163.5 -203.5t-58.5 -381.5q0 -245 58.5 -388.5t163.5 -206t246 -62.5zM645 1612l176 278h131l-198 -278h-109z" />
    <glyph glyph-name="oslashacute" unicode="&#x1ff;" horiz-adv-x="1087" 
d="M882 946q50 -67 77.5 -167.5t27.5 -237.5q0 -197 -55 -320.5t-155 -181.5t-233 -58q-84 0 -154.5 23t-125.5 73l-57 -80h-101l99 140q-50 68 -77.5 168t-27.5 236q0 197 55 320t154.5 180.5t234.5 57.5q83 0 153.5 -22.5t124.5 -71.5l57 81h102zM544 999
q-99 0 -171.5 -42.5t-112.5 -142t-40 -270.5q0 -102 15.5 -178t44.5 -128l481 677q-41 45 -96 64.5t-121 19.5zM544 82q98 0 171 42.5t112.5 142.5t39.5 271q0 103 -15.5 179t-44.5 128l-481 -678q40 -45 95.5 -65t122.5 -20zM483 1258l212 358h130l-232 -358h-110z" />
    <glyph glyph-name="uni0200" unicode="&#x200;" horiz-adv-x="1321" 
d="M32 0l546 1480h164l546 -1480h-124l-518 1419h26l-518 -1419h-122zM297 501l30 105h667l29 -105h-726zM771 1612l-134 278h105l126 -278h-97zM454 1612l-134 278h105l126 -278h-97z" />
    <glyph glyph-name="uni0201" unicode="&#x201;" horiz-adv-x="1007" 
d="M421 -17q-149 0 -235.5 76.5t-86.5 213.5q0 139 90.5 216.5t287.5 98.5l308 34l9 -88l-312 -35q-139 -15 -200 -68t-61 -147q0 -99 56.5 -151t167.5 -52q79 0 157.5 34.5t140.5 114.5v501q0 105 -33 163t-97 81t-158 23q-61 0 -138 -11.5t-154 -38.5v103q66 23 148 35.5
t155 12.5q128 0 216 -34t133 -115.5t45 -222.5v-727h-101l-9 124h-9q-54 -67 -138 -104t-182 -37zM609 1258l-146 358h107l136 -358h-97zM292 1258l-146 358h107l136 -358h-97z" />
    <glyph glyph-name="uni0202" unicode="&#x202;" horiz-adv-x="1321" 
d="M32 0l546 1480h164l546 -1480h-124l-518 1419h26l-518 -1419h-122zM297 501l30 105h667l29 -105h-726zM359 1636q7 75 41.5 129.5t99 84.5t159.5 30q96 0 161 -30.5t100.5 -85t42.5 -128.5h-85q-11 81 -60.5 123t-158.5 42q-108 0 -156 -42t-59 -123h-85z" />
    <glyph glyph-name="uni0203" unicode="&#x203;" horiz-adv-x="1007" 
d="M421 -17q-149 0 -235.5 76.5t-86.5 213.5q0 139 90.5 216.5t287.5 98.5l308 34l9 -88l-312 -35q-139 -15 -200 -68t-61 -147q0 -99 56.5 -151t167.5 -52q79 0 157.5 34.5t140.5 114.5v501q0 105 -33 163t-97 81t-158 23q-61 0 -138 -11.5t-154 -38.5v103q66 23 148 35.5
t155 12.5q128 0 216 -34t133 -115.5t45 -222.5v-727h-101l-9 124h-9q-54 -67 -138 -104t-182 -37zM216 1286q7 155 79 237.5t202 82.5q131 0 205 -83.5t80 -236.5h-86q-7 119 -55.5 179.5t-143.5 60.5q-94 0 -141.5 -60.5t-53.5 -179.5h-86z" />
    <glyph glyph-name="uni0204" unicode="&#x204;" horiz-adv-x="1143" 
d="M179 0v1480h883v-105h-765v-1270h775v-105h-893zM257 708v105h708v-105h-708zM752 1612l-134 278h105l126 -278h-97zM435 1612l-134 278h105l126 -278h-97z" />
    <glyph glyph-name="uni0205" unicode="&#x205;" horiz-adv-x="1009" 
d="M592 -19q-160 0 -269.5 57t-166 180.5t-56.5 323.5q0 193 52 316.5t146.5 182t222.5 58.5q127 0 217.5 -58.5t138.5 -182.5t48 -318v-41h-762v90h677l-31 -25q0 163 -34.5 260t-99 139.5t-155.5 42.5t-158 -42.5t-103.5 -139t-36.5 -260.5v-38q0 -162 43 -259.5
t128 -140.5t211 -43q61 0 127 11.5t142 34.5v-103q-76 -23 -144.5 -34t-136.5 -11zM631 1258l-146 358h107l136 -358h-97zM314 1258l-146 358h107l136 -358h-97z" />
    <glyph glyph-name="uni0206" unicode="&#x206;" horiz-adv-x="1143" 
d="M179 0v1480h883v-105h-765v-1270h775v-105h-893zM257 708v105h708v-105h-708zM340 1636q7 75 41.5 129.5t99 84.5t159.5 30q96 0 161 -30.5t100.5 -85t42.5 -128.5h-85q-11 81 -60.5 123t-158.5 42q-108 0 -156 -42t-59 -123h-85z" />
    <glyph glyph-name="uni0207" unicode="&#x207;" horiz-adv-x="1009" 
d="M592 -19q-160 0 -269.5 57t-166 180.5t-56.5 323.5q0 193 52 316.5t146.5 182t222.5 58.5q127 0 217.5 -58.5t138.5 -182.5t48 -318v-41h-762v90h677l-31 -25q0 163 -34.5 260t-99 139.5t-155.5 42.5t-158 -42.5t-103.5 -139t-36.5 -260.5v-38q0 -162 43 -259.5
t128 -140.5t211 -43q61 0 127 11.5t142 34.5v-103q-76 -23 -144.5 -34t-136.5 -11zM238 1286q7 155 79 237.5t202 82.5q131 0 205 -83.5t80 -236.5h-86q-7 119 -55.5 179.5t-143.5 60.5q-94 0 -141.5 -60.5t-53.5 -179.5h-86z" />
    <glyph glyph-name="uni0208" unicode="&#x208;" horiz-adv-x="477" 
d="M179 0v1480h119v-1480h-119zM348 1612l-134 278h105l126 -278h-97zM31 1612l-134 278h105l126 -278h-97z" />
    <glyph glyph-name="uni0209" unicode="&#x209;" horiz-adv-x="438" 
d="M160 0v1083h118v-1083h-118zM329 1258l-146 358h107l136 -358h-97zM12 1258l-146 358h107l136 -358h-97z" />
    <glyph glyph-name="uni020A" unicode="&#x20a;" horiz-adv-x="477" 
d="M179 0v1480h119v-1480h-119zM-64 1636q7 75 41.5 129.5t99 84.5t159.5 30q96 0 161 -30.5t100.5 -85t42.5 -128.5h-85q-11 81 -60.5 123t-158.5 42q-108 0 -156 -42t-59 -123h-85z" />
    <glyph glyph-name="uni020B" unicode="&#x20b;" horiz-adv-x="438" 
d="M160 0v1083h118v-1083h-118zM-64 1286q7 155 79 237.5t202 82.5q131 0 205 -83.5t80 -236.5h-86q-7 119 -55.5 179.5t-143.5 60.5q-94 0 -141.5 -60.5t-53.5 -179.5h-86z" />
    <glyph glyph-name="uni020C" unicode="&#x20c;" horiz-adv-x="1407" 
d="M704 -18q-178 0 -311.5 77t-207.5 244t-74 437t74.5 437t208 244t310.5 77t310.5 -77t207.5 -244.5t74 -436.5t-74.5 -436.5t-208 -244.5t-309.5 -77zM704 88q140 0 245 62t163.5 204t58.5 381q0 245 -58.5 388.5t-163.5 206t-245 62.5q-141 0 -246 -62t-163.5 -203.5
t-58.5 -381.5q0 -245 58.5 -388.5t163.5 -206t246 -62.5zM814 1612l-134 278h105l126 -278h-97zM497 1612l-134 278h105l126 -278h-97z" />
    <glyph glyph-name="uni020D" unicode="&#x20d;" horiz-adv-x="1087" 
d="M544 -19q-134 0 -233.5 57.5t-155 181t-55.5 321.5q0 197 55 320t154.5 180.5t234.5 57.5q134 0 233.5 -57t154.5 -180t55 -321q0 -197 -55 -320.5t-155 -181.5t-233 -58zM544 83q98 0 170 42.5t111.5 142.5t39.5 270q0 174 -39.5 274t-111.5 143t-170 43t-170.5 -42.5
t-112 -142t-39.5 -269.5q0 -174 39.5 -274.5t111.5 -143.5t171 -43zM654 1258l-146 358h107l136 -358h-97zM337 1258l-146 358h107l136 -358h-97z" />
    <glyph glyph-name="uni020E" unicode="&#x20e;" horiz-adv-x="1407" 
d="M704 -18q-178 0 -311.5 77t-207.5 244t-74 437t74.5 437t208 244t310.5 77t310.5 -77t207.5 -244.5t74 -436.5t-74.5 -436.5t-208 -244.5t-309.5 -77zM704 88q140 0 245 62t163.5 204t58.5 381q0 245 -58.5 388.5t-163.5 206t-245 62.5q-141 0 -246 -62t-163.5 -203.5
t-58.5 -381.5q0 -245 58.5 -388.5t163.5 -206t246 -62.5zM402 1636q7 75 41.5 129.5t99 84.5t159.5 30q96 0 161 -30.5t100.5 -85t42.5 -128.5h-85q-11 81 -60.5 123t-158.5 42q-108 0 -156 -42t-59 -123h-85z" />
    <glyph glyph-name="uni020F" unicode="&#x20f;" horiz-adv-x="1087" 
d="M544 -19q-134 0 -233.5 57.5t-155 181t-55.5 321.5q0 197 55 320t154.5 180.5t234.5 57.5q134 0 233.5 -57t154.5 -180t55 -321q0 -197 -55 -320.5t-155 -181.5t-233 -58zM544 83q98 0 170 42.5t111.5 142.5t39.5 270q0 174 -39.5 274t-111.5 143t-170 43t-170.5 -42.5
t-112 -142t-39.5 -269.5q0 -174 39.5 -274.5t111.5 -143.5t171 -43zM261 1286q7 155 79 237.5t202 82.5q131 0 205 -83.5t80 -236.5h-86q-7 119 -55.5 179.5t-143.5 60.5q-94 0 -141.5 -60.5t-53.5 -179.5h-86z" />
    <glyph glyph-name="uni0210" unicode="&#x210;" horiz-adv-x="1288" 
d="M179 0v1458q53 10 111.5 18.5t124 13.5t140.5 5q286 0 424 -104t138 -325q0 -145 -67.5 -242t-201.5 -146t-333 -49q-66 0 -116 2.5t-102 6.5v-638h-118zM1088 0l-534 699h138l538 -699h-142zM514 730q258 0 372.5 82.5t114.5 251.5q0 118 -45.5 190.5t-143 106
t-253.5 33.5q-82 0 -141.5 -6t-120.5 -16v-632q41 -4 73.5 -6t66.5 -3t77 -1zM727 1612l-134 278h105l126 -278h-97zM410 1612l-134 278h105l126 -278h-97z" />
    <glyph glyph-name="uni0211" unicode="&#x211;" horiz-adv-x="701" 
d="M160 0v1083h100l10 -146h9q58 76 145 115.5t179 39.5q25 0 45 -1.5t40 -5.5v-112q-22 4 -43.5 4.5t-46.5 0.5q-55 0 -114.5 -17.5t-113.5 -55t-92 -93.5v-812h-118zM523 1258l-146 358h107l136 -358h-97zM206 1258l-146 358h107l136 -358h-97z" />
    <glyph glyph-name="uni0212" unicode="&#x212;" horiz-adv-x="1288" 
d="M179 0v1458q53 10 111.5 18.5t124 13.5t140.5 5q286 0 424 -104t138 -325q0 -145 -67.5 -242t-201.5 -146t-333 -49q-66 0 -116 2.5t-102 6.5v-638h-118zM1088 0l-534 699h138l538 -699h-142zM514 730q258 0 372.5 82.5t114.5 251.5q0 118 -45.5 190.5t-143 106
t-253.5 33.5q-82 0 -141.5 -6t-120.5 -16v-632q41 -4 73.5 -6t66.5 -3t77 -1zM315 1636q7 75 41.5 129.5t99 84.5t159.5 30q96 0 161 -30.5t100.5 -85t42.5 -128.5h-85q-11 81 -60.5 123t-158.5 42q-108 0 -156 -42t-59 -123h-85z" />
    <glyph glyph-name="uni0213" unicode="&#x213;" horiz-adv-x="701" 
d="M160 0v1083h100l10 -146h9q58 76 145 115.5t179 39.5q25 0 45 -1.5t40 -5.5v-112q-22 4 -43.5 4.5t-46.5 0.5q-55 0 -114.5 -17.5t-113.5 -55t-92 -93.5v-812h-118zM130 1286q7 155 79 237.5t202 82.5q131 0 205 -83.5t80 -236.5h-86q-7 119 -55.5 179.5t-143.5 60.5
q-94 0 -141.5 -60.5t-53.5 -179.5h-86z" />
    <glyph glyph-name="uni0214" unicode="&#x214;" horiz-adv-x="1397" 
d="M700 -18q-182 0 -299 60t-173.5 185t-56.5 319v934h120v-948q0 -230 98 -337t311 -107t311 107t98 337v948h117v-934q0 -194 -56 -319t-172.5 -185t-297.5 -60zM810 1612l-134 278h105l126 -278h-97zM493 1612l-134 278h105l126 -278h-97z" />
    <glyph glyph-name="uni0215" unicode="&#x215;" horiz-adv-x="1104" 
d="M486 -18q-98 0 -175 35.5t-120.5 117t-43.5 218.5v730h118v-726q0 -150 67.5 -208.5t173.5 -58.5q53 0 111 16t112.5 51t96.5 92v834h119v-1083h-101l-9 121h-9q-69 -69 -157 -104t-183 -35zM656 1258l-146 358h107l136 -358h-97zM339 1258l-146 358h107l136 -358h-97z
" />
    <glyph glyph-name="uni0216" unicode="&#x216;" horiz-adv-x="1397" 
d="M700 -18q-182 0 -299 60t-173.5 185t-56.5 319v934h120v-948q0 -230 98 -337t311 -107t311 107t98 337v948h117v-934q0 -194 -56 -319t-172.5 -185t-297.5 -60zM398 1636q7 75 41.5 129.5t99 84.5t159.5 30q96 0 161 -30.5t100.5 -85t42.5 -128.5h-85q-11 81 -60.5 123
t-158.5 42q-108 0 -156 -42t-59 -123h-85z" />
    <glyph glyph-name="uni0217" unicode="&#x217;" horiz-adv-x="1104" 
d="M486 -18q-98 0 -175 35.5t-120.5 117t-43.5 218.5v730h118v-726q0 -150 67.5 -208.5t173.5 -58.5q53 0 111 16t112.5 51t96.5 92v834h119v-1083h-101l-9 121h-9q-69 -69 -157 -104t-183 -35zM263 1286q7 155 79 237.5t202 82.5q131 0 205 -83.5t80 -236.5h-86
q-7 119 -55.5 179.5t-143.5 60.5q-94 0 -141.5 -60.5t-53.5 -179.5h-86z" />
    <glyph glyph-name="uni0218" unicode="&#x218;" horiz-adv-x="1039" 
d="M451 -18q-83 0 -175 14.5t-177 43.5v107q62 -20 123 -33.5t119.5 -20t112.5 -6.5q193 0 288 75.5t95 222.5q0 124 -72.5 189t-241.5 110l-72 18q-187 48 -279.5 144t-92.5 253q0 185 127 292t377 107q82 0 164.5 -11t150.5 -33v-108q-77 24 -155.5 35.5t-158.5 11.5
q-130 0 -215 -33.5t-126 -98t-41 -155.5q0 -120 66 -186t227 -109l72 -18q135 -34 222 -87.5t129 -131t42 -183.5q0 -131 -59.5 -222.5t-173.5 -139t-276 -47.5zM487 -458q24 57 31.5 98t7.5 80l15 -39h-14q-41 0 -63 20.5t-22 53.5q0 32 21.5 52t60.5 20q42 0 65 -24.5
t23 -73.5q0 -40 -12.5 -90t-37.5 -97h-75z" />
    <glyph glyph-name="uni0219" unicode="&#x219;" horiz-adv-x="881" 
d="M402 -19q-78 0 -149 10.5t-139 32.5v101q80 -24 149 -34t140 -10q150 0 218.5 53t68.5 149q0 84 -42.5 128t-142.5 65l-139 29q-147 33 -208.5 105.5t-61.5 184.5q0 132 100 218t308 86q67 0 127.5 -7.5t118.5 -23.5v-101q-66 18 -123.5 25.5t-121.5 7.5q-107 0 -171 -27
t-93 -72.5t-29 -101.5q0 -73 39.5 -120t139.5 -70l138 -28q152 -33 215 -103.5t63 -187.5q0 -142 -102.5 -225.5t-302.5 -83.5zM406 -458q24 57 31.5 98t7.5 80l15 -39h-14q-41 0 -63 20.5t-22 53.5q0 32 21.5 52t60.5 20q42 0 65 -24.5t23 -73.5q0 -40 -12.5 -90t-37.5 -97
h-75z" />
    <glyph glyph-name="uni021A" unicode="&#x21a;" horiz-adv-x="1147" 
d="M514 0v1373h-500v107h1119v-107h-500v-1373h-119zM534 -458q24 57 31.5 98t7.5 80l15 -39h-14q-41 0 -63 20.5t-22 53.5q0 32 21.5 52t60.5 20q42 0 65 -24.5t23 -73.5q0 -40 -12.5 -90t-37.5 -97h-75z" />
    <glyph glyph-name="uni021B" unicode="&#x21b;" horiz-adv-x="724" 
d="M555 -18q-158 0 -246.5 81.5t-88.5 262.5v757l19 397h100v-1134q0 -143 60 -201t177 -58q31 0 64 4.5t72 13.5v-105q-40 -9 -78.5 -13.5t-78.5 -4.5zM9 981v102h684v-102h-684zM427 -458q24 57 31.5 98t7.5 80l15 -39h-14q-41 0 -63 20.5t-22 53.5q0 32 21.5 52t60.5 20
q42 0 65 -24.5t23 -73.5q0 -40 -12.5 -90t-37.5 -97h-75z" />
    <glyph glyph-name="uni022A" unicode="&#x22a;" horiz-adv-x="1407" 
d="M704 -18q-178 0 -311.5 77t-207.5 244t-74 437t74.5 437t208 244t310.5 77t310.5 -77t207.5 -244.5t74 -436.5t-74.5 -436.5t-208 -244.5t-309.5 -77zM704 88q140 0 245 62t163.5 204t58.5 381q0 245 -58.5 388.5t-163.5 206t-245 62.5q-141 0 -246 -62t-163.5 -203.5
t-58.5 -381.5q0 -245 58.5 -388.5t163.5 -206t246 -62.5zM931 1673q-38 0 -61 21.5t-23 57.5q0 37 23 58.5t61 21.5q39 0 62 -21.5t23 -58.5q0 -36 -23 -57.5t-62 -21.5zM477 1673q-39 0 -62 21.5t-23 57.5q0 37 23 58.5t62 21.5q38 0 61 -21.5t23 -58.5q0 -36 -23 -57.5
t-61 -21.5zM414 1962v86h580v-86h-580z" />
    <glyph glyph-name="uni022B" unicode="&#x22b;" horiz-adv-x="1087" 
d="M544 -19q-134 0 -233.5 57.5t-155 181t-55.5 321.5q0 197 55 320t154.5 180.5t234.5 57.5q134 0 233.5 -57t154.5 -180t55 -321q0 -197 -55 -320.5t-155 -181.5t-233 -58zM544 83q98 0 170 42.5t111.5 142.5t39.5 270q0 174 -39.5 274t-111.5 143t-170 43t-170.5 -42.5
t-112 -142t-39.5 -269.5q0 -174 39.5 -274.5t111.5 -143.5t171 -43zM753 1339q-38 0 -61 22.5t-23 59.5q0 39 23 61.5t61 22.5t61 -22.5t23 -61.5q0 -37 -23 -59.5t-61 -22.5zM335 1339q-38 0 -61 22.5t-23 59.5q0 39 23 61.5t61 22.5t61 -22.5t23 -61.5q0 -37 -23 -59.5
t-61 -22.5zM246 1670v86h596v-86h-596z" />
    <glyph glyph-name="uni022C" unicode="&#x22c;" horiz-adv-x="1407" 
d="M704 -18q-178 0 -311.5 77t-207.5 244t-74 437t74.5 437t208 244t310.5 77t310.5 -77t207.5 -244.5t74 -436.5t-74.5 -436.5t-208 -244.5t-309.5 -77zM704 88q140 0 245 62t163.5 204t58.5 381q0 245 -58.5 388.5t-163.5 206t-245 62.5q-141 0 -246 -62t-163.5 -203.5
t-58.5 -381.5q0 -245 58.5 -388.5t163.5 -206t246 -62.5zM854 1681q-46 0 -86.5 13t-78.5 28q-34 14 -67.5 24.5t-68.5 10.5q-52 0 -90 -17.5t-74 -53.5v91q29 31 70 47t95 16q46 0 87 -12.5t78 -28.5q34 -13 67.5 -24t68.5 -11q52 0 90.5 17.5t73.5 53.5v-91
q-29 -30 -69.5 -46.5t-95.5 -16.5zM414 1959v86h580v-86h-580z" />
    <glyph glyph-name="uni022D" unicode="&#x22d;" horiz-adv-x="1087" 
d="M544 -19q-134 0 -233.5 57.5t-155 181t-55.5 321.5q0 197 55 320t154.5 180.5t234.5 57.5q134 0 233.5 -57t154.5 -180t55 -321q0 -197 -55 -320.5t-155 -181.5t-233 -58zM544 83q98 0 170 42.5t111.5 142.5t39.5 270q0 174 -39.5 274t-111.5 143t-170 43t-170.5 -42.5
t-112 -142t-39.5 -269.5q0 -174 39.5 -274.5t111.5 -143.5t171 -43zM683 1361q-42 0 -80.5 13.5t-73.5 29.5q-32 14 -63 25t-62 11q-47 0 -84.5 -18t-73.5 -56v94q59 64 159 64q42 0 80.5 -13.5t73.5 -28.5q33 -14 63.5 -25.5t61.5 -11.5q48 0 85.5 18t72.5 56v-94
q-59 -64 -159 -64zM246 1669v86h596v-86h-596z" />
    <glyph glyph-name="uni0230" unicode="&#x230;" horiz-adv-x="1407" 
d="M704 -18q-178 0 -311.5 77t-207.5 244t-74 437t74.5 437t208 244t310.5 77t310.5 -77t207.5 -244.5t74 -436.5t-74.5 -436.5t-208 -244.5t-309.5 -77zM704 88q140 0 245 62t163.5 204t58.5 381q0 245 -58.5 388.5t-163.5 206t-245 62.5q-141 0 -246 -62t-163.5 -203.5
t-58.5 -381.5q0 -245 58.5 -388.5t163.5 -206t246 -62.5zM704 1673q-41 0 -65 21.5t-24 57.5q0 37 24 58.5t65 21.5t65 -21.5t24 -58.5q0 -36 -24 -57.5t-65 -21.5zM414 1959v86h580v-86h-580z" />
    <glyph glyph-name="uni0231" unicode="&#x231;" horiz-adv-x="1087" 
d="M544 -19q-134 0 -233.5 57.5t-155 181t-55.5 321.5q0 197 55 320t154.5 180.5t234.5 57.5q134 0 233.5 -57t154.5 -180t55 -321q0 -197 -55 -320.5t-155 -181.5t-233 -58zM544 83q98 0 170 42.5t111.5 142.5t39.5 270q0 174 -39.5 274t-111.5 143t-170 43t-170.5 -42.5
t-112 -142t-39.5 -269.5q0 -174 39.5 -274.5t111.5 -143.5t171 -43zM544 1339q-42 0 -65.5 22t-23.5 60q0 40 23.5 62.5t65.5 22.5t65.5 -22.5t23.5 -62.5q0 -38 -23.5 -60t-65.5 -22zM246 1666v86h596v-86h-596z" />
    <glyph glyph-name="uni0232" unicode="&#x232;" horiz-adv-x="1147" 
d="M514 0v717l28 -92l-568 855h136l489 -739h-46l483 739h128l-558 -855l28 91v-716h-120zM284 1707v86h580v-86h-580z" />
    <glyph glyph-name="uni0233" unicode="&#x233;" horiz-adv-x="1029" 
d="M302 -440l171 440l35 80l380 1003h122l-588 -1523h-120zM437 0l-417 1083h128l405 -1083h-116zM218 1380v86h596v-86h-596z" />
    <glyph glyph-name="uni0237" unicode="&#x237;" horiz-adv-x="438" 
d="M56 -462l-80 55q64 89 105 176.5t60 184t19 214.5v915h118v-907q0 -129 -23 -236t-72 -204.5t-127 -197.5z" />
    <glyph glyph-name="uni0259" unicode="&#x259;" horiz-adv-x="1009" 
d="M417 1102q160 0 269.5 -57t166 -180.5t56.5 -323.5q0 -193 -52 -316.5t-146.5 -182t-222.5 -58.5q-127 0 -217.5 58.5t-138.5 182.5t-48 318v41h762v-90h-677l31 25q0 -163 34.5 -260t99 -139.5t155.5 -42.5t158 42.5t103.5 139t36.5 260.5v38q0 162 -43 259.5
t-128 140.5t-211 43q-61 0 -127 -11.5t-142 -34.5v103q76 23 144.5 34t136.5 11z" />
    <glyph glyph-name="uni02BB" unicode="&#x2bb;" horiz-adv-x="1028" 
d="M518 1339q-43 0 -66 25t-23 74q0 39 13 89.5t37 96.5h75q-23 -56 -31 -97.5t-8 -79.5l-15 38h14q41 0 63.5 -20t22.5 -54q0 -32 -21.5 -52t-60.5 -20z" />
    <glyph glyph-name="uni02BC" unicode="&#x2bc;" horiz-adv-x="1028" 
d="M559 1339q24 57 32 98t8 80l15 -39h-14q-41 0 -63.5 20.5t-22.5 53.5q0 32 22 52t60 20q43 0 66 -24.5t23 -73.5q0 -40 -12.5 -90t-38.5 -97h-75z" />
    <glyph glyph-name="uni02BE" unicode="&#x2be;" horiz-adv-x="1028" 
d="M514 1253v65q54 0 88.5 33.5t34.5 91.5t-34.5 91.5t-88.5 33.5v64q83 0 136.5 -53.5t53.5 -135.5t-53.5 -136t-136.5 -54z" />
    <glyph glyph-name="uni02BF" unicode="&#x2bf;" horiz-adv-x="1028" 
d="M514 1253q-82 0 -136 54t-54 136t54 135.5t136 53.5v-64q-54 0 -88.5 -33.5t-34.5 -91.5t34.5 -91.5t88.5 -33.5v-65z" />
    <glyph glyph-name="circumflex" unicode="&#x2c6;" horiz-adv-x="1028" 
d="M322 1258l221 358h114l221 -358h-103l-190 316h30l-190 -316h-103z" />
    <glyph glyph-name="caron" unicode="&#x2c7;" horiz-adv-x="1028" 
d="M543 1258l-224 358h103l193 -318h-30l193 318h103l-224 -358h-114z" />
    <glyph glyph-name="uni02C8" unicode="&#x2c8;" horiz-adv-x="1200" 
d="M562 1218v400h76v-400h-76z" />
    <glyph glyph-name="uni02C9" unicode="&#x2c9;" horiz-adv-x="1028" 
d="M217 1380v86h595v-86h-595z" />
    <glyph glyph-name="uni02CA" unicode="&#x2ca;" horiz-adv-x="1028" 
d="M458 1258l211 358h134l-232 -358h-113z" />
    <glyph glyph-name="uni02CB" unicode="&#x2cb;" horiz-adv-x="1028" 
d="M458 1258l-232 358h133l212 -358h-113z" />
    <glyph glyph-name="uni02CC" unicode="&#x2cc;" horiz-adv-x="1200" 
d="M562 -440v400h76v-400h-76z" />
    <glyph glyph-name="breve" unicode="&#x2d8;" horiz-adv-x="1028" 
d="M602 1269q-130 0 -204 84t-81 236h86q8 -118 55.5 -180t143.5 -62t143 62t52 180h86q-6 -153 -78.5 -236.5t-202.5 -83.5z" />
    <glyph glyph-name="dotaccent" unicode="&#x2d9;" horiz-adv-x="1028" 
d="M600 1339q-42 0 -65.5 22t-23.5 60q0 40 23.5 62.5t65.5 22.5t65.5 -22.5t23.5 -62.5q0 -38 -23.5 -60t-65.5 -22z" />
    <glyph glyph-name="ring" unicode="&#x2da;" horiz-adv-x="1028" 
d="M600 1253q-82 0 -136 54t-54 136t54 135.5t136 53.5q83 0 136.5 -53.5t53.5 -135.5t-53.5 -136t-136.5 -54zM600 1318q54 0 88.5 33.5t34.5 91.5t-34.5 91.5t-88.5 33.5t-88.5 -33.5t-34.5 -91.5t34.5 -91.5t88.5 -33.5z" />
    <glyph glyph-name="ogonek" unicode="&#x2db;" horiz-adv-x="1028" 
d="M540 -408q-97 0 -150.5 47t-53.5 129q0 55 23.5 103.5t73 93t129.5 87.5l38 -52q-66 -38 -106 -73.5t-58 -73t-18 -78.5q0 -55 34 -85.5t94 -30.5q37 0 74 10.5t74 31.5v-70q-33 -18 -73.5 -28.5t-80.5 -10.5z" />
    <glyph glyph-name="tilde" unicode="&#x2dc;" horiz-adv-x="1028" 
d="M739 1361q-42 0 -80.5 13.5t-73.5 29.5q-32 14 -63 25t-62 11q-47 0 -84.5 -18t-73.5 -56v94q59 64 159 64q42 0 80.5 -13.5t73.5 -28.5q33 -14 63.5 -25.5t61.5 -11.5q48 0 85.5 18t72.5 56v-94q-59 -64 -159 -64z" />
    <glyph glyph-name="hungarumlaut" unicode="&#x2dd;" horiz-adv-x="1028" 
d="M710 1258l137 358h103l-146 -358h-94zM396 1258l136 358h104l-146 -358h-94z" />
    <glyph glyph-name="gravecomb" unicode="&#x300;" 
d="M545 1258l-232 358h130l212 -358h-110z" />
    <glyph glyph-name="acutecomb" unicode="&#x301;" 
d="M545 1258l212 358h130l-232 -358h-110z" />
    <glyph glyph-name="uni0302" unicode="&#x302;" 
d="M322 1258l221 358h114l221 -358h-103l-190 316h30l-190 -316h-103z" />
    <glyph glyph-name="tildecomb" unicode="&#x303;" 
d="M739 1361q-42 0 -80.5 13.5t-73.5 29.5q-32 14 -63 25t-62 11q-47 0 -84.5 -18t-73.5 -56v94q59 64 159 64q42 0 80.5 -13.5t73.5 -28.5q33 -14 63.5 -25.5t61.5 -11.5q48 0 85.5 18t72.5 56v-94q-59 -64 -159 -64z" />
    <glyph glyph-name="uni0304" unicode="&#x304;" 
d="M302 1380v86h596v-86h-596z" />
    <glyph glyph-name="uni0306" unicode="&#x306;" 
d="M602 1269q-130 0 -204 84t-81 236h86q8 -118 55.5 -180t143.5 -62t143 62t52 180h86q-6 -153 -78.5 -236.5t-202.5 -83.5z" />
    <glyph glyph-name="uni0307" unicode="&#x307;" 
d="M600 1339q-42 0 -65.5 22t-23.5 60q0 40 23.5 62.5t65.5 22.5t65.5 -22.5t23.5 -62.5q0 -38 -23.5 -60t-65.5 -22z" />
    <glyph glyph-name="uni0308" unicode="&#x308;" 
d="M809 1339q-38 0 -61 22.5t-23 59.5q0 39 23 61.5t61 22.5t61 -22.5t23 -61.5q0 -37 -23 -59.5t-61 -22.5zM391 1339q-38 0 -61 22.5t-23 59.5q0 39 23 61.5t61 22.5t61 -22.5t23 -61.5q0 -37 -23 -59.5t-61 -22.5z" />
    <glyph glyph-name="hookabovecomb" unicode="&#x309;" 
d="M565 1258q1 54 25.5 85.5t55.5 51.5t54.5 40.5t23.5 51.5q0 37 -29 54t-93 17q-36 0 -78 -6t-77 -18v70q31 11 73.5 17.5t82.5 6.5q105 0 153.5 -36t48.5 -100q0 -49 -23.5 -76t-54 -46.5t-55 -44t-25.5 -67.5h-82z" />
    <glyph glyph-name="uni030A" unicode="&#x30a;" 
d="M600 1253q-82 0 -136 54t-54 136t54 135.5t136 53.5q83 0 136.5 -53.5t53.5 -135.5t-53.5 -136t-136.5 -54zM600 1318q54 0 88.5 33.5t34.5 91.5t-34.5 91.5t-88.5 33.5t-88.5 -33.5t-34.5 -91.5t34.5 -91.5t88.5 -33.5z" />
    <glyph glyph-name="uni030B" unicode="&#x30b;" 
d="M710 1258l137 358h103l-146 -358h-94zM396 1258l136 358h104l-146 -358h-94z" />
    <glyph glyph-name="uni030C" unicode="&#x30c;" 
d="M543 1258l-224 358h103l193 -318h-30l193 318h103l-224 -358h-114z" />
    <glyph glyph-name="uni030F" unicode="&#x30f;" 
d="M710 1258l-146 358h107l136 -358h-97zM393 1258l-146 358h107l136 -358h-97z" />
    <glyph glyph-name="uni0311" unicode="&#x311;" 
d="M317 1286q7 155 79 237.5t202 82.5q131 0 205 -83.5t80 -236.5h-86q-7 119 -55.5 179.5t-143.5 60.5q-94 0 -141.5 -60.5t-53.5 -179.5h-86z" />
    <glyph glyph-name="uni0312" unicode="&#x312;" 
d="M603 1339q-42 0 -65 25t-23 74q0 39 13 89.5t37 96.5h75q-23 -56 -31 -97.5t-8 -79.5l-15 38h14q41 0 63 -20t22 -54q0 -32 -21 -52t-61 -20z" />
    <glyph glyph-name="uni031B" unicode="&#x31b;" 
d="M572 1396v84h46q90 0 143 39t53 126q0 40 -6.5 73t-17.5 68h93q13 -35 19 -68.5t6 -77.5q0 -78 -33.5 -133t-94.5 -83t-143 -28h-65z" />
    <glyph glyph-name="dotbelowcomb" unicode="&#x323;" 
d="M600 -337q-38 0 -61 22t-23 59q0 38 23 60.5t61 22.5t61 -22.5t23 -60.5q0 -37 -23 -59t-61 -22z" />
    <glyph glyph-name="uni0324" unicode="&#x324;" 
d="M809 -338q-38 0 -61 22t-23 60t23 60.5t61 22.5t61 -22.5t23 -60.5t-23 -60t-61 -22zM391 -338q-38 0 -61 22t-23 60t23 60.5t61 22.5t61 -22.5t23 -60.5t-23 -60t-61 -22z" />
    <glyph glyph-name="uni0326" unicode="&#x326;" 
d="M560 -458q24 57 31.5 98t7.5 80l15 -39h-14q-41 0 -63 20.5t-22 53.5q0 32 21.5 52t60.5 20q42 0 65 -24.5t23 -73.5q0 -40 -12.5 -90t-37.5 -97h-75z" />
    <glyph glyph-name="uni0327" unicode="&#x327;" 
d="M606 -408q-43 0 -88.5 9t-78.5 26v70q44 -22 86 -30.5t80 -8.5q58 0 86.5 21.5t28.5 65.5q0 89 -117 89h-35v186h76v-159l-33 32q90 0 138 -39.5t48 -111.5q0 -70 -49.5 -110t-141.5 -40z" />
    <glyph glyph-name="uni0328" unicode="&#x328;" 
d="M540 -408q-97 0 -150.5 47t-53.5 129q0 55 23.5 103.5t73 93t129.5 87.5l38 -52q-66 -38 -106 -73.5t-58 -73t-18 -78.5q0 -55 34 -85.5t94 -30.5q37 0 74 10.5t74 31.5v-70q-33 -18 -73.5 -28.5t-80.5 -10.5z" />
    <glyph glyph-name="uni032E" unicode="&#x32e;" 
d="M602 -411q-134 0 -208 69t-77 185h86q5 -84 53 -129.5t146 -45.5q97 0 145 45.5t50 129.5h86q-2 -116 -74.5 -185t-206.5 -69z" />
    <glyph glyph-name="uni0331" unicode="&#x331;" 
d="M331 -298v85h538v-85h-538z" />
    <glyph glyph-name="uni0394" unicode="&#x394;" horiz-adv-x="1321" 
d="M32 0l546 1480h164l546 -1480h-1256zM173 54l-20 51h1013l-20 -51l-499 1363h24z" />
    <glyph glyph-name="uni03A9" unicode="&#x3a9;" horiz-adv-x="1407" 
d="M111 0v104h385l-2 -35q-125 77 -210.5 183t-129 241.5t-43.5 299.5q0 234 71 391t203.5 235.5t317.5 78.5q186 0 318.5 -78.5t203.5 -235.5t71 -391q0 -164 -43.5 -299.5t-129 -241.5t-210.5 -183l-2 35h385v-104h-488v92q124 84 204.5 185t119.5 227t39 284
q0 208 -55 341.5t-159.5 198t-253.5 64.5q-148 0 -252.5 -64.5t-159.5 -198t-55 -341.5q0 -158 39 -284t119.5 -227t204.5 -185v-92h-488z" />
    <glyph glyph-name="uni03BC" unicode="&#x3bc;" horiz-adv-x="1104" 
d="M500 -18q-94 0 -162.5 35.5t-105.5 117t-37 218.5v150h70v-146q0 -150 67.5 -208.5t173.5 -58.5q53 0 111 16t112.5 51t96.5 92v834h119v-1083h-101l-9 121h-9q-66 -69 -151 -104t-175 -35zM147 -440v1523h118v-1523h-118z" />
    <glyph glyph-name="pi" unicode="&#x3c0;" horiz-adv-x="1286" 
d="M1139 -18q-137 0 -215 73.5t-79 243.5l-1 727h120v-708q0 -130 48.5 -180.5t147.5 -50.5q27 0 55.5 4.5t58.5 10.5v-105q-29 -6 -65.5 -10.5t-69.5 -4.5zM220 -2v1029h119v-1029h-119zM9 981v102h1166v-102h-1166z" />
    <glyph glyph-name="uni1E08" unicode="&#x1e08;" horiz-adv-x="1128" 
d="M754 -18q-145 0 -263 39.5t-203 128t-131 233t-46 355.5q0 271 79.5 438.5t227 244.5t352.5 77q86 0 164.5 -11t155.5 -33v-109q-80 25 -158.5 35.5t-159.5 10.5q-171 0 -290.5 -62.5t-182 -205t-62.5 -381.5q0 -249 64 -391.5t181.5 -202t278.5 -59.5q83 0 161 13
t168 44v-108q-75 -27 -158.5 -41.5t-177.5 -14.5zM711 -408q-48 0 -98 9.5t-93 27.5v70q55 -23 99.5 -32t87.5 -9q63 0 97.5 20.5t34.5 66.5q0 47 -35 68t-98 21h-40v186h75v-159l-24 33q92 0 146.5 -38t54.5 -113q0 -74 -55.5 -112.5t-151.5 -38.5zM635 1612l176 278h131
l-198 -278h-109z" />
    <glyph glyph-name="uni1E09" unicode="&#x1e09;" horiz-adv-x="853" 
d="M558 -19q-146 0 -248.5 58t-156 181t-53.5 321t58 321t169.5 180t273.5 57q54 0 110 -7t106 -21v-105q-53 15 -105 22t-101 7q-130 0 -216 -43.5t-128.5 -142t-42.5 -264.5q0 -169 39.5 -270t117.5 -145t193 -44q52 0 111.5 11t131.5 35v-105q-64 -23 -129 -34.5
t-130 -11.5zM514 -408q-43 0 -88.5 9t-78.5 26v70q44 -22 86 -30.5t80 -8.5q58 0 86.5 21.5t28.5 65.5q0 89 -117 89h-35v186h76v-159l-33 32q90 0 138 -39.5t48 -111.5q0 -70 -49.5 -110t-141.5 -40zM452 1258l212 358h130l-232 -358h-110z" />
    <glyph glyph-name="uni1E0C" unicode="&#x1e0c;" horiz-adv-x="1375" 
d="M514 -11q-54 0 -106.5 2t-108 6.5t-120.5 12.5v1448q57 12 119 20t124.5 12t121.5 4q356 0 537.5 -185t181.5 -569q0 -260 -84 -426t-251 -245.5t-414 -79.5zM533 95q202 0 336.5 66t202 208.5t67.5 370.5q0 226 -65.5 369.5t-197.5 211.5t-332 68q-58 0 -119.5 -5.5
t-126.5 -15.5v-1259q55 -7 110.5 -10.5t124.5 -3.5zM626 -332q-41 0 -65 21.5t-24 57.5q0 37 24 58.5t65 21.5t65 -21.5t24 -58.5q0 -36 -24 -57.5t-65 -21.5z" />
    <glyph glyph-name="uni1E0D" unicode="&#x1e0d;" horiz-adv-x="1103" 
d="M522 -18q-118 0 -213.5 52.5t-152 170.5t-56.5 314q0 197 61 325.5t180 191.5t294 63q49 0 98.5 -4.5t91.5 -11.5v533h118v-1616h-102l-8 118h-10q-49 -59 -126 -97.5t-175 -38.5zM543 87q79 0 155 36t127 114v740q-39 9 -91 15t-102 6q-203 0 -306.5 -109.5
t-103.5 -357.5q0 -172 41 -268.5t113.5 -136t166.5 -39.5zM551 -337q-38 0 -61 22t-23 59q0 38 23 60.5t61 22.5t61 -22.5t23 -60.5q0 -37 -23 -59t-61 -22z" />
    <glyph glyph-name="uni1E0E" unicode="&#x1e0e;" horiz-adv-x="1375" 
d="M514 -11q-54 0 -106.5 2t-108 6.5t-120.5 12.5v1448q57 12 119 20t124.5 12t121.5 4q356 0 537.5 -185t181.5 -569q0 -260 -84 -426t-251 -245.5t-414 -79.5zM533 95q202 0 336.5 66t202 208.5t67.5 370.5q0 226 -65.5 369.5t-197.5 211.5t-332 68q-58 0 -119.5 -5.5
t-126.5 -15.5v-1259q55 -7 110.5 -10.5t124.5 -3.5zM336 -295v86h580v-86h-580z" />
    <glyph glyph-name="uni1E0F" unicode="&#x1e0f;" horiz-adv-x="1103" 
d="M522 -18q-118 0 -213.5 52.5t-152 170.5t-56.5 314q0 197 61 325.5t180 191.5t294 63q49 0 98.5 -4.5t91.5 -11.5v533h118v-1616h-102l-8 118h-10q-49 -59 -126 -97.5t-175 -38.5zM543 87q79 0 155 36t127 114v740q-39 9 -91 15t-102 6q-203 0 -306.5 -109.5
t-103.5 -357.5q0 -172 41 -268.5t113.5 -136t166.5 -39.5zM282 -298v85h538v-85h-538z" />
    <glyph glyph-name="uni1E14" unicode="&#x1e14;" horiz-adv-x="1143" 
d="M179 0v1480h883v-105h-765v-1270h775v-105h-893zM257 708v105h708v-105h-708zM585 1898l-198 232h138l176 -232h-116zM352 1707v86h580v-86h-580z" />
    <glyph glyph-name="uni1E15" unicode="&#x1e15;" horiz-adv-x="1009" 
d="M592 -19q-160 0 -269.5 57t-166 180.5t-56.5 323.5q0 193 52 316.5t146.5 182t222.5 58.5q127 0 217.5 -58.5t138.5 -182.5t48 -318v-41h-762v90h677l-31 -25q0 163 -34.5 260t-99 139.5t-155.5 42.5t-158 -42.5t-103.5 -139t-36.5 -260.5v-38q0 -162 43 -259.5
t128 -140.5t211 -43q61 0 127 11.5t142 34.5v-103q-76 -23 -144.5 -34t-136.5 -11zM223 1380v86h596v-86h-596zM467 1608l-198 278h130l176 -278h-108z" />
    <glyph glyph-name="uni1E16" unicode="&#x1e16;" horiz-adv-x="1143" 
d="M179 0v1480h883v-105h-765v-1270h775v-105h-893zM257 708v105h708v-105h-708zM583 1898l175 232h138l-197 -232h-116zM352 1707v86h580v-86h-580z" />
    <glyph glyph-name="uni1E17" unicode="&#x1e17;" horiz-adv-x="1009" 
d="M592 -19q-160 0 -269.5 57t-166 180.5t-56.5 323.5q0 193 52 316.5t146.5 182t222.5 58.5q127 0 217.5 -58.5t138.5 -182.5t48 -318v-41h-762v90h677l-31 -25q0 163 -34.5 260t-99 139.5t-155.5 42.5t-158 -42.5t-103.5 -139t-36.5 -260.5v-38q0 -162 43 -259.5
t128 -140.5t211 -43q61 0 127 11.5t142 34.5v-103q-76 -23 -144.5 -34t-136.5 -11zM223 1380v86h596v-86h-596zM466 1608l176 278h131l-198 -278h-109z" />
    <glyph glyph-name="uni1E1C" unicode="&#x1e1c;" horiz-adv-x="1143" 
d="M179 0v1480h883v-105h-765v-1270h775v-105h-893zM257 708v105h708v-105h-708zM653 -408q-48 0 -98 9.5t-93 27.5v70q55 -23 99.5 -32t87.5 -9q63 0 97.5 20.5t34.5 66.5q0 47 -35 68t-98 21h-40v186h75v-159l-24 33q92 0 146.5 -38t54.5 -113q0 -74 -55.5 -112.5
t-151.5 -38.5zM644 1622q-96 0 -161 30.5t-100.5 85t-42.5 128.5h85q12 -81 61.5 -123t157.5 -42t156.5 42t58.5 123h85q-7 -75 -41.5 -129.5t-99 -84.5t-159.5 -30z" />
    <glyph glyph-name="uni1E1D" unicode="&#x1e1d;" horiz-adv-x="1009" 
d="M592 -19q-160 0 -269.5 57t-166 180.5t-56.5 323.5q0 193 52 316.5t146.5 182t222.5 58.5q127 0 217.5 -58.5t138.5 -182.5t48 -318v-41h-762v90h677l-31 -25q0 163 -34.5 260t-99 139.5t-155.5 42.5t-158 -42.5t-103.5 -139t-36.5 -260.5v-38q0 -162 43 -259.5
t128 -140.5t211 -43q61 0 127 11.5t142 34.5v-103q-76 -23 -144.5 -34t-136.5 -11zM527 -408q-43 0 -88.5 9t-78.5 26v70q44 -22 86 -30.5t80 -8.5q58 0 86.5 21.5t28.5 65.5q0 89 -117 89h-35v186h76v-159l-33 32q90 0 138 -39.5t48 -111.5q0 -70 -49.5 -110t-141.5 -40z
M523 1269q-130 0 -204 84t-81 236h86q8 -118 55.5 -180t143.5 -62t143 62t52 180h86q-6 -153 -78.5 -236.5t-202.5 -83.5z" />
    <glyph glyph-name="uni1E20" unicode="&#x1e20;" horiz-adv-x="1326" 
d="M848 -11q-242 0 -405.5 77.5t-247.5 243t-84 428.5q0 272 86.5 439t243 244t365.5 77q85 0 166.5 -11t164.5 -34v-108q-93 26 -171.5 36t-154.5 10q-175 0 -303.5 -62.5t-199.5 -205.5t-71 -385q0 -230 67.5 -371.5t202.5 -206.5t336 -65q74 0 137 6t119 17l-45 -53v655
h115v-703q-93 -16 -167.5 -22t-153.5 -6zM438 1707v86h580v-86h-580z" />
    <glyph glyph-name="uni1E21" unicode="&#x1e21;" horiz-adv-x="1103" 
d="M475 -460q-71 0 -154.5 12.5t-153.5 37.5v104q83 -27 158.5 -39.5t145.5 -12.5q180 0 267 79.5t87 277.5v115h-8q-49 -56 -126.5 -93t-178.5 -37q-112 0 -205.5 51.5t-150 169t-56.5 314.5q0 295 136 437.5t396 142.5q53 0 107.5 -5.5t106.5 -15.5t97 -25v-1038
q0 -255 -117.5 -365t-350.5 -110zM540 89q80 0 156.5 35t128.5 107v742q-39 11 -92 18t-110 7q-196 0 -298.5 -109.5t-102.5 -357.5q0 -172 42 -268t114 -135t162 -39zM272 1380v86h596v-86h-596z" />
    <glyph glyph-name="uni1E24" unicode="&#x1e24;" horiz-adv-x="1424" 
d="M179 0v1480h119v-665h827v665h120v-1480h-120v705h-827v-705h-119zM712 -332q-41 0 -65 21.5t-24 57.5q0 37 24 58.5t65 21.5t65 -21.5t24 -58.5q0 -36 -24 -57.5t-65 -21.5z" />
    <glyph glyph-name="uni1E25" unicode="&#x1e25;" horiz-adv-x="1114" 
d="M160 0v1616h118v-657h8q68 70 156.5 105t186.5 35t175 -35.5t120 -117t43 -218.5v-728h-118v724q0 150 -67.5 207.5t-178.5 57.5q-54 0 -113 -15.5t-114 -50.5t-98 -92v-831h-118zM564 -337q-38 0 -61 22t-23 59q0 38 23 60.5t61 22.5t61 -22.5t23 -60.5q0 -37 -23 -59
t-61 -22z" />
    <glyph glyph-name="uni1E2A" unicode="&#x1e2a;" horiz-adv-x="1424" 
d="M179 0v1480h119v-665h827v665h120v-1480h-120v705h-827v-705h-119zM714 -407q-99 0 -165.5 31t-101.5 87.5t-37 132.5h85q6 -83 57 -128t162 -45t161 45t54 128h85q-2 -77 -36 -133t-100 -87t-164 -31z" />
    <glyph glyph-name="uni1E2B" unicode="&#x1e2b;" horiz-adv-x="1114" 
d="M160 0v1616h118v-657h8q68 70 156.5 105t186.5 35t175 -35.5t120 -117t43 -218.5v-728h-118v724q0 150 -67.5 207.5t-178.5 57.5q-54 0 -113 -15.5t-114 -50.5t-98 -92v-831h-118zM566 -411q-134 0 -208 69t-77 185h86q5 -84 53 -129.5t146 -45.5q97 0 145 45.5t50 129.5
h86q-2 -116 -74.5 -185t-206.5 -69z" />
    <glyph glyph-name="uni1E2E" unicode="&#x1e2e;" horiz-adv-x="477" 
d="M179 0v1480h119v-1480h-119zM179 1898l175 232h138l-197 -232h-116zM465 1673q-38 0 -61 21.5t-23 57.5q0 37 23 58.5t61 21.5q39 0 62 -21.5t23 -58.5q0 -36 -23 -57.5t-62 -21.5zM11 1673q-39 0 -62 21.5t-23 57.5q0 37 23 58.5t62 21.5q38 0 61 -21.5t23 -58.5
q0 -36 -23 -57.5t-61 -21.5z" />
    <glyph glyph-name="uni1E2F" unicode="&#x1e2f;" horiz-adv-x="438" 
d="M160 0v1083h118v-1083h-118zM428 1339q-38 0 -61 22.5t-23 59.5q0 39 23 61.5t61 22.5t61 -22.5t23 -61.5q0 -37 -23 -59.5t-61 -22.5zM10 1339q-38 0 -61 22.5t-23 59.5q0 39 23 61.5t61 22.5t61 -22.5t23 -61.5q0 -37 -23 -59.5t-61 -22.5zM164 1661l176 278h131
l-198 -278h-109z" />
    <glyph glyph-name="uni1E36" unicode="&#x1e36;" horiz-adv-x="1051" 
d="M179 0v1480h119v-1373h741v-107h-860zM610 -332q-41 0 -65 21.5t-24 57.5q0 37 24 58.5t65 21.5t65 -21.5t24 -58.5q0 -36 -24 -57.5t-65 -21.5z" />
    <glyph glyph-name="uni1E37" unicode="&#x1e37;" horiz-adv-x="438" 
d="M160 0v1616h118v-1616h-118zM219 -337q-38 0 -61 22t-23 59q0 38 23 60.5t61 22.5t61 -22.5t23 -60.5q0 -37 -23 -59t-61 -22z" />
    <glyph glyph-name="uni1E3A" unicode="&#x1e3a;" horiz-adv-x="1051" 
d="M179 0v1480h119v-1373h741v-107h-860zM320 -295v86h580v-86h-580z" />
    <glyph glyph-name="uni1E3B" unicode="&#x1e3b;" horiz-adv-x="438" 
d="M160 0v1616h118v-1616h-118zM-50 -298v85h538v-85h-538z" />
    <glyph glyph-name="uni1E42" unicode="&#x1e42;" horiz-adv-x="1729" 
d="M183 0v1480h139l562 -1194h-33l556 1194h140v-1480h-114v1376h42l-553 -1173h-115l-557 1173h46v-1376h-113zM869 -332q-41 0 -65 21.5t-24 57.5q0 37 24 58.5t65 21.5t65 -21.5t24 -58.5q0 -36 -24 -57.5t-65 -21.5z" />
    <glyph glyph-name="uni1E43" unicode="&#x1e43;" horiz-adv-x="1667" 
d="M160 0v1083h101l9 -126h9q64 71 145 106.5t171 35.5q89 0 158 -35.5t109 -116.5t40 -218v-729h-118v723q0 151 -59.5 209.5t-156.5 58.5q-48 0 -100.5 -16.5t-102 -52.5t-87.5 -95v-827h-118zM1401 0v723q0 151 -62 209.5t-159 58.5q-49 0 -105 -17t-109 -59t-92 -114
l-34 109q81 106 177.5 147.5t184.5 41.5q92 0 163.5 -35.5t113 -117t41.5 -219.5v-727h-119zM843 -337q-38 0 -61 22t-23 59q0 38 23 60.5t61 22.5t61 -22.5t23 -60.5q0 -37 -23 -59t-61 -22z" />
    <glyph glyph-name="uni1E44" unicode="&#x1e44;" horiz-adv-x="1450" 
d="M179 0v1480h125l890 -1351h-36v1351h114v-1480h-126l-889 1351h36v-1351h-114zM726 1673q-41 0 -65 21.5t-24 57.5q0 37 24 58.5t65 21.5t65 -21.5t24 -58.5q0 -36 -24 -57.5t-65 -21.5z" />
    <glyph glyph-name="uni1E45" unicode="&#x1e45;" horiz-adv-x="1114" 
d="M160 0v1083h101l9 -126h9q68 69 157.5 105.5t188.5 36.5q100 0 177.5 -36t121 -117.5t43.5 -218.5v-727h-118v723q0 150 -66.5 209t-179.5 59q-52 0 -110.5 -15t-114.5 -50t-100 -94v-832h-118zM564 1339q-42 0 -65.5 22t-23.5 60q0 40 23.5 62.5t65.5 22.5t65.5 -22.5
t23.5 -62.5q0 -38 -23.5 -60t-65.5 -22z" />
    <glyph glyph-name="uni1E46" unicode="&#x1e46;" horiz-adv-x="1450" 
d="M179 0v1480h125l890 -1351h-36v1351h114v-1480h-126l-889 1351h36v-1351h-114zM726 -332q-41 0 -65 21.5t-24 57.5q0 37 24 58.5t65 21.5t65 -21.5t24 -58.5q0 -36 -24 -57.5t-65 -21.5z" />
    <glyph glyph-name="uni1E47" unicode="&#x1e47;" horiz-adv-x="1114" 
d="M160 0v1083h101l9 -126h9q68 69 157.5 105.5t188.5 36.5q100 0 177.5 -36t121 -117.5t43.5 -218.5v-727h-118v723q0 150 -66.5 209t-179.5 59q-52 0 -110.5 -15t-114.5 -50t-100 -94v-832h-118zM564 -337q-38 0 -61 22t-23 59q0 38 23 60.5t61 22.5t61 -22.5t23 -60.5
q0 -37 -23 -59t-61 -22z" />
    <glyph glyph-name="uni1E48" unicode="&#x1e48;" horiz-adv-x="1450" 
d="M179 0v1480h125l890 -1351h-36v1351h114v-1480h-126l-889 1351h36v-1351h-114zM436 -295v86h580v-86h-580z" />
    <glyph glyph-name="uni1E49" unicode="&#x1e49;" horiz-adv-x="1114" 
d="M160 0v1083h101l9 -126h9q68 69 157.5 105.5t188.5 36.5q100 0 177.5 -36t121 -117.5t43.5 -218.5v-727h-118v723q0 150 -66.5 209t-179.5 59q-52 0 -110.5 -15t-114.5 -50t-100 -94v-832h-118zM295 -298v85h538v-85h-538z" />
    <glyph glyph-name="uni1E4C" unicode="&#x1e4c;" horiz-adv-x="1407" 
d="M704 -18q-178 0 -311.5 77t-207.5 244t-74 437t74.5 437t208 244t310.5 77t310.5 -77t207.5 -244.5t74 -436.5t-74.5 -436.5t-208 -244.5t-309.5 -77zM704 88q140 0 245 62t163.5 204t58.5 381q0 245 -58.5 388.5t-163.5 206t-245 62.5q-141 0 -246 -62t-163.5 -203.5
t-58.5 -381.5q0 -245 58.5 -388.5t163.5 -206t246 -62.5zM644 1898l176 232h138l-197 -232h-117zM854 1681q-46 0 -86.5 13t-78.5 28q-34 14 -67.5 24.5t-68.5 10.5q-52 0 -90 -17.5t-74 -53.5v91q29 31 70 47t95 16q46 0 87 -12.5t78 -28.5q34 -13 67.5 -24t68.5 -11
q52 0 90.5 17.5t73.5 53.5v-91q-29 -30 -69.5 -46.5t-95.5 -16.5z" />
    <glyph glyph-name="uni1E4D" unicode="&#x1e4d;" horiz-adv-x="1087" 
d="M544 -19q-134 0 -233.5 57.5t-155 181t-55.5 321.5q0 197 55 320t154.5 180.5t234.5 57.5q134 0 233.5 -57t154.5 -180t55 -321q0 -197 -55 -320.5t-155 -181.5t-233 -58zM544 83q98 0 170 42.5t111.5 142.5t39.5 270q0 174 -39.5 274t-111.5 143t-170 43t-170.5 -42.5
t-112 -142t-39.5 -269.5q0 -174 39.5 -274.5t111.5 -143.5t171 -43zM683 1361q-42 0 -80.5 13.5t-73.5 29.5q-32 14 -63 25t-62 11q-47 0 -84.5 -18t-73.5 -56v94q59 64 159 64q42 0 80.5 -13.5t73.5 -28.5q33 -14 63.5 -25.5t61.5 -11.5q48 0 85.5 18t72.5 56v-94
q-59 -64 -159 -64zM489 1612l176 278h131l-198 -278h-109z" />
    <glyph glyph-name="uni1E4E" unicode="&#x1e4e;" horiz-adv-x="1407" 
d="M704 -18q-178 0 -311.5 77t-207.5 244t-74 437t74.5 437t208 244t310.5 77t310.5 -77t207.5 -244.5t74 -436.5t-74.5 -436.5t-208 -244.5t-309.5 -77zM704 88q140 0 245 62t163.5 204t58.5 381q0 245 -58.5 388.5t-163.5 206t-245 62.5q-141 0 -246 -62t-163.5 -203.5
t-58.5 -381.5q0 -245 58.5 -388.5t163.5 -206t246 -62.5zM854 1681q-46 0 -86.5 13t-78.5 28q-34 14 -67.5 24.5t-68.5 10.5q-52 0 -90 -17.5t-74 -53.5v91q29 31 70 47t95 16q46 0 87 -12.5t78 -28.5q34 -13 67.5 -24t68.5 -11q52 0 90.5 17.5t73.5 53.5v-91
q-29 -30 -69.5 -46.5t-95.5 -16.5zM931 1925q-38 0 -61 21.5t-23 57.5q0 37 23 58.5t61 21.5q39 0 62 -21.5t23 -58.5q0 -36 -23 -57.5t-62 -21.5zM477 1925q-39 0 -62 21.5t-23 57.5q0 37 23 58.5t62 21.5q38 0 61 -21.5t23 -58.5q0 -36 -23 -57.5t-61 -21.5z" />
    <glyph glyph-name="uni1E4F" unicode="&#x1e4f;" horiz-adv-x="1087" 
d="M544 -19q-134 0 -233.5 57.5t-155 181t-55.5 321.5q0 197 55 320t154.5 180.5t234.5 57.5q134 0 233.5 -57t154.5 -180t55 -321q0 -197 -55 -320.5t-155 -181.5t-233 -58zM544 83q98 0 170 42.5t111.5 142.5t39.5 270q0 174 -39.5 274t-111.5 143t-170 43t-170.5 -42.5
t-112 -142t-39.5 -269.5q0 -174 39.5 -274.5t111.5 -143.5t171 -43zM683 1361q-42 0 -80.5 13.5t-73.5 29.5q-32 14 -63 25t-62 11q-47 0 -84.5 -18t-73.5 -56v94q59 64 159 64q42 0 80.5 -13.5t73.5 -28.5q33 -14 63.5 -25.5t61.5 -11.5q48 0 85.5 18t72.5 56v-94
q-59 -64 -159 -64zM753 1628q-38 0 -61 22.5t-23 59.5q0 39 23 61.5t61 22.5t61 -22.5t23 -61.5q0 -37 -23 -59.5t-61 -22.5zM335 1628q-38 0 -61 22.5t-23 59.5q0 39 23 61.5t61 22.5t61 -22.5t23 -61.5q0 -37 -23 -59.5t-61 -22.5z" />
    <glyph glyph-name="uni1E50" unicode="&#x1e50;" horiz-adv-x="1407" 
d="M704 -18q-178 0 -311.5 77t-207.5 244t-74 437t74.5 437t208 244t310.5 77t310.5 -77t207.5 -244.5t74 -436.5t-74.5 -436.5t-208 -244.5t-309.5 -77zM704 88q140 0 245 62t163.5 204t58.5 381q0 245 -58.5 388.5t-163.5 206t-245 62.5q-141 0 -246 -62t-163.5 -203.5
t-58.5 -381.5q0 -245 58.5 -388.5t163.5 -206t246 -62.5zM647 1898l-198 232h138l176 -232h-116zM414 1707v86h580v-86h-580z" />
    <glyph glyph-name="uni1E51" unicode="&#x1e51;" horiz-adv-x="1087" 
d="M544 -19q-134 0 -233.5 57.5t-155 181t-55.5 321.5q0 197 55 320t154.5 180.5t234.5 57.5q134 0 233.5 -57t154.5 -180t55 -321q0 -197 -55 -320.5t-155 -181.5t-233 -58zM544 83q98 0 170 42.5t111.5 142.5t39.5 270q0 174 -39.5 274t-111.5 143t-170 43t-170.5 -42.5
t-112 -142t-39.5 -269.5q0 -174 39.5 -274.5t111.5 -143.5t171 -43zM246 1380v86h596v-86h-596zM490 1608l-198 278h130l176 -278h-108z" />
    <glyph glyph-name="uni1E52" unicode="&#x1e52;" horiz-adv-x="1407" 
d="M704 -18q-178 0 -311.5 77t-207.5 244t-74 437t74.5 437t208 244t310.5 77t310.5 -77t207.5 -244.5t74 -436.5t-74.5 -436.5t-208 -244.5t-309.5 -77zM704 88q140 0 245 62t163.5 204t58.5 381q0 245 -58.5 388.5t-163.5 206t-245 62.5q-141 0 -246 -62t-163.5 -203.5
t-58.5 -381.5q0 -245 58.5 -388.5t163.5 -206t246 -62.5zM645 1898l175 232h138l-197 -232h-116zM414 1707v86h580v-86h-580z" />
    <glyph glyph-name="uni1E53" unicode="&#x1e53;" horiz-adv-x="1087" 
d="M544 -19q-134 0 -233.5 57.5t-155 181t-55.5 321.5q0 197 55 320t154.5 180.5t234.5 57.5q134 0 233.5 -57t154.5 -180t55 -321q0 -197 -55 -320.5t-155 -181.5t-233 -58zM544 83q98 0 170 42.5t111.5 142.5t39.5 270q0 174 -39.5 274t-111.5 143t-170 43t-170.5 -42.5
t-112 -142t-39.5 -269.5q0 -174 39.5 -274.5t111.5 -143.5t171 -43zM246 1380v86h596v-86h-596zM489 1608l176 278h131l-198 -278h-109z" />
    <glyph glyph-name="uni1E5A" unicode="&#x1e5a;" horiz-adv-x="1288" 
d="M179 0v1458q53 10 111.5 18.5t124 13.5t140.5 5q286 0 424 -104t138 -325q0 -145 -67.5 -242t-201.5 -146t-333 -49q-66 0 -116 2.5t-102 6.5v-638h-118zM1088 0l-534 699h138l538 -699h-142zM514 730q258 0 372.5 82.5t114.5 251.5q0 118 -45.5 190.5t-143 106
t-253.5 33.5q-82 0 -141.5 -6t-120.5 -16v-632q41 -4 73.5 -6t66.5 -3t77 -1zM673 -332q-41 0 -65 21.5t-24 57.5q0 37 24 58.5t65 21.5t65 -21.5t24 -58.5q0 -36 -24 -57.5t-65 -21.5z" />
    <glyph glyph-name="uni1E5B" unicode="&#x1e5b;" horiz-adv-x="701" 
d="M160 0v1083h100l10 -146h9q58 76 145 115.5t179 39.5q25 0 45 -1.5t40 -5.5v-112q-22 4 -43.5 4.5t-46.5 0.5q-55 0 -114.5 -17.5t-113.5 -55t-92 -93.5v-812h-118zM219 -337q-38 0 -61 22t-23 59q0 38 23 60.5t61 22.5t61 -22.5t23 -60.5q0 -37 -23 -59t-61 -22z" />
    <glyph glyph-name="uni1E5E" unicode="&#x1e5e;" horiz-adv-x="1288" 
d="M179 0v1458q53 10 111.5 18.5t124 13.5t140.5 5q286 0 424 -104t138 -325q0 -145 -67.5 -242t-201.5 -146t-333 -49q-66 0 -116 2.5t-102 6.5v-638h-118zM1088 0l-534 699h138l538 -699h-142zM514 730q258 0 372.5 82.5t114.5 251.5q0 118 -45.5 190.5t-143 106
t-253.5 33.5q-82 0 -141.5 -6t-120.5 -16v-632q41 -4 73.5 -6t66.5 -3t77 -1zM383 -295v86h580v-86h-580z" />
    <glyph glyph-name="uni1E5F" unicode="&#x1e5f;" horiz-adv-x="701" 
d="M160 0v1083h100l10 -146h9q58 76 145 115.5t179 39.5q25 0 45 -1.5t40 -5.5v-112q-22 4 -43.5 4.5t-46.5 0.5q-55 0 -114.5 -17.5t-113.5 -55t-92 -93.5v-812h-118zM-50 -298v85h538v-85h-538z" />
    <glyph glyph-name="uni1E60" unicode="&#x1e60;" horiz-adv-x="1039" 
d="M451 -18q-83 0 -175 14.5t-177 43.5v107q62 -20 123 -33.5t119.5 -20t112.5 -6.5q193 0 288 75.5t95 222.5q0 124 -72.5 189t-241.5 110l-72 18q-187 48 -279.5 144t-92.5 253q0 185 127 292t377 107q82 0 164.5 -11t150.5 -33v-108q-77 24 -155.5 35.5t-158.5 11.5
q-130 0 -215 -33.5t-126 -98t-41 -155.5q0 -120 66 -186t227 -109l72 -18q135 -34 222 -87.5t129 -131t42 -183.5q0 -131 -59.5 -222.5t-173.5 -139t-276 -47.5zM527 1673q-41 0 -65 21.5t-24 57.5q0 37 24 58.5t65 21.5t65 -21.5t24 -58.5q0 -36 -24 -57.5t-65 -21.5z" />
    <glyph glyph-name="uni1E61" unicode="&#x1e61;" horiz-adv-x="881" 
d="M402 -19q-78 0 -149 10.5t-139 32.5v101q80 -24 149 -34t140 -10q150 0 218.5 53t68.5 149q0 84 -42.5 128t-142.5 65l-139 29q-147 33 -208.5 105.5t-61.5 184.5q0 132 100 218t308 86q67 0 127.5 -7.5t118.5 -23.5v-101q-66 18 -123.5 25.5t-121.5 7.5q-107 0 -171 -27
t-93 -72.5t-29 -101.5q0 -73 39.5 -120t139.5 -70l138 -28q152 -33 215 -103.5t63 -187.5q0 -142 -102.5 -225.5t-302.5 -83.5zM446 1339q-42 0 -65.5 22t-23.5 60q0 40 23.5 62.5t65.5 22.5t65.5 -22.5t23.5 -62.5q0 -38 -23.5 -60t-65.5 -22z" />
    <glyph glyph-name="uni1E62" unicode="&#x1e62;" horiz-adv-x="1039" 
d="M451 -18q-83 0 -175 14.5t-177 43.5v107q62 -20 123 -33.5t119.5 -20t112.5 -6.5q193 0 288 75.5t95 222.5q0 124 -72.5 189t-241.5 110l-72 18q-187 48 -279.5 144t-92.5 253q0 185 127 292t377 107q82 0 164.5 -11t150.5 -33v-108q-77 24 -155.5 35.5t-158.5 11.5
q-130 0 -215 -33.5t-126 -98t-41 -155.5q0 -120 66 -186t227 -109l72 -18q135 -34 222 -87.5t129 -131t42 -183.5q0 -131 -59.5 -222.5t-173.5 -139t-276 -47.5zM527 -332q-41 0 -65 21.5t-24 57.5q0 37 24 58.5t65 21.5t65 -21.5t24 -58.5q0 -36 -24 -57.5t-65 -21.5z" />
    <glyph glyph-name="uni1E63" unicode="&#x1e63;" horiz-adv-x="881" 
d="M402 -19q-78 0 -149 10.5t-139 32.5v101q80 -24 149 -34t140 -10q150 0 218.5 53t68.5 149q0 84 -42.5 128t-142.5 65l-139 29q-147 33 -208.5 105.5t-61.5 184.5q0 132 100 218t308 86q67 0 127.5 -7.5t118.5 -23.5v-101q-66 18 -123.5 25.5t-121.5 7.5q-107 0 -171 -27
t-93 -72.5t-29 -101.5q0 -73 39.5 -120t139.5 -70l138 -28q152 -33 215 -103.5t63 -187.5q0 -142 -102.5 -225.5t-302.5 -83.5zM446 -337q-38 0 -61 22t-23 59q0 38 23 60.5t61 22.5t61 -22.5t23 -60.5q0 -37 -23 -59t-61 -22z" />
    <glyph glyph-name="uni1E64" unicode="&#x1e64;" horiz-adv-x="1039" 
d="M451 -18q-83 0 -175 14.5t-177 43.5v107q62 -20 123 -33.5t119.5 -20t112.5 -6.5q193 0 288 75.5t95 222.5q0 124 -72.5 189t-241.5 110l-72 18q-187 48 -279.5 144t-92.5 253q0 185 127 292t377 107q82 0 164.5 -11t150.5 -33v-108q-77 24 -155.5 35.5t-158.5 11.5
q-130 0 -215 -33.5t-126 -98t-41 -155.5q0 -120 66 -186t227 -109l72 -18q135 -34 222 -87.5t129 -131t42 -183.5q0 -131 -59.5 -222.5t-173.5 -139t-276 -47.5zM421 1850q-37 0 -59 20t-22 54t22 54.5t59 20.5q38 0 60 -20.5t22 -54.5t-22 -54t-60 -20zM472 1612l176 278
h131l-198 -278h-109z" />
    <glyph glyph-name="uni1E65" unicode="&#x1e65;" horiz-adv-x="881" 
d="M402 -19q-78 0 -149 10.5t-139 32.5v101q80 -24 149 -34t140 -10q150 0 218.5 53t68.5 149q0 84 -42.5 128t-142.5 65l-139 29q-147 33 -208.5 105.5t-61.5 184.5q0 132 100 218t308 86q67 0 127.5 -7.5t118.5 -23.5v-101q-66 18 -123.5 25.5t-121.5 7.5q-107 0 -171 -27
t-93 -72.5t-29 -101.5q0 -73 39.5 -120t139.5 -70l138 -28q152 -33 215 -103.5t63 -187.5q0 -142 -102.5 -225.5t-302.5 -83.5zM363 1576q-38 0 -60 20t-22 54t22 54.5t60 20.5q37 0 59 -20.5t22 -54.5t-22 -54t-59 -20zM391 1258l212 358h130l-232 -358h-110z" />
    <glyph glyph-name="uni1E66" unicode="&#x1e66;" horiz-adv-x="1039" 
d="M451 -18q-83 0 -175 14.5t-177 43.5v107q62 -20 123 -33.5t119.5 -20t112.5 -6.5q193 0 288 75.5t95 222.5q0 124 -72.5 189t-241.5 110l-72 18q-187 48 -279.5 144t-92.5 253q0 185 127 292t377 107q82 0 164.5 -11t150.5 -33v-108q-77 24 -155.5 35.5t-158.5 11.5
q-130 0 -215 -33.5t-126 -98t-41 -155.5q0 -120 66 -186t227 -109l72 -18q135 -34 222 -87.5t129 -131t42 -183.5q0 -131 -59.5 -222.5t-173.5 -139t-276 -47.5zM527 1896q-37 0 -59.5 20t-22.5 53q0 35 22.5 55.5t59.5 20.5q38 0 60 -20.5t22 -55.5q0 -33 -22 -53t-60 -20z
M469 1612l-243 278h114l202 -238h-30l202 238h114l-243 -278h-116z" />
    <glyph glyph-name="uni1E67" unicode="&#x1e67;" horiz-adv-x="881" 
d="M402 -19q-78 0 -149 10.5t-139 32.5v101q80 -24 149 -34t140 -10q150 0 218.5 53t68.5 149q0 84 -42.5 128t-142.5 65l-139 29q-147 33 -208.5 105.5t-61.5 184.5q0 132 100 218t308 86q67 0 127.5 -7.5t118.5 -23.5v-101q-66 18 -123.5 25.5t-121.5 7.5q-107 0 -171 -27
t-93 -72.5t-29 -101.5q0 -73 39.5 -120t139.5 -70l138 -28q152 -33 215 -103.5t63 -187.5q0 -142 -102.5 -225.5t-302.5 -83.5zM446 1620q-37 0 -59.5 20t-22.5 54t22.5 54.5t59.5 20.5q38 0 60 -20.5t22 -54.5t-22 -54t-60 -20zM389 1258l-224 358h103l193 -318h-30
l193 318h103l-224 -358h-114z" />
    <glyph glyph-name="uni1E68" unicode="&#x1e68;" horiz-adv-x="1039" 
d="M451 -18q-83 0 -175 14.5t-177 43.5v107q62 -20 123 -33.5t119.5 -20t112.5 -6.5q193 0 288 75.5t95 222.5q0 124 -72.5 189t-241.5 110l-72 18q-187 48 -279.5 144t-92.5 253q0 185 127 292t377 107q82 0 164.5 -11t150.5 -33v-108q-77 24 -155.5 35.5t-158.5 11.5
q-130 0 -215 -33.5t-126 -98t-41 -155.5q0 -120 66 -186t227 -109l72 -18q135 -34 222 -87.5t129 -131t42 -183.5q0 -131 -59.5 -222.5t-173.5 -139t-276 -47.5zM527 -332q-41 0 -65 21.5t-24 57.5q0 37 24 58.5t65 21.5t65 -21.5t24 -58.5q0 -36 -24 -57.5t-65 -21.5z
M527 1673q-41 0 -65 21.5t-24 57.5q0 37 24 58.5t65 21.5t65 -21.5t24 -58.5q0 -36 -24 -57.5t-65 -21.5z" />
    <glyph glyph-name="uni1E69" unicode="&#x1e69;" horiz-adv-x="881" 
d="M402 -19q-78 0 -149 10.5t-139 32.5v101q80 -24 149 -34t140 -10q150 0 218.5 53t68.5 149q0 84 -42.5 128t-142.5 65l-139 29q-147 33 -208.5 105.5t-61.5 184.5q0 132 100 218t308 86q67 0 127.5 -7.5t118.5 -23.5v-101q-66 18 -123.5 25.5t-121.5 7.5q-107 0 -171 -27
t-93 -72.5t-29 -101.5q0 -73 39.5 -120t139.5 -70l138 -28q152 -33 215 -103.5t63 -187.5q0 -142 -102.5 -225.5t-302.5 -83.5zM446 -337q-38 0 -61 22t-23 59q0 38 23 60.5t61 22.5t61 -22.5t23 -60.5q0 -37 -23 -59t-61 -22zM446 1339q-42 0 -65.5 22t-23.5 60
q0 40 23.5 62.5t65.5 22.5t65.5 -22.5t23.5 -62.5q0 -38 -23.5 -60t-65.5 -22z" />
    <glyph glyph-name="uni1E6C" unicode="&#x1e6c;" horiz-adv-x="1147" 
d="M514 0v1373h-500v107h1119v-107h-500v-1373h-119zM574 -332q-41 0 -65 21.5t-24 57.5q0 37 24 58.5t65 21.5t65 -21.5t24 -58.5q0 -36 -24 -57.5t-65 -21.5z" />
    <glyph glyph-name="uni1E6D" unicode="&#x1e6d;" horiz-adv-x="724" 
d="M555 -18q-158 0 -246.5 81.5t-88.5 262.5v757l19 397h100v-1134q0 -143 60 -201t177 -58q31 0 64 4.5t72 13.5v-105q-40 -9 -78.5 -13.5t-78.5 -4.5zM9 981v102h684v-102h-684zM467 -337q-38 0 -61 22t-23 59q0 38 23 60.5t61 22.5t61 -22.5t23 -60.5q0 -37 -23 -59
t-61 -22z" />
    <glyph glyph-name="uni1E6E" unicode="&#x1e6e;" horiz-adv-x="1147" 
d="M514 0v1373h-500v107h1119v-107h-500v-1373h-119zM284 -295v86h580v-86h-580z" />
    <glyph glyph-name="uni1E6F" unicode="&#x1e6f;" horiz-adv-x="724" 
d="M555 -18q-158 0 -246.5 81.5t-88.5 262.5v757l19 397h100v-1134q0 -143 60 -201t177 -58q31 0 64 4.5t72 13.5v-105q-40 -9 -78.5 -13.5t-78.5 -4.5zM9 981v102h684v-102h-684zM198 -298v85h538v-85h-538z" />
    <glyph glyph-name="uni1E78" unicode="&#x1e78;" horiz-adv-x="1397" 
d="M700 -18q-182 0 -299 60t-173.5 185t-56.5 319v934h120v-948q0 -230 98 -337t311 -107t311 107t98 337v948h117v-934q0 -194 -56 -319t-172.5 -185t-297.5 -60zM640 1898l176 232h138l-197 -232h-117zM850 1681q-46 0 -86.5 13t-78.5 28q-34 14 -67.5 24.5t-68.5 10.5
q-52 0 -90 -17.5t-74 -53.5v91q29 31 70 47t95 16q46 0 87 -12.5t78 -28.5q34 -13 67.5 -24t68.5 -11q52 0 90.5 17.5t73.5 53.5v-91q-29 -30 -69.5 -46.5t-95.5 -16.5z" />
    <glyph glyph-name="uni1E79" unicode="&#x1e79;" horiz-adv-x="1104" 
d="M486 -18q-98 0 -175 35.5t-120.5 117t-43.5 218.5v730h118v-726q0 -150 67.5 -208.5t173.5 -58.5q53 0 111 16t112.5 51t96.5 92v834h119v-1083h-101l-9 121h-9q-69 -69 -157 -104t-183 -35zM685 1361q-42 0 -80.5 13.5t-73.5 29.5q-32 14 -63 25t-62 11q-47 0 -84.5 -18
t-73.5 -56v94q59 64 159 64q42 0 80.5 -13.5t73.5 -28.5q33 -14 63.5 -25.5t61.5 -11.5q48 0 85.5 18t72.5 56v-94q-59 -64 -159 -64zM491 1612l176 278h131l-198 -278h-109z" />
    <glyph glyph-name="uni1E7A" unicode="&#x1e7a;" horiz-adv-x="1397" 
d="M700 -18q-182 0 -299 60t-173.5 185t-56.5 319v934h120v-948q0 -230 98 -337t311 -107t311 107t98 337v948h117v-934q0 -194 -56 -319t-172.5 -185t-297.5 -60zM410 1707v86h580v-86h-580zM927 1924q-38 0 -61 21.5t-23 57.5q0 37 23 58.5t61 21.5q39 0 62 -21.5
t23 -58.5q0 -36 -23 -57.5t-62 -21.5zM473 1924q-39 0 -62 21.5t-23 57.5q0 37 23 58.5t62 21.5q38 0 61 -21.5t23 -58.5q0 -36 -23 -57.5t-61 -21.5z" />
    <glyph glyph-name="uni1E7B" unicode="&#x1e7b;" horiz-adv-x="1104" 
d="M486 -18q-98 0 -175 35.5t-120.5 117t-43.5 218.5v730h118v-726q0 -150 67.5 -208.5t173.5 -58.5q53 0 111 16t112.5 51t96.5 92v834h119v-1083h-101l-9 121h-9q-69 -69 -157 -104t-183 -35zM248 1380v86h596v-86h-596zM755 1624q-38 0 -61 22.5t-23 59.5q0 39 23 61.5
t61 22.5t61 -22.5t23 -61.5q0 -37 -23 -59.5t-61 -22.5zM337 1624q-38 0 -61 22.5t-23 59.5q0 39 23 61.5t61 22.5t61 -22.5t23 -61.5q0 -37 -23 -59.5t-61 -22.5z" />
    <glyph glyph-name="Wgrave" unicode="&#x1e80;" horiz-adv-x="2073" 
d="M486 0l-425 1480h125l399 -1419h-29l409 1419h147l408 -1419h-28l402 1419h117l-424 -1480h-159l-406 1402h31l-408 -1402h-159zM984 1612l-198 278h130l176 -278h-108z" />
    <glyph glyph-name="wgrave" unicode="&#x1e81;" horiz-adv-x="1662" 
d="M388 0l-323 1083h119l290 -989h-16l302 989h146l302 -989h-17l291 989h115l-323 -1083h-146l-305 992h18l-307 -992h-146zM778 1258l-232 358h130l212 -358h-110z" />
    <glyph glyph-name="Wacute" unicode="&#x1e82;" horiz-adv-x="2073" 
d="M486 0l-425 1480h125l399 -1419h-29l409 1419h147l408 -1419h-28l402 1419h117l-424 -1480h-159l-406 1402h31l-408 -1402h-159zM983 1612l176 278h131l-198 -278h-109z" />
    <glyph glyph-name="wacute" unicode="&#x1e83;" horiz-adv-x="1662" 
d="M388 0l-323 1083h119l290 -989h-16l302 989h146l302 -989h-17l291 989h115l-323 -1083h-146l-305 992h18l-307 -992h-146zM778 1258l212 358h130l-232 -358h-110z" />
    <glyph glyph-name="Wdieresis" unicode="&#x1e84;" horiz-adv-x="2073" 
d="M486 0l-425 1480h125l399 -1419h-29l409 1419h147l408 -1419h-28l402 1419h117l-424 -1480h-159l-406 1402h31l-408 -1402h-159zM1265 1673q-38 0 -61 21.5t-23 57.5q0 37 23 58.5t61 21.5q39 0 62 -21.5t23 -58.5q0 -36 -23 -57.5t-62 -21.5zM811 1673q-39 0 -62 21.5
t-23 57.5q0 37 23 58.5t62 21.5q38 0 61 -21.5t23 -58.5q0 -36 -23 -57.5t-61 -21.5z" />
    <glyph glyph-name="wdieresis" unicode="&#x1e85;" horiz-adv-x="1662" 
d="M388 0l-323 1083h119l290 -989h-16l302 989h146l302 -989h-17l291 989h115l-323 -1083h-146l-305 992h18l-307 -992h-146zM1042 1339q-38 0 -61 22.5t-23 59.5q0 39 23 61.5t61 22.5t61 -22.5t23 -61.5q0 -37 -23 -59.5t-61 -22.5zM624 1339q-38 0 -61 22.5t-23 59.5
q0 39 23 61.5t61 22.5t61 -22.5t23 -61.5q0 -37 -23 -59.5t-61 -22.5z" />
    <glyph glyph-name="uni1E8E" unicode="&#x1e8e;" horiz-adv-x="1147" 
d="M514 0v717l28 -92l-568 855h136l489 -739h-46l483 739h128l-558 -855l28 91v-716h-120zM574 1673q-41 0 -65 21.5t-24 57.5q0 37 24 58.5t65 21.5t65 -21.5t24 -58.5q0 -36 -24 -57.5t-65 -21.5z" />
    <glyph glyph-name="uni1E8F" unicode="&#x1e8f;" horiz-adv-x="1029" 
d="M302 -440l171 440l35 80l380 1003h122l-588 -1523h-120zM437 0l-417 1083h128l405 -1083h-116zM516 1339q-42 0 -65.5 22t-23.5 60q0 40 23.5 62.5t65.5 22.5t65.5 -22.5t23.5 -62.5q0 -38 -23.5 -60t-65.5 -22z" />
    <glyph glyph-name="uni1E92" unicode="&#x1e92;" horiz-adv-x="1130" 
d="M62 0v68l856 1339l12 -32h-856v105h982v-68l-855 -1339l-12 32h879v-105h-1006zM565 -332q-41 0 -65 21.5t-24 57.5q0 37 24 58.5t65 21.5t65 -21.5t24 -58.5q0 -36 -24 -57.5t-65 -21.5z" />
    <glyph glyph-name="uni1E93" unicode="&#x1e93;" horiz-adv-x="895" 
d="M62 0v73l634 940v-32h-622v102h753v-73l-634 -940v32h646v-102h-777zM451 -337q-38 0 -61 22t-23 59q0 38 23 60.5t61 22.5t61 -22.5t23 -60.5q0 -37 -23 -59t-61 -22z" />
    <glyph glyph-name="uni1E97" unicode="&#x1e97;" horiz-adv-x="724" 
d="M555 -18q-158 0 -246.5 81.5t-88.5 262.5v757l19 397h100v-1134q0 -143 60 -201t177 -58q31 0 64 4.5t72 13.5v-105q-40 -9 -78.5 -13.5t-78.5 -4.5zM9 981v102h684v-102h-684zM489 1625q-38 0 -61 22.5t-23 59.5q0 39 23 61.5t61 22.5t61 -22.5t23 -61.5
q0 -37 -23 -59.5t-61 -22.5zM71 1625q-38 0 -61 22.5t-23 59.5q0 39 23 61.5t61 22.5t61 -22.5t23 -61.5q0 -37 -23 -59.5t-61 -22.5z" />
    <glyph glyph-name="uni1E9E" unicode="&#x1e9e;" horiz-adv-x="1351" 
d="M1148 1369v-65l-434 -541l-6 29q32 5 62 6t70 1q123 0 220.5 -42t154 -128.5t56.5 -220.5q0 -132 -58 -227.5t-168 -147t-268 -51.5q-78 0 -158.5 14t-161.5 43v108q60 -21 114.5 -34t105 -19.5t97.5 -6.5q186 0 282 85t96 238q0 146 -90 222t-260 76q-57 0 -106.5 -2.5
t-106.5 -11.5v67l471 594l-5 -54q-70 52 -160 74t-193 22q-227 0 -331.5 -109t-104.5 -299v-989h-120v977q0 166 61 282.5t184 177.5t311 61q136 0 247 -33t199 -96z" />
    <glyph glyph-name="uni1EA0" unicode="&#x1ea0;" horiz-adv-x="1321" 
d="M32 0l546 1480h164l546 -1480h-124l-518 1419h26l-518 -1419h-122zM297 501l30 105h667l29 -105h-726zM661 -332q-41 0 -65 21.5t-24 57.5q0 37 24 58.5t65 21.5t65 -21.5t24 -58.5q0 -36 -24 -57.5t-65 -21.5z" />
    <glyph glyph-name="uni1EA1" unicode="&#x1ea1;" horiz-adv-x="1007" 
d="M421 -17q-149 0 -235.5 76.5t-86.5 213.5q0 139 90.5 216.5t287.5 98.5l308 34l9 -88l-312 -35q-139 -15 -200 -68t-61 -147q0 -99 56.5 -151t167.5 -52q79 0 157.5 34.5t140.5 114.5v501q0 105 -33 163t-97 81t-158 23q-61 0 -138 -11.5t-154 -38.5v103q66 23 148 35.5
t155 12.5q128 0 216 -34t133 -115.5t45 -222.5v-727h-101l-9 124h-9q-54 -67 -138 -104t-182 -37zM511 -337q-38 0 -61 22t-23 59q0 38 23 60.5t61 22.5t61 -22.5t23 -60.5q0 -37 -23 -59t-61 -22z" />
    <glyph glyph-name="uni1EA2" unicode="&#x1ea2;" horiz-adv-x="1321" 
d="M32 0l546 1480h164l546 -1480h-124l-518 1419h26l-518 -1419h-122zM297 501l30 105h667l29 -105h-726zM619 1612q2 47 34.5 68.5t66.5 36.5q27 12 47 24.5t20 35.5q0 22 -24.5 36t-94.5 14q-51 0 -98 -8t-98 -27v68q39 16 91.5 25t109.5 9q102 0 148.5 -31t46.5 -81
q0 -44 -29 -65t-62 -37q-28 -12 -50 -26.5t-25 -41.5h-83z" />
    <glyph glyph-name="uni1EA3" unicode="&#x1ea3;" horiz-adv-x="1007" 
d="M421 -17q-149 0 -235.5 76.5t-86.5 213.5q0 139 90.5 216.5t287.5 98.5l308 34l9 -88l-312 -35q-139 -15 -200 -68t-61 -147q0 -99 56.5 -151t167.5 -52q79 0 157.5 34.5t140.5 114.5v501q0 105 -33 163t-97 81t-158 23q-61 0 -138 -11.5t-154 -38.5v103q66 23 148 35.5
t155 12.5q128 0 216 -34t133 -115.5t45 -222.5v-727h-101l-9 124h-9q-54 -67 -138 -104t-182 -37zM458 1258q1 54 25.5 85.5t55.5 51.5t54.5 40.5t23.5 51.5q0 37 -29 54t-93 17q-36 0 -78 -6t-77 -18v70q31 11 73.5 17.5t82.5 6.5q105 0 153.5 -36t48.5 -100
q0 -49 -23.5 -76t-54 -46.5t-55 -44t-25.5 -67.5h-82z" />
    <glyph glyph-name="uni1EA4" unicode="&#x1ea4;" horiz-adv-x="1321" 
d="M32 0l546 1480h164l546 -1480h-124l-518 1419h26l-518 -1419h-122zM297 501l30 105h667l29 -105h-726zM360 1612l243 272h116l243 -272h-114l-202 233h30l-202 -233h-114zM882 1797l164 267h107l-185 -267h-86z" />
    <glyph glyph-name="uni1EA5" unicode="&#x1ea5;" horiz-adv-x="1007" 
d="M421 -17q-149 0 -235.5 76.5t-86.5 213.5q0 139 90.5 216.5t287.5 98.5l308 34l9 -88l-312 -35q-139 -15 -200 -68t-61 -147q0 -99 56.5 -151t167.5 -52q79 0 157.5 34.5t140.5 114.5v501q0 105 -33 163t-97 81t-158 23q-61 0 -138 -11.5t-154 -38.5v103q66 23 148 35.5
t155 12.5q128 0 216 -34t133 -115.5t45 -222.5v-727h-101l-9 124h-9q-54 -67 -138 -104t-182 -37zM221 1258l221 358h114l221 -358h-103l-190 316h30l-190 -316h-103zM706 1596l176 272h117l-198 -272h-95z" />
    <glyph glyph-name="uni1EA6" unicode="&#x1ea6;" horiz-adv-x="1321" 
d="M32 0l546 1480h164l546 -1480h-124l-518 1419h26l-518 -1419h-122zM297 501l30 105h667l29 -105h-726zM366 1612l243 272h115l243 -272h-113l-203 233h31l-203 -233h-113zM911 1797l-185 267h107l164 -267h-86z" />
    <glyph glyph-name="uni1EA7" unicode="&#x1ea7;" horiz-adv-x="1007" 
d="M421 -17q-149 0 -235.5 76.5t-86.5 213.5q0 139 90.5 216.5t287.5 98.5l308 34l9 -88l-312 -35q-139 -15 -200 -68t-61 -147q0 -99 56.5 -151t167.5 -52q79 0 157.5 34.5t140.5 114.5v501q0 105 -33 163t-97 81t-158 23q-61 0 -138 -11.5t-154 -38.5v103q66 23 148 35.5
t155 12.5q128 0 216 -34t133 -115.5t45 -222.5v-727h-101l-9 124h-9q-54 -67 -138 -104t-182 -37zM222 1258l221 358h113l221 -358h-103l-190 316h31l-191 -316h-102zM727 1596l-198 272h118l176 -272h-96z" />
    <glyph glyph-name="uni1EA8" unicode="&#x1ea8;" horiz-adv-x="1321" 
d="M32 0l546 1480h164l546 -1480h-124l-518 1419h26l-518 -1419h-122zM297 501l30 105h667l29 -105h-726zM360 1612l243 272h116l243 -272h-114l-202 233h30l-202 -233h-114zM882 1797q2 41 28 62.5t58.5 34t57 26t24.5 39.5q0 22 -24.5 35.5t-94.5 13.5q-51 0 -98 -8
t-98 -26v65q39 16 91.5 24.5t109.5 8.5q102 0 148.5 -30t46.5 -78q0 -40 -24 -61t-56 -33.5t-57.5 -28t-28.5 -44.5h-83z" />
    <glyph glyph-name="uni1EA9" unicode="&#x1ea9;" horiz-adv-x="1007" 
d="M421 -17q-149 0 -235.5 76.5t-86.5 213.5q0 139 90.5 216.5t287.5 98.5l308 34l9 -88l-312 -35q-139 -15 -200 -68t-61 -147q0 -99 56.5 -151t167.5 -52q79 0 157.5 34.5t140.5 114.5v501q0 105 -33 163t-97 81t-158 23q-61 0 -138 -11.5t-154 -38.5v103q66 23 148 35.5
t155 12.5q128 0 216 -34t133 -115.5t45 -222.5v-727h-101l-9 124h-9q-54 -67 -138 -104t-182 -37zM221 1258l221 358h114l221 -358h-103l-190 316h30l-190 -316h-103zM711 1596q2 42 27 63.5t57.5 34t56.5 26t24 38.5q0 22 -24 35.5t-93 13.5q-51 0 -98 -7.5t-97 -26.5v65
q39 16 91 25t108 9q101 0 146.5 -30t45.5 -79q0 -39 -23.5 -59.5t-55 -33t-57 -28.5t-28.5 -46h-80z" />
    <glyph glyph-name="uni1EAA" unicode="&#x1eaa;" horiz-adv-x="1321" 
d="M32 0l546 1480h164l546 -1480h-124l-518 1419h26l-518 -1419h-122zM297 501l30 105h667l29 -105h-726zM360 1612l243 272h116l243 -272h-114l-202 233h30l-202 -233h-114zM800 1929q-54 0 -101 18.5t-91 36.5t-86 18q-47 0 -85.5 -17t-76.5 -53v82q32 31 72 46t90 15
q54 0 101.5 -18.5t91 -36.5t85.5 -18q48 0 86 17t76 53v-82q-32 -30 -72 -45.5t-90 -15.5z" />
    <glyph glyph-name="uni1EAB" unicode="&#x1eab;" horiz-adv-x="1007" 
d="M421 -17q-149 0 -235.5 76.5t-86.5 213.5q0 139 90.5 216.5t287.5 98.5l308 34l9 -88l-312 -35q-139 -15 -200 -68t-61 -147q0 -99 56.5 -151t167.5 -52q79 0 157.5 34.5t140.5 114.5v501q0 105 -33 163t-97 81t-158 23q-61 0 -138 -11.5t-154 -38.5v103q66 23 148 35.5
t155 12.5q128 0 216 -34t133 -115.5t45 -222.5v-727h-101l-9 124h-9q-54 -67 -138 -104t-182 -37zM217 1258l224 347h116l224 -347h-105l-192 310h30l-192 -310h-105zM640 1665q-54 0 -102 18.5t-92.5 37t-88.5 18.5q-48 0 -86 -17t-73 -52v86q29 30 69 45.5t91 15.5
q54 0 102 -18.5t92.5 -37t88.5 -18.5q49 0 86.5 17t72.5 52v-86q-29 -30 -69 -45.5t-91 -15.5z" />
    <glyph glyph-name="uni1EAC" unicode="&#x1eac;" horiz-adv-x="1321" 
d="M32 0l546 1480h164l546 -1480h-124l-518 1419h26l-518 -1419h-122zM297 501l30 105h667l29 -105h-726zM661 -332q-41 0 -65 21.5t-24 57.5q0 37 24 58.5t65 21.5t65 -21.5t24 -58.5q0 -36 -24 -57.5t-65 -21.5zM360 1612l243 278h116l243 -278h-114l-202 237h30
l-202 -237h-114z" />
    <glyph glyph-name="uni1EAD" unicode="&#x1ead;" horiz-adv-x="1007" 
d="M421 -17q-149 0 -235.5 76.5t-86.5 213.5q0 139 90.5 216.5t287.5 98.5l308 34l9 -88l-312 -35q-139 -15 -200 -68t-61 -147q0 -99 56.5 -151t167.5 -52q79 0 157.5 34.5t140.5 114.5v501q0 105 -33 163t-97 81t-158 23q-61 0 -138 -11.5t-154 -38.5v103q66 23 148 35.5
t155 12.5q128 0 216 -34t133 -115.5t45 -222.5v-727h-101l-9 124h-9q-54 -67 -138 -104t-182 -37zM511 -337q-38 0 -61 22t-23 59q0 38 23 60.5t61 22.5t61 -22.5t23 -60.5q0 -37 -23 -59t-61 -22zM221 1258l221 358h114l221 -358h-103l-190 316h30l-190 -316h-103z" />
    <glyph glyph-name="uni1EAE" unicode="&#x1eae;" horiz-adv-x="1321" 
d="M32 0l546 1480h164l546 -1480h-124l-518 1419h26l-518 -1419h-122zM297 501l30 105h667l29 -105h-726zM662 1622q-142 0 -215.5 64.5t-84.5 173.5h81q10 -80 59 -122t160 -42q112 0 159 42t59 122h80q-10 -109 -83.5 -173.5t-214.5 -64.5zM618 1843l164 250h107
l-185 -250h-86z" />
    <glyph glyph-name="uni1EAF" unicode="&#x1eaf;" horiz-adv-x="1007" 
d="M421 -17q-149 0 -235.5 76.5t-86.5 213.5q0 139 90.5 216.5t287.5 98.5l308 34l9 -88l-312 -35q-139 -15 -200 -68t-61 -147q0 -99 56.5 -151t167.5 -52q79 0 157.5 34.5t140.5 114.5v501q0 105 -33 163t-97 81t-158 23q-61 0 -138 -11.5t-154 -38.5v103q66 23 148 35.5
t155 12.5q128 0 216 -34t133 -115.5t45 -222.5v-727h-101l-9 124h-9q-54 -67 -138 -104t-182 -37zM501 1270q-88 0 -151 37.5t-97 107.5t-39 167h86q8 -115 56 -175t145 -60t144 60t53 175h86q-5 -98 -38.5 -168t-95.5 -107t-149 -37zM451 1596l176 272h117l-197 -272h-96z
" />
    <glyph glyph-name="uni1EB0" unicode="&#x1eb0;" horiz-adv-x="1321" 
d="M32 0l546 1480h164l546 -1480h-124l-518 1419h26l-518 -1419h-122zM297 501l30 105h667l29 -105h-726zM660 1622q-142 0 -214.5 64.5t-83.5 173.5h80q11 -80 59 -122t159 -42q112 0 160 42t59 122h81q-10 -108 -84.5 -173t-215.5 -65zM618 1843l-185 250h107l164 -250
h-86z" />
    <glyph glyph-name="uni1EB1" unicode="&#x1eb1;" horiz-adv-x="1007" 
d="M421 -17q-149 0 -235.5 76.5t-86.5 213.5q0 139 90.5 216.5t287.5 98.5l308 34l9 -88l-312 -35q-139 -15 -200 -68t-61 -147q0 -99 56.5 -151t167.5 -52q79 0 157.5 34.5t140.5 114.5v501q0 105 -33 163t-97 81t-158 23q-61 0 -138 -11.5t-154 -38.5v103q66 23 148 35.5
t155 12.5q128 0 216 -34t133 -115.5t45 -222.5v-727h-101l-9 124h-9q-54 -67 -138 -104t-182 -37zM501 1270q-88 0 -151 37.5t-97 107.5t-39 167h86q8 -115 56 -175t145 -60t144 60t53 175h86q-5 -98 -38.5 -168t-95.5 -107t-149 -37zM451 1596l-197 272h117l176 -272h-96z
" />
    <glyph glyph-name="uni1EB2" unicode="&#x1eb2;" horiz-adv-x="1321" 
d="M32 0l546 1480h164l546 -1480h-124l-518 1419h26l-518 -1419h-122zM297 501l30 105h667l29 -105h-726zM659 1622q-141 0 -213.5 64.5t-83.5 173.5h81q10 -80 58 -122t158 -42q111 0 160 42t61 122h80q-10 -108 -84.5 -173t-216.5 -65zM619 1843q2 42 28 63.5t58.5 34
t57 26t24.5 38.5q0 22 -24.5 35.5t-94.5 13.5q-51 0 -98 -7.5t-98 -26.5v65q39 16 91.5 25t109.5 9q102 0 148.5 -30.5t46.5 -78.5q0 -40 -24 -60.5t-56 -33.5t-57.5 -28t-28.5 -45h-83z" />
    <glyph glyph-name="uni1EB3" unicode="&#x1eb3;" horiz-adv-x="1007" 
d="M421 -17q-149 0 -235.5 76.5t-86.5 213.5q0 139 90.5 216.5t287.5 98.5l308 34l9 -88l-312 -35q-139 -15 -200 -68t-61 -147q0 -99 56.5 -151t167.5 -52q79 0 157.5 34.5t140.5 114.5v501q0 105 -33 163t-97 81t-158 23q-61 0 -138 -11.5t-154 -38.5v103q66 23 148 35.5
t155 12.5q128 0 216 -34t133 -115.5t45 -222.5v-727h-101l-9 124h-9q-54 -67 -138 -104t-182 -37zM501 1270q-88 0 -151 37.5t-97 107.5t-39 167h86q8 -115 56 -175t145 -60t144 60t53 175h86q-5 -98 -38.5 -168t-95.5 -107t-149 -37zM457 1596q2 42 28 63.5t58.5 34t57 26
t24.5 38.5q0 22 -24.5 35.5t-94.5 13.5q-51 0 -98 -7.5t-98 -26.5v65q39 16 91.5 25t109.5 9q102 0 148.5 -30.5t46.5 -78.5q0 -40 -24 -60.5t-56 -33.5t-57.5 -28.5t-28.5 -44.5h-83z" />
    <glyph glyph-name="uni1EB4" unicode="&#x1eb4;" horiz-adv-x="1321" 
d="M32 0l546 1480h164l546 -1480h-124l-518 1419h26l-518 -1419h-122zM297 501l30 105h667l29 -105h-726zM659 1622q-141 0 -213.5 64.5t-83.5 173.5h81q10 -80 58 -122t158 -42q111 0 160 42t60 122h81q-10 -108 -84.5 -173t-216.5 -65zM798 1929q-52 0 -99 18.5
t-90.5 36.5t-84.5 18q-47 0 -85.5 -17t-76.5 -53v82q33 31 73 46t89 15q52 0 99 -18.5t90.5 -36.5t84.5 -18q47 0 85.5 17t76.5 53v-82q-32 -30 -72 -45.5t-90 -15.5z" />
    <glyph glyph-name="uni1EB5" unicode="&#x1eb5;" horiz-adv-x="1007" 
d="M421 -17q-149 0 -235.5 76.5t-86.5 213.5q0 139 90.5 216.5t287.5 98.5l308 34l9 -88l-312 -35q-139 -15 -200 -68t-61 -147q0 -99 56.5 -151t167.5 -52q79 0 157.5 34.5t140.5 114.5v501q0 105 -33 163t-97 81t-158 23q-61 0 -138 -11.5t-154 -38.5v103q66 23 148 35.5
t155 12.5q128 0 216 -34t133 -115.5t45 -222.5v-727h-101l-9 124h-9q-54 -67 -138 -104t-182 -37zM501 1270q-88 0 -151 37.5t-97 107.5t-39 167h86q8 -115 56 -175t145 -60t144 60t53 175h86q-5 -98 -38.5 -168t-95.5 -107t-149 -37zM641 1665q-55 0 -103 18.5t-93 37
t-89 18.5q-48 0 -86.5 -17t-73.5 -52v85q29 31 69.5 46.5t91.5 15.5q55 0 103 -18.5t93 -37t89 -18.5q49 0 87 17t73 52v-86q-29 -30 -69 -45.5t-92 -15.5z" />
    <glyph glyph-name="uni1EB6" unicode="&#x1eb6;" horiz-adv-x="1321" 
d="M32 0l546 1480h164l546 -1480h-124l-518 1419h26l-518 -1419h-122zM297 501l30 105h667l29 -105h-726zM661 -332q-41 0 -65 21.5t-24 57.5q0 37 24 58.5t65 21.5t65 -21.5t24 -58.5q0 -36 -24 -57.5t-65 -21.5zM663 1622q-96 0 -161 30.5t-100.5 85t-42.5 128.5h85
q12 -81 61.5 -123t157.5 -42t156.5 42t58.5 123h85q-7 -75 -41.5 -129.5t-99 -84.5t-159.5 -30z" />
    <glyph glyph-name="uni1EB7" unicode="&#x1eb7;" horiz-adv-x="1007" 
d="M421 -17q-149 0 -235.5 76.5t-86.5 213.5q0 139 90.5 216.5t287.5 98.5l308 34l9 -88l-312 -35q-139 -15 -200 -68t-61 -147q0 -99 56.5 -151t167.5 -52q79 0 157.5 34.5t140.5 114.5v501q0 105 -33 163t-97 81t-158 23q-61 0 -138 -11.5t-154 -38.5v103q66 23 148 35.5
t155 12.5q128 0 216 -34t133 -115.5t45 -222.5v-727h-101l-9 124h-9q-54 -67 -138 -104t-182 -37zM511 -337q-38 0 -61 22t-23 59q0 38 23 60.5t61 22.5t61 -22.5t23 -60.5q0 -37 -23 -59t-61 -22zM501 1269q-130 0 -204 84t-81 236h86q8 -118 55.5 -180t143.5 -62t143 62
t52 180h86q-6 -153 -78.5 -236.5t-202.5 -83.5z" />
    <glyph glyph-name="uni1EB8" unicode="&#x1eb8;" horiz-adv-x="1143" 
d="M179 0v1480h883v-105h-765v-1270h775v-105h-893zM257 708v105h708v-105h-708zM644 -332q-41 0 -65 21.5t-24 57.5q0 37 24 58.5t65 21.5t65 -21.5t24 -58.5q0 -36 -24 -57.5t-65 -21.5z" />
    <glyph glyph-name="uni1EB9" unicode="&#x1eb9;" horiz-adv-x="1009" 
d="M592 -19q-160 0 -269.5 57t-166 180.5t-56.5 323.5q0 193 52 316.5t146.5 182t222.5 58.5q127 0 217.5 -58.5t138.5 -182.5t48 -318v-41h-762v90h677l-31 -25q0 163 -34.5 260t-99 139.5t-155.5 42.5t-158 -42.5t-103.5 -139t-36.5 -260.5v-38q0 -162 43 -259.5
t128 -140.5t211 -43q61 0 127 11.5t142 34.5v-103q-76 -23 -144.5 -34t-136.5 -11zM521 -337q-38 0 -61 22t-23 59q0 38 23 60.5t61 22.5t61 -22.5t23 -60.5q0 -37 -23 -59t-61 -22z" />
    <glyph glyph-name="uni1EBA" unicode="&#x1eba;" horiz-adv-x="1143" 
d="M179 0v1480h883v-105h-765v-1270h775v-105h-893zM257 708v105h708v-105h-708zM600 1612q2 47 34.5 68.5t66.5 36.5q27 12 47 24.5t20 35.5q0 22 -24.5 36t-94.5 14q-51 0 -98 -8t-98 -27v68q39 16 91.5 25t109.5 9q102 0 148.5 -31t46.5 -81q0 -44 -29 -65t-62 -37
q-28 -12 -50 -26.5t-25 -41.5h-83z" />
    <glyph glyph-name="uni1EBB" unicode="&#x1ebb;" horiz-adv-x="1009" 
d="M592 -19q-160 0 -269.5 57t-166 180.5t-56.5 323.5q0 193 52 316.5t146.5 182t222.5 58.5q127 0 217.5 -58.5t138.5 -182.5t48 -318v-41h-762v90h677l-31 -25q0 163 -34.5 260t-99 139.5t-155.5 42.5t-158 -42.5t-103.5 -139t-36.5 -260.5v-38q0 -162 43 -259.5
t128 -140.5t211 -43q61 0 127 11.5t142 34.5v-103q-76 -23 -144.5 -34t-136.5 -11zM480 1258q1 54 25.5 85.5t55.5 51.5t54.5 40.5t23.5 51.5q0 37 -29 54t-93 17q-36 0 -78 -6t-77 -18v70q31 11 73.5 17.5t82.5 6.5q105 0 153.5 -36t48.5 -100q0 -49 -23.5 -76t-54 -46.5
t-55 -44t-25.5 -67.5h-82z" />
    <glyph glyph-name="uni1EBC" unicode="&#x1ebc;" horiz-adv-x="1143" 
d="M179 0v1480h883v-105h-765v-1270h775v-105h-893zM257 708v105h708v-105h-708zM792 1681q-46 0 -86.5 13t-78.5 28q-34 14 -67.5 24.5t-68.5 10.5q-52 0 -90 -17.5t-74 -53.5v91q29 31 70 47t95 16q46 0 87 -12.5t78 -28.5q34 -13 67.5 -24t68.5 -11q52 0 90.5 17.5
t73.5 53.5v-91q-29 -30 -69.5 -46.5t-95.5 -16.5z" />
    <glyph glyph-name="uni1EBD" unicode="&#x1ebd;" horiz-adv-x="1009" 
d="M592 -19q-160 0 -269.5 57t-166 180.5t-56.5 323.5q0 193 52 316.5t146.5 182t222.5 58.5q127 0 217.5 -58.5t138.5 -182.5t48 -318v-41h-762v90h677l-31 -25q0 163 -34.5 260t-99 139.5t-155.5 42.5t-158 -42.5t-103.5 -139t-36.5 -260.5v-38q0 -162 43 -259.5
t128 -140.5t211 -43q61 0 127 11.5t142 34.5v-103q-76 -23 -144.5 -34t-136.5 -11zM660 1361q-42 0 -80.5 13.5t-73.5 29.5q-32 14 -63 25t-62 11q-47 0 -84.5 -18t-73.5 -56v94q59 64 159 64q42 0 80.5 -13.5t73.5 -28.5q33 -14 63.5 -25.5t61.5 -11.5q48 0 85.5 18
t72.5 56v-94q-59 -64 -159 -64z" />
    <glyph glyph-name="uni1EBE" unicode="&#x1ebe;" horiz-adv-x="1143" 
d="M179 0v1480h883v-105h-765v-1270h775v-105h-893zM257 708v105h708v-105h-708zM341 1612l243 272h116l243 -272h-114l-202 233h30l-202 -233h-114zM863 1797l164 267h107l-185 -267h-86z" />
    <glyph glyph-name="uni1EBF" unicode="&#x1ebf;" horiz-adv-x="1009" 
d="M592 -19q-160 0 -269.5 57t-166 180.5t-56.5 323.5q0 193 52 316.5t146.5 182t222.5 58.5q127 0 217.5 -58.5t138.5 -182.5t48 -318v-41h-762v90h677l-31 -25q0 163 -34.5 260t-99 139.5t-155.5 42.5t-158 -42.5t-103.5 -139t-36.5 -260.5v-38q0 -162 43 -259.5
t128 -140.5t211 -43q61 0 127 11.5t142 34.5v-103q-76 -23 -144.5 -34t-136.5 -11zM243 1258l221 358h114l221 -358h-103l-190 316h30l-190 -316h-103zM728 1596l176 272h117l-198 -272h-95z" />
    <glyph glyph-name="uni1EC0" unicode="&#x1ec0;" horiz-adv-x="1143" 
d="M179 0v1480h883v-105h-765v-1270h775v-105h-893zM257 708v105h708v-105h-708zM347 1612l243 272h115l243 -272h-113l-203 233h31l-203 -233h-113zM892 1797l-185 267h107l164 -267h-86z" />
    <glyph glyph-name="uni1EC1" unicode="&#x1ec1;" horiz-adv-x="1009" 
d="M592 -19q-160 0 -269.5 57t-166 180.5t-56.5 323.5q0 193 52 316.5t146.5 182t222.5 58.5q127 0 217.5 -58.5t138.5 -182.5t48 -318v-41h-762v90h677l-31 -25q0 163 -34.5 260t-99 139.5t-155.5 42.5t-158 -42.5t-103.5 -139t-36.5 -260.5v-38q0 -162 43 -259.5
t128 -140.5t211 -43q61 0 127 11.5t142 34.5v-103q-76 -23 -144.5 -34t-136.5 -11zM244 1258l221 358h113l221 -358h-103l-190 316h31l-191 -316h-102zM749 1596l-198 272h118l176 -272h-96z" />
    <glyph glyph-name="uni1EC2" unicode="&#x1ec2;" horiz-adv-x="1143" 
d="M179 0v1480h883v-105h-765v-1270h775v-105h-893zM257 708v105h708v-105h-708zM341 1612l243 272h116l243 -272h-114l-202 233h30l-202 -233h-114zM863 1797q2 41 28 62.5t58.5 34t57 26t24.5 39.5q0 22 -24.5 35.5t-94.5 13.5q-51 0 -98 -8t-98 -26v65q39 16 91.5 24.5
t109.5 8.5q102 0 148.5 -30t46.5 -78q0 -40 -24 -61t-56 -33.5t-57.5 -28t-28.5 -44.5h-83z" />
    <glyph glyph-name="uni1EC3" unicode="&#x1ec3;" horiz-adv-x="1009" 
d="M592 -19q-160 0 -269.5 57t-166 180.5t-56.5 323.5q0 193 52 316.5t146.5 182t222.5 58.5q127 0 217.5 -58.5t138.5 -182.5t48 -318v-41h-762v90h677l-31 -25q0 163 -34.5 260t-99 139.5t-155.5 42.5t-158 -42.5t-103.5 -139t-36.5 -260.5v-38q0 -162 43 -259.5
t128 -140.5t211 -43q61 0 127 11.5t142 34.5v-103q-76 -23 -144.5 -34t-136.5 -11zM243 1258l221 358h114l221 -358h-103l-190 316h30l-190 -316h-103zM733 1596q2 42 27 63.5t57.5 34t56.5 26t24 38.5q0 22 -24 35.5t-93 13.5q-51 0 -98 -7.5t-97 -26.5v65q39 16 91 25
t108 9q101 0 146.5 -30t45.5 -79q0 -39 -23.5 -59.5t-55 -33t-57 -28.5t-28.5 -46h-80z" />
    <glyph glyph-name="uni1EC4" unicode="&#x1ec4;" horiz-adv-x="1143" 
d="M179 0v1480h883v-105h-765v-1270h775v-105h-893zM257 708v105h708v-105h-708zM341 1612l243 272h116l243 -272h-114l-202 233h30l-202 -233h-114zM781 1929q-54 0 -101 18.5t-91 36.5t-86 18q-47 0 -85.5 -17t-76.5 -53v82q32 31 72 46t90 15q54 0 101.5 -18.5t91 -36.5
t85.5 -18q48 0 86 17t76 53v-82q-32 -30 -72 -45.5t-90 -15.5z" />
    <glyph glyph-name="uni1EC5" unicode="&#x1ec5;" horiz-adv-x="1009" 
d="M592 -19q-160 0 -269.5 57t-166 180.5t-56.5 323.5q0 193 52 316.5t146.5 182t222.5 58.5q127 0 217.5 -58.5t138.5 -182.5t48 -318v-41h-762v90h677l-31 -25q0 163 -34.5 260t-99 139.5t-155.5 42.5t-158 -42.5t-103.5 -139t-36.5 -260.5v-38q0 -162 43 -259.5
t128 -140.5t211 -43q61 0 127 11.5t142 34.5v-103q-76 -23 -144.5 -34t-136.5 -11zM239 1258l224 347h116l224 -347h-105l-192 310h30l-192 -310h-105zM662 1665q-54 0 -102 18.5t-92.5 37t-88.5 18.5q-48 0 -86 -17t-73 -52v86q29 30 69 45.5t91 15.5q54 0 102 -18.5
t92.5 -37t88.5 -18.5q49 0 86.5 17t72.5 52v-86q-29 -30 -69 -45.5t-91 -15.5z" />
    <glyph glyph-name="uni1EC6" unicode="&#x1ec6;" horiz-adv-x="1143" 
d="M179 0v1480h883v-105h-765v-1270h775v-105h-893zM257 708v105h708v-105h-708zM644 -332q-41 0 -65 21.5t-24 57.5q0 37 24 58.5t65 21.5t65 -21.5t24 -58.5q0 -36 -24 -57.5t-65 -21.5zM341 1612l243 278h116l243 -278h-114l-202 237h30l-202 -237h-114z" />
    <glyph glyph-name="uni1EC7" unicode="&#x1ec7;" horiz-adv-x="1009" 
d="M592 -19q-160 0 -269.5 57t-166 180.5t-56.5 323.5q0 193 52 316.5t146.5 182t222.5 58.5q127 0 217.5 -58.5t138.5 -182.5t48 -318v-41h-762v90h677l-31 -25q0 163 -34.5 260t-99 139.5t-155.5 42.5t-158 -42.5t-103.5 -139t-36.5 -260.5v-38q0 -162 43 -259.5
t128 -140.5t211 -43q61 0 127 11.5t142 34.5v-103q-76 -23 -144.5 -34t-136.5 -11zM521 -337q-38 0 -61 22t-23 59q0 38 23 60.5t61 22.5t61 -22.5t23 -60.5q0 -37 -23 -59t-61 -22zM243 1258l221 358h114l221 -358h-103l-190 316h30l-190 -316h-103z" />
    <glyph glyph-name="uni1EC8" unicode="&#x1ec8;" horiz-adv-x="477" 
d="M179 0v1480h119v-1480h-119zM196 1612q2 47 34.5 68.5t66.5 36.5q27 12 47 24.5t20 35.5q0 22 -24.5 36t-94.5 14q-51 0 -98 -8t-98 -27v68q39 16 91.5 25t109.5 9q102 0 148.5 -31t46.5 -81q0 -44 -29 -65t-62 -37q-28 -12 -50 -26.5t-25 -41.5h-83z" />
    <glyph glyph-name="uni1EC9" unicode="&#x1ec9;" horiz-adv-x="438" 
d="M160 0v1083h118v-1083h-118zM178 1258q1 54 25.5 85.5t55.5 51.5t54.5 40.5t23.5 51.5q0 37 -29 54t-93 17q-36 0 -78 -6t-77 -18v70q31 11 73.5 17.5t82.5 6.5q105 0 153.5 -36t48.5 -100q0 -49 -23.5 -76t-54 -46.5t-55 -44t-25.5 -67.5h-82z" />
    <glyph glyph-name="uni1ECA" unicode="&#x1eca;" horiz-adv-x="477" 
d="M179 0v1480h119v-1480h-119zM238 -332q-41 0 -65 21.5t-24 57.5q0 37 24 58.5t65 21.5t65 -21.5t24 -58.5q0 -36 -24 -57.5t-65 -21.5z" />
    <glyph glyph-name="uni1ECB" unicode="&#x1ecb;" horiz-adv-x="438" 
d="M160 0v1083h118v-1083h-118zM219 1339q-42 0 -65.5 22t-23.5 60q0 40 23.5 62.5t65.5 22.5t65.5 -22.5t23.5 -62.5q0 -38 -23.5 -60t-65.5 -22zM219 -337q-38 0 -61 22t-23 59q0 38 23 60.5t61 22.5t61 -22.5t23 -60.5q0 -37 -23 -59t-61 -22z" />
    <glyph glyph-name="uni1ECC" unicode="&#x1ecc;" horiz-adv-x="1407" 
d="M704 -18q-178 0 -311.5 77t-207.5 244t-74 437t74.5 437t208 244t310.5 77t310.5 -77t207.5 -244.5t74 -436.5t-74.5 -436.5t-208 -244.5t-309.5 -77zM704 88q140 0 245 62t163.5 204t58.5 381q0 245 -58.5 388.5t-163.5 206t-245 62.5q-141 0 -246 -62t-163.5 -203.5
t-58.5 -381.5q0 -245 58.5 -388.5t163.5 -206t246 -62.5zM704 -332q-41 0 -65 21.5t-24 57.5q0 37 24 58.5t65 21.5t65 -21.5t24 -58.5q0 -36 -24 -57.5t-65 -21.5z" />
    <glyph glyph-name="uni1ECD" unicode="&#x1ecd;" horiz-adv-x="1087" 
d="M544 -19q-134 0 -233.5 57.5t-155 181t-55.5 321.5q0 197 55 320t154.5 180.5t234.5 57.5q134 0 233.5 -57t154.5 -180t55 -321q0 -197 -55 -320.5t-155 -181.5t-233 -58zM544 83q98 0 170 42.5t111.5 142.5t39.5 270q0 174 -39.5 274t-111.5 143t-170 43t-170.5 -42.5
t-112 -142t-39.5 -269.5q0 -174 39.5 -274.5t111.5 -143.5t171 -43zM544 -337q-38 0 -61 22t-23 59q0 38 23 60.5t61 22.5t61 -22.5t23 -60.5q0 -37 -23 -59t-61 -22z" />
    <glyph glyph-name="uni1ECE" unicode="&#x1ece;" horiz-adv-x="1407" 
d="M704 -18q-178 0 -311.5 77t-207.5 244t-74 437t74.5 437t208 244t310.5 77t310.5 -77t207.5 -244.5t74 -436.5t-74.5 -436.5t-208 -244.5t-309.5 -77zM704 88q140 0 245 62t163.5 204t58.5 381q0 245 -58.5 388.5t-163.5 206t-245 62.5q-141 0 -246 -62t-163.5 -203.5
t-58.5 -381.5q0 -245 58.5 -388.5t163.5 -206t246 -62.5zM662 1612q2 47 34.5 68.5t66.5 36.5q27 12 47 24.5t20 35.5q0 22 -24.5 36t-94.5 14q-51 0 -98 -8t-98 -27v68q39 16 91.5 25t109.5 9q102 0 148.5 -31t46.5 -81q0 -44 -29 -65t-62 -37q-28 -12 -50 -26.5t-25 -41.5
h-83z" />
    <glyph glyph-name="uni1ECF" unicode="&#x1ecf;" horiz-adv-x="1087" 
d="M544 -19q-134 0 -233.5 57.5t-155 181t-55.5 321.5q0 197 55 320t154.5 180.5t234.5 57.5q134 0 233.5 -57t154.5 -180t55 -321q0 -197 -55 -320.5t-155 -181.5t-233 -58zM544 83q98 0 170 42.5t111.5 142.5t39.5 270q0 174 -39.5 274t-111.5 143t-170 43t-170.5 -42.5
t-112 -142t-39.5 -269.5q0 -174 39.5 -274.5t111.5 -143.5t171 -43zM503 1258q1 54 25.5 85.5t55.5 51.5t54.5 40.5t23.5 51.5q0 37 -29 54t-93 17q-36 0 -78 -6t-77 -18v70q31 11 73.5 17.5t82.5 6.5q105 0 153.5 -36t48.5 -100q0 -49 -23.5 -76t-54 -46.5t-55 -44
t-25.5 -67.5h-82z" />
    <glyph glyph-name="uni1ED0" unicode="&#x1ed0;" horiz-adv-x="1407" 
d="M704 -18q-178 0 -311.5 77t-207.5 244t-74 437t74.5 437t208 244t310.5 77t310.5 -77t207.5 -244.5t74 -436.5t-74.5 -436.5t-208 -244.5t-309.5 -77zM704 88q140 0 245 62t163.5 204t58.5 381q0 245 -58.5 388.5t-163.5 206t-245 62.5q-141 0 -246 -62t-163.5 -203.5
t-58.5 -381.5q0 -245 58.5 -388.5t163.5 -206t246 -62.5zM403 1612l243 272h116l243 -272h-114l-202 233h30l-202 -233h-114zM925 1797l164 267h107l-185 -267h-86z" />
    <glyph glyph-name="uni1ED1" unicode="&#x1ed1;" horiz-adv-x="1087" 
d="M544 -19q-134 0 -233.5 57.5t-155 181t-55.5 321.5q0 197 55 320t154.5 180.5t234.5 57.5q134 0 233.5 -57t154.5 -180t55 -321q0 -197 -55 -320.5t-155 -181.5t-233 -58zM544 83q98 0 170 42.5t111.5 142.5t39.5 270q0 174 -39.5 274t-111.5 143t-170 43t-170.5 -42.5
t-112 -142t-39.5 -269.5q0 -174 39.5 -274.5t111.5 -143.5t171 -43zM266 1258l221 358h114l221 -358h-103l-190 316h30l-190 -316h-103zM751 1596l176 272h117l-198 -272h-95z" />
    <glyph glyph-name="uni1ED2" unicode="&#x1ed2;" horiz-adv-x="1407" 
d="M704 -18q-178 0 -311.5 77t-207.5 244t-74 437t74.5 437t208 244t310.5 77t310.5 -77t207.5 -244.5t74 -436.5t-74.5 -436.5t-208 -244.5t-309.5 -77zM704 88q140 0 245 62t163.5 204t58.5 381q0 245 -58.5 388.5t-163.5 206t-245 62.5q-141 0 -246 -62t-163.5 -203.5
t-58.5 -381.5q0 -245 58.5 -388.5t163.5 -206t246 -62.5zM409 1612l243 272h115l243 -272h-113l-203 233h31l-203 -233h-113zM954 1797l-185 267h107l164 -267h-86z" />
    <glyph glyph-name="uni1ED3" unicode="&#x1ed3;" horiz-adv-x="1087" 
d="M544 -19q-134 0 -233.5 57.5t-155 181t-55.5 321.5q0 197 55 320t154.5 180.5t234.5 57.5q134 0 233.5 -57t154.5 -180t55 -321q0 -197 -55 -320.5t-155 -181.5t-233 -58zM544 83q98 0 170 42.5t111.5 142.5t39.5 270q0 174 -39.5 274t-111.5 143t-170 43t-170.5 -42.5
t-112 -142t-39.5 -269.5q0 -174 39.5 -274.5t111.5 -143.5t171 -43zM267 1258l221 358h113l221 -358h-103l-190 316h31l-191 -316h-102zM772 1596l-198 272h118l176 -272h-96z" />
    <glyph glyph-name="uni1ED4" unicode="&#x1ed4;" horiz-adv-x="1407" 
d="M704 -18q-178 0 -311.5 77t-207.5 244t-74 437t74.5 437t208 244t310.5 77t310.5 -77t207.5 -244.5t74 -436.5t-74.5 -436.5t-208 -244.5t-309.5 -77zM704 88q140 0 245 62t163.5 204t58.5 381q0 245 -58.5 388.5t-163.5 206t-245 62.5q-141 0 -246 -62t-163.5 -203.5
t-58.5 -381.5q0 -245 58.5 -388.5t163.5 -206t246 -62.5zM403 1612l243 272h116l243 -272h-114l-202 233h30l-202 -233h-114zM925 1797q2 41 28 62.5t58.5 34t57 26t24.5 39.5q0 22 -24.5 35.5t-94.5 13.5q-51 0 -98 -8t-98 -26v65q39 16 91.5 24.5t109.5 8.5
q102 0 148.5 -30t46.5 -78q0 -40 -24 -61t-56 -33.5t-57.5 -28t-28.5 -44.5h-83z" />
    <glyph glyph-name="uni1ED5" unicode="&#x1ed5;" horiz-adv-x="1087" 
d="M544 -19q-134 0 -233.5 57.5t-155 181t-55.5 321.5q0 197 55 320t154.5 180.5t234.5 57.5q134 0 233.5 -57t154.5 -180t55 -321q0 -197 -55 -320.5t-155 -181.5t-233 -58zM544 83q98 0 170 42.5t111.5 142.5t39.5 270q0 174 -39.5 274t-111.5 143t-170 43t-170.5 -42.5
t-112 -142t-39.5 -269.5q0 -174 39.5 -274.5t111.5 -143.5t171 -43zM266 1258l221 358h114l221 -358h-103l-190 316h30l-190 -316h-103zM756 1596q2 42 27 63.5t57.5 34t56.5 26t24 38.5q0 22 -24 35.5t-93 13.5q-51 0 -98 -7.5t-97 -26.5v65q39 16 91 25t108 9
q101 0 146.5 -30t45.5 -79q0 -39 -23.5 -59.5t-55 -33t-57 -28.5t-28.5 -46h-80z" />
    <glyph glyph-name="uni1ED6" unicode="&#x1ed6;" horiz-adv-x="1407" 
d="M704 -18q-178 0 -311.5 77t-207.5 244t-74 437t74.5 437t208 244t310.5 77t310.5 -77t207.5 -244.5t74 -436.5t-74.5 -436.5t-208 -244.5t-309.5 -77zM704 88q140 0 245 62t163.5 204t58.5 381q0 245 -58.5 388.5t-163.5 206t-245 62.5q-141 0 -246 -62t-163.5 -203.5
t-58.5 -381.5q0 -245 58.5 -388.5t163.5 -206t246 -62.5zM403 1612l243 272h116l243 -272h-114l-202 233h30l-202 -233h-114zM843 1929q-54 0 -101 18.5t-91 36.5t-86 18q-47 0 -85.5 -17t-76.5 -53v82q32 31 72 46t90 15q54 0 101.5 -18.5t91 -36.5t85.5 -18q48 0 86 17
t76 53v-82q-32 -30 -72 -45.5t-90 -15.5z" />
    <glyph glyph-name="uni1ED7" unicode="&#x1ed7;" horiz-adv-x="1087" 
d="M544 -19q-134 0 -233.5 57.5t-155 181t-55.5 321.5q0 197 55 320t154.5 180.5t234.5 57.5q134 0 233.5 -57t154.5 -180t55 -321q0 -197 -55 -320.5t-155 -181.5t-233 -58zM544 83q98 0 170 42.5t111.5 142.5t39.5 270q0 174 -39.5 274t-111.5 143t-170 43t-170.5 -42.5
t-112 -142t-39.5 -269.5q0 -174 39.5 -274.5t111.5 -143.5t171 -43zM262 1258l224 347h116l224 -347h-105l-192 310h30l-192 -310h-105zM685 1665q-54 0 -102 18.5t-92.5 37t-88.5 18.5q-48 0 -86 -17t-73 -52v86q29 30 69 45.5t91 15.5q54 0 102 -18.5t92.5 -37t88.5 -18.5
q49 0 86.5 17t72.5 52v-86q-29 -30 -69 -45.5t-91 -15.5z" />
    <glyph glyph-name="uni1ED8" unicode="&#x1ed8;" horiz-adv-x="1407" 
d="M704 -18q-178 0 -311.5 77t-207.5 244t-74 437t74.5 437t208 244t310.5 77t310.5 -77t207.5 -244.5t74 -436.5t-74.5 -436.5t-208 -244.5t-309.5 -77zM704 88q140 0 245 62t163.5 204t58.5 381q0 245 -58.5 388.5t-163.5 206t-245 62.5q-141 0 -246 -62t-163.5 -203.5
t-58.5 -381.5q0 -245 58.5 -388.5t163.5 -206t246 -62.5zM704 -332q-41 0 -65 21.5t-24 57.5q0 37 24 58.5t65 21.5t65 -21.5t24 -58.5q0 -36 -24 -57.5t-65 -21.5zM403 1612l243 278h116l243 -278h-114l-202 237h30l-202 -237h-114z" />
    <glyph glyph-name="uni1ED9" unicode="&#x1ed9;" horiz-adv-x="1087" 
d="M544 -19q-134 0 -233.5 57.5t-155 181t-55.5 321.5q0 197 55 320t154.5 180.5t234.5 57.5q134 0 233.5 -57t154.5 -180t55 -321q0 -197 -55 -320.5t-155 -181.5t-233 -58zM544 83q98 0 170 42.5t111.5 142.5t39.5 270q0 174 -39.5 274t-111.5 143t-170 43t-170.5 -42.5
t-112 -142t-39.5 -269.5q0 -174 39.5 -274.5t111.5 -143.5t171 -43zM544 -337q-38 0 -61 22t-23 59q0 38 23 60.5t61 22.5t61 -22.5t23 -60.5q0 -37 -23 -59t-61 -22zM266 1258l221 358h114l221 -358h-103l-190 316h30l-190 -316h-103z" />
    </font>
</defs>
</svg>
