<?xml version="1.0" standalone="no"?>
<!DOCTYPE svg PUBLIC "-//W3C//DTD SVG 1.1//EN" "http://www.w3.org/Graphics/SVG/1.1/DTD/svg11.dtd" >
<svg xmlns="http://www.w3.org/2000/svg" xmlns:xlink="http://www.w3.org/1999/xlink" version="1.1">
<metadata>
Created by FontForge 20170731 at Wed Jun 24 20:56:00 2020
 By Aleksey,,,
Copyright 2020 The Encode Project Authors (https://github.com/thundernixon/Encode-Sans), with Reserved Font Name 'Encode Sans'.
</metadata>
<defs>
<font id="EncodeSans-Black" horiz-adv-x="0" >
  <font-face 
    font-family="Encode Sans Black"
    font-weight="900"
    font-stretch="normal"
    units-per-em="2000"
    panose-1="0 0 0 0 0 0 0 0 0 0"
    ascent="1600"
    descent="-400"
    x-height="1100"
    cap-height="1480"
    bbox="-365 -518 3139 2330"
    underline-thickness="50"
    underline-position="-175"
    unicode-range="U+000D-FB02"
  />
<missing-glyph horiz-adv-x="1214" 
d="M607 -10q-114 0 -214.5 5.5t-216.5 20.5v1438q99 21 216.5 30.5t214.5 9.5t214.5 -9.5t216.5 -30.5v-1438q-116 -15 -216.5 -20.5t-214.5 -5.5zM607 1428q-85 0 -174 -7t-189 -21v-1322q65 -10 153.5 -16t209.5 -6t210 6t153 16v1322q-184 28 -363 28zM941 49l-335 635
l-35 64l-349 659l54 26l330 -623l35 -62l357 -674zM271 49l-57 25l357 674l35 62l330 623l54 -26l-349 -659l-35 -64z" />
    <glyph glyph-name=".notdef" horiz-adv-x="1214" 
d="M607 -10q-114 0 -214.5 5.5t-216.5 20.5v1438q99 21 216.5 30.5t214.5 9.5t214.5 -9.5t216.5 -30.5v-1438q-116 -15 -216.5 -20.5t-214.5 -5.5zM607 1428q-85 0 -174 -7t-189 -21v-1322q65 -10 153.5 -16t209.5 -6t210 6t153 16v1322q-184 28 -363 28zM941 49l-335 635
l-35 64l-349 659l54 26l330 -623l35 -62l357 -674zM271 49l-57 25l357 674l35 62l330 623l54 -26l-349 -659l-35 -64z" />
    <glyph glyph-name=".null" 
 />
    <glyph glyph-name="nonmarkingreturn" horiz-adv-x="666" 
 />
    <glyph glyph-name="NULL" 
 />
    <glyph glyph-name="NULL" 
 />
    <glyph glyph-name="CR" unicode="&#xd;" horiz-adv-x="512" 
 />
    <glyph glyph-name="space" unicode=" " horiz-adv-x="512" 
 />
    <glyph glyph-name="exclam" unicode="!" horiz-adv-x="660" 
d="M204 532l-100 464v484h452v-484l-95 -464h-257zM330 -20q-122 0 -195 64t-73 172q0 109 71.5 172.5t196.5 63.5q126 0 197 -65t71 -171q0 -105 -72.5 -170.5t-195.5 -65.5z" />
    <glyph glyph-name="quotedbl" unicode="&#x22;" horiz-adv-x="1014" 
d="M127 798l-77 818h414l-77 -818h-260zM627 798l-77 818h414l-77 -818h-260z" />
    <glyph glyph-name="numbersign" unicode="#" horiz-adv-x="1320" 
d="M647 0l154 1480h321l-154 -1480h-321zM100 350v316h1120v-316h-1120zM198 0l154 1480h321l-154 -1480h-321zM100 814v316h1120v-316h-1120z" />
    <glyph glyph-name="dollar" unicode="$" horiz-adv-x="1214" 
d="M520 -20q-112 0 -226 16.5t-208 44.5v347q63 -19 139 -33t151.5 -22t135.5 -8q91 0 141 13.5t69.5 37.5t19.5 55q0 40 -31 65t-132 51l-132 34q-199 49 -302 157t-103 284q0 226 170 352t520 126q101 0 193 -10.5t163 -27.5v-347q-67 18 -156.5 29t-168.5 11
q-118 0 -181 -15t-86.5 -40t-23.5 -55q0 -35 26 -57.5t109 -45.5l132 -34q148 -36 244 -95.5t142.5 -146.5t46.5 -205q0 -147 -77 -255t-223 -167t-352 -59zM407 -240v320h400v-320h-400zM407 1420v300h400v-300h-400z" />
    <glyph glyph-name="percent" unicode="%" horiz-adv-x="2260" 
d="M623 0l673 1480h341l-673 -1480h-341zM512 566q-131 0 -230.5 53.5t-155.5 157.5t-56 256q0 153 56 257t155.5 157t230.5 53q132 0 231.5 -53t155 -157t55.5 -257q0 -152 -55.5 -256t-155 -157.5t-231.5 -53.5zM512 824q33 0 58.5 19.5t40 65t14.5 124.5t-14.5 124.5
t-40 65t-58.5 19.5t-58 -19.5t-40 -65t-15 -124.5t15 -124.5t40 -65t58 -19.5zM1748 -18q-131 0 -230.5 53t-155.5 157.5t-56 256.5q0 153 56 257t155.5 157t230.5 53q132 0 231.5 -53t155 -157t55.5 -257q0 -152 -55.5 -256.5t-155 -157.5t-231.5 -53zM1748 240
q33 0 58.5 19.5t40 65t14.5 124.5t-14.5 125t-40 65t-58.5 19t-58 -19t-40 -65t-15 -125t15 -124.5t40 -65t58 -19.5z" />
    <glyph glyph-name="ampersand" unicode="&#x26;" horiz-adv-x="1674" 
d="M1481 -20l-928 578q-139 85 -213 163t-102.5 153t-28.5 150q0 221 167.5 348.5t514.5 127.5q80 0 147.5 -6t128.5 -16v-347q-50 10 -115.5 17t-125.5 7q-112 0 -174.5 -17.5t-87.5 -49.5t-25 -74q0 -27 11 -50.5t35 -45.5t61 -45l928 -578zM705 -18q-206 0 -344 52.5
t-208 147.5t-70 224q0 98 40 175.5t106 129.5t144 75l221 -154q-36 -34 -59.5 -76.5t-23.5 -101.5q0 -56 29.5 -94.5t84.5 -59t131 -20.5q95 0 171.5 35t122 118t45.5 229q0 56 -8 120t-23 124h336q15 -60 22.5 -123t7.5 -117q0 -227 -87.5 -379t-250 -228.5t-387.5 -76.5z
" />
    <glyph glyph-name="quotesingle" unicode="'" horiz-adv-x="514" 
d="M127 798l-77 818h414l-77 -818h-260z" />
    <glyph glyph-name="parenleft" unicode="(" horiz-adv-x="754" 
d="M432 -440q-183 201 -263 462t-80 566q0 306 80 567t263 461h441q-123 -150 -200 -310.5t-113 -338t-36 -379.5q0 -201 36 -378.5t113 -338t200 -311.5h-441z" />
    <glyph glyph-name="parenright" unicode=")" horiz-adv-x="754" 
d="M-119 -440q124 151 201 311.5t112.5 338t35.5 378.5q0 202 -35.5 379.5t-112.5 338t-201 310.5h441q184 -200 263.5 -461t79.5 -567q0 -305 -79.5 -566t-263.5 -462h-441z" />
    <glyph glyph-name="asterisk" unicode="*" horiz-adv-x="1064" 
d="M690 1109l142 -122l86 -120l-222 -161l-86 119l-78 188l-78 -188l-86 -119l-222 161l86 120l142 122l-183 16l-161 52l85 261l161 -53l163 -100l-44 187v144h274v-144l-44 -187l163 100l161 53l85 -261l-161 -52z" />
    <glyph glyph-name="plus" unicode="+" horiz-adv-x="1116" 
d="M391 294v306h-295v320h295v306h334v-306h295v-320h-295v-306h-334z" />
    <glyph glyph-name="comma" unicode="," horiz-adv-x="620" 
d="M142 -360q59 116 91 214t32 198l97 -72h-52q-120 0 -194 67t-74 182q0 118 71 183.5t191 65.5q134 0 203 -81t69 -242q0 -134 -52.5 -271t-141.5 -244h-240z" />
    <glyph glyph-name="hyphen" unicode="-" horiz-adv-x="956" 
d="M96 399v342h764v-342h-764z" />
    <glyph glyph-name="period" unicode="." horiz-adv-x="620" 
d="M310 -20q-122 0 -195 67t-73 182q0 116 71.5 182.5t196.5 66.5q126 0 197 -68t71 -181q0 -112 -72.5 -180.5t-195.5 -68.5z" />
    <glyph glyph-name="slash" unicode="/" horiz-adv-x="903" 
d="M0 -240l485 1856h418l-485 -1856h-418z" />
    <glyph glyph-name="zero" unicode="0" horiz-adv-x="1397" 
d="M698 -20q-194 0 -332.5 82.5t-212.5 251t-74 426.5t74 426.5t212.5 251t332.5 82.5t333 -82.5t213 -251t74 -426.5t-74 -426.5t-213 -251t-333 -82.5zM699 331q64 0 107.5 37.5t65.5 126.5t22 245t-22 245.5t-65.5 126.5t-107.5 37t-108 -37t-66 -126.5t-22 -245.5
t21.5 -245t65.5 -126.5t109 -37.5z" />
    <glyph glyph-name="one" unicode="1" horiz-adv-x="898" 
d="M345 0v1244l154 -158l-470 -318v400l470 318h280v-1486h-434z" />
    <glyph glyph-name="two" unicode="2" horiz-adv-x="1132" 
d="M40 0v231l399 474q57 69 91 122t49 96t15 82q0 74 -53 112t-187 38q-88 0 -177.5 -16t-155.5 -41v347q46 15 111.5 28t137 20t133.5 7q309 0 463.5 -108t154.5 -343q0 -72 -19 -145t-63.5 -151.5t-120.5 -165.5l-299 -339l-6 107h573v-355h-1046z" />
    <glyph glyph-name="three" unicode="3" horiz-adv-x="1137" 
d="M441 -20q-110 0 -211.5 13t-192.5 35v317q85 -20 188.5 -34t196.5 -14q140 0 198 38.5t58 111.5t-56.5 110t-203.5 37h-243v322h216q133 0 182.5 36t49.5 96q0 67 -51.5 101t-174.5 34q-83 0 -174.5 -14.5t-165.5 -40.5v317q49 16 115 28.5t138 19.5t137 7
q297 0 443 -107t146 -304q0 -128 -70 -216.5t-193 -116.5v12q148 -24 229.5 -111.5t81.5 -237.5q0 -136 -70 -234.5t-212.5 -151.5t-360.5 -53z" />
    <glyph glyph-name="four" unicode="4" horiz-adv-x="1334" 
d="M30 271v235l477 974h412l-468 -974l-44 95h900v-330h-1277zM742 0v601l40 379h346v-980h-386z" />
    <glyph glyph-name="five" unicode="5" horiz-adv-x="1151" 
d="M468 -20q-110 0 -211.5 15t-192.5 39v317q85 -21 188.5 -35.5t196.5 -14.5q138 0 195.5 38t57.5 108q0 49 -30.5 83t-118.5 54.5t-259 30.5l-189 10l52 855h893v-329h-682l186 189l-36 -546l-249 143l189 -10q235 -13 378 -68.5t208 -155.5t65 -246q0 -233 -161.5 -355
t-479.5 -122z" />
    <glyph glyph-name="six" unicode="6" horiz-adv-x="1317" 
d="M708 -20q-138 0 -252 42t-196 129t-127 221.5t-45 319.5q0 268 91 448t264.5 270t419.5 90q92 0 173.5 -10t150.5 -36v-325q-70 24 -145 35t-156 11q-130 0 -213.5 -41t-124 -123t-40.5 -203v-186q0 -100 14 -165.5t40.5 -102.5t63.5 -52.5t84 -15.5q51 0 89 18t59 54
t21 91q0 57 -22.5 93t-64 53t-97.5 17q-46 0 -90.5 -10.5t-85.5 -32.5t-76 -57v287q55 56 148.5 86.5t192.5 30.5q136 0 246 -47t174 -147.5t64 -260.5q0 -146 -67 -254t-192.5 -167.5t-300.5 -59.5z" />
    <glyph glyph-name="seven" unicode="7" horiz-adv-x="1078" 
d="M143 0l467 1249l147 -124h-746v355h1010v-231l-434 -1249h-444z" />
    <glyph glyph-name="eight" unicode="8" horiz-adv-x="1397" 
d="M700 -20q-223 0 -362.5 51.5t-204.5 139t-65 197.5q0 124 81.5 218.5t239.5 144.5l271 -101q-103 -35 -146.5 -94.5t-43.5 -116.5q0 -69 55.5 -108.5t175.5 -39.5q121 0 172.5 34.5t51.5 92.5q0 43 -25 75t-93 61t-196 61q-192 50 -302.5 121t-157 160.5t-46.5 195.5
q0 126 68.5 222.5t206 151t346.5 54.5q267 0 414.5 -100t147.5 -276q0 -71 -26.5 -138t-89.5 -124t-173 -100l-248 104q91 49 129 101.5t38 112.5q0 62 -48.5 95.5t-148.5 33.5q-112 0 -161 -35.5t-49 -85.5q0 -40 22.5 -70.5t90 -60t203.5 -68.5q194 -55 302.5 -122
t152 -151.5t43.5 -193.5q0 -124 -68 -224t-206.5 -159t-350.5 -59z" />
    <glyph glyph-name="nine" unicode="9" horiz-adv-x="1317" 
d="M609 1500q138 0 252 -42t196 -129t127 -221.5t45 -319.5q0 -268 -91 -448t-264.5 -270t-419.5 -90q-92 0 -173.5 10t-150.5 36v325q70 -24 145 -35t156 -11q130 0 213.5 41t124 123t40.5 203v186q0 100 -14 165.5t-40.5 102.5t-63.5 52.5t-84 15.5q-51 0 -89 -18t-59 -54
t-21 -91q0 -57 22.5 -93t64 -53t97.5 -17q46 0 90.5 10.5t85.5 32.5t76 57v-287q-55 -56 -148.5 -86.5t-192.5 -30.5q-136 0 -246 47t-174 147.5t-64 260.5q0 146 67 254t192.5 167.5t300.5 59.5z" />
    <glyph glyph-name="colon" unicode=":" horiz-adv-x="620" 
d="M310 -20q-122 0 -195 67t-73 182q0 116 71.5 182.5t196.5 66.5q126 0 197 -68t71 -181q0 -112 -72.5 -180.5t-195.5 -68.5zM310 622q-122 0 -195 67t-73 182q0 116 71.5 182.5t196.5 66.5q126 0 197 -68t71 -181q0 -112 -72.5 -180.5t-195.5 -68.5z" />
    <glyph glyph-name="semicolon" unicode=";" horiz-adv-x="620" 
d="M142 -360q59 116 91 214t32 198l97 -72h-52q-120 0 -194 67t-74 182q0 118 71 183.5t191 65.5q134 0 203 -81t69 -242q0 -134 -52.5 -271t-141.5 -244h-240zM310 622q-122 0 -195 67t-73 182q0 116 71.5 182.5t196.5 66.5q126 0 197 -68t71 -181q0 -112 -72.5 -180.5
t-195.5 -68.5z" />
    <glyph glyph-name="less" unicode="&#x3c;" horiz-adv-x="1116" 
d="M1020 226l-924 330v408l924 330v-320l-697 -232v41l697 -237v-320z" />
    <glyph glyph-name="equal" unicode="=" horiz-adv-x="1116" 
d="M96 840v320h924v-320h-924zM96 360v320h924v-320h-924z" />
    <glyph glyph-name="greater" unicode="&#x3e;" horiz-adv-x="1116" 
d="M96 226v320l697 237v-41l-697 232v320l924 -330v-408z" />
    <glyph glyph-name="question" unicode="?" horiz-adv-x="1050" 
d="M340 532l-73 341q130 18 200.5 43.5t97.5 58t27 71.5q0 63 -52 95t-176 32q-83 0 -173.5 -14.5t-164.5 -40.5v327q49 16 115 28.5t138 19.5t137 7q297 0 443 -107.5t146 -308.5q0 -108 -47 -188.5t-132 -135.5t-200 -85l-29 -143h-257zM469 -20q-122 0 -195 64t-73 172
q0 109 71.5 172.5t196.5 63.5q126 0 197 -65t71 -171q0 -105 -72.5 -170.5t-195.5 -65.5z" />
    <glyph glyph-name="at" unicode="@" horiz-adv-x="2208" 
d="M1150 -460q-347 0 -588.5 104.5t-367 321.5t-125.5 554t124 553.5t357.5 320.5t562.5 104q330 0 559 -101.5t348 -303.5t119 -505q0 -224 -65 -358t-181.5 -193t-271.5 -59q-125 0 -215.5 37.5t-146.5 116.5h-21q-29 -88 -104.5 -121t-164.5 -33q-177 0 -274.5 92
t-97.5 239q0 163 116.5 253.5t378.5 105.5l189 11l48 -216l-193 -11q-62 -3 -92.5 -26.5t-30.5 -71.5q0 -45 31 -64.5t72 -19.5q21 0 54 6.5t54 19.5v328q0 57 -19.5 91.5t-67 50t-131.5 15.5q-67 0 -147 -13.5t-150 -38.5l2 313q86 27 185 41.5t190 14.5q194 0 316 -47
t179 -155t57 -291v-261q0 -52 22.5 -75t59.5 -23q40 0 69.5 25t45.5 97t16 212q0 177 -44 301t-134.5 201.5t-229.5 113.5t-330 36q-190 0 -328 -38t-227.5 -122t-133 -220t-43.5 -332q0 -195 44 -331.5t137 -221t238.5 -123t349.5 -38.5q127 0 248.5 13.5t243.5 40.5v-266
q-120 -27 -242.5 -40.5t-249.5 -13.5z" />
    <glyph glyph-name="A" unicode="A" horiz-adv-x="1530" 
d="M4 0l442 1480h638l442 -1480h-424l-359 1295h38l-357 -1295h-420zM373 339l91 340h600l90 -340h-781z" />
    <glyph glyph-name="B" unicode="B" horiz-adv-x="1382" 
d="M561 -20q-63 0 -143.5 4.5t-162 12t-146.5 16.5v1428q74 17 163 30.5t181.5 21t175.5 7.5q235 0 384 -47t219 -141t70 -236q0 -80 -31.5 -146t-86.5 -111.5t-127 -62.5v12q120 -20 202.5 -103t82.5 -241q0 -105 -41.5 -187.5t-133.5 -139.5t-241 -87t-365 -30zM683 290
q101 0 157.5 17t80 50.5t23.5 85.5q0 80 -49 116t-170 36h-235v319h202q77 0 122 15.5t64 46t19 76.5q0 72 -45.5 105t-162.5 33q-40 0 -79.5 -4t-77.5 -11v-879q46 -3 81 -4.5t70 -1.5z" />
    <glyph glyph-name="C" unicode="C" horiz-adv-x="1295" 
d="M909 -20q-204 0 -361 45.5t-263.5 139t-161 236t-54.5 335.5q0 246 99 416.5t290 259t467 88.5q84 0 163.5 -7.5t153.5 -23.5v-352q-65 13 -134.5 20.5t-144.5 7.5q-153 0 -250 -42.5t-143.5 -132t-46.5 -230.5q0 -143 45 -232.5t140 -131t245 -41.5q72 0 145.5 11.5
t143.5 29.5v-352q-69 -20 -157.5 -32t-175.5 -12z" />
    <glyph glyph-name="D" unicode="D" horiz-adv-x="1566" 
d="M552 -17q-65 0 -141.5 3t-154 8.5t-147.5 13.5v1433q75 17 162.5 30t180 19.5t181.5 6.5q429 0 646.5 -183t217.5 -574q0 -267 -103.5 -434t-313.5 -245t-528 -78zM671 331q129 0 214 39.5t126.5 129.5t41.5 242q0 151 -44 241t-129.5 129t-211.5 39q-27 0 -63 -3t-62 -9
v-805q35 -2 67 -2.5t61 -0.5z" />
    <glyph glyph-name="E" unicode="E" horiz-adv-x="1313" 
d="M109 0v1480h1122v-342h-694v-796h704v-342h-1132zM362 584v342h764v-342h-764z" />
    <glyph glyph-name="F" unicode="F" horiz-adv-x="1272" 
d="M109 0v1480h1122v-349h-688v-1131h-434zM378 532v349h748v-349h-748z" />
    <glyph glyph-name="G" unicode="G" horiz-adv-x="1479" 
d="M973 -20q-303 0 -504 84t-300.5 251.5t-99.5 420.5q0 246 102.5 416.5t306 259t507.5 88.5q88 0 172.5 -8t162.5 -26v-352q-70 15 -143 23t-151 8q-183 0 -293.5 -43t-161 -135t-50.5 -238q0 -135 45.5 -223t138 -131t232.5 -43q54 0 112 4.5t105 10.5l-188 -158v531h402
v-705q-97 -15 -197.5 -25t-197.5 -10z" />
    <glyph glyph-name="H" unicode="H" horiz-adv-x="1580" 
d="M109 0v1480h434v-535h494v535h434v-1480h-434v565h-494v-565h-434z" />
    <glyph glyph-name="I" unicode="I" horiz-adv-x="652" 
d="M109 0v1480h434v-1480h-434z" />
    <glyph glyph-name="J" unicode="J" horiz-adv-x="652" 
d="M243 -354l-274 182q55 72 86 142t43.5 150.5t12.5 183.5v1176h432v-1160q0 -125 -28 -237.5t-94 -220t-178 -216.5z" />
    <glyph glyph-name="K" unicode="K" horiz-adv-x="1392" 
d="M986 0l-473 752l445 728h452l-475 -776l8 110l510 -814h-467zM109 0v1480h434v-1480h-434zM485 565v380h192v-380h-192z" />
    <glyph glyph-name="L" unicode="L" horiz-adv-x="1199" 
d="M109 0v1480h434v-1123h648v-357h-1082z" />
    <glyph glyph-name="M" unicode="M" horiz-adv-x="1956" 
d="M113 0v1480h531l362 -864h-42l348 864h531v-1480h-404v1100h76l-363 -880h-348l-382 880h95v-1100h-404z" />
    <glyph glyph-name="N" unicode="N" horiz-adv-x="1592" 
d="M109 0v1480h433l600 -932h-66v932h407v-1480h-433l-600 932h66v-932h-407z" />
    <glyph glyph-name="O" unicode="O" horiz-adv-x="1644" 
d="M822 -20q-228 0 -397 85.5t-262.5 254.5t-93.5 420q0 252 93 421t262 254t398 85t398 -85.5t262 -254.5t93 -420q0 -250 -93 -419t-262 -255t-398 -86zM822 326q100 0 169 43t104.5 132.5t35.5 230.5q0 149 -36 242t-105 136.5t-168 43.5q-98 0 -167 -42t-105.5 -131.5
t-36.5 -232.5q0 -150 36 -243t104.5 -136t168.5 -43z" />
    <glyph glyph-name="P" unicode="P" horiz-adv-x="1373" 
d="M109 0v1450q113 23 235.5 36.5t258.5 13.5q355 0 531.5 -133t176.5 -422q0 -274 -169 -414t-490 -140q-29 0 -55.5 1t-53.5 3v-395h-434zM656 711q120 0 178 51.5t58 180.5q0 126 -59.5 181.5t-187.5 55.5q-31 0 -54 -1.5t-48 -6.5v-454q29 -3 54.5 -5t58.5 -2z" />
    <glyph glyph-name="Q" unicode="Q" horiz-adv-x="1644" 
d="M1487 -374q-331 55 -572 134.5t-404.5 181.5t-260 225t-139 264t-42.5 299q0 257 93 428t262 256.5t398 85.5t398 -85.5t262 -254.5t93 -420q0 -219 -77.5 -381t-233 -251t-389.5 -89q-43 0 -87.5 3t-91.5 9l145 104q128 -47 247 -80.5t235.5 -56t235.5 -38.5zM822 326
q100 0 169 43t104.5 132.5t35.5 230.5q0 149 -36 242t-105 136.5t-168 43.5q-98 0 -167 -42t-105.5 -131.5t-36.5 -232.5q0 -151 35.5 -244t104 -135.5t169.5 -42.5z" />
    <glyph glyph-name="R" unicode="R" horiz-adv-x="1425" 
d="M109 0v1441q74 17 159.5 30.5t174.5 21t174 7.5q337 0 510 -122t173 -379q0 -165 -80 -276.5t-224 -168.5t-337 -57q-32 0 -62 1.5t-62 2.5v-501h-426zM959 0l-445 676h459l455 -676h-469zM669 814q110 0 168 42t58 143q0 65 -26 106.5t-77 61.5t-125 20q-36 0 -69.5 -3
t-62.5 -9v-353l44 -4t44.5 -3t45.5 -1z" />
    <glyph glyph-name="S" unicode="S" horiz-adv-x="1214" 
d="M531 -20q-120 0 -235.5 18t-209.5 48v347q63 -20 139 -35.5t155 -24t148 -8.5q125 0 169.5 29.5t44.5 76.5q0 40 -31 65t-132 51l-132 34q-199 49 -302 157t-103 284q0 226 168 352t507 126q111 0 205.5 -12t165.5 -31v-347q-67 21 -159 33t-184 12q-109 0 -168 -15
t-82 -40t-23 -55q0 -35 26 -57.5t109 -45.5l132 -34q148 -36 244 -95.5t142.5 -146.5t46.5 -205q0 -147 -76.5 -255t-220 -167t-344.5 -59z" />
    <glyph glyph-name="T" unicode="T" horiz-adv-x="1359" 
d="M462 0v1123h-449v357h1333v-357h-449v-1123h-435z" />
    <glyph glyph-name="U" unicode="U" horiz-adv-x="1547" 
d="M778 -20q-234 0 -383 74t-220.5 223t-71.5 372v831h434v-872q0 -148 62 -212t179 -64t178.5 64t61.5 212v872h426v-831q0 -223 -70 -372t-217.5 -223t-378.5 -74z" />
    <glyph glyph-name="V" unicode="V" horiz-adv-x="1510" 
d="M433 0l-439 1480h452l367 -1307h-94l376 1307h421l-439 -1480h-644z" />
    <glyph glyph-name="W" unicode="W" horiz-adv-x="2388" 
d="M387 0l-373 1480h437l300 -1293h-110l330 1293h472l311 -1293h-99l310 1293h409l-373 -1480h-554l-301 1218h115l-320 -1218h-554z" />
    <glyph glyph-name="X" unicode="X" horiz-adv-x="1441" 
d="M1022 0l-306 467l-251 308l-479 705h478l257 -389l251 -311l525 -780h-475zM-60 0l525 775l256 316l256 389h465l-470 -700l-256 -313l-306 -467h-470z" />
    <glyph glyph-name="Y" unicode="Y" horiz-adv-x="1359" 
d="M465 0v779l86 -316l-617 1017h456l360 -609h-116l356 609h422l-599 -1017l86 310v-773h-434z" />
    <glyph glyph-name="Z" unicode="Z" horiz-adv-x="1297" 
d="M58 0v237l664 963v-77h-654v357h1161v-237l-664 -963v77h674v-357h-1181z" />
    <glyph glyph-name="bracketleft" unicode="[" horiz-adv-x="754" 
d="M129 -440v2056h651v-330h-226v-1396h216v-330h-641z" />
    <glyph glyph-name="backslash" unicode="\" horiz-adv-x="903" 
d="M485 -240l-485 1856h418l485 -1856h-418z" />
    <glyph glyph-name="bracketright" unicode="]" horiz-adv-x="754" 
d="M-16 -440v330h216v1396h-226v330h651v-2056h-641z" />
    <glyph glyph-name="asciicircum" unicode="^" horiz-adv-x="1320" 
d="M44 740l421 740h390l421 -740h-408l-299 537h182l-299 -537h-408z" />
    <glyph glyph-name="underscore" unicode="_" horiz-adv-x="1268" 
d="M85 -331v330h1098v-330h-1098z" />
    <glyph glyph-name="grave" unicode="`" horiz-adv-x="1200" 
d="M406 1220l-293 396h448l233 -396h-388z" />
    <glyph glyph-name="a" unicode="a" horiz-adv-x="1176" 
d="M416 -22q-177 0 -274.5 93.5t-97.5 237.5q0 163 116.5 255t378.5 106l189 10l48 -223l-190 -10q-66 -3 -96 -28.5t-30 -68.5q0 -39 27 -61.5t76 -22.5q26 0 54.5 6t53.5 20v347q0 59 -20 94.5t-69.5 51.5t-138.5 16q-64 0 -145.5 -10t-153.5 -31v313q89 23 191 34t189 11
q199 0 322.5 -47.5t181 -159t57.5 -301.5v-610h-348l-29 101h-18q-46 -66 -117.5 -94.5t-156.5 -28.5z" />
    <glyph glyph-name="b" unicode="b" horiz-adv-x="1297" 
d="M577 -21q-119 0 -245 16.5t-235 52.5v1568h425v-619h19q47 60 115.5 90.5t156.5 30.5q116 0 214 -59t157.5 -179.5t59.5 -306.5q0 -285 -163 -439.5t-504 -154.5zM614 295q103 0 153.5 55.5t50.5 189.5q0 91 -21 142t-60 71.5t-95 20.5q-30 0 -61.5 -6t-58.5 -19v-444
q20 -4 43.5 -7t48.5 -3z" />
    <glyph glyph-name="c" unicode="c" horiz-adv-x="1019" 
d="M679 -22q-202 0 -341.5 64.5t-212 191t-72.5 313.5q0 191 77.5 318t223.5 190t353 63q73 0 137 -6t122 -18v-330q-51 8 -98.5 12t-98.5 4q-99 0 -160.5 -24.5t-90 -75.5t-28.5 -130q0 -83 29 -134.5t86 -75.5t142 -24q52 0 102 8t117 23v-330q-58 -18 -132.5 -28.5
t-154.5 -10.5z" />
    <glyph glyph-name="d" unicode="d" horiz-adv-x="1297" 
d="M516 -20q-123 0 -228.5 57t-170 178t-64.5 312q0 188 71.5 320.5t211.5 202t346 69.5q25 0 49 -1t44 -3v501h425v-1616h-356l-25 113h-18q-45 -60 -116.5 -96.5t-168.5 -36.5zM648 323q34 0 68 8.5t59 25.5v437q-19 4 -43.5 6t-48.5 2q-102 0 -153 -54.5t-51 -188.5
q0 -92 21 -143t59 -72t89 -21z" />
    <glyph glyph-name="e" unicode="e" horiz-adv-x="1162" 
d="M712 -22q-231 0 -376.5 60.5t-214 187t-68.5 325.5q0 175 63.5 302.5t187 196t303.5 68.5q170 0 284 -69t171 -199.5t57 -312.5v-106h-822v234h491l-61 -17q0 80 -12.5 126t-40.5 65t-72 19t-72 -19t-41.5 -64.5t-13.5 -125.5v-175q0 -68 22.5 -107.5t87 -56.5t189.5 -17
q66 0 138.5 8.5t141.5 20.5v-311q-93 -18 -176.5 -25.5t-165.5 -7.5z" />
    <glyph glyph-name="f" unicode="f" horiz-adv-x="860" 
d="M189 0v1121q0 159 64 274.5t188.5 178t303.5 62.5q48 0 87.5 -3t80.5 -9v-326q-27 3 -49.5 4.5t-47.5 1.5q-110 0 -157.5 -41t-47.5 -122v-1141h-422zM29 770v330h835v-330h-835z" />
    <glyph glyph-name="g" unicode="g" horiz-adv-x="1297" 
d="M531 -460q-95 0 -196 9.5t-201 32.5v326q97 -24 190.5 -35.5t170.5 -11.5q151 0 215.5 50t64.5 158v50h-19q-46 -59 -114.5 -90t-157.5 -31q-112 0 -210.5 59t-159.5 176.5t-61 294.5q0 277 163.5 433.5t504.5 156.5q79 0 164 -8t166.5 -23t148.5 -38v-899
q0 -319 -164 -464.5t-505 -145.5zM655 339q31 0 62.5 6.5t57.5 18.5v429q-19 4 -42.5 6.5t-49.5 2.5q-98 0 -151 -54t-53 -185q0 -86 20.5 -135t60 -69t95.5 -20z" />
    <glyph glyph-name="h" unicode="h" horiz-adv-x="1280" 
d="M97 0v1616h425v-619h19q50 58 120 89.5t161 31.5q101 0 184.5 -46t133 -147t49.5 -267v-658h-425v627q0 73 -28 100.5t-78 27.5q-26 0 -51 -6.5t-47 -18t-38 -27.5v-703h-425z" />
    <glyph glyph-name="i" unicode="i" horiz-adv-x="620" 
d="M97 0v1100h426v-1100h-426zM310 1208q-131 0 -192.5 55t-61.5 155q0 101 61.5 155.5t192.5 54.5q133 0 193.5 -54.5t60.5 -155.5q0 -100 -60.5 -155t-193.5 -55z" />
    <glyph glyph-name="j" unicode="j" horiz-adv-x="620" 
d="M227 -476l-272 180q55 72 86 142t43.5 150.5t12.5 183.5v920h426v-904q0 -125 -28 -237t-92.5 -219t-175.5 -216zM305 1208q-131 0 -192.5 55t-61.5 155q0 101 61.5 155.5t192.5 54.5q133 0 193.5 -54.5t60.5 -155.5q0 -100 -60.5 -155t-193.5 -55z" />
    <glyph glyph-name="k" unicode="k" horiz-adv-x="1273" 
d="M856 0l-354 566l327 534h448l-348 -580v110l385 -630h-458zM490 398v336h154v-336h-154zM97 0v1616h425v-1616h-425z" />
    <glyph glyph-name="l" unicode="l" horiz-adv-x="619" 
d="M97 0v1616h425v-1616h-425z" />
    <glyph glyph-name="m" unicode="m" horiz-adv-x="1877" 
d="M97 0v1100h349l28 -104h18q55 60 130.5 91t171.5 31q102 0 183.5 -45t129 -143.5t47.5 -258.5v-671h-416v632q0 71 -24.5 97t-69.5 26q-25 0 -48 -6.5t-42 -18t-32 -27.5v-703h-425zM1362 0v632q0 71 -27.5 97t-72.5 26q-28 0 -51.5 -6.5t-42.5 -18t-33 -27.5l-80 259
q70 81 159.5 118.5t184.5 37.5q112 0 199.5 -46t137.5 -147.5t50 -268.5v-656h-424z" />
    <glyph glyph-name="n" unicode="n" horiz-adv-x="1280" 
d="M97 0v1100h349l28 -104h18q57 60 135.5 91t172.5 31q112 0 200 -46t138.5 -147.5t50.5 -266.5v-658h-425v630q0 72 -27.5 98.5t-78.5 26.5q-27 0 -52 -6.5t-46.5 -18t-37.5 -27.5v-703h-425z" />
    <glyph glyph-name="o" unicode="o" horiz-adv-x="1266" 
d="M633 -22q-179 0 -309 65t-200.5 191.5t-70.5 311.5q0 188 68 315t197.5 192t314.5 65t315 -66t197.5 -193t67.5 -311q0 -186 -70 -313t-200 -192t-310 -65zM633 294q51 0 85.5 22t51.5 77t17 153q0 101 -17.5 156.5t-52 77.5t-84.5 22t-84.5 -22t-52 -77t-17.5 -155
q0 -99 17.5 -154.5t51.5 -77.5t85 -22z" />
    <glyph glyph-name="p" unicode="p" horiz-adv-x="1297" 
d="M97 -440v1540h356l25 -115h18q46 61 117.5 97t167.5 36q124 0 229.5 -57t169.5 -177.5t64 -312.5q0 -187 -71 -319.5t-211 -202.5t-347 -70q-24 0 -47.5 1.5t-45.5 2.5v-423h-425zM614 296q103 0 153.5 55t50.5 188q0 92 -20.5 143.5t-58.5 72t-90 20.5q-33 0 -67 -8
t-60 -26v-437q20 -2 44.5 -5t47.5 -3z" />
    <glyph glyph-name="q" unicode="q" horiz-adv-x="1297" 
d="M775 -440v540h-19q-46 -59 -114.5 -90t-157.5 -31q-115 0 -213.5 59t-158 180t-59.5 306q0 286 163.5 440t503.5 154q80 0 165 -8t166.5 -23t148.5 -38v-1489h-425zM655 323q31 0 62.5 6.5t57.5 18.5v445q-19 4 -42.5 6.5t-50.5 2.5q-97 0 -150 -54.5t-53 -190.5
q0 -91 21 -142t60.5 -71.5t94.5 -20.5z" />
    <glyph glyph-name="r" unicode="r" horiz-adv-x="868" 
d="M97 0v1100h346l33 -139h18q40 84 110.5 120.5t161.5 36.5q24 0 49 -2.5t42 -5.5v-382q-27 6 -59 8t-59 2q-42 0 -84 -8.5t-76.5 -24.5t-56.5 -39v-666h-425z" />
    <glyph glyph-name="s" unicode="s" horiz-adv-x="1030" 
d="M461 -22q-102 0 -200.5 13t-182.5 38v304q80 -23 178 -37.5t197 -14.5q87 0 118 16t31 42q0 19 -11 28t-42 14l-198 34q-158 27 -232.5 108t-74.5 221q0 172 141 273t431 101q87 0 170.5 -10t145.5 -27v-304q-62 18 -142 28t-161 10q-82 0 -123.5 -9t-55.5 -23.5
t-14 -29.5t12.5 -23.5t42.5 -14.5l198 -34q144 -24 224.5 -97t80.5 -231q0 -174 -140.5 -274.5t-392.5 -100.5z" />
    <glyph glyph-name="t" unicode="t" horiz-adv-x="906" 
d="M633 -21q-219 0 -335.5 108t-116.5 338v675l79 380h346v-989q0 -96 33 -131t116 -35q23 0 48 2.5t56 7.5v-330q-44 -10 -106 -18t-120 -8zM21 770v330h838v-330h-838z" />
    <glyph glyph-name="u" unicode="u" horiz-adv-x="1271" 
d="M487 -19q-114 0 -203.5 46t-141 147t-51.5 265v661h425v-630q0 -72 27.5 -99t73.5 -27q24 0 48.5 6.5t46.5 18.5t37 27v704h425v-1100h-349l-28 104h-16q-59 -60 -133 -91.5t-161 -31.5z" />
    <glyph glyph-name="v" unicode="v" horiz-adv-x="1238" 
d="M354 0l-366 1100h442l215 -756h-26l215 756h416l-367 -1100h-529z" />
    <glyph glyph-name="w" unicode="w" horiz-adv-x="1890" 
d="M311 0l-279 1100h399l145 -675h-15l163 675h462l158 -675h-24l156 675h382l-277 -1100h-462l-179 736h19l-186 -736h-462z" />
    <glyph glyph-name="x" unicode="x" horiz-adv-x="1204" 
d="M765 0l-166 265l-247 289l-368 546h463l160 -250l242 -291l379 -559h-463zM-23 0l375 554l255 296l157 250h450l-365 -541l-250 -294l-172 -265h-450z" />
    <glyph glyph-name="y" unicode="y" horiz-adv-x="1238" 
d="M321 -440l149 440l149 344l215 756h416l-515 -1540h-414zM354 0l-366 1100h442l316 -1100h-392z" />
    <glyph glyph-name="z" unicode="z" horiz-adv-x="1075" 
d="M67 0v270l488 572v-72h-478v330h941v-270l-488 -572v72h498v-330h-961z" />
    <glyph glyph-name="braceleft" unicode="{" horiz-adv-x="794" 
d="M623 -460q-225 0 -339.5 107t-114.5 307v404q0 49 -30 79t-79 30h-68v330h68q49 0 79 30.5t30 78.5v316q0 202 114.5 308t339.5 106q58 0 106.5 -4t90.5 -10v-322h-119q-52 0 -79.5 -21t-27.5 -73v-294q0 -147 -89.5 -225.5t-304.5 -78.5v48q215 0 304.5 -78.5
t89.5 -225.5v-382q0 -50 27.5 -72t79.5 -22h119v-322q-42 -6 -90.5 -10t-106.5 -4z" />
    <glyph glyph-name="bar" unicode="|" horiz-adv-x="598" 
d="M109 -440v2056h380v-2056h-380z" />
    <glyph glyph-name="braceright" unicode="}" horiz-adv-x="794" 
d="M171 -460q-57 0 -105.5 4t-91.5 10v322h119q53 0 80 22t27 72v382q0 147 91 225.5t303 78.5v-48q-212 0 -303 78.5t-91 225.5v294q0 52 -27 73t-80 21h-119v322q43 6 91.5 10t105.5 4q226 0 340 -106t114 -308v-316q0 -48 30.5 -78.5t78.5 -30.5h68v-330h-68
q-48 0 -78.5 -30t-30.5 -79v-404q0 -200 -114 -307t-340 -107z" />
    <glyph glyph-name="asciitilde" unicode="~" horiz-adv-x="1116" 
d="M764 544q-62 0 -119 20t-111 43q-49 21 -96.5 38t-94.5 17q-72 0 -128.5 -25.5t-118.5 -84.5v322q98 102 256 102q63 0 119.5 -20t110.5 -43q50 -21 97 -38t94 -17q73 0 129.5 26t117.5 84v-322q-97 -102 -256 -102z" />
    <glyph glyph-name="uni00A0" unicode="&#xa0;" horiz-adv-x="512" 
 />
    <glyph glyph-name="exclamdown" unicode="&#xa1;" horiz-adv-x="660" 
d="M204 542h257l95 -451v-471h-452v471zM330 1120q123 0 195.5 -68t72.5 -181q0 -112 -71 -180.5t-197 -68.5q-125 0 -196.5 67t-71.5 182q0 116 73 182.5t195 66.5z" />
    <glyph glyph-name="cent" unicode="&#xa2;" horiz-adv-x="1024" 
d="M679 -22q-202 0 -341.5 64.5t-212 191t-72.5 313.5q0 191 77.5 318t223.5 190t353 63q73 0 137 -6t122 -18v-330q-51 8 -98.5 12t-98.5 4q-99 0 -160.5 -24.5t-90 -75.5t-28.5 -130q0 -83 29 -134.5t86 -75.5t142 -24q52 0 102 8t117 23v-330q-58 -18 -132.5 -28.5
t-154.5 -10.5zM455 -240v300h360v-300h-360zM455 1040v300h360v-300h-360z" />
    <glyph glyph-name="sterling" unicode="&#xa3;" horiz-adv-x="1395" 
d="M250 124v852q0 253 170 388.5t520 135.5q101 0 193 -10.5t163 -27.5v-347q-67 18 -156.5 29t-168.5 11q-119 0 -184 -16.5t-91 -52t-26 -92.5v-870h-420zM70 0v342h1273v-342h-1273zM70 595v310h1026v-310h-1026z" />
    <glyph glyph-name="currency" unicode="&#xa4;" horiz-adv-x="1320" 
d="M436 800l-236 204l-120 118l198 198l118 -120l204 -236zM884 800l-164 164l204 236l118 120l198 -198l-120 -118zM1042 160l-118 120l-204 236l164 164l236 -204l120 -118zM278 160l-198 198l120 118l236 204l164 -164l-204 -236zM660 356q-110 0 -198.5 48t-140 134.5
t-51.5 201.5q0 114 51.5 200t140 134t198.5 48t198.5 -48t140 -134t51.5 -200q0 -115 -51.5 -201.5t-140 -134.5t-198.5 -48zM660 580q63 0 105.5 42.5t42.5 117.5q0 69 -40.5 114.5t-105.5 45.5q-64 0 -107 -42.5t-43 -117.5t42.5 -117.5t105.5 -42.5z" />
    <glyph glyph-name="yen" unicode="&#xa5;" horiz-adv-x="1357" 
d="M464 0v779l86 -316l-617 1017h456l360 -609h-116l356 609h422l-599 -1017l86 310v-773h-434zM154 237v242h1054v-242h-1054zM154 569v242h1054v-242h-1054z" />
    <glyph glyph-name="brokenbar" unicode="&#xa6;" horiz-adv-x="598" 
d="M109 836v780h380v-780h-380zM109 -440v780h380v-780h-380z" />
    <glyph glyph-name="section" unicode="&#xa7;" horiz-adv-x="1172" 
d="M491 -22q-82 0 -177 11t-179 31v286q82 -21 172 -31.5t178 -10.5q73 0 110.5 8t51 21t13.5 29q0 20 -12.5 30.5t-41.5 15.5l-251 48q-122 25 -201.5 99.5t-79.5 216.5q0 95 49.5 162.5t132.5 113.5l216 -140q-29 -35 -41.5 -60.5t-12.5 -52.5q0 -29 18 -49t66 -30
l252 -48q133 -26 210 -92.5t77 -190.5q0 -168 -139 -267.5t-411 -99.5zM897 460l-225 147q48 39 65 63.5t17 51.5t-16.5 48t-65.5 30l-251 48q-138 27 -219 96t-81 183q0 113 60 196t189.5 129t336.5 46q76 0 153 -6.5t139 -19.5v-286q-63 14 -128 20t-131 6
q-101 0 -152 -9.5t-68.5 -24t-17.5 -28.5q0 -18 14.5 -27t42.5 -15l261 -46q126 -23 202 -95.5t76 -216.5q0 -100 -55 -171t-146 -119z" />
    <glyph glyph-name="dieresis" unicode="&#xa8;" horiz-adv-x="1200" 
d="M864 1215q-107 0 -163 54t-56 149q0 96 56 149.5t163 53.5q108 0 163.5 -54t55.5 -149t-55.5 -149t-163.5 -54zM336 1215q-107 0 -163 54t-56 149q0 96 56 149.5t163 53.5q108 0 163.5 -54t55.5 -149t-55.5 -149t-163.5 -54z" />
    <glyph glyph-name="copyright" unicode="&#xa9;" horiz-adv-x="1638" 
d="M819 -22q-226 0 -394.5 95t-262 266.5t-93.5 400.5t93.5 400.5t262 266.5t394.5 95t394.5 -95t262 -266.5t93.5 -400.5t-93.5 -400.5t-262 -266.5t-394.5 -95zM889 324q-204 0 -325 107.5t-121 300.5q0 195 124 303.5t334 108.5q56 0 103 -5.5t89 -16.5v-250
q-45 8 -83.5 12t-80.5 4q-97 0 -141.5 -40.5t-44.5 -115.5q0 -73 45 -112.5t129 -39.5q42 0 80 5.5t96 18.5v-250q-37 -13 -89.5 -21.5t-114.5 -8.5zM819 190q169 0 287 66.5t179.5 190t61.5 293.5t-61.5 293.5t-179.5 190t-287 66.5t-287 -66.5t-179.5 -190t-61.5 -293.5
t61.5 -293.5t179.5 -190t287 -66.5z" />
    <glyph glyph-name="ordfeminine" unicode="&#xaa;" horiz-adv-x="982" 
d="M329 592q-153 0 -231.5 76.5t-78.5 190.5q0 137 95 208t311 79l158 6l49 -180l-146 -4q-44 -1 -63.5 -16.5t-19.5 -44.5q0 -30 20 -46t56 -16q11 0 25.5 1.5t26.5 3.5v281q0 28 -12.5 47.5t-51 29.5t-115.5 10q-59 0 -125 -8t-124 -24v279q79 19 165.5 28t162.5 9
q174 0 282.5 -40.5t158.5 -133t50 -249.5v-469h-325l-28 81h-17q-36 -54 -95 -76.5t-128 -22.5z" />
    <glyph glyph-name="guillemotleft" unicode="&#xab;" horiz-adv-x="1370" 
d="M314 130l-248 440l248 440h430l-248 -440l248 -440h-430zM914 130l-248 440l248 440h430l-248 -440l248 -440h-430z" />
    <glyph glyph-name="logicalnot" unicode="&#xac;" horiz-adv-x="1332" 
d="M907 200v400h-811v320h1145v-720h-334z" />
    <glyph glyph-name="uni00AD" unicode="&#xad;" horiz-adv-x="956" 
d="M96 399v342h764v-342h-764z" />
    <glyph glyph-name="registered" unicode="&#xae;" horiz-adv-x="1394" 
d="M697 268q-181 0 -318.5 77.5t-214.5 216t-77 320.5t77 321t214.5 217t318.5 78t318.5 -78t214.5 -217t77 -321t-77 -320.5t-214.5 -216t-318.5 -77.5zM803 600l-134 194l164 26l152 -220h-182zM697 424q134 0 233.5 56.5t154 159.5t54.5 242q0 140 -54.5 243.5t-154 160
t-233.5 56.5t-233.5 -56.5t-154 -160t-54.5 -243.5q0 -139 54.5 -242t154 -159.5t233.5 -56.5zM475 600v592h214q134 0 199 -50t65 -153q0 -104 -64.5 -153.5t-199.5 -49.5h-42l-6 -186h-166zM647 918h68q76 0 76 70q0 72 -76 72h-68v-142z" />
    <glyph glyph-name="macron" unicode="&#xaf;" horiz-adv-x="1200" 
d="M214 1295v248h772v-248h-772z" />
    <glyph glyph-name="degree" unicode="&#xb0;" horiz-adv-x="966" 
d="M483 722q-114 0 -203.5 50.5t-141 138.5t-51.5 201t51.5 200.5t141 137.5t203.5 50t203.5 -50t141 -137.5t51.5 -200.5t-51 -201t-141 -138.5t-204 -50.5zM484 959q60 0 101 41t41 112q0 72 -41.5 111.5t-101.5 39.5q-59 0 -101 -39.5t-42 -111.5q0 -71 41.5 -112
t102.5 -41z" />
    <glyph glyph-name="plusminus" unicode="&#xb1;" horiz-adv-x="1116" 
d="M391 398v276h-295v320h295v276h334v-276h295v-320h-295v-276h-334zM96 1v320h924v-320h-924z" />
    <glyph glyph-name="uni00B2" unicode="&#xb2;" horiz-adv-x="900" 
d="M76 616v172l275 310q57 65 81 108.5t24 78.5q0 43 -34 66t-129 23q-59 0 -122 -11.5t-108 -27.5v258q55 18 131.5 27.5t149.5 9.5q220 0 331 -74t111 -237q0 -75 -33.5 -148.5t-109.5 -158.5l-193 -211l3 80h376v-265h-753z" />
    <glyph glyph-name="uni00B3" unicode="&#xb3;" horiz-adv-x="900" 
d="M355 602q-74 0 -147 8.5t-141 23.5v237q65 -15 138 -24t133 -9q92 0 128 22t36 63q0 43 -32 63t-117 20h-199v239h187q72 0 97.5 20t25.5 52q0 38 -33 58t-116 20q-55 0 -121 -10t-116 -29v237q51 16 129.5 26.5t148.5 10.5q216 0 321 -73t105 -209q0 -84 -45 -143.5
t-124 -77.5v7q96 -16 149 -74.5t53 -158.5q0 -139 -113 -219t-347 -80z" />
    <glyph glyph-name="acute" unicode="&#xb4;" horiz-adv-x="1200" 
d="M406 1220l233 396h448l-293 -396h-388z" />
    <glyph glyph-name="uni00B5" unicode="&#xb5;" horiz-adv-x="1271" 
d="M582 -19q-78 0 -139 46t-96 147t-35 265v261h204v-230q0 -72 27.5 -99t73.5 -27q24 0 48.5 6.5t46.5 18.5t37 27v704h425v-1100h-349l-28 104h-16q-40 -60 -90 -91.5t-109 -31.5zM91 -440v1539h425v-1539h-425z" />
    <glyph glyph-name="paragraph" unicode="&#xb6;" horiz-adv-x="1373" 
d="M548 0v392q-16 0 -31.5 -0.5t-33.5 -0.5q-205 0 -313 140t-108 414q0 289 117.5 422t373.5 133q74 0 148.5 -5t139.5 -15v-1480h-293zM971 0v1480h293v-1480h-293z" />
    <glyph glyph-name="periodcentered" unicode="&#xb7;" horiz-adv-x="620" 
d="M310 311q-122 0 -195 67t-73 182q0 116 71.5 182.5t196.5 66.5q126 0 197 -68t71 -181q0 -112 -72.5 -180.5t-195.5 -68.5z" />
    <glyph glyph-name="cedilla" unicode="&#xb8;" horiz-adv-x="1200" 
d="M591 -460q-53 0 -100 8t-89 21v152q39 -14 86.5 -21t80.5 -7q47 0 70.5 14t23.5 48q0 64 -95 64h-52v201h194v-142l-92 53q129 0 194.5 -51.5t65.5 -143.5q0 -90 -70 -143t-217 -53z" />
    <glyph glyph-name="uni00B9" unicode="&#xb9;" horiz-adv-x="900" 
d="M324 646v797l118 -108l-310 -188v285l310 188h217v-974h-335zM125 616v265h722v-265h-722z" />
    <glyph glyph-name="ordmasculine" unicode="&#xba;" horiz-adv-x="1054" 
d="M527 592q-242 0 -371.5 121.5t-129.5 333.5q0 213 129.5 334t371.5 121q243 0 372 -123t129 -332q0 -139 -58 -241t-169.5 -158t-273.5 -56zM527 876q34 0 58.5 15t37.5 52t13 104q0 68 -13 105t-37.5 51.5t-58.5 14.5q-33 0 -57 -14.5t-38 -51.5t-14 -105q0 -67 14 -104
t38 -52t57 -15z" />
    <glyph glyph-name="guillemotright" unicode="&#xbb;" horiz-adv-x="1370" 
d="M26 130l248 440l-248 440h430l248 -440l-248 -440h-430zM626 130l248 440l-248 440h430l248 -440l-248 -440h-430z" />
    <glyph glyph-name="onequarter" unicode="&#xbc;" horiz-adv-x="2231" 
d="M324 646v797l118 -108l-310 -188v285l310 188h217v-974h-335zM125 616v265h722v-265h-722zM535 -136l812 1752h349l-812 -1752h-349zM1353 37v176l280 651h306l-276 -651l-26 70h573v-246h-857zM1807 -136v419l59 243h231v-662h-290z" />
    <glyph glyph-name="onehalf" unicode="&#xbd;" horiz-adv-x="2231" 
d="M324 646v797l118 -108l-310 -188v285l310 188h217v-974h-335zM125 616v265h722v-265h-722zM535 -136l812 1752h349l-812 -1752h-349zM1407 -136v172l275 310q57 65 81 108.5t24 78.5q0 43 -34 66t-129 23q-59 0 -122 -11.5t-108 -27.5v258q55 18 131.5 27.5t149.5 9.5
q220 0 331 -74t111 -237q0 -75 -33.5 -148.5t-109.5 -158.5l-193 -211l3 80h376v-265h-753z" />
    <glyph glyph-name="threequarters" unicode="&#xbe;" horiz-adv-x="2231" 
d="M355 602q-74 0 -147 8.5t-141 23.5v237q65 -15 138 -24t133 -9q92 0 128 22t36 63q0 43 -32 63t-117 20h-199v239h187q72 0 97.5 20t25.5 52q0 38 -33 58t-116 20q-55 0 -121 -10t-116 -29v237q51 16 129.5 26.5t148.5 10.5q216 0 321 -73t105 -209q0 -84 -45 -143.5
t-124 -77.5v7q96 -16 149 -74.5t53 -158.5q0 -139 -113 -219t-347 -80zM535 -136l812 1752h349l-812 -1752h-349zM1353 37v176l280 651h306l-276 -651l-26 70h573v-246h-857zM1807 -136v419l59 243h231v-662h-290z" />
    <glyph glyph-name="questiondown" unicode="&#xbf;" horiz-adv-x="1050" 
d="M710 568l73 -341q-129 -17 -199.5 -42.5t-98 -58.5t-27.5 -72q0 -62 52.5 -94.5t175.5 -32.5q84 0 174.5 15t163.5 40v-327q-49 -16 -115 -28t-137.5 -19.5t-137.5 -7.5q-297 0 -443 108t-146 308q0 108 47 189t132.5 136t199.5 84l29 143h257zM581 1120
q123 0 195.5 -63.5t72.5 -172.5q0 -108 -71 -172t-197 -64q-125 0 -196.5 65.5t-71.5 170.5q0 106 73 171t195 65z" />
    <glyph glyph-name="Agrave" unicode="&#xc0;" horiz-adv-x="1530" 
d="M4 0l442 1480h638l442 -1480h-424l-359 1295h38l-357 -1295h-420zM373 339l91 340h600l90 -340h-781zM573 1586l-245 316h444l183 -316h-382z" />
    <glyph glyph-name="Aacute" unicode="&#xc1;" horiz-adv-x="1530" 
d="M4 0l442 1480h638l442 -1480h-424l-359 1295h38l-357 -1295h-420zM373 339l91 340h600l90 -340h-781zM571 1586l183 316h444l-245 -316h-382z" />
    <glyph glyph-name="Acircumflex" unicode="&#xc2;" horiz-adv-x="1530" 
d="M4 0l442 1480h638l442 -1480h-424l-359 1295h38l-357 -1295h-420zM373 339l91 340h600l90 -340h-781zM325 1586l262 316h354l262 -316h-310l-159 205h60l-159 -205h-310z" />
    <glyph glyph-name="Atilde" unicode="&#xc3;" horiz-adv-x="1530" 
d="M4 0l442 1480h638l442 -1480h-424l-359 1295h38l-357 -1295h-420zM373 339l91 340h600l90 -340h-781zM948 1586q-57 0 -106 13t-96 27q-42 14 -84.5 25t-89.5 11q-66 0 -116 -17t-102 -53v233q46 40 98.5 58.5t127.5 18.5q58 0 107 -13t95 -28q43 -13 85.5 -25t88.5 -12
q67 0 117 17.5t101 52.5v-233q-44 -39 -97.5 -57t-128.5 -18z" />
    <glyph glyph-name="Adieresis" unicode="&#xc4;" horiz-adv-x="1530" 
d="M4 0l442 1480h638l442 -1480h-424l-359 1295h38l-357 -1295h-420zM373 339l91 340h600l90 -340h-781zM1037 1570q-109 0 -163.5 47.5t-54.5 132.5q0 86 54.5 133t163.5 47q110 0 164 -47t54 -133q0 -85 -54 -132.5t-164 -47.5zM491 1570q-109 0 -163.5 47.5t-54.5 132.5
q0 86 54.5 133t163.5 47q110 0 164 -47t54 -133q0 -85 -54 -132.5t-164 -47.5z" />
    <glyph glyph-name="Aring" unicode="&#xc5;" horiz-adv-x="1530" 
d="M4 0l442 1480h638l442 -1480h-424l-359 1295h38l-357 -1295h-420zM373 339l91 340h600l90 -340h-781zM764 1570q-99 0 -163.5 62t-64.5 158t64.5 158t163.5 62t163.5 -62t64.5 -158t-64.5 -158t-163.5 -62zM764 1708q35 0 56.5 22.5t21.5 59.5q0 38 -21.5 60t-55.5 22
q-35 0 -57 -22t-22 -60q0 -37 22 -59.5t56 -22.5z" />
    <glyph glyph-name="AE" unicode="&#xc6;" horiz-adv-x="2112" 
d="M4 0l442 1480h639v-342h-343l-315 -1138h-423zM373 338l91 342h612v-342h-703zM1003 0l-118 1480h1145v-342h-701l74 -796h637v-342h-1037zM1160 584v342h765v-342h-765z" />
    <glyph glyph-name="Ccedilla" unicode="&#xc7;" horiz-adv-x="1295" 
d="M909 -20q-204 0 -361 45.5t-263.5 139t-161 236t-54.5 335.5q0 246 99 416.5t290 259t467 88.5q84 0 163.5 -7.5t153.5 -23.5v-352q-65 13 -134.5 20.5t-144.5 7.5q-153 0 -250 -42.5t-143.5 -132t-46.5 -230.5q0 -143 45 -232.5t140 -131t245 -41.5q72 0 145.5 11.5
t143.5 29.5v-352q-69 -20 -157.5 -32t-175.5 -12zM735 -460q-61 0 -112.5 8t-96.5 21v152q44 -14 95 -21t92 -7q57 0 85.5 14t28.5 47q0 35 -29 50t-86 15h-52v201h194v-142l-92 53q142 0 211 -50.5t69 -141.5q0 -90 -73 -144.5t-234 -54.5z" />
    <glyph glyph-name="Egrave" unicode="&#xc8;" horiz-adv-x="1313" 
d="M109 0v1480h1122v-342h-694v-796h704v-342h-1132zM362 584v342h764v-342h-764zM501 1586l-245 316h444l183 -316h-382z" />
    <glyph glyph-name="Eacute" unicode="&#xc9;" horiz-adv-x="1313" 
d="M109 0v1480h1122v-342h-694v-796h704v-342h-1132zM362 584v342h764v-342h-764zM499 1586l183 316h444l-245 -316h-382z" />
    <glyph glyph-name="Ecircumflex" unicode="&#xca;" horiz-adv-x="1313" 
d="M109 0v1480h1122v-342h-694v-796h704v-342h-1132zM362 584v342h764v-342h-764zM253 1586l262 316h354l262 -316h-310l-159 205h60l-159 -205h-310z" />
    <glyph glyph-name="Edieresis" unicode="&#xcb;" horiz-adv-x="1313" 
d="M109 0v1480h1122v-342h-694v-796h704v-342h-1132zM362 584v342h764v-342h-764zM965 1570q-109 0 -163.5 47.5t-54.5 132.5q0 86 54.5 133t163.5 47q110 0 164 -47t54 -133q0 -85 -54 -132.5t-164 -47.5zM419 1570q-109 0 -163.5 47.5t-54.5 132.5q0 86 54.5 133t163.5 47
q110 0 164 -47t54 -133q0 -85 -54 -132.5t-164 -47.5z" />
    <glyph glyph-name="Igrave" unicode="&#xcc;" horiz-adv-x="652" 
d="M109 0v1480h434v-1480h-434zM135 1586l-245 316h444l183 -316h-382z" />
    <glyph glyph-name="Iacute" unicode="&#xcd;" horiz-adv-x="652" 
d="M109 0v1480h434v-1480h-434zM133 1586l183 316h444l-245 -316h-382z" />
    <glyph glyph-name="Icircumflex" unicode="&#xce;" horiz-adv-x="652" 
d="M109 0v1480h434v-1480h-434zM-113 1586l262 316h354l262 -316h-310l-159 205h60l-159 -205h-310z" />
    <glyph glyph-name="Idieresis" unicode="&#xcf;" horiz-adv-x="652" 
d="M109 0v1480h434v-1480h-434zM599 1570q-109 0 -163.5 47.5t-54.5 132.5q0 86 54.5 133t163.5 47q110 0 164 -47t54 -133q0 -85 -54 -132.5t-164 -47.5zM53 1570q-109 0 -163.5 47.5t-54.5 132.5q0 86 54.5 133t163.5 47q110 0 164 -47t54 -133q0 -85 -54 -132.5
t-164 -47.5z" />
    <glyph glyph-name="Eth" unicode="&#xd0;" horiz-adv-x="1566" 
d="M4 627v270h774v-270h-774zM552 -17q-65 0 -141.5 3t-154 8.5t-147.5 13.5v1433q75 17 162.5 30t180 19.5t181.5 6.5q429 0 646.5 -183t217.5 -574q0 -267 -103.5 -434t-313.5 -245t-528 -78zM671 331q129 0 214 39.5t126.5 129.5t41.5 242q0 151 -44 241t-129.5 129
t-211.5 39q-27 0 -63 -3t-62 -9v-805q35 -2 67 -2.5t61 -0.5z" />
    <glyph glyph-name="Ntilde" unicode="&#xd1;" horiz-adv-x="1592" 
d="M109 0v1480h433l600 -932h-66v932h407v-1480h-433l-600 932h66v-932h-407zM980 1586q-57 0 -106 13t-96 27q-42 14 -84.5 25t-89.5 11q-66 0 -116 -17t-102 -53v233q46 40 98.5 58.5t127.5 18.5q58 0 107 -13t95 -28q43 -13 85.5 -25t88.5 -12q67 0 117 17.5t101 52.5
v-233q-44 -39 -97.5 -57t-128.5 -18z" />
    <glyph glyph-name="Ograve" unicode="&#xd2;" horiz-adv-x="1644" 
d="M822 -20q-228 0 -397 85.5t-262.5 254.5t-93.5 420q0 252 93 421t262 254t398 85t398 -85.5t262 -254.5t93 -420q0 -250 -93 -419t-262 -255t-398 -86zM822 326q100 0 169 43t104.5 132.5t35.5 230.5q0 149 -36 242t-105 136.5t-168 43.5q-98 0 -167 -42t-105.5 -131.5
t-36.5 -232.5q0 -150 36 -243t104.5 -136t168.5 -43zM631 1586l-245 316h444l183 -316h-382z" />
    <glyph glyph-name="Oacute" unicode="&#xd3;" horiz-adv-x="1644" 
d="M822 -20q-228 0 -397 85.5t-262.5 254.5t-93.5 420q0 252 93 421t262 254t398 85t398 -85.5t262 -254.5t93 -420q0 -250 -93 -419t-262 -255t-398 -86zM822 326q100 0 169 43t104.5 132.5t35.5 230.5q0 149 -36 242t-105 136.5t-168 43.5q-98 0 -167 -42t-105.5 -131.5
t-36.5 -232.5q0 -150 36 -243t104.5 -136t168.5 -43zM629 1586l183 316h444l-245 -316h-382z" />
    <glyph glyph-name="Ocircumflex" unicode="&#xd4;" horiz-adv-x="1644" 
d="M822 -20q-228 0 -397 85.5t-262.5 254.5t-93.5 420q0 252 93 421t262 254t398 85t398 -85.5t262 -254.5t93 -420q0 -250 -93 -419t-262 -255t-398 -86zM822 326q100 0 169 43t104.5 132.5t35.5 230.5q0 149 -36 242t-105 136.5t-168 43.5q-98 0 -167 -42t-105.5 -131.5
t-36.5 -232.5q0 -150 36 -243t104.5 -136t168.5 -43zM383 1586l262 316h354l262 -316h-310l-159 205h60l-159 -205h-310z" />
    <glyph glyph-name="Otilde" unicode="&#xd5;" horiz-adv-x="1644" 
d="M822 -20q-228 0 -397 85.5t-262.5 254.5t-93.5 420q0 252 93 421t262 254t398 85t398 -85.5t262 -254.5t93 -420q0 -250 -93 -419t-262 -255t-398 -86zM822 326q100 0 169 43t104.5 132.5t35.5 230.5q0 149 -36 242t-105 136.5t-168 43.5q-98 0 -167 -42t-105.5 -131.5
t-36.5 -232.5q0 -150 36 -243t104.5 -136t168.5 -43zM1006 1586q-57 0 -106 13t-96 27q-42 14 -84.5 25t-89.5 11q-66 0 -116 -17t-102 -53v233q46 40 98.5 58.5t127.5 18.5q58 0 107 -13t95 -28q43 -13 85.5 -25t88.5 -12q67 0 117 17.5t101 52.5v-233q-44 -39 -97.5 -57
t-128.5 -18z" />
    <glyph glyph-name="Odieresis" unicode="&#xd6;" horiz-adv-x="1644" 
d="M822 -20q-228 0 -397 85.5t-262.5 254.5t-93.5 420q0 252 93 421t262 254t398 85t398 -85.5t262 -254.5t93 -420q0 -250 -93 -419t-262 -255t-398 -86zM822 326q100 0 169 43t104.5 132.5t35.5 230.5q0 149 -36 242t-105 136.5t-168 43.5q-98 0 -167 -42t-105.5 -131.5
t-36.5 -232.5q0 -150 36 -243t104.5 -136t168.5 -43zM1095 1570q-109 0 -163.5 47.5t-54.5 132.5q0 86 54.5 133t163.5 47q110 0 164 -47t54 -133q0 -85 -54 -132.5t-164 -47.5zM549 1570q-109 0 -163.5 47.5t-54.5 132.5q0 86 54.5 133t163.5 47q110 0 164 -47t54 -133
q0 -85 -54 -132.5t-164 -47.5z" />
    <glyph glyph-name="multiply" unicode="&#xd7;" horiz-adv-x="1068" 
d="M292 292l-226 226l242 242l-242 242l226 226l242 -242l242 242l226 -226l-242 -242l242 -242l-226 -226l-242 242z" />
    <glyph glyph-name="Oslash" unicode="&#xd8;" horiz-adv-x="1644" 
d="M366 -3h-279l1189 1485h279zM822 -20q-228 0 -397 85.5t-262.5 254.5t-93.5 420q0 252 93 421t262 254t398 85t398 -85.5t262 -254.5t93 -420q0 -250 -93 -419t-262 -255t-398 -86zM822 326q100 0 169 43t104.5 132.5t35.5 230.5q0 149 -36 242t-105 136.5t-168 43.5
q-98 0 -167 -42t-105.5 -131.5t-36.5 -232.5q0 -150 36 -243t104.5 -136t168.5 -43z" />
    <glyph glyph-name="Ugrave" unicode="&#xd9;" horiz-adv-x="1547" 
d="M778 -20q-234 0 -383 74t-220.5 223t-71.5 372v831h434v-872q0 -148 62 -212t179 -64t178.5 64t61.5 212v872h426v-831q0 -223 -70 -372t-217.5 -223t-378.5 -74zM587 1586l-245 316h444l183 -316h-382z" />
    <glyph glyph-name="Uacute" unicode="&#xda;" horiz-adv-x="1547" 
d="M778 -20q-234 0 -383 74t-220.5 223t-71.5 372v831h434v-872q0 -148 62 -212t179 -64t178.5 64t61.5 212v872h426v-831q0 -223 -70 -372t-217.5 -223t-378.5 -74zM585 1586l183 316h444l-245 -316h-382z" />
    <glyph glyph-name="Ucircumflex" unicode="&#xdb;" horiz-adv-x="1547" 
d="M778 -20q-234 0 -383 74t-220.5 223t-71.5 372v831h434v-872q0 -148 62 -212t179 -64t178.5 64t61.5 212v872h426v-831q0 -223 -70 -372t-217.5 -223t-378.5 -74zM339 1586l262 316h354l262 -316h-310l-159 205h60l-159 -205h-310z" />
    <glyph glyph-name="Udieresis" unicode="&#xdc;" horiz-adv-x="1547" 
d="M778 -20q-234 0 -383 74t-220.5 223t-71.5 372v831h434v-872q0 -148 62 -212t179 -64t178.5 64t61.5 212v872h426v-831q0 -223 -70 -372t-217.5 -223t-378.5 -74zM1051 1570q-109 0 -163.5 47.5t-54.5 132.5q0 86 54.5 133t163.5 47q110 0 164 -47t54 -133
q0 -85 -54 -132.5t-164 -47.5zM505 1570q-109 0 -163.5 47.5t-54.5 132.5q0 86 54.5 133t163.5 47q110 0 164 -47t54 -133q0 -85 -54 -132.5t-164 -47.5z" />
    <glyph glyph-name="Yacute" unicode="&#xdd;" horiz-adv-x="1359" 
d="M465 0v779l86 -316l-617 1017h456l360 -609h-116l356 609h422l-599 -1017l86 310v-773h-434zM487 1586l183 316h444l-245 -316h-382z" />
    <glyph glyph-name="Thorn" unicode="&#xde;" horiz-adv-x="1383" 
d="M109 0v1480h434v-167q18 1 38 1.5t37 0.5q345 0 519 -133t174 -422q0 -275 -168.5 -414.5t-486.5 -139.5q-30 0 -57.5 1t-55.5 2v-209h-434zM656 526q120 0 178 51.5t58 180.5q0 126 -59.5 181.5t-187.5 55.5q-31 0 -54 -1.5t-48 -5.5v-456q29 -3 54.5 -4.5t58.5 -1.5z
" />
    <glyph glyph-name="germandbls" unicode="&#xdf;" horiz-adv-x="1686" 
d="M1090 -22q-80 0 -176 11t-180 31v304q48 -12 108 -21.5t123 -15.5t119 -6q106 0 140 16t34 42q0 19 -11 28t-42 14l-198 34q-158 27 -232.5 108t-74.5 221q0 172 137.5 267t407.5 95q20 0 53.5 -0.5t67 -2t53.5 -3.5l-238 -194q14 48 21.5 97t7.5 101q0 87 -34.5 141.5
t-96.5 79.5t-145 25q-110 0 -181 -39t-105 -117t-34 -195v-999h-425v992q0 199 84.5 343.5t243.5 222.5t383 78q180 0 316.5 -60t213 -185.5t76.5 -322.5q0 -70 -10 -133t-28 -127q-35 4 -76 5.5t-84 1.5q-93 0 -139.5 -9t-61.5 -23.5t-15 -29.5t12.5 -23.5t42.5 -14.5
l198 -34q144 -24 224.5 -97t80.5 -231q0 -174 -144 -274.5t-416 -100.5zM29 764v336h312v-336h-312z" />
    <glyph glyph-name="agrave" unicode="&#xe0;" horiz-adv-x="1176" 
d="M416 -22q-177 0 -274.5 93.5t-97.5 237.5q0 163 116.5 255t378.5 106l189 10l48 -223l-190 -10q-66 -3 -96 -28.5t-30 -68.5q0 -39 27 -61.5t76 -22.5q26 0 54.5 6t53.5 20v347q0 59 -20 94.5t-69.5 51.5t-138.5 16q-64 0 -145.5 -10t-153.5 -31v313q89 23 191 34t189 11
q199 0 322.5 -47.5t181 -159t57.5 -301.5v-610h-348l-29 101h-18q-46 -66 -117.5 -94.5t-156.5 -28.5zM391 1220l-293 396h448l233 -396h-388z" />
    <glyph glyph-name="aacute" unicode="&#xe1;" horiz-adv-x="1176" 
d="M416 -22q-177 0 -274.5 93.5t-97.5 237.5q0 163 116.5 255t378.5 106l189 10l48 -223l-190 -10q-66 -3 -96 -28.5t-30 -68.5q0 -39 27 -61.5t76 -22.5q26 0 54.5 6t53.5 20v347q0 59 -20 94.5t-69.5 51.5t-138.5 16q-64 0 -145.5 -10t-153.5 -31v313q89 23 191 34t189 11
q199 0 322.5 -47.5t181 -159t57.5 -301.5v-610h-348l-29 101h-18q-46 -66 -117.5 -94.5t-156.5 -28.5zM391 1220l233 396h448l-293 -396h-388z" />
    <glyph glyph-name="acircumflex" unicode="&#xe2;" horiz-adv-x="1176" 
d="M416 -22q-177 0 -274.5 93.5t-97.5 237.5q0 163 116.5 255t378.5 106l189 10l48 -223l-190 -10q-66 -3 -96 -28.5t-30 -68.5q0 -39 27 -61.5t76 -22.5q26 0 54.5 6t53.5 20v347q0 59 -20 94.5t-69.5 51.5t-138.5 16q-64 0 -145.5 -10t-153.5 -31v313q89 23 191 34t189 11
q199 0 322.5 -47.5t181 -159t57.5 -301.5v-610h-348l-29 101h-18q-46 -66 -117.5 -94.5t-156.5 -28.5zM176 1220l239 396h340l239 -396h-295l-142 254h56l-142 -254h-295z" />
    <glyph glyph-name="atilde" unicode="&#xe3;" horiz-adv-x="1176" 
d="M416 -22q-177 0 -274.5 93.5t-97.5 237.5q0 163 116.5 255t378.5 106l189 10l48 -223l-190 -10q-66 -3 -96 -28.5t-30 -68.5q0 -39 27 -61.5t76 -22.5q26 0 54.5 6t53.5 20v347q0 59 -20 94.5t-69.5 51.5t-138.5 16q-64 0 -145.5 -10t-153.5 -31v313q89 23 191 34t189 11
q199 0 322.5 -47.5t181 -159t57.5 -301.5v-610h-348l-29 101h-18q-46 -66 -117.5 -94.5t-156.5 -28.5zM753 1245q-51 0 -97 17t-89 36q-40 18 -78.5 32t-79.5 14q-60 0 -109 -21t-101 -70v256q86 84 218 84q52 0 98 -16.5t88 -35.5q40 -18 79 -32.5t79 -14.5q61 0 110 22
t100 69v-256q-85 -84 -218 -84z" />
    <glyph glyph-name="adieresis" unicode="&#xe4;" horiz-adv-x="1176" 
d="M416 -22q-177 0 -274.5 93.5t-97.5 237.5q0 163 116.5 255t378.5 106l189 10l48 -223l-190 -10q-66 -3 -96 -28.5t-30 -68.5q0 -39 27 -61.5t76 -22.5q26 0 54.5 6t53.5 20v347q0 59 -20 94.5t-69.5 51.5t-138.5 16q-64 0 -145.5 -10t-153.5 -31v313q89 23 191 34t189 11
q199 0 322.5 -47.5t181 -159t57.5 -301.5v-610h-348l-29 101h-18q-46 -66 -117.5 -94.5t-156.5 -28.5zM849 1215q-107 0 -163 54t-56 149q0 96 56 149.5t163 53.5q108 0 163.5 -54t55.5 -149t-55.5 -149t-163.5 -54zM321 1215q-107 0 -163 54t-56 149q0 96 56 149.5
t163 53.5q108 0 163.5 -54t55.5 -149t-55.5 -149t-163.5 -54z" />
    <glyph glyph-name="aring" unicode="&#xe5;" horiz-adv-x="1176" 
d="M416 -22q-177 0 -274.5 93.5t-97.5 237.5q0 163 116.5 255t378.5 106l189 10l48 -223l-190 -10q-66 -3 -96 -28.5t-30 -68.5q0 -39 27 -61.5t76 -22.5q26 0 54.5 6t53.5 20v347q0 59 -20 94.5t-69.5 51.5t-138.5 16q-64 0 -145.5 -10t-153.5 -31v313q89 23 191 34t189 11
q199 0 322.5 -47.5t181 -159t57.5 -301.5v-610h-348l-29 101h-18q-46 -66 -117.5 -94.5t-156.5 -28.5zM585 1214q-99 0 -163.5 62t-64.5 158t64.5 158t163.5 62t163.5 -62t64.5 -158t-64.5 -158t-163.5 -62zM585 1352q35 0 56.5 22.5t21.5 59.5q0 38 -21.5 60t-55.5 22
q-35 0 -57 -22t-22 -60q0 -37 22 -59.5t56 -22.5z" />
    <glyph glyph-name="ae" unicode="&#xe6;" horiz-adv-x="1764" 
d="M1316 -22q-226 0 -367.5 60.5t-207.5 187t-66 325.5l67 30q0 158 58 279t168 189.5t265 68.5q154 0 263.5 -68t167 -197.5t57.5 -315.5v-106h-704v234h373l-61 -17q0 80 -12.5 126t-39.5 65t-69 19t-69.5 -19t-40.5 -64.5t-13 -125.5v-175q0 -68 22.5 -107.5t85 -56.5
t183.5 -17q66 0 138.5 8.5t141.5 20.5v-311q-93 -18 -176 -25.5t-164 -7.5zM456 -22q-138 0 -229.5 42.5t-137 118t-45.5 174.5q0 106 51.5 185.5t161 123t283.5 43.5h206v-225h-160q-45 0 -73 -11.5t-40.5 -32.5t-12.5 -49q0 -38 27.5 -59t79.5 -21q45 0 83 14.5t81 52.5
l113 -185q-79 -93 -179 -132t-209 -39zM675 551v85q0 61 -22 97t-73.5 52t-138.5 16q-62 0 -143 -10t-153 -31v313q96 24 186.5 34.5t173.5 10.5q183 0 296.5 -51t165.5 -160.5t52 -284.5v-71h-344z" />
    <glyph glyph-name="ccedilla" unicode="&#xe7;" horiz-adv-x="1019" 
d="M679 -22q-202 0 -341.5 64.5t-212 191t-72.5 313.5q0 191 77.5 318t223.5 190t353 63q73 0 137 -6t122 -18v-330q-51 8 -98.5 12t-98.5 4q-99 0 -160.5 -24.5t-90 -75.5t-28.5 -130q0 -83 29 -134.5t86 -75.5t142 -24q52 0 102 8t117 23v-330q-58 -18 -132.5 -28.5
t-154.5 -10.5zM568 -460q-53 0 -100 8t-89 21v152q39 -14 86.5 -21t80.5 -7q47 0 70.5 14t23.5 48q0 64 -95 64h-52v201h194v-142l-92 53q129 0 194.5 -51.5t65.5 -143.5q0 -90 -70 -143t-217 -53z" />
    <glyph glyph-name="egrave" unicode="&#xe8;" horiz-adv-x="1162" 
d="M712 -22q-231 0 -376.5 60.5t-214 187t-68.5 325.5q0 175 63.5 302.5t187 196t303.5 68.5q170 0 284 -69t171 -199.5t57 -312.5v-106h-822v234h491l-61 -17q0 80 -12.5 126t-40.5 65t-72 19t-72 -19t-41.5 -64.5t-13.5 -125.5v-175q0 -68 22.5 -107.5t87 -56.5t189.5 -17
q66 0 138.5 8.5t141.5 20.5v-311q-93 -18 -176.5 -25.5t-165.5 -7.5zM404 1220l-293 396h448l233 -396h-388z" />
    <glyph glyph-name="eacute" unicode="&#xe9;" horiz-adv-x="1162" 
d="M712 -22q-231 0 -376.5 60.5t-214 187t-68.5 325.5q0 175 63.5 302.5t187 196t303.5 68.5q170 0 284 -69t171 -199.5t57 -312.5v-106h-822v234h491l-61 -17q0 80 -12.5 126t-40.5 65t-72 19t-72 -19t-41.5 -64.5t-13.5 -125.5v-175q0 -68 22.5 -107.5t87 -56.5t189.5 -17
q66 0 138.5 8.5t141.5 20.5v-311q-93 -18 -176.5 -25.5t-165.5 -7.5zM404 1220l233 396h448l-293 -396h-388z" />
    <glyph glyph-name="ecircumflex" unicode="&#xea;" horiz-adv-x="1162" 
d="M712 -22q-231 0 -376.5 60.5t-214 187t-68.5 325.5q0 175 63.5 302.5t187 196t303.5 68.5q170 0 284 -69t171 -199.5t57 -312.5v-106h-822v234h491l-61 -17q0 80 -12.5 126t-40.5 65t-72 19t-72 -19t-41.5 -64.5t-13.5 -125.5v-175q0 -68 22.5 -107.5t87 -56.5t189.5 -17
q66 0 138.5 8.5t141.5 20.5v-311q-93 -18 -176.5 -25.5t-165.5 -7.5zM189 1220l239 396h340l239 -396h-295l-142 254h56l-142 -254h-295z" />
    <glyph glyph-name="edieresis" unicode="&#xeb;" horiz-adv-x="1162" 
d="M712 -22q-231 0 -376.5 60.5t-214 187t-68.5 325.5q0 175 63.5 302.5t187 196t303.5 68.5q170 0 284 -69t171 -199.5t57 -312.5v-106h-822v234h491l-61 -17q0 80 -12.5 126t-40.5 65t-72 19t-72 -19t-41.5 -64.5t-13.5 -125.5v-175q0 -68 22.5 -107.5t87 -56.5t189.5 -17
q66 0 138.5 8.5t141.5 20.5v-311q-93 -18 -176.5 -25.5t-165.5 -7.5zM862 1215q-107 0 -163 54t-56 149q0 96 56 149.5t163 53.5q108 0 163.5 -54t55.5 -149t-55.5 -149t-163.5 -54zM334 1215q-107 0 -163 54t-56 149q0 96 56 149.5t163 53.5q108 0 163.5 -54t55.5 -149
t-55.5 -149t-163.5 -54z" />
    <glyph glyph-name="igrave" unicode="&#xec;" horiz-adv-x="620" 
d="M97 0v1100h426v-1100h-426zM116 1220l-293 396h448l233 -396h-388z" />
    <glyph glyph-name="iacute" unicode="&#xed;" horiz-adv-x="620" 
d="M97 0v1100h426v-1100h-426zM116 1220l233 396h448l-293 -396h-388z" />
    <glyph glyph-name="icircumflex" unicode="&#xee;" horiz-adv-x="620" 
d="M97 0v1100h426v-1100h-426zM-99 1220l239 396h340l239 -396h-295l-142 254h56l-142 -254h-295z" />
    <glyph glyph-name="idieresis" unicode="&#xef;" horiz-adv-x="620" 
d="M97 0v1100h426v-1100h-426zM574 1215q-107 0 -163 54t-56 149q0 96 56 149.5t163 53.5q108 0 163.5 -54t55.5 -149t-55.5 -149t-163.5 -54zM46 1215q-107 0 -163 54t-56 149q0 96 56 149.5t163 53.5q108 0 163.5 -54t55.5 -149t-55.5 -149t-163.5 -54z" />
    <glyph glyph-name="eth" unicode="&#xf0;" horiz-adv-x="1266" 
d="M633 -24q-181 0 -311 65.5t-199.5 193t-69.5 311.5q0 189 68 313.5t189.5 186.5t281.5 62q84 0 163 -35.5t129 -111.5l-130 -27q-36 126 -118 247.5t-194.5 232t-240.5 202.5h496q111 -84 205.5 -198t165 -246t109.5 -272.5t39 -278.5q0 -223 -69 -365.5t-199.5 -211
t-314.5 -68.5zM633 292q52 0 86 22.5t51 77t17 151.5q0 100 -17 156t-51.5 79t-85.5 23t-85 -22.5t-51.5 -78.5t-17.5 -155q0 -98 17 -153t51 -77.5t86 -22.5zM175 1155l-45 223l1006 186l45 -223z" />
    <glyph glyph-name="ntilde" unicode="&#xf1;" horiz-adv-x="1280" 
d="M97 0v1100h349l28 -104h18q57 60 135.5 91t172.5 31q112 0 200 -46t138.5 -147.5t50.5 -266.5v-658h-425v630q0 72 -27.5 98.5t-78.5 26.5q-27 0 -52 -6.5t-46.5 -18t-37.5 -27.5v-703h-425zM812 1245q-51 0 -97 17t-89 36q-40 18 -78.5 32t-79.5 14q-60 0 -109 -21
t-101 -70v256q86 84 218 84q52 0 98 -16.5t88 -35.5q40 -18 79 -32.5t79 -14.5q61 0 110 22t100 69v-256q-85 -84 -218 -84z" />
    <glyph glyph-name="ograve" unicode="&#xf2;" horiz-adv-x="1266" 
d="M633 -22q-179 0 -309 65t-200.5 191.5t-70.5 311.5q0 188 68 315t197.5 192t314.5 65t315 -66t197.5 -193t67.5 -311q0 -186 -70 -313t-200 -192t-310 -65zM633 294q51 0 85.5 22t51.5 77t17 153q0 101 -17.5 156.5t-52 77.5t-84.5 22t-84.5 -22t-52 -77t-17.5 -155
q0 -99 17.5 -154.5t51.5 -77.5t85 -22zM439 1220l-293 396h448l233 -396h-388z" />
    <glyph glyph-name="oacute" unicode="&#xf3;" horiz-adv-x="1266" 
d="M633 -22q-179 0 -309 65t-200.5 191.5t-70.5 311.5q0 188 68 315t197.5 192t314.5 65t315 -66t197.5 -193t67.5 -311q0 -186 -70 -313t-200 -192t-310 -65zM633 294q51 0 85.5 22t51.5 77t17 153q0 101 -17.5 156.5t-52 77.5t-84.5 22t-84.5 -22t-52 -77t-17.5 -155
q0 -99 17.5 -154.5t51.5 -77.5t85 -22zM439 1220l233 396h448l-293 -396h-388z" />
    <glyph glyph-name="ocircumflex" unicode="&#xf4;" horiz-adv-x="1266" 
d="M633 -22q-179 0 -309 65t-200.5 191.5t-70.5 311.5q0 188 68 315t197.5 192t314.5 65t315 -66t197.5 -193t67.5 -311q0 -186 -70 -313t-200 -192t-310 -65zM633 294q51 0 85.5 22t51.5 77t17 153q0 101 -17.5 156.5t-52 77.5t-84.5 22t-84.5 -22t-52 -77t-17.5 -155
q0 -99 17.5 -154.5t51.5 -77.5t85 -22zM224 1220l239 396h340l239 -396h-295l-142 254h56l-142 -254h-295z" />
    <glyph glyph-name="otilde" unicode="&#xf5;" horiz-adv-x="1266" 
d="M633 -22q-179 0 -309 65t-200.5 191.5t-70.5 311.5q0 188 68 315t197.5 192t314.5 65t315 -66t197.5 -193t67.5 -311q0 -186 -70 -313t-200 -192t-310 -65zM633 294q51 0 85.5 22t51.5 77t17 153q0 101 -17.5 156.5t-52 77.5t-84.5 22t-84.5 -22t-52 -77t-17.5 -155
q0 -99 17.5 -154.5t51.5 -77.5t85 -22zM801 1245q-51 0 -97 17t-89 36q-40 18 -78.5 32t-79.5 14q-60 0 -109 -21t-101 -70v256q86 84 218 84q52 0 98 -16.5t88 -35.5q40 -18 79 -32.5t79 -14.5q61 0 110 22t100 69v-256q-85 -84 -218 -84z" />
    <glyph glyph-name="odieresis" unicode="&#xf6;" horiz-adv-x="1266" 
d="M633 -22q-179 0 -309 65t-200.5 191.5t-70.5 311.5q0 188 68 315t197.5 192t314.5 65t315 -66t197.5 -193t67.5 -311q0 -186 -70 -313t-200 -192t-310 -65zM633 294q51 0 85.5 22t51.5 77t17 153q0 101 -17.5 156.5t-52 77.5t-84.5 22t-84.5 -22t-52 -77t-17.5 -155
q0 -99 17.5 -154.5t51.5 -77.5t85 -22zM897 1215q-107 0 -163 54t-56 149q0 96 56 149.5t163 53.5q108 0 163.5 -54t55.5 -149t-55.5 -149t-163.5 -54zM369 1215q-107 0 -163 54t-56 149q0 96 56 149.5t163 53.5q108 0 163.5 -54t55.5 -149t-55.5 -149t-163.5 -54z" />
    <glyph glyph-name="divide" unicode="&#xf7;" horiz-adv-x="1116" 
d="M96 600v320h924v-320h-924zM558 100q-110 0 -176 60t-66 164q0 105 64.5 164.5t177.5 59.5q114 0 178 -61t64 -163q0 -101 -65.5 -162.5t-176.5 -61.5zM558 972q-110 0 -176 60t-66 164q0 105 64.5 164.5t177.5 59.5q114 0 178 -61t64 -163q0 -101 -65.5 -162.5
t-176.5 -61.5z" />
    <glyph glyph-name="oslash" unicode="&#xf8;" horiz-adv-x="1266" 
d="M1062 968q74 -72 112.5 -177.5t38.5 -242.5q0 -186 -70 -313t-200 -192t-310 -65q-73 0 -138 11t-122 33l-32 -44h-252l113 157q-72 71 -110.5 174.5t-38.5 236.5q0 188 68 315t197.5 192t314.5 65q72 0 136 -10t120 -30l33 45h252zM633 808q-54 0 -91 -22.5t-56.5 -79
t-19.5 -158.5q0 -19 2 -37t6 -34l228 313q-15 10 -32 14t-37 4zM633 288q55 0 92 22.5t56 79t19 156.5q0 24 -1.5 45t-5.5 39l-232 -320q14 -12 32.5 -17t39.5 -5z" />
    <glyph glyph-name="ugrave" unicode="&#xf9;" horiz-adv-x="1271" 
d="M487 -19q-114 0 -203.5 46t-141 147t-51.5 265v661h425v-630q0 -72 27.5 -99t73.5 -27q24 0 48.5 6.5t46.5 18.5t37 27v704h425v-1100h-349l-28 104h-16q-59 -60 -133 -91.5t-161 -31.5zM439 1220l-293 396h448l233 -396h-388z" />
    <glyph glyph-name="uacute" unicode="&#xfa;" horiz-adv-x="1271" 
d="M487 -19q-114 0 -203.5 46t-141 147t-51.5 265v661h425v-630q0 -72 27.5 -99t73.5 -27q24 0 48.5 6.5t46.5 18.5t37 27v704h425v-1100h-349l-28 104h-16q-59 -60 -133 -91.5t-161 -31.5zM439 1220l233 396h448l-293 -396h-388z" />
    <glyph glyph-name="ucircumflex" unicode="&#xfb;" horiz-adv-x="1271" 
d="M487 -19q-114 0 -203.5 46t-141 147t-51.5 265v661h425v-630q0 -72 27.5 -99t73.5 -27q24 0 48.5 6.5t46.5 18.5t37 27v704h425v-1100h-349l-28 104h-16q-59 -60 -133 -91.5t-161 -31.5zM224 1220l239 396h340l239 -396h-295l-142 254h56l-142 -254h-295z" />
    <glyph glyph-name="udieresis" unicode="&#xfc;" horiz-adv-x="1271" 
d="M487 -19q-114 0 -203.5 46t-141 147t-51.5 265v661h425v-630q0 -72 27.5 -99t73.5 -27q24 0 48.5 6.5t46.5 18.5t37 27v704h425v-1100h-349l-28 104h-16q-59 -60 -133 -91.5t-161 -31.5zM897 1215q-107 0 -163 54t-56 149q0 96 56 149.5t163 53.5q108 0 163.5 -54
t55.5 -149t-55.5 -149t-163.5 -54zM369 1215q-107 0 -163 54t-56 149q0 96 56 149.5t163 53.5q108 0 163.5 -54t55.5 -149t-55.5 -149t-163.5 -54z" />
    <glyph glyph-name="yacute" unicode="&#xfd;" horiz-adv-x="1238" 
d="M321 -440l149 440l149 344l215 756h416l-515 -1540h-414zM354 0l-366 1100h442l316 -1100h-392zM425 1220l233 396h448l-293 -396h-388z" />
    <glyph glyph-name="thorn" unicode="&#xfe;" horiz-adv-x="1297" 
d="M97 -440v2056h425v-619h19q47 60 115.5 90.5t156.5 30.5q116 0 214 -59t157.5 -180t59.5 -308t-71 -319.5t-211 -202.5t-347 -70q-24 0 -47.5 1.5t-45.5 2.5v-423h-425zM614 296q103 0 153.5 55t50.5 188q0 92 -21 143t-60 71.5t-94 20.5q-31 0 -63.5 -7t-57.5 -23v-440
q20 -2 44.5 -5t47.5 -3z" />
    <glyph glyph-name="ydieresis" unicode="&#xff;" horiz-adv-x="1238" 
d="M321 -440l149 440l149 344l215 756h416l-515 -1540h-414zM354 0l-366 1100h442l316 -1100h-392zM883 1215q-107 0 -163 54t-56 149q0 96 56 149.5t163 53.5q108 0 163.5 -54t55.5 -149t-55.5 -149t-163.5 -54zM355 1215q-107 0 -163 54t-56 149q0 96 56 149.5t163 53.5
q108 0 163.5 -54t55.5 -149t-55.5 -149t-163.5 -54z" />
    <glyph glyph-name="Amacron" unicode="&#x100;" horiz-adv-x="1530" 
d="M4 0l442 1480h638l442 -1480h-424l-359 1295h38l-357 -1295h-420zM373 339l91 340h600l90 -340h-781zM354 1611v248h820v-248h-820z" />
    <glyph glyph-name="amacron" unicode="&#x101;" horiz-adv-x="1176" 
d="M416 -22q-177 0 -274.5 93.5t-97.5 237.5q0 163 116.5 255t378.5 106l189 10l48 -223l-190 -10q-66 -3 -96 -28.5t-30 -68.5q0 -39 27 -61.5t76 -22.5q26 0 54.5 6t53.5 20v347q0 59 -20 94.5t-69.5 51.5t-138.5 16q-64 0 -145.5 -10t-153.5 -31v313q89 23 191 34t189 11
q199 0 322.5 -47.5t181 -159t57.5 -301.5v-610h-348l-29 101h-18q-46 -66 -117.5 -94.5t-156.5 -28.5zM199 1295v248h772v-248h-772z" />
    <glyph glyph-name="Abreve" unicode="&#x102;" horiz-adv-x="1530" 
d="M4 0l442 1480h638l442 -1480h-424l-359 1295h38l-357 -1295h-420zM373 339l91 340h600l90 -340h-781zM764 1586q-131 0 -221.5 39.5t-140.5 110.5t-63 166h253q12 -58 53.5 -88.5t118.5 -30.5q78 0 119 30.5t53 88.5h253q-12 -95 -62.5 -166t-140.5 -110.5t-222 -39.5z
" />
    <glyph glyph-name="abreve" unicode="&#x103;" horiz-adv-x="1176" 
d="M416 -22q-177 0 -274.5 93.5t-97.5 237.5q0 163 116.5 255t378.5 106l189 10l48 -223l-190 -10q-66 -3 -96 -28.5t-30 -68.5q0 -39 27 -61.5t76 -22.5q26 0 54.5 6t53.5 20v347q0 59 -20 94.5t-69.5 51.5t-138.5 16q-64 0 -145.5 -10t-153.5 -31v313q89 23 191 34t189 11
q199 0 322.5 -47.5t181 -159t57.5 -301.5v-610h-348l-29 101h-18q-46 -66 -117.5 -94.5t-156.5 -28.5zM585 1228q-183 0 -289.5 93t-117.5 275h251q7 -82 46 -121.5t110 -39.5q73 0 111.5 39.5t44.5 121.5h251q-10 -182 -116.5 -275t-290.5 -93z" />
    <glyph glyph-name="Aogonek" unicode="&#x104;" horiz-adv-x="1530" 
d="M4 0l442 1480h638l442 -1480h-424l-359 1295h38l-357 -1295h-420zM373 339l91 340h600l90 -340h-781zM1356 -460q-159 0 -235.5 61t-76.5 163q0 66 34.5 124t115 106.5t220.5 87.5l112 -82q-98 -33 -151.5 -66.5t-74 -68t-20.5 -71.5q0 -43 32.5 -68.5t105.5 -25.5
q27 0 59.5 6t71.5 19v-155q-41 -13 -87 -21.5t-106 -8.5z" />
    <glyph glyph-name="aogonek" unicode="&#x105;" horiz-adv-x="1176" 
d="M416 -22q-177 0 -274.5 93.5t-97.5 237.5q0 163 116.5 255t378.5 106l189 10l48 -223l-190 -10q-66 -3 -96 -28.5t-30 -68.5q0 -39 27 -61.5t76 -22.5q26 0 54.5 6t53.5 20v347q0 59 -20 94.5t-69.5 51.5t-138.5 16q-64 0 -145.5 -10t-153.5 -31v313q89 23 191 34t189 11
q199 0 322.5 -47.5t181 -159t57.5 -301.5v-610l-323 -20l-54 121h-18q-46 -66 -117.5 -94.5t-156.5 -28.5zM915 -460q-146 0 -219 61t-73 163q0 66 31.5 124t107.5 106.5t211 87.5l112 -82q-90 -33 -139 -66.5t-68 -68.5t-19 -73q0 -42 29.5 -67t88.5 -25q24 0 54 6t64 19
v-155q-37 -12 -78.5 -21t-101.5 -9z" />
    <glyph glyph-name="Cacute" unicode="&#x106;" horiz-adv-x="1295" 
d="M909 -20q-204 0 -361 45.5t-263.5 139t-161 236t-54.5 335.5q0 246 99 416.5t290 259t467 88.5q84 0 163.5 -7.5t153.5 -23.5v-352q-65 13 -134.5 20.5t-144.5 7.5q-153 0 -250 -42.5t-143.5 -132t-46.5 -230.5q0 -143 45 -232.5t140 -131t245 -41.5q72 0 145.5 11.5
t143.5 29.5v-352q-69 -20 -157.5 -32t-175.5 -12zM591 1586l183 316h444l-245 -316h-382z" />
    <glyph glyph-name="cacute" unicode="&#x107;" horiz-adv-x="1019" 
d="M679 -22q-202 0 -341.5 64.5t-212 191t-72.5 313.5q0 191 77.5 318t223.5 190t353 63q73 0 137 -6t122 -18v-330q-51 8 -98.5 12t-98.5 4q-99 0 -160.5 -24.5t-90 -75.5t-28.5 -130q0 -83 29 -134.5t86 -75.5t142 -24q52 0 102 8t117 23v-330q-58 -18 -132.5 -28.5
t-154.5 -10.5zM359 1220l233 396h448l-293 -396h-388z" />
    <glyph glyph-name="Ccircumflex" unicode="&#x108;" horiz-adv-x="1295" 
d="M909 -20q-204 0 -361 45.5t-263.5 139t-161 236t-54.5 335.5q0 246 99 416.5t290 259t467 88.5q84 0 163.5 -7.5t153.5 -23.5v-352q-65 13 -134.5 20.5t-144.5 7.5q-153 0 -250 -42.5t-143.5 -132t-46.5 -230.5q0 -143 45 -232.5t140 -131t245 -41.5q72 0 145.5 11.5
t143.5 29.5v-352q-69 -20 -157.5 -32t-175.5 -12zM345 1586l262 316h354l262 -316h-310l-159 205h60l-159 -205h-310z" />
    <glyph glyph-name="ccircumflex" unicode="&#x109;" horiz-adv-x="1019" 
d="M679 -22q-202 0 -341.5 64.5t-212 191t-72.5 313.5q0 191 77.5 318t223.5 190t353 63q73 0 137 -6t122 -18v-330q-51 8 -98.5 12t-98.5 4q-99 0 -160.5 -24.5t-90 -75.5t-28.5 -130q0 -83 29 -134.5t86 -75.5t142 -24q52 0 102 8t117 23v-330q-58 -18 -132.5 -28.5
t-154.5 -10.5zM144 1220l239 396h340l239 -396h-295l-142 254h56l-142 -254h-295z" />
    <glyph glyph-name="Cdotaccent" unicode="&#x10a;" horiz-adv-x="1295" 
d="M909 -20q-204 0 -361 45.5t-263.5 139t-161 236t-54.5 335.5q0 246 99 416.5t290 259t467 88.5q84 0 163.5 -7.5t153.5 -23.5v-352q-65 13 -134.5 20.5t-144.5 7.5q-153 0 -250 -42.5t-143.5 -132t-46.5 -230.5q0 -143 45 -232.5t140 -131t245 -41.5q72 0 145.5 11.5
t143.5 29.5v-352q-69 -20 -157.5 -32t-175.5 -12zM784 1570q-126 0 -189 47.5t-63 132.5q0 86 63 133t189 47q127 0 189.5 -47t62.5 -133q0 -85 -62.5 -132.5t-189.5 -47.5z" />
    <glyph glyph-name="cdotaccent" unicode="&#x10b;" horiz-adv-x="1019" 
d="M679 -22q-202 0 -341.5 64.5t-212 191t-72.5 313.5q0 191 77.5 318t223.5 190t353 63q73 0 137 -6t122 -18v-330q-51 8 -98.5 12t-98.5 4q-99 0 -160.5 -24.5t-90 -75.5t-28.5 -130q0 -83 29 -134.5t86 -75.5t142 -24q52 0 102 8t117 23v-330q-58 -18 -132.5 -28.5
t-154.5 -10.5zM553 1208q-131 0 -192.5 55t-61.5 155q0 101 61.5 155.5t192.5 54.5q133 0 193.5 -54.5t60.5 -155.5q0 -100 -60.5 -155t-193.5 -55z" />
    <glyph glyph-name="Ccaron" unicode="&#x10c;" horiz-adv-x="1295" 
d="M909 -20q-204 0 -361 45.5t-263.5 139t-161 236t-54.5 335.5q0 246 99 416.5t290 259t467 88.5q84 0 163.5 -7.5t153.5 -23.5v-352q-65 13 -134.5 20.5t-144.5 7.5q-153 0 -250 -42.5t-143.5 -132t-46.5 -230.5q0 -143 45 -232.5t140 -131t245 -41.5q72 0 145.5 11.5
t143.5 29.5v-352q-69 -20 -157.5 -32t-175.5 -12zM607 1586l-262 316h310l159 -205h-60l159 205h310l-262 -316h-354z" />
    <glyph glyph-name="ccaron" unicode="&#x10d;" horiz-adv-x="1019" 
d="M679 -22q-202 0 -341.5 64.5t-212 191t-72.5 313.5q0 191 77.5 318t223.5 190t353 63q73 0 137 -6t122 -18v-330q-51 8 -98.5 12t-98.5 4q-99 0 -160.5 -24.5t-90 -75.5t-28.5 -130q0 -83 29 -134.5t86 -75.5t142 -24q52 0 102 8t117 23v-330q-58 -18 -132.5 -28.5
t-154.5 -10.5zM383 1220l-239 396h295l142 -254h-56l142 254h295l-239 -396h-340z" />
    <glyph glyph-name="Dcaron" unicode="&#x10e;" horiz-adv-x="1566" 
d="M552 -17q-65 0 -141.5 3t-154 8.5t-147.5 13.5v1433q75 17 162.5 30t180 19.5t181.5 6.5q429 0 646.5 -183t217.5 -574q0 -267 -103.5 -434t-313.5 -245t-528 -78zM671 331q129 0 214 39.5t126.5 129.5t41.5 242q0 151 -44 241t-129.5 129t-211.5 39q-27 0 -63 -3t-62 -9
v-805q35 -2 67 -2.5t61 -0.5zM519 1586l-262 316h310l159 -205h-60l159 205h310l-262 -316h-354z" />
    <glyph glyph-name="dcaron" unicode="&#x10f;" horiz-adv-x="1297" 
d="M516 -20q-123 0 -228.5 57t-170 178t-64.5 312q0 188 71.5 320.5t211.5 202t346 69.5q25 0 49 -1t44 -3v501h425v-1616h-356l-25 113h-18q-45 -60 -116.5 -96.5t-168.5 -36.5zM648 323q34 0 68 8.5t59 25.5v437q-19 4 -43.5 6t-48.5 2q-102 0 -153 -54.5t-51 -188.5
q0 -92 21 -143t59 -72t89 -21zM1256 1180q19 116 26.5 214.5t7.5 221.5h276q0 -127 -22.5 -240t-61.5 -196h-226z" />
    <glyph glyph-name="Dcroat" unicode="&#x110;" horiz-adv-x="1566" 
d="M4 627v270h774v-270h-774zM552 -17q-65 0 -141.5 3t-154 8.5t-147.5 13.5v1433q75 17 162.5 30t180 19.5t181.5 6.5q429 0 646.5 -183t217.5 -574q0 -267 -103.5 -434t-313.5 -245t-528 -78zM671 331q129 0 214 39.5t126.5 129.5t41.5 242q0 151 -44 241t-129.5 129
t-211.5 39q-27 0 -63 -3t-62 -9v-805q35 -2 67 -2.5t61 -0.5z" />
    <glyph glyph-name="dcroat" unicode="&#x111;" horiz-adv-x="1297" 
d="M449 1223v260h847v-260h-847zM516 -20q-123 0 -228.5 57t-170 178t-64.5 312q0 188 71.5 320.5t211.5 202t346 69.5q25 0 49 -1t44 -3v501h425v-1616h-356l-25 113h-18q-45 -60 -116.5 -96.5t-168.5 -36.5zM648 323q34 0 68 8.5t59 25.5v437q-19 4 -43.5 6t-48.5 2
q-102 0 -153 -54.5t-51 -188.5q0 -92 21 -143t59 -72t89 -21z" />
    <glyph glyph-name="Emacron" unicode="&#x112;" horiz-adv-x="1313" 
d="M109 0v1480h1122v-342h-694v-796h704v-342h-1132zM362 584v342h764v-342h-764zM282 1611v248h820v-248h-820z" />
    <glyph glyph-name="emacron" unicode="&#x113;" horiz-adv-x="1162" 
d="M712 -22q-231 0 -376.5 60.5t-214 187t-68.5 325.5q0 175 63.5 302.5t187 196t303.5 68.5q170 0 284 -69t171 -199.5t57 -312.5v-106h-822v234h491l-61 -17q0 80 -12.5 126t-40.5 65t-72 19t-72 -19t-41.5 -64.5t-13.5 -125.5v-175q0 -68 22.5 -107.5t87 -56.5t189.5 -17
q66 0 138.5 8.5t141.5 20.5v-311q-93 -18 -176.5 -25.5t-165.5 -7.5zM212 1295v248h772v-248h-772z" />
    <glyph glyph-name="Ebreve" unicode="&#x114;" horiz-adv-x="1313" 
d="M109 0v1480h1122v-342h-694v-796h704v-342h-1132zM362 584v342h764v-342h-764zM692 1586q-131 0 -221.5 39.5t-140.5 110.5t-63 166h253q12 -58 53.5 -88.5t118.5 -30.5q78 0 119 30.5t53 88.5h253q-12 -95 -62.5 -166t-140.5 -110.5t-222 -39.5z" />
    <glyph glyph-name="ebreve" unicode="&#x115;" horiz-adv-x="1162" 
d="M712 -22q-231 0 -376.5 60.5t-214 187t-68.5 325.5q0 175 63.5 302.5t187 196t303.5 68.5q170 0 284 -69t171 -199.5t57 -312.5v-106h-822v234h491l-61 -17q0 80 -12.5 126t-40.5 65t-72 19t-72 -19t-41.5 -64.5t-13.5 -125.5v-175q0 -68 22.5 -107.5t87 -56.5t189.5 -17
q66 0 138.5 8.5t141.5 20.5v-311q-93 -18 -176.5 -25.5t-165.5 -7.5zM598 1228q-183 0 -289.5 93t-117.5 275h251q7 -82 46 -121.5t110 -39.5q73 0 111.5 39.5t44.5 121.5h251q-10 -182 -116.5 -275t-290.5 -93z" />
    <glyph glyph-name="Edotaccent" unicode="&#x116;" horiz-adv-x="1313" 
d="M109 0v1480h1122v-342h-694v-796h704v-342h-1132zM362 584v342h764v-342h-764zM692 1570q-126 0 -189 47.5t-63 132.5q0 86 63 133t189 47q127 0 189.5 -47t62.5 -133q0 -85 -62.5 -132.5t-189.5 -47.5z" />
    <glyph glyph-name="edotaccent" unicode="&#x117;" horiz-adv-x="1162" 
d="M712 -22q-231 0 -376.5 60.5t-214 187t-68.5 325.5q0 175 63.5 302.5t187 196t303.5 68.5q170 0 284 -69t171 -199.5t57 -312.5v-106h-822v234h491l-61 -17q0 80 -12.5 126t-40.5 65t-72 19t-72 -19t-41.5 -64.5t-13.5 -125.5v-175q0 -68 22.5 -107.5t87 -56.5t189.5 -17
q66 0 138.5 8.5t141.5 20.5v-311q-93 -18 -176.5 -25.5t-165.5 -7.5zM598 1208q-131 0 -192.5 55t-61.5 155q0 101 61.5 155.5t192.5 54.5q133 0 193.5 -54.5t60.5 -155.5q0 -100 -60.5 -155t-193.5 -55z" />
    <glyph glyph-name="Eogonek" unicode="&#x118;" horiz-adv-x="1313" 
d="M109 0v1480h1122v-342h-694v-796h704v-342h-1132zM362 584v342h764v-342h-764zM1071 -460q-159 0 -235.5 61t-76.5 163q0 66 34.5 124t115 106.5t220.5 87.5l112 -82q-98 -33 -151.5 -66.5t-74 -68t-20.5 -71.5q0 -43 32.5 -68.5t105.5 -25.5q27 0 59.5 6t71.5 19v-155
q-41 -13 -87 -21.5t-106 -8.5z" />
    <glyph glyph-name="eogonek" unicode="&#x119;" horiz-adv-x="1162" 
d="M874 -460q-146 0 -219 61t-73 163q0 91 61 166.5t226 129.5l13 -75q-44 -3 -87.5 -5t-82.5 -2q-231 0 -376.5 60.5t-214 187t-68.5 325.5q0 175 63.5 302.5t187 196t303.5 68.5q170 0 284 -69t171 -199.5t57 -312.5v-106h-822v224h491l-61 -17q0 80 -12.5 126t-40.5 65
t-72 19t-72 -19t-41.5 -64.5t-13.5 -125.5v-165q0 -68 22.5 -107.5t87 -56.5t189.5 -17q66 0 138.5 8.5t141.5 20.5v-311q-94 -34 -145 -70.5t-71 -73.5t-20 -75q0 -42 29.5 -67t88.5 -25q24 0 54 6t64 19v-155q-37 -12 -78.5 -21t-101.5 -9z" />
    <glyph glyph-name="Ecaron" unicode="&#x11a;" horiz-adv-x="1313" 
d="M109 0v1480h1122v-342h-694v-796h704v-342h-1132zM362 584v342h764v-342h-764zM515 1586l-262 316h310l159 -205h-60l159 205h310l-262 -316h-354z" />
    <glyph glyph-name="ecaron" unicode="&#x11b;" horiz-adv-x="1162" 
d="M712 -22q-231 0 -376.5 60.5t-214 187t-68.5 325.5q0 175 63.5 302.5t187 196t303.5 68.5q170 0 284 -69t171 -199.5t57 -312.5v-106h-822v234h491l-61 -17q0 80 -12.5 126t-40.5 65t-72 19t-72 -19t-41.5 -64.5t-13.5 -125.5v-175q0 -68 22.5 -107.5t87 -56.5t189.5 -17
q66 0 138.5 8.5t141.5 20.5v-311q-93 -18 -176.5 -25.5t-165.5 -7.5zM428 1220l-239 396h295l142 -254h-56l142 254h295l-239 -396h-340z" />
    <glyph glyph-name="Gcircumflex" unicode="&#x11c;" horiz-adv-x="1479" 
d="M973 -20q-303 0 -504 84t-300.5 251.5t-99.5 420.5q0 246 102.5 416.5t306 259t507.5 88.5q88 0 172.5 -8t162.5 -26v-352q-70 15 -143 23t-151 8q-183 0 -293.5 -43t-161 -135t-50.5 -238q0 -135 45.5 -223t138 -131t232.5 -43q54 0 112 4.5t105 10.5l-188 -158v531h402
v-705q-97 -15 -197.5 -25t-197.5 -10zM406 1586l262 316h354l262 -316h-310l-159 205h60l-159 -205h-310z" />
    <glyph glyph-name="gcircumflex" unicode="&#x11d;" horiz-adv-x="1297" 
d="M531 -460q-95 0 -196 9.5t-201 32.5v326q97 -24 190.5 -35.5t170.5 -11.5q151 0 215.5 50t64.5 158v50h-19q-46 -59 -114.5 -90t-157.5 -31q-112 0 -210.5 59t-159.5 176.5t-61 294.5q0 277 163.5 433.5t504.5 156.5q79 0 164 -8t166.5 -23t148.5 -38v-899
q0 -319 -164 -464.5t-505 -145.5zM655 339q31 0 62.5 6.5t57.5 18.5v429q-19 4 -42.5 6.5t-49.5 2.5q-98 0 -151 -54t-53 -185q0 -86 20.5 -135t60 -69t95.5 -20zM267 1220l239 396h340l239 -396h-295l-142 254h56l-142 -254h-295z" />
    <glyph glyph-name="Gbreve" unicode="&#x11e;" horiz-adv-x="1479" 
d="M973 -20q-303 0 -504 84t-300.5 251.5t-99.5 420.5q0 246 102.5 416.5t306 259t507.5 88.5q88 0 172.5 -8t162.5 -26v-352q-70 15 -143 23t-151 8q-183 0 -293.5 -43t-161 -135t-50.5 -238q0 -135 45.5 -223t138 -131t232.5 -43q54 0 112 4.5t105 10.5l-188 -158v531h402
v-705q-97 -15 -197.5 -25t-197.5 -10zM845 1586q-131 0 -221.5 39.5t-140.5 110.5t-63 166h253q12 -58 53.5 -88.5t118.5 -30.5q78 0 119 30.5t53 88.5h253q-12 -95 -62.5 -166t-140.5 -110.5t-222 -39.5z" />
    <glyph glyph-name="gbreve" unicode="&#x11f;" horiz-adv-x="1297" 
d="M531 -460q-95 0 -196 9.5t-201 32.5v326q97 -24 190.5 -35.5t170.5 -11.5q151 0 215.5 50t64.5 158v50h-19q-46 -59 -114.5 -90t-157.5 -31q-112 0 -210.5 59t-159.5 176.5t-61 294.5q0 277 163.5 433.5t504.5 156.5q79 0 164 -8t166.5 -23t148.5 -38v-899
q0 -319 -164 -464.5t-505 -145.5zM655 339q31 0 62.5 6.5t57.5 18.5v429q-19 4 -42.5 6.5t-49.5 2.5q-98 0 -151 -54t-53 -185q0 -86 20.5 -135t60 -69t95.5 -20zM676 1228q-183 0 -289.5 93t-117.5 275h251q7 -82 46 -121.5t110 -39.5q73 0 111.5 39.5t44.5 121.5h251
q-10 -182 -116.5 -275t-290.5 -93z" />
    <glyph glyph-name="Gdotaccent" unicode="&#x120;" horiz-adv-x="1479" 
d="M973 -20q-303 0 -504 84t-300.5 251.5t-99.5 420.5q0 246 102.5 416.5t306 259t507.5 88.5q88 0 172.5 -8t162.5 -26v-352q-70 15 -143 23t-151 8q-183 0 -293.5 -43t-161 -135t-50.5 -238q0 -135 45.5 -223t138 -131t232.5 -43q54 0 112 4.5t105 10.5l-188 -158v531h402
v-705q-97 -15 -197.5 -25t-197.5 -10zM845 1570q-126 0 -189 47.5t-63 132.5q0 86 63 133t189 47q127 0 189.5 -47t62.5 -133q0 -85 -62.5 -132.5t-189.5 -47.5z" />
    <glyph glyph-name="gdotaccent" unicode="&#x121;" horiz-adv-x="1297" 
d="M531 -460q-95 0 -196 9.5t-201 32.5v326q97 -24 190.5 -35.5t170.5 -11.5q151 0 215.5 50t64.5 158v50h-19q-46 -59 -114.5 -90t-157.5 -31q-112 0 -210.5 59t-159.5 176.5t-61 294.5q0 277 163.5 433.5t504.5 156.5q79 0 164 -8t166.5 -23t148.5 -38v-899
q0 -319 -164 -464.5t-505 -145.5zM655 339q31 0 62.5 6.5t57.5 18.5v429q-19 4 -42.5 6.5t-49.5 2.5q-98 0 -151 -54t-53 -185q0 -86 20.5 -135t60 -69t95.5 -20zM676 1208q-131 0 -192.5 55t-61.5 155q0 101 61.5 155.5t192.5 54.5q133 0 193.5 -54.5t60.5 -155.5
q0 -100 -60.5 -155t-193.5 -55z" />
    <glyph glyph-name="uni0122" unicode="&#x122;" horiz-adv-x="1479" 
d="M973 -20q-303 0 -504 84t-300.5 251.5t-99.5 420.5q0 246 102.5 416.5t306 259t507.5 88.5q88 0 172.5 -8t162.5 -26v-352q-70 15 -143 23t-151 8q-183 0 -293.5 -43t-161 -135t-50.5 -238q0 -135 45.5 -223t138 -131t232.5 -43q54 0 112 4.5t105 10.5l-188 -158v531h402
v-705q-97 -15 -197.5 -25t-197.5 -10zM719 -518q40 72 55.5 120.5t15.5 103.5l83 -78h-28q-124 0 -176 36.5t-52 97.5q0 64 54 99t174 35q121 0 174.5 -46t53.5 -130q0 -60 -26 -126.5t-66 -111.5h-262z" />
    <glyph glyph-name="uni0123" unicode="&#x123;" horiz-adv-x="1297" 
d="M531 -460q-95 0 -196 9.5t-201 32.5v326q97 -24 190.5 -35.5t170.5 -11.5q151 0 215.5 50t64.5 158v50h-19q-46 -59 -114.5 -90t-157.5 -31q-112 0 -210.5 59t-159.5 176.5t-61 294.5q0 277 163.5 433.5t504.5 156.5q79 0 164 -8t166.5 -23t148.5 -38v-899
q0 -319 -164 -464.5t-505 -145.5zM655 339q31 0 62.5 6.5t57.5 18.5v429q-19 4 -42.5 6.5t-49.5 2.5q-98 0 -151 -54t-53 -185q0 -86 20.5 -135t60 -69t95.5 -20zM676 1212q-120 0 -174 46.5t-54 129.5q0 61 26.5 127t65.5 111h262q-39 -71 -55 -119.5t-16 -104.5l-83 78h28
q125 0 176.5 -36t51.5 -98t-53.5 -98t-174.5 -36z" />
    <glyph glyph-name="Hcircumflex" unicode="&#x124;" horiz-adv-x="1580" 
d="M109 0v1480h434v-535h494v535h434v-1480h-434v565h-494v-565h-434zM352 1586l262 316h354l262 -316h-310l-159 205h60l-159 -205h-310z" />
    <glyph glyph-name="hcircumflex" unicode="&#x125;" horiz-adv-x="1280" 
d="M97 0v1616h425v-619h19q50 58 120 89.5t161 31.5q101 0 184.5 -46t133 -147t49.5 -267v-658h-425v627q0 73 -28 100.5t-78 27.5q-26 0 -51 -6.5t-47 -18t-38 -27.5v-703h-425zM205 1682l262 316h354l262 -316h-310l-159 205h60l-159 -205h-310z" />
    <glyph glyph-name="Hbar" unicode="&#x126;" horiz-adv-x="1580" 
d="M4 1081v260h1572v-260h-1572zM109 0v1480h434v-535h494v535h434v-1480h-434v565h-494v-565h-434z" />
    <glyph glyph-name="hbar" unicode="&#x127;" horiz-adv-x="1280" 
d="M1 1220v260h847v-260h-847zM97 0v1616h425v-619h19q50 58 120 89.5t161 31.5q101 0 184.5 -46t133 -147t49.5 -267v-658h-425v627q0 73 -28 100.5t-78 27.5q-26 0 -51 -6.5t-47 -18t-38 -27.5v-703h-425z" />
    <glyph glyph-name="Itilde" unicode="&#x128;" horiz-adv-x="652" 
d="M109 0v1480h434v-1480h-434zM510 1586q-57 0 -106 13t-96 27q-42 14 -84.5 25t-89.5 11q-66 0 -116 -17t-102 -53v233q46 40 98.5 58.5t127.5 18.5q58 0 107 -13t95 -28q43 -13 85.5 -25t88.5 -12q67 0 117 17.5t101 52.5v-233q-44 -39 -97.5 -57t-128.5 -18z" />
    <glyph glyph-name="itilde" unicode="&#x129;" horiz-adv-x="620" 
d="M97 0v1100h426v-1100h-426zM478 1245q-51 0 -97 17t-89 36q-40 18 -78.5 32t-79.5 14q-60 0 -109 -21t-101 -70v256q86 84 218 84q52 0 98 -16.5t88 -35.5q40 -18 79 -32.5t79 -14.5q61 0 110 22t100 69v-256q-85 -84 -218 -84z" />
    <glyph glyph-name="Imacron" unicode="&#x12a;" horiz-adv-x="652" 
d="M109 0v1480h434v-1480h-434zM-84 1611v248h820v-248h-820z" />
    <glyph glyph-name="imacron" unicode="&#x12b;" horiz-adv-x="620" 
d="M97 0v1100h426v-1100h-426zM-76 1295v248h772v-248h-772z" />
    <glyph glyph-name="Ibreve" unicode="&#x12c;" horiz-adv-x="652" 
d="M109 0v1480h434v-1480h-434zM326 1586q-131 0 -221.5 39.5t-140.5 110.5t-63 166h253q12 -58 53.5 -88.5t118.5 -30.5q78 0 119 30.5t53 88.5h253q-12 -95 -62.5 -166t-140.5 -110.5t-222 -39.5z" />
    <glyph glyph-name="ibreve" unicode="&#x12d;" horiz-adv-x="620" 
d="M97 0v1100h426v-1100h-426zM310 1228q-183 0 -289.5 93t-117.5 275h251q7 -82 46 -121.5t110 -39.5q73 0 111.5 39.5t44.5 121.5h251q-10 -182 -116.5 -275t-290.5 -93z" />
    <glyph glyph-name="Iogonek" unicode="&#x12e;" horiz-adv-x="652" 
d="M109 0v1480h434v-1480h-434zM373 -460q-159 0 -235.5 61t-76.5 163q0 66 34.5 124t115 106.5t220.5 87.5l112 -82q-98 -33 -151.5 -66.5t-74 -68t-20.5 -71.5q0 -43 32.5 -68.5t105.5 -25.5q27 0 59.5 6t71.5 19v-155q-41 -13 -87 -21.5t-106 -8.5z" />
    <glyph glyph-name="iogonek" unicode="&#x12f;" horiz-adv-x="620" 
d="M97 0v1100h426v-1100h-426zM310 1208q-131 0 -192.5 55t-61.5 155q0 101 61.5 155.5t192.5 54.5q133 0 193.5 -54.5t60.5 -155.5q0 -100 -60.5 -155t-193.5 -55zM353 -460q-146 0 -219 61t-73 163q0 66 31.5 124t107.5 106.5t211 87.5l112 -82q-90 -33 -139 -66.5
t-68 -68.5t-19 -73q0 -42 29.5 -67t88.5 -25q24 0 54 6t64 19v-155q-37 -12 -78.5 -21t-101.5 -9z" />
    <glyph glyph-name="Idotaccent" unicode="&#x130;" horiz-adv-x="652" 
d="M109 0v1480h434v-1480h-434zM326 1570q-126 0 -189 47.5t-63 132.5q0 86 63 133t189 47q127 0 189.5 -47t62.5 -133q0 -85 -62.5 -132.5t-189.5 -47.5z" />
    <glyph glyph-name="dotlessi" unicode="&#x131;" horiz-adv-x="620" 
d="M97 0v1100h426v-1100h-426z" />
    <glyph glyph-name="Jcircumflex" unicode="&#x134;" horiz-adv-x="652" 
d="M243 -354l-274 182q55 72 86 142t43.5 150.5t12.5 183.5v1176h432v-1160q0 -125 -28 -237.5t-94 -220t-178 -216.5zM-112 1586l262 316h354l262 -316h-310l-159 205h60l-159 -205h-310z" />
    <glyph glyph-name="jcircumflex" unicode="&#x135;" horiz-adv-x="620" 
d="M227 -476l-272 180q55 72 86 142t43.5 150.5t12.5 183.5v920h426v-904q0 -125 -28 -237t-92.5 -219t-175.5 -216zM-104 1220l239 396h340l239 -396h-295l-142 254h56l-142 -254h-295z" />
    <glyph glyph-name="uni0136" unicode="&#x136;" horiz-adv-x="1392" 
d="M986 0l-473 752l445 728h452l-475 -776l8 110l510 -814h-467zM109 0v1480h434v-1480h-434zM485 565v380h192v-380h-192zM605 -518q40 72 55.5 120.5t15.5 103.5l83 -78h-28q-124 0 -176 36.5t-52 97.5q0 64 54 99t174 35q121 0 174.5 -46t53.5 -130q0 -60 -26 -126.5
t-66 -111.5h-262z" />
    <glyph glyph-name="uni0137" unicode="&#x137;" horiz-adv-x="1273" 
d="M856 0l-354 566l327 534h448l-348 -580v110l385 -630h-458zM490 398v336h154v-336h-154zM97 0v1616h425v-1616h-425zM541 -518q40 72 55.5 120.5t15.5 103.5l83 -78h-28q-124 0 -176 36.5t-52 97.5q0 64 54 99t174 35q121 0 174.5 -46t53.5 -130q0 -60 -26 -126.5
t-66 -111.5h-262z" />
    <glyph glyph-name="kgreenlandic" unicode="&#x138;" horiz-adv-x="1273" 
d="M856 0l-354 566l327 534h448l-348 -580v110l385 -630h-458zM97 0v1100h425v-1100h-425zM490 398v336h154v-336h-154z" />
    <glyph glyph-name="Lacute" unicode="&#x139;" horiz-adv-x="1199" 
d="M109 0v1480h434v-1123h648v-357h-1082zM137 1586l183 316h444l-245 -316h-382z" />
    <glyph glyph-name="lacute" unicode="&#x13a;" horiz-adv-x="619" 
d="M97 0v1616h425v-1616h-425zM117 1682l183 316h444l-245 -316h-382z" />
    <glyph glyph-name="uni013B" unicode="&#x13b;" horiz-adv-x="1199" 
d="M109 0v1480h434v-1123h648v-357h-1082zM524 -518q40 72 55.5 120.5t15.5 103.5l83 -78h-28q-124 0 -176 36.5t-52 97.5q0 64 54 99t174 35q121 0 174.5 -46t53.5 -130q0 -60 -26 -126.5t-66 -111.5h-262z" />
    <glyph glyph-name="uni013C" unicode="&#x13c;" horiz-adv-x="619" 
d="M97 0v1616h425v-1616h-425zM183 -518q40 72 55.5 120.5t15.5 103.5l83 -78h-28q-124 0 -176 36.5t-52 97.5q0 64 54 99t174 35q121 0 174.5 -46t53.5 -130q0 -60 -26 -126.5t-66 -111.5h-262z" />
    <glyph glyph-name="Lcaron" unicode="&#x13d;" horiz-adv-x="1199" 
d="M109 0v1480h434v-1123h648v-357h-1082zM764 1140q12 77 19 147t10 148.5t3 180.5h276q0 -157 -23 -275t-59 -201h-226z" />
    <glyph glyph-name="lcaron" unicode="&#x13e;" horiz-adv-x="619" 
d="M97 0v1616h425v-1616h-425zM578 1180q19 116 26.5 214.5t7.5 221.5h276q0 -127 -22.5 -240t-61.5 -196h-226z" />
    <glyph glyph-name="Ldot" unicode="&#x13f;" horiz-adv-x="1199" 
d="M109 0v1480h434v-1123h648v-357h-1082zM917 702q-131 0 -192.5 55t-61.5 155q0 101 61.5 155.5t192.5 54.5q133 0 193.5 -54.5t60.5 -155.5q0 -100 -60.5 -155t-193.5 -55z" />
    <glyph glyph-name="ldot" unicode="&#x140;" horiz-adv-x="1055" 
d="M97 0v1616h425v-1616h-425zM836 584q-131 0 -192.5 55t-61.5 155q0 101 61.5 155.5t192.5 54.5q133 0 193.5 -54.5t60.5 -155.5q0 -100 -60.5 -155t-193.5 -55z" />
    <glyph glyph-name="Lslash" unicode="&#x141;" horiz-adv-x="1218" 
d="M3 538v306l877 420v-306zM128 0v1480h434v-1123h648v-357h-1082z" />
    <glyph glyph-name="lslash" unicode="&#x142;" horiz-adv-x="709" 
d="M15 408v288l682 326v-288zM142 0v1616h425v-1616h-425z" />
    <glyph glyph-name="Nacute" unicode="&#x143;" horiz-adv-x="1592" 
d="M109 0v1480h433l600 -932h-66v932h407v-1480h-433l-600 932h66v-932h-407zM603 1586l183 316h444l-245 -316h-382z" />
    <glyph glyph-name="nacute" unicode="&#x144;" horiz-adv-x="1280" 
d="M97 0v1100h349l28 -104h18q57 60 135.5 91t172.5 31q112 0 200 -46t138.5 -147.5t50.5 -266.5v-658h-425v630q0 72 -27.5 98.5t-78.5 26.5q-27 0 -52 -6.5t-46.5 -18t-37.5 -27.5v-703h-425zM450 1220l233 396h448l-293 -396h-388z" />
    <glyph glyph-name="uni0145" unicode="&#x145;" horiz-adv-x="1592" 
d="M109 0v1480h433l600 -932h-66v932h407v-1480h-433l-600 932h66v-932h-407zM670 -518q40 72 55.5 120.5t15.5 103.5l83 -78h-28q-124 0 -176 36.5t-52 97.5q0 64 54 99t174 35q121 0 174.5 -46t53.5 -130q0 -60 -26 -126.5t-66 -111.5h-262z" />
    <glyph glyph-name="uni0146" unicode="&#x146;" horiz-adv-x="1280" 
d="M97 0v1100h349l28 -104h18q57 60 135.5 91t172.5 31q112 0 200 -46t138.5 -147.5t50.5 -266.5v-658h-425v630q0 72 -27.5 98.5t-78.5 26.5q-27 0 -52 -6.5t-46.5 -18t-37.5 -27.5v-703h-425zM518 -518q40 72 55.5 120.5t15.5 103.5l83 -78h-28q-124 0 -176 36.5t-52 97.5
q0 64 54 99t174 35q121 0 174.5 -46t53.5 -130q0 -60 -26 -126.5t-66 -111.5h-262z" />
    <glyph glyph-name="Ncaron" unicode="&#x147;" horiz-adv-x="1592" 
d="M109 0v1480h433l600 -932h-66v932h407v-1480h-433l-600 932h66v-932h-407zM619 1586l-262 316h310l159 -205h-60l159 205h310l-262 -316h-354z" />
    <glyph glyph-name="ncaron" unicode="&#x148;" horiz-adv-x="1280" 
d="M97 0v1100h349l28 -104h18q57 60 135.5 91t172.5 31q112 0 200 -46t138.5 -147.5t50.5 -266.5v-658h-425v630q0 72 -27.5 98.5t-78.5 26.5q-27 0 -52 -6.5t-46.5 -18t-37.5 -27.5v-703h-425zM474 1220l-239 396h295l142 -254h-56l142 254h295l-239 -396h-340z" />
    <glyph glyph-name="napostrophe" unicode="&#x149;" horiz-adv-x="1280" 
d="M97 0v1100h349l28 -104h18q57 60 135.5 91t172.5 31q112 0 200 -46t138.5 -147.5t50.5 -266.5v-658h-425v630q0 72 -27.5 98.5t-78.5 26.5q-27 0 -52 -6.5t-46.5 -18t-37.5 -27.5v-703h-425zM113 1212q40 72 55.5 120.5t15.5 103.5l83 -78h-28q-124 0 -176 36.5t-52 97.5
q0 64 54 99t174 35q121 0 174.5 -46t53.5 -130q0 -60 -26 -126.5t-66 -111.5h-262z" />
    <glyph glyph-name="Eng" unicode="&#x14a;" horiz-adv-x="1592" 
d="M1130 -125l-680 1057h66v-932h-407v1480h433l634 -977zM1187 -476l-272 180q58 72 93.5 142t51.5 150.5t16 183.5v1300h407v-1244q0 -145 -28 -265.5t-92.5 -229t-175.5 -217.5z" />
    <glyph glyph-name="eng" unicode="&#x14b;" horiz-adv-x="1280" 
d="M894 -476l-272 180q55 72 86 142t43.5 150.5t12.5 183.5v452q0 74 -27.5 101t-78.5 27q-26 0 -51 -6.5t-47 -18t-38 -27.5v-708h-425v1100h349l28 -104h18q58 60 136 91t172 31q112 0 200 -46t138.5 -147t50.5 -267v-462q0 -125 -27.5 -237t-92 -219t-175.5 -216z" />
    <glyph glyph-name="Omacron" unicode="&#x14c;" horiz-adv-x="1644" 
d="M822 -20q-228 0 -397 85.5t-262.5 254.5t-93.5 420q0 252 93 421t262 254t398 85t398 -85.5t262 -254.5t93 -420q0 -250 -93 -419t-262 -255t-398 -86zM822 326q100 0 169 43t104.5 132.5t35.5 230.5q0 149 -36 242t-105 136.5t-168 43.5q-98 0 -167 -42t-105.5 -131.5
t-36.5 -232.5q0 -150 36 -243t104.5 -136t168.5 -43zM412 1611v248h820v-248h-820z" />
    <glyph glyph-name="omacron" unicode="&#x14d;" horiz-adv-x="1266" 
d="M633 -22q-179 0 -309 65t-200.5 191.5t-70.5 311.5q0 188 68 315t197.5 192t314.5 65t315 -66t197.5 -193t67.5 -311q0 -186 -70 -313t-200 -192t-310 -65zM633 294q51 0 85.5 22t51.5 77t17 153q0 101 -17.5 156.5t-52 77.5t-84.5 22t-84.5 -22t-52 -77t-17.5 -155
q0 -99 17.5 -154.5t51.5 -77.5t85 -22zM247 1295v248h772v-248h-772z" />
    <glyph glyph-name="Obreve" unicode="&#x14e;" horiz-adv-x="1644" 
d="M822 -20q-228 0 -397 85.5t-262.5 254.5t-93.5 420q0 252 93 421t262 254t398 85t398 -85.5t262 -254.5t93 -420q0 -250 -93 -419t-262 -255t-398 -86zM822 326q100 0 169 43t104.5 132.5t35.5 230.5q0 149 -36 242t-105 136.5t-168 43.5q-98 0 -167 -42t-105.5 -131.5
t-36.5 -232.5q0 -150 36 -243t104.5 -136t168.5 -43zM822 1586q-131 0 -221.5 39.5t-140.5 110.5t-63 166h253q12 -58 53.5 -88.5t118.5 -30.5q78 0 119 30.5t53 88.5h253q-12 -95 -62.5 -166t-140.5 -110.5t-222 -39.5z" />
    <glyph glyph-name="obreve" unicode="&#x14f;" horiz-adv-x="1266" 
d="M633 -22q-179 0 -309 65t-200.5 191.5t-70.5 311.5q0 188 68 315t197.5 192t314.5 65t315 -66t197.5 -193t67.5 -311q0 -186 -70 -313t-200 -192t-310 -65zM633 294q51 0 85.5 22t51.5 77t17 153q0 101 -17.5 156.5t-52 77.5t-84.5 22t-84.5 -22t-52 -77t-17.5 -155
q0 -99 17.5 -154.5t51.5 -77.5t85 -22zM633 1228q-183 0 -289.5 93t-117.5 275h251q7 -82 46 -121.5t110 -39.5q73 0 111.5 39.5t44.5 121.5h251q-10 -182 -116.5 -275t-290.5 -93z" />
    <glyph glyph-name="Ohungarumlaut" unicode="&#x150;" horiz-adv-x="1644" 
d="M822 -20q-228 0 -397 85.5t-262.5 254.5t-93.5 420q0 252 93 421t262 254t398 85t398 -85.5t262 -254.5t93 -420q0 -250 -93 -419t-262 -255t-398 -86zM822 326q100 0 169 43t104.5 132.5t35.5 230.5q0 149 -36 242t-105 136.5t-168 43.5q-98 0 -167 -42t-105.5 -131.5
t-36.5 -232.5q0 -150 36 -243t104.5 -136t168.5 -43zM893 1586l142 316h330l-162 -316h-310zM441 1586l142 316h330l-162 -316h-310z" />
    <glyph glyph-name="ohungarumlaut" unicode="&#x151;" horiz-adv-x="1266" 
d="M633 -22q-179 0 -309 65t-200.5 191.5t-70.5 311.5q0 188 68 315t197.5 192t314.5 65t315 -66t197.5 -193t67.5 -311q0 -186 -70 -313t-200 -192t-310 -65zM633 294q51 0 85.5 22t51.5 77t17 153q0 101 -17.5 156.5t-52 77.5t-84.5 22t-84.5 -22t-52 -77t-17.5 -155
q0 -99 17.5 -154.5t51.5 -77.5t85 -22zM704 1220l152 396h330l-172 -396h-310zM252 1220l152 396h330l-172 -396h-310z" />
    <glyph glyph-name="OE" unicode="&#x152;" horiz-adv-x="2185" 
d="M977 -12q-307 0 -508.5 78.5t-300.5 244.5t-99 429q0 260 105 426.5t307.5 246t495.5 79.5q78 0 162 -6t164 -6h800v-342h-662v-796h672v-342h-810q-53 0 -110 -3t-112.5 -6t-103.5 -3zM885 336q28 0 61 0.5t67 2.5v801q-34 3 -65.5 3h-62.5q-123 0 -206 -39t-125 -127.5
t-42 -238.5q0 -148 42 -236t125 -127t206 -39zM1266 584v342h732v-342h-732z" />
    <glyph glyph-name="oe" unicode="&#x153;" horiz-adv-x="1891" 
d="M613 -22q-169 0 -295 65t-195.5 191.5t-69.5 311.5q0 188 67.5 315t192.5 192t300 65q180 0 295 -72t170 -200.5t55 -297.5q0 -172 -57 -300t-172.5 -199t-290.5 -71zM633 294q51 0 85.5 22t51.5 77t17 153q0 101 -17.5 156.5t-52 77.5t-84.5 22t-84.5 -22t-52 -77
t-17.5 -155q0 -99 17.5 -154.5t51.5 -77.5t85 -22zM1443 -22q-226 0 -360 62.5t-192.5 189.5t-58.5 321l37 30q0 153 58 274.5t168 192t265 70.5q154 0 263.5 -68t167 -197.5t57.5 -315.5v-106h-704v234h373l-61 -17q0 80 -12.5 126t-39.5 65t-69 19t-69.5 -19t-40.5 -64.5
t-13 -125.5v-175q0 -68 22.5 -107.5t85 -56.5t183.5 -17q66 0 138.5 8.5t141.5 20.5v-311q-93 -18 -176 -25.5t-164 -7.5z" />
    <glyph glyph-name="Racute" unicode="&#x154;" horiz-adv-x="1425" 
d="M109 0v1441q74 17 159.5 30.5t174.5 21t174 7.5q337 0 510 -122t173 -379q0 -165 -80 -276.5t-224 -168.5t-337 -57q-32 0 -62 1.5t-62 2.5v-501h-426zM959 0l-445 676h459l455 -676h-469zM669 814q110 0 168 42t58 143q0 65 -26 106.5t-77 61.5t-125 20q-36 0 -69.5 -3
t-62.5 -9v-353l44 -4t44.5 -3t45.5 -1zM516 1586l183 316h444l-245 -316h-382z" />
    <glyph glyph-name="racute" unicode="&#x155;" horiz-adv-x="868" 
d="M97 0v1100h346l33 -139h18q40 84 110.5 120.5t161.5 36.5q24 0 49 -2.5t42 -5.5v-382q-27 6 -59 8t-59 2q-42 0 -84 -8.5t-76.5 -24.5t-56.5 -39v-666h-425zM284 1220l233 396h448l-293 -396h-388z" />
    <glyph glyph-name="uni0156" unicode="&#x156;" horiz-adv-x="1425" 
d="M109 0v1441q74 17 159.5 30.5t174.5 21t174 7.5q337 0 510 -122t173 -379q0 -165 -80 -276.5t-224 -168.5t-337 -57q-32 0 -62 1.5t-62 2.5v-501h-426zM959 0l-445 676h459l455 -676h-469zM669 814q110 0 168 42t58 143q0 65 -26 106.5t-77 61.5t-125 20q-36 0 -69.5 -3
t-62.5 -9v-353l44 -4t44.5 -3t45.5 -1zM624 -518q40 72 55.5 120.5t15.5 103.5l83 -78h-28q-124 0 -176 36.5t-52 97.5q0 64 54 99t174 35q121 0 174.5 -46t53.5 -130q0 -60 -26 -126.5t-66 -111.5h-262z" />
    <glyph glyph-name="uni0157" unicode="&#x157;" horiz-adv-x="868" 
d="M97 0v1100h346l33 -139h18q40 84 110.5 120.5t161.5 36.5q24 0 49 -2.5t42 -5.5v-382q-27 6 -59 8t-59 2q-42 0 -84 -8.5t-76.5 -24.5t-56.5 -39v-666h-425zM184 -518q40 72 55.5 120.5t15.5 103.5l83 -78h-28q-124 0 -176 36.5t-52 97.5q0 64 54 99t174 35
q121 0 174.5 -46t53.5 -130q0 -60 -26 -126.5t-66 -111.5h-262z" />
    <glyph glyph-name="Rcaron" unicode="&#x158;" horiz-adv-x="1425" 
d="M109 0v1441q74 17 159.5 30.5t174.5 21t174 7.5q337 0 510 -122t173 -379q0 -165 -80 -276.5t-224 -168.5t-337 -57q-32 0 -62 1.5t-62 2.5v-501h-426zM959 0l-445 676h459l455 -676h-469zM669 814q110 0 168 42t58 143q0 65 -26 106.5t-77 61.5t-125 20q-36 0 -69.5 -3
t-62.5 -9v-353l44 -4t44.5 -3t45.5 -1zM532 1586l-262 316h310l159 -205h-60l159 205h310l-262 -316h-354z" />
    <glyph glyph-name="rcaron" unicode="&#x159;" horiz-adv-x="868" 
d="M97 0v1100h346l33 -139h18q40 84 110.5 120.5t161.5 36.5q24 0 49 -2.5t42 -5.5v-382q-27 6 -59 8t-59 2q-42 0 -84 -8.5t-76.5 -24.5t-56.5 -39v-666h-425zM308 1220l-239 396h295l142 -254h-56l142 254h295l-239 -396h-340z" />
    <glyph glyph-name="Sacute" unicode="&#x15a;" horiz-adv-x="1214" 
d="M531 -20q-120 0 -235.5 18t-209.5 48v347q63 -20 139 -35.5t155 -24t148 -8.5q125 0 169.5 29.5t44.5 76.5q0 40 -31 65t-132 51l-132 34q-199 49 -302 157t-103 284q0 226 168 352t507 126q111 0 205.5 -12t165.5 -31v-347q-67 21 -159 33t-184 12q-109 0 -168 -15
t-82 -40t-23 -55q0 -35 26 -57.5t109 -45.5l132 -34q148 -36 244 -95.5t142.5 -146.5t46.5 -205q0 -147 -76.5 -255t-220 -167t-344.5 -59zM427 1586l183 316h444l-245 -316h-382z" />
    <glyph glyph-name="sacute" unicode="&#x15b;" horiz-adv-x="1030" 
d="M461 -22q-102 0 -200.5 13t-182.5 38v304q80 -23 178 -37.5t197 -14.5q87 0 118 16t31 42q0 19 -11 28t-42 14l-198 34q-158 27 -232.5 108t-74.5 221q0 172 141 273t431 101q87 0 170.5 -10t145.5 -27v-304q-62 18 -142 28t-161 10q-82 0 -123.5 -9t-55.5 -23.5
t-14 -29.5t12.5 -23.5t42.5 -14.5l198 -34q144 -24 224.5 -97t80.5 -231q0 -174 -140.5 -274.5t-392.5 -100.5zM325 1220l233 396h448l-293 -396h-388z" />
    <glyph glyph-name="Scircumflex" unicode="&#x15c;" horiz-adv-x="1214" 
d="M531 -20q-120 0 -235.5 18t-209.5 48v347q63 -20 139 -35.5t155 -24t148 -8.5q125 0 169.5 29.5t44.5 76.5q0 40 -31 65t-132 51l-132 34q-199 49 -302 157t-103 284q0 226 168 352t507 126q111 0 205.5 -12t165.5 -31v-347q-67 21 -159 33t-184 12q-109 0 -168 -15
t-82 -40t-23 -55q0 -35 26 -57.5t109 -45.5l132 -34q148 -36 244 -95.5t142.5 -146.5t46.5 -205q0 -147 -76.5 -255t-220 -167t-344.5 -59zM181 1586l262 316h354l262 -316h-310l-159 205h60l-159 -205h-310z" />
    <glyph glyph-name="scircumflex" unicode="&#x15d;" horiz-adv-x="1030" 
d="M461 -22q-102 0 -200.5 13t-182.5 38v304q80 -23 178 -37.5t197 -14.5q87 0 118 16t31 42q0 19 -11 28t-42 14l-198 34q-158 27 -232.5 108t-74.5 221q0 172 141 273t431 101q87 0 170.5 -10t145.5 -27v-304q-62 18 -142 28t-161 10q-82 0 -123.5 -9t-55.5 -23.5
t-14 -29.5t12.5 -23.5t42.5 -14.5l198 -34q144 -24 224.5 -97t80.5 -231q0 -174 -140.5 -274.5t-392.5 -100.5zM110 1220l239 396h340l239 -396h-295l-142 254h56l-142 -254h-295z" />
    <glyph glyph-name="Scedilla" unicode="&#x15e;" horiz-adv-x="1214" 
d="M531 -20q-120 0 -235.5 18t-209.5 48v347q63 -20 139 -35.5t155 -24t148 -8.5q125 0 169.5 29.5t44.5 76.5q0 40 -31 65t-132 51l-132 34q-199 49 -302 157t-103 284q0 226 168 352t507 126q111 0 205.5 -12t165.5 -31v-347q-67 21 -159 33t-184 12q-109 0 -168 -15
t-82 -40t-23 -55q0 -35 26 -57.5t109 -45.5l132 -34q148 -36 244 -95.5t142.5 -146.5t46.5 -205q0 -147 -76.5 -255t-220 -167t-344.5 -59zM571 -460q-61 0 -112.5 8t-96.5 21v152q44 -14 95 -21t92 -7q57 0 85.5 14t28.5 47q0 35 -29 50t-86 15h-52v201h194v-142l-92 53
q142 0 211 -50.5t69 -141.5q0 -90 -73 -144.5t-234 -54.5z" />
    <glyph glyph-name="scedilla" unicode="&#x15f;" horiz-adv-x="1030" 
d="M461 -22q-102 0 -200.5 13t-182.5 38v304q80 -23 178 -37.5t197 -14.5q87 0 118 16t31 42q0 19 -11 28t-42 14l-198 34q-158 27 -232.5 108t-74.5 221q0 172 141 273t431 101q87 0 170.5 -10t145.5 -27v-304q-62 18 -142 28t-161 10q-82 0 -123.5 -9t-55.5 -23.5
t-14 -29.5t12.5 -23.5t42.5 -14.5l198 -34q144 -24 224.5 -97t80.5 -231q0 -174 -140.5 -274.5t-392.5 -100.5zM510 -460q-53 0 -100 8t-89 21v152q39 -14 86.5 -21t80.5 -7q47 0 70.5 14t23.5 48q0 64 -95 64h-52v201h194v-142l-92 53q129 0 194.5 -51.5t65.5 -143.5
q0 -90 -70 -143t-217 -53z" />
    <glyph glyph-name="Scaron" unicode="&#x160;" horiz-adv-x="1214" 
d="M531 -20q-120 0 -235.5 18t-209.5 48v347q63 -20 139 -35.5t155 -24t148 -8.5q125 0 169.5 29.5t44.5 76.5q0 40 -31 65t-132 51l-132 34q-199 49 -302 157t-103 284q0 226 168 352t507 126q111 0 205.5 -12t165.5 -31v-347q-67 21 -159 33t-184 12q-109 0 -168 -15
t-82 -40t-23 -55q0 -35 26 -57.5t109 -45.5l132 -34q148 -36 244 -95.5t142.5 -146.5t46.5 -205q0 -147 -76.5 -255t-220 -167t-344.5 -59zM443 1586l-262 316h310l159 -205h-60l159 205h310l-262 -316h-354z" />
    <glyph glyph-name="scaron" unicode="&#x161;" horiz-adv-x="1030" 
d="M461 -22q-102 0 -200.5 13t-182.5 38v304q80 -23 178 -37.5t197 -14.5q87 0 118 16t31 42q0 19 -11 28t-42 14l-198 34q-158 27 -232.5 108t-74.5 221q0 172 141 273t431 101q87 0 170.5 -10t145.5 -27v-304q-62 18 -142 28t-161 10q-82 0 -123.5 -9t-55.5 -23.5
t-14 -29.5t12.5 -23.5t42.5 -14.5l198 -34q144 -24 224.5 -97t80.5 -231q0 -174 -140.5 -274.5t-392.5 -100.5zM349 1220l-239 396h295l142 -254h-56l142 254h295l-239 -396h-340z" />
    <glyph glyph-name="uni0162" unicode="&#x162;" horiz-adv-x="1359" 
d="M462 0v1123h-449v357h1333v-357h-449v-1123h-435zM631 -460q-61 0 -112.5 8t-96.5 21v152q44 -14 95 -21t92 -7q57 0 85.5 14t28.5 47q0 35 -29 50t-86 15h-52v201h194v-142l-92 53q142 0 211 -50.5t69 -141.5q0 -90 -73 -144.5t-234 -54.5z" />
    <glyph glyph-name="uni0163" unicode="&#x163;" horiz-adv-x="906" 
d="M633 -21q-219 0 -335.5 108t-116.5 338v675l79 380h346v-989q0 -96 33 -131t116 -35q23 0 48 2.5t56 7.5v-330q-44 -10 -106 -18t-120 -8zM21 770v330h838v-330h-838zM511 -460q-53 0 -100 8t-89 21v152q39 -14 86.5 -21t80.5 -7q47 0 70.5 14t23.5 48q0 64 -95 64h-52
v201h194v-142l-92 53q129 0 194.5 -51.5t65.5 -143.5q0 -90 -70 -143t-217 -53z" />
    <glyph glyph-name="Tcaron" unicode="&#x164;" horiz-adv-x="1359" 
d="M462 0v1123h-449v357h1333v-357h-449v-1123h-435zM503 1586l-262 316h310l159 -205h-60l159 205h310l-262 -316h-354z" />
    <glyph glyph-name="tcaron" unicode="&#x165;" horiz-adv-x="906" 
d="M633 -21q-219 0 -335.5 108t-116.5 338v675l79 380h346v-989q0 -96 33 -131t116 -35q23 0 48 2.5t56 7.5v-330q-44 -10 -106 -18t-120 -8zM21 770v330h838v-330h-838zM675 1180q19 116 26.5 214.5t7.5 221.5h276q0 -127 -22.5 -240t-61.5 -196h-226z" />
    <glyph glyph-name="Tbar" unicode="&#x166;" horiz-adv-x="1359" 
d="M178 565v270h1004v-270h-1004zM462 0v1123h-449v357h1333v-357h-449v-1123h-435z" />
    <glyph glyph-name="tbar" unicode="&#x167;" horiz-adv-x="906" 
d="M75 432v250h731v-250h-731zM633 -21q-219 0 -335.5 108t-116.5 338v675l79 380h346v-989q0 -96 33 -131t116 -35q23 0 48 2.5t56 7.5v-330q-44 -10 -106 -18t-120 -8zM21 770v330h838v-330h-838z" />
    <glyph glyph-name="Utilde" unicode="&#x168;" horiz-adv-x="1547" 
d="M778 -20q-234 0 -383 74t-220.5 223t-71.5 372v831h434v-872q0 -148 62 -212t179 -64t178.5 64t61.5 212v872h426v-831q0 -223 -70 -372t-217.5 -223t-378.5 -74zM962 1586q-57 0 -106 13t-96 27q-42 14 -84.5 25t-89.5 11q-66 0 -116 -17t-102 -53v233q46 40 98.5 58.5
t127.5 18.5q58 0 107 -13t95 -28q43 -13 85.5 -25t88.5 -12q67 0 117 17.5t101 52.5v-233q-44 -39 -97.5 -57t-128.5 -18z" />
    <glyph glyph-name="utilde" unicode="&#x169;" horiz-adv-x="1271" 
d="M487 -19q-114 0 -203.5 46t-141 147t-51.5 265v661h425v-630q0 -72 27.5 -99t73.5 -27q24 0 48.5 6.5t46.5 18.5t37 27v704h425v-1100h-349l-28 104h-16q-59 -60 -133 -91.5t-161 -31.5zM801 1245q-51 0 -97 17t-89 36q-40 18 -78.5 32t-79.5 14q-60 0 -109 -21t-101 -70
v256q86 84 218 84q52 0 98 -16.5t88 -35.5q40 -18 79 -32.5t79 -14.5q61 0 110 22t100 69v-256q-85 -84 -218 -84z" />
    <glyph glyph-name="Umacron" unicode="&#x16a;" horiz-adv-x="1547" 
d="M778 -20q-234 0 -383 74t-220.5 223t-71.5 372v831h434v-872q0 -148 62 -212t179 -64t178.5 64t61.5 212v872h426v-831q0 -223 -70 -372t-217.5 -223t-378.5 -74zM368 1611v248h820v-248h-820z" />
    <glyph glyph-name="umacron" unicode="&#x16b;" horiz-adv-x="1271" 
d="M487 -19q-114 0 -203.5 46t-141 147t-51.5 265v661h425v-630q0 -72 27.5 -99t73.5 -27q24 0 48.5 6.5t46.5 18.5t37 27v704h425v-1100h-349l-28 104h-16q-59 -60 -133 -91.5t-161 -31.5zM247 1295v248h772v-248h-772z" />
    <glyph glyph-name="Ubreve" unicode="&#x16c;" horiz-adv-x="1547" 
d="M778 -20q-234 0 -383 74t-220.5 223t-71.5 372v831h434v-872q0 -148 62 -212t179 -64t178.5 64t61.5 212v872h426v-831q0 -223 -70 -372t-217.5 -223t-378.5 -74zM778 1586q-131 0 -221.5 39.5t-140.5 110.5t-63 166h253q12 -58 53.5 -88.5t118.5 -30.5q78 0 119 30.5
t53 88.5h253q-12 -95 -62.5 -166t-140.5 -110.5t-222 -39.5z" />
    <glyph glyph-name="ubreve" unicode="&#x16d;" horiz-adv-x="1271" 
d="M487 -19q-114 0 -203.5 46t-141 147t-51.5 265v661h425v-630q0 -72 27.5 -99t73.5 -27q24 0 48.5 6.5t46.5 18.5t37 27v704h425v-1100h-349l-28 104h-16q-59 -60 -133 -91.5t-161 -31.5zM633 1228q-183 0 -289.5 93t-117.5 275h251q7 -82 46 -121.5t110 -39.5
q73 0 111.5 39.5t44.5 121.5h251q-10 -182 -116.5 -275t-290.5 -93z" />
    <glyph glyph-name="Uring" unicode="&#x16e;" horiz-adv-x="1547" 
d="M778 -20q-234 0 -383 74t-220.5 223t-71.5 372v831h434v-872q0 -148 62 -212t179 -64t178.5 64t61.5 212v872h426v-831q0 -223 -70 -372t-217.5 -223t-378.5 -74zM778 1570q-99 0 -163.5 62t-64.5 158t64.5 158t163.5 62t163.5 -62t64.5 -158t-64.5 -158t-163.5 -62z
M778 1708q35 0 56.5 22.5t21.5 59.5q0 38 -21.5 60t-55.5 22q-35 0 -57 -22t-22 -60q0 -37 22 -59.5t56 -22.5z" />
    <glyph glyph-name="uring" unicode="&#x16f;" horiz-adv-x="1271" 
d="M487 -19q-114 0 -203.5 46t-141 147t-51.5 265v661h425v-630q0 -72 27.5 -99t73.5 -27q24 0 48.5 6.5t46.5 18.5t37 27v704h425v-1100h-349l-28 104h-16q-59 -60 -133 -91.5t-161 -31.5zM633 1214q-99 0 -163.5 62t-64.5 158t64.5 158t163.5 62t163.5 -62t64.5 -158
t-64.5 -158t-163.5 -62zM633 1352q35 0 56.5 22.5t21.5 59.5q0 38 -21.5 60t-55.5 22q-35 0 -57 -22t-22 -60q0 -37 22 -59.5t56 -22.5z" />
    <glyph glyph-name="Uhungarumlaut" unicode="&#x170;" horiz-adv-x="1547" 
d="M778 -20q-234 0 -383 74t-220.5 223t-71.5 372v831h434v-872q0 -148 62 -212t179 -64t178.5 64t61.5 212v872h426v-831q0 -223 -70 -372t-217.5 -223t-378.5 -74zM849 1586l142 316h330l-162 -316h-310zM397 1586l142 316h330l-162 -316h-310z" />
    <glyph glyph-name="uhungarumlaut" unicode="&#x171;" horiz-adv-x="1271" 
d="M487 -19q-114 0 -203.5 46t-141 147t-51.5 265v661h425v-630q0 -72 27.5 -99t73.5 -27q24 0 48.5 6.5t46.5 18.5t37 27v704h425v-1100h-349l-28 104h-16q-59 -60 -133 -91.5t-161 -31.5zM704 1220l152 396h330l-172 -396h-310zM252 1220l152 396h330l-172 -396h-310z" />
    <glyph glyph-name="Uogonek" unicode="&#x172;" horiz-adv-x="1547" 
d="M863 -460q-159 0 -235.5 61t-76.5 163q0 92 68.5 167.5t242.5 133.5l-37 -85h-47q-234 0 -383 74t-220.5 223t-71.5 372v831h434v-872q0 -148 62 -212t179 -64t178.5 64t61.5 212v872h426v-831q0 -252 -90 -409t-279 -219q-119 -39 -181 -77t-84.5 -75t-22.5 -75
q0 -43 32.5 -68.5t105.5 -25.5q27 0 59.5 6t71.5 19v-155q-41 -13 -87 -21.5t-106 -8.5z" />
    <glyph glyph-name="uogonek" unicode="&#x173;" horiz-adv-x="1271" 
d="M487 -19q-114 0 -203.5 46t-141 147t-51.5 265v661h425v-630q0 -72 27.5 -99t73.5 -27q24 0 48.5 6.5t46.5 18.5t37 27v704h425v-1100l-332 -20l-45 124h-16q-59 -60 -133 -91.5t-161 -31.5zM1004 -460q-146 0 -219 61t-73 163q0 66 31.5 124t107.5 106.5t211 87.5
l112 -82q-90 -33 -139 -66.5t-68 -68.5t-19 -73q0 -42 29.5 -67t88.5 -25q24 0 54 6t64 19v-155q-37 -12 -78.5 -21t-101.5 -9z" />
    <glyph glyph-name="Wcircumflex" unicode="&#x174;" horiz-adv-x="2388" 
d="M387 0l-373 1480h437l300 -1293h-110l330 1293h472l311 -1293h-99l310 1293h409l-373 -1480h-554l-301 1218h115l-320 -1218h-554zM755 1586l262 316h354l262 -316h-310l-159 205h60l-159 -205h-310z" />
    <glyph glyph-name="wcircumflex" unicode="&#x175;" horiz-adv-x="1890" 
d="M311 0l-279 1100h399l145 -675h-15l163 675h462l158 -675h-24l156 675h382l-277 -1100h-462l-179 736h19l-186 -736h-462zM537 1220l239 396h340l239 -396h-295l-142 254h56l-142 -254h-295z" />
    <glyph glyph-name="Ycircumflex" unicode="&#x176;" horiz-adv-x="1359" 
d="M465 0v779l86 -316l-617 1017h456l360 -609h-116l356 609h422l-599 -1017l86 310v-773h-434zM241 1586l262 316h354l262 -316h-310l-159 205h60l-159 -205h-310z" />
    <glyph glyph-name="ycircumflex" unicode="&#x177;" horiz-adv-x="1238" 
d="M321 -440l149 440l149 344l215 756h416l-515 -1540h-414zM354 0l-366 1100h442l316 -1100h-392zM210 1220l239 396h340l239 -396h-295l-142 254h56l-142 -254h-295z" />
    <glyph glyph-name="Ydieresis" unicode="&#x178;" horiz-adv-x="1359" 
d="M465 0v779l86 -316l-617 1017h456l360 -609h-116l356 609h422l-599 -1017l86 310v-773h-434zM953 1570q-109 0 -163.5 47.5t-54.5 132.5q0 86 54.5 133t163.5 47q110 0 164 -47t54 -133q0 -85 -54 -132.5t-164 -47.5zM407 1570q-109 0 -163.5 47.5t-54.5 132.5
q0 86 54.5 133t163.5 47q110 0 164 -47t54 -133q0 -85 -54 -132.5t-164 -47.5z" />
    <glyph glyph-name="Zacute" unicode="&#x179;" horiz-adv-x="1297" 
d="M58 0v237l664 963v-77h-654v357h1161v-237l-664 -963v77h674v-357h-1181zM457 1586l183 316h444l-245 -316h-382z" />
    <glyph glyph-name="zacute" unicode="&#x17a;" horiz-adv-x="1075" 
d="M67 0v270l488 572v-72h-478v330h941v-270l-488 -572v72h498v-330h-961zM354 1220l233 396h448l-293 -396h-388z" />
    <glyph glyph-name="Zdotaccent" unicode="&#x17b;" horiz-adv-x="1297" 
d="M58 0v237l664 963v-77h-654v357h1161v-237l-664 -963v77h674v-357h-1181zM650 1570q-126 0 -189 47.5t-63 132.5q0 86 63 133t189 47q127 0 189.5 -47t62.5 -133q0 -85 -62.5 -132.5t-189.5 -47.5z" />
    <glyph glyph-name="zdotaccent" unicode="&#x17c;" horiz-adv-x="1075" 
d="M67 0v270l488 572v-72h-478v330h941v-270l-488 -572v72h498v-330h-961zM548 1208q-131 0 -192.5 55t-61.5 155q0 101 61.5 155.5t192.5 54.5q133 0 193.5 -54.5t60.5 -155.5q0 -100 -60.5 -155t-193.5 -55z" />
    <glyph glyph-name="Zcaron" unicode="&#x17d;" horiz-adv-x="1297" 
d="M58 0v237l664 963v-77h-654v357h1161v-237l-664 -963v77h674v-357h-1181zM473 1586l-262 316h310l159 -205h-60l159 205h310l-262 -316h-354z" />
    <glyph glyph-name="zcaron" unicode="&#x17e;" horiz-adv-x="1075" 
d="M67 0v270l488 572v-72h-478v330h941v-270l-488 -572v72h498v-330h-961zM378 1220l-239 396h295l142 -254h-56l142 254h295l-239 -396h-340z" />
    <glyph glyph-name="uni018F" unicode="&#x18f;" horiz-adv-x="1614" 
d="M813 -20q-226 0 -395.5 84.5t-264 251t-94.5 414.5v135h1192v-308h-902l152 155q0 -148 32 -236t101.5 -127t182.5 -39q103 0 170 36.5t99.5 124t32.5 241.5q0 169 -58.5 266t-178 138t-300.5 41q-99 0 -209.5 -11.5t-206.5 -32.5v345q106 21 225.5 31.5t227.5 10.5
q310 0 516 -84.5t308 -257.5t102 -438q0 -237 -91 -402t-255.5 -251.5t-385.5 -86.5z" />
    <glyph glyph-name="florin" unicode="&#x192;" horiz-adv-x="860" 
d="M55 -460q-47 0 -86.5 3t-81.5 9v326q27 -3 50.5 -4.5t46.5 -1.5q111 0 158 41t47 122v1086q0 159 64 274.5t188.5 178t303.5 62.5q48 0 87.5 -3t80.5 -9v-326q-27 3 -49.5 4.5t-47.5 1.5q-110 0 -157.5 -41t-47.5 -122v-1086q0 -159 -64 -274.5t-188 -178t-304 -62.5z
M29 770v330h835v-330h-835z" />
    <glyph glyph-name="Ohorn" unicode="&#x1a0;" horiz-adv-x="1644" 
d="M822 -20q-230 0 -399 85.5t-261.5 254.5t-92.5 420q0 252 93 421t262 254t398 85q56 0 109 -5t102.5 -10t94.5 -5q91 0 136.5 34t45.5 122q0 30 -2.5 63t-11.5 77h278q12 -42 15.5 -80.5t3.5 -77.5q0 -114 -43 -186t-120.5 -105.5t-179.5 -33.5l30 84
q142 -89 218.5 -249.5t76.5 -387.5q0 -250 -92 -419t-261.5 -255t-399.5 -86zM822 326q100 0 169 43t104.5 132.5t35.5 230.5q0 149 -36 242t-105 136.5t-168 43.5q-98 0 -167 -42t-105.5 -131.5t-36.5 -232.5q0 -150 36 -243t104.5 -136t168.5 -43z" />
    <glyph glyph-name="ohorn" unicode="&#x1a1;" horiz-adv-x="1266" 
d="M633 -22q-179 0 -309 65t-200.5 191.5t-70.5 311.5q0 188 68.5 315t200 192t321.5 65q63 0 110.5 -5.5t80.5 -5.5q84 0 128 33.5t44 117.5q0 28 -2.5 61t-11.5 77h260q12 -42 15 -80.5t3 -75.5q0 -112 -43 -182.5t-120.5 -104t-179.5 -33.5l61 105q225 -139 225 -477
q0 -186 -70 -313t-200 -192t-310 -65zM633 294q51 0 85.5 22t51.5 77t17 153q0 101 -17.5 156.5t-52 77.5t-84.5 22t-84.5 -22t-52 -77t-17.5 -155q0 -99 17.5 -154.5t51.5 -77.5t85 -22z" />
    <glyph glyph-name="Uhorn" unicode="&#x1af;" horiz-adv-x="1552" 
d="M778 -20q-234 0 -383 74t-220.5 223t-71.5 372v831h434v-872q0 -148 62 -212t179 -64t178.5 64t61.5 212v872h135q91 0 136.5 34t45.5 122q0 30 -2.5 63t-11.5 77h278q12 -42 15.5 -80.5t3.5 -77.5q0 -117 -46 -190t-128 -106v-673q0 -223 -70 -372t-217.5 -223
t-378.5 -74z" />
    <glyph glyph-name="uhorn" unicode="&#x1b0;" horiz-adv-x="1311" 
d="M487 -19q-114 0 -203.5 46t-141 147t-51.5 265v661h425v-630q0 -72 27.5 -99t73.5 -27q24 0 48.5 6.5t46.5 18.5t37 27v704h162q84 0 128 33.5t44 117.5q0 28 -2.5 61t-11.5 77h259q12 -42 15.5 -80.5t3.5 -75.5q0 -112 -43 -182.5t-120.5 -104t-179.5 -33.5l170 167
v-1080h-349l-28 104h-16q-59 -60 -133 -91.5t-161 -31.5z" />
    <glyph glyph-name="uni01C4" unicode="&#x1c4;" horiz-adv-x="2814" 
d="M552 -17q-65 0 -141.5 3t-154 8.5t-147.5 13.5v1433q75 17 162.5 30t180 19.5t181.5 6.5q429 0 646.5 -183t217.5 -574q0 -267 -103.5 -434t-313.5 -245t-528 -78zM671 331q129 0 214 39.5t126.5 129.5t41.5 242q0 151 -44 241t-129.5 129t-211.5 39q-27 0 -63 -3t-62 -9
v-805q35 -2 67 -2.5t61 -0.5zM1575 0v237l664 963v-77h-654v357h1161v-237l-664 -963v77h674v-357h-1181zM1990 1586l-262 316h310l159 -205h-60l159 205h310l-262 -316h-354z" />
    <glyph glyph-name="uni01C5" unicode="&#x1c5;" horiz-adv-x="2641" 
d="M552 -17q-65 0 -141.5 3t-154 8.5t-147.5 13.5v1433q75 17 162.5 30t180 19.5t181.5 6.5q429 0 646.5 -183t217.5 -574q0 -267 -103.5 -434t-313.5 -245t-528 -78zM671 331q129 0 214 39.5t126.5 129.5t41.5 242q0 151 -44 241t-129.5 129t-211.5 39q-27 0 -63 -3t-62 -9
v-805q35 -2 67 -2.5t61 -0.5zM1633 0v270l488 572v-72h-478v330h941v-270l-488 -572v72h498v-330h-961zM1937 1266l-262 316h310l159 -205h-60l159 205h310l-262 -316h-354z" />
    <glyph glyph-name="uni01C6" unicode="&#x1c6;" horiz-adv-x="2372" 
d="M516 -20q-123 0 -228.5 57t-170 178t-64.5 312q0 188 71.5 320.5t211.5 202t346 69.5q25 0 49 -1t44 -3v501h425v-1616h-356l-25 113h-18q-45 -60 -116.5 -96.5t-168.5 -36.5zM648 323q34 0 68 8.5t59 25.5v437q-19 4 -43.5 6t-48.5 2q-102 0 -153 -54.5t-51 -188.5
q0 -92 21 -143t59 -72t89 -21zM1364 0v270l488 572v-72h-478v330h941v-270l-488 -572v72h498v-330h-961zM1675 1220l-239 396h295l142 -254h-56l142 254h295l-239 -396h-340z" />
    <glyph glyph-name="uni01C7" unicode="&#x1c7;" horiz-adv-x="1851" 
d="M109 0v1480h434v-1123h648v-357h-1082zM1442 -354l-274 182q55 72 86 142t43.5 150.5t12.5 183.5v1176h432v-1160q0 -125 -28 -237.5t-94 -220t-178 -216.5z" />
    <glyph glyph-name="uni01C8" unicode="&#x1c8;" horiz-adv-x="1819" 
d="M109 0v1480h434v-1123h648v-357h-1082zM1426 -476l-272 180q55 72 86 142t43.5 150.5t12.5 183.5v920h426v-904q0 -125 -28 -237t-92.5 -219t-175.5 -216zM1504 1208q-131 0 -192.5 55t-61.5 155q0 101 61.5 155.5t192.5 54.5q133 0 193.5 -54.5t60.5 -155.5
q0 -100 -60.5 -155t-193.5 -55z" />
    <glyph glyph-name="uni01C9" unicode="&#x1c9;" horiz-adv-x="1239" 
d="M97 0v1616h425v-1616h-425zM846 -476l-272 180q55 72 86 142t43.5 150.5t12.5 183.5v920h426v-904q0 -125 -28 -237t-92.5 -219t-175.5 -216zM924 1208q-131 0 -192.5 55t-61.5 155q0 101 61.5 155.5t192.5 54.5q133 0 193.5 -54.5t60.5 -155.5q0 -100 -60.5 -155
t-193.5 -55z" />
    <glyph glyph-name="uni01CA" unicode="&#x1ca;" horiz-adv-x="2244" 
d="M109 0v1480h433l600 -932h-66v932h407v-1480h-433l-600 932h66v-932h-407zM1835 -354l-274 182q55 72 86 142t43.5 150.5t12.5 183.5v1176h432v-1160q0 -125 -28 -237.5t-94 -220t-178 -216.5z" />
    <glyph glyph-name="uni01CB" unicode="&#x1cb;" horiz-adv-x="2212" 
d="M109 0v1480h433l600 -932h-66v932h407v-1480h-433l-600 932h66v-932h-407zM1819 -476l-272 180q55 72 86 142t43.5 150.5t12.5 183.5v920h426v-904q0 -125 -28 -237t-92.5 -219t-175.5 -216zM1897 1208q-131 0 -192.5 55t-61.5 155q0 101 61.5 155.5t192.5 54.5
q133 0 193.5 -54.5t60.5 -155.5q0 -100 -60.5 -155t-193.5 -55z" />
    <glyph glyph-name="uni01CC" unicode="&#x1cc;" horiz-adv-x="1900" 
d="M97 0v1100h349l28 -104h18q57 60 135.5 91t172.5 31q112 0 200 -46t138.5 -147.5t50.5 -266.5v-658h-425v630q0 72 -27.5 98.5t-78.5 26.5q-27 0 -52 -6.5t-46.5 -18t-37.5 -27.5v-703h-425zM1507 -476l-272 180q55 72 86 142t43.5 150.5t12.5 183.5v920h426v-904
q0 -125 -28 -237t-92.5 -219t-175.5 -216zM1585 1208q-131 0 -192.5 55t-61.5 155q0 101 61.5 155.5t192.5 54.5q133 0 193.5 -54.5t60.5 -155.5q0 -100 -60.5 -155t-193.5 -55z" />
    <glyph glyph-name="Gcaron" unicode="&#x1e6;" horiz-adv-x="1479" 
d="M973 -20q-303 0 -504 84t-300.5 251.5t-99.5 420.5q0 246 102.5 416.5t306 259t507.5 88.5q88 0 172.5 -8t162.5 -26v-352q-70 15 -143 23t-151 8q-183 0 -293.5 -43t-161 -135t-50.5 -238q0 -135 45.5 -223t138 -131t232.5 -43q54 0 112 4.5t105 10.5l-188 -158v531h402
v-705q-97 -15 -197.5 -25t-197.5 -10zM668 1586l-262 316h310l159 -205h-60l159 205h310l-262 -316h-354z" />
    <glyph glyph-name="gcaron" unicode="&#x1e7;" horiz-adv-x="1297" 
d="M531 -460q-95 0 -196 9.5t-201 32.5v326q97 -24 190.5 -35.5t170.5 -11.5q151 0 215.5 50t64.5 158v50h-19q-46 -59 -114.5 -90t-157.5 -31q-112 0 -210.5 59t-159.5 176.5t-61 294.5q0 277 163.5 433.5t504.5 156.5q79 0 164 -8t166.5 -23t148.5 -38v-899
q0 -319 -164 -464.5t-505 -145.5zM655 339q31 0 62.5 6.5t57.5 18.5v429q-19 4 -42.5 6.5t-49.5 2.5q-98 0 -151 -54t-53 -185q0 -86 20.5 -135t60 -69t95.5 -20zM506 1220l-239 396h295l142 -254h-56l142 254h295l-239 -396h-340z" />
    <glyph glyph-name="uni01EA" unicode="&#x1ea;" horiz-adv-x="1644" 
d="M878 -460q-159 0 -235.5 61t-76.5 163q0 93 68 169t238 129l-31 -82h-34q-225 0 -391 86.5t-256.5 255.5t-90.5 418q0 252 93 421t262 254t398 85t398 -85.5t262 -254.5t93 -420q0 -218 -67.5 -366.5t-180 -236t-246.5 -124.5q-108 -31 -168.5 -66.5t-85.5 -74t-25 -78.5
q0 -43 32.5 -68.5t105.5 -25.5q27 0 59.5 6t71.5 19v-155q-41 -13 -87 -21.5t-106 -8.5zM822 326q100 0 169 43t104.5 132.5t35.5 230.5q0 149 -36 242t-105 136.5t-168 43.5q-98 0 -167 -42t-105.5 -131.5t-36.5 -232.5q0 -150 36 -243t104.5 -136t168.5 -43z" />
    <glyph glyph-name="uni01EB" unicode="&#x1eb;" horiz-adv-x="1266" 
d="M690 -460q-146 0 -219 61t-73 163q0 93 56.5 161t187.5 121l-9 -68q-179 0 -309 65t-200.5 191.5t-70.5 311.5q0 188 68 315t197.5 192t314.5 65t315 -66t197.5 -193t67.5 -311q0 -206 -86 -339t-244 -192q-103 -38 -156.5 -74t-73 -72t-19.5 -73q0 -44 29.5 -71
t88.5 -27q24 0 54 6t64 19v-155q-37 -12 -78.5 -21t-101.5 -9zM633 294q51 0 85.5 22t51.5 77t17 153q0 101 -17.5 156.5t-52 77.5t-84.5 22t-84.5 -22t-52 -77t-17.5 -155q0 -99 17.5 -154.5t51.5 -77.5t85 -22z" />
    <glyph glyph-name="uni01F1" unicode="&#x1f1;" horiz-adv-x="2814" 
d="M552 -17q-65 0 -141.5 3t-154 8.5t-147.5 13.5v1433q75 17 162.5 30t180 19.5t181.5 6.5q429 0 646.5 -183t217.5 -574q0 -267 -103.5 -434t-313.5 -245t-528 -78zM671 331q129 0 214 39.5t126.5 129.5t41.5 242q0 151 -44 241t-129.5 129t-211.5 39q-27 0 -63 -3t-62 -9
v-805q35 -2 67 -2.5t61 -0.5zM1575 0v237l664 963v-77h-654v357h1161v-237l-664 -963v77h674v-357h-1181z" />
    <glyph glyph-name="uni01F2" unicode="&#x1f2;" horiz-adv-x="2641" 
d="M552 -17q-65 0 -141.5 3t-154 8.5t-147.5 13.5v1433q75 17 162.5 30t180 19.5t181.5 6.5q429 0 646.5 -183t217.5 -574q0 -267 -103.5 -434t-313.5 -245t-528 -78zM671 331q129 0 214 39.5t126.5 129.5t41.5 242q0 151 -44 241t-129.5 129t-211.5 39q-27 0 -63 -3t-62 -9
v-805q35 -2 67 -2.5t61 -0.5zM1633 0v270l488 572v-72h-478v330h941v-270l-488 -572v72h498v-330h-961z" />
    <glyph glyph-name="uni01F3" unicode="&#x1f3;" horiz-adv-x="2372" 
d="M516 -20q-123 0 -228.5 57t-170 178t-64.5 312q0 188 71.5 320.5t211.5 202t346 69.5q25 0 49 -1t44 -3v501h425v-1616h-356l-25 113h-18q-45 -60 -116.5 -96.5t-168.5 -36.5zM648 323q34 0 68 8.5t59 25.5v437q-19 4 -43.5 6t-48.5 2q-102 0 -153 -54.5t-51 -188.5
q0 -92 21 -143t59 -72t89 -21zM1364 0v270l488 572v-72h-478v330h941v-270l-488 -572v72h498v-330h-961z" />
    <glyph glyph-name="uni01F4" unicode="&#x1f4;" horiz-adv-x="1479" 
d="M973 -20q-303 0 -504 84t-300.5 251.5t-99.5 420.5q0 246 102.5 416.5t306 259t507.5 88.5q88 0 172.5 -8t162.5 -26v-352q-70 15 -143 23t-151 8q-183 0 -293.5 -43t-161 -135t-50.5 -238q0 -135 45.5 -223t138 -131t232.5 -43q54 0 112 4.5t105 10.5l-188 -158v531h402
v-705q-97 -15 -197.5 -25t-197.5 -10zM652 1586l183 316h444l-245 -316h-382z" />
    <glyph glyph-name="uni01F5" unicode="&#x1f5;" horiz-adv-x="1297" 
d="M531 -460q-95 0 -196 9.5t-201 32.5v326q97 -24 190.5 -35.5t170.5 -11.5q151 0 215.5 50t64.5 158v50h-19q-46 -59 -114.5 -90t-157.5 -31q-112 0 -210.5 59t-159.5 176.5t-61 294.5q0 277 163.5 433.5t504.5 156.5q79 0 164 -8t166.5 -23t148.5 -38v-899
q0 -319 -164 -464.5t-505 -145.5zM655 339q31 0 62.5 6.5t57.5 18.5v429q-19 4 -42.5 6.5t-49.5 2.5q-98 0 -151 -54t-53 -185q0 -86 20.5 -135t60 -69t95.5 -20zM482 1220l233 396h448l-293 -396h-388z" />
    <glyph glyph-name="Aringacute" unicode="&#x1fa;" horiz-adv-x="1530" 
d="M4 0l442 1480h638l442 -1480h-424l-359 1295h38l-357 -1295h-420zM373 339l91 340h600l90 -340h-781zM764 1570q-99 0 -163.5 62t-64.5 158t64.5 158t163.5 62t163.5 -62t64.5 -158t-64.5 -158t-163.5 -62zM764 1708q35 0 56.5 22.5t21.5 59.5q0 38 -21.5 60t-56.5 22
q-34 0 -56 -22t-22 -60q0 -37 22 -59.5t56 -22.5zM926 1844l-180 114l136 178h296z" />
    <glyph glyph-name="aringacute" unicode="&#x1fb;" horiz-adv-x="1176" 
d="M416 -22q-177 0 -274.5 93.5t-97.5 237.5q0 163 116.5 255t378.5 106l189 10l48 -223l-190 -10q-66 -3 -96 -28.5t-30 -68.5q0 -39 27 -61.5t76 -22.5q26 0 54.5 6t53.5 20v347q0 59 -20 94.5t-69.5 51.5t-138.5 16q-64 0 -145.5 -10t-153.5 -31v313q89 23 191 34t189 11
q199 0 322.5 -47.5t181 -159t57.5 -301.5v-610h-348l-29 101h-18q-46 -66 -117.5 -94.5t-156.5 -28.5zM585 1214q-99 0 -163.5 62t-64.5 158t64.5 158t163.5 62t163.5 -62t64.5 -158t-64.5 -158t-163.5 -62zM585 1352q35 0 56.5 22.5t21.5 59.5q0 38 -21.5 60t-56.5 22
q-34 0 -56 -22t-22 -60q0 -37 22 -59.5t56 -22.5zM747 1488l-180 114l136 178h296z" />
    <glyph glyph-name="AEacute" unicode="&#x1fc;" horiz-adv-x="2112" 
d="M4 0l442 1480h639v-342h-343l-315 -1138h-423zM373 338l91 342h612v-342h-703zM1003 0l-118 1480h1145v-342h-701l74 -796h637v-342h-1037zM1160 584v342h765v-342h-765zM902 1586l183 316h444l-245 -316h-382z" />
    <glyph glyph-name="aeacute" unicode="&#x1fd;" horiz-adv-x="1764" 
d="M1316 -22q-226 0 -367.5 60.5t-207.5 187t-66 325.5l67 30q0 158 58 279t168 189.5t265 68.5q154 0 263.5 -68t167 -197.5t57.5 -315.5v-106h-704v234h373l-61 -17q0 80 -12.5 126t-39.5 65t-69 19t-69.5 -19t-40.5 -64.5t-13 -125.5v-175q0 -68 22.5 -107.5t85 -56.5
t183.5 -17q66 0 138.5 8.5t141.5 20.5v-311q-93 -18 -176 -25.5t-164 -7.5zM456 -22q-138 0 -229.5 42.5t-137 118t-45.5 174.5q0 106 51.5 185.5t161 123t283.5 43.5h206v-225h-160q-45 0 -73 -11.5t-40.5 -32.5t-12.5 -49q0 -38 27.5 -59t79.5 -21q45 0 83 14.5t81 52.5
l113 -185q-79 -93 -179 -132t-209 -39zM675 551v85q0 61 -22 97t-73.5 52t-138.5 16q-62 0 -143 -10t-153 -31v313q96 24 186.5 34.5t173.5 10.5q183 0 296.5 -51t165.5 -160.5t52 -284.5v-71h-344zM693 1220l233 396h448l-293 -396h-388z" />
    <glyph glyph-name="Oslashacute" unicode="&#x1fe;" horiz-adv-x="1644" 
d="M366 -3h-279l1189 1485h279zM822 -20q-228 0 -397 85.5t-262.5 254.5t-93.5 420q0 252 93 421t262 254t398 85t398 -85.5t262 -254.5t93 -420q0 -250 -93 -419t-262 -255t-398 -86zM822 326q100 0 169 43t104.5 132.5t35.5 230.5q0 149 -36 242t-105 136.5t-168 43.5
q-98 0 -167 -42t-105.5 -131.5t-36.5 -232.5q0 -150 36 -243t104.5 -136t168.5 -43zM628 1586l183 316h444l-245 -316h-382z" />
    <glyph glyph-name="oslashacute" unicode="&#x1ff;" horiz-adv-x="1266" 
d="M1062 968q74 -72 112.5 -177.5t38.5 -242.5q0 -186 -70 -313t-200 -192t-310 -65q-73 0 -138 11t-122 33l-32 -44h-252l113 157q-72 71 -110.5 174.5t-38.5 236.5q0 188 68 315t197.5 192t314.5 65q72 0 136 -10t120 -30l33 45h252zM633 808q-54 0 -91 -22.5t-56.5 -79
t-19.5 -158.5q0 -19 2 -37t6 -34l228 313q-15 10 -32 14t-37 4zM633 288q55 0 92 22.5t56 79t19 156.5q0 24 -1.5 45t-5.5 39l-232 -320q14 -12 32.5 -17t39.5 -5zM437 1220l233 396h448l-293 -396h-388z" />
    <glyph glyph-name="uni0200" unicode="&#x200;" horiz-adv-x="1530" 
d="M4 0l442 1480h638l442 -1480h-424l-359 1295h38l-357 -1295h-420zM373 339l91 340h600l90 -340h-781zM835 1586l-162 316h330l142 -316h-310zM383 1586l-162 316h330l142 -316h-310z" />
    <glyph glyph-name="uni0201" unicode="&#x201;" horiz-adv-x="1176" 
d="M416 -22q-177 0 -274.5 93.5t-97.5 237.5q0 163 116.5 255t378.5 106l189 10l48 -223l-190 -10q-66 -3 -96 -28.5t-30 -68.5q0 -39 27 -61.5t76 -22.5q26 0 54.5 6t53.5 20v347q0 59 -20 94.5t-69.5 51.5t-138.5 16q-64 0 -145.5 -10t-153.5 -31v313q89 23 191 34t189 11
q199 0 322.5 -47.5t181 -159t57.5 -301.5v-610h-348l-29 101h-18q-46 -66 -117.5 -94.5t-156.5 -28.5zM656 1220l-172 396h330l152 -396h-310zM204 1220l-172 396h330l152 -396h-310z" />
    <glyph glyph-name="uni0202" unicode="&#x202;" horiz-adv-x="1530" 
d="M4 0l442 1480h638l442 -1480h-424l-359 1295h38l-357 -1295h-420zM373 339l91 340h600l90 -340h-781zM339 1586q13 95 63 166t140.5 110.5t221.5 39.5q132 0 222 -39.5t140.5 -110.5t62.5 -166h-253q-12 59 -53 89t-119 30q-77 0 -118.5 -30t-53.5 -89h-253z" />
    <glyph glyph-name="uni0203" unicode="&#x203;" horiz-adv-x="1176" 
d="M416 -22q-177 0 -274.5 93.5t-97.5 237.5q0 163 116.5 255t378.5 106l189 10l48 -223l-190 -10q-66 -3 -96 -28.5t-30 -68.5q0 -39 27 -61.5t76 -22.5q26 0 54.5 6t53.5 20v347q0 59 -20 94.5t-69.5 51.5t-138.5 16q-64 0 -145.5 -10t-153.5 -31v313q89 23 191 34t189 11
q199 0 322.5 -47.5t181 -159t57.5 -301.5v-610h-348l-29 101h-18q-46 -66 -117.5 -94.5t-156.5 -28.5zM178 1248q11 184 116.5 276t290.5 92q183 0 290 -92t117 -276h-251q-6 85 -45 124.5t-111 39.5q-74 0 -111.5 -39.5t-44.5 -124.5h-251z" />
    <glyph glyph-name="uni0204" unicode="&#x204;" horiz-adv-x="1313" 
d="M109 0v1480h1122v-342h-694v-796h704v-342h-1132zM362 584v342h764v-342h-764zM763 1586l-162 316h330l142 -316h-310zM311 1586l-162 316h330l142 -316h-310z" />
    <glyph glyph-name="uni0205" unicode="&#x205;" horiz-adv-x="1162" 
d="M712 -22q-231 0 -376.5 60.5t-214 187t-68.5 325.5q0 175 63.5 302.5t187 196t303.5 68.5q170 0 284 -69t171 -199.5t57 -312.5v-106h-822v234h491l-61 -17q0 80 -12.5 126t-40.5 65t-72 19t-72 -19t-41.5 -64.5t-13.5 -125.5v-175q0 -68 22.5 -107.5t87 -56.5t189.5 -17
q66 0 138.5 8.5t141.5 20.5v-311q-93 -18 -176.5 -25.5t-165.5 -7.5zM669 1220l-172 396h330l152 -396h-310zM217 1220l-172 396h330l152 -396h-310z" />
    <glyph glyph-name="uni0206" unicode="&#x206;" horiz-adv-x="1313" 
d="M109 0v1480h1122v-342h-694v-796h704v-342h-1132zM362 584v342h764v-342h-764zM267 1586q13 95 63 166t140.5 110.5t221.5 39.5q132 0 222 -39.5t140.5 -110.5t62.5 -166h-253q-12 59 -53 89t-119 30q-77 0 -118.5 -30t-53.5 -89h-253z" />
    <glyph glyph-name="uni0207" unicode="&#x207;" horiz-adv-x="1162" 
d="M712 -22q-231 0 -376.5 60.5t-214 187t-68.5 325.5q0 175 63.5 302.5t187 196t303.5 68.5q170 0 284 -69t171 -199.5t57 -312.5v-106h-822v234h491l-61 -17q0 80 -12.5 126t-40.5 65t-72 19t-72 -19t-41.5 -64.5t-13.5 -125.5v-175q0 -68 22.5 -107.5t87 -56.5t189.5 -17
q66 0 138.5 8.5t141.5 20.5v-311q-93 -18 -176.5 -25.5t-165.5 -7.5zM191 1248q11 184 116.5 276t290.5 92q183 0 290 -92t117 -276h-251q-6 85 -45 124.5t-111 39.5q-74 0 -111.5 -39.5t-44.5 -124.5h-251z" />
    <glyph glyph-name="uni0208" unicode="&#x208;" horiz-adv-x="652" 
d="M109 0v1480h434v-1480h-434zM397 1586l-162 316h330l142 -316h-310zM-55 1586l-162 316h330l142 -316h-310z" />
    <glyph glyph-name="uni0209" unicode="&#x209;" horiz-adv-x="620" 
d="M97 0v1100h426v-1100h-426zM381 1220l-172 396h330l152 -396h-310zM-71 1220l-172 396h330l152 -396h-310z" />
    <glyph glyph-name="uni020A" unicode="&#x20a;" horiz-adv-x="652" 
d="M109 0v1480h434v-1480h-434zM-99 1586q13 95 63 166t140.5 110.5t221.5 39.5q132 0 222 -39.5t140.5 -110.5t62.5 -166h-253q-12 59 -53 89t-119 30q-77 0 -118.5 -30t-53.5 -89h-253z" />
    <glyph glyph-name="uni020B" unicode="&#x20b;" horiz-adv-x="620" 
d="M97 0v1100h426v-1100h-426zM-97 1248q11 184 116.5 276t290.5 92q183 0 290 -92t117 -276h-251q-6 85 -45 124.5t-111 39.5q-74 0 -111.5 -39.5t-44.5 -124.5h-251z" />
    <glyph glyph-name="uni020C" unicode="&#x20c;" horiz-adv-x="1644" 
d="M822 -20q-228 0 -397 85.5t-262.5 254.5t-93.5 420q0 252 93 421t262 254t398 85t398 -85.5t262 -254.5t93 -420q0 -250 -93 -419t-262 -255t-398 -86zM822 326q100 0 169 43t104.5 132.5t35.5 230.5q0 149 -36 242t-105 136.5t-168 43.5q-98 0 -167 -42t-105.5 -131.5
t-36.5 -232.5q0 -150 36 -243t104.5 -136t168.5 -43zM893 1586l-162 316h330l142 -316h-310zM441 1586l-162 316h330l142 -316h-310z" />
    <glyph glyph-name="uni020D" unicode="&#x20d;" horiz-adv-x="1266" 
d="M633 -22q-179 0 -309 65t-200.5 191.5t-70.5 311.5q0 188 68 315t197.5 192t314.5 65t315 -66t197.5 -193t67.5 -311q0 -186 -70 -313t-200 -192t-310 -65zM633 294q51 0 85.5 22t51.5 77t17 153q0 101 -17.5 156.5t-52 77.5t-84.5 22t-84.5 -22t-52 -77t-17.5 -155
q0 -99 17.5 -154.5t51.5 -77.5t85 -22zM704 1220l-172 396h330l152 -396h-310zM252 1220l-172 396h330l152 -396h-310z" />
    <glyph glyph-name="uni020E" unicode="&#x20e;" horiz-adv-x="1644" 
d="M822 -20q-228 0 -397 85.5t-262.5 254.5t-93.5 420q0 252 93 421t262 254t398 85t398 -85.5t262 -254.5t93 -420q0 -250 -93 -419t-262 -255t-398 -86zM822 326q100 0 169 43t104.5 132.5t35.5 230.5q0 149 -36 242t-105 136.5t-168 43.5q-98 0 -167 -42t-105.5 -131.5
t-36.5 -232.5q0 -150 36 -243t104.5 -136t168.5 -43zM397 1586q13 95 63 166t140.5 110.5t221.5 39.5q132 0 222 -39.5t140.5 -110.5t62.5 -166h-253q-12 59 -53 89t-119 30q-77 0 -118.5 -30t-53.5 -89h-253z" />
    <glyph glyph-name="uni020F" unicode="&#x20f;" horiz-adv-x="1266" 
d="M633 -22q-179 0 -309 65t-200.5 191.5t-70.5 311.5q0 188 68 315t197.5 192t314.5 65t315 -66t197.5 -193t67.5 -311q0 -186 -70 -313t-200 -192t-310 -65zM633 294q51 0 85.5 22t51.5 77t17 153q0 101 -17.5 156.5t-52 77.5t-84.5 22t-84.5 -22t-52 -77t-17.5 -155
q0 -99 17.5 -154.5t51.5 -77.5t85 -22zM226 1248q11 184 116.5 276t290.5 92q183 0 290 -92t117 -276h-251q-6 85 -45 124.5t-111 39.5q-74 0 -111.5 -39.5t-44.5 -124.5h-251z" />
    <glyph glyph-name="uni0210" unicode="&#x210;" horiz-adv-x="1425" 
d="M109 0v1441q74 17 159.5 30.5t174.5 21t174 7.5q337 0 510 -122t173 -379q0 -165 -80 -276.5t-224 -168.5t-337 -57q-32 0 -62 1.5t-62 2.5v-501h-426zM959 0l-445 676h459l455 -676h-469zM669 814q110 0 168 42t58 143q0 65 -26 106.5t-77 61.5t-125 20q-36 0 -69.5 -3
t-62.5 -9v-353l44 -4t44.5 -3t45.5 -1zM780 1586l-162 316h330l142 -316h-310zM328 1586l-162 316h330l142 -316h-310z" />
    <glyph glyph-name="uni0211" unicode="&#x211;" horiz-adv-x="868" 
d="M97 0v1100h346l33 -139h18q40 84 110.5 120.5t161.5 36.5q24 0 49 -2.5t42 -5.5v-382q-27 6 -59 8t-59 2q-42 0 -84 -8.5t-76.5 -24.5t-56.5 -39v-666h-425zM549 1220l-172 396h330l152 -396h-310zM97 1220l-172 396h330l152 -396h-310z" />
    <glyph glyph-name="uni0212" unicode="&#x212;" horiz-adv-x="1425" 
d="M109 0v1441q74 17 159.5 30.5t174.5 21t174 7.5q337 0 510 -122t173 -379q0 -165 -80 -276.5t-224 -168.5t-337 -57q-32 0 -62 1.5t-62 2.5v-501h-426zM959 0l-445 676h459l455 -676h-469zM669 814q110 0 168 42t58 143q0 65 -26 106.5t-77 61.5t-125 20q-36 0 -69.5 -3
t-62.5 -9v-353l44 -4t44.5 -3t45.5 -1zM284 1586q13 95 63 166t140.5 110.5t221.5 39.5q132 0 222 -39.5t140.5 -110.5t62.5 -166h-253q-12 59 -53 89t-119 30q-77 0 -118.5 -30t-53.5 -89h-253z" />
    <glyph glyph-name="uni0213" unicode="&#x213;" horiz-adv-x="868" 
d="M97 0v1100h346l33 -139h18q40 84 110.5 120.5t161.5 36.5q24 0 49 -2.5t42 -5.5v-382q-27 6 -59 8t-59 2q-42 0 -84 -8.5t-76.5 -24.5t-56.5 -39v-666h-425zM71 1248q11 184 116.5 276t290.5 92q183 0 290 -92t117 -276h-251q-6 85 -45 124.5t-111 39.5
q-74 0 -111.5 -39.5t-44.5 -124.5h-251z" />
    <glyph glyph-name="uni0214" unicode="&#x214;" horiz-adv-x="1547" 
d="M778 -20q-234 0 -383 74t-220.5 223t-71.5 372v831h434v-872q0 -148 62 -212t179 -64t178.5 64t61.5 212v872h426v-831q0 -223 -70 -372t-217.5 -223t-378.5 -74zM849 1586l-162 316h330l142 -316h-310zM397 1586l-162 316h330l142 -316h-310z" />
    <glyph glyph-name="uni0215" unicode="&#x215;" horiz-adv-x="1271" 
d="M487 -19q-114 0 -203.5 46t-141 147t-51.5 265v661h425v-630q0 -72 27.5 -99t73.5 -27q24 0 48.5 6.5t46.5 18.5t37 27v704h425v-1100h-349l-28 104h-16q-59 -60 -133 -91.5t-161 -31.5zM704 1220l-172 396h330l152 -396h-310zM252 1220l-172 396h330l152 -396h-310z" />
    <glyph glyph-name="uni0216" unicode="&#x216;" horiz-adv-x="1547" 
d="M778 -20q-234 0 -383 74t-220.5 223t-71.5 372v831h434v-872q0 -148 62 -212t179 -64t178.5 64t61.5 212v872h426v-831q0 -223 -70 -372t-217.5 -223t-378.5 -74zM353 1586q13 95 63 166t140.5 110.5t221.5 39.5q132 0 222 -39.5t140.5 -110.5t62.5 -166h-253
q-12 59 -53 89t-119 30q-77 0 -118.5 -30t-53.5 -89h-253z" />
    <glyph glyph-name="uni0217" unicode="&#x217;" horiz-adv-x="1271" 
d="M487 -19q-114 0 -203.5 46t-141 147t-51.5 265v661h425v-630q0 -72 27.5 -99t73.5 -27q24 0 48.5 6.5t46.5 18.5t37 27v704h425v-1100h-349l-28 104h-16q-59 -60 -133 -91.5t-161 -31.5zM226 1248q11 184 116.5 276t290.5 92q183 0 290 -92t117 -276h-251
q-6 85 -45 124.5t-111 39.5q-74 0 -111.5 -39.5t-44.5 -124.5h-251z" />
    <glyph glyph-name="uni0218" unicode="&#x218;" horiz-adv-x="1214" 
d="M531 -20q-120 0 -235.5 18t-209.5 48v347q63 -20 139 -35.5t155 -24t148 -8.5q125 0 169.5 29.5t44.5 76.5q0 40 -31 65t-132 51l-132 34q-199 49 -302 157t-103 284q0 226 168 352t507 126q111 0 205.5 -12t165.5 -31v-347q-67 21 -159 33t-184 12q-109 0 -168 -15
t-82 -40t-23 -55q0 -35 26 -57.5t109 -45.5l132 -34q148 -36 244 -95.5t142.5 -146.5t46.5 -205q0 -147 -76.5 -255t-220 -167t-344.5 -59zM494 -518q40 72 55.5 120.5t15.5 103.5l83 -78h-28q-124 0 -176 36.5t-52 97.5q0 64 54 99t174 35q121 0 174.5 -46t53.5 -130
q0 -60 -26 -126.5t-66 -111.5h-262z" />
    <glyph glyph-name="uni0219" unicode="&#x219;" horiz-adv-x="1030" 
d="M461 -22q-102 0 -200.5 13t-182.5 38v304q80 -23 178 -37.5t197 -14.5q87 0 118 16t31 42q0 19 -11 28t-42 14l-198 34q-158 27 -232.5 108t-74.5 221q0 172 141 273t431 101q87 0 170.5 -10t145.5 -27v-304q-62 18 -142 28t-161 10q-82 0 -123.5 -9t-55.5 -23.5
t-14 -29.5t12.5 -23.5t42.5 -14.5l198 -34q144 -24 224.5 -97t80.5 -231q0 -174 -140.5 -274.5t-392.5 -100.5zM393 -518q40 72 55.5 120.5t15.5 103.5l83 -78h-28q-124 0 -176 36.5t-52 97.5q0 64 54 99t174 35q121 0 174.5 -46t53.5 -130q0 -60 -26 -126.5t-66 -111.5
h-262z" />
    <glyph glyph-name="uni021A" unicode="&#x21a;" horiz-adv-x="1359" 
d="M462 0v1123h-449v357h1333v-357h-449v-1123h-435zM554 -518q40 72 55.5 120.5t15.5 103.5l83 -78h-28q-124 0 -176 36.5t-52 97.5q0 64 54 99t174 35q121 0 174.5 -46t53.5 -130q0 -60 -26 -126.5t-66 -111.5h-262z" />
    <glyph glyph-name="uni021B" unicode="&#x21b;" horiz-adv-x="906" 
d="M633 -21q-219 0 -335.5 108t-116.5 338v675l79 380h346v-989q0 -96 33 -131t116 -35q23 0 48 2.5t56 7.5v-330q-44 -10 -106 -18t-120 -8zM21 770v330h838v-330h-838zM394 -518q40 72 55.5 120.5t15.5 103.5l83 -78h-28q-124 0 -176 36.5t-52 97.5q0 64 54 99t174 35
q121 0 174.5 -46t53.5 -130q0 -60 -26 -126.5t-66 -111.5h-262z" />
    <glyph glyph-name="uni022A" unicode="&#x22a;" horiz-adv-x="1644" 
d="M822 -20q-228 0 -397 85.5t-262.5 254.5t-93.5 420q0 252 93 421t262 254t398 85t398 -85.5t262 -254.5t93 -420q0 -250 -93 -419t-262 -255t-398 -86zM822 326q100 0 169 43t104.5 132.5t35.5 230.5q0 149 -36 242t-105 136.5t-168 43.5q-98 0 -167 -42t-105.5 -131.5
t-36.5 -232.5q0 -150 36 -243t104.5 -136t168.5 -43zM1095 1570q-109 0 -163.5 47.5t-54.5 132.5q0 86 54.5 133t163.5 47q110 0 164 -47t54 -133q0 -85 -54 -132.5t-164 -47.5zM549 1570q-109 0 -163.5 47.5t-54.5 132.5q0 86 54.5 133t163.5 47q110 0 164 -47t54 -133
q0 -85 -54 -132.5t-164 -47.5zM412 2031v248h820v-248h-820z" />
    <glyph glyph-name="uni022B" unicode="&#x22b;" horiz-adv-x="1266" 
d="M633 -22q-179 0 -309 65t-200.5 191.5t-70.5 311.5q0 188 68 315t197.5 192t314.5 65t315 -66t197.5 -193t67.5 -311q0 -186 -70 -313t-200 -192t-310 -65zM633 294q51 0 85.5 22t51.5 77t17 153q0 101 -17.5 156.5t-52 77.5t-84.5 22t-84.5 -22t-52 -77t-17.5 -155
q0 -99 17.5 -154.5t51.5 -77.5t85 -22zM897 1215q-107 0 -163 54t-56 149q0 96 56 149.5t163 53.5q108 0 163.5 -54t55.5 -149t-55.5 -149t-163.5 -54zM369 1215q-107 0 -163 54t-56 149q0 96 56 149.5t163 53.5q108 0 163.5 -54t55.5 -149t-55.5 -149t-163.5 -54zM247 1741
v248h772v-248h-772z" />
    <glyph glyph-name="uni022C" unicode="&#x22c;" horiz-adv-x="1644" 
d="M822 -20q-228 0 -397 85.5t-262.5 254.5t-93.5 420q0 252 93 421t262 254t398 85t398 -85.5t262 -254.5t93 -420q0 -250 -93 -419t-262 -255t-398 -86zM822 326q100 0 169 43t104.5 132.5t35.5 230.5q0 149 -36 242t-105 136.5t-168 43.5q-98 0 -167 -42t-105.5 -131.5
t-36.5 -232.5q0 -150 36 -243t104.5 -136t168.5 -43zM1006 1586q-57 0 -106 13t-96 27q-42 14 -84.5 25t-89.5 11q-66 0 -116 -17t-102 -53v233q46 40 98.5 58.5t127.5 18.5q58 0 107 -13t95 -28q43 -13 85.5 -25t88.5 -12q67 0 117 17.5t101 52.5v-233q-44 -39 -97.5 -57
t-128.5 -18zM412 2011v248h820v-248h-820z" />
    <glyph glyph-name="uni022D" unicode="&#x22d;" horiz-adv-x="1266" 
d="M633 -22q-179 0 -309 65t-200.5 191.5t-70.5 311.5q0 188 68 315t197.5 192t314.5 65t315 -66t197.5 -193t67.5 -311q0 -186 -70 -313t-200 -192t-310 -65zM633 294q51 0 85.5 22t51.5 77t17 153q0 101 -17.5 156.5t-52 77.5t-84.5 22t-84.5 -22t-52 -77t-17.5 -155
q0 -99 17.5 -154.5t51.5 -77.5t85 -22zM801 1245q-51 0 -97 17t-89 36q-40 18 -78.5 32t-79.5 14q-60 0 -109 -21t-101 -70v256q86 84 218 84q52 0 98 -16.5t88 -35.5q40 -18 79 -32.5t79 -14.5q61 0 110 22t100 69v-256q-85 -84 -218 -84zM247 1736v248h772v-248h-772z" />
    <glyph glyph-name="uni0230" unicode="&#x230;" horiz-adv-x="1644" 
d="M822 -20q-228 0 -397 85.5t-262.5 254.5t-93.5 420q0 252 93 421t262 254t398 85t398 -85.5t262 -254.5t93 -420q0 -250 -93 -419t-262 -255t-398 -86zM822 326q100 0 169 43t104.5 132.5t35.5 230.5q0 149 -36 242t-105 136.5t-168 43.5q-98 0 -167 -42t-105.5 -131.5
t-36.5 -232.5q0 -150 36 -243t104.5 -136t168.5 -43zM822 1570q-126 0 -189 47.5t-63 132.5q0 86 63 133t189 47q127 0 189.5 -47t62.5 -133q0 -85 -62.5 -132.5t-189.5 -47.5zM412 2011v248h820v-248h-820z" />
    <glyph glyph-name="uni0231" unicode="&#x231;" horiz-adv-x="1266" 
d="M633 -22q-179 0 -309 65t-200.5 191.5t-70.5 311.5q0 188 68 315t197.5 192t314.5 65t315 -66t197.5 -193t67.5 -311q0 -186 -70 -313t-200 -192t-310 -65zM633 294q51 0 85.5 22t51.5 77t17 153q0 101 -17.5 156.5t-52 77.5t-84.5 22t-84.5 -22t-52 -77t-17.5 -155
q0 -99 17.5 -154.5t51.5 -77.5t85 -22zM633 1208q-131 0 -192.5 55t-61.5 155q0 101 61.5 155.5t192.5 54.5q133 0 193.5 -54.5t60.5 -155.5q0 -100 -60.5 -155t-193.5 -55zM247 1715v248h772v-248h-772z" />
    <glyph glyph-name="uni0232" unicode="&#x232;" horiz-adv-x="1359" 
d="M465 0v779l86 -316l-617 1017h456l360 -609h-116l356 609h422l-599 -1017l86 310v-773h-434zM270 1611v248h820v-248h-820z" />
    <glyph glyph-name="uni0233" unicode="&#x233;" horiz-adv-x="1238" 
d="M321 -440l149 440l149 344l215 756h416l-515 -1540h-414zM354 0l-366 1100h442l316 -1100h-392zM233 1295v248h772v-248h-772z" />
    <glyph glyph-name="uni0237" unicode="&#x237;" horiz-adv-x="620" 
d="M227 -476l-272 180q55 72 86 142t43.5 150.5t12.5 183.5v920h426v-904q0 -125 -28 -237t-92.5 -219t-175.5 -216z" />
    <glyph glyph-name="uni0259" unicode="&#x259;" horiz-adv-x="1162" 
d="M450 1122q231 0 376.5 -60.5t214 -187t68.5 -325.5q0 -175 -63.5 -302.5t-187 -196t-303.5 -68.5q-170 0 -284 69t-171 199.5t-57 312.5v106h822v-234h-491l61 17q0 -80 12.5 -126t40.5 -65t72 -19t72 19t41.5 64.5t13.5 125.5v175q0 68 -22.5 107.5t-87 56.5t-189.5 17
q-66 0 -138.5 -8.5t-141.5 -20.5v311q93 18 176.5 25.5t165.5 7.5z" />
    <glyph glyph-name="uni02BB" unicode="&#x2bb;" horiz-adv-x="1200" 
d="M600 1212q-120 0 -174 46.5t-54 129.5q0 61 26.5 127t65.5 111h262q-39 -71 -55 -119.5t-16 -104.5l-83 78h28q125 0 176.5 -36t51.5 -98t-53.5 -98t-174.5 -36z" />
    <glyph glyph-name="uni02BC" unicode="&#x2bc;" horiz-adv-x="1200" 
d="M702 1212q40 72 55.5 120.5t15.5 103.5l83 -78h-28q-124 0 -176 36.5t-52 97.5q0 64 54 99t174 35q121 0 174.5 -46t53.5 -130q0 -60 -26 -126.5t-66 -111.5h-262z" />
    <glyph glyph-name="uni02BE" unicode="&#x2be;" horiz-adv-x="1200" 
d="M600 1214v138q35 0 56.5 22.5t21.5 59.5q0 38 -21.5 60t-56.5 22v138q99 0 163.5 -62t64.5 -158t-64.5 -158t-163.5 -62z" />
    <glyph glyph-name="uni02BF" unicode="&#x2bf;" horiz-adv-x="1200" 
d="M600 1214q-99 0 -163.5 62t-64.5 158t64.5 158t163.5 62v-138q-34 0 -56 -22t-22 -60q0 -37 22 -59.5t56 -22.5v-138z" />
    <glyph glyph-name="circumflex" unicode="&#x2c6;" horiz-adv-x="1200" 
d="M191 1220l239 396h340l239 -396h-295l-142 254h56l-142 -254h-295z" />
    <glyph glyph-name="caron" unicode="&#x2c7;" horiz-adv-x="1200" 
d="M430 1220l-239 396h295l142 -254h-56l142 254h295l-239 -396h-340z" />
    <glyph glyph-name="uni02C8" unicode="&#x2c8;" horiz-adv-x="1200" 
d="M510 1218v400h180v-400h-180z" />
    <glyph glyph-name="uni02C9" unicode="&#x2c9;" horiz-adv-x="1200" 
d="M214 1295v248h772v-248h-772z" />
    <glyph glyph-name="uni02CA" unicode="&#x2ca;" horiz-adv-x="1200" 
d="M395 1220l233 396h470l-293 -396h-410z" />
    <glyph glyph-name="uni02CB" unicode="&#x2cb;" horiz-adv-x="1200" 
d="M395 1220l-293 396h470l233 -396h-410z" />
    <glyph glyph-name="uni02CC" unicode="&#x2cc;" horiz-adv-x="1200" 
d="M510 -440v400h180v-400h-180z" />
    <glyph glyph-name="breve" unicode="&#x2d8;" horiz-adv-x="1200" 
d="M600 1228q-183 0 -289.5 93t-117.5 275h251q7 -82 46 -121.5t110 -39.5q73 0 111.5 39.5t44.5 121.5h251q-10 -182 -116.5 -275t-290.5 -93z" />
    <glyph glyph-name="dotaccent" unicode="&#x2d9;" horiz-adv-x="1200" 
d="M600 1208q-131 0 -192.5 55t-61.5 155q0 101 61.5 155.5t192.5 54.5q133 0 193.5 -54.5t60.5 -155.5q0 -100 -60.5 -155t-193.5 -55z" />
    <glyph glyph-name="ring" unicode="&#x2da;" horiz-adv-x="1200" 
d="M600 1214q-99 0 -163.5 62t-64.5 158t64.5 158t163.5 62t163.5 -62t64.5 -158t-64.5 -158t-163.5 -62zM600 1352q35 0 56.5 22.5t21.5 59.5q0 38 -21.5 60t-55.5 22q-35 0 -57 -22t-22 -60q0 -37 22 -59.5t56 -22.5z" />
    <glyph glyph-name="ogonek" unicode="&#x2db;" horiz-adv-x="1200" 
d="M430 -460q-146 0 -219 61t-73 163q0 66 31.5 124t107.5 106.5t211 87.5l112 -82q-90 -33 -139 -66.5t-68 -68.5t-19 -73q0 -42 29.5 -67t88.5 -25q24 0 54 6t64 19v-155q-37 -12 -78.5 -21t-101.5 -9z" />
    <glyph glyph-name="tilde" unicode="&#x2dc;" horiz-adv-x="1200" 
d="M768 1245q-51 0 -97 17t-89 36q-40 18 -78.5 32t-79.5 14q-60 0 -109 -21t-101 -70v256q86 84 218 84q52 0 98 -16.5t88 -35.5q40 -18 79 -32.5t79 -14.5q61 0 110 22t100 69v-256q-85 -84 -218 -84z" />
    <glyph glyph-name="hungarumlaut" unicode="&#x2dd;" horiz-adv-x="1200" 
d="M671 1220l152 396h330l-172 -396h-310zM219 1220l152 396h330l-172 -396h-310z" />
    <glyph glyph-name="gravecomb" unicode="&#x300;" 
d="M406 1220l-293 396h448l233 -396h-388z" />
    <glyph glyph-name="acutecomb" unicode="&#x301;" 
d="M406 1220l233 396h448l-293 -396h-388z" />
    <glyph glyph-name="uni0302" unicode="&#x302;" 
d="M191 1220l239 396h340l239 -396h-295l-142 254h56l-142 -254h-295z" />
    <glyph glyph-name="tildecomb" unicode="&#x303;" 
d="M768 1245q-51 0 -97 17t-89 36q-40 18 -78.5 32t-79.5 14q-60 0 -109 -21t-101 -70v256q86 84 218 84q52 0 98 -16.5t88 -35.5q40 -18 79 -32.5t79 -14.5q61 0 110 22t100 69v-256q-85 -84 -218 -84z" />
    <glyph glyph-name="uni0304" unicode="&#x304;" 
d="M214 1295v248h772v-248h-772z" />
    <glyph glyph-name="uni0306" unicode="&#x306;" 
d="M600 1228q-183 0 -289.5 93t-117.5 275h251q7 -82 46 -121.5t110 -39.5q73 0 111.5 39.5t44.5 121.5h251q-10 -182 -116.5 -275t-290.5 -93z" />
    <glyph glyph-name="uni0307" unicode="&#x307;" 
d="M600 1208q-131 0 -192.5 55t-61.5 155q0 101 61.5 155.5t192.5 54.5q133 0 193.5 -54.5t60.5 -155.5q0 -100 -60.5 -155t-193.5 -55z" />
    <glyph glyph-name="uni0308" unicode="&#x308;" 
d="M864 1215q-107 0 -163 54t-56 149q0 96 56 149.5t163 53.5q108 0 163.5 -54t55.5 -149t-55.5 -149t-163.5 -54zM336 1215q-107 0 -163 54t-56 149q0 96 56 149.5t163 53.5q108 0 163.5 -54t55.5 -149t-55.5 -149t-163.5 -54z" />
    <glyph glyph-name="hookabovecomb" unicode="&#x309;" 
d="M499 1220q3 56 25.5 89t50.5 53.5t49 37t21 38.5q0 20 -20 28.5t-65 8.5q-39 0 -81 -5.5t-90 -18.5v151q42 13 100.5 19.5t104.5 6.5q136 0 201 -39t65 -123q0 -54 -22 -84.5t-52 -52t-55 -45t-30 -64.5h-202z" />
    <glyph glyph-name="uni030A" unicode="&#x30a;" 
d="M600 1214q-99 0 -163.5 62t-64.5 158t64.5 158t163.5 62t163.5 -62t64.5 -158t-64.5 -158t-163.5 -62zM600 1352q35 0 56.5 22.5t21.5 59.5q0 38 -21.5 60t-55.5 22q-35 0 -57 -22t-22 -60q0 -37 22 -59.5t56 -22.5z" />
    <glyph glyph-name="uni030B" unicode="&#x30b;" 
d="M671 1220l152 396h330l-172 -396h-310zM219 1220l152 396h330l-172 -396h-310z" />
    <glyph glyph-name="uni030C" unicode="&#x30c;" 
d="M430 1220l-239 396h295l142 -254h-56l142 254h295l-239 -396h-340z" />
    <glyph glyph-name="uni030F" unicode="&#x30f;" 
d="M671 1220l-172 396h330l152 -396h-310zM219 1220l-172 396h330l152 -396h-310z" />
    <glyph glyph-name="uni0311" unicode="&#x311;" 
d="M193 1248q11 184 116.5 276t290.5 92q183 0 290 -92t117 -276h-251q-6 85 -45 124.5t-111 39.5q-74 0 -111.5 -39.5t-44.5 -124.5h-251z" />
    <glyph glyph-name="uni0312" unicode="&#x312;" 
d="M600 1212q-120 0 -174 46.5t-54 129.5q0 61 26.5 127t65.5 111h262q-39 -71 -55 -119.5t-16 -104.5l-83 78h28q125 0 176.5 -36t51.5 -98t-53.5 -98t-174.5 -36z" />
    <glyph glyph-name="uni031B" unicode="&#x31b;" 
d="M400 1293v187h130q84 0 128 33.5t44 117.5q0 28 -2.5 61t-11.5 77h259q12 -42 15.5 -80.5t3.5 -75.5q0 -112 -43 -182.5t-120.5 -104t-179.5 -33.5h-223z" />
    <glyph glyph-name="dotbelowcomb" unicode="&#x323;" 
d="M600 -500q-107 0 -163 53.5t-56 144.5q0 92 56 145t163 53q108 0 163.5 -53t55.5 -145q0 -91 -55.5 -144.5t-163.5 -53.5z" />
    <glyph glyph-name="uni0324" unicode="&#x324;" 
d="M864 -510q-107 0 -163 54t-56 149q0 96 56 149.5t163 53.5q108 0 163.5 -54t55.5 -149t-55.5 -149t-163.5 -54zM336 -510q-107 0 -163 54t-56 149q0 96 56 149.5t163 53.5q108 0 163.5 -54t55.5 -149t-55.5 -149t-163.5 -54z" />
    <glyph glyph-name="uni0326" unicode="&#x326;" 
d="M474 -518q40 72 55.5 120.5t15.5 103.5l83 -78h-28q-124 0 -176 36.5t-52 97.5q0 64 54 99t174 35q121 0 174.5 -46t53.5 -130q0 -60 -26 -126.5t-66 -111.5h-262z" />
    <glyph glyph-name="uni0327" unicode="&#x327;" 
d="M591 -460q-53 0 -100 8t-89 21v152q39 -14 86.5 -21t80.5 -7q47 0 70.5 14t23.5 48q0 64 -95 64h-52v201h194v-142l-92 53q129 0 194.5 -51.5t65.5 -143.5q0 -90 -70 -143t-217 -53z" />
    <glyph glyph-name="uni0328" unicode="&#x328;" 
d="M430 -460q-146 0 -219 61t-73 163q0 66 31.5 124t107.5 106.5t211 87.5l112 -82q-90 -33 -139 -66.5t-68 -68.5t-19 -73q0 -42 29.5 -67t88.5 -25q24 0 54 6t64 19v-155q-37 -12 -78.5 -21t-101.5 -9z" />
    <glyph glyph-name="uni032E" unicode="&#x32e;" 
d="M600 -481q-189 0 -295 90.5t-112 251.5h251q4 -69 42.5 -103.5t113.5 -34.5t114 34.5t42 103.5h251q-6 -161 -111.5 -251.5t-295.5 -90.5z" />
    <glyph glyph-name="uni0331" unicode="&#x331;" 
d="M214 -421v246h772v-246h-772z" />
    <glyph glyph-name="uni0394" unicode="&#x394;" horiz-adv-x="1530" 
d="M4 0l442 1480h638l442 -1480h-1522zM468 159l-27 181h644l-27 -181l-315 1136h38z" />
    <glyph glyph-name="uni03A9" unicode="&#x3a9;" horiz-adv-x="1644" 
d="M69 0v332h420l93 -184q-160 49 -275 142.5t-176.5 225.5t-61.5 296q0 216 93.5 370t262 236t396.5 82q229 0 398.5 -82t262.5 -236t93 -370q0 -164 -61 -296t-176 -225.5t-276 -142.5l93 184h420v-332h-664v264q76 81 125 159.5t72 164t23 188.5q0 128 -35.5 211.5
t-105 125t-169.5 41.5q-99 0 -167.5 -41.5t-104.5 -125t-36 -211.5q0 -103 23.5 -188.5t72 -164t124.5 -159.5v-264h-664z" />
    <glyph glyph-name="uni03BC" unicode="&#x3bc;" horiz-adv-x="1271" 
d="M582 -19q-78 0 -139 46t-96 147t-35 265v261h204v-230q0 -72 27.5 -99t73.5 -27q24 0 48.5 6.5t46.5 18.5t37 27v704h425v-1100h-349l-28 104h-16q-40 -60 -90 -91.5t-109 -31.5zM91 -440v1539h425v-1539h-425z" />
    <glyph glyph-name="pi" unicode="&#x3c0;" horiz-adv-x="1518" 
d="M1245 -21q-219 0 -335.5 108t-116.5 338v483h425v-417q0 -96 33 -131t116 -35q23 0 48 3t56 7v-330q-44 -10 -106 -18t-120 -8zM181 0v911h425v-911h-425zM21 770v330h1357v-330h-1357z" />
    <glyph glyph-name="uni1E08" unicode="&#x1e08;" horiz-adv-x="1295" 
d="M909 -20q-204 0 -361 45.5t-263.5 139t-161 236t-54.5 335.5q0 246 99 416.5t290 259t467 88.5q84 0 163.5 -7.5t153.5 -23.5v-352q-65 13 -134.5 20.5t-144.5 7.5q-153 0 -250 -42.5t-143.5 -132t-46.5 -230.5q0 -143 45 -232.5t140 -131t245 -41.5q72 0 145.5 11.5
t143.5 29.5v-352q-69 -20 -157.5 -32t-175.5 -12zM735 -460q-61 0 -112.5 8t-96.5 21v152q44 -14 95 -21t92 -7q57 0 85.5 14t28.5 47q0 35 -29 50t-86 15h-52v201h194v-142l-92 53q142 0 211 -50.5t69 -141.5q0 -90 -73 -144.5t-234 -54.5zM591 1586l183 316h444l-245 -316
h-382z" />
    <glyph glyph-name="uni1E09" unicode="&#x1e09;" horiz-adv-x="1019" 
d="M679 -22q-202 0 -341.5 64.5t-212 191t-72.5 313.5q0 191 77.5 318t223.5 190t353 63q73 0 137 -6t122 -18v-330q-51 8 -98.5 12t-98.5 4q-99 0 -160.5 -24.5t-90 -75.5t-28.5 -130q0 -83 29 -134.5t86 -75.5t142 -24q52 0 102 8t117 23v-330q-58 -18 -132.5 -28.5
t-154.5 -10.5zM568 -460q-53 0 -100 8t-89 21v152q39 -14 86.5 -21t80.5 -7q47 0 70.5 14t23.5 48q0 64 -95 64h-52v201h194v-142l-92 53q129 0 194.5 -51.5t65.5 -143.5q0 -90 -70 -143t-217 -53zM359 1220l233 396h448l-293 -396h-388z" />
    <glyph glyph-name="uni1E0C" unicode="&#x1e0c;" horiz-adv-x="1566" 
d="M552 -17q-65 0 -141.5 3t-154 8.5t-147.5 13.5v1433q75 17 162.5 30t180 19.5t181.5 6.5q429 0 646.5 -183t217.5 -574q0 -267 -103.5 -434t-313.5 -245t-528 -78zM671 331q129 0 214 39.5t126.5 129.5t41.5 242q0 151 -44 241t-129.5 129t-211.5 39q-27 0 -63 -3t-62 -9
v-805q35 -2 67 -2.5t61 -0.5zM716 -464q-126 0 -189 47.5t-63 132.5q0 86 63 133t189 47q127 0 189.5 -47t62.5 -133q0 -85 -62.5 -132.5t-189.5 -47.5z" />
    <glyph glyph-name="uni1E0D" unicode="&#x1e0d;" horiz-adv-x="1297" 
d="M516 -20q-123 0 -228.5 57t-170 178t-64.5 312q0 188 71.5 320.5t211.5 202t346 69.5q25 0 49 -1t44 -3v501h425v-1616h-356l-25 113h-18q-45 -60 -116.5 -96.5t-168.5 -36.5zM648 323q34 0 68 8.5t59 25.5v437q-19 4 -43.5 6t-48.5 2q-102 0 -153 -54.5t-51 -188.5
q0 -92 21 -143t59 -72t89 -21zM661 -500q-107 0 -163 53.5t-56 144.5q0 92 56 145t163 53q108 0 163.5 -53t55.5 -145q0 -91 -55.5 -144.5t-163.5 -53.5z" />
    <glyph glyph-name="uni1E0E" unicode="&#x1e0e;" horiz-adv-x="1566" 
d="M552 -17q-65 0 -141.5 3t-154 8.5t-147.5 13.5v1433q75 17 162.5 30t180 19.5t181.5 6.5q429 0 646.5 -183t217.5 -574q0 -267 -103.5 -434t-313.5 -245t-528 -78zM671 331q129 0 214 39.5t126.5 129.5t41.5 242q0 151 -44 241t-129.5 129t-211.5 39q-27 0 -63 -3t-62 -9
v-805q35 -2 67 -2.5t61 -0.5zM306 -397v248h820v-248h-820z" />
    <glyph glyph-name="uni1E0F" unicode="&#x1e0f;" horiz-adv-x="1297" 
d="M516 -20q-123 0 -228.5 57t-170 178t-64.5 312q0 188 71.5 320.5t211.5 202t346 69.5q25 0 49 -1t44 -3v501h425v-1616h-356l-25 113h-18q-45 -60 -116.5 -96.5t-168.5 -36.5zM648 323q34 0 68 8.5t59 25.5v437q-19 4 -43.5 6t-48.5 2q-102 0 -153 -54.5t-51 -188.5
q0 -92 21 -143t59 -72t89 -21zM275 -421v246h772v-246h-772z" />
    <glyph glyph-name="uni1E14" unicode="&#x1e14;" horiz-adv-x="1313" 
d="M109 0v1480h1122v-342h-694v-796h704v-342h-1132zM362 584v342h764v-342h-764zM477 1986l-245 232h492l183 -232h-430zM282 1611v248h820v-248h-820z" />
    <glyph glyph-name="uni1E15" unicode="&#x1e15;" horiz-adv-x="1162" 
d="M712 -22q-231 0 -376.5 60.5t-214 187t-68.5 325.5q0 175 63.5 302.5t187 196t303.5 68.5q170 0 284 -69t171 -199.5t57 -312.5v-106h-822v234h491l-61 -17q0 80 -12.5 126t-40.5 65t-72 19t-72 -19t-41.5 -64.5t-13.5 -125.5v-175q0 -68 22.5 -107.5t87 -56.5t189.5 -17
q66 0 138.5 8.5t141.5 20.5v-311q-93 -18 -176.5 -25.5t-165.5 -7.5zM212 1295v248h772v-248h-772zM407 1682l-245 316h444l183 -316h-382z" />
    <glyph glyph-name="uni1E16" unicode="&#x1e16;" horiz-adv-x="1313" 
d="M109 0v1480h1122v-342h-694v-796h704v-342h-1132zM362 584v342h764v-342h-764zM477 1986l183 232h492l-245 -232h-430zM282 1611v248h820v-248h-820z" />
    <glyph glyph-name="uni1E17" unicode="&#x1e17;" horiz-adv-x="1162" 
d="M712 -22q-231 0 -376.5 60.5t-214 187t-68.5 325.5q0 175 63.5 302.5t187 196t303.5 68.5q170 0 284 -69t171 -199.5t57 -312.5v-106h-822v234h491l-61 -17q0 80 -12.5 126t-40.5 65t-72 19t-72 -19t-41.5 -64.5t-13.5 -125.5v-175q0 -68 22.5 -107.5t87 -56.5t189.5 -17
q66 0 138.5 8.5t141.5 20.5v-311q-93 -18 -176.5 -25.5t-165.5 -7.5zM212 1295v248h772v-248h-772zM405 1682l183 316h444l-245 -316h-382z" />
    <glyph glyph-name="uni1E1C" unicode="&#x1e1c;" horiz-adv-x="1313" 
d="M109 0v1480h1122v-342h-694v-796h704v-342h-1132zM362 584v342h764v-342h-764zM643 -460q-61 0 -112.5 8t-96.5 21v152q44 -14 95 -21t92 -7q57 0 85.5 14t28.5 47q0 35 -29 50t-86 15h-52v201h194v-142l-92 53q142 0 211 -50.5t69 -141.5q0 -90 -73 -144.5t-234 -54.5z
M692 1586q-131 0 -221.5 39.5t-140.5 110.5t-63 166h253q12 -58 53.5 -88.5t118.5 -30.5q78 0 119 30.5t53 88.5h253q-12 -95 -62.5 -166t-140.5 -110.5t-222 -39.5z" />
    <glyph glyph-name="uni1E1D" unicode="&#x1e1d;" horiz-adv-x="1162" 
d="M712 -22q-231 0 -376.5 60.5t-214 187t-68.5 325.5q0 175 63.5 302.5t187 196t303.5 68.5q170 0 284 -69t171 -199.5t57 -312.5v-106h-822v234h491l-61 -17q0 80 -12.5 126t-40.5 65t-72 19t-72 -19t-41.5 -64.5t-13.5 -125.5v-175q0 -68 22.5 -107.5t87 -56.5t189.5 -17
q66 0 138.5 8.5t141.5 20.5v-311q-93 -18 -176.5 -25.5t-165.5 -7.5zM589 -460q-53 0 -100 8t-89 21v152q39 -14 86.5 -21t80.5 -7q47 0 70.5 14t23.5 48q0 64 -95 64h-52v201h194v-142l-92 53q129 0 194.5 -51.5t65.5 -143.5q0 -90 -70 -143t-217 -53zM598 1228
q-183 0 -289.5 93t-117.5 275h251q7 -82 46 -121.5t110 -39.5q73 0 111.5 39.5t44.5 121.5h251q-10 -182 -116.5 -275t-290.5 -93z" />
    <glyph glyph-name="uni1E20" unicode="&#x1e20;" horiz-adv-x="1479" 
d="M973 -20q-303 0 -504 84t-300.5 251.5t-99.5 420.5q0 246 102.5 416.5t306 259t507.5 88.5q88 0 172.5 -8t162.5 -26v-352q-70 15 -143 23t-151 8q-183 0 -293.5 -43t-161 -135t-50.5 -238q0 -135 45.5 -223t138 -131t232.5 -43q54 0 112 4.5t105 10.5l-188 -158v531h402
v-705q-97 -15 -197.5 -25t-197.5 -10zM435 1611v248h820v-248h-820z" />
    <glyph glyph-name="uni1E21" unicode="&#x1e21;" horiz-adv-x="1297" 
d="M531 -460q-95 0 -196 9.5t-201 32.5v326q97 -24 190.5 -35.5t170.5 -11.5q151 0 215.5 50t64.5 158v50h-19q-46 -59 -114.5 -90t-157.5 -31q-112 0 -210.5 59t-159.5 176.5t-61 294.5q0 277 163.5 433.5t504.5 156.5q79 0 164 -8t166.5 -23t148.5 -38v-899
q0 -319 -164 -464.5t-505 -145.5zM655 339q31 0 62.5 6.5t57.5 18.5v429q-19 4 -42.5 6.5t-49.5 2.5q-98 0 -151 -54t-53 -185q0 -86 20.5 -135t60 -69t95.5 -20zM290 1295v248h772v-248h-772z" />
    <glyph glyph-name="uni1E24" unicode="&#x1e24;" horiz-adv-x="1580" 
d="M109 0v1480h434v-535h494v535h434v-1480h-434v565h-494v-565h-434zM791 -464q-126 0 -189 47.5t-63 132.5q0 86 63 133t189 47q127 0 189.5 -47t62.5 -133q0 -85 -62.5 -132.5t-189.5 -47.5z" />
    <glyph glyph-name="uni1E25" unicode="&#x1e25;" horiz-adv-x="1280" 
d="M97 0v1616h425v-619h19q50 58 120 89.5t161 31.5q101 0 184.5 -46t133 -147t49.5 -267v-658h-425v627q0 73 -28 100.5t-78 27.5q-26 0 -51 -6.5t-47 -18t-38 -27.5v-703h-425zM644 -500q-107 0 -163 53.5t-56 144.5q0 92 56 145t163 53q108 0 163.5 -53t55.5 -145
q0 -91 -55.5 -144.5t-163.5 -53.5z" />
    <glyph glyph-name="uni1E2A" unicode="&#x1e2a;" horiz-adv-x="1580" 
d="M109 0v1480h434v-535h494v535h434v-1480h-434v565h-494v-565h-434zM791 -451q-131 0 -221.5 39.5t-140.5 110.5t-63 166h253q12 -58 53.5 -88.5t118.5 -30.5q78 0 119 30.5t53 88.5h253q-12 -95 -62.5 -166t-140.5 -110.5t-222 -39.5z" />
    <glyph glyph-name="uni1E2B" unicode="&#x1e2b;" horiz-adv-x="1280" 
d="M97 0v1616h425v-619h19q50 58 120 89.5t161 31.5q101 0 184.5 -46t133 -147t49.5 -267v-658h-425v627q0 73 -28 100.5t-78 27.5q-26 0 -51 -6.5t-47 -18t-38 -27.5v-703h-425zM644 -481q-189 0 -295 90.5t-112 251.5h251q4 -69 42.5 -103.5t113.5 -34.5t114 34.5
t42 103.5h251q-6 -161 -111.5 -251.5t-295.5 -90.5z" />
    <glyph glyph-name="uni1E2E" unicode="&#x1e2e;" horiz-adv-x="652" 
d="M109 0v1480h434v-1480h-434zM111 1986l183 232h492l-245 -232h-430zM599 1570q-109 0 -163.5 47.5t-54.5 132.5q0 86 54.5 133t163.5 47q110 0 164 -47t54 -133q0 -85 -54 -132.5t-164 -47.5zM53 1570q-109 0 -163.5 47.5t-54.5 132.5q0 86 54.5 133t163.5 47
q110 0 164 -47t54 -133q0 -85 -54 -132.5t-164 -47.5z" />
    <glyph glyph-name="uni1E2F" unicode="&#x1e2f;" horiz-adv-x="620" 
d="M97 0v1100h426v-1100h-426zM574 1215q-107 0 -163 54t-56 149q0 96 56 149.5t163 53.5q108 0 163.5 -54t55.5 -149t-55.5 -149t-163.5 -54zM46 1215q-107 0 -163 54t-56 149q0 96 56 149.5t163 53.5q108 0 163.5 -54t55.5 -149t-55.5 -149t-163.5 -54zM117 1712l183 316
h444l-245 -316h-382z" />
    <glyph glyph-name="uni1E36" unicode="&#x1e36;" horiz-adv-x="1199" 
d="M109 0v1480h434v-1123h648v-357h-1082zM650 -464q-126 0 -189 47.5t-63 132.5q0 86 63 133t189 47q127 0 189.5 -47t62.5 -133q0 -85 -62.5 -132.5t-189.5 -47.5z" />
    <glyph glyph-name="uni1E37" unicode="&#x1e37;" horiz-adv-x="619" 
d="M97 0v1616h425v-1616h-425zM309 -500q-107 0 -163 53.5t-56 144.5q0 92 56 145t163 53q108 0 163.5 -53t55.5 -145q0 -91 -55.5 -144.5t-163.5 -53.5z" />
    <glyph glyph-name="uni1E3A" unicode="&#x1e3a;" horiz-adv-x="1199" 
d="M109 0v1480h434v-1123h648v-357h-1082zM240 -397v248h820v-248h-820z" />
    <glyph glyph-name="uni1E3B" unicode="&#x1e3b;" horiz-adv-x="619" 
d="M97 0v1616h425v-1616h-425zM-77 -421v246h772v-246h-772z" />
    <glyph glyph-name="uni1E42" unicode="&#x1e42;" horiz-adv-x="1956" 
d="M113 0v1480h531l362 -864h-42l348 864h531v-1480h-404v1100h76l-363 -880h-348l-382 880h95v-1100h-404zM1007 -464q-126 0 -189 47.5t-63 132.5q0 86 63 133t189 47q127 0 189.5 -47t62.5 -133q0 -85 -62.5 -132.5t-189.5 -47.5z" />
    <glyph glyph-name="uni1E43" unicode="&#x1e43;" horiz-adv-x="1877" 
d="M97 0v1100h349l28 -104h18q55 60 130.5 91t171.5 31q102 0 183.5 -45t129 -143.5t47.5 -258.5v-671h-416v632q0 71 -24.5 97t-69.5 26q-25 0 -48 -6.5t-42 -18t-32 -27.5v-703h-425zM1362 0v632q0 71 -27.5 97t-72.5 26q-28 0 -51.5 -6.5t-42.5 -18t-33 -27.5l-80 259
q70 81 159.5 118.5t184.5 37.5q112 0 199.5 -46t137.5 -147.5t50 -268.5v-656h-424zM947 -500q-107 0 -163 53.5t-56 144.5q0 92 56 145t163 53q108 0 163.5 -53t55.5 -145q0 -91 -55.5 -144.5t-163.5 -53.5z" />
    <glyph glyph-name="uni1E44" unicode="&#x1e44;" horiz-adv-x="1592" 
d="M109 0v1480h433l600 -932h-66v932h407v-1480h-433l-600 932h66v-932h-407zM796 1570q-126 0 -189 47.5t-63 132.5q0 86 63 133t189 47q127 0 189.5 -47t62.5 -133q0 -85 -62.5 -132.5t-189.5 -47.5z" />
    <glyph glyph-name="uni1E45" unicode="&#x1e45;" horiz-adv-x="1280" 
d="M97 0v1100h349l28 -104h18q57 60 135.5 91t172.5 31q112 0 200 -46t138.5 -147.5t50.5 -266.5v-658h-425v630q0 72 -27.5 98.5t-78.5 26.5q-27 0 -52 -6.5t-46.5 -18t-37.5 -27.5v-703h-425zM644 1208q-131 0 -192.5 55t-61.5 155q0 101 61.5 155.5t192.5 54.5
q133 0 193.5 -54.5t60.5 -155.5q0 -100 -60.5 -155t-193.5 -55z" />
    <glyph glyph-name="uni1E46" unicode="&#x1e46;" horiz-adv-x="1592" 
d="M109 0v1480h433l600 -932h-66v932h407v-1480h-433l-600 932h66v-932h-407zM796 -464q-126 0 -189 47.5t-63 132.5q0 86 63 133t189 47q127 0 189.5 -47t62.5 -133q0 -85 -62.5 -132.5t-189.5 -47.5z" />
    <glyph glyph-name="uni1E47" unicode="&#x1e47;" horiz-adv-x="1280" 
d="M97 0v1100h349l28 -104h18q57 60 135.5 91t172.5 31q112 0 200 -46t138.5 -147.5t50.5 -266.5v-658h-425v630q0 72 -27.5 98.5t-78.5 26.5q-27 0 -52 -6.5t-46.5 -18t-37.5 -27.5v-703h-425zM644 -500q-107 0 -163 53.5t-56 144.5q0 92 56 145t163 53q108 0 163.5 -53
t55.5 -145q0 -91 -55.5 -144.5t-163.5 -53.5z" />
    <glyph glyph-name="uni1E48" unicode="&#x1e48;" horiz-adv-x="1592" 
d="M109 0v1480h433l600 -932h-66v932h407v-1480h-433l-600 932h66v-932h-407zM386 -397v248h820v-248h-820z" />
    <glyph glyph-name="uni1E49" unicode="&#x1e49;" horiz-adv-x="1280" 
d="M97 0v1100h349l28 -104h18q57 60 135.5 91t172.5 31q112 0 200 -46t138.5 -147.5t50.5 -266.5v-658h-425v630q0 72 -27.5 98.5t-78.5 26.5q-27 0 -52 -6.5t-46.5 -18t-37.5 -27.5v-703h-425zM258 -421v246h772v-246h-772z" />
    <glyph glyph-name="uni1E4C" unicode="&#x1e4c;" horiz-adv-x="1644" 
d="M822 -20q-228 0 -397 85.5t-262.5 254.5t-93.5 420q0 252 93 421t262 254t398 85t398 -85.5t262 -254.5t93 -420q0 -250 -93 -419t-262 -255t-398 -86zM822 326q100 0 169 43t104.5 132.5t35.5 230.5q0 149 -36 242t-105 136.5t-168 43.5q-98 0 -167 -42t-105.5 -131.5
t-36.5 -232.5q0 -150 36 -243t104.5 -136t168.5 -43zM607 1986l183 232h492l-245 -232h-430zM1006 1586q-57 0 -106 13t-96 27q-42 14 -84.5 25t-89.5 11q-66 0 -116 -17t-102 -53v233q46 40 98.5 58.5t127.5 18.5q58 0 107 -13t95 -28q43 -13 85.5 -25t88.5 -12
q67 0 117 17.5t101 52.5v-233q-44 -39 -97.5 -57t-128.5 -18z" />
    <glyph glyph-name="uni1E4D" unicode="&#x1e4d;" horiz-adv-x="1266" 
d="M633 -22q-179 0 -309 65t-200.5 191.5t-70.5 311.5q0 188 68 315t197.5 192t314.5 65t315 -66t197.5 -193t67.5 -311q0 -186 -70 -313t-200 -192t-310 -65zM633 294q51 0 85.5 22t51.5 77t17 153q0 101 -17.5 156.5t-52 77.5t-84.5 22t-84.5 -22t-52 -77t-17.5 -155
q0 -99 17.5 -154.5t51.5 -77.5t85 -22zM801 1245q-51 0 -97 17t-89 36q-40 18 -78.5 32t-79.5 14q-60 0 -109 -21t-101 -70v256q86 84 218 84q52 0 98 -16.5t88 -35.5q40 -18 79 -32.5t79 -14.5q61 0 110 22t100 69v-256q-85 -84 -218 -84zM440 1707l183 316h444l-245 -316
h-382z" />
    <glyph glyph-name="uni1E4E" unicode="&#x1e4e;" horiz-adv-x="1644" 
d="M822 -20q-228 0 -397 85.5t-262.5 254.5t-93.5 420q0 252 93 421t262 254t398 85t398 -85.5t262 -254.5t93 -420q0 -250 -93 -419t-262 -255t-398 -86zM822 326q100 0 169 43t104.5 132.5t35.5 230.5q0 149 -36 242t-105 136.5t-168 43.5q-98 0 -167 -42t-105.5 -131.5
t-36.5 -232.5q0 -150 36 -243t104.5 -136t168.5 -43zM1006 1586q-57 0 -106 13t-96 27q-42 14 -84.5 25t-89.5 11q-66 0 -116 -17t-102 -53v233q46 40 98.5 58.5t127.5 18.5q58 0 107 -13t95 -28q43 -13 85.5 -25t88.5 -12q67 0 117 17.5t101 52.5v-233q-44 -39 -97.5 -57
t-128.5 -18zM1095 1970q-109 0 -163.5 47.5t-54.5 132.5q0 86 54.5 133t163.5 47q110 0 164 -47t54 -133q0 -85 -54 -132.5t-164 -47.5zM549 1970q-109 0 -163.5 47.5t-54.5 132.5q0 86 54.5 133t163.5 47q110 0 164 -47t54 -133q0 -85 -54 -132.5t-164 -47.5z" />
    <glyph glyph-name="uni1E4F" unicode="&#x1e4f;" horiz-adv-x="1266" 
d="M633 -22q-179 0 -309 65t-200.5 191.5t-70.5 311.5q0 188 68 315t197.5 192t314.5 65t315 -66t197.5 -193t67.5 -311q0 -186 -70 -313t-200 -192t-310 -65zM633 294q51 0 85.5 22t51.5 77t17 153q0 101 -17.5 156.5t-52 77.5t-84.5 22t-84.5 -22t-52 -77t-17.5 -155
q0 -99 17.5 -154.5t51.5 -77.5t85 -22zM801 1245q-51 0 -97 17t-89 36q-40 18 -78.5 32t-79.5 14q-60 0 -109 -21t-101 -70v256q86 84 218 84q52 0 98 -16.5t88 -35.5q40 -18 79 -32.5t79 -14.5q61 0 110 22t100 69v-256q-85 -84 -218 -84zM897 1656q-107 0 -163 54t-56 149
q0 96 56 149.5t163 53.5q108 0 163.5 -54t55.5 -149t-55.5 -149t-163.5 -54zM369 1656q-107 0 -163 54t-56 149q0 96 56 149.5t163 53.5q108 0 163.5 -54t55.5 -149t-55.5 -149t-163.5 -54z" />
    <glyph glyph-name="uni1E50" unicode="&#x1e50;" horiz-adv-x="1644" 
d="M822 -20q-228 0 -397 85.5t-262.5 254.5t-93.5 420q0 252 93 421t262 254t398 85t398 -85.5t262 -254.5t93 -420q0 -250 -93 -419t-262 -255t-398 -86zM822 326q100 0 169 43t104.5 132.5t35.5 230.5q0 149 -36 242t-105 136.5t-168 43.5q-98 0 -167 -42t-105.5 -131.5
t-36.5 -232.5q0 -150 36 -243t104.5 -136t168.5 -43zM607 1986l-245 232h492l183 -232h-430zM412 1611v248h820v-248h-820z" />
    <glyph glyph-name="uni1E51" unicode="&#x1e51;" horiz-adv-x="1266" 
d="M633 -22q-179 0 -309 65t-200.5 191.5t-70.5 311.5q0 188 68 315t197.5 192t314.5 65t315 -66t197.5 -193t67.5 -311q0 -186 -70 -313t-200 -192t-310 -65zM633 294q51 0 85.5 22t51.5 77t17 153q0 101 -17.5 156.5t-52 77.5t-84.5 22t-84.5 -22t-52 -77t-17.5 -155
q0 -99 17.5 -154.5t51.5 -77.5t85 -22zM247 1295v248h772v-248h-772zM442 1682l-245 316h444l183 -316h-382z" />
    <glyph glyph-name="uni1E52" unicode="&#x1e52;" horiz-adv-x="1644" 
d="M822 -20q-228 0 -397 85.5t-262.5 254.5t-93.5 420q0 252 93 421t262 254t398 85t398 -85.5t262 -254.5t93 -420q0 -250 -93 -419t-262 -255t-398 -86zM822 326q100 0 169 43t104.5 132.5t35.5 230.5q0 149 -36 242t-105 136.5t-168 43.5q-98 0 -167 -42t-105.5 -131.5
t-36.5 -232.5q0 -150 36 -243t104.5 -136t168.5 -43zM607 1986l183 232h492l-245 -232h-430zM412 1611v248h820v-248h-820z" />
    <glyph glyph-name="uni1E53" unicode="&#x1e53;" horiz-adv-x="1266" 
d="M633 -22q-179 0 -309 65t-200.5 191.5t-70.5 311.5q0 188 68 315t197.5 192t314.5 65t315 -66t197.5 -193t67.5 -311q0 -186 -70 -313t-200 -192t-310 -65zM633 294q51 0 85.5 22t51.5 77t17 153q0 101 -17.5 156.5t-52 77.5t-84.5 22t-84.5 -22t-52 -77t-17.5 -155
q0 -99 17.5 -154.5t51.5 -77.5t85 -22zM247 1295v248h772v-248h-772zM440 1682l183 316h444l-245 -316h-382z" />
    <glyph glyph-name="uni1E5A" unicode="&#x1e5a;" horiz-adv-x="1425" 
d="M109 0v1441q74 17 159.5 30.5t174.5 21t174 7.5q337 0 510 -122t173 -379q0 -165 -80 -276.5t-224 -168.5t-337 -57q-32 0 -62 1.5t-62 2.5v-501h-426zM959 0l-445 676h459l455 -676h-469zM669 814q110 0 168 42t58 143q0 65 -26 106.5t-77 61.5t-125 20q-36 0 -69.5 -3
t-62.5 -9v-353l44 -4t44.5 -3t45.5 -1zM750 -464q-126 0 -189 47.5t-63 132.5q0 86 63 133t189 47q127 0 189.5 -47t62.5 -133q0 -85 -62.5 -132.5t-189.5 -47.5z" />
    <glyph glyph-name="uni1E5B" unicode="&#x1e5b;" horiz-adv-x="868" 
d="M97 0v1100h346l33 -139h18q40 84 110.5 120.5t161.5 36.5q24 0 49 -2.5t42 -5.5v-382q-27 6 -59 8t-59 2q-42 0 -84 -8.5t-76.5 -24.5t-56.5 -39v-666h-425zM310 -500q-107 0 -163 53.5t-56 144.5q0 92 56 145t163 53q108 0 163.5 -53t55.5 -145q0 -91 -55.5 -144.5
t-163.5 -53.5z" />
    <glyph glyph-name="uni1E5E" unicode="&#x1e5e;" horiz-adv-x="1425" 
d="M109 0v1441q74 17 159.5 30.5t174.5 21t174 7.5q337 0 510 -122t173 -379q0 -165 -80 -276.5t-224 -168.5t-337 -57q-32 0 -62 1.5t-62 2.5v-501h-426zM959 0l-445 676h459l455 -676h-469zM669 814q110 0 168 42t58 143q0 65 -26 106.5t-77 61.5t-125 20q-36 0 -69.5 -3
t-62.5 -9v-353l44 -4t44.5 -3t45.5 -1zM340 -397v248h820v-248h-820z" />
    <glyph glyph-name="uni1E5F" unicode="&#x1e5f;" horiz-adv-x="868" 
d="M97 0v1100h346l33 -139h18q40 84 110.5 120.5t161.5 36.5q24 0 49 -2.5t42 -5.5v-382q-27 6 -59 8t-59 2q-42 0 -84 -8.5t-76.5 -24.5t-56.5 -39v-666h-425zM-76 -421v246h772v-246h-772z" />
    <glyph glyph-name="uni1E60" unicode="&#x1e60;" horiz-adv-x="1214" 
d="M531 -20q-120 0 -235.5 18t-209.5 48v347q63 -20 139 -35.5t155 -24t148 -8.5q125 0 169.5 29.5t44.5 76.5q0 40 -31 65t-132 51l-132 34q-199 49 -302 157t-103 284q0 226 168 352t507 126q111 0 205.5 -12t165.5 -31v-347q-67 21 -159 33t-184 12q-109 0 -168 -15
t-82 -40t-23 -55q0 -35 26 -57.5t109 -45.5l132 -34q148 -36 244 -95.5t142.5 -146.5t46.5 -205q0 -147 -76.5 -255t-220 -167t-344.5 -59zM620 1570q-126 0 -189 47.5t-63 132.5q0 86 63 133t189 47q127 0 189.5 -47t62.5 -133q0 -85 -62.5 -132.5t-189.5 -47.5z" />
    <glyph glyph-name="uni1E61" unicode="&#x1e61;" horiz-adv-x="1030" 
d="M461 -22q-102 0 -200.5 13t-182.5 38v304q80 -23 178 -37.5t197 -14.5q87 0 118 16t31 42q0 19 -11 28t-42 14l-198 34q-158 27 -232.5 108t-74.5 221q0 172 141 273t431 101q87 0 170.5 -10t145.5 -27v-304q-62 18 -142 28t-161 10q-82 0 -123.5 -9t-55.5 -23.5
t-14 -29.5t12.5 -23.5t42.5 -14.5l198 -34q144 -24 224.5 -97t80.5 -231q0 -174 -140.5 -274.5t-392.5 -100.5zM519 1208q-131 0 -192.5 55t-61.5 155q0 101 61.5 155.5t192.5 54.5q133 0 193.5 -54.5t60.5 -155.5q0 -100 -60.5 -155t-193.5 -55z" />
    <glyph glyph-name="uni1E62" unicode="&#x1e62;" horiz-adv-x="1214" 
d="M531 -20q-120 0 -235.5 18t-209.5 48v347q63 -20 139 -35.5t155 -24t148 -8.5q125 0 169.5 29.5t44.5 76.5q0 40 -31 65t-132 51l-132 34q-199 49 -302 157t-103 284q0 226 168 352t507 126q111 0 205.5 -12t165.5 -31v-347q-67 21 -159 33t-184 12q-109 0 -168 -15
t-82 -40t-23 -55q0 -35 26 -57.5t109 -45.5l132 -34q148 -36 244 -95.5t142.5 -146.5t46.5 -205q0 -147 -76.5 -255t-220 -167t-344.5 -59zM620 -464q-126 0 -189 47.5t-63 132.5q0 86 63 133t189 47q127 0 189.5 -47t62.5 -133q0 -85 -62.5 -132.5t-189.5 -47.5z" />
    <glyph glyph-name="uni1E63" unicode="&#x1e63;" horiz-adv-x="1030" 
d="M461 -22q-102 0 -200.5 13t-182.5 38v304q80 -23 178 -37.5t197 -14.5q87 0 118 16t31 42q0 19 -11 28t-42 14l-198 34q-158 27 -232.5 108t-74.5 221q0 172 141 273t431 101q87 0 170.5 -10t145.5 -27v-304q-62 18 -142 28t-161 10q-82 0 -123.5 -9t-55.5 -23.5
t-14 -29.5t12.5 -23.5t42.5 -14.5l198 -34q144 -24 224.5 -97t80.5 -231q0 -174 -140.5 -274.5t-392.5 -100.5zM519 -500q-107 0 -163 53.5t-56 144.5q0 92 56 145t163 53q108 0 163.5 -53t55.5 -145q0 -91 -55.5 -144.5t-163.5 -53.5z" />
    <glyph glyph-name="uni1E64" unicode="&#x1e64;" horiz-adv-x="1214" 
d="M531 -20q-120 0 -235.5 18t-209.5 48v347q63 -20 139 -35.5t155 -24t148 -8.5q125 0 169.5 29.5t44.5 76.5q0 40 -31 65t-132 51l-132 34q-199 49 -302 157t-103 284q0 226 168 352t507 126q111 0 205.5 -12t165.5 -31v-347q-67 21 -159 33t-184 12q-109 0 -168 -15
t-82 -40t-23 -55q0 -35 26 -57.5t109 -45.5l132 -34q148 -36 244 -95.5t142.5 -146.5t46.5 -205q0 -147 -76.5 -255t-220 -167t-344.5 -59zM320 1862q-101 0 -151 38t-50 106q0 69 50 106.5t151 37.5q102 0 151.5 -37.5t49.5 -106.5q0 -68 -49.5 -106t-151.5 -38zM427 1586
l183 316h444l-245 -316h-382z" />
    <glyph glyph-name="uni1E65" unicode="&#x1e65;" horiz-adv-x="1030" 
d="M461 -22q-102 0 -200.5 13t-182.5 38v304q80 -23 178 -37.5t197 -14.5q87 0 118 16t31 42q0 19 -11 28t-42 14l-198 34q-158 27 -232.5 108t-74.5 221q0 172 141 273t431 101q87 0 170.5 -10t145.5 -27v-304q-62 18 -142 28t-161 10q-82 0 -123.5 -9t-55.5 -23.5
t-14 -29.5t12.5 -23.5t42.5 -14.5l198 -34q144 -24 224.5 -97t80.5 -231q0 -174 -140.5 -274.5t-392.5 -100.5zM299 1576q-101 0 -151 38t-50 106q0 69 50 106.5t151 37.5q102 0 151.5 -37.5t49.5 -106.5q0 -68 -49.5 -106t-151.5 -38zM325 1220l233 396h448l-293 -396h-388
z" />
    <glyph glyph-name="uni1E66" unicode="&#x1e66;" horiz-adv-x="1214" 
d="M531 -20q-120 0 -235.5 18t-209.5 48v347q63 -20 139 -35.5t155 -24t148 -8.5q125 0 169.5 29.5t44.5 76.5q0 40 -31 65t-132 51l-132 34q-199 49 -302 157t-103 284q0 226 168 352t507 126q111 0 205.5 -12t165.5 -31v-347q-67 21 -159 33t-184 12q-109 0 -168 -15
t-82 -40t-23 -55q0 -35 26 -57.5t109 -45.5l132 -34q148 -36 244 -95.5t142.5 -146.5t46.5 -205q0 -147 -76.5 -255t-220 -167t-344.5 -59zM620 1942q-101 0 -151 38t-50 106q0 69 50 106.5t151 37.5q102 0 151.5 -37.5t49.5 -106.5q0 -68 -49.5 -106t-151.5 -38zM443 1586
l-262 316h310l159 -205h-60l159 205h310l-262 -316h-354z" />
    <glyph glyph-name="uni1E67" unicode="&#x1e67;" horiz-adv-x="1030" 
d="M461 -22q-102 0 -200.5 13t-182.5 38v304q80 -23 178 -37.5t197 -14.5q87 0 118 16t31 42q0 19 -11 28t-42 14l-198 34q-158 27 -232.5 108t-74.5 221q0 172 141 273t431 101q87 0 170.5 -10t145.5 -27v-304q-62 18 -142 28t-161 10q-82 0 -123.5 -9t-55.5 -23.5
t-14 -29.5t12.5 -23.5t42.5 -14.5l198 -34q144 -24 224.5 -97t80.5 -231q0 -174 -140.5 -274.5t-392.5 -100.5zM519 1656q-101 0 -151 38t-50 106q0 69 50 106.5t151 37.5q102 0 151.5 -37.5t49.5 -106.5q0 -68 -49.5 -106t-151.5 -38zM349 1220l-239 396h295l142 -254h-56
l142 254h295l-239 -396h-340z" />
    <glyph glyph-name="uni1E68" unicode="&#x1e68;" horiz-adv-x="1214" 
d="M531 -20q-120 0 -235.5 18t-209.5 48v347q63 -20 139 -35.5t155 -24t148 -8.5q125 0 169.5 29.5t44.5 76.5q0 40 -31 65t-132 51l-132 34q-199 49 -302 157t-103 284q0 226 168 352t507 126q111 0 205.5 -12t165.5 -31v-347q-67 21 -159 33t-184 12q-109 0 -168 -15
t-82 -40t-23 -55q0 -35 26 -57.5t109 -45.5l132 -34q148 -36 244 -95.5t142.5 -146.5t46.5 -205q0 -147 -76.5 -255t-220 -167t-344.5 -59zM620 -464q-126 0 -189 47.5t-63 132.5q0 86 63 133t189 47q127 0 189.5 -47t62.5 -133q0 -85 -62.5 -132.5t-189.5 -47.5zM620 1570
q-126 0 -189 47.5t-63 132.5q0 86 63 133t189 47q127 0 189.5 -47t62.5 -133q0 -85 -62.5 -132.5t-189.5 -47.5z" />
    <glyph glyph-name="uni1E69" unicode="&#x1e69;" horiz-adv-x="1030" 
d="M461 -22q-102 0 -200.5 13t-182.5 38v304q80 -23 178 -37.5t197 -14.5q87 0 118 16t31 42q0 19 -11 28t-42 14l-198 34q-158 27 -232.5 108t-74.5 221q0 172 141 273t431 101q87 0 170.5 -10t145.5 -27v-304q-62 18 -142 28t-161 10q-82 0 -123.5 -9t-55.5 -23.5
t-14 -29.5t12.5 -23.5t42.5 -14.5l198 -34q144 -24 224.5 -97t80.5 -231q0 -174 -140.5 -274.5t-392.5 -100.5zM519 -500q-107 0 -163 53.5t-56 144.5q0 92 56 145t163 53q108 0 163.5 -53t55.5 -145q0 -91 -55.5 -144.5t-163.5 -53.5zM519 1208q-131 0 -192.5 55t-61.5 155
q0 101 61.5 155.5t192.5 54.5q133 0 193.5 -54.5t60.5 -155.5q0 -100 -60.5 -155t-193.5 -55z" />
    <glyph glyph-name="uni1E6C" unicode="&#x1e6c;" horiz-adv-x="1359" 
d="M462 0v1123h-449v357h1333v-357h-449v-1123h-435zM680 -464q-126 0 -189 47.5t-63 132.5q0 86 63 133t189 47q127 0 189.5 -47t62.5 -133q0 -85 -62.5 -132.5t-189.5 -47.5z" />
    <glyph glyph-name="uni1E6D" unicode="&#x1e6d;" horiz-adv-x="906" 
d="M633 -21q-219 0 -335.5 108t-116.5 338v675l79 380h346v-989q0 -96 33 -131t116 -35q23 0 48 2.5t56 7.5v-330q-44 -10 -106 -18t-120 -8zM21 770v330h838v-330h-838zM520 -500q-107 0 -163 53.5t-56 144.5q0 92 56 145t163 53q108 0 163.5 -53t55.5 -145
q0 -91 -55.5 -144.5t-163.5 -53.5z" />
    <glyph glyph-name="uni1E6E" unicode="&#x1e6e;" horiz-adv-x="1359" 
d="M462 0v1123h-449v357h1333v-357h-449v-1123h-435zM270 -397v248h820v-248h-820z" />
    <glyph glyph-name="uni1E6F" unicode="&#x1e6f;" horiz-adv-x="906" 
d="M633 -21q-219 0 -335.5 108t-116.5 338v675l79 380h346v-989q0 -96 33 -131t116 -35q23 0 48 2.5t56 7.5v-330q-44 -10 -106 -18t-120 -8zM21 770v330h838v-330h-838zM134 -421v246h772v-246h-772z" />
    <glyph glyph-name="uni1E78" unicode="&#x1e78;" horiz-adv-x="1547" 
d="M778 -20q-234 0 -383 74t-220.5 223t-71.5 372v831h434v-872q0 -148 62 -212t179 -64t178.5 64t61.5 212v872h426v-831q0 -223 -70 -372t-217.5 -223t-378.5 -74zM563 1986l183 232h492l-245 -232h-430zM962 1586q-57 0 -106 13t-96 27q-42 14 -84.5 25t-89.5 11
q-66 0 -116 -17t-102 -53v233q46 40 98.5 58.5t127.5 18.5q58 0 107 -13t95 -28q43 -13 85.5 -25t88.5 -12q67 0 117 17.5t101 52.5v-233q-44 -39 -97.5 -57t-128.5 -18z" />
    <glyph glyph-name="uni1E79" unicode="&#x1e79;" horiz-adv-x="1271" 
d="M487 -19q-114 0 -203.5 46t-141 147t-51.5 265v661h425v-630q0 -72 27.5 -99t73.5 -27q24 0 48.5 6.5t46.5 18.5t37 27v704h425v-1100h-349l-28 104h-16q-59 -60 -133 -91.5t-161 -31.5zM801 1245q-51 0 -97 17t-89 36q-40 18 -78.5 32t-79.5 14q-60 0 -109 -21t-101 -70
v256q86 84 218 84q52 0 98 -16.5t88 -35.5q40 -18 79 -32.5t79 -14.5q61 0 110 22t100 69v-256q-85 -84 -218 -84zM440 1707l183 316h444l-245 -316h-382z" />
    <glyph glyph-name="uni1E7A" unicode="&#x1e7a;" horiz-adv-x="1547" 
d="M778 -20q-234 0 -383 74t-220.5 223t-71.5 372v831h434v-872q0 -148 62 -212t179 -64t178.5 64t61.5 212v872h426v-831q0 -223 -70 -372t-217.5 -223t-378.5 -74zM368 1611v248h820v-248h-820zM1051 1960q-109 0 -163.5 47.5t-54.5 132.5q0 86 54.5 133t163.5 47
q110 0 164 -47t54 -133q0 -85 -54 -132.5t-164 -47.5zM505 1960q-109 0 -163.5 47.5t-54.5 132.5q0 86 54.5 133t163.5 47q110 0 164 -47t54 -133q0 -85 -54 -132.5t-164 -47.5z" />
    <glyph glyph-name="uni1E7B" unicode="&#x1e7b;" horiz-adv-x="1271" 
d="M487 -19q-114 0 -203.5 46t-141 147t-51.5 265v661h425v-630q0 -72 27.5 -99t73.5 -27q24 0 48.5 6.5t46.5 18.5t37 27v704h425v-1100h-349l-28 104h-16q-59 -60 -133 -91.5t-161 -31.5zM247 1295v248h772v-248h-772zM897 1631q-107 0 -163 54t-56 149q0 96 56 149.5
t163 53.5q108 0 163.5 -54t55.5 -149t-55.5 -149t-163.5 -54zM369 1631q-107 0 -163 54t-56 149q0 96 56 149.5t163 53.5q108 0 163.5 -54t55.5 -149t-55.5 -149t-163.5 -54z" />
    <glyph glyph-name="Wgrave" unicode="&#x1e80;" horiz-adv-x="2388" 
d="M387 0l-373 1480h437l300 -1293h-110l330 1293h472l311 -1293h-99l310 1293h409l-373 -1480h-554l-301 1218h115l-320 -1218h-554zM1003 1586l-245 316h444l183 -316h-382z" />
    <glyph glyph-name="wgrave" unicode="&#x1e81;" horiz-adv-x="1890" 
d="M311 0l-279 1100h399l145 -675h-15l163 675h462l158 -675h-24l156 675h382l-277 -1100h-462l-179 736h19l-186 -736h-462zM752 1220l-293 396h448l233 -396h-388z" />
    <glyph glyph-name="Wacute" unicode="&#x1e82;" horiz-adv-x="2388" 
d="M387 0l-373 1480h437l300 -1293h-110l330 1293h472l311 -1293h-99l310 1293h409l-373 -1480h-554l-301 1218h115l-320 -1218h-554zM1001 1586l183 316h444l-245 -316h-382z" />
    <glyph glyph-name="wacute" unicode="&#x1e83;" horiz-adv-x="1890" 
d="M311 0l-279 1100h399l145 -675h-15l163 675h462l158 -675h-24l156 675h382l-277 -1100h-462l-179 736h19l-186 -736h-462zM752 1220l233 396h448l-293 -396h-388z" />
    <glyph glyph-name="Wdieresis" unicode="&#x1e84;" horiz-adv-x="2388" 
d="M387 0l-373 1480h437l300 -1293h-110l330 1293h472l311 -1293h-99l310 1293h409l-373 -1480h-554l-301 1218h115l-320 -1218h-554zM1467 1570q-109 0 -163.5 47.5t-54.5 132.5q0 86 54.5 133t163.5 47q110 0 164 -47t54 -133q0 -85 -54 -132.5t-164 -47.5zM921 1570
q-109 0 -163.5 47.5t-54.5 132.5q0 86 54.5 133t163.5 47q110 0 164 -47t54 -133q0 -85 -54 -132.5t-164 -47.5z" />
    <glyph glyph-name="wdieresis" unicode="&#x1e85;" horiz-adv-x="1890" 
d="M311 0l-279 1100h399l145 -675h-15l163 675h462l158 -675h-24l156 675h382l-277 -1100h-462l-179 736h19l-186 -736h-462zM1210 1215q-107 0 -163 54t-56 149q0 96 56 149.5t163 53.5q108 0 163.5 -54t55.5 -149t-55.5 -149t-163.5 -54zM682 1215q-107 0 -163 54t-56 149
q0 96 56 149.5t163 53.5q108 0 163.5 -54t55.5 -149t-55.5 -149t-163.5 -54z" />
    <glyph glyph-name="uni1E8E" unicode="&#x1e8e;" horiz-adv-x="1359" 
d="M465 0v779l86 -316l-617 1017h456l360 -609h-116l356 609h422l-599 -1017l86 310v-773h-434zM680 1570q-126 0 -189 47.5t-63 132.5q0 86 63 133t189 47q127 0 189.5 -47t62.5 -133q0 -85 -62.5 -132.5t-189.5 -47.5z" />
    <glyph glyph-name="uni1E8F" unicode="&#x1e8f;" horiz-adv-x="1238" 
d="M321 -440l149 440l149 344l215 756h416l-515 -1540h-414zM354 0l-366 1100h442l316 -1100h-392zM619 1208q-131 0 -192.5 55t-61.5 155q0 101 61.5 155.5t192.5 54.5q133 0 193.5 -54.5t60.5 -155.5q0 -100 -60.5 -155t-193.5 -55z" />
    <glyph glyph-name="uni1E92" unicode="&#x1e92;" horiz-adv-x="1297" 
d="M58 0v237l664 963v-77h-654v357h1161v-237l-664 -963v77h674v-357h-1181zM646 -464q-126 0 -189 47.5t-63 132.5q0 86 63 133t189 47q127 0 189.5 -47t62.5 -133q0 -85 -62.5 -132.5t-189.5 -47.5z" />
    <glyph glyph-name="uni1E93" unicode="&#x1e93;" horiz-adv-x="1075" 
d="M67 0v270l488 572v-72h-478v330h941v-270l-488 -572v72h498v-330h-961zM548 -500q-107 0 -163 53.5t-56 144.5q0 92 56 145t163 53q108 0 163.5 -53t55.5 -145q0 -91 -55.5 -144.5t-163.5 -53.5z" />
    <glyph glyph-name="uni1E97" unicode="&#x1e97;" horiz-adv-x="906" 
d="M633 -21q-219 0 -335.5 108t-116.5 338v675l79 380h346v-989q0 -96 33 -131t116 -35q23 0 48 2.5t56 7.5v-330q-44 -10 -106 -18t-120 -8zM21 770v330h838v-330h-838zM658 1535q-107 0 -163 54t-56 149q0 96 56 149.5t163 53.5q108 0 163.5 -54t55.5 -149t-55.5 -149
t-163.5 -54zM130 1535q-107 0 -163 54t-56 149q0 96 56 149.5t163 53.5q108 0 163.5 -54t55.5 -149t-55.5 -149t-163.5 -54z" />
    <glyph glyph-name="uni1E9E" unicode="&#x1e9e;" horiz-adv-x="1630" 
d="M1454 1374v-233l-392 -406l-24 122q24 3 48 4.5t46 1.5q135 0 237 -50t159 -142.5t57 -219.5q0 -140 -65.5 -246t-194 -165.5t-317.5 -59.5q-99 0 -185 16.5t-157 44.5v347q47 -19 103 -33t112.5 -22t104.5 -8q98 0 145 40.5t47 107.5q0 62 -52 104.5t-179 42.5
q-51 0 -99.5 -4t-102.5 -13v233l427 473l-20 -172q-63 18 -127.5 27.5t-154.5 9.5q-176 0 -259 -59.5t-83 -160.5v-954h-434v901q0 190 82.5 324t250.5 204.5t428 70.5q194 0 337 -35.5t262 -90.5z" />
    <glyph glyph-name="uni1EA0" unicode="&#x1ea0;" horiz-adv-x="1530" 
d="M4 0l442 1480h638l442 -1480h-424l-359 1295h38l-357 -1295h-420zM373 339l91 340h600l90 -340h-781zM765 -464q-126 0 -189 47.5t-63 132.5q0 86 63 133t189 47q127 0 189.5 -47t62.5 -133q0 -85 -62.5 -132.5t-189.5 -47.5z" />
    <glyph glyph-name="uni1EA1" unicode="&#x1ea1;" horiz-adv-x="1176" 
d="M416 -22q-177 0 -274.5 93.5t-97.5 237.5q0 163 116.5 255t378.5 106l189 10l48 -223l-190 -10q-66 -3 -96 -28.5t-30 -68.5q0 -39 27 -61.5t76 -22.5q26 0 54.5 6t53.5 20v347q0 59 -20 94.5t-69.5 51.5t-138.5 16q-64 0 -145.5 -10t-153.5 -31v313q89 23 191 34t189 11
q199 0 322.5 -47.5t181 -159t57.5 -301.5v-610h-348l-29 101h-18q-46 -66 -117.5 -94.5t-156.5 -28.5zM585 -500q-107 0 -163 53.5t-56 144.5q0 92 56 145t163 53q108 0 163.5 -53t55.5 -145q0 -91 -55.5 -144.5t-163.5 -53.5z" />
    <glyph glyph-name="uni1EA2" unicode="&#x1ea2;" horiz-adv-x="1530" 
d="M4 0l442 1480h638l442 -1480h-424l-359 1295h38l-357 -1295h-420zM373 339l91 340h600l90 -340h-781zM663 1586q4 54 41.5 80.5t72.5 42.5q22 11 37 20t15 21q0 17 -26 24t-79 7q-44 0 -92 -4.5t-99 -15.5v147q45 11 110 16.5t115 5.5q149 0 217.5 -36t68.5 -111
q0 -48 -34 -75.5t-70 -49.5q-27 -15 -49 -31.5t-26 -40.5h-202z" />
    <glyph glyph-name="uni1EA3" unicode="&#x1ea3;" horiz-adv-x="1176" 
d="M416 -22q-177 0 -274.5 93.5t-97.5 237.5q0 163 116.5 255t378.5 106l189 10l48 -223l-190 -10q-66 -3 -96 -28.5t-30 -68.5q0 -39 27 -61.5t76 -22.5q26 0 54.5 6t53.5 20v347q0 59 -20 94.5t-69.5 51.5t-138.5 16q-64 0 -145.5 -10t-153.5 -31v313q89 23 191 34t189 11
q199 0 322.5 -47.5t181 -159t57.5 -301.5v-610h-348l-29 101h-18q-46 -66 -117.5 -94.5t-156.5 -28.5zM484 1220q3 56 25.5 89t50.5 53.5t49 37t21 38.5q0 20 -20 28.5t-65 8.5q-39 0 -81 -5.5t-90 -18.5v151q42 13 100.5 19.5t104.5 6.5q136 0 201 -39t65 -123
q0 -54 -22 -84.5t-52 -52t-55 -45t-30 -64.5h-202z" />
    <glyph glyph-name="uni1EA4" unicode="&#x1ea4;" horiz-adv-x="1530" 
d="M4 0l442 1480h638l442 -1480h-424l-359 1295h38l-357 -1295h-420zM373 339l91 340h600l90 -340h-781zM325 1586l262 272h354l262 -272h-310l-159 177h60l-159 -177h-310zM1030 1828l96 236h276l-152 -236h-220z" />
    <glyph glyph-name="uni1EA5" unicode="&#x1ea5;" horiz-adv-x="1176" 
d="M416 -22q-177 0 -274.5 93.5t-97.5 237.5q0 163 116.5 255t378.5 106l189 10l48 -223l-190 -10q-66 -3 -96 -28.5t-30 -68.5q0 -39 27 -61.5t76 -22.5q26 0 54.5 6t53.5 20v347q0 59 -20 94.5t-69.5 51.5t-138.5 16q-64 0 -145.5 -10t-153.5 -31v313q89 23 191 34t189 11
q199 0 322.5 -47.5t181 -159t57.5 -301.5v-610h-348l-29 101h-18q-46 -66 -117.5 -94.5t-156.5 -28.5zM176 1220l239 396h340l239 -396h-295l-142 254h56l-142 -254h-295zM825 1598l183 270h352l-245 -270h-290z" />
    <glyph glyph-name="uni1EA6" unicode="&#x1ea6;" horiz-adv-x="1530" 
d="M4 0l442 1480h638l442 -1480h-424l-359 1295h38l-357 -1295h-420zM373 339l91 340h600l90 -340h-781zM325 1586l262 272h354l262 -272h-310l-159 177h60l-159 -177h-310zM1070 1828l-152 236h276l96 -236h-220z" />
    <glyph glyph-name="uni1EA7" unicode="&#x1ea7;" horiz-adv-x="1176" 
d="M416 -22q-177 0 -274.5 93.5t-97.5 237.5q0 163 116.5 255t378.5 106l189 10l48 -223l-190 -10q-66 -3 -96 -28.5t-30 -68.5q0 -39 27 -61.5t76 -22.5q26 0 54.5 6t53.5 20v347q0 59 -20 94.5t-69.5 51.5t-138.5 16q-64 0 -145.5 -10t-153.5 -31v313q89 23 191 34t189 11
q199 0 322.5 -47.5t181 -159t57.5 -301.5v-610h-348l-29 101h-18q-46 -66 -117.5 -94.5t-156.5 -28.5zM176 1220l239 396h340l239 -396h-295l-142 254h56l-142 -254h-295zM865 1598l-245 270h352l183 -270h-290z" />
    <glyph glyph-name="uni1EA8" unicode="&#x1ea8;" horiz-adv-x="1530" 
d="M4 0l442 1480h638l442 -1480h-424l-359 1295h38l-357 -1295h-420zM373 339l91 340h600l90 -340h-781zM325 1586l262 272h354l262 -272h-310l-159 177h60l-159 -177h-310zM1029 1828q3 37 28.5 59t57.5 35.5t56 24t24 23.5q0 14 -26 20t-79 6q-44 0 -92 -3.5t-99 -13.5
v125q45 9 110 14.5t115 5.5q149 0 217.5 -31t68.5 -96q0 -36 -25.5 -58.5t-59.5 -39t-62 -32t-32 -39.5h-202z" />
    <glyph glyph-name="uni1EA9" unicode="&#x1ea9;" horiz-adv-x="1176" 
d="M416 -22q-177 0 -274.5 93.5t-97.5 237.5q0 163 116.5 255t378.5 106l189 10l48 -223l-190 -10q-66 -3 -96 -28.5t-30 -68.5q0 -39 27 -61.5t76 -22.5q26 0 54.5 6t53.5 20v347q0 59 -20 94.5t-69.5 51.5t-138.5 16q-64 0 -145.5 -10t-153.5 -31v313q89 23 191 34t189 11
q199 0 322.5 -47.5t181 -159t57.5 -301.5v-610h-348l-29 101h-18q-46 -66 -117.5 -94.5t-156.5 -28.5zM176 1220l239 396h340l239 -396h-295l-142 254h56l-142 -254h-295zM824 1598q3 40 26 63t51 36.5t49.5 22.5t21.5 20q0 15 -23 21.5t-71 6.5q-42 0 -89.5 -4t-86.5 -12
v122q39 9 101.5 14.5t108.5 5.5q138 0 202 -29t64 -97q0 -34 -23 -54t-54.5 -35t-57.5 -33t-31 -48h-188z" />
    <glyph glyph-name="uni1EAA" unicode="&#x1eaa;" horiz-adv-x="1530" 
d="M4 0l442 1480h638l442 -1480h-424l-359 1295h38l-357 -1295h-420zM373 339l91 340h600l90 -340h-781zM325 1586l262 272h354l262 -272h-310l-159 177h60l-159 -177h-310zM950 1900q-74 0 -137 14t-121.5 28t-117.5 14q-64 0 -118.5 -14t-130.5 -52v170q68 41 125.5 52.5
t127.5 11.5q74 0 137.5 -14.5t121.5 -29t117 -14.5q65 0 120 14.5t129 51.5v-170q-67 -40 -124.5 -51t-128.5 -11z" />
    <glyph glyph-name="uni1EAB" unicode="&#x1eab;" horiz-adv-x="1176" 
d="M416 -22q-177 0 -274.5 93.5t-97.5 237.5q0 163 116.5 255t378.5 106l189 10l48 -223l-190 -10q-66 -3 -96 -28.5t-30 -68.5q0 -39 27 -61.5t76 -22.5q26 0 54.5 6t53.5 20v347q0 59 -20 94.5t-69.5 51.5t-138.5 16q-64 0 -145.5 -10t-153.5 -31v313q89 23 191 34t189 11
q199 0 322.5 -47.5t181 -159t57.5 -301.5v-610h-348l-29 101h-18q-46 -66 -117.5 -94.5t-156.5 -28.5zM146 1222l262 316h354l262 -316h-310l-159 205h60l-159 -205h-310zM769 1596q-74 0 -135 16.5t-118.5 33t-122.5 16.5q-66 0 -116 -15t-102 -46v201q46 34 98.5 50
t127.5 16t136 -16.5t118.5 -33.5t121.5 -17q67 0 117 15t101 45v-200q-44 -34 -97.5 -49.5t-128.5 -15.5z" />
    <glyph glyph-name="uni1EAC" unicode="&#x1eac;" horiz-adv-x="1530" 
d="M4 0l442 1480h638l442 -1480h-424l-359 1295h38l-357 -1295h-420zM373 339l91 340h600l90 -340h-781zM765 -464q-126 0 -189 47.5t-63 132.5q0 86 63 133t189 47q127 0 189.5 -47t62.5 -133q0 -85 -62.5 -132.5t-189.5 -47.5zM325 1586l262 316h354l262 -316h-310
l-159 205h60l-159 -205h-310z" />
    <glyph glyph-name="uni1EAD" unicode="&#x1ead;" horiz-adv-x="1176" 
d="M416 -22q-177 0 -274.5 93.5t-97.5 237.5q0 163 116.5 255t378.5 106l189 10l48 -223l-190 -10q-66 -3 -96 -28.5t-30 -68.5q0 -39 27 -61.5t76 -22.5q26 0 54.5 6t53.5 20v347q0 59 -20 94.5t-69.5 51.5t-138.5 16q-64 0 -145.5 -10t-153.5 -31v313q89 23 191 34t189 11
q199 0 322.5 -47.5t181 -159t57.5 -301.5v-610h-348l-29 101h-18q-46 -66 -117.5 -94.5t-156.5 -28.5zM585 -500q-107 0 -163 53.5t-56 144.5q0 92 56 145t163 53q108 0 163.5 -53t55.5 -145q0 -91 -55.5 -144.5t-163.5 -53.5zM176 1220l239 396h340l239 -396h-295l-142 254
h56l-142 -254h-295z" />
    <glyph glyph-name="uni1EAE" unicode="&#x1eae;" horiz-adv-x="1530" 
d="M4 0l442 1480h638l442 -1480h-424l-359 1295h38l-357 -1295h-420zM373 339l91 340h600l90 -340h-781zM764 1586q-185 0 -282 75t-118 197h218q14 -50 51 -78.5t131 -28.5q95 0 133.5 28.5t58.5 78.5h208q-20 -122 -117 -197t-283 -75zM654 1828l96 236h276l-152 -236
h-220z" />
    <glyph glyph-name="uni1EAF" unicode="&#x1eaf;" horiz-adv-x="1176" 
d="M416 -22q-177 0 -274.5 93.5t-97.5 237.5q0 163 116.5 255t378.5 106l189 10l48 -223l-190 -10q-66 -3 -96 -28.5t-30 -68.5q0 -39 27 -61.5t76 -22.5q26 0 54.5 6t53.5 20v347q0 59 -20 94.5t-69.5 51.5t-138.5 16q-64 0 -145.5 -10t-153.5 -31v313q89 23 191 34t189 11
q199 0 322.5 -47.5t181 -159t57.5 -301.5v-610h-348l-29 101h-18q-46 -66 -117.5 -94.5t-156.5 -28.5zM585 1232q-131 0 -221.5 39.5t-140.5 110.5t-63 166h253q12 -58 53.5 -88.5t118.5 -30.5q78 0 119 30.5t53 88.5h253q-12 -95 -62.5 -166t-140.5 -110.5t-222 -39.5z
M438 1598l183 270h352l-245 -270h-290z" />
    <glyph glyph-name="uni1EB0" unicode="&#x1eb0;" horiz-adv-x="1530" 
d="M4 0l442 1480h638l442 -1480h-424l-359 1295h38l-357 -1295h-420zM373 339l91 340h600l90 -340h-781zM764 1586q-185 0 -282 75t-118 197h208q22 -50 60 -78.5t132 -28.5q95 0 132 28.5t50 78.5h218q-20 -122 -117 -197t-283 -75zM654 1828l-152 236h276l96 -236h-220z
" />
    <glyph glyph-name="uni1EB1" unicode="&#x1eb1;" horiz-adv-x="1176" 
d="M416 -22q-177 0 -274.5 93.5t-97.5 237.5q0 163 116.5 255t378.5 106l189 10l48 -223l-190 -10q-66 -3 -96 -28.5t-30 -68.5q0 -39 27 -61.5t76 -22.5q26 0 54.5 6t53.5 20v347q0 59 -20 94.5t-69.5 51.5t-138.5 16q-64 0 -145.5 -10t-153.5 -31v313q89 23 191 34t189 11
q199 0 322.5 -47.5t181 -159t57.5 -301.5v-610h-348l-29 101h-18q-46 -66 -117.5 -94.5t-156.5 -28.5zM585 1232q-131 0 -221.5 39.5t-140.5 110.5t-63 166h253q12 -58 53.5 -88.5t118.5 -30.5q78 0 119 30.5t53 88.5h253q-12 -95 -62.5 -166t-140.5 -110.5t-222 -39.5z
M442 1598l-245 270h352l183 -270h-290z" />
    <glyph glyph-name="uni1EB2" unicode="&#x1eb2;" horiz-adv-x="1530" 
d="M4 0l442 1480h638l442 -1480h-424l-359 1295h38l-357 -1295h-420zM373 339l91 340h600l90 -340h-781zM764 1586q-185 0 -282 75t-118 197h218q14 -50 51 -78.5t131 -28.5q95 0 133.5 28.5t58.5 78.5h208q-20 -122 -117 -197t-283 -75zM663 1828q3 37 28.5 59t57.5 35.5
t56 24t24 23.5q0 14 -26 20t-79 6q-44 0 -92 -3.5t-99 -13.5v125q45 9 110 14.5t115 5.5q149 0 217.5 -31t68.5 -96q0 -36 -25.5 -58.5t-59.5 -39t-62 -32t-32 -39.5h-202z" />
    <glyph glyph-name="uni1EB3" unicode="&#x1eb3;" horiz-adv-x="1176" 
d="M416 -22q-177 0 -274.5 93.5t-97.5 237.5q0 163 116.5 255t378.5 106l189 10l48 -223l-190 -10q-66 -3 -96 -28.5t-30 -68.5q0 -39 27 -61.5t76 -22.5q26 0 54.5 6t53.5 20v347q0 59 -20 94.5t-69.5 51.5t-138.5 16q-64 0 -145.5 -10t-153.5 -31v313q89 23 191 34t189 11
q199 0 322.5 -47.5t181 -159t57.5 -301.5v-610h-348l-29 101h-18q-46 -66 -117.5 -94.5t-156.5 -28.5zM585 1232q-131 0 -221.5 39.5t-140.5 110.5t-63 166h253q12 -58 53.5 -88.5t118.5 -30.5q78 0 119 30.5t53 88.5h253q-12 -95 -62.5 -166t-140.5 -110.5t-222 -39.5z
M484 1598q3 37 28.5 59t57.5 35.5t56 24t24 23.5q0 14 -26 20t-79 6q-44 0 -92 -3.5t-99 -13.5v125q45 9 110 14.5t115 5.5q149 0 217.5 -31t68.5 -96q0 -36 -25.5 -58.5t-59.5 -39t-62 -32t-32 -39.5h-202z" />
    <glyph glyph-name="uni1EB4" unicode="&#x1eb4;" horiz-adv-x="1530" 
d="M4 0l442 1480h638l442 -1480h-424l-359 1295h38l-357 -1295h-420zM373 339l91 340h600l90 -340h-781zM764 1586q-185 0 -282 75t-118 197h218q14 -50 51 -78.5t131 -28.5q95 0 132 28.5t50 78.5h218q-20 -122 -117 -197t-283 -75zM924 1900q-62 0 -117.5 14t-106 28
t-100.5 14q-59 0 -110 -14t-126 -52v170q68 41 121.5 52.5t118.5 11.5q63 0 118 -14.5t106 -29t100 -14.5q60 0 111 14.5t125 51.5v-170q-67 -40 -120.5 -51t-119.5 -11z" />
    <glyph glyph-name="uni1EB5" unicode="&#x1eb5;" horiz-adv-x="1176" 
d="M416 -22q-177 0 -274.5 93.5t-97.5 237.5q0 163 116.5 255t378.5 106l189 10l48 -223l-190 -10q-66 -3 -96 -28.5t-30 -68.5q0 -39 27 -61.5t76 -22.5q26 0 54.5 6t53.5 20v347q0 59 -20 94.5t-69.5 51.5t-138.5 16q-64 0 -145.5 -10t-153.5 -31v313q89 23 191 34t189 11
q199 0 322.5 -47.5t181 -159t57.5 -301.5v-610h-348l-29 101h-18q-46 -66 -117.5 -94.5t-156.5 -28.5zM585 1232q-131 0 -221.5 39.5t-140.5 110.5t-63 166h253q12 -58 53.5 -88.5t118.5 -30.5q78 0 119 30.5t53 88.5h253q-12 -95 -62.5 -166t-140.5 -110.5t-222 -39.5z
M776 1596q-77 0 -140 16.5t-123 32.5t-127 16q-69 0 -120.5 -14.5t-105.5 -45.5v200q47 36 102 51.5t132 15.5t140 -16.5t123 -33.5t127 -17q70 0 121.5 15.5t104.5 44.5v-200q-46 -35 -100.5 -50t-133.5 -15z" />
    <glyph glyph-name="uni1EB6" unicode="&#x1eb6;" horiz-adv-x="1530" 
d="M4 0l442 1480h638l442 -1480h-424l-359 1295h38l-357 -1295h-420zM373 339l91 340h600l90 -340h-781zM765 -464q-126 0 -189 47.5t-63 132.5q0 86 63 133t189 47q127 0 189.5 -47t62.5 -133q0 -85 -62.5 -132.5t-189.5 -47.5zM764 1586q-131 0 -221.5 39.5t-140.5 110.5
t-63 166h253q12 -58 53.5 -88.5t118.5 -30.5q78 0 119 30.5t53 88.5h253q-12 -95 -62.5 -166t-140.5 -110.5t-222 -39.5z" />
    <glyph glyph-name="uni1EB7" unicode="&#x1eb7;" horiz-adv-x="1176" 
d="M416 -22q-177 0 -274.5 93.5t-97.5 237.5q0 163 116.5 255t378.5 106l189 10l48 -223l-190 -10q-66 -3 -96 -28.5t-30 -68.5q0 -39 27 -61.5t76 -22.5q26 0 54.5 6t53.5 20v347q0 59 -20 94.5t-69.5 51.5t-138.5 16q-64 0 -145.5 -10t-153.5 -31v313q89 23 191 34t189 11
q199 0 322.5 -47.5t181 -159t57.5 -301.5v-610h-348l-29 101h-18q-46 -66 -117.5 -94.5t-156.5 -28.5zM585 -500q-107 0 -163 53.5t-56 144.5q0 92 56 145t163 53q108 0 163.5 -53t55.5 -145q0 -91 -55.5 -144.5t-163.5 -53.5zM585 1228q-183 0 -289.5 93t-117.5 275h251
q7 -82 46 -121.5t110 -39.5q73 0 111.5 39.5t44.5 121.5h251q-10 -182 -116.5 -275t-290.5 -93z" />
    <glyph glyph-name="uni1EB8" unicode="&#x1eb8;" horiz-adv-x="1313" 
d="M109 0v1480h1122v-342h-694v-796h704v-342h-1132zM362 584v342h764v-342h-764zM692 -464q-126 0 -189 47.5t-63 132.5q0 86 63 133t189 47q127 0 189.5 -47t62.5 -133q0 -85 -62.5 -132.5t-189.5 -47.5z" />
    <glyph glyph-name="uni1EB9" unicode="&#x1eb9;" horiz-adv-x="1162" 
d="M712 -22q-231 0 -376.5 60.5t-214 187t-68.5 325.5q0 175 63.5 302.5t187 196t303.5 68.5q170 0 284 -69t171 -199.5t57 -312.5v-106h-822v234h491l-61 -17q0 80 -12.5 126t-40.5 65t-72 19t-72 -19t-41.5 -64.5t-13.5 -125.5v-175q0 -68 22.5 -107.5t87 -56.5t189.5 -17
q66 0 138.5 8.5t141.5 20.5v-311q-93 -18 -176.5 -25.5t-165.5 -7.5zM598 -500q-107 0 -163 53.5t-56 144.5q0 92 56 145t163 53q108 0 163.5 -53t55.5 -145q0 -91 -55.5 -144.5t-163.5 -53.5z" />
    <glyph glyph-name="uni1EBA" unicode="&#x1eba;" horiz-adv-x="1313" 
d="M109 0v1480h1122v-342h-694v-796h704v-342h-1132zM362 584v342h764v-342h-764zM591 1586q4 54 41.5 80.5t72.5 42.5q22 11 37 20t15 21q0 17 -26 24t-79 7q-44 0 -92 -4.5t-99 -15.5v147q45 11 110 16.5t115 5.5q149 0 217.5 -36t68.5 -111q0 -48 -34 -75.5t-70 -49.5
q-27 -15 -49 -31.5t-26 -40.5h-202z" />
    <glyph glyph-name="uni1EBB" unicode="&#x1ebb;" horiz-adv-x="1162" 
d="M712 -22q-231 0 -376.5 60.5t-214 187t-68.5 325.5q0 175 63.5 302.5t187 196t303.5 68.5q170 0 284 -69t171 -199.5t57 -312.5v-106h-822v234h491l-61 -17q0 80 -12.5 126t-40.5 65t-72 19t-72 -19t-41.5 -64.5t-13.5 -125.5v-175q0 -68 22.5 -107.5t87 -56.5t189.5 -17
q66 0 138.5 8.5t141.5 20.5v-311q-93 -18 -176.5 -25.5t-165.5 -7.5zM497 1220q3 56 25.5 89t50.5 53.5t49 37t21 38.5q0 20 -20 28.5t-65 8.5q-39 0 -81 -5.5t-90 -18.5v151q42 13 100.5 19.5t104.5 6.5q136 0 201 -39t65 -123q0 -54 -22 -84.5t-52 -52t-55 -45t-30 -64.5
h-202z" />
    <glyph glyph-name="uni1EBC" unicode="&#x1ebc;" horiz-adv-x="1313" 
d="M109 0v1480h1122v-342h-694v-796h704v-342h-1132zM362 584v342h764v-342h-764zM876 1586q-57 0 -106 13t-96 27q-42 14 -84.5 25t-89.5 11q-66 0 -116 -17t-102 -53v233q46 40 98.5 58.5t127.5 18.5q58 0 107 -13t95 -28q43 -13 85.5 -25t88.5 -12q67 0 117 17.5
t101 52.5v-233q-44 -39 -97.5 -57t-128.5 -18z" />
    <glyph glyph-name="uni1EBD" unicode="&#x1ebd;" horiz-adv-x="1162" 
d="M712 -22q-231 0 -376.5 60.5t-214 187t-68.5 325.5q0 175 63.5 302.5t187 196t303.5 68.5q170 0 284 -69t171 -199.5t57 -312.5v-106h-822v234h491l-61 -17q0 80 -12.5 126t-40.5 65t-72 19t-72 -19t-41.5 -64.5t-13.5 -125.5v-175q0 -68 22.5 -107.5t87 -56.5t189.5 -17
q66 0 138.5 8.5t141.5 20.5v-311q-93 -18 -176.5 -25.5t-165.5 -7.5zM766 1245q-51 0 -97 17t-89 36q-40 18 -78.5 32t-79.5 14q-60 0 -109 -21t-101 -70v256q86 84 218 84q52 0 98 -16.5t88 -35.5q40 -18 79 -32.5t79 -14.5q61 0 110 22t100 69v-256q-85 -84 -218 -84z" />
    <glyph glyph-name="uni1EBE" unicode="&#x1ebe;" horiz-adv-x="1313" 
d="M109 0v1480h1122v-342h-694v-796h704v-342h-1132zM362 584v342h764v-342h-764zM253 1586l262 272h354l262 -272h-310l-159 177h60l-159 -177h-310zM958 1828l96 236h276l-152 -236h-220z" />
    <glyph glyph-name="uni1EBF" unicode="&#x1ebf;" horiz-adv-x="1162" 
d="M712 -22q-231 0 -376.5 60.5t-214 187t-68.5 325.5q0 175 63.5 302.5t187 196t303.5 68.5q170 0 284 -69t171 -199.5t57 -312.5v-106h-822v234h491l-61 -17q0 80 -12.5 126t-40.5 65t-72 19t-72 -19t-41.5 -64.5t-13.5 -125.5v-175q0 -68 22.5 -107.5t87 -56.5t189.5 -17
q66 0 138.5 8.5t141.5 20.5v-311q-93 -18 -176.5 -25.5t-165.5 -7.5zM189 1220l239 396h340l239 -396h-295l-142 254h56l-142 -254h-295zM838 1598l183 270h352l-245 -270h-290z" />
    <glyph glyph-name="uni1EC0" unicode="&#x1ec0;" horiz-adv-x="1313" 
d="M109 0v1480h1122v-342h-694v-796h704v-342h-1132zM362 584v342h764v-342h-764zM253 1586l262 272h354l262 -272h-310l-159 177h60l-159 -177h-310zM998 1828l-152 236h276l96 -236h-220z" />
    <glyph glyph-name="uni1EC1" unicode="&#x1ec1;" horiz-adv-x="1162" 
d="M712 -22q-231 0 -376.5 60.5t-214 187t-68.5 325.5q0 175 63.5 302.5t187 196t303.5 68.5q170 0 284 -69t171 -199.5t57 -312.5v-106h-822v234h491l-61 -17q0 80 -12.5 126t-40.5 65t-72 19t-72 -19t-41.5 -64.5t-13.5 -125.5v-175q0 -68 22.5 -107.5t87 -56.5t189.5 -17
q66 0 138.5 8.5t141.5 20.5v-311q-93 -18 -176.5 -25.5t-165.5 -7.5zM189 1220l239 396h340l239 -396h-295l-142 254h56l-142 -254h-295zM878 1598l-245 270h352l183 -270h-290z" />
    <glyph glyph-name="uni1EC2" unicode="&#x1ec2;" horiz-adv-x="1313" 
d="M109 0v1480h1122v-342h-694v-796h704v-342h-1132zM362 584v342h764v-342h-764zM253 1586l262 272h354l262 -272h-310l-159 177h60l-159 -177h-310zM957 1828q3 37 28.5 59t57.5 35.5t56 24t24 23.5q0 14 -26 20t-79 6q-44 0 -92 -3.5t-99 -13.5v125q45 9 110 14.5
t115 5.5q149 0 217.5 -31t68.5 -96q0 -36 -25.5 -58.5t-59.5 -39t-62 -32t-32 -39.5h-202z" />
    <glyph glyph-name="uni1EC3" unicode="&#x1ec3;" horiz-adv-x="1162" 
d="M712 -22q-231 0 -376.5 60.5t-214 187t-68.5 325.5q0 175 63.5 302.5t187 196t303.5 68.5q170 0 284 -69t171 -199.5t57 -312.5v-106h-822v234h491l-61 -17q0 80 -12.5 126t-40.5 65t-72 19t-72 -19t-41.5 -64.5t-13.5 -125.5v-175q0 -68 22.5 -107.5t87 -56.5t189.5 -17
q66 0 138.5 8.5t141.5 20.5v-311q-93 -18 -176.5 -25.5t-165.5 -7.5zM189 1220l239 396h340l239 -396h-295l-142 254h56l-142 -254h-295zM837 1598q3 40 26 63t51 36.5t49.5 22.5t21.5 20q0 15 -23 21.5t-71 6.5q-42 0 -89.5 -4t-86.5 -12v122q39 9 101.5 14.5t108.5 5.5
q138 0 202 -29t64 -97q0 -34 -23 -54t-54.5 -35t-57.5 -33t-31 -48h-188z" />
    <glyph glyph-name="uni1EC4" unicode="&#x1ec4;" horiz-adv-x="1313" 
d="M109 0v1480h1122v-342h-694v-796h704v-342h-1132zM362 584v342h764v-342h-764zM253 1586l262 272h354l262 -272h-310l-159 177h60l-159 -177h-310zM878 1900q-74 0 -137 14t-121.5 28t-117.5 14q-64 0 -118.5 -14t-130.5 -52v170q68 41 125.5 52.5t127.5 11.5
q74 0 137.5 -14.5t121.5 -29t117 -14.5q65 0 120 14.5t129 51.5v-170q-67 -40 -124.5 -51t-128.5 -11z" />
    <glyph glyph-name="uni1EC5" unicode="&#x1ec5;" horiz-adv-x="1162" 
d="M712 -22q-231 0 -376.5 60.5t-214 187t-68.5 325.5q0 175 63.5 302.5t187 196t303.5 68.5q170 0 284 -69t171 -199.5t57 -312.5v-106h-822v234h491l-61 -17q0 80 -12.5 126t-40.5 65t-72 19t-72 -19t-41.5 -64.5t-13.5 -125.5v-175q0 -68 22.5 -107.5t87 -56.5t189.5 -17
q66 0 138.5 8.5t141.5 20.5v-311q-93 -18 -176.5 -25.5t-165.5 -7.5zM159 1222l262 316h354l262 -316h-310l-159 205h60l-159 -205h-310zM782 1596q-74 0 -135 16.5t-118.5 33t-122.5 16.5q-66 0 -116 -15t-102 -46v201q46 34 98.5 50t127.5 16t136 -16.5t118.5 -33.5
t121.5 -17q67 0 117 15t101 45v-200q-44 -34 -97.5 -49.5t-128.5 -15.5z" />
    <glyph glyph-name="uni1EC6" unicode="&#x1ec6;" horiz-adv-x="1313" 
d="M109 0v1480h1122v-342h-694v-796h704v-342h-1132zM362 584v342h764v-342h-764zM692 -464q-126 0 -189 47.5t-63 132.5q0 86 63 133t189 47q127 0 189.5 -47t62.5 -133q0 -85 -62.5 -132.5t-189.5 -47.5zM253 1586l262 316h354l262 -316h-310l-159 205h60l-159 -205h-310z
" />
    <glyph glyph-name="uni1EC7" unicode="&#x1ec7;" horiz-adv-x="1162" 
d="M712 -22q-231 0 -376.5 60.5t-214 187t-68.5 325.5q0 175 63.5 302.5t187 196t303.5 68.5q170 0 284 -69t171 -199.5t57 -312.5v-106h-822v234h491l-61 -17q0 80 -12.5 126t-40.5 65t-72 19t-72 -19t-41.5 -64.5t-13.5 -125.5v-175q0 -68 22.5 -107.5t87 -56.5t189.5 -17
q66 0 138.5 8.5t141.5 20.5v-311q-93 -18 -176.5 -25.5t-165.5 -7.5zM598 -500q-107 0 -163 53.5t-56 144.5q0 92 56 145t163 53q108 0 163.5 -53t55.5 -145q0 -91 -55.5 -144.5t-163.5 -53.5zM189 1220l239 396h340l239 -396h-295l-142 254h56l-142 -254h-295z" />
    <glyph glyph-name="uni1EC8" unicode="&#x1ec8;" horiz-adv-x="652" 
d="M109 0v1480h434v-1480h-434zM225 1586q4 54 41.5 80.5t72.5 42.5q22 11 37 20t15 21q0 17 -26 24t-79 7q-44 0 -92 -4.5t-99 -15.5v147q45 11 110 16.5t115 5.5q149 0 217.5 -36t68.5 -111q0 -48 -34 -75.5t-70 -49.5q-27 -15 -49 -31.5t-26 -40.5h-202z" />
    <glyph glyph-name="uni1EC9" unicode="&#x1ec9;" horiz-adv-x="620" 
d="M97 0v1100h426v-1100h-426zM209 1220q3 56 25.5 89t50.5 53.5t49 37t21 38.5q0 20 -20 28.5t-65 8.5q-39 0 -81 -5.5t-90 -18.5v151q42 13 100.5 19.5t104.5 6.5q136 0 201 -39t65 -123q0 -54 -22 -84.5t-52 -52t-55 -45t-30 -64.5h-202z" />
    <glyph glyph-name="uni1ECA" unicode="&#x1eca;" horiz-adv-x="652" 
d="M109 0v1480h434v-1480h-434zM325 -464q-126 0 -189 47.5t-63 132.5q0 86 63 133t189 47q127 0 189.5 -47t62.5 -133q0 -85 -62.5 -132.5t-189.5 -47.5z" />
    <glyph glyph-name="uni1ECB" unicode="&#x1ecb;" horiz-adv-x="620" 
d="M97 0v1100h426v-1100h-426zM310 1208q-131 0 -192.5 55t-61.5 155q0 101 61.5 155.5t192.5 54.5q133 0 193.5 -54.5t60.5 -155.5q0 -100 -60.5 -155t-193.5 -55zM310 -500q-107 0 -163 53.5t-56 144.5q0 92 56 145t163 53q108 0 163.5 -53t55.5 -145q0 -91 -55.5 -144.5
t-163.5 -53.5z" />
    <glyph glyph-name="uni1ECC" unicode="&#x1ecc;" horiz-adv-x="1644" 
d="M822 -20q-228 0 -397 85.5t-262.5 254.5t-93.5 420q0 252 93 421t262 254t398 85t398 -85.5t262 -254.5t93 -420q0 -250 -93 -419t-262 -255t-398 -86zM822 326q100 0 169 43t104.5 132.5t35.5 230.5q0 149 -36 242t-105 136.5t-168 43.5q-98 0 -167 -42t-105.5 -131.5
t-36.5 -232.5q0 -150 36 -243t104.5 -136t168.5 -43zM822 -464q-126 0 -189 47.5t-63 132.5q0 86 63 133t189 47q127 0 189.5 -47t62.5 -133q0 -85 -62.5 -132.5t-189.5 -47.5z" />
    <glyph glyph-name="uni1ECD" unicode="&#x1ecd;" horiz-adv-x="1266" 
d="M633 -22q-179 0 -309 65t-200.5 191.5t-70.5 311.5q0 188 68 315t197.5 192t314.5 65t315 -66t197.5 -193t67.5 -311q0 -186 -70 -313t-200 -192t-310 -65zM633 294q51 0 85.5 22t51.5 77t17 153q0 101 -17.5 156.5t-52 77.5t-84.5 22t-84.5 -22t-52 -77t-17.5 -155
q0 -99 17.5 -154.5t51.5 -77.5t85 -22zM633 -500q-107 0 -163 53.5t-56 144.5q0 92 56 145t163 53q108 0 163.5 -53t55.5 -145q0 -91 -55.5 -144.5t-163.5 -53.5z" />
    <glyph glyph-name="uni1ECE" unicode="&#x1ece;" horiz-adv-x="1644" 
d="M822 -20q-228 0 -397 85.5t-262.5 254.5t-93.5 420q0 252 93 421t262 254t398 85t398 -85.5t262 -254.5t93 -420q0 -250 -93 -419t-262 -255t-398 -86zM822 326q100 0 169 43t104.5 132.5t35.5 230.5q0 149 -36 242t-105 136.5t-168 43.5q-98 0 -167 -42t-105.5 -131.5
t-36.5 -232.5q0 -150 36 -243t104.5 -136t168.5 -43zM721 1586q4 54 41.5 80.5t72.5 42.5q22 11 37 20t15 21q0 17 -26 24t-79 7q-44 0 -92 -4.5t-99 -15.5v147q45 11 110 16.5t115 5.5q149 0 217.5 -36t68.5 -111q0 -48 -34 -75.5t-70 -49.5q-27 -15 -49 -31.5t-26 -40.5
h-202z" />
    <glyph glyph-name="uni1ECF" unicode="&#x1ecf;" horiz-adv-x="1266" 
d="M633 -22q-179 0 -309 65t-200.5 191.5t-70.5 311.5q0 188 68 315t197.5 192t314.5 65t315 -66t197.5 -193t67.5 -311q0 -186 -70 -313t-200 -192t-310 -65zM633 294q51 0 85.5 22t51.5 77t17 153q0 101 -17.5 156.5t-52 77.5t-84.5 22t-84.5 -22t-52 -77t-17.5 -155
q0 -99 17.5 -154.5t51.5 -77.5t85 -22zM532 1220q3 56 25.5 89t50.5 53.5t49 37t21 38.5q0 20 -20 28.5t-65 8.5q-39 0 -81 -5.5t-90 -18.5v151q42 13 100.5 19.5t104.5 6.5q136 0 201 -39t65 -123q0 -54 -22 -84.5t-52 -52t-55 -45t-30 -64.5h-202z" />
    <glyph glyph-name="uni1ED0" unicode="&#x1ed0;" horiz-adv-x="1644" 
d="M822 -20q-228 0 -397 85.5t-262.5 254.5t-93.5 420q0 252 93 421t262 254t398 85t398 -85.5t262 -254.5t93 -420q0 -250 -93 -419t-262 -255t-398 -86zM822 326q100 0 169 43t104.5 132.5t35.5 230.5q0 149 -36 242t-105 136.5t-168 43.5q-98 0 -167 -42t-105.5 -131.5
t-36.5 -232.5q0 -150 36 -243t104.5 -136t168.5 -43zM383 1586l262 272h354l262 -272h-310l-159 177h60l-159 -177h-310zM1088 1828l96 236h276l-152 -236h-220z" />
    <glyph glyph-name="uni1ED1" unicode="&#x1ed1;" horiz-adv-x="1266" 
d="M633 -22q-179 0 -309 65t-200.5 191.5t-70.5 311.5q0 188 68 315t197.5 192t314.5 65t315 -66t197.5 -193t67.5 -311q0 -186 -70 -313t-200 -192t-310 -65zM633 294q51 0 85.5 22t51.5 77t17 153q0 101 -17.5 156.5t-52 77.5t-84.5 22t-84.5 -22t-52 -77t-17.5 -155
q0 -99 17.5 -154.5t51.5 -77.5t85 -22zM224 1220l239 396h340l239 -396h-295l-142 254h56l-142 -254h-295zM873 1598l183 270h352l-245 -270h-290z" />
    <glyph glyph-name="uni1ED2" unicode="&#x1ed2;" horiz-adv-x="1644" 
d="M822 -20q-228 0 -397 85.5t-262.5 254.5t-93.5 420q0 252 93 421t262 254t398 85t398 -85.5t262 -254.5t93 -420q0 -250 -93 -419t-262 -255t-398 -86zM822 326q100 0 169 43t104.5 132.5t35.5 230.5q0 149 -36 242t-105 136.5t-168 43.5q-98 0 -167 -42t-105.5 -131.5
t-36.5 -232.5q0 -150 36 -243t104.5 -136t168.5 -43zM383 1586l262 272h354l262 -272h-310l-159 177h60l-159 -177h-310zM1128 1828l-152 236h276l96 -236h-220z" />
    <glyph glyph-name="uni1ED3" unicode="&#x1ed3;" horiz-adv-x="1266" 
d="M633 -22q-179 0 -309 65t-200.5 191.5t-70.5 311.5q0 188 68 315t197.5 192t314.5 65t315 -66t197.5 -193t67.5 -311q0 -186 -70 -313t-200 -192t-310 -65zM633 294q51 0 85.5 22t51.5 77t17 153q0 101 -17.5 156.5t-52 77.5t-84.5 22t-84.5 -22t-52 -77t-17.5 -155
q0 -99 17.5 -154.5t51.5 -77.5t85 -22zM224 1220l239 396h340l239 -396h-295l-142 254h56l-142 -254h-295zM913 1598l-245 270h352l183 -270h-290z" />
    <glyph glyph-name="uni1ED4" unicode="&#x1ed4;" horiz-adv-x="1644" 
d="M822 -20q-228 0 -397 85.5t-262.5 254.5t-93.5 420q0 252 93 421t262 254t398 85t398 -85.5t262 -254.5t93 -420q0 -250 -93 -419t-262 -255t-398 -86zM822 326q100 0 169 43t104.5 132.5t35.5 230.5q0 149 -36 242t-105 136.5t-168 43.5q-98 0 -167 -42t-105.5 -131.5
t-36.5 -232.5q0 -150 36 -243t104.5 -136t168.5 -43zM383 1586l262 272h354l262 -272h-310l-159 177h60l-159 -177h-310zM1087 1828q3 37 28.5 59t57.5 35.5t56 24t24 23.5q0 14 -26 20t-79 6q-44 0 -92 -3.5t-99 -13.5v125q45 9 110 14.5t115 5.5q149 0 217.5 -31t68.5 -96
q0 -36 -25.5 -58.5t-59.5 -39t-62 -32t-32 -39.5h-202z" />
    <glyph glyph-name="uni1ED5" unicode="&#x1ed5;" horiz-adv-x="1266" 
d="M633 -22q-179 0 -309 65t-200.5 191.5t-70.5 311.5q0 188 68 315t197.5 192t314.5 65t315 -66t197.5 -193t67.5 -311q0 -186 -70 -313t-200 -192t-310 -65zM633 294q51 0 85.5 22t51.5 77t17 153q0 101 -17.5 156.5t-52 77.5t-84.5 22t-84.5 -22t-52 -77t-17.5 -155
q0 -99 17.5 -154.5t51.5 -77.5t85 -22zM224 1220l239 396h340l239 -396h-295l-142 254h56l-142 -254h-295zM872 1598q3 40 26 63t51 36.5t49.5 22.5t21.5 20q0 15 -23 21.5t-71 6.5q-42 0 -89.5 -4t-86.5 -12v122q39 9 101.5 14.5t108.5 5.5q138 0 202 -29t64 -97
q0 -34 -23 -54t-54.5 -35t-57.5 -33t-31 -48h-188z" />
    <glyph glyph-name="uni1ED6" unicode="&#x1ed6;" horiz-adv-x="1644" 
d="M822 -20q-228 0 -397 85.5t-262.5 254.5t-93.5 420q0 252 93 421t262 254t398 85t398 -85.5t262 -254.5t93 -420q0 -250 -93 -419t-262 -255t-398 -86zM822 326q100 0 169 43t104.5 132.5t35.5 230.5q0 149 -36 242t-105 136.5t-168 43.5q-98 0 -167 -42t-105.5 -131.5
t-36.5 -232.5q0 -150 36 -243t104.5 -136t168.5 -43zM383 1586l262 272h354l262 -272h-310l-159 177h60l-159 -177h-310zM1008 1900q-74 0 -137 14t-121.5 28t-117.5 14q-64 0 -118.5 -14t-130.5 -52v170q68 41 125.5 52.5t127.5 11.5q74 0 137.5 -14.5t121.5 -29t117 -14.5
q65 0 120 14.5t129 51.5v-170q-67 -40 -124.5 -51t-128.5 -11z" />
    <glyph glyph-name="uni1ED7" unicode="&#x1ed7;" horiz-adv-x="1266" 
d="M633 -22q-179 0 -309 65t-200.5 191.5t-70.5 311.5q0 188 68 315t197.5 192t314.5 65t315 -66t197.5 -193t67.5 -311q0 -186 -70 -313t-200 -192t-310 -65zM633 294q51 0 85.5 22t51.5 77t17 153q0 101 -17.5 156.5t-52 77.5t-84.5 22t-84.5 -22t-52 -77t-17.5 -155
q0 -99 17.5 -154.5t51.5 -77.5t85 -22zM194 1222l262 316h354l262 -316h-310l-159 205h60l-159 -205h-310zM817 1596q-74 0 -135 16.5t-118.5 33t-122.5 16.5q-66 0 -116 -15t-102 -46v201q46 34 98.5 50t127.5 16t136 -16.5t118.5 -33.5t121.5 -17q67 0 117 15t101 45v-200
q-44 -34 -97.5 -49.5t-128.5 -15.5z" />
    <glyph glyph-name="uni1ED8" unicode="&#x1ed8;" horiz-adv-x="1644" 
d="M822 -20q-228 0 -397 85.5t-262.5 254.5t-93.5 420q0 252 93 421t262 254t398 85t398 -85.5t262 -254.5t93 -420q0 -250 -93 -419t-262 -255t-398 -86zM822 326q100 0 169 43t104.5 132.5t35.5 230.5q0 149 -36 242t-105 136.5t-168 43.5q-98 0 -167 -42t-105.5 -131.5
t-36.5 -232.5q0 -150 36 -243t104.5 -136t168.5 -43zM822 -464q-126 0 -189 47.5t-63 132.5q0 86 63 133t189 47q127 0 189.5 -47t62.5 -133q0 -85 -62.5 -132.5t-189.5 -47.5zM383 1586l262 316h354l262 -316h-310l-159 205h60l-159 -205h-310z" />
    <glyph glyph-name="uni1ED9" unicode="&#x1ed9;" horiz-adv-x="1266" 
d="M633 -22q-179 0 -309 65t-200.5 191.5t-70.5 311.5q0 188 68 315t197.5 192t314.5 65t315 -66t197.5 -193t67.5 -311q0 -186 -70 -313t-200 -192t-310 -65zM633 294q51 0 85.5 22t51.5 77t17 153q0 101 -17.5 156.5t-52 77.5t-84.5 22t-84.5 -22t-52 -77t-17.5 -155
q0 -99 17.5 -154.5t51.5 -77.5t85 -22zM633 -500q-107 0 -163 53.5t-56 144.5q0 92 56 145t163 53q108 0 163.5 -53t55.5 -145q0 -91 -55.5 -144.5t-163.5 -53.5zM224 1220l239 396h340l239 -396h-295l-142 254h56l-142 -254h-295z" />
    </font>
</defs>
</svg>
