<?xml version="1.0" standalone="no"?>
<!DOCTYPE svg PUBLIC "-//W3C//DTD SVG 1.1//EN" "http://www.w3.org/Graphics/SVG/1.1/DTD/svg11.dtd" >
<svg xmlns="http://www.w3.org/2000/svg" xmlns:xlink="http://www.w3.org/1999/xlink" version="1.1">
<metadata>
Created by FontForge 20170731 at Wed Jun 24 20:56:00 2020
 By Aleksey,,,
Copyright 2020 The Encode Project Authors (https://github.com/thundernixon/Encode-Sans), with Reserved Font Name 'Encode Sans'.
</metadata>
<defs>
<font id="EncodeSans-ExtraLight" horiz-adv-x="0" >
  <font-face 
    font-family="Encode Sans ExtraLight"
    font-weight="250"
    font-stretch="normal"
    units-per-em="2000"
    panose-1="0 0 0 0 0 0 0 0 0 0"
    ascent="1600"
    descent="-400"
    x-height="1081"
    cap-height="1480"
    bbox="-318 -461 2462 2122"
    underline-thickness="50"
    underline-position="-175"
    unicode-range="U+000D-FB02"
  />
<missing-glyph horiz-adv-x="1214" 
d="M607 -10q-114 0 -214.5 5.5t-216.5 20.5v1438q99 21 216.5 30.5t214.5 9.5t214.5 -9.5t216.5 -30.5v-1438q-116 -15 -216.5 -20.5t-214.5 -5.5zM607 1428q-85 0 -174 -7t-189 -21v-1322q65 -10 153.5 -16t209.5 -6t210 6t153 16v1322q-184 28 -363 28zM941 49l-335 635
l-35 64l-349 659l54 26l330 -623l35 -62l357 -674zM271 49l-57 25l357 674l35 62l330 623l54 -26l-349 -659l-35 -64z" />
    <glyph glyph-name=".notdef" horiz-adv-x="1214" 
d="M607 -10q-114 0 -214.5 5.5t-216.5 20.5v1438q99 21 216.5 30.5t214.5 9.5t214.5 -9.5t216.5 -30.5v-1438q-116 -15 -216.5 -20.5t-214.5 -5.5zM607 1428q-85 0 -174 -7t-189 -21v-1322q65 -10 153.5 -16t209.5 -6t210 6t153 16v1322q-184 28 -363 28zM941 49l-335 635
l-35 64l-349 659l54 26l330 -623l35 -62l357 -674zM271 49l-57 25l357 674l35 62l330 623l54 -26l-349 -659l-35 -64z" />
    <glyph glyph-name=".null" 
 />
    <glyph glyph-name="nonmarkingreturn" horiz-adv-x="666" 
 />
    <glyph glyph-name="NULL" 
 />
    <glyph glyph-name="NULL" 
 />
    <glyph glyph-name="CR" unicode="&#xd;" horiz-adv-x="483" 
 />
    <glyph glyph-name="space" unicode=" " horiz-adv-x="483" 
 />
    <glyph glyph-name="exclam" unicode="!" horiz-adv-x="459" 
d="M199 329l-17 567v584h95v-584l-17 -567h-61zM229 -11q-32 0 -53 20t-21 53q0 34 21 54t53 20q33 0 54 -20t21 -54q0 -33 -21 -53t-54 -20z" />
    <glyph glyph-name="quotedbl" unicode="&#x22;" horiz-adv-x="687" 
d="M170 946l-23 670h100l-23 -670h-54zM463 946l-23 670h100l-23 -670h-54z" />
    <glyph glyph-name="numbersign" unicode="#" horiz-adv-x="1113" 
d="M619 0l154 1480h81l-154 -1480h-81zM100 485v81h913v-81h-913zM259 0l154 1480h82l-154 -1480h-82zM100 914v81h913v-81h-913z" />
    <glyph glyph-name="dollar" unicode="$" horiz-adv-x="1022" 
d="M443 -18q-79 0 -169 14t-174 43v85q62 -21 122 -34t116 -19t108 -6q134 0 222.5 35.5t133 105.5t44.5 174q0 132 -76 201.5t-252 114.5l-66 17q-186 49 -278 143.5t-92 250.5q0 181 123.5 286t365.5 105q79 0 160 -11t149 -33v-85q-77 24 -154.5 35t-156.5 11
q-132 0 -219 -35t-130.5 -103t-43.5 -165q0 -128 70 -198t239 -115l66 -17q134 -34 220 -87t127.5 -129.5t41.5 -180.5q0 -130 -58 -220t-169 -136.5t-270 -46.5zM470 -240v245l84 9v-254h-84zM470 1476v244h84v-244h-84z" />
    <glyph glyph-name="percent" unicode="%" horiz-adv-x="1737" 
d="M503 0l644 1480h87l-644 -1480h-87zM427 577q-92 0 -162.5 45.5t-111 146.5t-40.5 269t39.5 269t110.5 146t164 45t163.5 -45t110 -146t39.5 -269t-40.5 -269t-111 -146.5t-161.5 -45.5zM427 652q68 0 119.5 35.5t81 119.5t29.5 229q0 146 -29.5 230.5t-81 120.5
t-119.5 36q-69 0 -121 -35.5t-81 -119.5t-29 -228q0 -146 29 -230.5t81 -121t121 -36.5zM1310 -18q-92 0 -162.5 45.5t-110.5 146t-40 268.5t40 269t110.5 146.5t162.5 45.5q93 0 163.5 -45.5t110.5 -146.5t40 -269t-40 -268.5t-111 -146t-163 -45.5zM1310 57q68 0 120 35
t81.5 119t29.5 230t-29.5 230.5t-81.5 120.5t-120 36t-120 -35.5t-81 -119.5t-29 -229t29 -229.5t81 -121t120 -36.5z" />
    <glyph glyph-name="ampersand" unicode="&#x26;" horiz-adv-x="1449" 
d="M1398 -20l-760 611q-124 99 -194.5 179t-100 156t-29.5 164q0 195 121 301.5t365 106.5q66 0 125.5 -7.5t109.5 -20.5v-85q-58 16 -115.5 23t-120.5 7q-136 0 -222.5 -37.5t-127.5 -110t-41 -177.5q0 -74 23 -137.5t83.5 -133t173.5 -160.5l761 -611zM671 -18
q-172 0 -287 53t-173 148t-58 219q0 94 31.5 173t92.5 140.5t150 102.5l49 -63q-116 -54 -173 -140.5t-57 -203.5q0 -104 45.5 -182.5t140.5 -122.5t244 -44q144 0 246 46t156 141t54 243q0 66 -11.5 138t-33.5 139h86q21 -67 31 -138t10 -139q0 -167 -64.5 -280.5
t-185.5 -171.5t-293 -58z" />
    <glyph glyph-name="quotesingle" unicode="'" horiz-adv-x="394" 
d="M170 946l-23 670h100l-23 -670h-54z" />
    <glyph glyph-name="parenleft" unicode="(" horiz-adv-x="634" 
d="M476 -440q-178 225 -259.5 485t-81.5 543t81.5 543.5t259.5 484.5h101q-123 -156 -199.5 -322.5t-112.5 -343t-36 -362.5t36 -362.5t112.5 -343t199.5 -322.5h-101z" />
    <glyph glyph-name="parenright" unicode=")" horiz-adv-x="634" 
d="M57 -440q123 156 199.5 322.5t112.5 343t36 362.5t-36 362.5t-112.5 343t-199.5 322.5h101q178 -224 259.5 -484.5t81.5 -543.5t-81.5 -543t-259.5 -485h-101z" />
    <glyph glyph-name="asterisk" unicode="*" horiz-adv-x="880" 
d="M474 1202l133 -154l105 -143l-62 -46l-106 144l-104 174l-104 -174l-106 -144l-62 46l105 143l133 154l-197 46l-179 58l24 72l177 -58l188 -79l-17 203v172h76v-172l-17 -203l188 79l177 58l24 -72l-179 -58z" />
    <glyph glyph-name="plus" unicode="+" horiz-adv-x="1065" 
d="M491 373v347h-328v80h328v347h84v-347h328v-80h-328v-347h-84z" />
    <glyph glyph-name="comma" unicode="," horiz-adv-x="419" 
d="M152 -304q29 88 45.5 164.5t16.5 153.5l10 -25h-15q-32 0 -53 21t-21 55q0 32 20 52.5t52 20.5q36 0 56.5 -23.5t20.5 -75.5q0 -95 -21.5 -182t-54.5 -161h-56z" />
    <glyph glyph-name="hyphen" unicode="-" horiz-adv-x="808" 
d="M163 520v81h482v-81h-482z" />
    <glyph glyph-name="period" unicode="." horiz-adv-x="419" 
d="M210 -11q-33 0 -54 20t-21 54t21 54.5t54 20.5q32 0 53 -20.5t21 -54.5q0 -33 -21 -53.5t-53 -20.5z" />
    <glyph glyph-name="slash" unicode="/" horiz-adv-x="540" 
d="M0 -240l450 1856h90l-450 -1856h-90z" />
    <glyph glyph-name="zero" unicode="0" horiz-adv-x="1210" 
d="M605 -18q-146 0 -253.5 73t-167 239t-59.5 446t58.5 446t166 239t255.5 73t255.5 -73t166 -239t58.5 -446t-59.5 -446t-167 -239t-253.5 -73zM605 65q117 0 204 60t135 206.5t48 404.5q0 262 -48 410t-135 208.5t-204 60.5t-204 -60t-135 -206.5t-48 -404.5
q0 -262 48 -410t135 -208.5t204 -60.5z" />
    <glyph glyph-name="one" unicode="1" horiz-adv-x="687" 
d="M401 0v1392l34 -6l-412 -300v96l412 302h57v-1484h-91z" />
    <glyph glyph-name="two" unicode="2" horiz-adv-x="948" 
d="M65 0v52l430 587q77 103 123 184.5t66 151.5t20 139q0 162 -85.5 231.5t-251.5 69.5q-87 0 -165.5 -14.5t-153.5 -44.5v85q42 18 94.5 31t110 19.5t117.5 6.5q202 0 314 -90.5t112 -288.5q0 -81 -22 -158t-72.5 -166t-136.5 -204l-396 -538l-16 29h726v-82h-814z" />
    <glyph glyph-name="three" unicode="3" horiz-adv-x="979" 
d="M401 -18q-89 0 -177 15t-168 43v83q86 -30 174.5 -45t169.5 -15q204 0 308 85.5t104 247.5q0 152 -97 238t-302 86h-159v81h65q217 0 330.5 85.5t113.5 243.5q0 140 -89 213.5t-259 73.5q-82 0 -161.5 -13.5t-158.5 -42.5v83q46 17 99 29.5t110 18.5t114 6q210 0 323 -96
t113 -270q0 -147 -91 -245.5t-250 -130.5l1 25q190 -23 289.5 -123t99.5 -263q0 -131 -57 -223t-168.5 -141t-276.5 -49z" />
    <glyph glyph-name="four" unicode="4" horiz-adv-x="1140" 
d="M53 377v52l600 1051h96l-601 -1053l-18 30h966v-80h-1043zM791 0v457l15 523h72v-980h-87z" />
    <glyph glyph-name="five" unicode="5" horiz-adv-x="988" 
d="M428 -18q-90 0 -179.5 15t-166.5 44v83q84 -30 172.5 -45.5t173.5 -15.5q205 0 307.5 86.5t102.5 257.5q0 110 -50 182.5t-162.5 112t-299.5 50.5l-185 11l49 717h677v-80h-636l44 34l-44 -642l-64 52l185 -11q202 -12 329.5 -62t187.5 -140t60 -223q0 -207 -128 -316.5
t-373 -109.5z" />
    <glyph glyph-name="six" unicode="6" horiz-adv-x="1107" 
d="M623 -18q-109 0 -198.5 37t-154 120.5t-99.5 219.5t-35 333q0 282 67.5 460t198.5 262t321 84q66 0 133 -9.5t122 -33.5v-84q-56 24 -123.5 34.5t-131.5 10.5q-162 0 -272.5 -71.5t-167 -227.5t-56.5 -407v-22q0 -179 28 -299.5t80.5 -192t126 -103t163.5 -31.5
q93 0 167.5 35.5t118 111.5t43.5 196q0 121 -45.5 198t-128.5 113.5t-195 36.5q-65 0 -136 -16t-136 -52t-110 -93v95q65 69 171.5 107.5t219.5 38.5q134 0 235 -46.5t157.5 -141t56.5 -237.5t-54.5 -238t-149.5 -141.5t-216 -46.5z" />
    <glyph glyph-name="seven" unicode="7" horiz-adv-x="903" 
d="M178 0l575 1430l21 -32h-762v82h832v-52l-571 -1428h-95z" />
    <glyph glyph-name="eight" unicode="8" horiz-adv-x="1210" 
d="M615 -18q-163 0 -276.5 45.5t-172.5 132.5t-59 212q0 148 85.5 254.5t234.5 156.5l83 -37q-150 -43 -230.5 -140t-80.5 -229q0 -153 105.5 -234t311.5 -81q190 0 292 78.5t102 223.5q0 91 -37 153t-123 105.5t-231 77.5q-167 39 -268.5 96.5t-147 138t-45.5 189.5
q0 115 53 198.5t152.5 129.5t238.5 46q210 0 329.5 -99.5t119.5 -272.5q0 -93 -34 -169t-99.5 -133t-160.5 -95l-79 36q151 61 219 144.5t68 212.5q0 145 -96 220.5t-268 75.5t-261.5 -78t-89.5 -213q0 -90 36 -154.5t122 -110.5t235 -81q167 -40 268 -95t146 -132.5
t45 -183.5q0 -118 -57 -205t-166 -135t-264 -48z" />
    <glyph glyph-name="nine" unicode="9" horiz-adv-x="1107" 
d="M484 1498q109 0 198.5 -37t154 -120.5t99.5 -219.5t35 -333q0 -282 -67.5 -460t-198.5 -262t-321 -84q-66 0 -133 9.5t-122 33.5v84q56 -24 123.5 -34.5t131.5 -10.5q162 0 272.5 71.5t167 227.5t56.5 407v22q0 179 -28 299.5t-80.5 192t-126 103t-163.5 31.5
q-93 0 -167.5 -35.5t-118 -111.5t-43.5 -196q0 -121 45.5 -198t128.5 -113.5t195 -36.5q65 0 136 16t136 52t110 93v-95q-65 -69 -171.5 -107.5t-219.5 -38.5q-134 0 -235 46.5t-157.5 141t-56.5 237.5t54.5 238t149.5 141.5t216 46.5z" />
    <glyph glyph-name="colon" unicode=":" horiz-adv-x="419" 
d="M210 -11q-33 0 -54 20t-21 54t21 54.5t54 20.5q32 0 53 -20.5t21 -54.5q0 -33 -21 -53.5t-53 -20.5zM210 943q-33 0 -54 20t-21 54t21 54.5t54 20.5q32 0 53 -20.5t21 -54.5q0 -33 -21 -53.5t-53 -20.5z" />
    <glyph glyph-name="semicolon" unicode=";" horiz-adv-x="419" 
d="M152 -304q29 88 45.5 164.5t16.5 153.5l10 -25h-15q-32 0 -53 21t-21 55q0 32 20 52.5t52 20.5q36 0 56.5 -23.5t20.5 -75.5q0 -95 -21.5 -182t-54.5 -161h-56zM210 943q-33 0 -54 20t-21 54t21 54.5t54 20.5q32 0 53 -20.5t21 -54.5q0 -33 -21 -53.5t-53 -20.5z" />
    <glyph glyph-name="less" unicode="&#x3c;" horiz-adv-x="1065" 
d="M903 395l-740 328v74l740 328v-87l-666 -290v25l666 -291v-87z" />
    <glyph glyph-name="equal" unicode="=" horiz-adv-x="1065" 
d="M163 906v79h740v-79h-740zM163 535v79h740v-79h-740z" />
    <glyph glyph-name="greater" unicode="&#x3e;" horiz-adv-x="1065" 
d="M163 395v87l666 291v-25l-666 290v87l740 -328v-74z" />
    <glyph glyph-name="question" unicode="?" horiz-adv-x="865" 
d="M359 314l-16 425q139 48 219.5 103.5t114.5 125.5t34 162q0 140 -89 213t-260 73q-81 0 -160 -13t-159 -43v84q46 17 99 29.5t110 18.5t114 6q211 0 323.5 -96t112.5 -270q0 -105 -35 -185t-116 -143.5t-220 -119.5l-12 -370h-60zM389 -11q-33 0 -53.5 20.5t-20.5 52.5
q0 34 20.5 54t53.5 20t54 -20t21 -54q0 -32 -20 -52.5t-55 -20.5z" />
    <glyph glyph-name="at" unicode="@" horiz-adv-x="1839" 
d="M967 -460q-276 0 -466 102t-288 318.5t-98 559.5q0 340 95.5 556.5t276.5 319t438 102.5q260 0 438 -99.5t269.5 -304t91.5 -519.5q0 -214 -43 -344t-114 -188.5t-158 -58.5q-85 0 -135.5 39t-67.5 103h-9q-56 -67 -142.5 -104.5t-186.5 -37.5q-146 0 -231.5 74.5
t-85.5 211.5q0 136 86.5 212t271.5 97l328 39l3 -75l-329 -39q-139 -17 -202 -71.5t-63 -154.5q0 -105 59 -160t175 -55q84 0 168 37.5t149 124.5v516q0 109 -34 168t-99 82.5t-158 23.5q-59 0 -134.5 -11.5t-153.5 -39.5v83q64 24 143.5 36.5t149.5 12.5q120 0 203.5 -33
t127.5 -110.5t44 -212.5v-507q0 -92 32.5 -132.5t99.5 -40.5q58 0 109.5 48t83 158.5t31.5 299.5q0 226 -45.5 388t-136.5 265t-224.5 152t-310.5 49q-173 0 -308 -50.5t-227.5 -158t-140 -277.5t-47.5 -410q0 -245 48.5 -417.5t145 -280t239.5 -158t332 -50.5
q96 0 185 14.5t186 43.5v-80q-81 -26 -176 -41t-195 -15z" />
    <glyph glyph-name="A" unicode="A" horiz-adv-x="1301" 
d="M35 0l556 1480h119l556 -1480h-96l-533 1431h25l-533 -1431h-94zM289 517l25 82h673l24 -82h-722z" />
    <glyph glyph-name="B" unicode="B" horiz-adv-x="1226" 
d="M527 -11q-58 0 -113 2.5t-111 7t-118 11.5v1449q58 11 115.5 19t121.5 12t139 4q190 0 309.5 -42t175.5 -128t56 -216q0 -87 -31 -161t-101 -124t-187 -67l3 15q188 -20 273.5 -121t85.5 -253q0 -100 -34.5 -176.5t-108 -127.5t-191 -77.5t-284.5 -26.5zM536 70
q195 0 308.5 36t162 109t48.5 183q0 164 -104 243t-325 79h-369v81h342q148 0 239 34t133 102t42 169q0 165 -103 236.5t-346 71.5q-92 0 -160 -6t-129 -17v-1305q62 -9 125 -12.5t136 -3.5z" />
    <glyph glyph-name="C" unicode="C" horiz-adv-x="1113" 
d="M740 -18q-140 0 -254.5 39t-197.5 127t-128 233t-45 357q0 273 77.5 440.5t221 243.5t342.5 76q86 0 164 -11.5t156 -34.5v-85q-82 26 -161 37t-161 11q-173 0 -294.5 -64.5t-185.5 -212t-64 -396.5q0 -259 66 -406.5t185 -209t282 -61.5q84 0 162.5 13.5t170.5 45.5v-85
q-75 -27 -158.5 -42t-177.5 -15z" />
    <glyph glyph-name="D" unicode="D" horiz-adv-x="1357" 
d="M511 -10q-54 0 -104 2t-103.5 6t-118.5 12v1450q56 11 115.5 18.5t119 11.5t115.5 4q350 0 528 -185.5t178 -568.5q0 -260 -82 -425.5t-245 -245t-403 -79.5zM520 73q209 0 348.5 68.5t209 216t69.5 382.5q0 233 -67.5 381.5t-204 219t-342.5 70.5q-61 0 -125 -5.5
t-133 -15.5v-1302q56 -8 114 -11.5t131 -3.5z" />
    <glyph glyph-name="E" unicode="E" horiz-adv-x="1127" 
d="M185 0v1480h861v-83h-771v-1314h781v-83h-871zM247 719v83h703v-83h-703z" />
    <glyph glyph-name="F" unicode="F" horiz-adv-x="1086" 
d="M185 0v1480h852v-83h-762v-1397h-90zM258 716v83h683v-83h-683z" />
    <glyph glyph-name="G" unicode="G" horiz-adv-x="1312" 
d="M836 -11q-236 0 -396 77.5t-242.5 242.5t-82.5 429q0 275 85 441.5t237 242.5t353 76q83 0 165 -11.5t165 -34.5v-85q-95 27 -174.5 37.5t-154.5 10.5q-174 0 -304.5 -64.5t-203.5 -212.5t-73 -399q0 -239 70 -385.5t208.5 -213.5t345.5 -67q76 0 139.5 6t120.5 17
l-32 -42v666h88v-703q-93 -16 -165 -22t-149 -6z" />
    <glyph glyph-name="H" unicode="H" horiz-adv-x="1409" 
d="M185 0v1480h90v-677h859v677h90v-1480h-90v718h-859v-718h-90z" />
    <glyph glyph-name="I" unicode="I" horiz-adv-x="460" 
d="M185 0v1480h90v-1480h-90z" />
    <glyph glyph-name="J" unicode="J" horiz-adv-x="460" 
d="M60 -341l-63 44q65 91 107 176.5t61.5 183t19.5 224.5v1193h90v-1223q0 -121 -22.5 -219t-70 -188.5t-122.5 -190.5z" />
    <glyph glyph-name="K" unicode="K" horiz-adv-x="1196" 
d="M1101 0l-611 758l571 722h106l-583 -733v29l625 -776h-108zM185 0v1480h90v-1480h-90zM257 718v84h284v-84h-284z" />
    <glyph glyph-name="L" unicode="L" horiz-adv-x="1037" 
d="M185 0v1480h90v-1396h750v-84h-840z" />
    <glyph glyph-name="M" unicode="M" horiz-adv-x="1708" 
d="M189 0v1480h103l581 -1225h-33l576 1225h103v-1480h-87v1402h39l-571 -1201h-92l-574 1201h42v-1402h-87z" />
    <glyph glyph-name="N" unicode="N" horiz-adv-x="1437" 
d="M185 0v1480h97l916 -1390h-33v1390h87v-1480h-97l-916 1390h33v-1390h-87z" />
    <glyph glyph-name="O" unicode="O" horiz-adv-x="1385" 
d="M692 -18q-173 0 -302.5 76.5t-202 243.5t-72.5 438t73 438t203 243.5t301 76.5q173 0 303 -76.5t202.5 -243.5t72.5 -438t-73 -438t-203 -243.5t-302 -76.5zM692 66q145 0 253.5 63.5t169 210.5t60.5 396q0 253 -60.5 401.5t-169.5 212.5t-253 64t-252.5 -63.5
t-169 -210.5t-60.5 -396q0 -253 60.5 -401.5t169 -212.5t252.5 -64z" />
    <glyph glyph-name="P" unicode="P" horiz-adv-x="1195" 
d="M185 0v1460q87 17 171.5 25.5t177.5 8.5q277 0 421 -118.5t144 -372.5q0 -239 -144.5 -366t-462.5 -127q-57 0 -108 3t-109 8v-521h-90zM495 592q271 0 391 102t120 306q0 216 -116.5 314.5t-352.5 98.5q-74 0 -138 -5.5t-124 -15.5v-787q54 -7 107 -10t113 -3z" />
    <glyph glyph-name="Q" unicode="Q" horiz-adv-x="1385" 
d="M1230 -192q-258 28 -446.5 74.5t-317.5 118.5t-206 174.5t-111 242t-34 321.5q0 272 73 439t203 243.5t301 76.5q172 0 302 -75t203 -242t73 -441q0 -247 -63.5 -414t-188 -252.5t-307.5 -85.5q-26 0 -52 1.5t-53 4.5l4 29q85 -38 191.5 -64t220.5 -43t221 -26zM692 66
q145 0 253.5 63.5t169 210.5t60.5 396q0 253 -60.5 401.5t-169.5 212.5t-253 64t-252.5 -63.5t-169 -210.5t-60.5 -396q0 -253 60.5 -401.5t169 -212.5t252.5 -64z" />
    <glyph glyph-name="R" unicode="R" horiz-adv-x="1276" 
d="M185 0v1460q52 9 107.5 17t119 12.5t137.5 4.5q281 0 416 -102t135 -320q0 -143 -66.5 -238.5t-199.5 -143.5t-333 -48q-69 0 -120.5 2.5t-105.5 6.5v-651h-90zM1100 0l-542 701h108l545 -701h-111zM500 722q272 0 391.5 86.5t119.5 261.5q0 123 -47.5 198.5t-149.5 110
t-265 34.5q-86 0 -148 -6t-126 -17v-658q42 -4 76 -6t68.5 -3t80.5 -1z" />
    <glyph glyph-name="S" unicode="S" horiz-adv-x="1022" 
d="M444 -18q-80 0 -170 14t-174 43v85q62 -21 122 -34t116.5 -19t108.5 -6q199 0 299 80t100 235q0 132 -76 201.5t-252 114.5l-66 17q-186 49 -278 143.5t-92 250.5q0 181 123.5 286t364.5 105q79 0 160.5 -11t149.5 -34v-85q-77 25 -155 36t-157 11q-132 0 -219 -35
t-130 -103t-43 -165q0 -128 70 -198t239 -115l66 -17q134 -34 220 -87t127.5 -129.5t41.5 -180.5q0 -130 -58 -220t-169 -136.5t-269 -46.5z" />
    <glyph glyph-name="T" unicode="T" horiz-adv-x="1127" 
d="M518 0v1396h-504v84h1099v-84h-504v-1396h-91z" />
    <glyph glyph-name="U" unicode="U" horiz-adv-x="1383" 
d="M693 -18q-178 0 -292 58.5t-169 181.5t-55 314v944h90v-956q0 -237 102 -348t324 -111t323.5 111t101.5 348v956h87v-944q0 -191 -54.5 -314t-168 -181.5t-289.5 -58.5z" />
    <glyph glyph-name="V" unicode="V" horiz-adv-x="1262" 
d="M567 0l-551 1480h97l531 -1432h-21l531 1432h92l-551 -1480h-128z" />
    <glyph glyph-name="W" unicode="W" horiz-adv-x="2043" 
d="M495 0l-429 1480h95l409 -1431h-22l416 1431h117l417 -1431h-21l410 1431h90l-429 -1480h-122l-415 1419h23l-417 -1419h-122z" />
    <glyph glyph-name="X" unicode="X" horiz-adv-x="1235" 
d="M1095 0l-479 675l-53 74l-522 731h109l468 -657l53 -73l534 -750h-110zM29 0l534 749l55 74l468 657h106l-521 -730l-55 -75l-479 -675h-108z" />
    <glyph glyph-name="Y" unicode="Y" horiz-adv-x="1127" 
d="M519 0v711l22 -70l-563 839h106l501 -751h-39l494 751h101l-554 -839l22 70v-711h-90z" />
    <glyph glyph-name="Z" unicode="Z" horiz-adv-x="1115" 
d="M63 0v52l873 1374l13 -28h-874v82h965v-52l-873 -1374l-13 28h898v-82h-989z" />
    <glyph glyph-name="bracketleft" unicode="[" horiz-adv-x="634" 
d="M205 -440v2056h468v-80h-378v-1896h377v-80h-467z" />
    <glyph glyph-name="backslash" unicode="\" horiz-adv-x="544" 
d="M452 -240l-452 1856h92l452 -1856h-92z" />
    <glyph glyph-name="bracketright" unicode="]" horiz-adv-x="634" 
d="M-39 -440v80h378v1896h-378v80h468v-2056h-468z" />
    <glyph glyph-name="asciicircum" unicode="^" horiz-adv-x="1113" 
d="M110 740l390 740h112l392 -740h-99l-358 686h19l-357 -686h-99z" />
    <glyph glyph-name="underscore" unicode="_" horiz-adv-x="1084" 
d="M94 -80v80h895v-80h-895z" />
    <glyph glyph-name="grave" unicode="`" horiz-adv-x="1012" 
d="M558 1261l-226 355h100l210 -355h-84z" />
    <glyph glyph-name="a" unicode="a" horiz-adv-x="991" 
d="M422 -16q-147 0 -232.5 75t-85.5 211t88 212.5t279 97.5l319 37l6 -75l-324 -38q-145 -16 -209 -71.5t-64 -154.5q0 -105 59 -160t175 -55q85 0 168 37.5t149 123.5v516q0 109 -34 169t-99.5 83.5t-160.5 23.5q-61 0 -137 -11.5t-154 -38.5v83q64 23 144 35.5t152 12.5
q121 0 205.5 -33t128.5 -111.5t44 -214.5v-738h-78l-7 126h-9q-54 -67 -139.5 -104.5t-183.5 -37.5z" />
    <glyph glyph-name="b" unicode="b" horiz-adv-x="1085" 
d="M461 -18q-75 0 -151.5 11t-143.5 32v1591h89v-649h7q50 56 128.5 93t179.5 37q112 0 205.5 -50.5t149 -168t55.5 -317.5q0 -297 -133.5 -438t-385.5 -141zM467 63q205 0 312.5 115t107.5 373q0 181 -44 281.5t-119 141t-168 40.5q-86 0 -166.5 -37t-134.5 -115v-770
q41 -12 97 -20.5t115 -8.5z" />
    <glyph glyph-name="c" unicode="c" horiz-adv-x="838" 
d="M547 -18q-141 0 -240 57t-150.5 180t-51.5 321q0 199 55.5 321.5t164 179t266.5 56.5q52 0 107.5 -7t104.5 -21v-84q-53 15 -105.5 22.5t-101.5 7.5q-133 0 -221 -45t-132 -148t-44 -278q0 -177 40.5 -282.5t120.5 -151.5t197 -46q53 0 113 11.5t133 36.5v-84
q-64 -23 -128.5 -34.5t-127.5 -11.5z" />
    <glyph glyph-name="d" unicode="d" horiz-adv-x="1085" 
d="M523 -18q-118 0 -212.5 52t-150 169.5t-55.5 315.5q0 197 60 325.5t177 190.5t288 62q52 0 104 -4.5t95 -12.5v536h90v-1616h-78l-7 119h-9q-49 -60 -126.5 -98.5t-175.5 -38.5zM533 65q84 0 163.5 38.5t132.5 121.5v769q-40 10 -94.5 16t-106.5 6q-213 0 -321.5 -114.5
t-108.5 -373.5q0 -179 43 -279.5t118.5 -142t173.5 -41.5z" />
    <glyph glyph-name="e" unicode="e" horiz-adv-x="995" 
d="M580 -18q-152 0 -258.5 56.5t-161.5 179.5t-55 323q0 195 51 318t142.5 180.5t214.5 57.5t211 -57.5t135.5 -180.5t47.5 -319v-35h-757v76h695l-29 -25q0 171 -36 272.5t-104 146.5t-163 45q-96 0 -166.5 -44.5t-109.5 -146t-39 -273.5v-25q0 -171 45 -274t132 -148.5
t213 -45.5q61 0 126 12t142 36v-83q-74 -24 -141.5 -35t-134.5 -11z" />
    <glyph glyph-name="f" unicode="f" horiz-adv-x="679" 
d="M232 0v1283q0 118 39.5 196t117.5 117.5t194 39.5q34 0 71 -3t71 -9v-84q-35 7 -70 10.5t-71 3.5q-131 0 -196.5 -60.5t-65.5 -206.5v-1287h-90zM16 1001v80h670v-80h-670z" />
    <glyph glyph-name="g" unicode="g" horiz-adv-x="1085" 
d="M470 -460q-69 0 -151 13t-148 37v84q81 -27 154.5 -40t143.5 -13q182 0 271 82.5t89 289.5v120h-6q-50 -55 -128 -92.5t-180 -37.5q-112 0 -205.5 51t-149 168t-55.5 317q0 296 133.5 437t384.5 141q51 0 102.5 -5t101 -15t92.5 -23v-1051q0 -250 -113 -356.5
t-336 -106.5zM529 66q85 0 166 37.5t134 114.5v772q-40 11 -95.5 18.5t-116.5 7.5q-204 0 -311.5 -114.5t-107.5 -373.5q0 -180 44 -280.5t119 -141t168 -40.5z" />
    <glyph glyph-name="h" unicode="h" horiz-adv-x="1099" 
d="M166 0v1616h89v-660h7q70 71 160 106t189 35q98 0 174 -34.5t119 -114t43 -214.5v-734h-90v733q0 158 -71 218t-188 60q-57 0 -119 -16t-120.5 -53.5t-103.5 -98.5v-843h-89z" />
    <glyph glyph-name="i" unicode="i" horiz-adv-x="421" 
d="M166 0v1081h89v-1081h-89zM210 1351q-33 0 -53.5 19t-20.5 52t20.5 53t53.5 20t53.5 -20t20.5 -53t-20.5 -52t-53.5 -19z" />
    <glyph glyph-name="j" unicode="j" horiz-adv-x="421" 
d="M40 -461l-62 44q65 90 106.5 179t61.5 187.5t20 217.5v914h89v-907q0 -130 -22.5 -236t-70 -202.5t-122.5 -196.5zM210 1357q-33 0 -53.5 19t-20.5 52t20.5 53t53.5 20t53.5 -20t20.5 -53t-20.5 -52t-53.5 -19z" />
    <glyph glyph-name="k" unicode="k" horiz-adv-x="976" 
d="M885 0l-457 553l426 528h106l-434 -541v27l467 -567h-108zM238 513v80h239v-80h-239zM166 0v1616h89v-1616h-89z" />
    <glyph glyph-name="l" unicode="l" horiz-adv-x="421" 
d="M166 0v1616h89v-1616h-89z" />
    <glyph glyph-name="m" unicode="m" horiz-adv-x="1647" 
d="M166 0v1081h77l7 -128h9q64 73 146 108.5t171 35.5q88 0 156 -34.5t107 -114t39 -213.5v-735h-89v732q0 158 -63.5 219.5t-165.5 61.5q-49 0 -104.5 -17t-107.5 -55.5t-93 -102.5v-838h-89zM1405 0v732q0 158 -65.5 219.5t-167.5 61.5q-50 0 -109.5 -18t-115.5 -62.5
t-98 -122.5l-29 95q81 109 178.5 150.5t185.5 41.5q89 0 159.5 -34.5t111 -114t40.5 -214.5v-734h-90z" />
    <glyph glyph-name="n" unicode="n" horiz-adv-x="1099" 
d="M166 0v1081h77l7 -127h9q69 69 159.5 106t189.5 37q100 0 176.5 -35t119.5 -114.5t43 -214.5v-733h-90v731q0 158 -70 220t-189 62q-54 0 -116 -16t-121.5 -53t-105.5 -100v-844h-89z" />
    <glyph glyph-name="o" unicode="o" horiz-adv-x="1071" 
d="M535 -18q-129 0 -226 56.5t-150.5 179.5t-53.5 322q0 198 53.5 321t150.5 179.5t226 56.5q130 0 227 -56t150.5 -178.5t53.5 -322.5q0 -197 -54 -320.5t-150.5 -180.5t-226.5 -57zM535 63q103 0 179 44.5t117 148.5t41 282q0 180 -41 284.5t-117 149t-179 44.5
q-102 0 -178 -44t-117.5 -147.5t-41.5 -281.5q0 -180 41.5 -285t117.5 -150t178 -45z" />
    <glyph glyph-name="p" unicode="p" horiz-adv-x="1085" 
d="M166 -440v1521h78l8 -120h7q50 60 128 98t175 38q116 0 211 -50.5t151 -168t56 -317.5q0 -198 -59.5 -326.5t-177 -190.5t-289.5 -62q-51 0 -103 5t-96 11v-438h-89zM457 63q213 0 321.5 115t108.5 373q0 181 -44 281.5t-120 141.5t-172 41q-83 0 -162.5 -38.5
t-133.5 -122.5v-769q41 -10 95.5 -16t106.5 -6z" />
    <glyph glyph-name="q" unicode="q" horiz-adv-x="1085" 
d="M829 -440v552h-6q-50 -56 -128 -93t-180 -37q-113 0 -206 50.5t-148.5 168t-55.5 317.5q0 298 133.5 438.5t384.5 140.5q51 0 102.5 -5t101 -15t92.5 -23v-1494h-90zM529 65q85 0 166 37.5t134 114.5v773q-40 11 -95.5 18.5t-116.5 7.5q-204 0 -311.5 -114.5
t-107.5 -373.5q0 -181 44 -281.5t119 -141t168 -40.5z" />
    <glyph glyph-name="r" unicode="r" horiz-adv-x="685" 
d="M166 0v1081h77l8 -146h8q60 75 148.5 115t180.5 40q24 0 44 -1.5t40 -5.5v-87q-21 3 -41.5 4t-45.5 1q-56 0 -117.5 -19t-117 -58t-95.5 -98v-826h-89z" />
    <glyph glyph-name="s" unicode="s" horiz-adv-x="867" 
d="M396 -18q-76 0 -144 10t-135 31v83q80 -24 146.5 -34t135.5 -10q155 0 227.5 56.5t72.5 159.5q0 89 -45.5 136.5t-152.5 70.5l-133 29q-146 33 -207 104.5t-61 180.5q0 129 96.5 213.5t296.5 84.5q65 0 124 -7t116 -23v-82q-66 18 -121.5 25t-117.5 7
q-110 0 -176.5 -28.5t-96.5 -77t-30 -108.5q0 -78 42 -129t148 -75l133 -28q152 -33 213.5 -103.5t61.5 -183.5q0 -139 -98.5 -220.5t-294.5 -81.5z" />
    <glyph glyph-name="t" unicode="t" horiz-adv-x="707" 
d="M548 -18q-152 0 -238 79t-86 256v764l13 399h77v-1148q0 -147 62.5 -207t182.5 -60q32 0 65.5 4.5t73.5 13.5v-84q-39 -9 -75.5 -13t-74.5 -4zM8 1001v80h670v-80h-670z" />
    <glyph glyph-name="u" unicode="u" horiz-adv-x="1089" 
d="M486 -18q-97 0 -172.5 34.5t-118.5 114.5t-43 214v736h90v-735q0 -157 71 -218.5t183 -61.5q55 0 116.5 17t119 54t102.5 98v846h89v-1081h-77l-8 123h-8q-69 -71 -159 -106t-185 -35z" />
    <glyph glyph-name="v" unicode="v" horiz-adv-x="1010" 
d="M445 0l-422 1081h98l395 -1026h-18l395 1026h94l-422 -1081h-120z" />
    <glyph glyph-name="w" unicode="w" horiz-adv-x="1640" 
d="M396 0l-328 1081h92l304 -1018h-16l315 1018h117l316 -1018h-17l304 1018h89l-326 -1081h-117l-317 1016h17l-317 -1016h-116z" />
    <glyph glyph-name="x" unicode="x" horiz-adv-x="957" 
d="M825 0l-347 476l-54 69l-391 536h109l338 -465l53 -69l401 -547h-109zM26 0l398 545l56 71l339 465h106l-392 -534l-55 -71l-345 -476h-107z" />
    <glyph glyph-name="y" unicode="y" horiz-adv-x="1010" 
d="M300 -440l173 440l25 55l395 1026h94l-594 -1521h-93zM445 0l-422 1081h98l414 -1081h-90z" />
    <glyph glyph-name="z" unicode="z" horiz-adv-x="878" 
d="M61 0v54l648 975v-28h-636v80h736v-54l-647 -975v28h659v-80h-760z" />
    <glyph glyph-name="braceleft" unicode="{" horiz-adv-x="674" 
d="M588 -460q-169 0 -256 82.5t-87 248.5v530q0 97 -45 139.5t-134 42.5h-19v80h19q89 0 134 43t45 138v461q0 166 87 248.5t256 82.5q35 0 68.5 -2.5t56.5 -7.5v-72h-124q-127 0 -190.5 -57.5t-63.5 -186.5v-456q0 -105 -38.5 -162.5t-120.5 -75.5v14q82 -18 120.5 -76
t38.5 -163v-525q0 -128 63.5 -186t190.5 -58h124v-72q-23 -4 -56.5 -7t-68.5 -3z" />
    <glyph glyph-name="bar" unicode="|" horiz-adv-x="457" 
d="M185 -440v2056h87v-2056h-87z" />
    <glyph glyph-name="braceright" unicode="}" horiz-adv-x="674" 
d="M86 -460q-35 0 -68 3t-57 7v72h124q128 0 191 58t63 186v525q0 105 39 163t120 76v-14q-81 18 -120 75.5t-39 162.5v456q0 129 -63 186.5t-191 57.5h-124v72q24 5 57 7.5t68 2.5q170 0 256.5 -82.5t86.5 -248.5v-461q0 -95 45 -138t134 -43h18v-80h-18q-89 0 -134 -42.5
t-45 -139.5v-530q0 -166 -86.5 -248.5t-256.5 -82.5z" />
    <glyph glyph-name="asciitilde" unicode="~" horiz-adv-x="1065" 
d="M707 657q-53 0 -101 20.5t-93 42.5q-40 20 -77.5 36.5t-75.5 16.5q-58 0 -106.5 -27t-90.5 -81v96q70 91 196 91q53 0 101 -20t92 -43q41 -20 78.5 -36.5t74.5 -16.5q58 0 107 27t91 81v-97q-70 -90 -196 -90z" />
    <glyph glyph-name="uni00A0" unicode="&#xa0;" horiz-adv-x="483" 
 />
    <glyph glyph-name="exclamdown" unicode="&#xa1;" horiz-adv-x="459" 
d="M199 751h61l17 -567v-564h-95v564zM230 1092q32 0 53 -19.5t21 -54.5q0 -33 -21 -54t-53 -21q-33 0 -54 21t-21 54q0 35 21 54.5t54 19.5z" />
    <glyph glyph-name="cent" unicode="&#xa2;" horiz-adv-x="843" 
d="M547 -18q-142 0 -240.5 57t-150 180t-51.5 321q0 199 55.5 321.5t164 179t266.5 56.5q54 0 107 -7t105 -21v-84q-54 15 -107 22.5t-104 7.5q-132 0 -219.5 -45t-130.5 -148t-43 -278q0 -177 40.5 -282.5t120.5 -151.5t197 -46q53 0 113 11.5t133 36.5v-84
q-64 -23 -128.5 -34.5t-127.5 -11.5zM503 -240v244h82v-244h-82zM503 1078v243h82v-243h-82z" />
    <glyph glyph-name="sterling" unicode="&#xa3;" horiz-adv-x="1232" 
d="M310 38v1023q0 224 127 330.5t369 106.5q79 0 160 -11t150 -33v-85q-78 24 -155.5 35t-155.5 11q-133 0 -223 -35t-136.5 -112.5t-46.5 -205.5v-1024h-89zM79 0v81h1075v-81h-1075zM79 711v78h865v-78h-865z" />
    <glyph glyph-name="currency" unicode="&#xa4;" horiz-adv-x="1113" 
d="M333 932l-124 95l-103 97l65 64l97 -101l97 -125zM781 932l-33 30l97 125l97 101l65 -64l-103 -97zM941 292l-98 101l-85 112l32 34l114 -86l101 -97zM173 292l-65 64l101 97l114 86l33 -34l-86 -112zM557 408q-95 0 -166 41.5t-110.5 116t-39.5 174.5q0 99 39.5 173.5
t110.5 115.5t166 41q94 0 165 -41t110.5 -115.5t39.5 -173.5q0 -100 -39.5 -174.5t-111 -116t-164.5 -41.5zM557 479q108 0 175.5 68.5t67.5 192.5q0 115 -62 188t-179 73q-110 0 -177.5 -69t-67.5 -192q0 -122 67.5 -191.5t175.5 -69.5z" />
    <glyph glyph-name="yen" unicode="&#xa5;" horiz-adv-x="1176" 
d="M543 0v711l22 -70l-559 839h106l497 -751h-39l498 751h101l-558 -839l22 70v-711h-90zM224 315v75h728v-75h-728zM224 658v75h728v-75h-728z" />
    <glyph glyph-name="brokenbar" unicode="&#xa6;" horiz-adv-x="457" 
d="M185 836v780h87v-780h-87zM185 -440v780h87v-780h-87z" />
    <glyph glyph-name="section" unicode="&#xa7;" horiz-adv-x="973" 
d="M426 -18q-74 0 -142.5 10t-134.5 31v81q80 -24 146 -33.5t134 -9.5q104 0 171 25.5t98.5 73.5t31.5 117q0 89 -45.5 136.5t-151.5 70.5l-137 30q-144 33 -205 104t-61 181q0 70 32.5 129t91.5 99l61 -49q-51 -31 -76 -76t-25 -99q0 -78 44.5 -131t151.5 -77l136 -29
q152 -34 213 -103t61 -179q0 -139 -98.5 -220.5t-295.5 -81.5zM723 453l-63 48q50 29 74.5 73t24.5 103q0 90 -48 139t-155 72l-137 30q-145 33 -206 102.5t-61 177.5q0 86 42.5 153t129.5 106t221 39q65 0 123.5 -7t115.5 -23v-81q-66 18 -120.5 25t-116.5 7
q-110 0 -177 -28.5t-97.5 -77t-30.5 -108.5q0 -78 42 -129t148 -75l137 -29q151 -33 212 -103.5t61 -182.5q0 -74 -31 -132.5t-88 -98.5z" />
    <glyph glyph-name="dieresis" unicode="&#xa8;" horiz-adv-x="1012" 
d="M804 1351q-32 0 -52 19.5t-20 51.5q0 33 20 52.5t52 19.5t51.5 -19.5t19.5 -52.5q0 -32 -19.5 -51.5t-51.5 -19.5zM396 1351q-32 0 -51.5 19.5t-19.5 51.5q0 33 19.5 52.5t51.5 19.5t52 -19.5t20 -52.5q0 -32 -20 -51.5t-52 -19.5z" />
    <glyph glyph-name="copyright" unicode="&#xa9;" horiz-adv-x="1719" 
d="M859 -22q-223 0 -390.5 95t-260.5 266.5t-93 400.5t93 400.5t260.5 266.5t390.5 95q224 0 391.5 -95t260.5 -266.5t93 -400.5t-93 -400.5t-260.5 -266.5t-391.5 -95zM896 324q-174 0 -281 103.5t-107 306.5q0 197 107 303.5t306 106.5q51 0 97.5 -6.5t94.5 -21.5v-77
q-46 14 -91 20.5t-98 6.5q-159 0 -244.5 -80t-85.5 -248q0 -172 83 -254t226 -82q44 0 96.5 8.5t113.5 31.5v-77q-50 -21 -104 -31t-113 -10zM859 55q201 0 351 85t233 239t83 361t-83 361t-233 239t-351 85t-350.5 -85t-233 -239t-83.5 -361t83.5 -361t233 -239t350.5 -85z
" />
    <glyph glyph-name="ordfeminine" unicode="&#xaa;" horiz-adv-x="837" 
d="M351 596q-124 0 -196.5 62.5t-72.5 170.5q0 110 74 172.5t237 78.5l270 29l6 -67l-271 -28q-122 -12 -175.5 -55.5t-53.5 -121.5q0 -81 49.5 -124.5t147.5 -43.5q70 0 138.5 29.5t123.5 95.5v407q0 84 -28.5 131.5t-84.5 66t-137 18.5q-52 0 -115 -10t-128 -32v77
q56 20 122.5 30.5t128.5 10.5q106 0 178.5 -28t110 -92.5t37.5 -177.5v-585h-73l-7 101h-7q-47 -54 -119.5 -84.5t-154.5 -30.5z" />
    <glyph glyph-name="guillemotleft" unicode="&#xab;" horiz-adv-x="911" 
d="M380 139l-256 422l256 421h95l-255 -421l255 -422h-95zM731 139l-256 422l256 421h95l-255 -421l255 -422h-95z" />
    <glyph glyph-name="logicalnot" unicode="&#xac;" horiz-adv-x="1334" 
d="M1098 192v528h-935v80h1019v-608h-84z" />
    <glyph glyph-name="uni00AD" unicode="&#xad;" horiz-adv-x="808" 
d="M163 520v81h482v-81h-482z" />
    <glyph glyph-name="registered" unicode="&#xae;" horiz-adv-x="1531" 
d="M766 268q-181 0 -318.5 77.5t-214.5 216t-77 320.5t77 321t214.5 217t318.5 78t318.5 -78t214.5 -217t77 -321t-77 -320.5t-214.5 -216t-318.5 -77.5zM939 600l-158 232l66 26l175 -258h-83zM766 339q162 0 282.5 67.5t187 189.5t66.5 286t-66.5 286.5t-187 190.5
t-282.5 68q-163 0 -283.5 -68t-186.5 -190.5t-66 -286.5t66 -286t186.5 -189.5t283.5 -67.5zM557 600v592h195q121 0 183 -48.5t62 -136.5t-61 -135.5t-184 -47.5h-123v-224h-72zM629 890h136q160 0 160 117q0 119 -160 119h-136v-236z" />
    <glyph glyph-name="macron" unicode="&#xaf;" horiz-adv-x="1012" 
d="M311 1388v70h578v-70h-578z" />
    <glyph glyph-name="degree" unicode="&#xb0;" horiz-adv-x="983" 
d="M491 825q-98 0 -173.5 43.5t-118.5 119.5t-43 173t43 172.5t118.5 119t173.5 43.5t174 -43.5t119 -119t43 -172.5t-43 -173t-119 -119.5t-174 -43.5zM491 900q114 0 186 70.5t72 190.5t-72.5 190.5t-184.5 70.5q-113 0 -185.5 -70.5t-72.5 -190.5t72.5 -190.5
t184.5 -70.5z" />
    <glyph glyph-name="plusminus" unicode="&#xb1;" horiz-adv-x="1065" 
d="M491 321v345h-328v80h328v346h84v-346h328v-80h-328v-345h-84zM163 0v80h740v-80h-740z" />
    <glyph glyph-name="uni00B2" unicode="&#xb2;" horiz-adv-x="758" 
d="M93 616v47l298 391q78 101 112.5 171t34.5 136q0 103 -59 148t-173 45q-63 0 -118.5 -9.5t-106.5 -30.5v76q46 19 106 28.5t125 9.5q146 0 227 -62t81 -199q0 -81 -37.5 -159.5t-126.5 -192.5l-270 -349l-9 24h490v-74h-574z" />
    <glyph glyph-name="uni00B3" unicode="&#xb3;" horiz-adv-x="758" 
d="M316 604q-62 0 -125 9.5t-119 28.5v75q60 -21 123 -31.5t120 -10.5q140 0 211 55t71 158q0 97 -66 151t-206 54h-118v73h56q147 0 223.5 54t76.5 153q0 90 -61.5 137t-178.5 47q-57 0 -113.5 -9t-111.5 -30v74q47 18 108 27t122 9q152 0 233 -65t81 -185
q0 -98 -62 -162.5t-169 -87.5v16q129 -15 197 -82.5t68 -177.5q0 -133 -91 -206.5t-269 -73.5z" />
    <glyph glyph-name="acute" unicode="&#xb4;" horiz-adv-x="1012" 
d="M558 1261l210 355h100l-226 -355h-84z" />
    <glyph glyph-name="uni00B5" unicode="&#xb5;" horiz-adv-x="1089" 
d="M492 -18q-95 0 -164 34.5t-106.5 114.5t-37.5 214v139h58v-138q0 -157 71 -218.5t183 -61.5q55 0 116.5 17t119 54t102.5 98v846h89v-1081h-77l-8 123h-8q-68 -71 -156 -106t-182 -35zM152 -440v1521h90v-1521h-90z" />
    <glyph glyph-name="paragraph" unicode="&#xb6;" horiz-adv-x="1195" 
d="M717 0v520q-38 -5 -74.5 -7.5t-79.5 -2.5q-243 0 -354.5 127t-111.5 366q0 254 111 372.5t323 118.5q73 0 140.5 -4t127.5 -10v-1480h-82zM929 0v1480h81v-1480h-81z" />
    <glyph glyph-name="periodcentered" unicode="&#xb7;" horiz-adv-x="419" 
d="M210 485q-33 0 -54 20t-21 53q0 34 21 54.5t54 20.5q32 0 53 -20.5t21 -54.5q0 -33 -21 -53t-53 -20z" />
    <glyph glyph-name="cedilla" unicode="&#xb8;" horiz-adv-x="1012" 
d="M607 -404q-42 0 -87 10t-78 27v62q45 -23 86.5 -32t79.5 -9q59 0 88 22.5t29 67.5q0 91 -118 91h-34v185h65v-161l-28 31q87 0 133.5 -39t46.5 -108q0 -68 -48 -107.5t-135 -39.5z" />
    <glyph glyph-name="uni00B9" unicode="&#xb9;" horiz-adv-x="758" 
d="M381 637v915l29 -17l-270 -198v85l270 198h52v-983h-81zM144 616v74h543v-74h-543z" />
    <glyph glyph-name="ordmasculine" unicode="&#xba;" horiz-adv-x="913" 
d="M457 596q-165 0 -267 107t-102 343q0 237 102 342t267 105t266.5 -105t101.5 -342q0 -158 -46.5 -257.5t-129.5 -146t-192 -46.5zM457 672q85 0 148 35.5t97.5 117.5t34.5 221t-34.5 220t-97.5 115.5t-148 34.5q-86 0 -149 -34.5t-97.5 -115.5t-34.5 -220t34.5 -221
t97.5 -117.5t149 -35.5z" />
    <glyph glyph-name="guillemotright" unicode="&#xbb;" horiz-adv-x="911" 
d="M84 139l256 422l-256 421h96l255 -421l-255 -422h-96zM435 139l256 422l-256 421h96l255 -421l-255 -422h-96z" />
    <glyph glyph-name="onequarter" unicode="&#xbc;" horiz-adv-x="1752" 
d="M381 637v915l29 -17l-270 -198v85l270 198h52v-983h-81zM144 616v74h543v-74h-543zM440 -136l788 1752h84l-789 -1752h-83zM1026 111v48l382 705h82l-381 -705l-15 23h632v-71h-700zM1506 -136v318l15 344h61v-662h-76z" />
    <glyph glyph-name="onehalf" unicode="&#xbd;" horiz-adv-x="1752" 
d="M381 637v915l29 -17l-270 -198v85l270 198h52v-983h-81zM144 616v74h543v-74h-543zM440 -136l788 1752h84l-789 -1752h-83zM1087 -136v47l298 391q78 101 112.5 171t34.5 136q0 103 -59 148t-173 45q-63 0 -118.5 -9.5t-106.5 -30.5v76q46 19 106 28.5t125 9.5
q146 0 227.5 -62t80.5 -199q-1 -81 -38 -159.5t-126 -192.5l-270 -349l-9 24h490v-74h-574z" />
    <glyph glyph-name="threequarters" unicode="&#xbe;" horiz-adv-x="1752" 
d="M316 604q-62 0 -125 9.5t-119 28.5v75q60 -21 123 -31.5t120 -10.5q140 0 211 55t71 158q0 97 -66 151t-206 54h-118v73h56q147 0 223.5 54t76.5 153q0 90 -61.5 137t-178.5 47q-57 0 -113.5 -9t-111.5 -30v74q47 18 108 27t122 9q152 0 233 -65t81 -185
q0 -98 -62 -162.5t-169 -87.5v16q129 -15 197 -82.5t68 -177.5q0 -133 -91 -206.5t-269 -73.5zM440 -136l788 1752h84l-789 -1752h-83zM1026 111v48l382 705h82l-381 -705l-15 23h632v-71h-700zM1506 -136v318l15 344h61v-662h-76z" />
    <glyph glyph-name="questiondown" unicode="&#xbf;" horiz-adv-x="865" 
d="M506 767l16 -424q-139 -49 -219.5 -104t-114.5 -123.5t-34 -156.5q0 -132 89 -204.5t260 -72.5q82 0 161 13.5t158 42.5v-84q-46 -17 -99 -29t-110 -18.5t-114 -6.5q-210 0 -323 95t-113 262q0 101 35 179.5t116 141.5t220 119l11 370h61zM476 1092q33 0 53.5 -20.5
t20.5 -52.5q0 -33 -20.5 -53.5t-53.5 -20.5t-54 21t-21 53t20.5 52.5t54.5 20.5z" />
    <glyph glyph-name="Agrave" unicode="&#xc0;" horiz-adv-x="1301" 
d="M35 0l556 1480h119l556 -1480h-96l-533 1431h25l-533 -1431h-94zM289 517l25 82h673l24 -82h-722zM609 1614l-193 275h101l176 -275h-84z" />
    <glyph glyph-name="Aacute" unicode="&#xc1;" horiz-adv-x="1301" 
d="M35 0l556 1480h119l556 -1480h-96l-533 1431h25l-533 -1431h-94zM289 517l25 82h673l24 -82h-722zM609 1614l176 275h101l-193 -275h-84z" />
    <glyph glyph-name="Acircumflex" unicode="&#xc2;" horiz-adv-x="1301" 
d="M35 0l556 1480h119l556 -1480h-96l-533 1431h25l-533 -1431h-94zM289 517l25 82h673l24 -82h-722zM363 1614l242 275h92l242 -275h-95l-207 241h28l-207 -241h-95z" />
    <glyph glyph-name="Atilde" unicode="&#xc3;" horiz-adv-x="1301" 
d="M35 0l556 1480h119l556 -1480h-96l-533 1431h25l-533 -1431h-94zM289 517l25 82h673l24 -82h-722zM797 1690q-44 0 -84 13t-77 28q-33 14 -65.5 24.5t-66.5 10.5q-50 0 -87.5 -17.5t-71.5 -53.5v77q28 31 67.5 46.5t92.5 15.5q44 0 84 -12.5t77 -28.5q33 -13 65.5 -24
t66.5 -11q50 0 88 17.5t71 53.5v-77q-27 -30 -66.5 -46t-93.5 -16z" />
    <glyph glyph-name="Adieresis" unicode="&#xc4;" horiz-adv-x="1301" 
d="M35 0l556 1480h119l556 -1480h-96l-533 1431h25l-533 -1431h-94zM289 517l25 82h673l24 -82h-722zM874 1683q-32 0 -51.5 18.5t-19.5 50.5t19.5 51.5t51.5 19.5t52 -19.5t20 -51.5t-20 -50.5t-52 -18.5zM428 1683q-32 0 -52 18.5t-20 50.5t20 51.5t52 19.5t51.5 -19.5
t19.5 -51.5t-19.5 -50.5t-51.5 -18.5z" />
    <glyph glyph-name="Aring" unicode="&#xc5;" horiz-adv-x="1301" 
d="M35 0l556 1480h119l556 -1480h-96l-533 1431h25l-533 -1431h-94zM289 517l25 82h673l24 -82h-722zM651 1609q-80 0 -133.5 53t-53.5 133q0 81 53.5 133.5t133.5 52.5q81 0 134 -52.5t53 -133.5q0 -80 -53 -133t-134 -53zM651 1666q56 0 91.5 34.5t35.5 94.5t-35.5 94.5
t-91.5 34.5t-91.5 -34.5t-35.5 -94.5t35.5 -94.5t91.5 -34.5z" />
    <glyph glyph-name="AE" unicode="&#xc6;" horiz-adv-x="1777" 
d="M35 0l566 1480h272l-2 -83h-211l-531 -1397h-94zM295 516l24 83h610v-83h-634zM923 0l-95 1480h868v-83h-775l87 -1314h698v-83h-783zM935 719v83h665v-83h-665z" />
    <glyph glyph-name="Ccedilla" unicode="&#xc7;" horiz-adv-x="1113" 
d="M740 -18q-140 0 -254.5 39t-197.5 127t-128 233t-45 357q0 273 77.5 440.5t221 243.5t342.5 76q86 0 164 -11.5t156 -34.5v-85q-82 26 -161 37t-161 11q-173 0 -294.5 -64.5t-185.5 -212t-64 -396.5q0 -259 66 -406.5t185 -209t282 -61.5q84 0 162.5 13.5t170.5 45.5v-85
q-75 -27 -158.5 -42t-177.5 -15zM709 -404q-47 0 -96.5 10t-91.5 29v62q55 -24 99 -33.5t88 -9.5q62 0 97.5 21.5t35.5 69.5q0 47 -35.5 68.5t-99.5 21.5h-39v185h64v-161l-18 32q87 0 140.5 -37t53.5 -110t-54 -110.5t-144 -37.5z" />
    <glyph glyph-name="Egrave" unicode="&#xc8;" horiz-adv-x="1127" 
d="M185 0v1480h861v-83h-771v-1314h781v-83h-871zM247 719v83h703v-83h-703zM596 1614l-193 275h101l176 -275h-84z" />
    <glyph glyph-name="Eacute" unicode="&#xc9;" horiz-adv-x="1127" 
d="M185 0v1480h861v-83h-771v-1314h781v-83h-871zM247 719v83h703v-83h-703zM596 1614l176 275h101l-193 -275h-84z" />
    <glyph glyph-name="Ecircumflex" unicode="&#xca;" horiz-adv-x="1127" 
d="M185 0v1480h861v-83h-771v-1314h781v-83h-871zM247 719v83h703v-83h-703zM350 1614l242 275h92l242 -275h-95l-207 241h28l-207 -241h-95z" />
    <glyph glyph-name="Edieresis" unicode="&#xcb;" horiz-adv-x="1127" 
d="M185 0v1480h861v-83h-771v-1314h781v-83h-871zM247 719v83h703v-83h-703zM861 1683q-32 0 -51.5 18.5t-19.5 50.5t19.5 51.5t51.5 19.5t52 -19.5t20 -51.5t-20 -50.5t-52 -18.5zM415 1683q-32 0 -52 18.5t-20 50.5t20 51.5t52 19.5t51.5 -19.5t19.5 -51.5t-19.5 -50.5
t-51.5 -18.5z" />
    <glyph glyph-name="Igrave" unicode="&#xcc;" horiz-adv-x="460" 
d="M185 0v1480h90v-1480h-90zM188 1614l-193 275h101l176 -275h-84z" />
    <glyph glyph-name="Iacute" unicode="&#xcd;" horiz-adv-x="460" 
d="M185 0v1480h90v-1480h-90zM188 1614l176 275h101l-193 -275h-84z" />
    <glyph glyph-name="Icircumflex" unicode="&#xce;" horiz-adv-x="460" 
d="M185 0v1480h90v-1480h-90zM-58 1614l242 275h92l242 -275h-95l-207 241h28l-207 -241h-95z" />
    <glyph glyph-name="Idieresis" unicode="&#xcf;" horiz-adv-x="460" 
d="M185 0v1480h90v-1480h-90zM453 1683q-32 0 -51.5 18.5t-19.5 50.5t19.5 51.5t51.5 19.5t52 -19.5t20 -51.5t-20 -50.5t-52 -18.5zM7 1683q-32 0 -52 18.5t-20 50.5t20 51.5t52 19.5t51.5 -19.5t19.5 -51.5t-19.5 -50.5t-51.5 -18.5z" />
    <glyph glyph-name="Eth" unicode="&#xd0;" horiz-adv-x="1357" 
d="M2 726v72h629v-72h-629zM511 -10q-54 0 -104 2t-103.5 6t-118.5 12v1450q56 11 115.5 18.5t119 11.5t115.5 4q350 0 528 -185.5t178 -568.5q0 -260 -82 -425.5t-245 -245t-403 -79.5zM520 73q209 0 348.5 68.5t209 216t69.5 382.5q0 233 -67.5 381.5t-204 219
t-342.5 70.5q-61 0 -125 -5.5t-133 -15.5v-1302q56 -8 114 -11.5t131 -3.5z" />
    <glyph glyph-name="Ntilde" unicode="&#xd1;" horiz-adv-x="1437" 
d="M185 0v1480h97l916 -1390h-33v1390h87v-1480h-97l-916 1390h33v-1390h-87zM865 1690q-44 0 -84 13t-77 28q-33 14 -65.5 24.5t-66.5 10.5q-50 0 -87.5 -17.5t-71.5 -53.5v77q28 31 67.5 46.5t92.5 15.5q44 0 84 -12.5t77 -28.5q33 -13 65.5 -24t66.5 -11q50 0 88 17.5
t71 53.5v-77q-27 -30 -66.5 -46t-93.5 -16z" />
    <glyph glyph-name="Ograve" unicode="&#xd2;" horiz-adv-x="1385" 
d="M692 -18q-173 0 -302.5 76.5t-202 243.5t-72.5 438t73 438t203 243.5t301 76.5q173 0 303 -76.5t202.5 -243.5t72.5 -438t-73 -438t-203 -243.5t-302 -76.5zM692 66q145 0 253.5 63.5t169 210.5t60.5 396q0 253 -60.5 401.5t-169.5 212.5t-253 64t-252.5 -63.5
t-169 -210.5t-60.5 -396q0 -253 60.5 -401.5t169 -212.5t252.5 -64zM650 1614l-193 275h101l176 -275h-84z" />
    <glyph glyph-name="Oacute" unicode="&#xd3;" horiz-adv-x="1385" 
d="M692 -18q-173 0 -302.5 76.5t-202 243.5t-72.5 438t73 438t203 243.5t301 76.5q173 0 303 -76.5t202.5 -243.5t72.5 -438t-73 -438t-203 -243.5t-302 -76.5zM692 66q145 0 253.5 63.5t169 210.5t60.5 396q0 253 -60.5 401.5t-169.5 212.5t-253 64t-252.5 -63.5
t-169 -210.5t-60.5 -396q0 -253 60.5 -401.5t169 -212.5t252.5 -64zM650 1614l176 275h101l-193 -275h-84z" />
    <glyph glyph-name="Ocircumflex" unicode="&#xd4;" horiz-adv-x="1385" 
d="M692 -18q-173 0 -302.5 76.5t-202 243.5t-72.5 438t73 438t203 243.5t301 76.5q173 0 303 -76.5t202.5 -243.5t72.5 -438t-73 -438t-203 -243.5t-302 -76.5zM692 66q145 0 253.5 63.5t169 210.5t60.5 396q0 253 -60.5 401.5t-169.5 212.5t-253 64t-252.5 -63.5
t-169 -210.5t-60.5 -396q0 -253 60.5 -401.5t169 -212.5t252.5 -64zM404 1614l242 275h92l242 -275h-95l-207 241h28l-207 -241h-95z" />
    <glyph glyph-name="Otilde" unicode="&#xd5;" horiz-adv-x="1385" 
d="M692 -18q-173 0 -302.5 76.5t-202 243.5t-72.5 438t73 438t203 243.5t301 76.5q173 0 303 -76.5t202.5 -243.5t72.5 -438t-73 -438t-203 -243.5t-302 -76.5zM692 66q145 0 253.5 63.5t169 210.5t60.5 396q0 253 -60.5 401.5t-169.5 212.5t-253 64t-252.5 -63.5
t-169 -210.5t-60.5 -396q0 -253 60.5 -401.5t169 -212.5t252.5 -64zM838 1690q-44 0 -84 13t-77 28q-33 14 -65.5 24.5t-66.5 10.5q-50 0 -87.5 -17.5t-71.5 -53.5v77q28 31 67.5 46.5t92.5 15.5q44 0 84 -12.5t77 -28.5q33 -13 65.5 -24t66.5 -11q50 0 88 17.5t71 53.5v-77
q-27 -30 -66.5 -46t-93.5 -16z" />
    <glyph glyph-name="Odieresis" unicode="&#xd6;" horiz-adv-x="1385" 
d="M692 -18q-173 0 -302.5 76.5t-202 243.5t-72.5 438t73 438t203 243.5t301 76.5q173 0 303 -76.5t202.5 -243.5t72.5 -438t-73 -438t-203 -243.5t-302 -76.5zM692 66q145 0 253.5 63.5t169 210.5t60.5 396q0 253 -60.5 401.5t-169.5 212.5t-253 64t-252.5 -63.5
t-169 -210.5t-60.5 -396q0 -253 60.5 -401.5t169 -212.5t252.5 -64zM915 1683q-32 0 -51.5 18.5t-19.5 50.5t19.5 51.5t51.5 19.5t52 -19.5t20 -51.5t-20 -50.5t-52 -18.5zM469 1683q-32 0 -52 18.5t-20 50.5t20 51.5t52 19.5t51.5 -19.5t19.5 -51.5t-19.5 -50.5
t-51.5 -18.5z" />
    <glyph glyph-name="multiply" unicode="&#xd7;" horiz-adv-x="982" 
d="M187 401l-55 55l304 304l-304 304l55 55l304 -304l304 304l55 -55l-304 -304l304 -304l-55 -55l-304 304z" />
    <glyph glyph-name="Oslash" unicode="&#xd8;" horiz-adv-x="1385" 
d="M198 0h-89l1074 1480h90zM692 -18q-173 0 -302.5 76.5t-202 243.5t-72.5 438t73 438t203 243.5t301 76.5q173 0 303 -76.5t202.5 -243.5t72.5 -438t-73 -438t-203 -243.5t-302 -76.5zM692 66q145 0 253.5 63.5t169 210.5t60.5 396q0 253 -60.5 401.5t-169.5 212.5
t-253 64t-252.5 -63.5t-169 -210.5t-60.5 -396q0 -253 60.5 -401.5t169 -212.5t252.5 -64z" />
    <glyph glyph-name="Ugrave" unicode="&#xd9;" horiz-adv-x="1383" 
d="M693 -18q-178 0 -292 58.5t-169 181.5t-55 314v944h90v-956q0 -237 102 -348t324 -111t323.5 111t101.5 348v956h87v-944q0 -191 -54.5 -314t-168 -181.5t-289.5 -58.5zM651 1614l-193 275h101l176 -275h-84z" />
    <glyph glyph-name="Uacute" unicode="&#xda;" horiz-adv-x="1383" 
d="M693 -18q-178 0 -292 58.5t-169 181.5t-55 314v944h90v-956q0 -237 102 -348t324 -111t323.5 111t101.5 348v956h87v-944q0 -191 -54.5 -314t-168 -181.5t-289.5 -58.5zM651 1614l176 275h101l-193 -275h-84z" />
    <glyph glyph-name="Ucircumflex" unicode="&#xdb;" horiz-adv-x="1383" 
d="M693 -18q-178 0 -292 58.5t-169 181.5t-55 314v944h90v-956q0 -237 102 -348t324 -111t323.5 111t101.5 348v956h87v-944q0 -191 -54.5 -314t-168 -181.5t-289.5 -58.5zM405 1614l242 275h92l242 -275h-95l-207 241h28l-207 -241h-95z" />
    <glyph glyph-name="Udieresis" unicode="&#xdc;" horiz-adv-x="1383" 
d="M693 -18q-178 0 -292 58.5t-169 181.5t-55 314v944h90v-956q0 -237 102 -348t324 -111t323.5 111t101.5 348v956h87v-944q0 -191 -54.5 -314t-168 -181.5t-289.5 -58.5zM916 1683q-32 0 -51.5 18.5t-19.5 50.5t19.5 51.5t51.5 19.5t52 -19.5t20 -51.5t-20 -50.5
t-52 -18.5zM470 1683q-32 0 -52 18.5t-20 50.5t20 51.5t52 19.5t51.5 -19.5t19.5 -51.5t-19.5 -50.5t-51.5 -18.5z" />
    <glyph glyph-name="Yacute" unicode="&#xdd;" horiz-adv-x="1127" 
d="M519 0v711l22 -70l-563 839h106l501 -751h-39l494 751h101l-554 -839l22 70v-711h-90zM522 1614l176 275h101l-193 -275h-84z" />
    <glyph glyph-name="Thorn" unicode="&#xde;" horiz-adv-x="1205" 
d="M185 0v1481h90v-250q51 9 116 15t144 6q276 0 420 -118.5t144 -372.5q0 -239 -144.5 -366t-461.5 -127q-58 0 -109 2.5t-109 8.5v-279h-90zM495 349q271 0 391 102t120 307q0 216 -116.5 314.5t-352.5 98.5q-74 0 -138 -5.5t-124 -15.5v-787q54 -7 107 -10.5t113 -3.5z
" />
    <glyph glyph-name="germandbls" unicode="&#xdf;" horiz-adv-x="1312" 
d="M842 -18q-76 0 -144.5 9.5t-134.5 30.5v82q53 -16 99.5 -25t90.5 -13t90 -4q156 0 228.5 56.5t72.5 159.5q0 89 -45.5 136.5t-151.5 70.5l-134 29q-146 33 -206.5 104t-60.5 180q0 128 96 212.5t295 84.5q19 0 40.5 -1t43.5 -3.5t44 -5.5l-49 -32q8 35 12 73.5t4 73.5
q0 133 -44.5 211t-122.5 112t-175 34q-116 0 -198.5 -41.5t-126 -134t-43.5 -244.5v-1137h-90v1142q0 169 54.5 278t156.5 162.5t245 53.5q120 0 216 -44.5t151.5 -140.5t55.5 -251q0 -49 -7.5 -105t-16.5 -93q-29 7 -62 11t-84 4q-110 0 -177 -28.5t-97.5 -77t-30.5 -108.5
q0 -78 43 -129t148 -75l133 -28q153 -34 214 -104t61 -183q0 -139 -99 -220.5t-294 -81.5zM16 999v82h271v-82h-271z" />
    <glyph glyph-name="agrave" unicode="&#xe0;" horiz-adv-x="991" 
d="M422 -16q-147 0 -232.5 75t-85.5 211t88 212.5t279 97.5l319 37l6 -75l-324 -38q-145 -16 -209 -71.5t-64 -154.5q0 -105 59 -160t175 -55q85 0 168 37.5t149 123.5v516q0 109 -34 169t-99.5 83.5t-160.5 23.5q-61 0 -137 -11.5t-154 -38.5v83q64 23 144 35.5t152 12.5
q121 0 205.5 -33t128.5 -111.5t44 -214.5v-738h-78l-7 126h-9q-54 -67 -139.5 -104.5t-183.5 -37.5zM449 1261l-226 355h100l210 -355h-84z" />
    <glyph glyph-name="aacute" unicode="&#xe1;" horiz-adv-x="991" 
d="M422 -16q-147 0 -232.5 75t-85.5 211t88 212.5t279 97.5l319 37l6 -75l-324 -38q-145 -16 -209 -71.5t-64 -154.5q0 -105 59 -160t175 -55q85 0 168 37.5t149 123.5v516q0 109 -34 169t-99.5 83.5t-160.5 23.5q-61 0 -137 -11.5t-154 -38.5v83q64 23 144 35.5t152 12.5
q121 0 205.5 -33t128.5 -111.5t44 -214.5v-738h-78l-7 126h-9q-54 -67 -139.5 -104.5t-183.5 -37.5zM449 1261l210 355h100l-226 -355h-84z" />
    <glyph glyph-name="acircumflex" unicode="&#xe2;" horiz-adv-x="991" 
d="M422 -16q-147 0 -232.5 75t-85.5 211t88 212.5t279 97.5l319 37l6 -75l-324 -38q-145 -16 -209 -71.5t-64 -154.5q0 -105 59 -160t175 -55q85 0 168 37.5t149 123.5v516q0 109 -34 169t-99.5 83.5t-160.5 23.5q-61 0 -137 -11.5t-154 -38.5v83q64 23 144 35.5t152 12.5
q121 0 205.5 -33t128.5 -111.5t44 -214.5v-738h-78l-7 126h-9q-54 -67 -139.5 -104.5t-183.5 -37.5zM226 1261l219 355h92l219 -355h-84l-195 323h28l-195 -323h-84z" />
    <glyph glyph-name="atilde" unicode="&#xe3;" horiz-adv-x="991" 
d="M422 -16q-147 0 -232.5 75t-85.5 211t88 212.5t279 97.5l319 37l6 -75l-324 -38q-145 -16 -209 -71.5t-64 -154.5q0 -105 59 -160t175 -55q85 0 168 37.5t149 123.5v516q0 109 -34 169t-99.5 83.5t-160.5 23.5q-61 0 -137 -11.5t-154 -38.5v83q64 23 144 35.5t152 12.5
q121 0 205.5 -33t128.5 -111.5t44 -214.5v-738h-78l-7 126h-9q-54 -67 -139.5 -104.5t-183.5 -37.5zM627 1372q-41 0 -78.5 13.5t-72.5 28.5q-31 13 -61 24t-61 11q-45 0 -82 -17.5t-70 -54.5v78q56 63 153 63q41 0 78.5 -13.5t72.5 -28.5q32 -14 62 -25t60 -11
q46 0 82.5 18t69.5 55v-79q-56 -62 -153 -62z" />
    <glyph glyph-name="adieresis" unicode="&#xe4;" horiz-adv-x="991" 
d="M422 -16q-147 0 -232.5 75t-85.5 211t88 212.5t279 97.5l319 37l6 -75l-324 -38q-145 -16 -209 -71.5t-64 -154.5q0 -105 59 -160t175 -55q85 0 168 37.5t149 123.5v516q0 109 -34 169t-99.5 83.5t-160.5 23.5q-61 0 -137 -11.5t-154 -38.5v83q64 23 144 35.5t152 12.5
q121 0 205.5 -33t128.5 -111.5t44 -214.5v-738h-78l-7 126h-9q-54 -67 -139.5 -104.5t-183.5 -37.5zM695 1351q-32 0 -52 19.5t-20 51.5q0 33 20 52.5t52 19.5t51.5 -19.5t19.5 -52.5q0 -32 -19.5 -51.5t-51.5 -19.5zM287 1351q-32 0 -51.5 19.5t-19.5 51.5q0 33 19.5 52.5
t51.5 19.5t52 -19.5t20 -52.5q0 -32 -20 -51.5t-52 -19.5z" />
    <glyph glyph-name="aring" unicode="&#xe5;" horiz-adv-x="991" 
d="M422 -16q-147 0 -232.5 75t-85.5 211t88 212.5t279 97.5l319 37l6 -75l-324 -38q-145 -16 -209 -71.5t-64 -154.5q0 -105 59 -160t175 -55q85 0 168 37.5t149 123.5v516q0 109 -34 169t-99.5 83.5t-160.5 23.5q-61 0 -137 -11.5t-154 -38.5v83q64 23 144 35.5t152 12.5
q121 0 205.5 -33t128.5 -111.5t44 -214.5v-738h-78l-7 126h-9q-54 -67 -139.5 -104.5t-183.5 -37.5zM491 1257q-80 0 -133.5 53t-53.5 133q0 81 53.5 134t133.5 53q81 0 134 -53t53 -134q0 -80 -53 -133t-134 -53zM491 1314q56 0 91.5 35t35.5 94q0 61 -35.5 95t-91.5 34
t-91.5 -34t-35.5 -95q0 -59 35.5 -94t91.5 -35z" />
    <glyph glyph-name="ae" unicode="&#xe6;" horiz-adv-x="1628" 
d="M1217 -18q-150 0 -254 56.5t-158.5 180t-54.5 324.5l10 10q0 191 47.5 311.5t135 177t206.5 56.5q122 0 209 -57t134.5 -180t47.5 -319v-37h-731v76h669l-29 -31q0 176 -36 278.5t-103.5 147.5t-161.5 45t-163.5 -45t-107.5 -146.5t-38 -273.5v-25q0 -171 44.5 -274
t130.5 -148.5t211 -45.5q59 0 124 12t140 36v-83q-73 -24 -140 -35t-132 -11zM426 -16q-98 0 -170 33t-112 97t-40 155t39.5 161.5t127 110.5t231.5 40h281v-75h-282q-113 0 -179 -30t-94.5 -81.5t-28.5 -117.5q0 -105 60.5 -159.5t175.5 -54.5q93 0 188.5 47.5t167.5 172.5
l44 -69q-94 -135 -198.5 -182.5t-210.5 -47.5zM750 543v199q0 109 -34 168.5t-99.5 82.5t-160.5 23q-61 0 -137 -11.5t-154 -38.5v83q64 24 143.5 36t151.5 12q119 0 201.5 -33t125 -111t42.5 -212v-217z" />
    <glyph glyph-name="ccedilla" unicode="&#xe7;" horiz-adv-x="838" 
d="M547 -18q-141 0 -240 57t-150.5 180t-51.5 321q0 199 55.5 321.5t164 179t266.5 56.5q52 0 107.5 -7t104.5 -21v-84q-53 15 -105.5 22.5t-101.5 7.5q-133 0 -221 -45t-132 -148t-44 -278q0 -177 40.5 -282.5t120.5 -151.5t197 -46q53 0 113 11.5t133 36.5v-84
q-64 -23 -128.5 -34.5t-127.5 -11.5zM509 -404q-42 0 -87 10t-78 27v62q45 -23 86.5 -32t79.5 -9q59 0 88 22.5t29 67.5q0 91 -118 91h-34v185h65v-161l-28 31q87 0 133.5 -39t46.5 -108q0 -68 -48 -107.5t-135 -39.5z" />
    <glyph glyph-name="egrave" unicode="&#xe8;" horiz-adv-x="995" 
d="M580 -18q-152 0 -258.5 56.5t-161.5 179.5t-55 323q0 195 51 318t142.5 180.5t214.5 57.5t211 -57.5t135.5 -180.5t47.5 -319v-35h-757v76h695l-29 -25q0 171 -36 272.5t-104 146.5t-163 45q-96 0 -166.5 -44.5t-109.5 -146t-39 -273.5v-25q0 -171 45 -274t132 -148.5
t213 -45.5q61 0 126 12t142 36v-83q-74 -24 -141.5 -35t-134.5 -11zM471 1261l-226 355h100l210 -355h-84z" />
    <glyph glyph-name="eacute" unicode="&#xe9;" horiz-adv-x="995" 
d="M580 -18q-152 0 -258.5 56.5t-161.5 179.5t-55 323q0 195 51 318t142.5 180.5t214.5 57.5t211 -57.5t135.5 -180.5t47.5 -319v-35h-757v76h695l-29 -25q0 171 -36 272.5t-104 146.5t-163 45q-96 0 -166.5 -44.5t-109.5 -146t-39 -273.5v-25q0 -171 45 -274t132 -148.5
t213 -45.5q61 0 126 12t142 36v-83q-74 -24 -141.5 -35t-134.5 -11zM471 1261l210 355h100l-226 -355h-84z" />
    <glyph glyph-name="ecircumflex" unicode="&#xea;" horiz-adv-x="995" 
d="M580 -18q-152 0 -258.5 56.5t-161.5 179.5t-55 323q0 195 51 318t142.5 180.5t214.5 57.5t211 -57.5t135.5 -180.5t47.5 -319v-35h-757v76h695l-29 -25q0 171 -36 272.5t-104 146.5t-163 45q-96 0 -166.5 -44.5t-109.5 -146t-39 -273.5v-25q0 -171 45 -274t132 -148.5
t213 -45.5q61 0 126 12t142 36v-83q-74 -24 -141.5 -35t-134.5 -11zM248 1261l219 355h92l219 -355h-84l-195 323h28l-195 -323h-84z" />
    <glyph glyph-name="edieresis" unicode="&#xeb;" horiz-adv-x="995" 
d="M580 -18q-152 0 -258.5 56.5t-161.5 179.5t-55 323q0 195 51 318t142.5 180.5t214.5 57.5t211 -57.5t135.5 -180.5t47.5 -319v-35h-757v76h695l-29 -25q0 171 -36 272.5t-104 146.5t-163 45q-96 0 -166.5 -44.5t-109.5 -146t-39 -273.5v-25q0 -171 45 -274t132 -148.5
t213 -45.5q61 0 126 12t142 36v-83q-74 -24 -141.5 -35t-134.5 -11zM717 1351q-32 0 -52 19.5t-20 51.5q0 33 20 52.5t52 19.5t51.5 -19.5t19.5 -52.5q0 -32 -19.5 -51.5t-51.5 -19.5zM309 1351q-32 0 -51.5 19.5t-19.5 51.5q0 33 19.5 52.5t51.5 19.5t52 -19.5t20 -52.5
q0 -32 -20 -51.5t-52 -19.5z" />
    <glyph glyph-name="igrave" unicode="&#xec;" horiz-adv-x="421" 
d="M166 0v1081h89v-1081h-89zM168 1261l-226 355h100l210 -355h-84z" />
    <glyph glyph-name="iacute" unicode="&#xed;" horiz-adv-x="421" 
d="M166 0v1081h89v-1081h-89zM168 1261l210 355h100l-226 -355h-84z" />
    <glyph glyph-name="icircumflex" unicode="&#xee;" horiz-adv-x="421" 
d="M166 0v1081h89v-1081h-89zM-55 1261l219 355h92l219 -355h-84l-195 323h28l-195 -323h-84z" />
    <glyph glyph-name="idieresis" unicode="&#xef;" horiz-adv-x="421" 
d="M166 0v1081h89v-1081h-89zM414 1351q-32 0 -52 19.5t-20 51.5q0 33 20 52.5t52 19.5t51.5 -19.5t19.5 -52.5q0 -32 -19.5 -51.5t-51.5 -19.5zM6 1351q-32 0 -51.5 19.5t-19.5 51.5q0 33 19.5 52.5t51.5 19.5t52 -19.5t20 -52.5q0 -32 -20 -51.5t-52 -19.5z" />
    <glyph glyph-name="eth" unicode="&#xf0;" horiz-adv-x="1071" 
d="M537 -18q-130 0 -227 56.5t-151 179.5t-54 322q0 198 53.5 321t150 179.5t224.5 56.5q100 0 186.5 -41.5t146.5 -157.5l-48 39q-37 120 -98.5 238t-155.5 229t-229 212h120q106 -77 198.5 -192.5t162.5 -254.5t109 -291t39 -305q0 -207 -53 -337.5t-149 -192t-225 -61.5z
M537 63q101 0 176.5 48t117 152t41.5 274q0 181 -41 285.5t-117 149t-179 44.5q-102 0 -178 -44t-117.5 -147.5t-41.5 -281.5q0 -180 41.5 -285t118 -150t179.5 -45zM212 1242l-12 68l731 120l11 -68z" />
    <glyph glyph-name="ntilde" unicode="&#xf1;" horiz-adv-x="1099" 
d="M166 0v1081h77l7 -127h9q69 69 159.5 106t189.5 37q100 0 176.5 -35t119.5 -114.5t43 -214.5v-733h-90v731q0 158 -70 220t-189 62q-54 0 -116 -16t-121.5 -53t-105.5 -100v-844h-89zM693 1372q-41 0 -78.5 13.5t-72.5 28.5q-31 13 -61 24t-61 11q-45 0 -82 -17.5
t-70 -54.5v78q56 63 153 63q41 0 78.5 -13.5t72.5 -28.5q32 -14 62 -25t60 -11q46 0 82.5 18t69.5 55v-79q-56 -62 -153 -62z" />
    <glyph glyph-name="ograve" unicode="&#xf2;" horiz-adv-x="1071" 
d="M535 -18q-129 0 -226 56.5t-150.5 179.5t-53.5 322q0 198 53.5 321t150.5 179.5t226 56.5q130 0 227 -56t150.5 -178.5t53.5 -322.5q0 -197 -54 -320.5t-150.5 -180.5t-226.5 -57zM535 63q103 0 179 44.5t117 148.5t41 282q0 180 -41 284.5t-117 149t-179 44.5
q-102 0 -178 -44t-117.5 -147.5t-41.5 -281.5q0 -180 41.5 -285t117.5 -150t178 -45zM493 1261l-226 355h100l210 -355h-84z" />
    <glyph glyph-name="oacute" unicode="&#xf3;" horiz-adv-x="1071" 
d="M535 -18q-129 0 -226 56.5t-150.5 179.5t-53.5 322q0 198 53.5 321t150.5 179.5t226 56.5q130 0 227 -56t150.5 -178.5t53.5 -322.5q0 -197 -54 -320.5t-150.5 -180.5t-226.5 -57zM535 63q103 0 179 44.5t117 148.5t41 282q0 180 -41 284.5t-117 149t-179 44.5
q-102 0 -178 -44t-117.5 -147.5t-41.5 -281.5q0 -180 41.5 -285t117.5 -150t178 -45zM493 1261l210 355h100l-226 -355h-84z" />
    <glyph glyph-name="ocircumflex" unicode="&#xf4;" horiz-adv-x="1071" 
d="M535 -18q-129 0 -226 56.5t-150.5 179.5t-53.5 322q0 198 53.5 321t150.5 179.5t226 56.5q130 0 227 -56t150.5 -178.5t53.5 -322.5q0 -197 -54 -320.5t-150.5 -180.5t-226.5 -57zM535 63q103 0 179 44.5t117 148.5t41 282q0 180 -41 284.5t-117 149t-179 44.5
q-102 0 -178 -44t-117.5 -147.5t-41.5 -281.5q0 -180 41.5 -285t117.5 -150t178 -45zM270 1261l219 355h92l219 -355h-84l-195 323h28l-195 -323h-84z" />
    <glyph glyph-name="otilde" unicode="&#xf5;" horiz-adv-x="1071" 
d="M535 -18q-129 0 -226 56.5t-150.5 179.5t-53.5 322q0 198 53.5 321t150.5 179.5t226 56.5q130 0 227 -56t150.5 -178.5t53.5 -322.5q0 -197 -54 -320.5t-150.5 -180.5t-226.5 -57zM535 63q103 0 179 44.5t117 148.5t41 282q0 180 -41 284.5t-117 149t-179 44.5
q-102 0 -178 -44t-117.5 -147.5t-41.5 -281.5q0 -180 41.5 -285t117.5 -150t178 -45zM671 1372q-41 0 -78.5 13.5t-72.5 28.5q-31 13 -61 24t-61 11q-45 0 -82 -17.5t-70 -54.5v78q56 63 153 63q41 0 78.5 -13.5t72.5 -28.5q32 -14 62 -25t60 -11q46 0 82.5 18t69.5 55v-79
q-56 -62 -153 -62z" />
    <glyph glyph-name="odieresis" unicode="&#xf6;" horiz-adv-x="1071" 
d="M535 -18q-129 0 -226 56.5t-150.5 179.5t-53.5 322q0 198 53.5 321t150.5 179.5t226 56.5q130 0 227 -56t150.5 -178.5t53.5 -322.5q0 -197 -54 -320.5t-150.5 -180.5t-226.5 -57zM535 63q103 0 179 44.5t117 148.5t41 282q0 180 -41 284.5t-117 149t-179 44.5
q-102 0 -178 -44t-117.5 -147.5t-41.5 -281.5q0 -180 41.5 -285t117.5 -150t178 -45zM739 1351q-32 0 -52 19.5t-20 51.5q0 33 20 52.5t52 19.5t51.5 -19.5t19.5 -52.5q0 -32 -19.5 -51.5t-51.5 -19.5zM331 1351q-32 0 -51.5 19.5t-19.5 51.5q0 33 19.5 52.5t51.5 19.5
t52 -19.5t20 -52.5q0 -32 -20 -51.5t-52 -19.5z" />
    <glyph glyph-name="divide" unicode="&#xf7;" horiz-adv-x="1065" 
d="M163 720v80h740v-80h-740zM533 352q-32 0 -52.5 19.5t-20.5 52.5t20 53t53 20q32 0 52.5 -20t20.5 -53t-20.5 -52.5t-52.5 -19.5zM533 1023q-32 0 -52.5 19.5t-20.5 52.5t20 53t53 20q32 0 52.5 -20t20.5 -53t-20.5 -52.5t-52.5 -19.5z" />
    <glyph glyph-name="oslash" unicode="&#xf8;" horiz-adv-x="1071" 
d="M865 944q48 -67 74.5 -167t26.5 -237q0 -197 -54 -320.5t-150.5 -180.5t-226.5 -57q-84 0 -155.5 24t-125.5 76l-59 -83h-88l98 138q-48 68 -74 167.5t-26 235.5q0 198 53.5 321t150.5 179.5t226 56.5q85 0 156 -23.5t125 -75.5l59 85h88zM535 1017q-103 0 -179 -44.5
t-117.5 -148t-41.5 -281.5q0 -109 17 -190.5t48 -136.5l505 711q-43 48 -102 69t-130 21zM535 63q103 0 179 44.5t117.5 148.5t41.5 282q0 110 -16.5 191t-48.5 137l-504 -712q43 -49 101.5 -70t129.5 -21z" />
    <glyph glyph-name="ugrave" unicode="&#xf9;" horiz-adv-x="1089" 
d="M486 -18q-97 0 -172.5 34.5t-118.5 114.5t-43 214v736h90v-735q0 -157 71 -218.5t183 -61.5q55 0 116.5 17t119 54t102.5 98v846h89v-1081h-77l-8 123h-8q-69 -71 -159 -106t-185 -35zM496 1261l-226 355h100l210 -355h-84z" />
    <glyph glyph-name="uacute" unicode="&#xfa;" horiz-adv-x="1089" 
d="M486 -18q-97 0 -172.5 34.5t-118.5 114.5t-43 214v736h90v-735q0 -157 71 -218.5t183 -61.5q55 0 116.5 17t119 54t102.5 98v846h89v-1081h-77l-8 123h-8q-69 -71 -159 -106t-185 -35zM496 1261l210 355h100l-226 -355h-84z" />
    <glyph glyph-name="ucircumflex" unicode="&#xfb;" horiz-adv-x="1089" 
d="M486 -18q-97 0 -172.5 34.5t-118.5 114.5t-43 214v736h90v-735q0 -157 71 -218.5t183 -61.5q55 0 116.5 17t119 54t102.5 98v846h89v-1081h-77l-8 123h-8q-69 -71 -159 -106t-185 -35zM273 1261l219 355h92l219 -355h-84l-195 323h28l-195 -323h-84z" />
    <glyph glyph-name="udieresis" unicode="&#xfc;" horiz-adv-x="1089" 
d="M486 -18q-97 0 -172.5 34.5t-118.5 114.5t-43 214v736h90v-735q0 -157 71 -218.5t183 -61.5q55 0 116.5 17t119 54t102.5 98v846h89v-1081h-77l-8 123h-8q-69 -71 -159 -106t-185 -35zM742 1351q-32 0 -52 19.5t-20 51.5q0 33 20 52.5t52 19.5t51.5 -19.5t19.5 -52.5
q0 -32 -19.5 -51.5t-51.5 -19.5zM334 1351q-32 0 -51.5 19.5t-19.5 51.5q0 33 19.5 52.5t51.5 19.5t52 -19.5t20 -52.5q0 -32 -20 -51.5t-52 -19.5z" />
    <glyph glyph-name="yacute" unicode="&#xfd;" horiz-adv-x="1010" 
d="M300 -440l173 440l25 55l395 1026h94l-594 -1521h-93zM445 0l-422 1081h98l414 -1081h-90zM464 1261l210 355h100l-226 -355h-84z" />
    <glyph glyph-name="thorn" unicode="&#xfe;" horiz-adv-x="1085" 
d="M166 -440v2056h89v-651h7q51 58 129 95t180 37q112 0 205 -50.5t148.5 -168t55.5 -317.5q0 -198 -59.5 -326.5t-177 -190.5t-289.5 -62q-51 0 -103 5t-96 11v-438h-89zM457 63q213 0 321.5 115t108.5 373q0 181 -44 281.5t-119 141t-168 40.5q-84 0 -165.5 -37.5
t-135.5 -119.5v-772q41 -10 95.5 -16t106.5 -6z" />
    <glyph glyph-name="ydieresis" unicode="&#xff;" horiz-adv-x="1010" 
d="M300 -440l173 440l25 55l395 1026h94l-594 -1521h-93zM445 0l-422 1081h98l414 -1081h-90zM710 1351q-32 0 -52 19.5t-20 51.5q0 33 20 52.5t52 19.5t51.5 -19.5t19.5 -52.5q0 -32 -19.5 -51.5t-51.5 -19.5zM302 1351q-32 0 -51.5 19.5t-19.5 51.5q0 33 19.5 52.5
t51.5 19.5t52 -19.5t20 -52.5q0 -32 -20 -51.5t-52 -19.5z" />
    <glyph glyph-name="Amacron" unicode="&#x100;" horiz-adv-x="1301" 
d="M35 0l556 1480h119l556 -1480h-96l-533 1431h25l-533 -1431h-94zM289 517l25 82h673l24 -82h-722zM373 1716v71h556v-71h-556z" />
    <glyph glyph-name="amacron" unicode="&#x101;" horiz-adv-x="991" 
d="M422 -16q-147 0 -232.5 75t-85.5 211t88 212.5t279 97.5l319 37l6 -75l-324 -38q-145 -16 -209 -71.5t-64 -154.5q0 -105 59 -160t175 -55q85 0 168 37.5t149 123.5v516q0 109 -34 169t-99.5 83.5t-160.5 23.5q-61 0 -137 -11.5t-154 -38.5v83q64 23 144 35.5t152 12.5
q121 0 205.5 -33t128.5 -111.5t44 -214.5v-738h-78l-7 126h-9q-54 -67 -139.5 -104.5t-183.5 -37.5zM202 1388v70h578v-70h-578z" />
    <glyph glyph-name="Abreve" unicode="&#x102;" horiz-adv-x="1301" 
d="M35 0l556 1480h119l556 -1480h-96l-533 1431h25l-533 -1431h-94zM289 517l25 82h673l24 -82h-722zM653 1625q-92 0 -155 29.5t-97 83t-41 125.5h70q12 -83 62 -126.5t161 -43.5t160 43.5t59 126.5h70q-7 -73 -40 -126.5t-95 -82.5t-154 -29z" />
    <glyph glyph-name="abreve" unicode="&#x103;" horiz-adv-x="991" 
d="M422 -16q-147 0 -232.5 75t-85.5 211t88 212.5t279 97.5l319 37l6 -75l-324 -38q-145 -16 -209 -71.5t-64 -154.5q0 -105 59 -160t175 -55q85 0 168 37.5t149 123.5v516q0 109 -34 169t-99.5 83.5t-160.5 23.5q-61 0 -137 -11.5t-154 -38.5v83q64 23 144 35.5t152 12.5
q121 0 205.5 -33t128.5 -111.5t44 -214.5v-738h-78l-7 126h-9q-54 -67 -139.5 -104.5t-183.5 -37.5zM493 1273q-125 0 -196 83t-77 232h70q8 -121 56.5 -185t146.5 -64t146 64t53 185h70q-6 -150 -75 -232.5t-194 -82.5z" />
    <glyph glyph-name="Aogonek" unicode="&#x104;" horiz-adv-x="1301" 
d="M35 0l556 1480h119l556 -1480h-96l-533 1431h25l-533 -1431h-94zM289 517l25 82h673l24 -82h-722zM1216 -404q-103 0 -159 45.5t-56 127.5q0 52 22.5 99.5t74 92t137.5 88.5l31 -49q-76 -40 -119.5 -76.5t-61 -73.5t-17.5 -77q0 -58 38 -88t111 -30q39 0 78 9.5t90 30.5
v-60q-42 -19 -84 -29t-85 -10z" />
    <glyph glyph-name="aogonek" unicode="&#x105;" horiz-adv-x="991" 
d="M422 -16q-147 0 -232.5 75t-85.5 211t88 212.5t279 97.5l319 37l6 -75l-324 -38q-145 -16 -209 -71.5t-64 -154.5q0 -105 59 -160t175 -55q85 0 168 37.5t149 123.5v516q0 109 -34 169t-99.5 83.5t-160.5 23.5q-61 0 -137 -11.5t-154 -38.5v83q64 23 144 35.5t152 12.5
q121 0 205.5 -33t128.5 -111.5t44 -214.5v-738l-76 -1l-9 127h-9q-54 -67 -139.5 -104.5t-183.5 -37.5zM789 -404q-92 0 -143.5 46.5t-51.5 126.5q0 53 22.5 100.5t69.5 92t122 87.5l31 -49q-64 -38 -103 -74t-57 -73.5t-18 -79.5q0 -55 34.5 -86.5t94.5 -31.5q38 0 76 11
t75 33v-62q-32 -19 -73 -30t-79 -11z" />
    <glyph glyph-name="Cacute" unicode="&#x106;" horiz-adv-x="1113" 
d="M740 -18q-140 0 -254.5 39t-197.5 127t-128 233t-45 357q0 273 77.5 440.5t221 243.5t342.5 76q86 0 164 -11.5t156 -34.5v-85q-82 26 -161 37t-161 11q-173 0 -294.5 -64.5t-185.5 -212t-64 -396.5q0 -259 66 -406.5t185 -209t282 -61.5q84 0 162.5 13.5t170.5 45.5v-85
q-75 -27 -158.5 -42t-177.5 -15zM639 1614l176 275h101l-193 -275h-84z" />
    <glyph glyph-name="cacute" unicode="&#x107;" horiz-adv-x="838" 
d="M547 -18q-141 0 -240 57t-150.5 180t-51.5 321q0 199 55.5 321.5t164 179t266.5 56.5q52 0 107.5 -7t104.5 -21v-84q-53 15 -105.5 22.5t-101.5 7.5q-133 0 -221 -45t-132 -148t-44 -278q0 -177 40.5 -282.5t120.5 -151.5t197 -46q53 0 113 11.5t133 36.5v-84
q-64 -23 -128.5 -34.5t-127.5 -11.5zM461 1261l210 355h100l-226 -355h-84z" />
    <glyph glyph-name="Ccircumflex" unicode="&#x108;" horiz-adv-x="1113" 
d="M740 -18q-140 0 -254.5 39t-197.5 127t-128 233t-45 357q0 273 77.5 440.5t221 243.5t342.5 76q86 0 164 -11.5t156 -34.5v-85q-82 26 -161 37t-161 11q-173 0 -294.5 -64.5t-185.5 -212t-64 -396.5q0 -259 66 -406.5t185 -209t282 -61.5q84 0 162.5 13.5t170.5 45.5v-85
q-75 -27 -158.5 -42t-177.5 -15zM393 1614l242 275h92l242 -275h-95l-207 241h28l-207 -241h-95z" />
    <glyph glyph-name="ccircumflex" unicode="&#x109;" horiz-adv-x="838" 
d="M547 -18q-141 0 -240 57t-150.5 180t-51.5 321q0 199 55.5 321.5t164 179t266.5 56.5q52 0 107.5 -7t104.5 -21v-84q-53 15 -105.5 22.5t-101.5 7.5q-133 0 -221 -45t-132 -148t-44 -278q0 -177 40.5 -282.5t120.5 -151.5t197 -46q53 0 113 11.5t133 36.5v-84
q-64 -23 -128.5 -34.5t-127.5 -11.5zM238 1261l219 355h92l219 -355h-84l-195 323h28l-195 -323h-84z" />
    <glyph glyph-name="Cdotaccent" unicode="&#x10a;" horiz-adv-x="1113" 
d="M740 -18q-140 0 -254.5 39t-197.5 127t-128 233t-45 357q0 273 77.5 440.5t221 243.5t342.5 76q86 0 164 -11.5t156 -34.5v-85q-82 26 -161 37t-161 11q-173 0 -294.5 -64.5t-185.5 -212t-64 -396.5q0 -259 66 -406.5t185 -209t282 -61.5q84 0 162.5 13.5t170.5 45.5v-85
q-75 -27 -158.5 -42t-177.5 -15zM681 1683q-33 0 -53.5 18.5t-20.5 50.5t20.5 51.5t53.5 19.5t53.5 -19.5t20.5 -51.5t-20.5 -50.5t-53.5 -18.5z" />
    <glyph glyph-name="cdotaccent" unicode="&#x10b;" horiz-adv-x="838" 
d="M547 -18q-141 0 -240 57t-150.5 180t-51.5 321q0 199 55.5 321.5t164 179t266.5 56.5q52 0 107.5 -7t104.5 -21v-84q-53 15 -105.5 22.5t-101.5 7.5q-133 0 -221 -45t-132 -148t-44 -278q0 -177 40.5 -282.5t120.5 -151.5t197 -46q53 0 113 11.5t133 36.5v-84
q-64 -23 -128.5 -34.5t-127.5 -11.5zM503 1351q-33 0 -53.5 19t-20.5 52t20.5 53t53.5 20t53.5 -20t20.5 -53t-20.5 -52t-53.5 -19z" />
    <glyph glyph-name="Ccaron" unicode="&#x10c;" horiz-adv-x="1113" 
d="M740 -18q-140 0 -254.5 39t-197.5 127t-128 233t-45 357q0 273 77.5 440.5t221 243.5t342.5 76q86 0 164 -11.5t156 -34.5v-85q-82 26 -161 37t-161 11q-173 0 -294.5 -64.5t-185.5 -212t-64 -396.5q0 -259 66 -406.5t185 -209t282 -61.5q84 0 162.5 13.5t170.5 45.5v-85
q-75 -27 -158.5 -42t-177.5 -15zM635 1614l-242 275h95l207 -241h-28l207 241h95l-242 -275h-92z" />
    <glyph glyph-name="ccaron" unicode="&#x10d;" horiz-adv-x="838" 
d="M547 -18q-141 0 -240 57t-150.5 180t-51.5 321q0 199 55.5 321.5t164 179t266.5 56.5q52 0 107.5 -7t104.5 -21v-84q-53 15 -105.5 22.5t-101.5 7.5q-133 0 -221 -45t-132 -148t-44 -278q0 -177 40.5 -282.5t120.5 -151.5t197 -46q53 0 113 11.5t133 36.5v-84
q-64 -23 -128.5 -34.5t-127.5 -11.5zM457 1261l-223 355h85l198 -324h-28l198 324h85l-223 -355h-92z" />
    <glyph glyph-name="Dcaron" unicode="&#x10e;" horiz-adv-x="1357" 
d="M511 -10q-54 0 -104 2t-103.5 6t-118.5 12v1450q56 11 115.5 18.5t119 11.5t115.5 4q350 0 528 -185.5t178 -568.5q0 -260 -82 -425.5t-245 -245t-403 -79.5zM520 73q209 0 348.5 68.5t209 216t69.5 382.5q0 233 -67.5 381.5t-204 219t-342.5 70.5q-61 0 -125 -5.5
t-133 -15.5v-1302q56 -8 114 -11.5t131 -3.5zM570 1614l-242 275h95l207 -241h-28l207 241h95l-242 -275h-92z" />
    <glyph glyph-name="dcaron" unicode="&#x10f;" horiz-adv-x="1085" 
d="M523 -18q-118 0 -212.5 52t-150 169.5t-55.5 315.5q0 197 60 325.5t177 190.5t288 62q52 0 104 -4.5t95 -12.5v536h90v-1616h-78l-7 119h-9q-49 -60 -126.5 -98.5t-175.5 -38.5zM533 65q84 0 163.5 38.5t132.5 121.5v769q-40 10 -94.5 16t-106.5 6q-213 0 -321.5 -114.5
t-108.5 -373.5q0 -179 43 -279.5t118.5 -142t173.5 -41.5zM1018 1180q12 106 15.5 223.5t3.5 212.5h77q0 -99 -8.5 -214.5t-30.5 -221.5h-57z" />
    <glyph glyph-name="Dcroat" unicode="&#x110;" horiz-adv-x="1357" 
d="M2 726v72h629v-72h-629zM511 -10q-54 0 -104 2t-103.5 6t-118.5 12v1450q56 11 115.5 18.5t119 11.5t115.5 4q350 0 528 -185.5t178 -568.5q0 -260 -82 -425.5t-245 -245t-403 -79.5zM520 73q209 0 348.5 68.5t209 216t69.5 382.5q0 233 -67.5 381.5t-204 219
t-342.5 70.5q-61 0 -125 -5.5t-133 -15.5v-1302q56 -8 114 -11.5t131 -3.5z" />
    <glyph glyph-name="dcroat" unicode="&#x111;" horiz-adv-x="1085" 
d="M468 1320v72h606v-72h-606zM523 -18q-118 0 -212.5 52t-150 169.5t-55.5 315.5q0 197 60 325.5t177 190.5t288 62q52 0 104 -4.5t95 -12.5v536h90v-1616h-78l-7 119h-9q-49 -60 -126.5 -98.5t-175.5 -38.5zM533 65q84 0 163.5 38.5t132.5 121.5v769q-40 10 -94.5 16
t-106.5 6q-213 0 -321.5 -114.5t-108.5 -373.5q0 -179 43 -279.5t118.5 -142t173.5 -41.5z" />
    <glyph glyph-name="Emacron" unicode="&#x112;" horiz-adv-x="1127" 
d="M185 0v1480h861v-83h-771v-1314h781v-83h-871zM247 719v83h703v-83h-703zM360 1716v71h556v-71h-556z" />
    <glyph glyph-name="emacron" unicode="&#x113;" horiz-adv-x="995" 
d="M580 -18q-152 0 -258.5 56.5t-161.5 179.5t-55 323q0 195 51 318t142.5 180.5t214.5 57.5t211 -57.5t135.5 -180.5t47.5 -319v-35h-757v76h695l-29 -25q0 171 -36 272.5t-104 146.5t-163 45q-96 0 -166.5 -44.5t-109.5 -146t-39 -273.5v-25q0 -171 45 -274t132 -148.5
t213 -45.5q61 0 126 12t142 36v-83q-74 -24 -141.5 -35t-134.5 -11zM224 1388v70h578v-70h-578z" />
    <glyph glyph-name="Ebreve" unicode="&#x114;" horiz-adv-x="1127" 
d="M185 0v1480h861v-83h-771v-1314h781v-83h-871zM247 719v83h703v-83h-703zM640 1625q-92 0 -155 29.5t-97 83t-41 125.5h70q12 -83 62 -126.5t161 -43.5t160 43.5t59 126.5h70q-7 -73 -40 -126.5t-95 -82.5t-154 -29z" />
    <glyph glyph-name="ebreve" unicode="&#x115;" horiz-adv-x="995" 
d="M580 -18q-152 0 -258.5 56.5t-161.5 179.5t-55 323q0 195 51 318t142.5 180.5t214.5 57.5t211 -57.5t135.5 -180.5t47.5 -319v-35h-757v76h695l-29 -25q0 171 -36 272.5t-104 146.5t-163 45q-96 0 -166.5 -44.5t-109.5 -146t-39 -273.5v-25q0 -171 45 -274t132 -148.5
t213 -45.5q61 0 126 12t142 36v-83q-74 -24 -141.5 -35t-134.5 -11zM515 1273q-125 0 -196 83t-77 232h70q8 -121 56.5 -185t146.5 -64t146 64t53 185h70q-6 -150 -75 -232.5t-194 -82.5z" />
    <glyph glyph-name="Edotaccent" unicode="&#x116;" horiz-adv-x="1127" 
d="M185 0v1480h861v-83h-771v-1314h781v-83h-871zM247 719v83h703v-83h-703zM638 1683q-33 0 -53.5 18.5t-20.5 50.5t20.5 51.5t53.5 19.5t53.5 -19.5t20.5 -51.5t-20.5 -50.5t-53.5 -18.5z" />
    <glyph glyph-name="edotaccent" unicode="&#x117;" horiz-adv-x="995" 
d="M580 -18q-152 0 -258.5 56.5t-161.5 179.5t-55 323q0 195 51 318t142.5 180.5t214.5 57.5t211 -57.5t135.5 -180.5t47.5 -319v-35h-757v76h695l-29 -25q0 171 -36 272.5t-104 146.5t-163 45q-96 0 -166.5 -44.5t-109.5 -146t-39 -273.5v-25q0 -171 45 -274t132 -148.5
t213 -45.5q61 0 126 12t142 36v-83q-74 -24 -141.5 -35t-134.5 -11zM513 1351q-33 0 -53.5 19t-20.5 52t20.5 53t53.5 20t53.5 -20t20.5 -53t-20.5 -52t-53.5 -19z" />
    <glyph glyph-name="Eogonek" unicode="&#x118;" horiz-adv-x="1127" 
d="M185 0v1480h861v-83h-771v-1314h781v-83h-871zM247 719v83h703v-83h-703zM1006 -404q-103 0 -159 45.5t-56 127.5q0 52 22.5 99.5t74 92t137.5 88.5l31 -49q-76 -40 -119.5 -76.5t-61 -73.5t-17.5 -77q0 -58 38 -88t111 -30q39 0 78 9.5t90 30.5v-60q-42 -19 -84 -29
t-85 -10z" />
    <glyph glyph-name="eogonek" unicode="&#x119;" horiz-adv-x="995" 
d="M704 -404q-92 0 -143.5 46.5t-51.5 126.5q0 71 40 131.5t118 102.5l4 -15q-22 -3 -45 -4.5t-46 -1.5q-152 0 -258.5 56.5t-161.5 179.5t-55 323q0 195 51 318t142.5 180.5t214.5 57.5t211 -57.5t135.5 -180.5t47.5 -319v-35h-757v76h695l-29 -26q0 171 -36 273
t-104 146.5t-163 44.5q-96 0 -166.5 -44.5t-109.5 -146t-39 -273.5v-24q0 -171 45 -274t132 -148.5t213 -45.5q61 0 126 12t142 36v-83q-114 -37 -174.5 -80t-83 -88t-22.5 -86q0 -56 34.5 -87.5t94.5 -31.5q38 0 75.5 11t75.5 33v-62q-33 -19 -73.5 -30t-78.5 -11z" />
    <glyph glyph-name="Ecaron" unicode="&#x11a;" horiz-adv-x="1127" 
d="M185 0v1480h861v-83h-771v-1314h781v-83h-871zM247 719v83h703v-83h-703zM592 1614l-242 275h95l207 -241h-28l207 241h95l-242 -275h-92z" />
    <glyph glyph-name="ecaron" unicode="&#x11b;" horiz-adv-x="995" 
d="M580 -18q-152 0 -258.5 56.5t-161.5 179.5t-55 323q0 195 51 318t142.5 180.5t214.5 57.5t211 -57.5t135.5 -180.5t47.5 -319v-35h-757v76h695l-29 -25q0 171 -36 272.5t-104 146.5t-163 45q-96 0 -166.5 -44.5t-109.5 -146t-39 -273.5v-25q0 -171 45 -274t132 -148.5
t213 -45.5q61 0 126 12t142 36v-83q-74 -24 -141.5 -35t-134.5 -11zM467 1261l-223 355h85l198 -324h-28l198 324h85l-223 -355h-92z" />
    <glyph glyph-name="Gcircumflex" unicode="&#x11c;" horiz-adv-x="1312" 
d="M836 -11q-236 0 -396 77.5t-242.5 242.5t-82.5 429q0 275 85 441.5t237 242.5t353 76q83 0 165 -11.5t165 -34.5v-85q-95 27 -174.5 37.5t-154.5 10.5q-174 0 -304.5 -64.5t-203.5 -212.5t-73 -399q0 -239 70 -385.5t208.5 -213.5t345.5 -67q76 0 139.5 6t120.5 17
l-32 -42v666h88v-703q-93 -16 -165 -22t-149 -6zM429 1614l242 275h92l242 -275h-95l-207 241h28l-207 -241h-95z" />
    <glyph glyph-name="gcircumflex" unicode="&#x11d;" horiz-adv-x="1085" 
d="M470 -460q-69 0 -151 13t-148 37v84q81 -27 154.5 -40t143.5 -13q182 0 271 82.5t89 289.5v120h-6q-50 -55 -128 -92.5t-180 -37.5q-112 0 -205.5 51t-149 168t-55.5 317q0 296 133.5 437t384.5 141q51 0 102.5 -5t101 -15t92.5 -23v-1051q0 -250 -113 -356.5
t-336 -106.5zM529 66q85 0 166 37.5t134 114.5v772q-40 11 -95.5 18.5t-116.5 7.5q-204 0 -311.5 -114.5t-107.5 -373.5q0 -180 44 -280.5t119 -141t168 -40.5zM295 1261l219 355h92l219 -355h-84l-195 323h28l-195 -323h-84z" />
    <glyph glyph-name="Gbreve" unicode="&#x11e;" horiz-adv-x="1312" 
d="M836 -11q-236 0 -396 77.5t-242.5 242.5t-82.5 429q0 275 85 441.5t237 242.5t353 76q83 0 165 -11.5t165 -34.5v-85q-95 27 -174.5 37.5t-154.5 10.5q-174 0 -304.5 -64.5t-203.5 -212.5t-73 -399q0 -239 70 -385.5t208.5 -213.5t345.5 -67q76 0 139.5 6t120.5 17
l-32 -42v666h88v-703q-93 -16 -165 -22t-149 -6zM719 1625q-92 0 -155 29.5t-97 83t-41 125.5h70q12 -83 62 -126.5t161 -43.5t160 43.5t59 126.5h70q-7 -73 -40 -126.5t-95 -82.5t-154 -29z" />
    <glyph glyph-name="gbreve" unicode="&#x11f;" horiz-adv-x="1085" 
d="M470 -460q-69 0 -151 13t-148 37v84q81 -27 154.5 -40t143.5 -13q182 0 271 82.5t89 289.5v120h-6q-50 -55 -128 -92.5t-180 -37.5q-112 0 -205.5 51t-149 168t-55.5 317q0 296 133.5 437t384.5 141q51 0 102.5 -5t101 -15t92.5 -23v-1051q0 -250 -113 -356.5
t-336 -106.5zM529 66q85 0 166 37.5t134 114.5v772q-40 11 -95.5 18.5t-116.5 7.5q-204 0 -311.5 -114.5t-107.5 -373.5q0 -180 44 -280.5t119 -141t168 -40.5zM562 1273q-125 0 -196 83t-77 232h70q8 -121 56.5 -185t146.5 -64t146 64t53 185h70q-6 -150 -75 -232.5
t-194 -82.5z" />
    <glyph glyph-name="Gdotaccent" unicode="&#x120;" horiz-adv-x="1312" 
d="M836 -11q-236 0 -396 77.5t-242.5 242.5t-82.5 429q0 275 85 441.5t237 242.5t353 76q83 0 165 -11.5t165 -34.5v-85q-95 27 -174.5 37.5t-154.5 10.5q-174 0 -304.5 -64.5t-203.5 -212.5t-73 -399q0 -239 70 -385.5t208.5 -213.5t345.5 -67q76 0 139.5 6t120.5 17
l-32 -42v666h88v-703q-93 -16 -165 -22t-149 -6zM717 1683q-33 0 -53.5 18.5t-20.5 50.5t20.5 51.5t53.5 19.5t53.5 -19.5t20.5 -51.5t-20.5 -50.5t-53.5 -18.5z" />
    <glyph glyph-name="gdotaccent" unicode="&#x121;" horiz-adv-x="1085" 
d="M470 -460q-69 0 -151 13t-148 37v84q81 -27 154.5 -40t143.5 -13q182 0 271 82.5t89 289.5v120h-6q-50 -55 -128 -92.5t-180 -37.5q-112 0 -205.5 51t-149 168t-55.5 317q0 296 133.5 437t384.5 141q51 0 102.5 -5t101 -15t92.5 -23v-1051q0 -250 -113 -356.5
t-336 -106.5zM529 66q85 0 166 37.5t134 114.5v772q-40 11 -95.5 18.5t-116.5 7.5q-204 0 -311.5 -114.5t-107.5 -373.5q0 -180 44 -280.5t119 -141t168 -40.5zM560 1351q-33 0 -53.5 19t-20.5 52t20.5 53t53.5 20t53.5 -20t20.5 -53t-20.5 -52t-53.5 -19z" />
    <glyph glyph-name="uni0122" unicode="&#x122;" horiz-adv-x="1312" 
d="M836 -11q-236 0 -396 77.5t-242.5 242.5t-82.5 429q0 275 85 441.5t237 242.5t353 76q83 0 165 -11.5t165 -34.5v-85q-95 27 -174.5 37.5t-154.5 10.5q-174 0 -304.5 -64.5t-203.5 -212.5t-73 -399q0 -239 70 -385.5t208.5 -213.5t345.5 -67q76 0 139.5 6t120.5 17
l-32 -42v666h88v-703q-93 -16 -165 -22t-149 -6zM685 -452q22 55 29 95.5t7 77.5l9 -35h-13q-33 0 -52.5 19t-19.5 49t18.5 48.5t49.5 18.5q36 0 56 -22.5t20 -69.5q0 -37 -11.5 -85.5t-35.5 -95.5h-57z" />
    <glyph glyph-name="uni0123" unicode="&#x123;" horiz-adv-x="1085" 
d="M470 -460q-69 0 -151 13t-148 37v84q81 -27 154.5 -40t143.5 -13q182 0 271 82.5t89 289.5v120h-6q-50 -55 -128 -92.5t-180 -37.5q-112 0 -205.5 51t-149 168t-55.5 317q0 296 133.5 437t384.5 141q51 0 102.5 -5t101 -15t92.5 -23v-1051q0 -250 -113 -356.5
t-336 -106.5zM529 66q85 0 166 37.5t134 114.5v772q-40 11 -95.5 18.5t-116.5 7.5q-204 0 -311.5 -114.5t-107.5 -373.5q0 -180 44 -280.5t119 -141t168 -40.5zM564 1351q-36 0 -56 23t-20 68q0 38 12 87t35 95h57q-22 -55 -29 -95.5t-7 -77.5l-9 35h13q33 0 52.5 -19
t19.5 -50q0 -29 -18 -47.5t-50 -18.5z" />
    <glyph glyph-name="Hcircumflex" unicode="&#x124;" horiz-adv-x="1409" 
d="M185 0v1480h90v-677h859v677h90v-1480h-90v718h-859v-718h-90zM417 1614l242 275h92l242 -275h-95l-207 241h28l-207 -241h-95z" />
    <glyph glyph-name="hcircumflex" unicode="&#x125;" horiz-adv-x="1099" 
d="M166 0v1616h89v-660h7q70 71 160 106t189 35q98 0 174 -34.5t119 -114t43 -214.5v-734h-90v733q0 158 -71 218t-188 60q-57 0 -119 -16t-120.5 -53.5t-103.5 -98.5v-843h-89zM269 1710l242 275h92l242 -275h-95l-207 241h28l-207 -241h-95z" />
    <glyph glyph-name="Hbar" unicode="&#x126;" horiz-adv-x="1409" 
d="M2 1108v72h1405v-72h-1405zM185 0v1480h90v-677h859v677h90v-1480h-90v718h-859v-718h-90z" />
    <glyph glyph-name="hbar" unicode="&#x127;" horiz-adv-x="1099" 
d="M10 1320v72h607v-72h-607zM166 0v1616h89v-660h7q70 71 160 106t189 35q98 0 174 -34.5t119 -114t43 -214.5v-734h-90v733q0 158 -71 218t-188 60q-57 0 -119 -16t-120.5 -53.5t-103.5 -98.5v-843h-89z" />
    <glyph glyph-name="Itilde" unicode="&#x128;" horiz-adv-x="460" 
d="M185 0v1480h90v-1480h-90zM376 1690q-44 0 -84 13t-77 28q-33 14 -65.5 24.5t-66.5 10.5q-50 0 -87.5 -17.5t-71.5 -53.5v77q28 31 67.5 46.5t92.5 15.5q44 0 84 -12.5t77 -28.5q33 -13 65.5 -24t66.5 -11q50 0 88 17.5t71 53.5v-77q-27 -30 -66.5 -46t-93.5 -16z" />
    <glyph glyph-name="itilde" unicode="&#x129;" horiz-adv-x="421" 
d="M166 0v1081h89v-1081h-89zM346 1372q-41 0 -78.5 13.5t-72.5 28.5q-31 13 -61 24t-61 11q-45 0 -82 -17.5t-70 -54.5v78q56 63 153 63q41 0 78.5 -13.5t72.5 -28.5q32 -14 62 -25t60 -11q46 0 82.5 18t69.5 55v-79q-56 -62 -153 -62z" />
    <glyph glyph-name="Imacron" unicode="&#x12a;" horiz-adv-x="460" 
d="M185 0v1480h90v-1480h-90zM-48 1716v71h556v-71h-556z" />
    <glyph glyph-name="imacron" unicode="&#x12b;" horiz-adv-x="421" 
d="M166 0v1081h89v-1081h-89zM-79 1388v70h578v-70h-578z" />
    <glyph glyph-name="Ibreve" unicode="&#x12c;" horiz-adv-x="460" 
d="M185 0v1480h90v-1480h-90zM232 1625q-92 0 -155 29.5t-97 83t-41 125.5h70q12 -83 62 -126.5t161 -43.5t160 43.5t59 126.5h70q-7 -73 -40 -126.5t-95 -82.5t-154 -29z" />
    <glyph glyph-name="ibreve" unicode="&#x12d;" horiz-adv-x="421" 
d="M166 0v1081h89v-1081h-89zM212 1273q-125 0 -196 83t-77 232h70q8 -121 56.5 -185t146.5 -64t146 64t53 185h70q-6 -150 -75 -232.5t-194 -82.5z" />
    <glyph glyph-name="Iogonek" unicode="&#x12e;" horiz-adv-x="460" 
d="M185 0v1480h90v-1480h-90zM225 -404q-103 0 -159 45.5t-56 127.5q0 52 22.5 99.5t74 92t137.5 88.5l31 -49q-76 -40 -119.5 -76.5t-61 -73.5t-17.5 -77q0 -58 38 -88t111 -30q39 0 78 9.5t90 30.5v-60q-42 -19 -84 -29t-85 -10z" />
    <glyph glyph-name="iogonek" unicode="&#x12f;" horiz-adv-x="421" 
d="M166 0v1081h89v-1081h-89zM210 1351q-33 0 -53.5 19t-20.5 52t20.5 53t53.5 20t53.5 -20t20.5 -53t-20.5 -52t-53.5 -19zM205 -404q-92 0 -143.5 46.5t-51.5 126.5q0 53 22.5 100.5t69.5 92t122 87.5l31 -49q-64 -38 -103 -74t-57 -73.5t-18 -79.5q0 -55 34.5 -86.5
t94.5 -31.5q38 0 76 11t75 33v-62q-32 -19 -72.5 -30t-79.5 -11z" />
    <glyph glyph-name="Idotaccent" unicode="&#x130;" horiz-adv-x="460" 
d="M185 0v1480h90v-1480h-90zM230 1683q-33 0 -53.5 18.5t-20.5 50.5t20.5 51.5t53.5 19.5t53.5 -19.5t20.5 -51.5t-20.5 -50.5t-53.5 -18.5z" />
    <glyph glyph-name="dotlessi" unicode="&#x131;" horiz-adv-x="421" 
d="M166 0v1081h89v-1081h-89z" />
    <glyph glyph-name="Jcircumflex" unicode="&#x134;" horiz-adv-x="460" 
d="M60 -341l-63 44q65 91 107 176.5t61.5 183t19.5 224.5v1193h90v-1223q0 -121 -22.5 -219t-70 -188.5t-122.5 -190.5zM-58 1614l242 275h92l242 -275h-95l-207 241h28l-207 -241h-95z" />
    <glyph glyph-name="jcircumflex" unicode="&#x135;" horiz-adv-x="421" 
d="M40 -461l-62 44q65 90 106.5 179t61.5 187.5t20 217.5v914h89v-907q0 -130 -22.5 -236t-70 -202.5t-122.5 -196.5zM-55 1267l219 355h92l219 -355h-84l-195 323h28l-195 -323h-84z" />
    <glyph glyph-name="uni0136" unicode="&#x136;" horiz-adv-x="1196" 
d="M1101 0l-611 758l571 722h106l-583 -733v29l625 -776h-108zM185 0v1480h90v-1480h-90zM257 718v84h284v-84h-284zM591 -452q22 55 29 95.5t7 77.5l9 -35h-13q-33 0 -52.5 19t-19.5 49t18.5 48.5t49.5 18.5q36 0 56 -22.5t20 -69.5q0 -37 -11.5 -85.5t-35.5 -95.5h-57z
" />
    <glyph glyph-name="uni0137" unicode="&#x137;" horiz-adv-x="976" 
d="M885 0l-457 553l426 528h106l-434 -541v27l467 -567h-108zM238 513v80h239v-80h-239zM166 0v1616h89v-1616h-89zM496 -452q22 55 29 95.5t7 77.5l9 -35h-13q-33 0 -52.5 19t-19.5 49t18.5 48.5t49.5 18.5q36 0 56 -22.5t20 -69.5q0 -37 -11.5 -85.5t-35.5 -95.5h-57z" />
    <glyph glyph-name="kgreenlandic" unicode="&#x138;" horiz-adv-x="976" 
d="M885 0l-457 553l426 528h106l-434 -541v27l467 -567h-108zM166 0v1081h89v-1081h-89zM238 513v80h239v-80h-239z" />
    <glyph glyph-name="Lacute" unicode="&#x139;" horiz-adv-x="1037" 
d="M185 0v1480h90v-1396h750v-84h-840zM188 1614l176 275h101l-193 -275h-84z" />
    <glyph glyph-name="lacute" unicode="&#x13a;" horiz-adv-x="421" 
d="M166 0v1616h89v-1616h-89zM168 1710l176 275h101l-193 -275h-84z" />
    <glyph glyph-name="uni013B" unicode="&#x13b;" horiz-adv-x="1037" 
d="M185 0v1480h90v-1396h750v-84h-840zM574 -452q22 55 29 95.5t7 77.5l9 -35h-13q-33 0 -52.5 19t-19.5 49t18.5 48.5t49.5 18.5q36 0 56 -22.5t20 -69.5q0 -37 -11.5 -85.5t-35.5 -95.5h-57z" />
    <glyph glyph-name="uni013C" unicode="&#x13c;" horiz-adv-x="421" 
d="M166 0v1616h89v-1616h-89zM178 -452q22 55 29 95.5t7 77.5l9 -35h-13q-33 0 -52.5 19t-19.5 49t18.5 48.5t49.5 18.5q36 0 56 -22.5t20 -69.5q0 -37 -11.5 -85.5t-35.5 -95.5h-57z" />
    <glyph glyph-name="Lcaron" unicode="&#x13d;" horiz-adv-x="1037" 
d="M185 0v1480h90v-1396h750v-84h-840zM655 1140q8 70 12.5 148.5t5.5 161.5t1 166h77q0 -129 -8.5 -249.5t-30.5 -226.5h-57z" />
    <glyph glyph-name="lcaron" unicode="&#x13e;" horiz-adv-x="421" 
d="M166 0v1616h89v-1616h-89zM354 1180q12 106 15.5 223.5t3.5 212.5h77q0 -99 -8.5 -214.5t-30.5 -221.5h-57z" />
    <glyph glyph-name="Ldot" unicode="&#x13f;" horiz-adv-x="1037" 
d="M185 0v1480h90v-1396h750v-84h-840zM738 709q-33 0 -53 19.5t-20 51.5q0 33 20 53t53 20q34 0 54 -20t20 -53q0 -32 -20 -51.5t-54 -19.5z" />
    <glyph glyph-name="ldot" unicode="&#x140;" horiz-adv-x="447" 
d="M166 0v1616h89v-1616h-89zM424 721q-34 0 -54 19.5t-20 51.5q0 33 20 53t54 20q33 0 53 -20t20 -53q0 -32 -20 -51.5t-53 -19.5z" />
    <glyph glyph-name="Lslash" unicode="&#x141;" horiz-adv-x="1039" 
d="M9 539v94l553 464v-93zM186 0v1480h90v-1396h750v-84h-840z" />
    <glyph glyph-name="lslash" unicode="&#x142;" horiz-adv-x="426" 
d="M26 515v91l368 306v-92zM168 0v1616h90v-1616h-90z" />
    <glyph glyph-name="Nacute" unicode="&#x143;" horiz-adv-x="1437" 
d="M185 0v1480h97l916 -1390h-33v1390h87v-1480h-97l-916 1390h33v-1390h-87zM677 1614l176 275h101l-193 -275h-84z" />
    <glyph glyph-name="nacute" unicode="&#x144;" horiz-adv-x="1099" 
d="M166 0v1081h77l7 -127h9q69 69 159.5 106t189.5 37q100 0 176.5 -35t119.5 -114.5t43 -214.5v-733h-90v731q0 158 -70 220t-189 62q-54 0 -116 -16t-121.5 -53t-105.5 -100v-844h-89zM515 1261l210 355h100l-226 -355h-84z" />
    <glyph glyph-name="uni0145" unicode="&#x145;" horiz-adv-x="1437" 
d="M185 0v1480h97l916 -1390h-33v1390h87v-1480h-97l-916 1390h33v-1390h-87zM687 -452q22 55 29 95.5t7 77.5l9 -35h-13q-33 0 -52.5 19t-19.5 49t18.5 48.5t49.5 18.5q36 0 56 -22.5t20 -69.5q0 -37 -11.5 -85.5t-35.5 -95.5h-57z" />
    <glyph glyph-name="uni0146" unicode="&#x146;" horiz-adv-x="1099" 
d="M166 0v1081h77l7 -127h9q69 69 159.5 106t189.5 37q100 0 176.5 -35t119.5 -114.5t43 -214.5v-733h-90v731q0 158 -70 220t-189 62q-54 0 -116 -16t-121.5 -53t-105.5 -100v-844h-89zM525 -452q22 55 29 95.5t7 77.5l9 -35h-13q-33 0 -52.5 19t-19.5 49t18.5 48.5
t49.5 18.5q36 0 56 -22.5t20 -69.5q0 -37 -11.5 -85.5t-35.5 -95.5h-57z" />
    <glyph glyph-name="Ncaron" unicode="&#x147;" horiz-adv-x="1437" 
d="M185 0v1480h97l916 -1390h-33v1390h87v-1480h-97l-916 1390h33v-1390h-87zM673 1614l-242 275h95l207 -241h-28l207 241h95l-242 -275h-92z" />
    <glyph glyph-name="ncaron" unicode="&#x148;" horiz-adv-x="1099" 
d="M166 0v1081h77l7 -127h9q69 69 159.5 106t189.5 37q100 0 176.5 -35t119.5 -114.5t43 -214.5v-733h-90v731q0 158 -70 220t-189 62q-54 0 -116 -16t-121.5 -53t-105.5 -100v-844h-89zM511 1261l-223 355h85l198 -324h-28l198 324h85l-223 -355h-92z" />
    <glyph glyph-name="napostrophe" unicode="&#x149;" horiz-adv-x="1099" 
d="M166 0v1081h77l7 -127h9q69 69 159.5 106t189.5 37q100 0 176.5 -35t119.5 -114.5t43 -214.5v-733h-90v731q0 158 -70 220t-189 62q-54 0 -116 -16t-121.5 -53t-105.5 -100v-844h-89zM53 1351q22 55 29 95.5t7 77.5l9 -34h-13q-33 0 -52.5 19t-19.5 49q0 29 19 47.5
t49 18.5q36 0 56 -22.5t20 -68.5q0 -38 -11.5 -86.5t-35.5 -95.5h-57z" />
    <glyph glyph-name="Eng" unicode="&#x14a;" horiz-adv-x="1437" 
d="M1172 -27l-934 1417h34v-1390h-87v1480h97l932 -1413zM1037 -461l-63 44q66 90 108.5 179t62.5 187.5t20 217.5v1313h87v-1303q0 -132 -22.5 -238.5t-70 -203t-122.5 -196.5z" />
    <glyph glyph-name="eng" unicode="&#x14b;" horiz-adv-x="1099" 
d="M731 -461l-62 44q66 90 107.5 179t61 187.5t19.5 217.5v566q0 158 -71 219.5t-188 61.5q-57 0 -119 -17t-120.5 -54.5t-103.5 -99.5v-843h-89v1081h77l7 -127h9q71 72 161 107.5t189 35.5t175.5 -34.5t119.5 -114t43 -214.5v-597q0 -116 -23 -214.5t-70.5 -191
t-122.5 -192.5z" />
    <glyph glyph-name="Omacron" unicode="&#x14c;" horiz-adv-x="1385" 
d="M692 -18q-173 0 -302.5 76.5t-202 243.5t-72.5 438t73 438t203 243.5t301 76.5q173 0 303 -76.5t202.5 -243.5t72.5 -438t-73 -438t-203 -243.5t-302 -76.5zM692 66q145 0 253.5 63.5t169 210.5t60.5 396q0 253 -60.5 401.5t-169.5 212.5t-253 64t-252.5 -63.5
t-169 -210.5t-60.5 -396q0 -253 60.5 -401.5t169 -212.5t252.5 -64zM414 1716v71h556v-71h-556z" />
    <glyph glyph-name="omacron" unicode="&#x14d;" horiz-adv-x="1071" 
d="M535 -18q-129 0 -226 56.5t-150.5 179.5t-53.5 322q0 198 53.5 321t150.5 179.5t226 56.5q130 0 227 -56t150.5 -178.5t53.5 -322.5q0 -197 -54 -320.5t-150.5 -180.5t-226.5 -57zM535 63q103 0 179 44.5t117 148.5t41 282q0 180 -41 284.5t-117 149t-179 44.5
q-102 0 -178 -44t-117.5 -147.5t-41.5 -281.5q0 -180 41.5 -285t117.5 -150t178 -45zM246 1388v70h578v-70h-578z" />
    <glyph glyph-name="Obreve" unicode="&#x14e;" horiz-adv-x="1385" 
d="M692 -18q-173 0 -302.5 76.5t-202 243.5t-72.5 438t73 438t203 243.5t301 76.5q173 0 303 -76.5t202.5 -243.5t72.5 -438t-73 -438t-203 -243.5t-302 -76.5zM692 66q145 0 253.5 63.5t169 210.5t60.5 396q0 253 -60.5 401.5t-169.5 212.5t-253 64t-252.5 -63.5
t-169 -210.5t-60.5 -396q0 -253 60.5 -401.5t169 -212.5t252.5 -64zM694 1625q-92 0 -155 29.5t-97 83t-41 125.5h70q12 -83 62 -126.5t161 -43.5t160 43.5t59 126.5h70q-7 -73 -40 -126.5t-95 -82.5t-154 -29z" />
    <glyph glyph-name="obreve" unicode="&#x14f;" horiz-adv-x="1071" 
d="M535 -18q-129 0 -226 56.5t-150.5 179.5t-53.5 322q0 198 53.5 321t150.5 179.5t226 56.5q130 0 227 -56t150.5 -178.5t53.5 -322.5q0 -197 -54 -320.5t-150.5 -180.5t-226.5 -57zM535 63q103 0 179 44.5t117 148.5t41 282q0 180 -41 284.5t-117 149t-179 44.5
q-102 0 -178 -44t-117.5 -147.5t-41.5 -281.5q0 -180 41.5 -285t117.5 -150t178 -45zM537 1273q-125 0 -196 83t-77 232h70q8 -121 56.5 -185t146.5 -64t146 64t53 185h70q-6 -150 -75 -232.5t-194 -82.5z" />
    <glyph glyph-name="Ohungarumlaut" unicode="&#x150;" horiz-adv-x="1385" 
d="M692 -18q-173 0 -302.5 76.5t-202 243.5t-72.5 438t73 438t203 243.5t301 76.5q173 0 303 -76.5t202.5 -243.5t72.5 -438t-73 -438t-203 -243.5t-302 -76.5zM692 66q145 0 253.5 63.5t169 210.5t60.5 396q0 253 -60.5 401.5t-169.5 212.5t-253 64t-252.5 -63.5
t-169 -210.5t-60.5 -396q0 -253 60.5 -401.5t169 -212.5t252.5 -64zM806 1614l124 275h84l-132 -275h-76zM502 1614l124 275h84l-132 -275h-76z" />
    <glyph glyph-name="ohungarumlaut" unicode="&#x151;" horiz-adv-x="1071" 
d="M535 -18q-129 0 -226 56.5t-150.5 179.5t-53.5 322q0 198 53.5 321t150.5 179.5t226 56.5q130 0 227 -56t150.5 -178.5t53.5 -322.5q0 -197 -54 -320.5t-150.5 -180.5t-226.5 -57zM535 63q103 0 179 44.5t117 148.5t41 282q0 180 -41 284.5t-117 149t-179 44.5
q-102 0 -178 -44t-117.5 -147.5t-41.5 -281.5q0 -180 41.5 -285t117.5 -150t178 -45zM649 1261l135 355h82l-144 -355h-73zM348 1261l135 355h82l-144 -355h-73z" />
    <glyph glyph-name="OE" unicode="&#x152;" horiz-adv-x="1960" 
d="M828 -10q-232 0 -391 79.5t-240.5 245.5t-81.5 425q0 255 79.5 422.5t234.5 249.5t382 82q84 0 162 -7t142 -7h764v-83h-739v-1314h749v-83h-762q-40 0 -89 -2.5t-102.5 -5t-107.5 -2.5zM820 73q73 0 129.5 2.5t101.5 7.5v1313q-60 8 -117.5 11.5t-123.5 3.5
q-200 0 -333.5 -71t-200 -219t-66.5 -381q0 -235 69 -382t204.5 -216t336.5 -69zM1122 719v83h662v-83h-662z" />
    <glyph glyph-name="oe" unicode="&#x153;" horiz-adv-x="1747" 
d="M530 -18q-126 0 -222 56.5t-149.5 179.5t-53.5 322q0 198 53 321t149 179.5t223 56.5t221 -56.5t145 -179t51 -321.5q0 -196 -51.5 -319.5t-145 -181t-220.5 -57.5zM532 63q100 0 175 44.5t116.5 148.5t41.5 282q0 180 -41.5 284.5t-116.5 149t-175 44.5q-101 0 -176 -44
t-116.5 -147.5t-41.5 -281.5q0 -180 41.5 -285t116.5 -150t176 -45zM1337 -18q-151 0 -254.5 57t-157.5 180.5t-54 323.5l8 10q0 191 47.5 311.5t135 177t207.5 56.5q121 0 208.5 -57t134.5 -180t47 -319v-37h-730v76h669l-29 -31q0 176 -36.5 278.5t-103.5 147.5t-162 45
q-94 0 -163 -45t-107.5 -146.5t-38.5 -273.5v-25q0 -171 44.5 -274t131 -148.5t210.5 -45.5q60 0 124.5 12t139.5 36v-83q-73 -24 -139.5 -35t-131.5 -11z" />
    <glyph glyph-name="Racute" unicode="&#x154;" horiz-adv-x="1276" 
d="M185 0v1460q52 9 107.5 17t119 12.5t137.5 4.5q281 0 416 -102t135 -320q0 -143 -66.5 -238.5t-199.5 -143.5t-333 -48q-69 0 -120.5 2.5t-105.5 6.5v-651h-90zM1100 0l-542 701h108l545 -701h-111zM500 722q272 0 391.5 86.5t119.5 261.5q0 123 -47.5 198.5t-149.5 110
t-265 34.5q-86 0 -148 -6t-126 -17v-658q42 -4 76 -6t68.5 -3t80.5 -1zM566 1614l176 275h101l-193 -275h-84z" />
    <glyph glyph-name="racute" unicode="&#x155;" horiz-adv-x="685" 
d="M166 0v1081h77l8 -146h8q60 75 148.5 115t180.5 40q24 0 44 -1.5t40 -5.5v-87q-21 3 -41.5 4t-45.5 1q-56 0 -117.5 -19t-117 -58t-95.5 -98v-826h-89zM365 1261l210 355h100l-226 -355h-84z" />
    <glyph glyph-name="uni0156" unicode="&#x156;" horiz-adv-x="1276" 
d="M185 0v1460q52 9 107.5 17t119 12.5t137.5 4.5q281 0 416 -102t135 -320q0 -143 -66.5 -238.5t-199.5 -143.5t-333 -48q-69 0 -120.5 2.5t-105.5 6.5v-651h-90zM1100 0l-542 701h108l545 -701h-111zM500 722q272 0 391.5 86.5t119.5 261.5q0 123 -47.5 198.5t-149.5 110
t-265 34.5q-86 0 -148 -6t-126 -17v-658q42 -4 76 -6t68.5 -3t80.5 -1zM633 -452q22 55 29 95.5t7 77.5l9 -35h-13q-33 0 -52.5 19t-19.5 49t18.5 48.5t49.5 18.5q36 0 56 -22.5t20 -69.5q0 -37 -11.5 -85.5t-35.5 -95.5h-57z" />
    <glyph glyph-name="uni0157" unicode="&#x157;" horiz-adv-x="685" 
d="M166 0v1081h77l8 -146h8q60 75 148.5 115t180.5 40q24 0 44 -1.5t40 -5.5v-87q-21 3 -41.5 4t-45.5 1q-56 0 -117.5 -19t-117 -58t-95.5 -98v-826h-89zM178 -452q22 55 29 95.5t7 77.5l9 -35h-13q-33 0 -52.5 19t-19.5 49t18.5 48.5t49.5 18.5q36 0 56 -22.5t20 -69.5
q0 -37 -11.5 -85.5t-35.5 -95.5h-57z" />
    <glyph glyph-name="Rcaron" unicode="&#x158;" horiz-adv-x="1276" 
d="M185 0v1460q52 9 107.5 17t119 12.5t137.5 4.5q281 0 416 -102t135 -320q0 -143 -66.5 -238.5t-199.5 -143.5t-333 -48q-69 0 -120.5 2.5t-105.5 6.5v-651h-90zM1100 0l-542 701h108l545 -701h-111zM500 722q272 0 391.5 86.5t119.5 261.5q0 123 -47.5 198.5t-149.5 110
t-265 34.5q-86 0 -148 -6t-126 -17v-658q42 -4 76 -6t68.5 -3t80.5 -1zM562 1614l-242 275h95l207 -241h-28l207 241h95l-242 -275h-92z" />
    <glyph glyph-name="rcaron" unicode="&#x159;" horiz-adv-x="685" 
d="M166 0v1081h77l8 -146h8q60 75 148.5 115t180.5 40q24 0 44 -1.5t40 -5.5v-87q-21 3 -41.5 4t-45.5 1q-56 0 -117.5 -19t-117 -58t-95.5 -98v-826h-89zM361 1261l-223 355h85l198 -324h-28l198 324h85l-223 -355h-92z" />
    <glyph glyph-name="Sacute" unicode="&#x15a;" horiz-adv-x="1022" 
d="M444 -18q-80 0 -170 14t-174 43v85q62 -21 122 -34t116.5 -19t108.5 -6q199 0 299 80t100 235q0 132 -76 201.5t-252 114.5l-66 17q-186 49 -278 143.5t-92 250.5q0 181 123.5 286t364.5 105q79 0 160.5 -11t149.5 -34v-85q-77 25 -155 36t-157 11q-132 0 -219 -35
t-130 -103t-43 -165q0 -128 70 -198t239 -115l66 -17q134 -34 220 -87t127.5 -129.5t41.5 -180.5q0 -130 -58 -220t-169 -136.5t-269 -46.5zM477 1614l176 275h101l-193 -275h-84z" />
    <glyph glyph-name="sacute" unicode="&#x15b;" horiz-adv-x="867" 
d="M396 -18q-76 0 -144 10t-135 31v83q80 -24 146.5 -34t135.5 -10q155 0 227.5 56.5t72.5 159.5q0 89 -45.5 136.5t-152.5 70.5l-133 29q-146 33 -207 104.5t-61 180.5q0 129 96.5 213.5t296.5 84.5q65 0 124 -7t116 -23v-82q-66 18 -121.5 25t-117.5 7
q-110 0 -176.5 -28.5t-96.5 -77t-30 -108.5q0 -78 42 -129t148 -75l133 -28q152 -33 213.5 -103.5t61.5 -183.5q0 -139 -98.5 -220.5t-294.5 -81.5zM397 1261l210 355h100l-226 -355h-84z" />
    <glyph glyph-name="Scircumflex" unicode="&#x15c;" horiz-adv-x="1022" 
d="M444 -18q-80 0 -170 14t-174 43v85q62 -21 122 -34t116.5 -19t108.5 -6q199 0 299 80t100 235q0 132 -76 201.5t-252 114.5l-66 17q-186 49 -278 143.5t-92 250.5q0 181 123.5 286t364.5 105q79 0 160.5 -11t149.5 -34v-85q-77 25 -155 36t-157 11q-132 0 -219 -35
t-130 -103t-43 -165q0 -128 70 -198t239 -115l66 -17q134 -34 220 -87t127.5 -129.5t41.5 -180.5q0 -130 -58 -220t-169 -136.5t-269 -46.5zM231 1614l242 275h92l242 -275h-95l-207 241h28l-207 -241h-95z" />
    <glyph glyph-name="scircumflex" unicode="&#x15d;" horiz-adv-x="867" 
d="M396 -18q-76 0 -144 10t-135 31v83q80 -24 146.5 -34t135.5 -10q155 0 227.5 56.5t72.5 159.5q0 89 -45.5 136.5t-152.5 70.5l-133 29q-146 33 -207 104.5t-61 180.5q0 129 96.5 213.5t296.5 84.5q65 0 124 -7t116 -23v-82q-66 18 -121.5 25t-117.5 7
q-110 0 -176.5 -28.5t-96.5 -77t-30 -108.5q0 -78 42 -129t148 -75l133 -28q152 -33 213.5 -103.5t61.5 -183.5q0 -139 -98.5 -220.5t-294.5 -81.5zM174 1261l219 355h92l219 -355h-84l-195 323h28l-195 -323h-84z" />
    <glyph glyph-name="Scedilla" unicode="&#x15e;" horiz-adv-x="1022" 
d="M444 -18q-80 0 -170 14t-174 43v85q62 -21 122 -34t116.5 -19t108.5 -6q199 0 299 80t100 235q0 132 -76 201.5t-252 114.5l-66 17q-186 49 -278 143.5t-92 250.5q0 181 123.5 286t364.5 105q79 0 160.5 -11t149.5 -34v-85q-77 25 -155 36t-157 11q-132 0 -219 -35
t-130 -103t-43 -165q0 -128 70 -198t239 -115l66 -17q134 -34 220 -87t127.5 -129.5t41.5 -180.5q0 -130 -58 -220t-169 -136.5t-269 -46.5zM533 -404q-47 0 -96.5 10t-91.5 29v62q55 -24 99 -33.5t88 -9.5q62 0 97.5 21.5t35.5 69.5q0 47 -35.5 68.5t-99.5 21.5h-39v185h64
v-161l-18 32q87 0 140.5 -37t53.5 -110t-54 -110.5t-144 -37.5z" />
    <glyph glyph-name="scedilla" unicode="&#x15f;" horiz-adv-x="867" 
d="M396 -18q-76 0 -144 10t-135 31v83q80 -24 146.5 -34t135.5 -10q155 0 227.5 56.5t72.5 159.5q0 89 -45.5 136.5t-152.5 70.5l-133 29q-146 33 -207 104.5t-61 180.5q0 129 96.5 213.5t296.5 84.5q65 0 124 -7t116 -23v-82q-66 18 -121.5 25t-117.5 7
q-110 0 -176.5 -28.5t-96.5 -77t-30 -108.5q0 -78 42 -129t148 -75l133 -28q152 -33 213.5 -103.5t61.5 -183.5q0 -139 -98.5 -220.5t-294.5 -81.5zM446 -404q-42 0 -87 10t-78 27v62q45 -23 86.5 -32t79.5 -9q59 0 88 22.5t29 67.5q0 91 -118 91h-34v185h65v-161l-28 31
q87 0 133.5 -39t46.5 -108q0 -68 -48 -107.5t-135 -39.5z" />
    <glyph glyph-name="Scaron" unicode="&#x160;" horiz-adv-x="1022" 
d="M444 -18q-80 0 -170 14t-174 43v85q62 -21 122 -34t116.5 -19t108.5 -6q199 0 299 80t100 235q0 132 -76 201.5t-252 114.5l-66 17q-186 49 -278 143.5t-92 250.5q0 181 123.5 286t364.5 105q79 0 160.5 -11t149.5 -34v-85q-77 25 -155 36t-157 11q-132 0 -219 -35
t-130 -103t-43 -165q0 -128 70 -198t239 -115l66 -17q134 -34 220 -87t127.5 -129.5t41.5 -180.5q0 -130 -58 -220t-169 -136.5t-269 -46.5zM473 1614l-242 275h95l207 -241h-28l207 241h95l-242 -275h-92z" />
    <glyph glyph-name="scaron" unicode="&#x161;" horiz-adv-x="867" 
d="M396 -18q-76 0 -144 10t-135 31v83q80 -24 146.5 -34t135.5 -10q155 0 227.5 56.5t72.5 159.5q0 89 -45.5 136.5t-152.5 70.5l-133 29q-146 33 -207 104.5t-61 180.5q0 129 96.5 213.5t296.5 84.5q65 0 124 -7t116 -23v-82q-66 18 -121.5 25t-117.5 7
q-110 0 -176.5 -28.5t-96.5 -77t-30 -108.5q0 -78 42 -129t148 -75l133 -28q152 -33 213.5 -103.5t61.5 -183.5q0 -139 -98.5 -220.5t-294.5 -81.5zM393 1261l-223 355h85l198 -324h-28l198 324h85l-223 -355h-92z" />
    <glyph glyph-name="uni0162" unicode="&#x162;" horiz-adv-x="1127" 
d="M518 0v1396h-504v84h1099v-84h-504v-1396h-91zM578 -404q-47 0 -96.5 10t-91.5 29v62q55 -24 99 -33.5t88 -9.5q62 0 97.5 21.5t35.5 69.5q0 47 -35.5 68.5t-99.5 21.5h-39v185h64v-161l-18 32q87 0 140.5 -37t53.5 -110t-54 -110.5t-144 -37.5z" />
    <glyph glyph-name="uni0163" unicode="&#x163;" horiz-adv-x="707" 
d="M548 -18q-152 0 -238 79t-86 256v764l13 399h77v-1148q0 -147 62.5 -207t182.5 -60q32 0 65.5 4.5t73.5 13.5v-84q-39 -9 -75.5 -13t-74.5 -4zM8 1001v80h670v-80h-670zM469 -404q-42 0 -87 10t-78 27v62q45 -23 86.5 -32t79.5 -9q59 0 88 22.5t29 67.5q0 91 -118 91h-34
v185h65v-161l-28 31q87 0 133.5 -39t46.5 -108q0 -68 -48 -107.5t-135 -39.5z" />
    <glyph glyph-name="Tcaron" unicode="&#x164;" horiz-adv-x="1127" 
d="M518 0v1396h-504v84h1099v-84h-504v-1396h-91zM518 1614l-242 275h95l207 -241h-28l207 241h95l-242 -275h-92z" />
    <glyph glyph-name="tcaron" unicode="&#x165;" horiz-adv-x="707" 
d="M548 -18q-152 0 -238 79t-86 256v764l13 399h77v-1148q0 -147 62.5 -207t182.5 -60q32 0 65.5 4.5t73.5 13.5v-84q-39 -9 -75.5 -13t-74.5 -4zM8 1001v80h670v-80h-670zM490 1180q12 106 15.5 223.5t3.5 212.5h77q0 -99 -8.5 -214.5t-30.5 -221.5h-57z" />
    <glyph glyph-name="Tbar" unicode="&#x166;" horiz-adv-x="1127" 
d="M184 758v72h759v-72h-759zM518 0v1396h-504v84h1099v-84h-504v-1396h-91z" />
    <glyph glyph-name="tbar" unicode="&#x167;" horiz-adv-x="707" 
d="M68 618v72h562v-72h-562zM548 -18q-152 0 -238 79t-86 256v764l13 399h77v-1148q0 -147 62.5 -207t182.5 -60q32 0 65.5 4.5t73.5 13.5v-84q-39 -9 -75.5 -13t-74.5 -4zM8 1001v80h670v-80h-670z" />
    <glyph glyph-name="Utilde" unicode="&#x168;" horiz-adv-x="1383" 
d="M693 -18q-178 0 -292 58.5t-169 181.5t-55 314v944h90v-956q0 -237 102 -348t324 -111t323.5 111t101.5 348v956h87v-944q0 -191 -54.5 -314t-168 -181.5t-289.5 -58.5zM839 1690q-44 0 -84 13t-77 28q-33 14 -65.5 24.5t-66.5 10.5q-50 0 -87.5 -17.5t-71.5 -53.5v77
q28 31 67.5 46.5t92.5 15.5q44 0 84 -12.5t77 -28.5q33 -13 65.5 -24t66.5 -11q50 0 88 17.5t71 53.5v-77q-27 -30 -66.5 -46t-93.5 -16z" />
    <glyph glyph-name="utilde" unicode="&#x169;" horiz-adv-x="1089" 
d="M486 -18q-97 0 -172.5 34.5t-118.5 114.5t-43 214v736h90v-735q0 -157 71 -218.5t183 -61.5q55 0 116.5 17t119 54t102.5 98v846h89v-1081h-77l-8 123h-8q-69 -71 -159 -106t-185 -35zM674 1372q-41 0 -78.5 13.5t-72.5 28.5q-31 13 -61 24t-61 11q-45 0 -82 -17.5
t-70 -54.5v78q56 63 153 63q41 0 78.5 -13.5t72.5 -28.5q32 -14 62 -25t60 -11q46 0 82.5 18t69.5 55v-79q-56 -62 -153 -62z" />
    <glyph glyph-name="Umacron" unicode="&#x16a;" horiz-adv-x="1383" 
d="M693 -18q-178 0 -292 58.5t-169 181.5t-55 314v944h90v-956q0 -237 102 -348t324 -111t323.5 111t101.5 348v956h87v-944q0 -191 -54.5 -314t-168 -181.5t-289.5 -58.5zM415 1716v71h556v-71h-556z" />
    <glyph glyph-name="umacron" unicode="&#x16b;" horiz-adv-x="1089" 
d="M486 -18q-97 0 -172.5 34.5t-118.5 114.5t-43 214v736h90v-735q0 -157 71 -218.5t183 -61.5q55 0 116.5 17t119 54t102.5 98v846h89v-1081h-77l-8 123h-8q-69 -71 -159 -106t-185 -35zM249 1388v70h578v-70h-578z" />
    <glyph glyph-name="Ubreve" unicode="&#x16c;" horiz-adv-x="1383" 
d="M693 -18q-178 0 -292 58.5t-169 181.5t-55 314v944h90v-956q0 -237 102 -348t324 -111t323.5 111t101.5 348v956h87v-944q0 -191 -54.5 -314t-168 -181.5t-289.5 -58.5zM695 1625q-92 0 -155 29.5t-97 83t-41 125.5h70q12 -83 62 -126.5t161 -43.5t160 43.5t59 126.5h70
q-7 -73 -40 -126.5t-95 -82.5t-154 -29z" />
    <glyph glyph-name="ubreve" unicode="&#x16d;" horiz-adv-x="1089" 
d="M486 -18q-97 0 -172.5 34.5t-118.5 114.5t-43 214v736h90v-735q0 -157 71 -218.5t183 -61.5q55 0 116.5 17t119 54t102.5 98v846h89v-1081h-77l-8 123h-8q-69 -71 -159 -106t-185 -35zM540 1273q-125 0 -196 83t-77 232h70q8 -121 56.5 -185t146.5 -64t146 64t53 185h70
q-6 -150 -75 -232.5t-194 -82.5z" />
    <glyph glyph-name="Uring" unicode="&#x16e;" horiz-adv-x="1383" 
d="M693 -18q-178 0 -292 58.5t-169 181.5t-55 314v944h90v-956q0 -237 102 -348t324 -111t323.5 111t101.5 348v956h87v-944q0 -191 -54.5 -314t-168 -181.5t-289.5 -58.5zM693 1609q-80 0 -133.5 53t-53.5 133q0 81 53.5 133.5t133.5 52.5q81 0 134 -52.5t53 -133.5
q0 -80 -53 -133t-134 -53zM693 1666q56 0 91.5 34.5t35.5 94.5t-35.5 94.5t-91.5 34.5t-91.5 -34.5t-35.5 -94.5t35.5 -94.5t91.5 -34.5z" />
    <glyph glyph-name="uring" unicode="&#x16f;" horiz-adv-x="1089" 
d="M486 -18q-97 0 -172.5 34.5t-118.5 114.5t-43 214v736h90v-735q0 -157 71 -218.5t183 -61.5q55 0 116.5 17t119 54t102.5 98v846h89v-1081h-77l-8 123h-8q-69 -71 -159 -106t-185 -35zM538 1257q-80 0 -133.5 53t-53.5 133q0 81 53.5 134t133.5 53q81 0 134 -53t53 -134
q0 -80 -53 -133t-134 -53zM538 1314q56 0 91.5 35t35.5 94q0 61 -35.5 95t-91.5 34t-91.5 -34t-35.5 -95q0 -59 35.5 -94t91.5 -35z" />
    <glyph glyph-name="Uhungarumlaut" unicode="&#x170;" horiz-adv-x="1383" 
d="M693 -18q-178 0 -292 58.5t-169 181.5t-55 314v944h90v-956q0 -237 102 -348t324 -111t323.5 111t101.5 348v956h87v-944q0 -191 -54.5 -314t-168 -181.5t-289.5 -58.5zM807 1614l124 275h84l-132 -275h-76zM503 1614l124 275h84l-132 -275h-76z" />
    <glyph glyph-name="uhungarumlaut" unicode="&#x171;" horiz-adv-x="1089" 
d="M486 -18q-97 0 -172.5 34.5t-118.5 114.5t-43 214v736h90v-735q0 -157 71 -218.5t183 -61.5q55 0 116.5 17t119 54t102.5 98v846h89v-1081h-77l-8 123h-8q-69 -71 -159 -106t-185 -35zM652 1261l135 355h82l-144 -355h-73zM351 1261l135 355h82l-144 -355h-73z" />
    <glyph glyph-name="Uogonek" unicode="&#x172;" horiz-adv-x="1383" 
d="M785 -402q-105 0 -160 46t-55 130q0 64 37 123t126 102l5 -17h-45q-178 0 -292 58.5t-169 181.5t-55 314v944h90v-956q0 -237 102 -348t324 -111t323.5 111t101.5 348v956h87v-944q0 -215 -72 -348.5t-239 -181.5q-98 -29 -154 -65.5t-79.5 -78.5t-23.5 -85
q0 -59 37.5 -89.5t111.5 -30.5q39 0 77.5 9.5t90.5 30.5v-60q-42 -19 -84 -29t-85 -10z" />
    <glyph glyph-name="uogonek" unicode="&#x173;" horiz-adv-x="1089" 
d="M486 -18q-97 0 -172.5 34.5t-118.5 114.5t-43 214v736h90v-735q0 -157 71 -218.5t183 -61.5q55 0 116.5 17t119 54t102.5 98v846h89v-1081l-76 -1l-9 124h-8q-69 -71 -159 -106t-185 -35zM873 -404q-92 0 -143.5 46.5t-51.5 126.5q0 53 22.5 100.5t69.5 92t122 87.5
l31 -49q-64 -38 -103 -74t-57 -73.5t-18 -79.5q0 -55 34.5 -86.5t94.5 -31.5q38 0 76 11t75 33v-62q-32 -19 -72.5 -30t-79.5 -11z" />
    <glyph glyph-name="Wcircumflex" unicode="&#x174;" horiz-adv-x="2043" 
d="M495 0l-429 1480h95l409 -1431h-22l416 1431h117l417 -1431h-21l410 1431h90l-429 -1480h-122l-415 1419h23l-417 -1419h-122zM735 1614l242 275h92l242 -275h-95l-207 241h28l-207 -241h-95z" />
    <glyph glyph-name="wcircumflex" unicode="&#x175;" horiz-adv-x="1640" 
d="M396 0l-328 1081h92l304 -1018h-16l315 1018h117l316 -1018h-17l304 1018h89l-326 -1081h-117l-317 1016h17l-317 -1016h-116zM557 1261l219 355h92l219 -355h-84l-195 323h28l-195 -323h-84z" />
    <glyph glyph-name="Ycircumflex" unicode="&#x176;" horiz-adv-x="1127" 
d="M519 0v711l22 -70l-563 839h106l501 -751h-39l494 751h101l-554 -839l22 70v-711h-90zM276 1614l242 275h92l242 -275h-95l-207 241h28l-207 -241h-95z" />
    <glyph glyph-name="ycircumflex" unicode="&#x177;" horiz-adv-x="1010" 
d="M300 -440l173 440l25 55l395 1026h94l-594 -1521h-93zM445 0l-422 1081h98l414 -1081h-90zM241 1261l219 355h92l219 -355h-84l-195 323h28l-195 -323h-84z" />
    <glyph glyph-name="Ydieresis" unicode="&#x178;" horiz-adv-x="1127" 
d="M519 0v711l22 -70l-563 839h106l501 -751h-39l494 751h101l-554 -839l22 70v-711h-90zM787 1683q-32 0 -51.5 18.5t-19.5 50.5t19.5 51.5t51.5 19.5t52 -19.5t20 -51.5t-20 -50.5t-52 -18.5zM341 1683q-32 0 -52 18.5t-20 50.5t20 51.5t52 19.5t51.5 -19.5t19.5 -51.5
t-19.5 -50.5t-51.5 -18.5z" />
    <glyph glyph-name="Zacute" unicode="&#x179;" horiz-adv-x="1115" 
d="M63 0v52l873 1374l13 -28h-874v82h965v-52l-873 -1374l-13 28h898v-82h-989zM516 1614l176 275h101l-193 -275h-84z" />
    <glyph glyph-name="zacute" unicode="&#x17a;" horiz-adv-x="878" 
d="M61 0v54l648 975v-28h-636v80h736v-54l-647 -975v28h659v-80h-760zM400 1261l210 355h100l-226 -355h-84z" />
    <glyph glyph-name="Zdotaccent" unicode="&#x17b;" horiz-adv-x="1115" 
d="M63 0v52l873 1374l13 -28h-874v82h965v-52l-873 -1374l-13 28h898v-82h-989zM558 1683q-33 0 -53.5 18.5t-20.5 50.5t20.5 51.5t53.5 19.5t53.5 -19.5t20.5 -51.5t-20.5 -50.5t-53.5 -18.5z" />
    <glyph glyph-name="zdotaccent" unicode="&#x17c;" horiz-adv-x="878" 
d="M61 0v54l648 975v-28h-636v80h736v-54l-647 -975v28h659v-80h-760zM442 1351q-33 0 -53.5 19t-20.5 52t20.5 53t53.5 20t53.5 -20t20.5 -53t-20.5 -52t-53.5 -19z" />
    <glyph glyph-name="Zcaron" unicode="&#x17d;" horiz-adv-x="1115" 
d="M63 0v52l873 1374l13 -28h-874v82h965v-52l-873 -1374l-13 28h898v-82h-989zM512 1614l-242 275h95l207 -241h-28l207 241h95l-242 -275h-92z" />
    <glyph glyph-name="zcaron" unicode="&#x17e;" horiz-adv-x="878" 
d="M61 0v54l648 975v-28h-636v80h736v-54l-647 -975v28h659v-80h-760zM396 1261l-223 355h85l198 -324h-28l198 324h85l-223 -355h-92z" />
    <glyph glyph-name="uni018F" unicode="&#x18f;" horiz-adv-x="1385" 
d="M692 -18q-178 0 -310 75.5t-204.5 240t-72.5 432.5v55h1107v-81h-1050l37 32q0 -250 60 -397t170.5 -210.5t262.5 -63.5q145 0 254 63t169.5 210t60.5 397q0 255 -70.5 404t-208 212.5t-337.5 63.5q-85 0 -185 -11t-195 -37v84q97 26 192 36.5t193 10.5q221 0 379 -76
t242 -243t84 -441q0 -273 -72.5 -439.5t-203 -241.5t-302.5 -75z" />
    <glyph glyph-name="florin" unicode="&#x192;" horiz-adv-x="679" 
d="M-28 -460q-32 0 -69 3t-74 9v84q43 -7 75 -10.5t68 -3.5q129 0 194.5 57.5t65.5 190.5v1429q0 112 39.5 187t117 112.5t193.5 37.5q32 0 69 -2.5t74 -9.5v-84q-42 7 -74.5 10.5t-68.5 3.5q-129 0 -194.5 -57.5t-65.5 -190.5v-1429q0 -112 -39.5 -187t-117.5 -112.5
t-193 -37.5zM16 999v82h670v-82h-670z" />
    <glyph glyph-name="Ohorn" unicode="&#x1a0;" horiz-adv-x="1385" 
d="M692 -18q-172 0 -302 76.5t-202.5 243.5t-72.5 438t73 438t203 243.5t301 76.5q57 0 104 -6t93.5 -12t104.5 -6q91 0 144.5 39t53.5 121q0 41 -6.5 74t-18.5 68h79q13 -35 19 -67.5t6 -77.5q0 -73 -33 -124.5t-94.5 -79t-146.5 -27.5l5 18q125 -77 196.5 -242.5
t71.5 -435.5q0 -274 -72.5 -441t-202.5 -242t-303 -75zM692 66q145 0 253.5 63.5t169 210.5t60.5 396q0 253 -60.5 401.5t-169.5 212.5t-253 64t-252.5 -63.5t-169 -210.5t-60.5 -396q0 -253 60.5 -401.5t169 -212.5t252.5 -64z" />
    <glyph glyph-name="ohorn" unicode="&#x1a1;" horiz-adv-x="1071" 
d="M535 -18q-129 0 -226 56.5t-150.5 179.5t-53.5 322q0 198 53.5 321t150.5 179.5t227 56.5q53 0 98 -4.5t79 -4.5q90 0 143.5 39.5t53.5 126.5q0 41 -6.5 74t-17.5 68h78q13 -35 18.5 -67.5t5.5 -77.5q0 -76 -32.5 -129t-91.5 -80.5t-140 -27.5l29 33q213 -123 213 -507
q0 -197 -54 -320.5t-150.5 -180.5t-226.5 -57zM535 63q103 0 179 44.5t117 148.5t41 282q0 180 -41 284.5t-117 149t-179 44.5q-102 0 -178 -44t-117.5 -147.5t-41.5 -281.5q0 -180 41.5 -285t117.5 -150t178 -45z" />
    <glyph glyph-name="Uhorn" unicode="&#x1af;" horiz-adv-x="1383" 
d="M693 -18q-178 0 -292 58.5t-169 181.5t-55 314v944h90v-956q0 -237 102 -348t324 -111t323.5 111t101.5 348v956h39q91 0 144.5 36t53.5 118q0 41 -6.5 74t-18.5 68h79q13 -35 19 -67.5t6 -77.5q0 -100 -62 -156.5t-167 -63.5v-875q0 -191 -54.5 -314t-168 -181.5
t-289.5 -58.5z" />
    <glyph glyph-name="uhorn" unicode="&#x1b0;" horiz-adv-x="1110" 
d="M486 -18q-97 0 -172.5 34.5t-118.5 114.5t-43 214v736h90v-735q0 -157 71 -218.5t183 -61.5q55 0 116.5 17t119 54t102.5 98v846h40q91 0 144.5 39.5t53.5 126.5q0 41 -6.5 74t-18.5 68h78q13 -35 19 -67.5t6 -77.5q0 -76 -32.5 -129t-91.5 -80.5t-140 -27.5l37 39v-1046
h-77l-8 123h-8q-69 -71 -159 -106t-185 -35z" />
    <glyph glyph-name="uni01C4" unicode="&#x1c4;" horiz-adv-x="2422" 
d="M511 -10q-54 0 -104 2t-103.5 6t-118.5 12v1450q56 11 115.5 18.5t119 11.5t115.5 4q350 0 528 -185.5t178 -568.5q0 -260 -82 -425.5t-245 -245t-403 -79.5zM520 73q209 0 348.5 68.5t209 216t69.5 382.5q0 233 -67.5 381.5t-204 219t-342.5 70.5q-61 0 -125 -5.5
t-133 -15.5v-1302q56 -8 114 -11.5t131 -3.5zM1371 0v52l873 1374l13 -28h-874v82h965v-52l-873 -1374l-13 28h898v-82h-989zM1819 1614l-242 275h95l207 -241h-28l207 241h95l-242 -275h-92z" />
    <glyph glyph-name="uni01C5" unicode="&#x1c5;" horiz-adv-x="2234" 
d="M511 -10q-54 0 -104 2t-103.5 6t-118.5 12v1450q56 11 115.5 18.5t119 11.5t115.5 4q350 0 528 -185.5t178 -568.5q0 -260 -82 -425.5t-245 -245t-403 -79.5zM520 73q209 0 348.5 68.5t209 216t69.5 382.5q0 233 -67.5 381.5t-204 219t-342.5 70.5q-61 0 -125 -5.5
t-133 -15.5v-1302q56 -8 114 -11.5t131 -3.5zM1418 0v54l648 975v-28h-636v80h736v-54l-647 -975v28h659v-80h-760zM1752 1294l-242 275h95l207 -241h-28l207 241h95l-242 -275h-92z" />
    <glyph glyph-name="uni01C6" unicode="&#x1c6;" horiz-adv-x="1962" 
d="M523 -18q-118 0 -212.5 52t-150 169.5t-55.5 315.5q0 197 60 325.5t177 190.5t288 62q52 0 104 -4.5t95 -12.5v536h90v-1616h-78l-7 119h-9q-49 -60 -126.5 -98.5t-175.5 -38.5zM533 65q84 0 163.5 38.5t132.5 121.5v769q-40 10 -94.5 16t-106.5 6q-213 0 -321.5 -114.5
t-108.5 -373.5q0 -179 43 -279.5t118.5 -142t173.5 -41.5zM1146 0v54l648 975v-28h-636v80h736v-54l-647 -975v28h659v-80h-760zM1481 1261l-223 355h85l198 -324h-28l198 324h85l-223 -355h-92z" />
    <glyph glyph-name="uni01C7" unicode="&#x1c7;" horiz-adv-x="1498" 
d="M185 0v1480h90v-1396h750v-84h-840zM1097 -341l-63 44q65 91 107 176.5t61.5 183t19.5 224.5v1193h90v-1223q0 -121 -22.5 -219t-70 -188.5t-122.5 -190.5z" />
    <glyph glyph-name="uni01C8" unicode="&#x1c8;" horiz-adv-x="1458" 
d="M185 0v1480h90v-1396h750v-84h-840zM1077 -461l-62 44q65 90 106.5 179t61.5 187.5t20 217.5v914h89v-907q0 -130 -22.5 -236t-70 -202.5t-122.5 -196.5zM1247 1357q-33 0 -53.5 19t-20.5 52t20.5 53t53.5 20t53.5 -20t20.5 -53t-20.5 -52t-53.5 -19z" />
    <glyph glyph-name="uni01C9" unicode="&#x1c9;" horiz-adv-x="842" 
d="M166 0v1616h89v-1616h-89zM461 -461l-62 44q65 90 106.5 179t61.5 187.5t20 217.5v914h89v-907q0 -130 -22.5 -236t-70 -202.5t-122.5 -196.5zM631 1357q-33 0 -53.5 19t-20.5 52t20.5 53t53.5 20t53.5 -20t20.5 -53t-20.5 -52t-53.5 -19z" />
    <glyph glyph-name="uni01CA" unicode="&#x1ca;" horiz-adv-x="1897" 
d="M185 0v1480h97l916 -1390h-33v1390h87v-1480h-97l-916 1390h33v-1390h-87zM1497 -341l-63 44q65 91 107 176.5t61.5 183t19.5 224.5v1193h90v-1223q0 -121 -22.5 -219t-70 -188.5t-122.5 -190.5z" />
    <glyph glyph-name="uni01CB" unicode="&#x1cb;" horiz-adv-x="1858" 
d="M185 0v1480h97l916 -1390h-33v1390h87v-1480h-97l-916 1390h33v-1390h-87zM1477 -461l-62 44q65 90 106.5 179t61.5 187.5t20 217.5v914h89v-907q0 -130 -22.5 -236t-70 -202.5t-122.5 -196.5zM1647 1357q-33 0 -53.5 19t-20.5 52t20.5 53t53.5 20t53.5 -20t20.5 -53
t-20.5 -52t-53.5 -19z" />
    <glyph glyph-name="uni01CC" unicode="&#x1cc;" horiz-adv-x="1520" 
d="M166 0v1081h77l7 -127h9q69 69 159.5 106t189.5 37q100 0 176.5 -35t119.5 -114.5t43 -214.5v-733h-90v731q0 158 -70 220t-189 62q-54 0 -116 -16t-121.5 -53t-105.5 -100v-844h-89zM1139 -461l-62 44q65 90 106.5 179t61.5 187.5t20 217.5v914h89v-907
q0 -130 -22.5 -236t-70 -202.5t-122.5 -196.5zM1309 1357q-33 0 -53.5 19t-20.5 52t20.5 53t53.5 20t53.5 -20t20.5 -53t-20.5 -52t-53.5 -19z" />
    <glyph glyph-name="Gcaron" unicode="&#x1e6;" horiz-adv-x="1312" 
d="M836 -11q-236 0 -396 77.5t-242.5 242.5t-82.5 429q0 275 85 441.5t237 242.5t353 76q83 0 165 -11.5t165 -34.5v-85q-95 27 -174.5 37.5t-154.5 10.5q-174 0 -304.5 -64.5t-203.5 -212.5t-73 -399q0 -239 70 -385.5t208.5 -213.5t345.5 -67q76 0 139.5 6t120.5 17
l-32 -42v666h88v-703q-93 -16 -165 -22t-149 -6zM671 1614l-242 275h95l207 -241h-28l207 241h95l-242 -275h-92z" />
    <glyph glyph-name="gcaron" unicode="&#x1e7;" horiz-adv-x="1085" 
d="M470 -460q-69 0 -151 13t-148 37v84q81 -27 154.5 -40t143.5 -13q182 0 271 82.5t89 289.5v120h-6q-50 -55 -128 -92.5t-180 -37.5q-112 0 -205.5 51t-149 168t-55.5 317q0 296 133.5 437t384.5 141q51 0 102.5 -5t101 -15t92.5 -23v-1051q0 -250 -113 -356.5
t-336 -106.5zM529 66q85 0 166 37.5t134 114.5v772q-40 11 -95.5 18.5t-116.5 7.5q-204 0 -311.5 -114.5t-107.5 -373.5q0 -180 44 -280.5t119 -141t168 -40.5zM514 1261l-223 355h85l198 -324h-28l198 324h85l-223 -355h-92z" />
    <glyph glyph-name="uni01EA" unicode="&#x1ea;" horiz-adv-x="1385" 
d="M807 -404q-104 0 -161 45.5t-57 127.5q0 66 37.5 125t129.5 108l-1 -20h-60q-174 0 -304.5 76.5t-203 243.5t-72.5 438t73 438t203 243.5t301 76.5q172 0 302 -75t203 -242t73 -441q0 -218 -46.5 -364.5t-128 -233.5t-188.5 -127q-96 -35 -150 -74.5t-76.5 -81.5
t-22.5 -86q0 -58 38 -88t112 -30q38 0 77 9.5t90 30.5v-60q-41 -19 -83.5 -29t-84.5 -10zM692 66q145 0 253.5 63.5t169 210.5t60.5 396q0 253 -60.5 401.5t-169.5 212.5t-253 64t-252.5 -63.5t-169 -210.5t-60.5 -396q0 -253 60.5 -401.5t169 -212.5t252.5 -64z" />
    <glyph glyph-name="uni01EB" unicode="&#x1eb;" horiz-adv-x="1071" 
d="M583 -404q-88 0 -141.5 47.5t-53.5 128.5q0 69 39 129.5t117 99.5l-6 -19q-131 0 -228 56.5t-151 179.5t-54 322q0 198 53.5 321t150.5 179.5t226 56.5q130 0 227 -56t150.5 -178.5t53.5 -322.5q0 -239 -77 -368t-213 -171q-82 -26 -130.5 -63t-69.5 -79t-21 -82
q0 -59 35 -90.5t94 -31.5q35 0 67.5 8.5t65.5 24.5l18 -53q-35 -19 -74 -29t-78 -10zM535 63q103 0 179 44.5t117 148.5t41 282q0 180 -41 284.5t-117 149t-179 44.5q-102 0 -178 -44t-117.5 -147.5t-41.5 -281.5q0 -180 41.5 -285t117.5 -150t178 -45z" />
    <glyph glyph-name="uni01F1" unicode="&#x1f1;" horiz-adv-x="2422" 
d="M511 -10q-54 0 -104 2t-103.5 6t-118.5 12v1450q56 11 115.5 18.5t119 11.5t115.5 4q350 0 528 -185.5t178 -568.5q0 -260 -82 -425.5t-245 -245t-403 -79.5zM520 73q209 0 348.5 68.5t209 216t69.5 382.5q0 233 -67.5 381.5t-204 219t-342.5 70.5q-61 0 -125 -5.5
t-133 -15.5v-1302q56 -8 114 -11.5t131 -3.5zM1371 0v52l873 1374l13 -28h-874v82h965v-52l-873 -1374l-13 28h898v-82h-989z" />
    <glyph glyph-name="uni01F2" unicode="&#x1f2;" horiz-adv-x="2234" 
d="M511 -10q-54 0 -104 2t-103.5 6t-118.5 12v1450q56 11 115.5 18.5t119 11.5t115.5 4q350 0 528 -185.5t178 -568.5q0 -260 -82 -425.5t-245 -245t-403 -79.5zM520 73q209 0 348.5 68.5t209 216t69.5 382.5q0 233 -67.5 381.5t-204 219t-342.5 70.5q-61 0 -125 -5.5
t-133 -15.5v-1302q56 -8 114 -11.5t131 -3.5zM1418 0v54l648 975v-28h-636v80h736v-54l-647 -975v28h659v-80h-760z" />
    <glyph glyph-name="uni01F3" unicode="&#x1f3;" horiz-adv-x="1962" 
d="M523 -18q-118 0 -212.5 52t-150 169.5t-55.5 315.5q0 197 60 325.5t177 190.5t288 62q52 0 104 -4.5t95 -12.5v536h90v-1616h-78l-7 119h-9q-49 -60 -126.5 -98.5t-175.5 -38.5zM533 65q84 0 163.5 38.5t132.5 121.5v769q-40 10 -94.5 16t-106.5 6q-213 0 -321.5 -114.5
t-108.5 -373.5q0 -179 43 -279.5t118.5 -142t173.5 -41.5zM1146 0v54l648 975v-28h-636v80h736v-54l-647 -975v28h659v-80h-760z" />
    <glyph glyph-name="uni01F4" unicode="&#x1f4;" horiz-adv-x="1312" 
d="M836 -11q-236 0 -396 77.5t-242.5 242.5t-82.5 429q0 275 85 441.5t237 242.5t353 76q83 0 165 -11.5t165 -34.5v-85q-95 27 -174.5 37.5t-154.5 10.5q-174 0 -304.5 -64.5t-203.5 -212.5t-73 -399q0 -239 70 -385.5t208.5 -213.5t345.5 -67q76 0 139.5 6t120.5 17
l-32 -42v666h88v-703q-93 -16 -165 -22t-149 -6zM675 1614l176 275h101l-193 -275h-84z" />
    <glyph glyph-name="uni01F5" unicode="&#x1f5;" horiz-adv-x="1085" 
d="M470 -460q-69 0 -151 13t-148 37v84q81 -27 154.5 -40t143.5 -13q182 0 271 82.5t89 289.5v120h-6q-50 -55 -128 -92.5t-180 -37.5q-112 0 -205.5 51t-149 168t-55.5 317q0 296 133.5 437t384.5 141q51 0 102.5 -5t101 -15t92.5 -23v-1051q0 -250 -113 -356.5
t-336 -106.5zM529 66q85 0 166 37.5t134 114.5v772q-40 11 -95.5 18.5t-116.5 7.5q-204 0 -311.5 -114.5t-107.5 -373.5q0 -180 44 -280.5t119 -141t168 -40.5zM518 1261l210 355h100l-226 -355h-84z" />
    <glyph glyph-name="Aringacute" unicode="&#x1fa;" horiz-adv-x="1301" 
d="M35 0l556 1480h119l556 -1480h-96l-533 1431h25l-533 -1431h-94zM289 517l25 82h673l24 -82h-722zM651 1609q-80 0 -133.5 53.5t-53.5 133.5q0 81 53.5 133.5t133.5 52.5q81 0 134 -52.5t53 -133.5q0 -80 -53 -133.5t-134 -53.5zM651 1667q56 0 91.5 34.5t35.5 94.5
t-35.5 94.5t-91.5 34.5t-91.5 -34.5t-35.5 -94.5t35.5 -94.5t91.5 -34.5zM789 1904l-56 33l152 154h94z" />
    <glyph glyph-name="aringacute" unicode="&#x1fb;" horiz-adv-x="991" 
d="M422 -16q-147 0 -232.5 75t-85.5 211t88 212.5t279 97.5l319 37l6 -75l-324 -38q-145 -16 -209 -71.5t-64 -154.5q0 -105 59 -160t175 -55q85 0 168 37.5t149 123.5v516q0 109 -34 169t-99.5 83.5t-160.5 23.5q-61 0 -137 -11.5t-154 -38.5v83q64 23 144 35.5t152 12.5
q121 0 205.5 -33t128.5 -111.5t44 -214.5v-738h-78l-7 126h-9q-54 -67 -139.5 -104.5t-183.5 -37.5zM491 1257q-80 0 -133 53t-53 133q0 81 53 134t133 53q82 0 134.5 -53t52.5 -134q0 -80 -52.5 -133t-134.5 -53zM491 1314q56 0 91.5 35t35.5 94q0 61 -35.5 95t-91.5 34
q-55 0 -90.5 -34t-35.5 -95q0 -59 35.5 -94t90.5 -35zM621 1554l-56 29l164 197h91z" />
    <glyph glyph-name="AEacute" unicode="&#x1fc;" horiz-adv-x="1777" 
d="M35 0l566 1480h272l-2 -83h-211l-531 -1397h-94zM295 516l24 83h610v-83h-634zM923 0l-95 1480h868v-83h-775l87 -1314h698v-83h-783zM935 719v83h665v-83h-665zM832 1614l176 275h101l-193 -275h-84z" />
    <glyph glyph-name="aeacute" unicode="&#x1fd;" horiz-adv-x="1628" 
d="M1217 -18q-150 0 -254 56.5t-158.5 180t-54.5 324.5l10 10q0 191 47.5 311.5t135 177t206.5 56.5q122 0 209 -57t134.5 -180t47.5 -319v-37h-731v76h669l-29 -31q0 176 -36 278.5t-103.5 147.5t-161.5 45t-163.5 -45t-107.5 -146.5t-38 -273.5v-25q0 -171 44.5 -274
t130.5 -148.5t211 -45.5q59 0 124 12t140 36v-83q-73 -24 -140 -35t-132 -11zM426 -16q-98 0 -170 33t-112 97t-40 155t39.5 161.5t127 110.5t231.5 40h281v-75h-282q-113 0 -179 -30t-94.5 -81.5t-28.5 -117.5q0 -105 60.5 -159.5t175.5 -54.5q93 0 188.5 47.5t167.5 172.5
l44 -69q-94 -135 -198.5 -182.5t-210.5 -47.5zM750 543v199q0 109 -34 168.5t-99.5 82.5t-160.5 23q-61 0 -137 -11.5t-154 -38.5v83q64 24 143.5 36t151.5 12q119 0 201.5 -33t125 -111t42.5 -212v-217zM753 1261l210 355h100l-226 -355h-84z" />
    <glyph glyph-name="Oslashacute" unicode="&#x1fe;" horiz-adv-x="1385" 
d="M198 0h-89l1074 1480h90zM692 -18q-173 0 -302.5 76.5t-202 243.5t-72.5 438t73 438t203 243.5t301 76.5q173 0 303 -76.5t202.5 -243.5t72.5 -438t-73 -438t-203 -243.5t-302 -76.5zM692 66q145 0 253.5 63.5t169 210.5t60.5 396q0 253 -60.5 401.5t-169.5 212.5
t-253 64t-252.5 -63.5t-169 -210.5t-60.5 -396q0 -253 60.5 -401.5t169 -212.5t252.5 -64zM647 1614l176 275h101l-193 -275h-84z" />
    <glyph glyph-name="oslashacute" unicode="&#x1ff;" horiz-adv-x="1071" 
d="M865 944q48 -67 74.5 -167t26.5 -237q0 -197 -54 -320.5t-150.5 -180.5t-226.5 -57q-84 0 -155.5 24t-125.5 76l-59 -83h-88l98 138q-48 68 -74 167.5t-26 235.5q0 198 53.5 321t150.5 179.5t226 56.5q85 0 156 -23.5t125 -75.5l59 85h88zM535 1017q-103 0 -179 -44.5
t-117.5 -148t-41.5 -281.5q0 -109 17 -190.5t48 -136.5l505 711q-43 48 -102 69t-130 21zM535 63q103 0 179 44.5t117.5 148.5t41.5 282q0 110 -16.5 191t-48.5 137l-504 -712q43 -49 101.5 -70t129.5 -21zM488 1261l210 355h100l-226 -355h-84z" />
    <glyph glyph-name="uni0200" unicode="&#x200;" horiz-adv-x="1301" 
d="M35 0l556 1480h119l556 -1480h-96l-533 1431h25l-533 -1431h-94zM289 517l25 82h673l24 -82h-722zM765 1614l-132 275h84l124 -275h-76zM461 1614l-132 275h84l124 -275h-76z" />
    <glyph glyph-name="uni0201" unicode="&#x201;" horiz-adv-x="991" 
d="M422 -16q-147 0 -232.5 75t-85.5 211t88 212.5t279 97.5l319 37l6 -75l-324 -38q-145 -16 -209 -71.5t-64 -154.5q0 -105 59 -160t175 -55q85 0 168 37.5t149 123.5v516q0 109 -34 169t-99.5 83.5t-160.5 23.5q-61 0 -137 -11.5t-154 -38.5v83q64 23 144 35.5t152 12.5
q121 0 205.5 -33t128.5 -111.5t44 -214.5v-738h-78l-7 126h-9q-54 -67 -139.5 -104.5t-183.5 -37.5zM605 1261l-144 355h86l134 -355h-76zM301 1261l-144 355h86l134 -355h-76z" />
    <glyph glyph-name="uni0202" unicode="&#x202;" horiz-adv-x="1301" 
d="M35 0l556 1480h119l556 -1480h-96l-533 1431h25l-533 -1431h-94zM289 517l25 82h673l24 -82h-722zM360 1640q7 73 40 126.5t95 82.5t154 29t155 -29.5t97 -83t41 -125.5h-70q-11 84 -61.5 127t-161.5 43t-160 -43t-59 -127h-70z" />
    <glyph glyph-name="uni0203" unicode="&#x203;" horiz-adv-x="991" 
d="M422 -16q-147 0 -232.5 75t-85.5 211t88 212.5t279 97.5l319 37l6 -75l-324 -38q-145 -16 -209 -71.5t-64 -154.5q0 -105 59 -160t175 -55q85 0 168 37.5t149 123.5v516q0 109 -34 169t-99.5 83.5t-160.5 23.5q-61 0 -137 -11.5t-154 -38.5v83q64 23 144 35.5t152 12.5
q121 0 205.5 -33t128.5 -111.5t44 -214.5v-738h-78l-7 126h-9q-54 -67 -139.5 -104.5t-183.5 -37.5zM220 1289q6 153 75 234.5t194 81.5q126 0 196.5 -82.5t76.5 -233.5h-70q-7 122 -56.5 185t-146.5 63q-96 0 -144.5 -63t-54.5 -185h-70z" />
    <glyph glyph-name="uni0204" unicode="&#x204;" horiz-adv-x="1127" 
d="M185 0v1480h861v-83h-771v-1314h781v-83h-871zM247 719v83h703v-83h-703zM752 1614l-132 275h84l124 -275h-76zM448 1614l-132 275h84l124 -275h-76z" />
    <glyph glyph-name="uni0205" unicode="&#x205;" horiz-adv-x="995" 
d="M580 -18q-152 0 -258.5 56.5t-161.5 179.5t-55 323q0 195 51 318t142.5 180.5t214.5 57.5t211 -57.5t135.5 -180.5t47.5 -319v-35h-757v76h695l-29 -25q0 171 -36 272.5t-104 146.5t-163 45q-96 0 -166.5 -44.5t-109.5 -146t-39 -273.5v-25q0 -171 45 -274t132 -148.5
t213 -45.5q61 0 126 12t142 36v-83q-74 -24 -141.5 -35t-134.5 -11zM627 1261l-144 355h86l134 -355h-76zM323 1261l-144 355h86l134 -355h-76z" />
    <glyph glyph-name="uni0206" unicode="&#x206;" horiz-adv-x="1127" 
d="M185 0v1480h861v-83h-771v-1314h781v-83h-871zM247 719v83h703v-83h-703zM347 1640q7 73 40 126.5t95 82.5t154 29t155 -29.5t97 -83t41 -125.5h-70q-11 84 -61.5 127t-161.5 43t-160 -43t-59 -127h-70z" />
    <glyph glyph-name="uni0207" unicode="&#x207;" horiz-adv-x="995" 
d="M580 -18q-152 0 -258.5 56.5t-161.5 179.5t-55 323q0 195 51 318t142.5 180.5t214.5 57.5t211 -57.5t135.5 -180.5t47.5 -319v-35h-757v76h695l-29 -25q0 171 -36 272.5t-104 146.5t-163 45q-96 0 -166.5 -44.5t-109.5 -146t-39 -273.5v-25q0 -171 45 -274t132 -148.5
t213 -45.5q61 0 126 12t142 36v-83q-74 -24 -141.5 -35t-134.5 -11zM242 1289q6 153 75 234.5t194 81.5q126 0 196.5 -82.5t76.5 -233.5h-70q-7 122 -56.5 185t-146.5 63q-96 0 -144.5 -63t-54.5 -185h-70z" />
    <glyph glyph-name="uni0208" unicode="&#x208;" horiz-adv-x="460" 
d="M185 0v1480h90v-1480h-90zM344 1614l-132 275h84l124 -275h-76zM40 1614l-132 275h84l124 -275h-76z" />
    <glyph glyph-name="uni0209" unicode="&#x209;" horiz-adv-x="421" 
d="M166 0v1081h89v-1081h-89zM324 1261l-144 355h86l134 -355h-76zM20 1261l-144 355h86l134 -355h-76z" />
    <glyph glyph-name="uni020A" unicode="&#x20a;" horiz-adv-x="460" 
d="M185 0v1480h90v-1480h-90zM-61 1640q7 73 40 126.5t95 82.5t154 29t155 -29.5t97 -83t41 -125.5h-70q-11 84 -61.5 127t-161.5 43t-160 -43t-59 -127h-70z" />
    <glyph glyph-name="uni020B" unicode="&#x20b;" horiz-adv-x="421" 
d="M166 0v1081h89v-1081h-89zM-61 1289q6 153 75 234.5t194 81.5q126 0 196.5 -82.5t76.5 -233.5h-70q-7 122 -56.5 185t-146.5 63q-96 0 -144.5 -63t-54.5 -185h-70z" />
    <glyph glyph-name="uni020C" unicode="&#x20c;" horiz-adv-x="1385" 
d="M692 -18q-173 0 -302.5 76.5t-202 243.5t-72.5 438t73 438t203 243.5t301 76.5q173 0 303 -76.5t202.5 -243.5t72.5 -438t-73 -438t-203 -243.5t-302 -76.5zM692 66q145 0 253.5 63.5t169 210.5t60.5 396q0 253 -60.5 401.5t-169.5 212.5t-253 64t-252.5 -63.5
t-169 -210.5t-60.5 -396q0 -253 60.5 -401.5t169 -212.5t252.5 -64zM806 1614l-132 275h84l124 -275h-76zM502 1614l-132 275h84l124 -275h-76z" />
    <glyph glyph-name="uni020D" unicode="&#x20d;" horiz-adv-x="1071" 
d="M535 -18q-129 0 -226 56.5t-150.5 179.5t-53.5 322q0 198 53.5 321t150.5 179.5t226 56.5q130 0 227 -56t150.5 -178.5t53.5 -322.5q0 -197 -54 -320.5t-150.5 -180.5t-226.5 -57zM535 63q103 0 179 44.5t117 148.5t41 282q0 180 -41 284.5t-117 149t-179 44.5
q-102 0 -178 -44t-117.5 -147.5t-41.5 -281.5q0 -180 41.5 -285t117.5 -150t178 -45zM649 1261l-144 355h86l134 -355h-76zM345 1261l-144 355h86l134 -355h-76z" />
    <glyph glyph-name="uni020E" unicode="&#x20e;" horiz-adv-x="1385" 
d="M692 -18q-173 0 -302.5 76.5t-202 243.5t-72.5 438t73 438t203 243.5t301 76.5q173 0 303 -76.5t202.5 -243.5t72.5 -438t-73 -438t-203 -243.5t-302 -76.5zM692 66q145 0 253.5 63.5t169 210.5t60.5 396q0 253 -60.5 401.5t-169.5 212.5t-253 64t-252.5 -63.5
t-169 -210.5t-60.5 -396q0 -253 60.5 -401.5t169 -212.5t252.5 -64zM401 1640q7 73 40 126.5t95 82.5t154 29t155 -29.5t97 -83t41 -125.5h-70q-11 84 -61.5 127t-161.5 43t-160 -43t-59 -127h-70z" />
    <glyph glyph-name="uni020F" unicode="&#x20f;" horiz-adv-x="1071" 
d="M535 -18q-129 0 -226 56.5t-150.5 179.5t-53.5 322q0 198 53.5 321t150.5 179.5t226 56.5q130 0 227 -56t150.5 -178.5t53.5 -322.5q0 -197 -54 -320.5t-150.5 -180.5t-226.5 -57zM535 63q103 0 179 44.5t117 148.5t41 282q0 180 -41 284.5t-117 149t-179 44.5
q-102 0 -178 -44t-117.5 -147.5t-41.5 -281.5q0 -180 41.5 -285t117.5 -150t178 -45zM264 1289q6 153 75 234.5t194 81.5q126 0 196.5 -82.5t76.5 -233.5h-70q-7 122 -56.5 185t-146.5 63q-96 0 -144.5 -63t-54.5 -185h-70z" />
    <glyph glyph-name="uni0210" unicode="&#x210;" horiz-adv-x="1276" 
d="M185 0v1460q52 9 107.5 17t119 12.5t137.5 4.5q281 0 416 -102t135 -320q0 -143 -66.5 -238.5t-199.5 -143.5t-333 -48q-69 0 -120.5 2.5t-105.5 6.5v-651h-90zM1100 0l-542 701h108l545 -701h-111zM500 722q272 0 391.5 86.5t119.5 261.5q0 123 -47.5 198.5t-149.5 110
t-265 34.5q-86 0 -148 -6t-126 -17v-658q42 -4 76 -6t68.5 -3t80.5 -1zM722 1614l-132 275h84l124 -275h-76zM418 1614l-132 275h84l124 -275h-76z" />
    <glyph glyph-name="uni0211" unicode="&#x211;" horiz-adv-x="685" 
d="M166 0v1081h77l8 -146h8q60 75 148.5 115t180.5 40q24 0 44 -1.5t40 -5.5v-87q-21 3 -41.5 4t-45.5 1q-56 0 -117.5 -19t-117 -58t-95.5 -98v-826h-89zM521 1261l-144 355h86l134 -355h-76zM217 1261l-144 355h86l134 -355h-76z" />
    <glyph glyph-name="uni0212" unicode="&#x212;" horiz-adv-x="1276" 
d="M185 0v1460q52 9 107.5 17t119 12.5t137.5 4.5q281 0 416 -102t135 -320q0 -143 -66.5 -238.5t-199.5 -143.5t-333 -48q-69 0 -120.5 2.5t-105.5 6.5v-651h-90zM1100 0l-542 701h108l545 -701h-111zM500 722q272 0 391.5 86.5t119.5 261.5q0 123 -47.5 198.5t-149.5 110
t-265 34.5q-86 0 -148 -6t-126 -17v-658q42 -4 76 -6t68.5 -3t80.5 -1zM317 1640q7 73 40 126.5t95 82.5t154 29t155 -29.5t97 -83t41 -125.5h-70q-11 84 -61.5 127t-161.5 43t-160 -43t-59 -127h-70z" />
    <glyph glyph-name="uni0213" unicode="&#x213;" horiz-adv-x="685" 
d="M166 0v1081h77l8 -146h8q60 75 148.5 115t180.5 40q24 0 44 -1.5t40 -5.5v-87q-21 3 -41.5 4t-45.5 1q-56 0 -117.5 -19t-117 -58t-95.5 -98v-826h-89zM136 1289q6 153 75 234.5t194 81.5q126 0 196.5 -82.5t76.5 -233.5h-70q-7 122 -56.5 185t-146.5 63
q-96 0 -144.5 -63t-54.5 -185h-70z" />
    <glyph glyph-name="uni0214" unicode="&#x214;" horiz-adv-x="1383" 
d="M693 -18q-178 0 -292 58.5t-169 181.5t-55 314v944h90v-956q0 -237 102 -348t324 -111t323.5 111t101.5 348v956h87v-944q0 -191 -54.5 -314t-168 -181.5t-289.5 -58.5zM807 1614l-132 275h84l124 -275h-76zM503 1614l-132 275h84l124 -275h-76z" />
    <glyph glyph-name="uni0215" unicode="&#x215;" horiz-adv-x="1089" 
d="M486 -18q-97 0 -172.5 34.5t-118.5 114.5t-43 214v736h90v-735q0 -157 71 -218.5t183 -61.5q55 0 116.5 17t119 54t102.5 98v846h89v-1081h-77l-8 123h-8q-69 -71 -159 -106t-185 -35zM652 1261l-144 355h86l134 -355h-76zM348 1261l-144 355h86l134 -355h-76z" />
    <glyph glyph-name="uni0216" unicode="&#x216;" horiz-adv-x="1383" 
d="M693 -18q-178 0 -292 58.5t-169 181.5t-55 314v944h90v-956q0 -237 102 -348t324 -111t323.5 111t101.5 348v956h87v-944q0 -191 -54.5 -314t-168 -181.5t-289.5 -58.5zM402 1640q7 73 40 126.5t95 82.5t154 29t155 -29.5t97 -83t41 -125.5h-70q-11 84 -61.5 127
t-161.5 43t-160 -43t-59 -127h-70z" />
    <glyph glyph-name="uni0217" unicode="&#x217;" horiz-adv-x="1089" 
d="M486 -18q-97 0 -172.5 34.5t-118.5 114.5t-43 214v736h90v-735q0 -157 71 -218.5t183 -61.5q55 0 116.5 17t119 54t102.5 98v846h89v-1081h-77l-8 123h-8q-69 -71 -159 -106t-185 -35zM267 1289q6 153 75 234.5t194 81.5q126 0 196.5 -82.5t76.5 -233.5h-70
q-7 122 -56.5 185t-146.5 63q-96 0 -144.5 -63t-54.5 -185h-70z" />
    <glyph glyph-name="uni0218" unicode="&#x218;" horiz-adv-x="1022" 
d="M444 -18q-80 0 -170 14t-174 43v85q62 -21 122 -34t116.5 -19t108.5 -6q199 0 299 80t100 235q0 132 -76 201.5t-252 114.5l-66 17q-186 49 -278 143.5t-92 250.5q0 181 123.5 286t364.5 105q79 0 160.5 -11t149.5 -34v-85q-77 25 -155 36t-157 11q-132 0 -219 -35
t-130 -103t-43 -165q0 -128 70 -198t239 -115l66 -17q134 -34 220 -87t127.5 -129.5t41.5 -180.5q0 -130 -58 -220t-169 -136.5t-269 -46.5zM487 -452q22 55 29 95.5t7 77.5l9 -35h-13q-33 0 -52.5 19t-19.5 49t18.5 48.5t49.5 18.5q36 0 56 -22.5t20 -69.5
q0 -37 -11.5 -85.5t-35.5 -95.5h-57z" />
    <glyph glyph-name="uni0219" unicode="&#x219;" horiz-adv-x="867" 
d="M396 -18q-76 0 -144 10t-135 31v83q80 -24 146.5 -34t135.5 -10q155 0 227.5 56.5t72.5 159.5q0 89 -45.5 136.5t-152.5 70.5l-133 29q-146 33 -207 104.5t-61 180.5q0 129 96.5 213.5t296.5 84.5q65 0 124 -7t116 -23v-82q-66 18 -121.5 25t-117.5 7
q-110 0 -176.5 -28.5t-96.5 -77t-30 -108.5q0 -78 42 -129t148 -75l133 -28q152 -33 213.5 -103.5t61.5 -183.5q0 -139 -98.5 -220.5t-294.5 -81.5zM407 -452q22 55 29 95.5t7 77.5l9 -35h-13q-33 0 -52.5 19t-19.5 49t18.5 48.5t49.5 18.5q36 0 56 -22.5t20 -69.5
q0 -37 -11.5 -85.5t-35.5 -95.5h-57z" />
    <glyph glyph-name="uni021A" unicode="&#x21a;" horiz-adv-x="1127" 
d="M518 0v1396h-504v84h1099v-84h-504v-1396h-91zM532 -452q22 55 29 95.5t7 77.5l9 -35h-13q-33 0 -52.5 19t-19.5 49t18.5 48.5t49.5 18.5q36 0 56 -22.5t20 -69.5q0 -37 -11.5 -85.5t-35.5 -95.5h-57z" />
    <glyph glyph-name="uni021B" unicode="&#x21b;" horiz-adv-x="707" 
d="M548 -18q-152 0 -238 79t-86 256v764l13 399h77v-1148q0 -147 62.5 -207t182.5 -60q32 0 65.5 4.5t73.5 13.5v-84q-39 -9 -75.5 -13t-74.5 -4zM8 1001v80h670v-80h-670zM430 -452q22 55 29 95.5t7 77.5l9 -35h-13q-33 0 -52.5 19t-19.5 49t18.5 48.5t49.5 18.5
q36 0 56 -22.5t20 -69.5q0 -37 -11.5 -85.5t-35.5 -95.5h-57z" />
    <glyph glyph-name="uni022A" unicode="&#x22a;" horiz-adv-x="1385" 
d="M692 -18q-173 0 -302.5 76.5t-202 243.5t-72.5 438t73 438t203 243.5t301 76.5q173 0 303 -76.5t202.5 -243.5t72.5 -438t-73 -438t-203 -243.5t-302 -76.5zM692 66q145 0 253.5 63.5t169 210.5t60.5 396q0 253 -60.5 401.5t-169.5 212.5t-253 64t-252.5 -63.5
t-169 -210.5t-60.5 -396q0 -253 60.5 -401.5t169 -212.5t252.5 -64zM915 1683q-32 0 -51.5 18.5t-19.5 50.5t19.5 51.5t51.5 19.5t52 -19.5t20 -51.5t-20 -50.5t-52 -18.5zM469 1683q-32 0 -52 18.5t-20 50.5t20 51.5t52 19.5t51.5 -19.5t19.5 -51.5t-19.5 -50.5
t-51.5 -18.5zM414 1956v71h556v-71h-556z" />
    <glyph glyph-name="uni022B" unicode="&#x22b;" horiz-adv-x="1071" 
d="M535 -18q-129 0 -226 56.5t-150.5 179.5t-53.5 322q0 198 53.5 321t150.5 179.5t226 56.5q130 0 227 -56t150.5 -178.5t53.5 -322.5q0 -197 -54 -320.5t-150.5 -180.5t-226.5 -57zM535 63q103 0 179 44.5t117 148.5t41 282q0 180 -41 284.5t-117 149t-179 44.5
q-102 0 -178 -44t-117.5 -147.5t-41.5 -281.5q0 -180 41.5 -285t117.5 -150t178 -45zM739 1351q-32 0 -52 19.5t-20 51.5q0 33 20 52.5t52 19.5t51.5 -19.5t19.5 -52.5q0 -32 -19.5 -51.5t-51.5 -19.5zM331 1351q-32 0 -51.5 19.5t-19.5 51.5q0 33 19.5 52.5t51.5 19.5
t52 -19.5t20 -52.5q0 -32 -20 -51.5t-52 -19.5zM246 1663v70h578v-70h-578z" />
    <glyph glyph-name="uni022C" unicode="&#x22c;" horiz-adv-x="1385" 
d="M692 -18q-173 0 -302.5 76.5t-202 243.5t-72.5 438t73 438t203 243.5t301 76.5q173 0 303 -76.5t202.5 -243.5t72.5 -438t-73 -438t-203 -243.5t-302 -76.5zM692 66q145 0 253.5 63.5t169 210.5t60.5 396q0 253 -60.5 401.5t-169.5 212.5t-253 64t-252.5 -63.5
t-169 -210.5t-60.5 -396q0 -253 60.5 -401.5t169 -212.5t252.5 -64zM838 1690q-44 0 -84 13t-77 28q-33 14 -65.5 24.5t-66.5 10.5q-50 0 -87.5 -17.5t-71.5 -53.5v77q28 31 67.5 46.5t92.5 15.5q44 0 84 -12.5t77 -28.5q33 -13 65.5 -24t66.5 -11q50 0 88 17.5t71 53.5v-77
q-27 -30 -66.5 -46t-93.5 -16zM414 1954v71h556v-71h-556z" />
    <glyph glyph-name="uni022D" unicode="&#x22d;" horiz-adv-x="1071" 
d="M535 -18q-129 0 -226 56.5t-150.5 179.5t-53.5 322q0 198 53.5 321t150.5 179.5t226 56.5q130 0 227 -56t150.5 -178.5t53.5 -322.5q0 -197 -54 -320.5t-150.5 -180.5t-226.5 -57zM535 63q103 0 179 44.5t117 148.5t41 282q0 180 -41 284.5t-117 149t-179 44.5
q-102 0 -178 -44t-117.5 -147.5t-41.5 -281.5q0 -180 41.5 -285t117.5 -150t178 -45zM671 1372q-41 0 -78.5 13.5t-72.5 28.5q-31 13 -61 24t-61 11q-45 0 -82 -17.5t-70 -54.5v78q56 63 153 63q41 0 78.5 -13.5t72.5 -28.5q32 -14 62 -25t60 -11q46 0 82.5 18t69.5 55v-79
q-56 -62 -153 -62zM246 1663v70h578v-70h-578z" />
    <glyph glyph-name="uni0230" unicode="&#x230;" horiz-adv-x="1385" 
d="M692 -18q-173 0 -302.5 76.5t-202 243.5t-72.5 438t73 438t203 243.5t301 76.5q173 0 303 -76.5t202.5 -243.5t72.5 -438t-73 -438t-203 -243.5t-302 -76.5zM692 66q145 0 253.5 63.5t169 210.5t60.5 396q0 253 -60.5 401.5t-169.5 212.5t-253 64t-252.5 -63.5
t-169 -210.5t-60.5 -396q0 -253 60.5 -401.5t169 -212.5t252.5 -64zM692 1683q-33 0 -53.5 18.5t-20.5 50.5t20.5 51.5t53.5 19.5t53.5 -19.5t20.5 -51.5t-20.5 -50.5t-53.5 -18.5zM414 1954v71h556v-71h-556z" />
    <glyph glyph-name="uni0231" unicode="&#x231;" horiz-adv-x="1071" 
d="M535 -18q-129 0 -226 56.5t-150.5 179.5t-53.5 322q0 198 53.5 321t150.5 179.5t226 56.5q130 0 227 -56t150.5 -178.5t53.5 -322.5q0 -197 -54 -320.5t-150.5 -180.5t-226.5 -57zM535 63q103 0 179 44.5t117 148.5t41 282q0 180 -41 284.5t-117 149t-179 44.5
q-102 0 -178 -44t-117.5 -147.5t-41.5 -281.5q0 -180 41.5 -285t117.5 -150t178 -45zM535 1351q-33 0 -53.5 19t-20.5 52t20.5 53t53.5 20t53.5 -20t20.5 -53t-20.5 -52t-53.5 -19zM246 1661v70h578v-70h-578z" />
    <glyph glyph-name="uni0232" unicode="&#x232;" horiz-adv-x="1127" 
d="M519 0v711l22 -70l-563 839h106l501 -751h-39l494 751h101l-554 -839l22 70v-711h-90zM286 1716v71h556v-71h-556z" />
    <glyph glyph-name="uni0233" unicode="&#x233;" horiz-adv-x="1010" 
d="M300 -440l173 440l25 55l395 1026h94l-594 -1521h-93zM445 0l-422 1081h98l414 -1081h-90zM217 1388v70h578v-70h-578z" />
    <glyph glyph-name="uni0237" unicode="&#x237;" horiz-adv-x="421" 
d="M40 -461l-62 44q65 90 106.5 179t61.5 187.5t20 217.5v914h89v-907q0 -130 -22.5 -236t-70 -202.5t-122.5 -196.5z" />
    <glyph glyph-name="uni0259" unicode="&#x259;" horiz-adv-x="995" 
d="M415 1099q152 0 258.5 -56.5t161.5 -179.5t55 -323q0 -195 -51 -318t-142.5 -180.5t-214.5 -57.5t-211 57.5t-135.5 180.5t-47.5 319v35h757v-76h-695l29 25q0 -171 36 -272.5t104 -146.5t163 -45q96 0 166.5 44.5t109.5 146t39 273.5v25q0 171 -45 274t-132 148.5
t-213 45.5q-61 0 -126 -12t-142 -36v83q74 24 141.5 35t134.5 11z" />
    <glyph glyph-name="uni02BB" unicode="&#x2bb;" horiz-adv-x="1012" 
d="M510 1351q-36 0 -56 23t-20 68q0 38 12 87t35 95h57q-22 -55 -29 -95.5t-7 -77.5l-9 35h13q33 0 52.5 -19t19.5 -50q0 -29 -18 -47.5t-50 -18.5z" />
    <glyph glyph-name="uni02BC" unicode="&#x2bc;" horiz-adv-x="1012" 
d="M546 1351q22 55 29 95.5t7 77.5l9 -34h-13q-33 0 -52.5 19t-19.5 49q0 29 19 47.5t49 18.5q36 0 56 -22.5t20 -68.5q0 -38 -11.5 -86.5t-35.5 -95.5h-57z" />
    <glyph glyph-name="uni02BE" unicode="&#x2be;" horiz-adv-x="1012" 
d="M506 1257v57q56 0 91.5 35t35.5 94q0 61 -35.5 95t-91.5 34v58q81 0 134 -53t53 -134q0 -80 -53 -133t-134 -53z" />
    <glyph glyph-name="uni02BF" unicode="&#x2bf;" horiz-adv-x="1012" 
d="M506 1257q-80 0 -133.5 53t-53.5 133q0 81 53.5 134t133.5 53v-58q-56 0 -91.5 -34t-35.5 -95q0 -59 35.5 -94t91.5 -35v-57z" />
    <glyph glyph-name="circumflex" unicode="&#x2c6;" horiz-adv-x="1012" 
d="M335 1261l219 355h92l219 -355h-84l-195 323h28l-195 -323h-84z" />
    <glyph glyph-name="caron" unicode="&#x2c7;" horiz-adv-x="1012" 
d="M554 1261l-223 355h85l198 -324h-28l198 324h85l-223 -355h-92z" />
    <glyph glyph-name="uni02C8" unicode="&#x2c8;" horiz-adv-x="1200" 
d="M566 1218v400h68v-400h-68z" />
    <glyph glyph-name="uni02C9" unicode="&#x2c9;" horiz-adv-x="1012" 
d="M217 1388v70h578v-70h-578z" />
    <glyph glyph-name="uni02CA" unicode="&#x2ca;" horiz-adv-x="1012" 
d="M464 1261l209 355h102l-226 -355h-85z" />
    <glyph glyph-name="uni02CB" unicode="&#x2cb;" horiz-adv-x="1012" 
d="M464 1261l-227 355h102l210 -355h-85z" />
    <glyph glyph-name="uni02CC" unicode="&#x2cc;" horiz-adv-x="1200" 
d="M566 -440v400h68v-400h-68z" />
    <glyph glyph-name="breve" unicode="&#x2d8;" horiz-adv-x="1012" 
d="M602 1273q-125 0 -196 83t-77 232h70q8 -121 56.5 -185t146.5 -64t146 64t53 185h70q-6 -150 -75 -232.5t-194 -82.5z" />
    <glyph glyph-name="dotaccent" unicode="&#x2d9;" horiz-adv-x="1012" 
d="M600 1351q-33 0 -53.5 19t-20.5 52t20.5 53t53.5 20t53.5 -20t20.5 -53t-20.5 -52t-53.5 -19z" />
    <glyph glyph-name="ring" unicode="&#x2da;" horiz-adv-x="1012" 
d="M600 1257q-80 0 -133.5 53t-53.5 133q0 81 53.5 134t133.5 53q81 0 134 -53t53 -134q0 -80 -53 -133t-134 -53zM600 1314q56 0 91.5 35t35.5 94q0 61 -35.5 95t-91.5 34t-91.5 -34t-35.5 -95q0 -59 35.5 -94t91.5 -35z" />
    <glyph glyph-name="ogonek" unicode="&#x2db;" horiz-adv-x="1012" 
d="M550 -404q-92 0 -143.5 46.5t-51.5 126.5q0 53 22.5 100.5t69.5 92t122 87.5l31 -49q-64 -38 -103 -74t-57 -73.5t-18 -79.5q0 -55 34.5 -86.5t94.5 -31.5q38 0 76 11t75 33v-62q-32 -19 -72.5 -30t-79.5 -11z" />
    <glyph glyph-name="tilde" unicode="&#x2dc;" horiz-adv-x="1012" 
d="M736 1372q-41 0 -78.5 13.5t-72.5 28.5q-31 13 -61 24t-61 11q-45 0 -82 -17.5t-70 -54.5v78q56 63 153 63q41 0 78.5 -13.5t72.5 -28.5q32 -14 62 -25t60 -11q46 0 82.5 18t69.5 55v-79q-56 -62 -153 -62z" />
    <glyph glyph-name="hungarumlaut" unicode="&#x2dd;" horiz-adv-x="1012" 
d="M714 1261l135 355h82l-144 -355h-73zM413 1261l135 355h82l-144 -355h-73z" />
    <glyph glyph-name="gravecomb" unicode="&#x300;" 
d="M558 1261l-226 355h100l210 -355h-84z" />
    <glyph glyph-name="acutecomb" unicode="&#x301;" 
d="M558 1261l210 355h100l-226 -355h-84z" />
    <glyph glyph-name="uni0302" unicode="&#x302;" 
d="M335 1261l219 355h92l219 -355h-84l-195 323h28l-195 -323h-84z" />
    <glyph glyph-name="tildecomb" unicode="&#x303;" 
d="M736 1372q-41 0 -78.5 13.5t-72.5 28.5q-31 13 -61 24t-61 11q-45 0 -82 -17.5t-70 -54.5v78q56 63 153 63q41 0 78.5 -13.5t72.5 -28.5q32 -14 62 -25t60 -11q46 0 82.5 18t69.5 55v-79q-56 -62 -153 -62z" />
    <glyph glyph-name="uni0304" unicode="&#x304;" 
d="M311 1388v70h578v-70h-578z" />
    <glyph glyph-name="uni0306" unicode="&#x306;" 
d="M602 1273q-125 0 -196 83t-77 232h70q8 -121 56.5 -185t146.5 -64t146 64t53 185h70q-6 -150 -75 -232.5t-194 -82.5z" />
    <glyph glyph-name="uni0307" unicode="&#x307;" 
d="M600 1351q-33 0 -53.5 19t-20.5 52t20.5 53t53.5 20t53.5 -20t20.5 -53t-20.5 -52t-53.5 -19z" />
    <glyph glyph-name="uni0308" unicode="&#x308;" 
d="M804 1351q-32 0 -52 19.5t-20 51.5q0 33 20 52.5t52 19.5t51.5 -19.5t19.5 -52.5q0 -32 -19.5 -51.5t-51.5 -19.5zM396 1351q-32 0 -51.5 19.5t-19.5 51.5q0 33 19.5 52.5t51.5 19.5t52 -19.5t20 -52.5q0 -32 -20 -51.5t-52 -19.5z" />
    <glyph glyph-name="hookabovecomb" unicode="&#x309;" 
d="M571 1261q1 55 26 86t56 51t54.5 41t23.5 53q0 38 -29.5 56t-95.5 18q-36 0 -78 -6t-76 -18v62q30 11 71 17.5t81 6.5q102 0 149 -35.5t47 -98.5q0 -48 -23.5 -75t-54.5 -46t-55 -43.5t-25 -68.5h-71z" />
    <glyph glyph-name="uni030A" unicode="&#x30a;" 
d="M600 1257q-80 0 -133.5 53t-53.5 133q0 81 53.5 134t133.5 53q81 0 134 -53t53 -134q0 -80 -53 -133t-134 -53zM600 1314q56 0 91.5 35t35.5 94q0 61 -35.5 95t-91.5 34t-91.5 -34t-35.5 -95q0 -59 35.5 -94t91.5 -35z" />
    <glyph glyph-name="uni030B" unicode="&#x30b;" 
d="M714 1261l135 355h82l-144 -355h-73zM413 1261l135 355h82l-144 -355h-73z" />
    <glyph glyph-name="uni030C" unicode="&#x30c;" 
d="M554 1261l-223 355h85l198 -324h-28l198 324h85l-223 -355h-92z" />
    <glyph glyph-name="uni030F" unicode="&#x30f;" 
d="M714 1261l-144 355h86l134 -355h-76zM410 1261l-144 355h86l134 -355h-76z" />
    <glyph glyph-name="uni0311" unicode="&#x311;" 
d="M329 1289q6 153 75 234.5t194 81.5q126 0 196.5 -82.5t76.5 -233.5h-70q-7 122 -56.5 185t-146.5 63q-96 0 -144.5 -63t-54.5 -185h-70z" />
    <glyph glyph-name="uni0312" unicode="&#x312;" 
d="M604 1351q-36 0 -56 23t-20 68q0 38 12 87t35 95h57q-22 -55 -29 -95.5t-7 -77.5l-9 35h13q33 0 52.5 -19t19.5 -50q0 -29 -18 -47.5t-50 -18.5z" />
    <glyph glyph-name="uni031B" unicode="&#x31b;" 
d="M588 1406v74h39q90 0 143.5 39.5t53.5 126.5q0 41 -6.5 74t-17.5 68h77q13 -35 19 -67.5t6 -77.5q0 -76 -32.5 -129t-91.5 -80.5t-140 -27.5h-50z" />
    <glyph glyph-name="dotbelowcomb" unicode="&#x323;" 
d="M600 -322q-32 0 -52 19.5t-20 51.5q0 33 20 52.5t52 19.5t52 -19.5t20 -52.5q0 -32 -20 -51.5t-52 -19.5z" />
    <glyph glyph-name="uni0324" unicode="&#x324;" 
d="M804 -322q-32 0 -52 19t-20 51q0 33 20 53t52 20t51.5 -20t19.5 -53q0 -32 -19.5 -51t-51.5 -19zM396 -322q-32 0 -51.5 19t-19.5 51q0 33 19.5 53t51.5 20t52 -20t20 -53q0 -32 -20 -51t-52 -19z" />
    <glyph glyph-name="uni0326" unicode="&#x326;" 
d="M568 -452q22 55 29 95.5t7 77.5l9 -35h-13q-33 0 -52.5 19t-19.5 49t18.5 48.5t49.5 18.5q36 0 56 -22.5t20 -69.5q0 -37 -11.5 -85.5t-35.5 -95.5h-57z" />
    <glyph glyph-name="uni0327" unicode="&#x327;" 
d="M607 -404q-42 0 -87 10t-78 27v62q45 -23 86.5 -32t79.5 -9q59 0 88 22.5t29 67.5q0 91 -118 91h-34v185h65v-161l-28 31q87 0 133.5 -39t46.5 -108q0 -68 -48 -107.5t-135 -39.5z" />
    <glyph glyph-name="uni0328" unicode="&#x328;" 
d="M550 -404q-92 0 -143.5 46.5t-51.5 126.5q0 53 22.5 100.5t69.5 92t122 87.5l31 -49q-64 -38 -103 -74t-57 -73.5t-18 -79.5q0 -55 34.5 -86.5t94.5 -31.5q38 0 76 11t75 33v-62q-32 -19 -72.5 -30t-79.5 -11z" />
    <glyph glyph-name="uni032E" unicode="&#x32e;" 
d="M602 -405q-128 0 -199.5 67.5t-73.5 178.5h70q5 -85 54 -131.5t149 -46.5t148.5 46.5t50.5 131.5h70q-2 -112 -71 -179t-198 -67z" />
    <glyph glyph-name="uni0331" unicode="&#x331;" 
d="M342 -287v71h516v-71h-516z" />
    <glyph glyph-name="uni0394" unicode="&#x394;" horiz-adv-x="1301" 
d="M35 0l556 1480h119l556 -1480h-1231zM145 44l-20 39h1048l-19 -39l-516 1384h23z" />
    <glyph glyph-name="uni03A9" unicode="&#x3a9;" horiz-adv-x="1385" 
d="M115 0v82h382l-12 -20q-121 79 -203.5 186t-124.5 243t-42 300q0 236 69 393t198 235.5t310 78.5q182 0 311 -78.5t198 -235.5t69 -393q0 -164 -42 -300t-124.5 -243t-204.5 -186l-11 20h382v-82h-472v76q128 84 212 187t124.5 233t40.5 293q0 216 -57 354t-165 204.5
t-261 66.5t-261 -66.5t-164.5 -204.5t-56.5 -354q0 -163 40.5 -293t124 -233t211.5 -187v-76h-471z" />
    <glyph glyph-name="uni03BC" unicode="&#x3bc;" horiz-adv-x="1089" 
d="M492 -18q-95 0 -164 34.5t-106.5 114.5t-37.5 214v139h58v-138q0 -157 71 -218.5t183 -61.5q55 0 116.5 17t119 54t102.5 98v846h89v-1081h-77l-8 123h-8q-68 -71 -156 -106t-182 -35zM152 -440v1521h90v-1521h-90z" />
    <glyph glyph-name="pi" unicode="&#x3c0;" horiz-adv-x="1264" 
d="M1129 -18q-129 0 -203.5 70.5t-75.5 234.5l-2 751h92v-736q0 -133 50 -185t151 -52q26 0 55.5 4.5t59.5 10.5v-83q-28 -7 -62 -11t-65 -4zM224 -2v1040h90v-1040h-90zM8 1001v80h1148v-80h-1148z" />
    <glyph glyph-name="uni1E08" unicode="&#x1e08;" horiz-adv-x="1113" 
d="M740 -18q-140 0 -254.5 39t-197.5 127t-128 233t-45 357q0 273 77.5 440.5t221 243.5t342.5 76q86 0 164 -11.5t156 -34.5v-85q-82 26 -161 37t-161 11q-173 0 -294.5 -64.5t-185.5 -212t-64 -396.5q0 -259 66 -406.5t185 -209t282 -61.5q84 0 162.5 13.5t170.5 45.5v-85
q-75 -27 -158.5 -42t-177.5 -15zM709 -404q-47 0 -96.5 10t-91.5 29v62q55 -24 99 -33.5t88 -9.5q62 0 97.5 21.5t35.5 69.5q0 47 -35.5 68.5t-99.5 21.5h-39v185h64v-161l-18 32q87 0 140.5 -37t53.5 -110t-54 -110.5t-144 -37.5zM639 1614l176 275h101l-193 -275h-84z" />
    <glyph glyph-name="uni1E09" unicode="&#x1e09;" horiz-adv-x="838" 
d="M547 -18q-141 0 -240 57t-150.5 180t-51.5 321q0 199 55.5 321.5t164 179t266.5 56.5q52 0 107.5 -7t104.5 -21v-84q-53 15 -105.5 22.5t-101.5 7.5q-133 0 -221 -45t-132 -148t-44 -278q0 -177 40.5 -282.5t120.5 -151.5t197 -46q53 0 113 11.5t133 36.5v-84
q-64 -23 -128.5 -34.5t-127.5 -11.5zM509 -404q-42 0 -87 10t-78 27v62q45 -23 86.5 -32t79.5 -9q59 0 88 22.5t29 67.5q0 91 -118 91h-34v185h65v-161l-28 31q87 0 133.5 -39t46.5 -108q0 -68 -48 -107.5t-135 -39.5zM461 1261l210 355h100l-226 -355h-84z" />
    <glyph glyph-name="uni1E0C" unicode="&#x1e0c;" horiz-adv-x="1357" 
d="M511 -10q-54 0 -104 2t-103.5 6t-118.5 12v1450q56 11 115.5 18.5t119 11.5t115.5 4q350 0 528 -185.5t178 -568.5q0 -260 -82 -425.5t-245 -245t-403 -79.5zM520 73q209 0 348.5 68.5t209 216t69.5 382.5q0 233 -67.5 381.5t-204 219t-342.5 70.5q-61 0 -125 -5.5
t-133 -15.5v-1302q56 -8 114 -11.5t131 -3.5zM617 -319q-33 0 -53.5 18.5t-20.5 50.5t20.5 51.5t53.5 19.5t53.5 -19.5t20.5 -51.5t-20.5 -50.5t-53.5 -18.5z" />
    <glyph glyph-name="uni1E0D" unicode="&#x1e0d;" horiz-adv-x="1085" 
d="M523 -18q-118 0 -212.5 52t-150 169.5t-55.5 315.5q0 197 60 325.5t177 190.5t288 62q52 0 104 -4.5t95 -12.5v536h90v-1616h-78l-7 119h-9q-49 -60 -126.5 -98.5t-175.5 -38.5zM533 65q84 0 163.5 38.5t132.5 121.5v769q-40 10 -94.5 16t-106.5 6q-213 0 -321.5 -114.5
t-108.5 -373.5q0 -179 43 -279.5t118.5 -142t173.5 -41.5zM541 -322q-32 0 -52 19.5t-20 51.5q0 33 20 52.5t52 19.5t52 -19.5t20 -52.5q0 -32 -20 -51.5t-52 -19.5z" />
    <glyph glyph-name="uni1E0E" unicode="&#x1e0e;" horiz-adv-x="1357" 
d="M511 -10q-54 0 -104 2t-103.5 6t-118.5 12v1450q56 11 115.5 18.5t119 11.5t115.5 4q350 0 528 -185.5t178 -568.5q0 -260 -82 -425.5t-245 -245t-403 -79.5zM520 73q209 0 348.5 68.5t209 216t69.5 382.5q0 233 -67.5 381.5t-204 219t-342.5 70.5q-61 0 -125 -5.5
t-133 -15.5v-1302q56 -8 114 -11.5t131 -3.5zM339 -285v70h556v-70h-556z" />
    <glyph glyph-name="uni1E0F" unicode="&#x1e0f;" horiz-adv-x="1085" 
d="M523 -18q-118 0 -212.5 52t-150 169.5t-55.5 315.5q0 197 60 325.5t177 190.5t288 62q52 0 104 -4.5t95 -12.5v536h90v-1616h-78l-7 119h-9q-49 -60 -126.5 -98.5t-175.5 -38.5zM533 65q84 0 163.5 38.5t132.5 121.5v769q-40 10 -94.5 16t-106.5 6q-213 0 -321.5 -114.5
t-108.5 -373.5q0 -179 43 -279.5t118.5 -142t173.5 -41.5zM283 -287v71h516v-71h-516z" />
    <glyph glyph-name="uni1E14" unicode="&#x1e14;" horiz-adv-x="1127" 
d="M185 0v1480h861v-83h-771v-1314h781v-83h-871zM247 719v83h703v-83h-703zM596 1890l-193 232h104l175 -232h-86zM360 1716v71h556v-71h-556z" />
    <glyph glyph-name="uni1E15" unicode="&#x1e15;" horiz-adv-x="995" 
d="M580 -18q-152 0 -258.5 56.5t-161.5 179.5t-55 323q0 195 51 318t142.5 180.5t214.5 57.5t211 -57.5t135.5 -180.5t47.5 -319v-35h-757v76h695l-29 -25q0 171 -36 272.5t-104 146.5t-163 45q-96 0 -166.5 -44.5t-109.5 -146t-39 -273.5v-25q0 -171 45 -274t132 -148.5
t213 -45.5q61 0 126 12t142 36v-83q-74 -24 -141.5 -35t-134.5 -11zM224 1388v70h578v-70h-578zM471 1601l-193 275h101l176 -275h-84z" />
    <glyph glyph-name="uni1E16" unicode="&#x1e16;" horiz-adv-x="1127" 
d="M185 0v1480h861v-83h-771v-1314h781v-83h-871zM247 719v83h703v-83h-703zM593 1890l175 232h105l-192 -232h-88zM360 1716v71h556v-71h-556z" />
    <glyph glyph-name="uni1E17" unicode="&#x1e17;" horiz-adv-x="995" 
d="M580 -18q-152 0 -258.5 56.5t-161.5 179.5t-55 323q0 195 51 318t142.5 180.5t214.5 57.5t211 -57.5t135.5 -180.5t47.5 -319v-35h-757v76h695l-29 -25q0 171 -36 272.5t-104 146.5t-163 45q-96 0 -166.5 -44.5t-109.5 -146t-39 -273.5v-25q0 -171 45 -274t132 -148.5
t213 -45.5q61 0 126 12t142 36v-83q-74 -24 -141.5 -35t-134.5 -11zM224 1388v70h578v-70h-578zM471 1601l176 275h101l-193 -275h-84z" />
    <glyph glyph-name="uni1E1C" unicode="&#x1e1c;" horiz-adv-x="1127" 
d="M185 0v1480h861v-83h-771v-1314h781v-83h-871zM247 719v83h703v-83h-703zM653 -404q-47 0 -96.5 10t-91.5 29v62q55 -24 99 -33.5t88 -9.5q62 0 97.5 21.5t35.5 69.5q0 47 -35.5 68.5t-99.5 21.5h-39v185h64v-161l-18 32q87 0 140.5 -37t53.5 -110t-54 -110.5t-144 -37.5
zM640 1625q-92 0 -155 29.5t-97 83t-41 125.5h70q12 -83 62 -126.5t161 -43.5t160 43.5t59 126.5h70q-7 -73 -40 -126.5t-95 -82.5t-154 -29z" />
    <glyph glyph-name="uni1E1D" unicode="&#x1e1d;" horiz-adv-x="995" 
d="M580 -18q-152 0 -258.5 56.5t-161.5 179.5t-55 323q0 195 51 318t142.5 180.5t214.5 57.5t211 -57.5t135.5 -180.5t47.5 -319v-35h-757v76h695l-29 -25q0 171 -36 272.5t-104 146.5t-163 45q-96 0 -166.5 -44.5t-109.5 -146t-39 -273.5v-25q0 -171 45 -274t132 -148.5
t213 -45.5q61 0 126 12t142 36v-83q-74 -24 -141.5 -35t-134.5 -11zM520 -404q-42 0 -87 10t-78 27v62q45 -23 86.5 -32t79.5 -9q59 0 88 22.5t29 67.5q0 91 -118 91h-34v185h65v-161l-28 31q87 0 133.5 -39t46.5 -108q0 -68 -48 -107.5t-135 -39.5zM515 1273
q-125 0 -196 83t-77 232h70q8 -121 56.5 -185t146.5 -64t146 64t53 185h70q-6 -150 -75 -232.5t-194 -82.5z" />
    <glyph glyph-name="uni1E20" unicode="&#x1e20;" horiz-adv-x="1312" 
d="M836 -11q-236 0 -396 77.5t-242.5 242.5t-82.5 429q0 275 85 441.5t237 242.5t353 76q83 0 165 -11.5t165 -34.5v-85q-95 27 -174.5 37.5t-154.5 10.5q-174 0 -304.5 -64.5t-203.5 -212.5t-73 -399q0 -239 70 -385.5t208.5 -213.5t345.5 -67q76 0 139.5 6t120.5 17
l-32 -42v666h88v-703q-93 -16 -165 -22t-149 -6zM439 1716v71h556v-71h-556z" />
    <glyph glyph-name="uni1E21" unicode="&#x1e21;" horiz-adv-x="1085" 
d="M470 -460q-69 0 -151 13t-148 37v84q81 -27 154.5 -40t143.5 -13q182 0 271 82.5t89 289.5v120h-6q-50 -55 -128 -92.5t-180 -37.5q-112 0 -205.5 51t-149 168t-55.5 317q0 296 133.5 437t384.5 141q51 0 102.5 -5t101 -15t92.5 -23v-1051q0 -250 -113 -356.5
t-336 -106.5zM529 66q85 0 166 37.5t134 114.5v772q-40 11 -95.5 18.5t-116.5 7.5q-204 0 -311.5 -114.5t-107.5 -373.5q0 -180 44 -280.5t119 -141t168 -40.5zM271 1388v70h578v-70h-578z" />
    <glyph glyph-name="uni1E24" unicode="&#x1e24;" horiz-adv-x="1409" 
d="M185 0v1480h90v-677h859v677h90v-1480h-90v718h-859v-718h-90zM705 -319q-33 0 -53.5 18.5t-20.5 50.5t20.5 51.5t53.5 19.5t53.5 -19.5t20.5 -51.5t-20.5 -50.5t-53.5 -18.5z" />
    <glyph glyph-name="uni1E25" unicode="&#x1e25;" horiz-adv-x="1099" 
d="M166 0v1616h89v-660h7q70 71 160 106t189 35q98 0 174 -34.5t119 -114t43 -214.5v-734h-90v733q0 158 -71 218t-188 60q-57 0 -119 -16t-120.5 -53.5t-103.5 -98.5v-843h-89zM557 -322q-32 0 -52 19.5t-20 51.5q0 33 20 52.5t52 19.5t52 -19.5t20 -52.5q0 -32 -20 -51.5
t-52 -19.5z" />
    <glyph glyph-name="uni1E2A" unicode="&#x1e2a;" horiz-adv-x="1409" 
d="M185 0v1480h90v-677h859v677h90v-1480h-90v718h-859v-718h-90zM707 -403q-95 0 -160 30.5t-98 85.5t-35 129h70q6 -85 57.5 -131.5t165.5 -46.5t165 46.5t54 131.5h70q-2 -75 -34 -130t-96 -85t-159 -30z" />
    <glyph glyph-name="uni1E2B" unicode="&#x1e2b;" horiz-adv-x="1099" 
d="M166 0v1616h89v-660h7q70 71 160 106t189 35q98 0 174 -34.5t119 -114t43 -214.5v-734h-90v733q0 158 -71 218t-188 60q-57 0 -119 -16t-120.5 -53.5t-103.5 -98.5v-843h-89zM559 -405q-128 0 -199.5 67.5t-73.5 178.5h70q5 -85 54 -131.5t149 -46.5t148.5 46.5
t50.5 131.5h70q-2 -112 -71 -179t-198 -67z" />
    <glyph glyph-name="uni1E2E" unicode="&#x1e2e;" horiz-adv-x="460" 
d="M185 0v1480h90v-1480h-90zM185 1890l175 232h105l-192 -232h-88zM453 1683q-32 0 -51.5 18.5t-19.5 50.5t19.5 51.5t51.5 19.5t52 -19.5t20 -51.5t-20 -50.5t-52 -18.5zM7 1683q-32 0 -52 18.5t-20 50.5t20 51.5t52 19.5t51.5 -19.5t19.5 -51.5t-19.5 -50.5t-51.5 -18.5z
" />
    <glyph glyph-name="uni1E2F" unicode="&#x1e2f;" horiz-adv-x="421" 
d="M166 0v1081h89v-1081h-89zM414 1351q-32 0 -52 19.5t-20 51.5q0 33 20 52.5t52 19.5t51.5 -19.5t19.5 -52.5q0 -32 -19.5 -51.5t-51.5 -19.5zM6 1351q-32 0 -51.5 19.5t-19.5 51.5q0 33 19.5 52.5t51.5 19.5t52 -19.5t20 -52.5q0 -32 -20 -51.5t-52 -19.5zM168 1655
l176 275h101l-193 -275h-84z" />
    <glyph glyph-name="uni1E36" unicode="&#x1e36;" horiz-adv-x="1037" 
d="M185 0v1480h90v-1396h750v-84h-840zM606 -319q-33 0 -53.5 18.5t-20.5 50.5t20.5 51.5t53.5 19.5t53.5 -19.5t20.5 -51.5t-20.5 -50.5t-53.5 -18.5z" />
    <glyph glyph-name="uni1E37" unicode="&#x1e37;" horiz-adv-x="421" 
d="M166 0v1616h89v-1616h-89zM210 -322q-32 0 -52 19.5t-20 51.5q0 33 20 52.5t52 19.5t52 -19.5t20 -52.5q0 -32 -20 -51.5t-52 -19.5z" />
    <glyph glyph-name="uni1E3A" unicode="&#x1e3a;" horiz-adv-x="1037" 
d="M185 0v1480h90v-1396h750v-84h-840zM328 -285v70h556v-70h-556z" />
    <glyph glyph-name="uni1E3B" unicode="&#x1e3b;" horiz-adv-x="421" 
d="M166 0v1616h89v-1616h-89zM-48 -287v71h516v-71h-516z" />
    <glyph glyph-name="uni1E42" unicode="&#x1e42;" horiz-adv-x="1708" 
d="M189 0v1480h103l581 -1225h-33l576 1225h103v-1480h-87v1402h39l-571 -1201h-92l-574 1201h42v-1402h-87zM856 -319q-33 0 -53.5 18.5t-20.5 50.5t20.5 51.5t53.5 19.5t53.5 -19.5t20.5 -51.5t-20.5 -50.5t-53.5 -18.5z" />
    <glyph glyph-name="uni1E43" unicode="&#x1e43;" horiz-adv-x="1647" 
d="M166 0v1081h77l7 -128h9q64 73 146 108.5t171 35.5q88 0 156 -34.5t107 -114t39 -213.5v-735h-89v732q0 158 -63.5 219.5t-165.5 61.5q-49 0 -104.5 -17t-107.5 -55.5t-93 -102.5v-838h-89zM1405 0v732q0 158 -65.5 219.5t-167.5 61.5q-50 0 -109.5 -18t-115.5 -62.5
t-98 -122.5l-29 95q81 109 178.5 150.5t185.5 41.5q89 0 159.5 -34.5t111 -114t40.5 -214.5v-734h-90zM833 -322q-32 0 -52 19.5t-20 51.5q0 33 20 52.5t52 19.5t52 -19.5t20 -52.5q0 -32 -20 -51.5t-52 -19.5z" />
    <glyph glyph-name="uni1E44" unicode="&#x1e44;" horiz-adv-x="1437" 
d="M185 0v1480h97l916 -1390h-33v1390h87v-1480h-97l-916 1390h33v-1390h-87zM719 1683q-33 0 -53.5 18.5t-20.5 50.5t20.5 51.5t53.5 19.5t53.5 -19.5t20.5 -51.5t-20.5 -50.5t-53.5 -18.5z" />
    <glyph glyph-name="uni1E45" unicode="&#x1e45;" horiz-adv-x="1099" 
d="M166 0v1081h77l7 -127h9q69 69 159.5 106t189.5 37q100 0 176.5 -35t119.5 -114.5t43 -214.5v-733h-90v731q0 158 -70 220t-189 62q-54 0 -116 -16t-121.5 -53t-105.5 -100v-844h-89zM557 1351q-33 0 -53.5 19t-20.5 52t20.5 53t53.5 20t53.5 -20t20.5 -53t-20.5 -52
t-53.5 -19z" />
    <glyph glyph-name="uni1E46" unicode="&#x1e46;" horiz-adv-x="1437" 
d="M185 0v1480h97l916 -1390h-33v1390h87v-1480h-97l-916 1390h33v-1390h-87zM719 -319q-33 0 -53.5 18.5t-20.5 50.5t20.5 51.5t53.5 19.5t53.5 -19.5t20.5 -51.5t-20.5 -50.5t-53.5 -18.5z" />
    <glyph glyph-name="uni1E47" unicode="&#x1e47;" horiz-adv-x="1099" 
d="M166 0v1081h77l7 -127h9q69 69 159.5 106t189.5 37q100 0 176.5 -35t119.5 -114.5t43 -214.5v-733h-90v731q0 158 -70 220t-189 62q-54 0 -116 -16t-121.5 -53t-105.5 -100v-844h-89zM557 -322q-32 0 -52 19.5t-20 51.5q0 33 20 52.5t52 19.5t52 -19.5t20 -52.5
q0 -32 -20 -51.5t-52 -19.5z" />
    <glyph glyph-name="uni1E48" unicode="&#x1e48;" horiz-adv-x="1437" 
d="M185 0v1480h97l916 -1390h-33v1390h87v-1480h-97l-916 1390h33v-1390h-87zM441 -285v70h556v-70h-556z" />
    <glyph glyph-name="uni1E49" unicode="&#x1e49;" horiz-adv-x="1099" 
d="M166 0v1081h77l7 -127h9q69 69 159.5 106t189.5 37q100 0 176.5 -35t119.5 -114.5t43 -214.5v-733h-90v731q0 158 -70 220t-189 62q-54 0 -116 -16t-121.5 -53t-105.5 -100v-844h-89zM299 -287v71h516v-71h-516z" />
    <glyph glyph-name="uni1E4C" unicode="&#x1e4c;" horiz-adv-x="1385" 
d="M692 -18q-173 0 -302.5 76.5t-202 243.5t-72.5 438t73 438t203 243.5t301 76.5q173 0 303 -76.5t202.5 -243.5t72.5 -438t-73 -438t-203 -243.5t-302 -76.5zM692 66q145 0 253.5 63.5t169 210.5t60.5 396q0 253 -60.5 401.5t-169.5 212.5t-253 64t-252.5 -63.5
t-169 -210.5t-60.5 -396q0 -253 60.5 -401.5t169 -212.5t252.5 -64zM647 1890l175 232h105l-193 -232h-87zM838 1690q-44 0 -84 13t-77 28q-33 14 -65.5 24.5t-66.5 10.5q-50 0 -87.5 -17.5t-71.5 -53.5v77q28 31 67.5 46.5t92.5 15.5q44 0 84 -12.5t77 -28.5
q33 -13 65.5 -24t66.5 -11q50 0 88 17.5t71 53.5v-77q-27 -30 -66.5 -46t-93.5 -16z" />
    <glyph glyph-name="uni1E4D" unicode="&#x1e4d;" horiz-adv-x="1071" 
d="M535 -18q-129 0 -226 56.5t-150.5 179.5t-53.5 322q0 198 53.5 321t150.5 179.5t226 56.5q130 0 227 -56t150.5 -178.5t53.5 -322.5q0 -197 -54 -320.5t-150.5 -180.5t-226.5 -57zM535 63q103 0 179 44.5t117 148.5t41 282q0 180 -41 284.5t-117 149t-179 44.5
q-102 0 -178 -44t-117.5 -147.5t-41.5 -281.5q0 -180 41.5 -285t117.5 -150t178 -45zM671 1372q-41 0 -78.5 13.5t-72.5 28.5q-31 13 -61 24t-61 11q-45 0 -82 -17.5t-70 -54.5v78q56 63 153 63q41 0 78.5 -13.5t72.5 -28.5q32 -14 62 -25t60 -11q46 0 82.5 18t69.5 55v-79
q-56 -62 -153 -62zM493 1603l176 275h101l-193 -275h-84z" />
    <glyph glyph-name="uni1E4E" unicode="&#x1e4e;" horiz-adv-x="1385" 
d="M692 -18q-173 0 -302.5 76.5t-202 243.5t-72.5 438t73 438t203 243.5t301 76.5q173 0 303 -76.5t202.5 -243.5t72.5 -438t-73 -438t-203 -243.5t-302 -76.5zM692 66q145 0 253.5 63.5t169 210.5t60.5 396q0 253 -60.5 401.5t-169.5 212.5t-253 64t-252.5 -63.5
t-169 -210.5t-60.5 -396q0 -253 60.5 -401.5t169 -212.5t252.5 -64zM838 1690q-44 0 -84 13t-77 28q-33 14 -65.5 24.5t-66.5 10.5q-50 0 -87.5 -17.5t-71.5 -53.5v77q28 31 67.5 46.5t92.5 15.5q44 0 84 -12.5t77 -28.5q33 -13 65.5 -24t66.5 -11q50 0 88 17.5t71 53.5v-77
q-27 -30 -66.5 -46t-93.5 -16zM915 1921q-32 0 -51.5 18.5t-19.5 50.5t19.5 51.5t51.5 19.5t52 -19.5t20 -51.5t-20 -50.5t-52 -18.5zM469 1921q-32 0 -52 18.5t-20 50.5t20 51.5t52 19.5t51.5 -19.5t19.5 -51.5t-19.5 -50.5t-51.5 -18.5z" />
    <glyph glyph-name="uni1E4F" unicode="&#x1e4f;" horiz-adv-x="1071" 
d="M535 -18q-129 0 -226 56.5t-150.5 179.5t-53.5 322q0 198 53.5 321t150.5 179.5t226 56.5q130 0 227 -56t150.5 -178.5t53.5 -322.5q0 -197 -54 -320.5t-150.5 -180.5t-226.5 -57zM535 63q103 0 179 44.5t117 148.5t41 282q0 180 -41 284.5t-117 149t-179 44.5
q-102 0 -178 -44t-117.5 -147.5t-41.5 -281.5q0 -180 41.5 -285t117.5 -150t178 -45zM671 1372q-41 0 -78.5 13.5t-72.5 28.5q-31 13 -61 24t-61 11q-45 0 -82 -17.5t-70 -54.5v78q56 63 153 63q41 0 78.5 -13.5t72.5 -28.5q32 -14 62 -25t60 -11q46 0 82.5 18t69.5 55v-79
q-56 -62 -153 -62zM739 1626q-32 0 -52 19.5t-20 51.5q0 33 20 52.5t52 19.5t51.5 -19.5t19.5 -52.5q0 -32 -19.5 -51.5t-51.5 -19.5zM331 1626q-32 0 -51.5 19.5t-19.5 51.5q0 33 19.5 52.5t51.5 19.5t52 -19.5t20 -52.5q0 -32 -20 -51.5t-52 -19.5z" />
    <glyph glyph-name="uni1E50" unicode="&#x1e50;" horiz-adv-x="1385" 
d="M692 -18q-173 0 -302.5 76.5t-202 243.5t-72.5 438t73 438t203 243.5t301 76.5q173 0 303 -76.5t202.5 -243.5t72.5 -438t-73 -438t-203 -243.5t-302 -76.5zM692 66q145 0 253.5 63.5t169 210.5t60.5 396q0 253 -60.5 401.5t-169.5 212.5t-253 64t-252.5 -63.5
t-169 -210.5t-60.5 -396q0 -253 60.5 -401.5t169 -212.5t252.5 -64zM650 1890l-193 232h104l175 -232h-86zM414 1716v71h556v-71h-556z" />
    <glyph glyph-name="uni1E51" unicode="&#x1e51;" horiz-adv-x="1071" 
d="M535 -18q-129 0 -226 56.5t-150.5 179.5t-53.5 322q0 198 53.5 321t150.5 179.5t226 56.5q130 0 227 -56t150.5 -178.5t53.5 -322.5q0 -197 -54 -320.5t-150.5 -180.5t-226.5 -57zM535 63q103 0 179 44.5t117 148.5t41 282q0 180 -41 284.5t-117 149t-179 44.5
q-102 0 -178 -44t-117.5 -147.5t-41.5 -281.5q0 -180 41.5 -285t117.5 -150t178 -45zM246 1388v70h578v-70h-578zM493 1601l-193 275h101l176 -275h-84z" />
    <glyph glyph-name="uni1E52" unicode="&#x1e52;" horiz-adv-x="1385" 
d="M692 -18q-173 0 -302.5 76.5t-202 243.5t-72.5 438t73 438t203 243.5t301 76.5q173 0 303 -76.5t202.5 -243.5t72.5 -438t-73 -438t-203 -243.5t-302 -76.5zM692 66q145 0 253.5 63.5t169 210.5t60.5 396q0 253 -60.5 401.5t-169.5 212.5t-253 64t-252.5 -63.5
t-169 -210.5t-60.5 -396q0 -253 60.5 -401.5t169 -212.5t252.5 -64zM647 1890l175 232h105l-192 -232h-88zM414 1716v71h556v-71h-556z" />
    <glyph glyph-name="uni1E53" unicode="&#x1e53;" horiz-adv-x="1071" 
d="M535 -18q-129 0 -226 56.5t-150.5 179.5t-53.5 322q0 198 53.5 321t150.5 179.5t226 56.5q130 0 227 -56t150.5 -178.5t53.5 -322.5q0 -197 -54 -320.5t-150.5 -180.5t-226.5 -57zM535 63q103 0 179 44.5t117 148.5t41 282q0 180 -41 284.5t-117 149t-179 44.5
q-102 0 -178 -44t-117.5 -147.5t-41.5 -281.5q0 -180 41.5 -285t117.5 -150t178 -45zM246 1388v70h578v-70h-578zM493 1601l176 275h101l-193 -275h-84z" />
    <glyph glyph-name="uni1E5A" unicode="&#x1e5a;" horiz-adv-x="1276" 
d="M185 0v1460q52 9 107.5 17t119 12.5t137.5 4.5q281 0 416 -102t135 -320q0 -143 -66.5 -238.5t-199.5 -143.5t-333 -48q-69 0 -120.5 2.5t-105.5 6.5v-651h-90zM1100 0l-542 701h108l545 -701h-111zM500 722q272 0 391.5 86.5t119.5 261.5q0 123 -47.5 198.5t-149.5 110
t-265 34.5q-86 0 -148 -6t-126 -17v-658q42 -4 76 -6t68.5 -3t80.5 -1zM665 -319q-33 0 -53.5 18.5t-20.5 50.5t20.5 51.5t53.5 19.5t53.5 -19.5t20.5 -51.5t-20.5 -50.5t-53.5 -18.5z" />
    <glyph glyph-name="uni1E5B" unicode="&#x1e5b;" horiz-adv-x="685" 
d="M166 0v1081h77l8 -146h8q60 75 148.5 115t180.5 40q24 0 44 -1.5t40 -5.5v-87q-21 3 -41.5 4t-45.5 1q-56 0 -117.5 -19t-117 -58t-95.5 -98v-826h-89zM210 -322q-32 0 -52 19.5t-20 51.5q0 33 20 52.5t52 19.5t52 -19.5t20 -52.5q0 -32 -20 -51.5t-52 -19.5z" />
    <glyph glyph-name="uni1E5E" unicode="&#x1e5e;" horiz-adv-x="1276" 
d="M185 0v1460q52 9 107.5 17t119 12.5t137.5 4.5q281 0 416 -102t135 -320q0 -143 -66.5 -238.5t-199.5 -143.5t-333 -48q-69 0 -120.5 2.5t-105.5 6.5v-651h-90zM1100 0l-542 701h108l545 -701h-111zM500 722q272 0 391.5 86.5t119.5 261.5q0 123 -47.5 198.5t-149.5 110
t-265 34.5q-86 0 -148 -6t-126 -17v-658q42 -4 76 -6t68.5 -3t80.5 -1zM387 -285v70h556v-70h-556z" />
    <glyph glyph-name="uni1E5F" unicode="&#x1e5f;" horiz-adv-x="685" 
d="M166 0v1081h77l8 -146h8q60 75 148.5 115t180.5 40q24 0 44 -1.5t40 -5.5v-87q-21 3 -41.5 4t-45.5 1q-56 0 -117.5 -19t-117 -58t-95.5 -98v-826h-89zM-48 -287v71h516v-71h-516z" />
    <glyph glyph-name="uni1E60" unicode="&#x1e60;" horiz-adv-x="1022" 
d="M444 -18q-80 0 -170 14t-174 43v85q62 -21 122 -34t116.5 -19t108.5 -6q199 0 299 80t100 235q0 132 -76 201.5t-252 114.5l-66 17q-186 49 -278 143.5t-92 250.5q0 181 123.5 286t364.5 105q79 0 160.5 -11t149.5 -34v-85q-77 25 -155 36t-157 11q-132 0 -219 -35
t-130 -103t-43 -165q0 -128 70 -198t239 -115l66 -17q134 -34 220 -87t127.5 -129.5t41.5 -180.5q0 -130 -58 -220t-169 -136.5t-269 -46.5zM519 1683q-33 0 -53.5 18.5t-20.5 50.5t20.5 51.5t53.5 19.5t53.5 -19.5t20.5 -51.5t-20.5 -50.5t-53.5 -18.5z" />
    <glyph glyph-name="uni1E61" unicode="&#x1e61;" horiz-adv-x="867" 
d="M396 -18q-76 0 -144 10t-135 31v83q80 -24 146.5 -34t135.5 -10q155 0 227.5 56.5t72.5 159.5q0 89 -45.5 136.5t-152.5 70.5l-133 29q-146 33 -207 104.5t-61 180.5q0 129 96.5 213.5t296.5 84.5q65 0 124 -7t116 -23v-82q-66 18 -121.5 25t-117.5 7
q-110 0 -176.5 -28.5t-96.5 -77t-30 -108.5q0 -78 42 -129t148 -75l133 -28q152 -33 213.5 -103.5t61.5 -183.5q0 -139 -98.5 -220.5t-294.5 -81.5zM439 1351q-33 0 -53.5 19t-20.5 52t20.5 53t53.5 20t53.5 -20t20.5 -53t-20.5 -52t-53.5 -19z" />
    <glyph glyph-name="uni1E62" unicode="&#x1e62;" horiz-adv-x="1022" 
d="M444 -18q-80 0 -170 14t-174 43v85q62 -21 122 -34t116.5 -19t108.5 -6q199 0 299 80t100 235q0 132 -76 201.5t-252 114.5l-66 17q-186 49 -278 143.5t-92 250.5q0 181 123.5 286t364.5 105q79 0 160.5 -11t149.5 -34v-85q-77 25 -155 36t-157 11q-132 0 -219 -35
t-130 -103t-43 -165q0 -128 70 -198t239 -115l66 -17q134 -34 220 -87t127.5 -129.5t41.5 -180.5q0 -130 -58 -220t-169 -136.5t-269 -46.5zM519 -319q-33 0 -53.5 18.5t-20.5 50.5t20.5 51.5t53.5 19.5t53.5 -19.5t20.5 -51.5t-20.5 -50.5t-53.5 -18.5z" />
    <glyph glyph-name="uni1E63" unicode="&#x1e63;" horiz-adv-x="867" 
d="M396 -18q-76 0 -144 10t-135 31v83q80 -24 146.5 -34t135.5 -10q155 0 227.5 56.5t72.5 159.5q0 89 -45.5 136.5t-152.5 70.5l-133 29q-146 33 -207 104.5t-61 180.5q0 129 96.5 213.5t296.5 84.5q65 0 124 -7t116 -23v-82q-66 18 -121.5 25t-117.5 7
q-110 0 -176.5 -28.5t-96.5 -77t-30 -108.5q0 -78 42 -129t148 -75l133 -28q152 -33 213.5 -103.5t61.5 -183.5q0 -139 -98.5 -220.5t-294.5 -81.5zM439 -322q-32 0 -52 19.5t-20 51.5q0 33 20 52.5t52 19.5t52 -19.5t20 -52.5q0 -32 -20 -51.5t-52 -19.5z" />
    <glyph glyph-name="uni1E64" unicode="&#x1e64;" horiz-adv-x="1022" 
d="M444 -18q-80 0 -170 14t-174 43v85q62 -21 122 -34t116.5 -19t108.5 -6q199 0 299 80t100 235q0 132 -76 201.5t-252 114.5l-66 17q-186 49 -278 143.5t-92 250.5q0 181 123.5 286t364.5 105q79 0 160.5 -11t149.5 -34v-85q-77 25 -155 36t-157 11q-132 0 -219 -35
t-130 -103t-43 -165q0 -128 70 -198t239 -115l66 -17q134 -34 220 -87t127.5 -129.5t41.5 -180.5q0 -130 -58 -220t-169 -136.5t-269 -46.5zM432 1849q-32 0 -51.5 18t-19.5 49t19.5 50t51.5 19q31 0 50.5 -19t19.5 -50t-19.5 -49t-50.5 -18zM477 1614l176 275h101
l-193 -275h-84z" />
    <glyph glyph-name="uni1E65" unicode="&#x1e65;" horiz-adv-x="867" 
d="M396 -18q-76 0 -144 10t-135 31v83q80 -24 146.5 -34t135.5 -10q155 0 227.5 56.5t72.5 159.5q0 89 -45.5 136.5t-152.5 70.5l-133 29q-146 33 -207 104.5t-61 180.5q0 129 96.5 213.5t296.5 84.5q65 0 124 -7t116 -23v-82q-66 18 -121.5 25t-117.5 7
q-110 0 -176.5 -28.5t-96.5 -77t-30 -108.5q0 -78 42 -129t148 -75l133 -28q152 -33 213.5 -103.5t61.5 -183.5q0 -139 -98.5 -220.5t-294.5 -81.5zM368 1576q-31 0 -50.5 18.5t-19.5 48.5q0 31 19.5 50t50.5 19q32 0 51.5 -19t19.5 -50q0 -30 -19.5 -48.5t-51.5 -18.5z
M397 1261l210 355h100l-226 -355h-84z" />
    <glyph glyph-name="uni1E66" unicode="&#x1e66;" horiz-adv-x="1022" 
d="M444 -18q-80 0 -170 14t-174 43v85q62 -21 122 -34t116.5 -19t108.5 -6q199 0 299 80t100 235q0 132 -76 201.5t-252 114.5l-66 17q-186 49 -278 143.5t-92 250.5q0 181 123.5 286t364.5 105q79 0 160.5 -11t149.5 -34v-85q-77 25 -155 36t-157 11q-132 0 -219 -35
t-130 -103t-43 -165q0 -128 70 -198t239 -115l66 -17q134 -34 220 -87t127.5 -129.5t41.5 -180.5q0 -130 -58 -220t-169 -136.5t-269 -46.5zM519 1891q-31 0 -50.5 18.5t-19.5 48.5q0 32 19.5 50.5t50.5 18.5q32 0 51 -18.5t19 -50.5q0 -30 -19 -48.5t-51 -18.5zM473 1614
l-242 275h95l207 -241h-28l207 241h95l-242 -275h-92z" />
    <glyph glyph-name="uni1E67" unicode="&#x1e67;" horiz-adv-x="867" 
d="M396 -18q-76 0 -144 10t-135 31v83q80 -24 146.5 -34t135.5 -10q155 0 227.5 56.5t72.5 159.5q0 89 -45.5 136.5t-152.5 70.5l-133 29q-146 33 -207 104.5t-61 180.5q0 129 96.5 213.5t296.5 84.5q65 0 124 -7t116 -23v-82q-66 18 -121.5 25t-117.5 7
q-110 0 -176.5 -28.5t-96.5 -77t-30 -108.5q0 -78 42 -129t148 -75l133 -28q152 -33 213.5 -103.5t61.5 -183.5q0 -139 -98.5 -220.5t-294.5 -81.5zM439 1617q-31 0 -50.5 18t-19.5 49t19.5 49.5t50.5 18.5q32 0 51 -18.5t19 -49.5t-19 -49t-51 -18zM393 1261l-223 355h85
l198 -324h-28l198 324h85l-223 -355h-92z" />
    <glyph glyph-name="uni1E68" unicode="&#x1e68;" horiz-adv-x="1022" 
d="M444 -18q-80 0 -170 14t-174 43v85q62 -21 122 -34t116.5 -19t108.5 -6q199 0 299 80t100 235q0 132 -76 201.5t-252 114.5l-66 17q-186 49 -278 143.5t-92 250.5q0 181 123.5 286t364.5 105q79 0 160.5 -11t149.5 -34v-85q-77 25 -155 36t-157 11q-132 0 -219 -35
t-130 -103t-43 -165q0 -128 70 -198t239 -115l66 -17q134 -34 220 -87t127.5 -129.5t41.5 -180.5q0 -130 -58 -220t-169 -136.5t-269 -46.5zM519 -319q-33 0 -53.5 18.5t-20.5 50.5t20.5 51.5t53.5 19.5t53.5 -19.5t20.5 -51.5t-20.5 -50.5t-53.5 -18.5zM519 1683
q-33 0 -53.5 18.5t-20.5 50.5t20.5 51.5t53.5 19.5t53.5 -19.5t20.5 -51.5t-20.5 -50.5t-53.5 -18.5z" />
    <glyph glyph-name="uni1E69" unicode="&#x1e69;" horiz-adv-x="867" 
d="M396 -18q-76 0 -144 10t-135 31v83q80 -24 146.5 -34t135.5 -10q155 0 227.5 56.5t72.5 159.5q0 89 -45.5 136.5t-152.5 70.5l-133 29q-146 33 -207 104.5t-61 180.5q0 129 96.5 213.5t296.5 84.5q65 0 124 -7t116 -23v-82q-66 18 -121.5 25t-117.5 7
q-110 0 -176.5 -28.5t-96.5 -77t-30 -108.5q0 -78 42 -129t148 -75l133 -28q152 -33 213.5 -103.5t61.5 -183.5q0 -139 -98.5 -220.5t-294.5 -81.5zM439 -322q-32 0 -52 19.5t-20 51.5q0 33 20 52.5t52 19.5t52 -19.5t20 -52.5q0 -32 -20 -51.5t-52 -19.5zM439 1351
q-33 0 -53.5 19t-20.5 52t20.5 53t53.5 20t53.5 -20t20.5 -53t-20.5 -52t-53.5 -19z" />
    <glyph glyph-name="uni1E6C" unicode="&#x1e6c;" horiz-adv-x="1127" 
d="M518 0v1396h-504v84h1099v-84h-504v-1396h-91zM564 -319q-33 0 -53.5 18.5t-20.5 50.5t20.5 51.5t53.5 19.5t53.5 -19.5t20.5 -51.5t-20.5 -50.5t-53.5 -18.5z" />
    <glyph glyph-name="uni1E6D" unicode="&#x1e6d;" horiz-adv-x="707" 
d="M548 -18q-152 0 -238 79t-86 256v764l13 399h77v-1148q0 -147 62.5 -207t182.5 -60q32 0 65.5 4.5t73.5 13.5v-84q-39 -9 -75.5 -13t-74.5 -4zM8 1001v80h670v-80h-670zM462 -322q-32 0 -52 19.5t-20 51.5q0 33 20 52.5t52 19.5t52 -19.5t20 -52.5q0 -32 -20 -51.5
t-52 -19.5z" />
    <glyph glyph-name="uni1E6E" unicode="&#x1e6e;" horiz-adv-x="1127" 
d="M518 0v1396h-504v84h1099v-84h-504v-1396h-91zM286 -285v70h556v-70h-556z" />
    <glyph glyph-name="uni1E6F" unicode="&#x1e6f;" horiz-adv-x="707" 
d="M548 -18q-152 0 -238 79t-86 256v764l13 399h77v-1148q0 -147 62.5 -207t182.5 -60q32 0 65.5 4.5t73.5 13.5v-84q-39 -9 -75.5 -13t-74.5 -4zM8 1001v80h670v-80h-670zM204 -287v71h516v-71h-516z" />
    <glyph glyph-name="uni1E78" unicode="&#x1e78;" horiz-adv-x="1383" 
d="M693 -18q-178 0 -292 58.5t-169 181.5t-55 314v944h90v-956q0 -237 102 -348t324 -111t323.5 111t101.5 348v956h87v-944q0 -191 -54.5 -314t-168 -181.5t-289.5 -58.5zM648 1890l175 232h105l-193 -232h-87zM839 1690q-44 0 -84 13t-77 28q-33 14 -65.5 24.5t-66.5 10.5
q-50 0 -87.5 -17.5t-71.5 -53.5v77q28 31 67.5 46.5t92.5 15.5q44 0 84 -12.5t77 -28.5q33 -13 65.5 -24t66.5 -11q50 0 88 17.5t71 53.5v-77q-27 -30 -66.5 -46t-93.5 -16z" />
    <glyph glyph-name="uni1E79" unicode="&#x1e79;" horiz-adv-x="1089" 
d="M486 -18q-97 0 -172.5 34.5t-118.5 114.5t-43 214v736h90v-735q0 -157 71 -218.5t183 -61.5q55 0 116.5 17t119 54t102.5 98v846h89v-1081h-77l-8 123h-8q-69 -71 -159 -106t-185 -35zM674 1372q-41 0 -78.5 13.5t-72.5 28.5q-31 13 -61 24t-61 11q-45 0 -82 -17.5
t-70 -54.5v78q56 63 153 63q41 0 78.5 -13.5t72.5 -28.5q32 -14 62 -25t60 -11q46 0 82.5 18t69.5 55v-79q-56 -62 -153 -62zM496 1603l176 275h101l-193 -275h-84z" />
    <glyph glyph-name="uni1E7A" unicode="&#x1e7a;" horiz-adv-x="1383" 
d="M693 -18q-178 0 -292 58.5t-169 181.5t-55 314v944h90v-956q0 -237 102 -348t324 -111t323.5 111t101.5 348v956h87v-944q0 -191 -54.5 -314t-168 -181.5t-289.5 -58.5zM415 1716v71h556v-71h-556zM916 1921q-32 0 -51.5 18.5t-19.5 50.5t19.5 51.5t51.5 19.5t52 -19.5
t20 -51.5t-20 -50.5t-52 -18.5zM470 1921q-32 0 -52 18.5t-20 50.5t20 51.5t52 19.5t51.5 -19.5t19.5 -51.5t-19.5 -50.5t-51.5 -18.5z" />
    <glyph glyph-name="uni1E7B" unicode="&#x1e7b;" horiz-adv-x="1089" 
d="M486 -18q-97 0 -172.5 34.5t-118.5 114.5t-43 214v736h90v-735q0 -157 71 -218.5t183 -61.5q55 0 116.5 17t119 54t102.5 98v846h89v-1081h-77l-8 123h-8q-69 -71 -159 -106t-185 -35zM249 1388v70h578v-70h-578zM742 1624q-32 0 -52 19.5t-20 51.5q0 33 20 52.5t52 19.5
t51.5 -19.5t19.5 -52.5q0 -32 -19.5 -51.5t-51.5 -19.5zM334 1624q-32 0 -51.5 19.5t-19.5 51.5q0 33 19.5 52.5t51.5 19.5t52 -19.5t20 -52.5q0 -32 -20 -51.5t-52 -19.5z" />
    <glyph glyph-name="Wgrave" unicode="&#x1e80;" horiz-adv-x="2043" 
d="M495 0l-429 1480h95l409 -1431h-22l416 1431h117l417 -1431h-21l410 1431h90l-429 -1480h-122l-415 1419h23l-417 -1419h-122zM981 1614l-193 275h101l176 -275h-84z" />
    <glyph glyph-name="wgrave" unicode="&#x1e81;" horiz-adv-x="1640" 
d="M396 0l-328 1081h92l304 -1018h-16l315 1018h117l316 -1018h-17l304 1018h89l-326 -1081h-117l-317 1016h17l-317 -1016h-116zM780 1261l-226 355h100l210 -355h-84z" />
    <glyph glyph-name="Wacute" unicode="&#x1e82;" horiz-adv-x="2043" 
d="M495 0l-429 1480h95l409 -1431h-22l416 1431h117l417 -1431h-21l410 1431h90l-429 -1480h-122l-415 1419h23l-417 -1419h-122zM981 1614l176 275h101l-193 -275h-84z" />
    <glyph glyph-name="wacute" unicode="&#x1e83;" horiz-adv-x="1640" 
d="M396 0l-328 1081h92l304 -1018h-16l315 1018h117l316 -1018h-17l304 1018h89l-326 -1081h-117l-317 1016h17l-317 -1016h-116zM780 1261l210 355h100l-226 -355h-84z" />
    <glyph glyph-name="Wdieresis" unicode="&#x1e84;" horiz-adv-x="2043" 
d="M495 0l-429 1480h95l409 -1431h-22l416 1431h117l417 -1431h-21l410 1431h90l-429 -1480h-122l-415 1419h23l-417 -1419h-122zM1246 1683q-32 0 -51.5 18.5t-19.5 50.5t19.5 51.5t51.5 19.5t52 -19.5t20 -51.5t-20 -50.5t-52 -18.5zM800 1683q-32 0 -52 18.5t-20 50.5
t20 51.5t52 19.5t51.5 -19.5t19.5 -51.5t-19.5 -50.5t-51.5 -18.5z" />
    <glyph glyph-name="wdieresis" unicode="&#x1e85;" horiz-adv-x="1640" 
d="M396 0l-328 1081h92l304 -1018h-16l315 1018h117l316 -1018h-17l304 1018h89l-326 -1081h-117l-317 1016h17l-317 -1016h-116zM1026 1351q-32 0 -52 19.5t-20 51.5q0 33 20 52.5t52 19.5t51.5 -19.5t19.5 -52.5q0 -32 -19.5 -51.5t-51.5 -19.5zM618 1351
q-32 0 -51.5 19.5t-19.5 51.5q0 33 19.5 52.5t51.5 19.5t52 -19.5t20 -52.5q0 -32 -20 -51.5t-52 -19.5z" />
    <glyph glyph-name="uni1E8E" unicode="&#x1e8e;" horiz-adv-x="1127" 
d="M519 0v711l22 -70l-563 839h106l501 -751h-39l494 751h101l-554 -839l22 70v-711h-90zM564 1683q-33 0 -53.5 18.5t-20.5 50.5t20.5 51.5t53.5 19.5t53.5 -19.5t20.5 -51.5t-20.5 -50.5t-53.5 -18.5z" />
    <glyph glyph-name="uni1E8F" unicode="&#x1e8f;" horiz-adv-x="1010" 
d="M300 -440l173 440l25 55l395 1026h94l-594 -1521h-93zM445 0l-422 1081h98l414 -1081h-90zM506 1351q-33 0 -53.5 19t-20.5 52t20.5 53t53.5 20t53.5 -20t20.5 -53t-20.5 -52t-53.5 -19z" />
    <glyph glyph-name="uni1E92" unicode="&#x1e92;" horiz-adv-x="1115" 
d="M63 0v52l873 1374l13 -28h-874v82h965v-52l-873 -1374l-13 28h898v-82h-989zM558 -319q-33 0 -53.5 18.5t-20.5 50.5t20.5 51.5t53.5 19.5t53.5 -19.5t20.5 -51.5t-20.5 -50.5t-53.5 -18.5z" />
    <glyph glyph-name="uni1E93" unicode="&#x1e93;" horiz-adv-x="878" 
d="M61 0v54l648 975v-28h-636v80h736v-54l-647 -975v28h659v-80h-760zM442 -322q-32 0 -52 19.5t-20 51.5q0 33 20 52.5t52 19.5t52 -19.5t20 -52.5q0 -32 -20 -51.5t-52 -19.5z" />
    <glyph glyph-name="uni1E97" unicode="&#x1e97;" horiz-adv-x="707" 
d="M548 -18q-152 0 -238 79t-86 256v764l13 399h77v-1148q0 -147 62.5 -207t182.5 -60q32 0 65.5 4.5t73.5 13.5v-84q-39 -9 -75.5 -13t-74.5 -4zM8 1001v80h670v-80h-670zM473 1633q-32 0 -52 19.5t-20 51.5q0 33 20 52.5t52 19.5t51.5 -19.5t19.5 -52.5q0 -32 -19.5 -51.5
t-51.5 -19.5zM65 1633q-32 0 -51.5 19.5t-19.5 51.5q0 33 19.5 52.5t51.5 19.5t52 -19.5t20 -52.5q0 -32 -20 -51.5t-52 -19.5z" />
    <glyph glyph-name="uni1E9E" unicode="&#x1e9e;" horiz-adv-x="1324" 
d="M1119 1369v-49l-437 -554l-5 20q33 5 63.5 6t72.5 1q122 0 219 -41t153.5 -127t56.5 -221q0 -131 -57.5 -225.5t-166 -145.5t-263.5 -51q-75 0 -155.5 14t-162.5 43v85q61 -21 115.5 -34t104.5 -19t97 -6q194 0 294.5 89t100.5 250q0 154 -93 233.5t-268 79.5
q-57 0 -106.5 -3t-107.5 -12v52l476 605l-4 -43q-71 56 -163 79t-197 23q-232 0 -338.5 -113.5t-106.5 -311.5v-993h-90v985q0 163 59 277.5t178 175t300 60.5q130 0 238 -32.5t193 -96.5z" />
    <glyph glyph-name="uni1EA0" unicode="&#x1ea0;" horiz-adv-x="1301" 
d="M35 0l556 1480h119l556 -1480h-96l-533 1431h25l-533 -1431h-94zM289 517l25 82h673l24 -82h-722zM651 -319q-33 0 -53.5 18.5t-20.5 50.5t20.5 51.5t53.5 19.5t53.5 -19.5t20.5 -51.5t-20.5 -50.5t-53.5 -18.5z" />
    <glyph glyph-name="uni1EA1" unicode="&#x1ea1;" horiz-adv-x="991" 
d="M422 -16q-147 0 -232.5 75t-85.5 211t88 212.5t279 97.5l319 37l6 -75l-324 -38q-145 -16 -209 -71.5t-64 -154.5q0 -105 59 -160t175 -55q85 0 168 37.5t149 123.5v516q0 109 -34 169t-99.5 83.5t-160.5 23.5q-61 0 -137 -11.5t-154 -38.5v83q64 23 144 35.5t152 12.5
q121 0 205.5 -33t128.5 -111.5t44 -214.5v-738h-78l-7 126h-9q-54 -67 -139.5 -104.5t-183.5 -37.5zM504 -322q-32 0 -52 19.5t-20 51.5q0 33 20 52.5t52 19.5t52 -19.5t20 -52.5q0 -32 -20 -51.5t-52 -19.5z" />
    <glyph glyph-name="uni1EA2" unicode="&#x1ea2;" horiz-adv-x="1301" 
d="M35 0l556 1480h119l556 -1480h-96l-533 1431h25l-533 -1431h-94zM289 517l25 82h673l24 -82h-722zM615 1614q2 47 34 68t65 36q27 11 48 24t21 37q0 23 -24.5 37.5t-95.5 14.5q-52 0 -99 -8.5t-98 -27.5v60q39 17 90 26.5t109 9.5q97 0 141.5 -31t44.5 -78
q0 -44 -28.5 -64.5t-61.5 -35.5q-27 -12 -49.5 -26.5t-25.5 -41.5h-71z" />
    <glyph glyph-name="uni1EA3" unicode="&#x1ea3;" horiz-adv-x="991" 
d="M422 -16q-147 0 -232.5 75t-85.5 211t88 212.5t279 97.5l319 37l6 -75l-324 -38q-145 -16 -209 -71.5t-64 -154.5q0 -105 59 -160t175 -55q85 0 168 37.5t149 123.5v516q0 109 -34 169t-99.5 83.5t-160.5 23.5q-61 0 -137 -11.5t-154 -38.5v83q64 23 144 35.5t152 12.5
q121 0 205.5 -33t128.5 -111.5t44 -214.5v-738h-78l-7 126h-9q-54 -67 -139.5 -104.5t-183.5 -37.5zM455 1261q1 55 26 86t56 51t54.5 41t23.5 53q0 38 -29.5 56t-95.5 18q-36 0 -78 -6t-76 -18v62q30 11 71 17.5t81 6.5q102 0 149 -35.5t47 -98.5q0 -48 -23.5 -75
t-54.5 -46t-55 -43.5t-25 -68.5h-71z" />
    <glyph glyph-name="uni1EA4" unicode="&#x1ea4;" horiz-adv-x="1301" 
d="M35 0l556 1480h119l556 -1480h-96l-533 1431h25l-533 -1431h-94zM289 517l25 82h673l24 -82h-722zM363 1614l242 272h92l242 -272h-95l-207 239h28l-207 -239h-95zM868 1794l170 270h91l-187 -270h-74z" />
    <glyph glyph-name="uni1EA5" unicode="&#x1ea5;" horiz-adv-x="991" 
d="M422 -16q-147 0 -232.5 75t-85.5 211t88 212.5t279 97.5l319 37l6 -75l-324 -38q-145 -16 -209 -71.5t-64 -154.5q0 -105 59 -160t175 -55q85 0 168 37.5t149 123.5v516q0 109 -34 169t-99.5 83.5t-160.5 23.5q-61 0 -137 -11.5t-154 -38.5v83q64 23 144 35.5t152 12.5
q121 0 205.5 -33t128.5 -111.5t44 -214.5v-738h-78l-7 126h-9q-54 -67 -139.5 -104.5t-183.5 -37.5zM226 1261l219 355h92l219 -355h-84l-195 323h28l-195 -323h-84zM694 1596l176 272h95l-193 -272h-78z" />
    <glyph glyph-name="uni1EA6" unicode="&#x1ea6;" horiz-adv-x="1301" 
d="M35 0l556 1480h119l556 -1480h-96l-533 1431h25l-533 -1431h-94zM289 517l25 82h673l24 -82h-722zM369 1614l242 272h93l241 -272h-95l-207 239h28l-207 -239h-95zM895 1794l-187 270h91l170 -270h-74z" />
    <glyph glyph-name="uni1EA7" unicode="&#x1ea7;" horiz-adv-x="991" 
d="M422 -16q-147 0 -232.5 75t-85.5 211t88 212.5t279 97.5l319 37l6 -75l-324 -38q-145 -16 -209 -71.5t-64 -154.5q0 -105 59 -160t175 -55q85 0 168 37.5t149 123.5v516q0 109 -34 169t-99.5 83.5t-160.5 23.5q-61 0 -137 -11.5t-154 -38.5v83q64 23 144 35.5t152 12.5
q121 0 205.5 -33t128.5 -111.5t44 -214.5v-738h-78l-7 126h-9q-54 -67 -139.5 -104.5t-183.5 -37.5zM226 1261l219 355h92l220 -355h-85l-194 323h27l-194 -323h-85zM714 1596l-193 272h95l176 -272h-78z" />
    <glyph glyph-name="uni1EA8" unicode="&#x1ea8;" horiz-adv-x="1301" 
d="M35 0l556 1480h119l556 -1480h-96l-533 1431h25l-533 -1431h-94zM289 517l25 82h673l24 -82h-722zM363 1614l242 272h92l242 -272h-95l-207 239h28l-207 -239h-95zM868 1794q2 42 28 63.5t58.5 34t57 26t24.5 40.5q0 23 -24.5 37t-95.5 14q-52 0 -98.5 -8t-98.5 -28v60
q39 16 90 25.5t109 9.5q97 0 141.5 -30.5t44.5 -77.5q0 -39 -23.5 -60t-55.5 -33.5t-57 -27.5t-28 -45h-72z" />
    <glyph glyph-name="uni1EA9" unicode="&#x1ea9;" horiz-adv-x="991" 
d="M422 -16q-147 0 -232.5 75t-85.5 211t88 212.5t279 97.5l319 37l6 -75l-324 -38q-145 -16 -209 -71.5t-64 -154.5q0 -105 59 -160t175 -55q85 0 168 37.5t149 123.5v516q0 109 -34 169t-99.5 83.5t-160.5 23.5q-61 0 -137 -11.5t-154 -38.5v83q64 23 144 35.5t152 12.5
q121 0 205.5 -33t128.5 -111.5t44 -214.5v-738h-78l-7 126h-9q-54 -67 -139.5 -104.5t-183.5 -37.5zM226 1261l219 355h92l219 -355h-84l-195 323h28l-195 -323h-84zM700 1596q2 42 27.5 63.5t58 34t57 26t24.5 40.5q0 23 -24.5 37t-95.5 14q-51 0 -98 -8t-97 -28v60
q38 16 89 25.5t108 9.5q97 0 141.5 -30.5t44.5 -77.5q0 -39 -24 -59.5t-55.5 -33t-56.5 -28t-28 -45.5h-71z" />
    <glyph glyph-name="uni1EAA" unicode="&#x1eaa;" horiz-adv-x="1301" 
d="M35 0l556 1480h119l556 -1480h-96l-533 1431h25l-533 -1431h-94zM289 517l25 82h673l24 -82h-722zM363 1614l242 272h92l242 -272h-95l-207 239h28l-207 -239h-95zM785 1932q-51 0 -97 18.5t-88.5 37.5t-83.5 19q-45 0 -82 -17.5t-71 -53.5v73q28 30 67 45.5t87 15.5
q51 0 97 -18.5t88.5 -37t83.5 -18.5q45 0 82 17t71 53v-73q-28 -30 -67 -45.5t-87 -15.5z" />
    <glyph glyph-name="uni1EAB" unicode="&#x1eab;" horiz-adv-x="991" 
d="M422 -16q-147 0 -232.5 75t-85.5 211t88 212.5t279 97.5l319 37l6 -75l-324 -38q-145 -16 -209 -71.5t-64 -154.5q0 -105 59 -160t175 -55q85 0 168 37.5t149 123.5v516q0 109 -34 169t-99.5 83.5t-160.5 23.5q-61 0 -137 -11.5t-154 -38.5v83q64 23 144 35.5t152 12.5
q121 0 205.5 -33t128.5 -111.5t44 -214.5v-738h-78l-7 126h-9q-54 -67 -139.5 -104.5t-183.5 -37.5zM224 1261l221 350h92l221 -350h-85l-196 320h28l-196 -320h-85zM628 1671q-52 0 -98.5 19t-90 38t-86.5 19q-45 0 -82 -17.5t-71 -53.5v75q28 30 66.5 46t87.5 16
q52 0 99 -19t90 -38t86 -19q46 0 83 17.5t70 52.5v-75q-27 -29 -66 -45t-88 -16z" />
    <glyph glyph-name="uni1EAC" unicode="&#x1eac;" horiz-adv-x="1301" 
d="M35 0l556 1480h119l556 -1480h-96l-533 1431h25l-533 -1431h-94zM289 517l25 82h673l24 -82h-722zM651 -319q-33 0 -53.5 18.5t-20.5 50.5t20.5 51.5t53.5 19.5t53.5 -19.5t20.5 -51.5t-20.5 -50.5t-53.5 -18.5zM363 1614l242 275h92l242 -275h-95l-207 241h28l-207 -241
h-95z" />
    <glyph glyph-name="uni1EAD" unicode="&#x1ead;" horiz-adv-x="991" 
d="M422 -16q-147 0 -232.5 75t-85.5 211t88 212.5t279 97.5l319 37l6 -75l-324 -38q-145 -16 -209 -71.5t-64 -154.5q0 -105 59 -160t175 -55q85 0 168 37.5t149 123.5v516q0 109 -34 169t-99.5 83.5t-160.5 23.5q-61 0 -137 -11.5t-154 -38.5v83q64 23 144 35.5t152 12.5
q121 0 205.5 -33t128.5 -111.5t44 -214.5v-738h-78l-7 126h-9q-54 -67 -139.5 -104.5t-183.5 -37.5zM504 -322q-32 0 -52 19.5t-20 51.5q0 33 20 52.5t52 19.5t52 -19.5t20 -52.5q0 -32 -20 -51.5t-52 -19.5zM226 1261l219 355h92l219 -355h-84l-195 323h28l-195 -323h-84z
" />
    <glyph glyph-name="uni1EAE" unicode="&#x1eae;" horiz-adv-x="1301" 
d="M35 0l556 1480h119l556 -1480h-96l-533 1431h25l-533 -1431h-94zM289 517l25 82h673l24 -82h-722zM652 1625q-138 0 -209 63.5t-81 171.5h68q10 -83 60 -126t162 -43q113 0 161 43t60 126h67q-9 -107 -80 -171t-208 -64zM614 1845l170 251h91l-187 -251h-74z" />
    <glyph glyph-name="uni1EAF" unicode="&#x1eaf;" horiz-adv-x="991" 
d="M422 -16q-147 0 -232.5 75t-85.5 211t88 212.5t279 97.5l319 37l6 -75l-324 -38q-145 -16 -209 -71.5t-64 -154.5q0 -105 59 -160t175 -55q85 0 168 37.5t149 123.5v516q0 109 -34 169t-99.5 83.5t-160.5 23.5q-61 0 -137 -11.5t-154 -38.5v83q64 23 144 35.5t152 12.5
q121 0 205.5 -33t128.5 -111.5t44 -214.5v-738h-78l-7 126h-9q-54 -67 -139.5 -104.5t-183.5 -37.5zM493 1273q-84 0 -144 37.5t-93 107.5t-37 168h70q8 -121 57 -184t147 -63q99 0 146.5 63t53.5 184h70q-4 -99 -36.5 -169t-91.5 -107t-142 -37zM452 1596l176 272h95
l-193 -272h-78z" />
    <glyph glyph-name="uni1EB0" unicode="&#x1eb0;" horiz-adv-x="1301" 
d="M35 0l556 1480h119l556 -1480h-96l-533 1431h25l-533 -1431h-94zM289 517l25 82h673l24 -82h-722zM650 1625q-138 0 -208 63.5t-80 171.5h67q11 -83 60 -126t161 -43q113 0 162 43t60 126h68q-9 -107 -81 -171t-209 -64zM614 1845l-187 251h91l170 -251h-74z" />
    <glyph glyph-name="uni1EB1" unicode="&#x1eb1;" horiz-adv-x="991" 
d="M422 -16q-147 0 -232.5 75t-85.5 211t88 212.5t279 97.5l319 37l6 -75l-324 -38q-145 -16 -209 -71.5t-64 -154.5q0 -105 59 -160t175 -55q85 0 168 37.5t149 123.5v516q0 109 -34 169t-99.5 83.5t-160.5 23.5q-61 0 -137 -11.5t-154 -38.5v83q64 23 144 35.5t152 12.5
q121 0 205.5 -33t128.5 -111.5t44 -214.5v-738h-78l-7 126h-9q-54 -67 -139.5 -104.5t-183.5 -37.5zM493 1273q-84 0 -144 37.5t-93 107.5t-37 168h70q8 -121 57 -184t147 -63q99 0 146.5 63t53.5 184h70q-4 -99 -36.5 -169t-91.5 -107t-142 -37zM452 1596l-193 272h95
l176 -272h-78z" />
    <glyph glyph-name="uni1EB2" unicode="&#x1eb2;" horiz-adv-x="1301" 
d="M35 0l556 1480h119l556 -1480h-96l-533 1431h25l-533 -1431h-94zM289 517l25 82h673l24 -82h-722zM649 1625q-137 0 -207 63.5t-80 171.5h68q10 -83 58.5 -126t160.5 -43t162 43t62 126h67q-9 -107 -81 -171t-210 -64zM615 1845q2 42 27.5 63.5t58.5 33.5t57.5 26
t24.5 41q0 22 -24.5 36.5t-95.5 14.5q-52 0 -99 -8.5t-98 -27.5v59q39 17 90 26t109 9q97 0 141.5 -30t44.5 -77q0 -40 -24 -60.5t-55.5 -33t-57 -27.5t-28.5 -45h-71z" />
    <glyph glyph-name="uni1EB3" unicode="&#x1eb3;" horiz-adv-x="991" 
d="M422 -16q-147 0 -232.5 75t-85.5 211t88 212.5t279 97.5l319 37l6 -75l-324 -38q-145 -16 -209 -71.5t-64 -154.5q0 -105 59 -160t175 -55q85 0 168 37.5t149 123.5v516q0 109 -34 169t-99.5 83.5t-160.5 23.5q-61 0 -137 -11.5t-154 -38.5v83q64 23 144 35.5t152 12.5
q121 0 205.5 -33t128.5 -111.5t44 -214.5v-738h-78l-7 126h-9q-54 -67 -139.5 -104.5t-183.5 -37.5zM493 1273q-84 0 -144 37.5t-93 107.5t-37 168h70q8 -121 57 -184t147 -63q99 0 146.5 63t53.5 184h70q-4 -99 -36.5 -169t-91.5 -107t-142 -37zM455 1596q2 42 27.5 63.5
t58.5 34t57.5 26t24.5 40.5q0 23 -24.5 37t-95.5 14q-52 0 -99 -8t-98 -28v60q39 16 90 25.5t109 9.5q97 0 141.5 -30.5t44.5 -77.5q0 -39 -24 -60t-55.5 -33.5t-57 -27.5t-28.5 -45h-71z" />
    <glyph glyph-name="uni1EB4" unicode="&#x1eb4;" horiz-adv-x="1301" 
d="M35 0l556 1480h119l556 -1480h-96l-533 1431h25l-533 -1431h-94zM289 517l25 82h673l24 -82h-722zM649 1625q-137 0 -207 63.5t-80 171.5h68q10 -83 58.5 -126t160.5 -43t162 43t61 126h68q-9 -107 -81 -171t-210 -64zM786 1932q-52 0 -98 18.5t-88.5 37.5t-83.5 19
q-46 0 -83 -17.5t-71 -53.5v73q29 30 67.5 45.5t86.5 15.5q52 0 98 -18.5t88.5 -37t83.5 -18.5q46 0 83 17t71 53v-73q-28 -30 -67 -45.5t-87 -15.5z" />
    <glyph glyph-name="uni1EB5" unicode="&#x1eb5;" horiz-adv-x="991" 
d="M422 -16q-147 0 -232.5 75t-85.5 211t88 212.5t279 97.5l319 37l6 -75l-324 -38q-145 -16 -209 -71.5t-64 -154.5q0 -105 59 -160t175 -55q85 0 168 37.5t149 123.5v516q0 109 -34 169t-99.5 83.5t-160.5 23.5q-61 0 -137 -11.5t-154 -38.5v83q64 23 144 35.5t152 12.5
q121 0 205.5 -33t128.5 -111.5t44 -214.5v-738h-78l-7 126h-9q-54 -67 -139.5 -104.5t-183.5 -37.5zM493 1273q-84 0 -144 37.5t-93 107.5t-37 168h70q8 -121 57 -184t147 -63q99 0 146.5 63t53.5 184h70q-4 -99 -36.5 -169t-91.5 -107t-142 -37zM628 1671q-52 0 -98.5 19
t-90 37.5t-86.5 18.5q-46 0 -83 -17t-71 -53v75q28 30 67 46t88 16q52 0 99 -19t90 -38t86 -19q47 0 83.5 17.5t70.5 52.5v-75q-28 -29 -66.5 -45t-88.5 -16z" />
    <glyph glyph-name="uni1EB6" unicode="&#x1eb6;" horiz-adv-x="1301" 
d="M35 0l556 1480h119l556 -1480h-96l-533 1431h25l-533 -1431h-94zM289 517l25 82h673l24 -82h-722zM651 -319q-33 0 -53.5 18.5t-20.5 50.5t20.5 51.5t53.5 19.5t53.5 -19.5t20.5 -51.5t-20.5 -50.5t-53.5 -18.5zM653 1625q-92 0 -155 29.5t-97 83t-41 125.5h70
q12 -83 62 -126.5t161 -43.5t160 43.5t59 126.5h70q-7 -73 -40 -126.5t-95 -82.5t-154 -29z" />
    <glyph glyph-name="uni1EB7" unicode="&#x1eb7;" horiz-adv-x="991" 
d="M422 -16q-147 0 -232.5 75t-85.5 211t88 212.5t279 97.5l319 37l6 -75l-324 -38q-145 -16 -209 -71.5t-64 -154.5q0 -105 59 -160t175 -55q85 0 168 37.5t149 123.5v516q0 109 -34 169t-99.5 83.5t-160.5 23.5q-61 0 -137 -11.5t-154 -38.5v83q64 23 144 35.5t152 12.5
q121 0 205.5 -33t128.5 -111.5t44 -214.5v-738h-78l-7 126h-9q-54 -67 -139.5 -104.5t-183.5 -37.5zM504 -322q-32 0 -52 19.5t-20 51.5q0 33 20 52.5t52 19.5t52 -19.5t20 -52.5q0 -32 -20 -51.5t-52 -19.5zM493 1273q-125 0 -196 83t-77 232h70q8 -121 56.5 -185
t146.5 -64t146 64t53 185h70q-6 -150 -75 -232.5t-194 -82.5z" />
    <glyph glyph-name="uni1EB8" unicode="&#x1eb8;" horiz-adv-x="1127" 
d="M185 0v1480h861v-83h-771v-1314h781v-83h-871zM247 719v83h703v-83h-703zM639 -319q-33 0 -53.5 18.5t-20.5 50.5t20.5 51.5t53.5 19.5t53.5 -19.5t20.5 -51.5t-20.5 -50.5t-53.5 -18.5z" />
    <glyph glyph-name="uni1EB9" unicode="&#x1eb9;" horiz-adv-x="995" 
d="M580 -18q-152 0 -258.5 56.5t-161.5 179.5t-55 323q0 195 51 318t142.5 180.5t214.5 57.5t211 -57.5t135.5 -180.5t47.5 -319v-35h-757v76h695l-29 -25q0 171 -36 272.5t-104 146.5t-163 45q-96 0 -166.5 -44.5t-109.5 -146t-39 -273.5v-25q0 -171 45 -274t132 -148.5
t213 -45.5q61 0 126 12t142 36v-83q-74 -24 -141.5 -35t-134.5 -11zM513 -322q-32 0 -52 19.5t-20 51.5q0 33 20 52.5t52 19.5t52 -19.5t20 -52.5q0 -32 -20 -51.5t-52 -19.5z" />
    <glyph glyph-name="uni1EBA" unicode="&#x1eba;" horiz-adv-x="1127" 
d="M185 0v1480h861v-83h-771v-1314h781v-83h-871zM247 719v83h703v-83h-703zM602 1614q2 47 34 68t65 36q27 11 48 24t21 37q0 23 -24.5 37.5t-95.5 14.5q-52 0 -99 -8.5t-98 -27.5v60q39 17 90 26.5t109 9.5q97 0 141.5 -31t44.5 -78q0 -44 -28.5 -64.5t-61.5 -35.5
q-27 -12 -49.5 -26.5t-25.5 -41.5h-71z" />
    <glyph glyph-name="uni1EBB" unicode="&#x1ebb;" horiz-adv-x="995" 
d="M580 -18q-152 0 -258.5 56.5t-161.5 179.5t-55 323q0 195 51 318t142.5 180.5t214.5 57.5t211 -57.5t135.5 -180.5t47.5 -319v-35h-757v76h695l-29 -25q0 171 -36 272.5t-104 146.5t-163 45q-96 0 -166.5 -44.5t-109.5 -146t-39 -273.5v-25q0 -171 45 -274t132 -148.5
t213 -45.5q61 0 126 12t142 36v-83q-74 -24 -141.5 -35t-134.5 -11zM478 1261q1 55 26 86t56 51t54.5 41t23.5 53q0 38 -29.5 56t-95.5 18q-36 0 -78 -6t-76 -18v62q30 11 71 17.5t81 6.5q102 0 149 -35.5t47 -98.5q0 -48 -23.5 -75t-54.5 -46t-55 -43.5t-25 -68.5h-71z" />
    <glyph glyph-name="uni1EBC" unicode="&#x1ebc;" horiz-adv-x="1127" 
d="M185 0v1480h861v-83h-771v-1314h781v-83h-871zM247 719v83h703v-83h-703zM784 1690q-44 0 -84 13t-77 28q-33 14 -65.5 24.5t-66.5 10.5q-50 0 -87.5 -17.5t-71.5 -53.5v77q28 31 67.5 46.5t92.5 15.5q44 0 84 -12.5t77 -28.5q33 -13 65.5 -24t66.5 -11q50 0 88 17.5
t71 53.5v-77q-27 -30 -66.5 -46t-93.5 -16z" />
    <glyph glyph-name="uni1EBD" unicode="&#x1ebd;" horiz-adv-x="995" 
d="M580 -18q-152 0 -258.5 56.5t-161.5 179.5t-55 323q0 195 51 318t142.5 180.5t214.5 57.5t211 -57.5t135.5 -180.5t47.5 -319v-35h-757v76h695l-29 -25q0 171 -36 272.5t-104 146.5t-163 45q-96 0 -166.5 -44.5t-109.5 -146t-39 -273.5v-25q0 -171 45 -274t132 -148.5
t213 -45.5q61 0 126 12t142 36v-83q-74 -24 -141.5 -35t-134.5 -11zM649 1372q-41 0 -78.5 13.5t-72.5 28.5q-31 13 -61 24t-61 11q-45 0 -82 -17.5t-70 -54.5v78q56 63 153 63q41 0 78.5 -13.5t72.5 -28.5q32 -14 62 -25t60 -11q46 0 82.5 18t69.5 55v-79q-56 -62 -153 -62
z" />
    <glyph glyph-name="uni1EBE" unicode="&#x1ebe;" horiz-adv-x="1127" 
d="M185 0v1480h861v-83h-771v-1314h781v-83h-871zM247 719v83h703v-83h-703zM350 1614l242 272h92l242 -272h-95l-207 239h28l-207 -239h-95zM855 1794l170 270h91l-187 -270h-74z" />
    <glyph glyph-name="uni1EBF" unicode="&#x1ebf;" horiz-adv-x="995" 
d="M580 -18q-152 0 -258.5 56.5t-161.5 179.5t-55 323q0 195 51 318t142.5 180.5t214.5 57.5t211 -57.5t135.5 -180.5t47.5 -319v-35h-757v76h695l-29 -25q0 171 -36 272.5t-104 146.5t-163 45q-96 0 -166.5 -44.5t-109.5 -146t-39 -273.5v-25q0 -171 45 -274t132 -148.5
t213 -45.5q61 0 126 12t142 36v-83q-74 -24 -141.5 -35t-134.5 -11zM248 1261l219 355h92l219 -355h-84l-195 323h28l-195 -323h-84zM716 1596l176 272h95l-193 -272h-78z" />
    <glyph glyph-name="uni1EC0" unicode="&#x1ec0;" horiz-adv-x="1127" 
d="M185 0v1480h861v-83h-771v-1314h781v-83h-871zM247 719v83h703v-83h-703zM356 1614l242 272h93l241 -272h-95l-207 239h28l-207 -239h-95zM882 1794l-187 270h91l170 -270h-74z" />
    <glyph glyph-name="uni1EC1" unicode="&#x1ec1;" horiz-adv-x="995" 
d="M580 -18q-152 0 -258.5 56.5t-161.5 179.5t-55 323q0 195 51 318t142.5 180.5t214.5 57.5t211 -57.5t135.5 -180.5t47.5 -319v-35h-757v76h695l-29 -25q0 171 -36 272.5t-104 146.5t-163 45q-96 0 -166.5 -44.5t-109.5 -146t-39 -273.5v-25q0 -171 45 -274t132 -148.5
t213 -45.5q61 0 126 12t142 36v-83q-74 -24 -141.5 -35t-134.5 -11zM248 1261l219 355h92l220 -355h-85l-194 323h27l-194 -323h-85zM736 1596l-193 272h95l176 -272h-78z" />
    <glyph glyph-name="uni1EC2" unicode="&#x1ec2;" horiz-adv-x="1127" 
d="M185 0v1480h861v-83h-771v-1314h781v-83h-871zM247 719v83h703v-83h-703zM350 1614l242 272h92l242 -272h-95l-207 239h28l-207 -239h-95zM855 1794q2 42 28 63.5t58.5 34t57 26t24.5 40.5q0 23 -24.5 37t-95.5 14q-52 0 -98.5 -8t-98.5 -28v60q39 16 90 25.5t109 9.5
q97 0 141.5 -30.5t44.5 -77.5q0 -39 -23.5 -60t-55.5 -33.5t-57 -27.5t-28 -45h-72z" />
    <glyph glyph-name="uni1EC3" unicode="&#x1ec3;" horiz-adv-x="995" 
d="M580 -18q-152 0 -258.5 56.5t-161.5 179.5t-55 323q0 195 51 318t142.5 180.5t214.5 57.5t211 -57.5t135.5 -180.5t47.5 -319v-35h-757v76h695l-29 -25q0 171 -36 272.5t-104 146.5t-163 45q-96 0 -166.5 -44.5t-109.5 -146t-39 -273.5v-25q0 -171 45 -274t132 -148.5
t213 -45.5q61 0 126 12t142 36v-83q-74 -24 -141.5 -35t-134.5 -11zM248 1261l219 355h92l219 -355h-84l-195 323h28l-195 -323h-84zM722 1596q2 42 27.5 63.5t58 34t57 26t24.5 40.5q0 23 -24.5 37t-95.5 14q-51 0 -98 -8t-97 -28v60q38 16 89 25.5t108 9.5
q97 0 141.5 -30.5t44.5 -77.5q0 -39 -24 -59.5t-55.5 -33t-56.5 -28t-28 -45.5h-71z" />
    <glyph glyph-name="uni1EC4" unicode="&#x1ec4;" horiz-adv-x="1127" 
d="M185 0v1480h861v-83h-771v-1314h781v-83h-871zM247 719v83h703v-83h-703zM350 1614l242 272h92l242 -272h-95l-207 239h28l-207 -239h-95zM772 1932q-51 0 -97 18.5t-88.5 37.5t-83.5 19q-45 0 -82 -17.5t-71 -53.5v73q28 30 67 45.5t87 15.5q51 0 97 -18.5t88.5 -37
t83.5 -18.5q45 0 82 17t71 53v-73q-28 -30 -67 -45.5t-87 -15.5z" />
    <glyph glyph-name="uni1EC5" unicode="&#x1ec5;" horiz-adv-x="995" 
d="M580 -18q-152 0 -258.5 56.5t-161.5 179.5t-55 323q0 195 51 318t142.5 180.5t214.5 57.5t211 -57.5t135.5 -180.5t47.5 -319v-35h-757v76h695l-29 -25q0 171 -36 272.5t-104 146.5t-163 45q-96 0 -166.5 -44.5t-109.5 -146t-39 -273.5v-25q0 -171 45 -274t132 -148.5
t213 -45.5q61 0 126 12t142 36v-83q-74 -24 -141.5 -35t-134.5 -11zM246 1261l221 350h92l221 -350h-85l-196 320h28l-196 -320h-85zM650 1671q-52 0 -98.5 19t-90 38t-86.5 19q-45 0 -82 -17.5t-71 -53.5v75q28 30 66.5 46t87.5 16q52 0 99 -19t90 -38t86 -19q46 0 83 17.5
t70 52.5v-75q-27 -29 -66 -45t-88 -16z" />
    <glyph glyph-name="uni1EC6" unicode="&#x1ec6;" horiz-adv-x="1127" 
d="M185 0v1480h861v-83h-771v-1314h781v-83h-871zM247 719v83h703v-83h-703zM639 -319q-33 0 -53.5 18.5t-20.5 50.5t20.5 51.5t53.5 19.5t53.5 -19.5t20.5 -51.5t-20.5 -50.5t-53.5 -18.5zM350 1614l242 275h92l242 -275h-95l-207 241h28l-207 -241h-95z" />
    <glyph glyph-name="uni1EC7" unicode="&#x1ec7;" horiz-adv-x="995" 
d="M580 -18q-152 0 -258.5 56.5t-161.5 179.5t-55 323q0 195 51 318t142.5 180.5t214.5 57.5t211 -57.5t135.5 -180.5t47.5 -319v-35h-757v76h695l-29 -25q0 171 -36 272.5t-104 146.5t-163 45q-96 0 -166.5 -44.5t-109.5 -146t-39 -273.5v-25q0 -171 45 -274t132 -148.5
t213 -45.5q61 0 126 12t142 36v-83q-74 -24 -141.5 -35t-134.5 -11zM513 -322q-32 0 -52 19.5t-20 51.5q0 33 20 52.5t52 19.5t52 -19.5t20 -52.5q0 -32 -20 -51.5t-52 -19.5zM248 1261l219 355h92l219 -355h-84l-195 323h28l-195 -323h-84z" />
    <glyph glyph-name="uni1EC8" unicode="&#x1ec8;" horiz-adv-x="460" 
d="M185 0v1480h90v-1480h-90zM194 1614q2 47 34 68t65 36q27 11 48 24t21 37q0 23 -24.5 37.5t-95.5 14.5q-52 0 -99 -8.5t-98 -27.5v60q39 17 90 26.5t109 9.5q97 0 141.5 -31t44.5 -78q0 -44 -28.5 -64.5t-61.5 -35.5q-27 -12 -49.5 -26.5t-25.5 -41.5h-71z" />
    <glyph glyph-name="uni1EC9" unicode="&#x1ec9;" horiz-adv-x="421" 
d="M166 0v1081h89v-1081h-89zM175 1261q1 55 26 86t56 51t54.5 41t23.5 53q0 38 -29.5 56t-95.5 18q-36 0 -78 -6t-76 -18v62q30 11 71 17.5t81 6.5q102 0 149 -35.5t47 -98.5q0 -48 -23.5 -75t-54.5 -46t-55 -43.5t-25 -68.5h-71z" />
    <glyph glyph-name="uni1ECA" unicode="&#x1eca;" horiz-adv-x="460" 
d="M185 0v1480h90v-1480h-90zM230 -319q-33 0 -53.5 18.5t-20.5 50.5t20.5 51.5t53.5 19.5t53.5 -19.5t20.5 -51.5t-20.5 -50.5t-53.5 -18.5z" />
    <glyph glyph-name="uni1ECB" unicode="&#x1ecb;" horiz-adv-x="421" 
d="M166 0v1081h89v-1081h-89zM210 1351q-33 0 -53.5 19t-20.5 52t20.5 53t53.5 20t53.5 -20t20.5 -53t-20.5 -52t-53.5 -19zM210 -322q-32 0 -52 19.5t-20 51.5q0 33 20 52.5t52 19.5t52 -19.5t20 -52.5q0 -32 -20 -51.5t-52 -19.5z" />
    <glyph glyph-name="uni1ECC" unicode="&#x1ecc;" horiz-adv-x="1385" 
d="M692 -18q-173 0 -302.5 76.5t-202 243.5t-72.5 438t73 438t203 243.5t301 76.5q173 0 303 -76.5t202.5 -243.5t72.5 -438t-73 -438t-203 -243.5t-302 -76.5zM692 66q145 0 253.5 63.5t169 210.5t60.5 396q0 253 -60.5 401.5t-169.5 212.5t-253 64t-252.5 -63.5
t-169 -210.5t-60.5 -396q0 -253 60.5 -401.5t169 -212.5t252.5 -64zM692 -319q-33 0 -53.5 18.5t-20.5 50.5t20.5 51.5t53.5 19.5t53.5 -19.5t20.5 -51.5t-20.5 -50.5t-53.5 -18.5z" />
    <glyph glyph-name="uni1ECD" unicode="&#x1ecd;" horiz-adv-x="1071" 
d="M535 -18q-129 0 -226 56.5t-150.5 179.5t-53.5 322q0 198 53.5 321t150.5 179.5t226 56.5q130 0 227 -56t150.5 -178.5t53.5 -322.5q0 -197 -54 -320.5t-150.5 -180.5t-226.5 -57zM535 63q103 0 179 44.5t117 148.5t41 282q0 180 -41 284.5t-117 149t-179 44.5
q-102 0 -178 -44t-117.5 -147.5t-41.5 -281.5q0 -180 41.5 -285t117.5 -150t178 -45zM535 -322q-32 0 -52 19.5t-20 51.5q0 33 20 52.5t52 19.5t52 -19.5t20 -52.5q0 -32 -20 -51.5t-52 -19.5z" />
    <glyph glyph-name="uni1ECE" unicode="&#x1ece;" horiz-adv-x="1385" 
d="M692 -18q-173 0 -302.5 76.5t-202 243.5t-72.5 438t73 438t203 243.5t301 76.5q173 0 303 -76.5t202.5 -243.5t72.5 -438t-73 -438t-203 -243.5t-302 -76.5zM692 66q145 0 253.5 63.5t169 210.5t60.5 396q0 253 -60.5 401.5t-169.5 212.5t-253 64t-252.5 -63.5
t-169 -210.5t-60.5 -396q0 -253 60.5 -401.5t169 -212.5t252.5 -64zM656 1614q2 47 34 68t65 36q27 11 48 24t21 37q0 23 -24.5 37.5t-95.5 14.5q-52 0 -99 -8.5t-98 -27.5v60q39 17 90 26.5t109 9.5q97 0 141.5 -31t44.5 -78q0 -44 -28.5 -64.5t-61.5 -35.5
q-27 -12 -49.5 -26.5t-25.5 -41.5h-71z" />
    <glyph glyph-name="uni1ECF" unicode="&#x1ecf;" horiz-adv-x="1071" 
d="M535 -18q-129 0 -226 56.5t-150.5 179.5t-53.5 322q0 198 53.5 321t150.5 179.5t226 56.5q130 0 227 -56t150.5 -178.5t53.5 -322.5q0 -197 -54 -320.5t-150.5 -180.5t-226.5 -57zM535 63q103 0 179 44.5t117 148.5t41 282q0 180 -41 284.5t-117 149t-179 44.5
q-102 0 -178 -44t-117.5 -147.5t-41.5 -281.5q0 -180 41.5 -285t117.5 -150t178 -45zM500 1261q1 55 26 86t56 51t54.5 41t23.5 53q0 38 -29.5 56t-95.5 18q-36 0 -78 -6t-76 -18v62q30 11 71 17.5t81 6.5q102 0 149 -35.5t47 -98.5q0 -48 -23.5 -75t-54.5 -46t-55 -43.5
t-25 -68.5h-71z" />
    <glyph glyph-name="uni1ED0" unicode="&#x1ed0;" horiz-adv-x="1385" 
d="M692 -18q-173 0 -302.5 76.5t-202 243.5t-72.5 438t73 438t203 243.5t301 76.5q173 0 303 -76.5t202.5 -243.5t72.5 -438t-73 -438t-203 -243.5t-302 -76.5zM692 66q145 0 253.5 63.5t169 210.5t60.5 396q0 253 -60.5 401.5t-169.5 212.5t-253 64t-252.5 -63.5
t-169 -210.5t-60.5 -396q0 -253 60.5 -401.5t169 -212.5t252.5 -64zM404 1614l242 272h92l242 -272h-95l-207 239h28l-207 -239h-95zM909 1794l170 270h91l-187 -270h-74z" />
    <glyph glyph-name="uni1ED1" unicode="&#x1ed1;" horiz-adv-x="1071" 
d="M535 -18q-129 0 -226 56.5t-150.5 179.5t-53.5 322q0 198 53.5 321t150.5 179.5t226 56.5q130 0 227 -56t150.5 -178.5t53.5 -322.5q0 -197 -54 -320.5t-150.5 -180.5t-226.5 -57zM535 63q103 0 179 44.5t117 148.5t41 282q0 180 -41 284.5t-117 149t-179 44.5
q-102 0 -178 -44t-117.5 -147.5t-41.5 -281.5q0 -180 41.5 -285t117.5 -150t178 -45zM270 1261l219 355h92l219 -355h-84l-195 323h28l-195 -323h-84zM738 1596l176 272h95l-193 -272h-78z" />
    <glyph glyph-name="uni1ED2" unicode="&#x1ed2;" horiz-adv-x="1385" 
d="M692 -18q-173 0 -302.5 76.5t-202 243.5t-72.5 438t73 438t203 243.5t301 76.5q173 0 303 -76.5t202.5 -243.5t72.5 -438t-73 -438t-203 -243.5t-302 -76.5zM692 66q145 0 253.5 63.5t169 210.5t60.5 396q0 253 -60.5 401.5t-169.5 212.5t-253 64t-252.5 -63.5
t-169 -210.5t-60.5 -396q0 -253 60.5 -401.5t169 -212.5t252.5 -64zM410 1614l242 272h93l241 -272h-95l-207 239h28l-207 -239h-95zM936 1794l-187 270h91l170 -270h-74z" />
    <glyph glyph-name="uni1ED3" unicode="&#x1ed3;" horiz-adv-x="1071" 
d="M535 -18q-129 0 -226 56.5t-150.5 179.5t-53.5 322q0 198 53.5 321t150.5 179.5t226 56.5q130 0 227 -56t150.5 -178.5t53.5 -322.5q0 -197 -54 -320.5t-150.5 -180.5t-226.5 -57zM535 63q103 0 179 44.5t117 148.5t41 282q0 180 -41 284.5t-117 149t-179 44.5
q-102 0 -178 -44t-117.5 -147.5t-41.5 -281.5q0 -180 41.5 -285t117.5 -150t178 -45zM270 1261l219 355h92l220 -355h-85l-194 323h27l-194 -323h-85zM758 1596l-193 272h95l176 -272h-78z" />
    <glyph glyph-name="uni1ED4" unicode="&#x1ed4;" horiz-adv-x="1385" 
d="M692 -18q-173 0 -302.5 76.5t-202 243.5t-72.5 438t73 438t203 243.5t301 76.5q173 0 303 -76.5t202.5 -243.5t72.5 -438t-73 -438t-203 -243.5t-302 -76.5zM692 66q145 0 253.5 63.5t169 210.5t60.5 396q0 253 -60.5 401.5t-169.5 212.5t-253 64t-252.5 -63.5
t-169 -210.5t-60.5 -396q0 -253 60.5 -401.5t169 -212.5t252.5 -64zM404 1614l242 272h92l242 -272h-95l-207 239h28l-207 -239h-95zM909 1794q2 42 28 63.5t58.5 34t57 26t24.5 40.5q0 23 -24.5 37t-95.5 14q-52 0 -98.5 -8t-98.5 -28v60q39 16 90 25.5t109 9.5
q97 0 141.5 -30.5t44.5 -77.5q0 -39 -23.5 -60t-55.5 -33.5t-57 -27.5t-28 -45h-72z" />
    <glyph glyph-name="uni1ED5" unicode="&#x1ed5;" horiz-adv-x="1071" 
d="M535 -18q-129 0 -226 56.5t-150.5 179.5t-53.5 322q0 198 53.5 321t150.5 179.5t226 56.5q130 0 227 -56t150.5 -178.5t53.5 -322.5q0 -197 -54 -320.5t-150.5 -180.5t-226.5 -57zM535 63q103 0 179 44.5t117 148.5t41 282q0 180 -41 284.5t-117 149t-179 44.5
q-102 0 -178 -44t-117.5 -147.5t-41.5 -281.5q0 -180 41.5 -285t117.5 -150t178 -45zM270 1261l219 355h92l219 -355h-84l-195 323h28l-195 -323h-84zM744 1596q2 42 27.5 63.5t58 34t57 26t24.5 40.5q0 23 -24.5 37t-95.5 14q-51 0 -98 -8t-97 -28v60q38 16 89 25.5
t108 9.5q97 0 141.5 -30.5t44.5 -77.5q0 -39 -24 -59.5t-55.5 -33t-56.5 -28t-28 -45.5h-71z" />
    <glyph glyph-name="uni1ED6" unicode="&#x1ed6;" horiz-adv-x="1385" 
d="M692 -18q-173 0 -302.5 76.5t-202 243.5t-72.5 438t73 438t203 243.5t301 76.5q173 0 303 -76.5t202.5 -243.5t72.5 -438t-73 -438t-203 -243.5t-302 -76.5zM692 66q145 0 253.5 63.5t169 210.5t60.5 396q0 253 -60.5 401.5t-169.5 212.5t-253 64t-252.5 -63.5
t-169 -210.5t-60.5 -396q0 -253 60.5 -401.5t169 -212.5t252.5 -64zM404 1614l242 272h92l242 -272h-95l-207 239h28l-207 -239h-95zM826 1932q-51 0 -97 18.5t-88.5 37.5t-83.5 19q-45 0 -82 -17.5t-71 -53.5v73q28 30 67 45.5t87 15.5q51 0 97 -18.5t88.5 -37t83.5 -18.5
q45 0 82 17t71 53v-73q-28 -30 -67 -45.5t-87 -15.5z" />
    <glyph glyph-name="uni1ED7" unicode="&#x1ed7;" horiz-adv-x="1071" 
d="M535 -18q-129 0 -226 56.5t-150.5 179.5t-53.5 322q0 198 53.5 321t150.5 179.5t226 56.5q130 0 227 -56t150.5 -178.5t53.5 -322.5q0 -197 -54 -320.5t-150.5 -180.5t-226.5 -57zM535 63q103 0 179 44.5t117 148.5t41 282q0 180 -41 284.5t-117 149t-179 44.5
q-102 0 -178 -44t-117.5 -147.5t-41.5 -281.5q0 -180 41.5 -285t117.5 -150t178 -45zM268 1261l221 350h92l221 -350h-85l-196 320h28l-196 -320h-85zM672 1671q-52 0 -98.5 19t-90 38t-86.5 19q-45 0 -82 -17.5t-71 -53.5v75q28 30 66.5 46t87.5 16q52 0 99 -19t90 -38
t86 -19q46 0 83 17.5t70 52.5v-75q-27 -29 -66 -45t-88 -16z" />
    <glyph glyph-name="uni1ED8" unicode="&#x1ed8;" horiz-adv-x="1385" 
d="M692 -18q-173 0 -302.5 76.5t-202 243.5t-72.5 438t73 438t203 243.5t301 76.5q173 0 303 -76.5t202.5 -243.5t72.5 -438t-73 -438t-203 -243.5t-302 -76.5zM692 66q145 0 253.5 63.5t169 210.5t60.5 396q0 253 -60.5 401.5t-169.5 212.5t-253 64t-252.5 -63.5
t-169 -210.5t-60.5 -396q0 -253 60.5 -401.5t169 -212.5t252.5 -64zM692 -319q-33 0 -53.5 18.5t-20.5 50.5t20.5 51.5t53.5 19.5t53.5 -19.5t20.5 -51.5t-20.5 -50.5t-53.5 -18.5zM404 1614l242 275h92l242 -275h-95l-207 241h28l-207 -241h-95z" />
    <glyph glyph-name="uni1ED9" unicode="&#x1ed9;" horiz-adv-x="1071" 
d="M535 -18q-129 0 -226 56.5t-150.5 179.5t-53.5 322q0 198 53.5 321t150.5 179.5t226 56.5q130 0 227 -56t150.5 -178.5t53.5 -322.5q0 -197 -54 -320.5t-150.5 -180.5t-226.5 -57zM535 63q103 0 179 44.5t117 148.5t41 282q0 180 -41 284.5t-117 149t-179 44.5
q-102 0 -178 -44t-117.5 -147.5t-41.5 -281.5q0 -180 41.5 -285t117.5 -150t178 -45zM535 -322q-32 0 -52 19.5t-20 51.5q0 33 20 52.5t52 19.5t52 -19.5t20 -52.5q0 -32 -20 -51.5t-52 -19.5zM270 1261l219 355h92l219 -355h-84l-195 323h28l-195 -323h-84z" />
    <glyph glyph-name="uni1EDA" unicode="&#x1eda;" horiz-adv-x="1385" 
d="M692 -18q-172 0 -302 76.5t-202.5 243.5t-72.5 438t73 438t203 243.5t301 76.5q57 0 104 -6t93.5 -12t104.5 -6q91 0 144.5 39t53.5 121q0 41 -6.5 74t-18.5 68h79q13 -35 19 -67.5t6 -77.5q0 -73 -33 -124.5t-94.5 -79t-146.5 -27.5l5 18q125 -77 196.5 -242.5
t71.5 -435.5q0 -274 -72.5 -441t-202.5 -242t-303 -75zM692 66q145 0 253.5 63.5t169 210.5t60.5 396q0 253 -60.5 401.5t-169.5 212.5t-253 64t-252.5 -63.5t-169 -210.5t-60.5 -396q0 -253 60.5 -401.5t169 -212.5t252.5 -64zM650 1614l176 275h101l-193 -275h-84z" />
    <glyph glyph-name="uni1EDB" unicode="&#x1edb;" horiz-adv-x="1071" 
d="M535 -18q-129 0 -226 56.5t-150.5 179.5t-53.5 322q0 198 53.5 321t150.5 179.5t227 56.5q53 0 98 -4.5t79 -4.5q90 0 143.5 39.5t53.5 126.5q0 41 -6.5 74t-17.5 68h78q13 -35 18.5 -67.5t5.5 -77.5q0 -76 -32.5 -129t-91.5 -80.5t-140 -27.5l29 33q213 -123 213 -507
q0 -197 -54 -320.5t-150.5 -180.5t-226.5 -57zM535 63q103 0 179 44.5t117 148.5t41 282q0 180 -41 284.5t-117 149t-179 44.5q-102 0 -178 -44t-117.5 -147.5t-41.5 -281.5q0 -180 41.5 -285t117.5 -150t178 -45zM493 1261l210 355h100l-226 -355h-84z" />
    <glyph glyph-name="uni1EDC" unicode="&#x1edc;" horiz-adv-x="1385" 
d="M692 -18q-172 0 -302 76.5t-202.5 243.5t-72.5 438t73 438t203 243.5t301 76.5q57 0 104 -6t93.5 -12t104.5 -6q91 0 144.5 39t53.5 121q0 41 -6.5 74t-18.5 68h79q13 -35 19 -67.5t6 -77.5q0 -73 -33 -124.5t-94.5 -79t-146.5 -27.5l5 18q125 -77 196.5 -242.5
t71.5 -435.5q0 -274 -72.5 -441t-202.5 -242t-303 -75zM692 66q145 0 253.5 63.5t169 210.5t60.5 396q0 253 -60.5 401.5t-169.5 212.5t-253 64t-252.5 -63.5t-169 -210.5t-60.5 -396q0 -253 60.5 -401.5t169 -212.5t252.5 -64zM650 1614l-193 275h101l176 -275h-84z" />
    </font>
</defs>
</svg>
